999
dxfrw 0.6.3
  0
SECTION
  2
HEADER
  9
$ACADVER
  1
AC1021
  9
$DWGCODEPAGE
  3
ANSI_1252
  9
$INSBASE
 10
0
 20
0
 30
0
  9
$EXTMIN
 10
-65.37912535421982
 20
-110.7481365577445
 30
0
  9
$EXTMAX
 10
84.63360050003041
 20
98.73048128472335
 30
0
  9
$LIMMIN
 10
0
 20
0
  9
$LIMMAX
 10
420
 20
297
  9
$ORTHOMODE
 70
    0
  9
$REGENMODE
 70
    1
  9
$FILLMODE
 70
    1
  9
$QTEXTMODE
 70
    0
  9
$MIRRTEXT
 70
    0
  9
$LTSCALE
 40
1
  9
$ATTMODE
 70
    0
  9
$TEXTSIZE
 40
2.5
  9
$TRACEWID
 40
15.68
  9
$TEXTSTYLE
  7
STANDARD
  9
$CLAYER
  8
0
  9
$CELTYPE
  6
BYLAYER
  9
$CECOLOR
 62
  256
  9
$CELTSCALE
 40
1
  9
$DISPSILH
 70
    0
  9
$DIMSCALE
 40
1
  9
$DIMASZ
 40
2.5
  9
$DIMEXO
 40
0.625
  9
$DIMDLI
 40
3.75
  9
$DIMRND
 40
0
  9
$DIMDLE
 40
0
  9
$DIMEXE
 40
1.25
  9
$DIMTP
 40
0
  9
$DIMTM
 40
0
  9
$DIMTXT
 40
2.5
  9
$DIMCEN
 40
2.5
  9
$DIMTSZ
 40
0
  9
$DIMTOL
 70
    0
  9
$DIMLIM
 70
    0
  9
$DIMTIH
 70
    0
  9
$DIMTOH
 70
    0
  9
$DIMSE1
 70
    0
  9
$DIMSE2
 70
    0
  9
$DIMTAD
 70
    1
  9
$DIMZIN
 70
    8
  9
$DIMBLK
  1

  9
$DIMASO
 70
    1
  9
$DIMSHO
 70
    1
  9
$DIMPOST
  1

  9
$DIMAPOST
  1

  9
$DIMALT
 70
    0
  9
$DIMALTD
 70
    3
  9
$DIMALTF
 40
0.03937
  9
$DIMLFAC
 40
1
  9
$DIMTOFL
 70
    1
  9
$DIMTVP
 40
0
  9
$DIMTIX
 70
    0
  9
$DIMSOXD
 70
    0
  9
$DIMSAH
 70
    0
  9
$DIMBLK1
  1

  9
$DIMBLK2
  1

  9
$DIMSTYLE
  2
STANDARD
  9
$DIMCLRD
 70
    0
  9
$DIMCLRE
 70
    0
  9
$DIMCLRT
 70
    0
  9
$DIMTFAC
 40
1
  9
$DIMGAP
 40
0.625
  9
$DIMJUST
 70
    0
  9
$DIMSD1
 70
    0
  9
$DIMSD2
 70
    0
  9
$DIMTOLJ
 70
    0
  9
$DIMTZIN
 70
    8
  9
$DIMALTZ
 70
    0
  9
$DIMALTTZ
 70
    0
  9
$DIMUPT
 70
    0
  9
$DIMDEC
 70
    2
  9
$DIMTDEC
 70
    2
  9
$DIMALTU
 70
    2
  9
$DIMALTTD
 70
    3
  9
$DIMTXSTY
  7
STANDARD
  9
$DIMAUNIT
 70
    0
  9
$DIMADEC
 70
    0
  9
$DIMALTRND
 40
0
  9
$DIMAZIN
 70
    0
  9
$DIMDSEP
 70
   44
  9
$DIMATFIT
 70
    3
  9
$DIMFRAC
 70
    0
  9
$DIMLDRBLK
  1
STANDARD
  9
$DIMLUNIT
 70
    2
  9
$DIMLWD
 70
   -2
  9
$DIMLWE
 70
   -2
  9
$DIMTMOVE
 70
    0
  9
$DIMFXL
 40
1
  9
$DIMFXLON
 70
    0
  9
$DIMJOGANG
 40
0.7854
  9
$DIMTFILL
 70
    0
  9
$DIMTFILLCLR
 70
    0
  9
$DIMARCSYM
 70
    0
  9
$DIMLTYPE
  6

  9
$DIMLTEX1
  6

  9
$DIMLTEX2
  6

  9
$LUNITS
 70
    2
  9
$LUPREC
 70
    4
  9
$SKETCHINC
 40
1
  9
$FILLETRAD
 40
0
  9
$AUNITS
 70
    0
  9
$AUPREC
 70
    2
  9
$MENU
  1
.
  9
$ELEVATION
 40
0
  9
$PELEVATION
 40
0
  9
$THICKNESS
 40
0
  9
$LIMCHECK
 70
    0
  9
$CHAMFERA
 40
0
  9
$CHAMFERB
 40
0
  9
$CHAMFERC
 40
0
  9
$CHAMFERD
 40
0
  9
$SKPOLY
 70
    0
  9
$USRTIMER
 70
    1
  9
$ANGBASE
 50
0
  9
$ANGDIR
 70
    0
  9
$PDMODE
 70
   34
  9
$PDSIZE
 40
0
  9
$PLINEWID
 40
0
  9
$SPLFRAME
 70
    0
  9
$SPLINETYPE
 70
    2
  9
$SPLINESEGS
 70
    8
  9
$HANDSEED
  5
20000
  9
$SURFTAB1
 70
    6
  9
$SURFTAB2
 70
    6
  9
$SURFTYPE
 70
    6
  9
$SURFU
 70
    6
  9
$SURFV
 70
    6
  9
$UCSBASE
  2

  9
$UCSNAME
  2

  9
$UCSORG
 10
0
 20
0
 30
0
  9
$UCSXDIR
 10
1
 20
0
 30
0
  9
$UCSYDIR
 10
0
 20
1
 30
0
  9
$UCSORTHOREF
  2

  9
$UCSORTHOVIEW
 70
    0
  9
$UCSORGTOP
 10
0
 20
0
 30
0
  9
$UCSORGBOTTOM
 10
0
 20
0
 30
0
  9
$UCSORGLEFT
 10
0
 20
0
 30
0
  9
$UCSORGRIGHT
 10
0
 20
0
 30
0
  9
$UCSORGFRONT
 10
0
 20
0
 30
0
  9
$UCSORGBACK
 10
0
 20
0
 30
0
  9
$PUCSBASE
  2

  9
$PUCSNAME
  2

  9
$PUCSORG
 10
0
 20
0
 30
0
  9
$PUCSXDIR
 10
1
 20
0
 30
0
  9
$PUCSYDIR
 10
0
 20
1
 30
0
  9
$PUCSORTHOREF
  2

  9
$PUCSORTHOVIEW
 70
    0
  9
$PUCSORGTOP
 10
0
 20
0
 30
0
  9
$PUCSORGBOTTOM
 10
0
 20
0
 30
0
  9
$PUCSORGLEFT
 10
0
 20
0
 30
0
  9
$PUCSORGRIGHT
 10
0
 20
0
 30
0
  9
$PUCSORGFRONT
 10
0
 20
0
 30
0
  9
$PUCSORGBACK
 10
0
 20
0
 30
0
  9
$USERI1
 70
    0
  9
$USERI2
 70
    0
  9
$USERI3
 70
    0
  9
$USERI4
 70
    0
  9
$USERI5
 70
    0
  9
$USERR1
 40
0
  9
$USERR2
 40
0
  9
$USERR3
 40
0
  9
$USERR4
 40
0
  9
$USERR5
 40
0
  9
$WORLDVIEW
 70
    1
  9
$SHADEDGE
 70
    3
  9
$SHADEDIF
 70
   70
  9
$TILEMODE
 70
    1
  9
$MAXACTVP
 70
   64
  9
$PINSBASE
 10
0
 20
0
 30
0
  9
$PLIMCHECK
 70
    0
  9
$PEXTMIN
 10
0
 20
0
 30
0
  9
$PEXTMAX
 10
0
 20
0
 30
0
  9
$GRIDMODE
 70
    1
  9
$SNAPSTYLE
 70
    0
  9
$PLIMMIN
 10
0
 20
0
  9
$PLIMMAX
 10
210
 20
297
  9
$UNITMODE
 70
    0
  9
$VISRETAIN
 70
    1
  9
$PLINEGEN
 70
    0
  9
$PSLTSCALE
 70
    1
  9
$TREEDEPTH
 70
 3020
  9
$CMLSTYLE
  2
Standard
  9
$CMLJUST
 70
    0
  9
$CMLSCALE
 40
20
  9
$PROXYGRAPHICS
 70
    1
  9
$MEASUREMENT
 70
    1
  9
$CELWEIGHT
370
   -1
  9
$ENDCAPS
280
    0
  9
$JOINSTYLE
280
    0
  9
$LWDISPLAY
290
    0
  9
$INSUNITS
 70
    0
  9
$HYPERLINKBASE
  1

  9
$STYLESHEET
  1

  9
$XEDIT
290
    1
  9
$CEPSNTYPE
380
    0
  9
$PSTYLEMODE
290
    1
  9
$EXTNAMES
290
    1
  9
$PSVPSCALE
 40
1
  9
$OLESTARTUP
290
    0
  9
$SORTENTS
280
  127
  9
$INDEXCTL
280
    0
  9
$HIDETEXT
280
    1
  9
$XCLIPFRAME
290
    0
  9
$HALOGAP
280
    0
  9
$OBSCOLOR
 70
  257
  9
$OBSLTYPE
280
    0
  9
$INTERSECTIONDISPLAY
280
    0
  9
$INTERSECTIONCOLOR
 70
  257
  9
$DIMASSOC
280
    1
  9
$PROJECTNAME
  1

  9
$CAMERADISPLAY
290
    0
  9
$LENSLENGTH
 40
50
  9
$CAMERAHEIGHT
 40
0
  9
$STEPSPERSEC
 40
2
  9
$STEPSIZE
 40
50
  9
$3DDWFPREC
 40
2
  9
$PSOLWIDTH
 40
5
  9
$PSOLHEIGHT
 40
80
  9
$LOFTANG1
 40
1.570796326794897
  9
$LOFTANG2
 40
1.570796326794897
  9
$LOFTMAG1
 40
0
  9
$LOFTMAG2
 40
0
  9
$LOFTPARAM
 70
    7
  9
$LOFTNORMALS
280
    1
  9
$LATITUDE
 40
1
  9
$LONGITUDE
 40
1
  9
$NORTHDIRECTION
 40
0
  9
$TIMEZONE
 70
-8000
  9
$LIGHTGLYPHDISPLAY
280
    1
  9
$TILEMODELIGHTSYNCH
280
    1
  9
$SOLIDHIST
280
    1
  9
$SHOWHIST
280
    1
  9
$DWFFRAME
280
    2
  9
$DGNFRAME
280
    0
  9
$REALWORLDSCALE
290
    1
  9
$INTERFERECOLOR
 62
    1
  9
$CSHADOW
280
    0
  9
$SHADOWPLANELOCATION
 40
0
  0
ENDSEC
  0
SECTION
  2
CLASSES
  0
ENDSEC
  0
SECTION
  2
TABLES
  0
TABLE
  2
VPORT
  5
8
330
0
100
AcDbSymbolTable
 70
    1
  0
VPORT
  5
31
330
2
100
AcDbSymbolTableRecord
100
AcDbViewportTableRecord
  2
*ACTIVE
 70
    0
 10
0
 20
0
 11
1
 21
1
 12
64.25109686335277
 22
53.25028871553307
 13
0
 23
0
 14
10
 24
10
 15
10
 25
10
 16
0
 26
0
 36
1
 17
0
 27
0
 37
0
 40
241.0611872391796
 41
0.9933862433862434
 42
50
 43
0
 44
0
 50
0
 51
0
 71
    0
 72
  100
 73
    1
 74
    3
 75
    0
 76
    1
 77
    0
 78
    0
281
    0
 65
    1
110
0
120
0
130
0
111
1
121
0
131
0
112
0
122
1
132
0
 79
    0
146
0
348
10020
 60
    7
 61
    5
292
1
282
    1
141
0
142
0
 63
  250
421
3358443
  0
ENDTAB
  0
TABLE
  2
LTYPE
  5
5
330
0
100
AcDbSymbolTable
 70
    4
  0
LTYPE
  5
14
330
5
100
AcDbSymbolTableRecord
100
AcDbLinetypeTableRecord
  2
ByBlock
 70
    0
  3

 72
   65
 73
    0
 40
0
  0
LTYPE
  5
15
330
5
100
AcDbSymbolTableRecord
100
AcDbLinetypeTableRecord
  2
ByLayer
 70
    0
  3

 72
   65
 73
    0
 40
0
  0
LTYPE
  5
16
330
5
100
AcDbSymbolTableRecord
100
AcDbLinetypeTableRecord
  2
Continuous
 70
    0
  3
Solid line
 72
   65
 73
    0
 40
0
  0
LTYPE
  5
32
330
5
100
AcDbSymbolTableRecord
100
AcDbLinetypeTableRecord
  2
DOT
 70
    0
  3
Dot . . . . . . . . . . . . . . . . . . . . . .
 72
   65
 73
    2
 40
6.35
 49
0
 74
    0
 49
-6.35
 74
    0
  0
LTYPE
  5
33
330
5
100
AcDbSymbolTableRecord
100
AcDbLinetypeTableRecord
  2
DOTTINY
 70
    0
  3
Dot (.15x) .....................................
 72
   65
 73
    2
 40
0.9525
 49
0
 74
    0
 49
-0.9525
 74
    0
  0
LTYPE
  5
34
330
5
100
AcDbSymbolTableRecord
100
AcDbLinetypeTableRecord
  2
DOT2
 70
    0
  3
Dot (.5x) .....................................
 72
   65
 73
    2
 40
3.175
 49
0
 74
    0
 49
-3.175
 74
    0
  0
LTYPE
  5
35
330
5
100
AcDbSymbolTableRecord
100
AcDbLinetypeTableRecord
  2
DOTX2
 70
    0
  3
Dot (2x) .  .  .  .  .  .  .  .  .  .  .  .  .
 72
   65
 73
    2
 40
12.7
 49
0
 74
    0
 49
-12.7
 74
    0
  0
LTYPE
  5
36
330
5
100
AcDbSymbolTableRecord
100
AcDbLinetypeTableRecord
  2
DASHED
 70
    0
  3
Dashed _ _ _ _ _ _ _ _ _ _ _ _ _ _ _ _ _
 72
   65
 73
    2
 40
19.05
 49
12.7
 74
    0
 49
-6.35
 74
    0
  0
LTYPE
  5
37
330
5
100
AcDbSymbolTableRecord
100
AcDbLinetypeTableRecord
  2
DASHEDTINY
 70
    0
  3
Dashed (.15x) _ _ _ _ _ _ _ _ _ _ _ _ _ _ _ _ _
 72
   65
 73
    2
 40
2.8575
 49
1.905
 74
    0
 49
-0.9525
 74
    0
  0
LTYPE
  5
38
330
5
100
AcDbSymbolTableRecord
100
AcDbLinetypeTableRecord
  2
DASHED2
 70
    0
  3
Dashed (.5x) _ _ _ _ _ _ _ _ _ _ _ _ _ _ _ _ _
 72
   65
 73
    2
 40
9.524999999999999
 49
6.35
 74
    0
 49
-3.175
 74
    0
  0
LTYPE
  5
39
330
5
100
AcDbSymbolTableRecord
100
AcDbLinetypeTableRecord
  2
DASHEDX2
 70
    0
  3
Dashed (2x) ____  ____  ____  ____  ____  ___
 72
   65
 73
    2
 40
38.09999999999999
 49
25.4
 74
    0
 49
-12.7
 74
    0
  0
LTYPE
  5
3A
330
5
100
AcDbSymbolTableRecord
100
AcDbLinetypeTableRecord
  2
DASHDOT
 70
    0
  3
Dash dot __ . __ . __ . __ . __ . __ . __ . __
 72
   65
 73
    4
 40
25.4
 49
12.7
 74
    0
 49
-6.35
 74
    0
 49
0
 74
    0
 49
-6.35
 74
    0
  0
LTYPE
  5
3B
330
5
100
AcDbSymbolTableRecord
100
AcDbLinetypeTableRecord
  2
DASHDOTTINY
 70
    0
  3
Dash dot (.15x) _._._._._._._._._._._._._._._.
 72
   65
 73
    4
 40
3.81
 49
1.905
 74
    0
 49
-0.9525
 74
    0
 49
0
 74
    0
 49
-0.9525
 74
    0
  0
LTYPE
  5
3C
330
5
100
AcDbSymbolTableRecord
100
AcDbLinetypeTableRecord
  2
DASHDOT2
 70
    0
  3
Dash dot (.5x) _._._._._._._._._._._._._._._.
 72
   65
 73
    4
 40
12.7
 49
6.35
 74
    0
 49
-3.175
 74
    0
 49
0
 74
    0
 49
-3.175
 74
    0
  0
LTYPE
  5
3D
330
5
100
AcDbSymbolTableRecord
100
AcDbLinetypeTableRecord
  2
DASHDOTX2
 70
    0
  3
Dash dot (2x) ____  .  ____  .  ____  .  ___
 72
   65
 73
    4
 40
50.8
 49
25.4
 74
    0
 49
-12.7
 74
    0
 49
0
 74
    0
 49
-12.7
 74
    0
  0
LTYPE
  5
3E
330
5
100
AcDbSymbolTableRecord
100
AcDbLinetypeTableRecord
  2
DIVIDE
 70
    0
  3
Divide ____ . . ____ . . ____ . . ____ . . ____
 72
   65
 73
    6
 40
31.75
 49
12.7
 74
    0
 49
-6.35
 74
    0
 49
0
 74
    0
 49
-6.35
 74
    0
 49
0
 74
    0
 49
-6.35
 74
    0
  0
LTYPE
  5
3F
330
5
100
AcDbSymbolTableRecord
100
AcDbLinetypeTableRecord
  2
DIVIDETINY
 70
    0
  3
Divide (.15x) __..__..__..__..__..__..__..__.._
 72
   65
 73
    6
 40
4.7625
 49
1.905
 74
    0
 49
-0.9525
 74
    0
 49
0
 74
    0
 49
-0.9525
 74
    0
 49
0
 74
    0
 49
-0.9525
 74
    0
  0
LTYPE
  5
40
330
5
100
AcDbSymbolTableRecord
100
AcDbLinetypeTableRecord
  2
DIVIDE2
 70
    0
  3
Divide (.5x) __..__..__..__..__..__..__..__.._
 72
   65
 73
    6
 40
15.875
 49
6.35
 74
    0
 49
-3.175
 74
    0
 49
0
 74
    0
 49
-3.175
 74
    0
 49
0
 74
    0
 49
-3.175
 74
    0
  0
LTYPE
  5
41
330
5
100
AcDbSymbolTableRecord
100
AcDbLinetypeTableRecord
  2
DIVIDEX2
 70
    0
  3
Divide (2x) ________  .  .  ________  .  .  _
 72
   65
 73
    6
 40
63.5
 49
25.4
 74
    0
 49
-12.7
 74
    0
 49
0
 74
    0
 49
-12.7
 74
    0
 49
0
 74
    0
 49
-12.7
 74
    0
  0
LTYPE
  5
42
330
5
100
AcDbSymbolTableRecord
100
AcDbLinetypeTableRecord
  2
BORDER
 70
    0
  3
Border __ __ . __ __ . __ __ . __ __ . __ __ .
 72
   65
 73
    6
 40
44.45
 49
12.7
 74
    0
 49
-6.35
 74
    0
 49
12.7
 74
    0
 49
-6.35
 74
    0
 49
0
 74
    0
 49
-6.35
 74
    0
  0
LTYPE
  5
43
330
5
100
AcDbSymbolTableRecord
100
AcDbLinetypeTableRecord
  2
BORDERTINY
 70
    0
  3
Border (.15x) __.__.__.__.__.__.__.__.__.__.__.
 72
   65
 73
    6
 40
6.6675
 49
1.905
 74
    0
 49
-0.9525
 74
    0
 49
1.905
 74
    0
 49
-0.9525
 74
    0
 49
0
 74
    0
 49
-0.9525
 74
    0
  0
LTYPE
  5
44
330
5
100
AcDbSymbolTableRecord
100
AcDbLinetypeTableRecord
  2
BORDER2
 70
    0
  3
Border (.5x) __.__.__.__.__.__.__.__.__.__.__.
 72
   65
 73
    6
 40
22.225
 49
6.35
 74
    0
 49
-3.175
 74
    0
 49
6.35
 74
    0
 49
-3.175
 74
    0
 49
0
 74
    0
 49
-3.175
 74
    0
  0
LTYPE
  5
45
330
5
100
AcDbSymbolTableRecord
100
AcDbLinetypeTableRecord
  2
BORDERX2
 70
    0
  3
Border (2x) ____  ____  .  ____  ____  .  ___
 72
   65
 73
    6
 40
88.89999999999999
 49
25.4
 74
    0
 49
-12.7
 74
    0
 49
25.4
 74
    0
 49
-12.7
 74
    0
 49
0
 74
    0
 49
-12.7
 74
    0
  0
LTYPE
  5
46
330
5
100
AcDbSymbolTableRecord
100
AcDbLinetypeTableRecord
  2
CENTER
 70
    0
  3
Center ____ _ ____ _ ____ _ ____ _ ____ _ ____
 72
   65
 73
    4
 40
50.8
 49
31.75
 74
    0
 49
-6.35
 74
    0
 49
6.35
 74
    0
 49
-6.35
 74
    0
  0
LTYPE
  5
47
330
5
100
AcDbSymbolTableRecord
100
AcDbLinetypeTableRecord
  2
CENTERTINY
 70
    0
  3
Center (.15x) ___ _ ___ _ ___ _ ___ _ ___ _ ___
 72
   65
 73
    4
 40
7.619999999999999
 49
4.7625
 74
    0
 49
-0.9525
 74
    0
 49
0.9525
 74
    0
 49
-0.9525
 74
    0
  0
LTYPE
  5
48
330
5
100
AcDbSymbolTableRecord
100
AcDbLinetypeTableRecord
  2
CENTER2
 70
    0
  3
Center (.5x) ___ _ ___ _ ___ _ ___ _ ___ _ ___
 72
   65
 73
    4
 40
28.575
 49
19.05
 74
    0
 49
-3.175
 74
    0
 49
3.175
 74
    0
 49
-3.175
 74
    0
  0
LTYPE
  5
49
330
5
100
AcDbSymbolTableRecord
100
AcDbLinetypeTableRecord
  2
CENTERX2
 70
    0
  3
Center (2x) ________  __  ________  __  _____
 72
   65
 73
    4
 40
101.6
 49
63.5
 74
    0
 49
-12.7
 74
    0
 49
12.7
 74
    0
 49
-12.7
 74
    0
  0
ENDTAB
  0
TABLE
  2
LAYER
  5
2
330
0
100
AcDbSymbolTable
 70
    1
  0
LAYER
  5
10
330
2
100
AcDbSymbolTableRecord
100
AcDbLayerTableRecord
  2
0
 70
    0
 62
    7
  6
CONTINUOUS
370
    0
390
F
  0
LAYER
  5
4A
330
2
100
AcDbSymbolTableRecord
100
AcDbLayerTableRecord
  2
Calque_1
 70
    0
 62
    7
  6
CONTINUOUS
370
   -3
390
F
  0
ENDTAB
  0
TABLE
  2
STYLE
  5
3
330
0
100
AcDbSymbolTable
 70
    3
  0
STYLE
  5
4B
330
2
100
AcDbSymbolTableRecord
100
AcDbTextStyleTableRecord
  2
wqy-unicode
 70
    0
 40
0
 41
1
 50
0
 71
    0
 42
1
  3
wqy-unicode
  4

  0
STYLE
  5
4C
330
2
100
AcDbSymbolTableRecord
100
AcDbTextStyleTableRecord
  2
Standard
 70
    0
 40
0
 41
1
 50
0
 71
    0
 42
1
  3
txt
  4

  0
ENDTAB
  0
TABLE
  2
VIEW
  5
6
330
0
100
AcDbSymbolTable
 70
    0
  0
ENDTAB
  0
TABLE
  2
UCS
  5
7
330
0
100
AcDbSymbolTable
 70
    0
  0
ENDTAB
  0
TABLE
  2
APPID
  5
9
330
0
100
AcDbSymbolTable
 70
    1
  0
APPID
  5
12
330
9
100
AcDbSymbolTableRecord
100
AcDbRegAppTableRecord
  2
ACAD
 70
    0
  0
APPID
  5
4D
330
9
100
AcDbSymbolTableRecord
100
AcDbRegAppTableRecord
  2
LibreCad
 70
    0
  0
ENDTAB
  0
TABLE
  2
DIMSTYLE
  5
A
330
0
100
AcDbSymbolTable
 70
    1
100
AcDbDimStyleTable
 71
    1
  0
DIMSTYLE
105
4E
330
A
100
AcDbSymbolTableRecord
100
AcDbDimStyleTableRecord
  2
Standard
 70
    0
 40
1
 41
2.5
 42
0.625
 43
0.38
 44
1.25
 45
0
 46
0
 47
0
 48
0
 49
1
140
2.5
141
0.09
142
0
143
25.4
144
1
145
0
146
1
147
0.625
148
0
 71
    0
 72
    0
 73
    0
 74
    1
 75
    0
 76
    0
 77
    0
 78
    8
 79
    0
170
    0
171
    2
172
    0
173
    0
174
    0
175
    0
176
    0
177
    0
178
    0
179
    0
271
    2
272
    4
273
    2
274
    2
275
    0
276
    0
277
    2
278
   44
279
    0
280
    0
281
    0
282
    0
283
    1
284
    0
285
    0
286
    0
288
    0
289
    3
340
STANDARD
341

371
   -2
372
   -2
  0
ENDTAB
  0
TABLE
  2
BLOCK_RECORD
  5
1
330
0
100
AcDbSymbolTable
 70
    2
  0
BLOCK_RECORD
  5
1F
330
1
100
AcDbSymbolTableRecord
100
AcDbBlockTableRecord
  2
*Model_Space
 70
    0
280
    1
281
    0
  0
BLOCK_RECORD
  5
1E
330
1
100
AcDbSymbolTableRecord
100
AcDbBlockTableRecord
  2
*Paper_Space
 70
    0
280
    1
281
    0
  0
BLOCK_RECORD
  5
4F
330
1
100
AcDbSymbolTableRecord
100
AcDbBlockTableRecord
  2
*D8
 70
    0
280
    1
281
    0
  0
BLOCK_RECORD
  5
52
330
1
100
AcDbSymbolTableRecord
100
AcDbBlockTableRecord
  2
*D7
 70
    0
280
    1
281
    0
  0
BLOCK_RECORD
  5
55
330
1
100
AcDbSymbolTableRecord
100
AcDbBlockTableRecord
  2
*D4
 70
    0
280
    1
281
    0
  0
BLOCK_RECORD
  5
58
330
1
100
AcDbSymbolTableRecord
100
AcDbBlockTableRecord
  2
*D5
 70
    0
280
    1
281
    0
  0
BLOCK_RECORD
  5
5B
330
1
100
AcDbSymbolTableRecord
100
AcDbBlockTableRecord
  2
*D1
 70
    0
280
    1
281
    0
  0
BLOCK_RECORD
  5
5E
330
1
100
AcDbSymbolTableRecord
100
AcDbBlockTableRecord
  2
*D3
 70
    0
280
    1
281
    0
  0
BLOCK_RECORD
  5
61
330
1
100
AcDbSymbolTableRecord
100
AcDbBlockTableRecord
  2
*D6
 70
    0
280
    1
281
    0
  0
BLOCK_RECORD
  5
64
330
1
100
AcDbSymbolTableRecord
100
AcDbBlockTableRecord
  2
*D2
 70
    0
280
    1
281
    0
  0
BLOCK_RECORD
  5
67
330
1
100
AcDbSymbolTableRecord
100
AcDbBlockTableRecord
  2
logo_python_mcu_mep
 70
    0
280
    1
281
    0
  0
BLOCK_RECORD
  5
6A
330
1
100
AcDbSymbolTableRecord
100
AcDbBlockTableRecord
  2
logo_python_mcu_mep-0
 70
    0
280
    1
281
    0
  0
ENDTAB
  0
ENDSEC
  0
SECTION
  2
BLOCKS
  0
BLOCK
  5
20
330
1F
100
AcDbEntity
  8
0
100
AcDbBlockBegin
  2
*Model_Space
 70
    0
 10
0
 20
0
 30
0
  3
*Model_Space
  1

  0
ENDBLK
  5
21
330
1F
100
AcDbEntity
  8
0
100
AcDbBlockEnd
  0
BLOCK
  5
1C
330
1B
100
AcDbEntity
  8
0
100
AcDbBlockBegin
  2
*Paper_Space
 70
    0
 10
0
 20
0
 30
0
  3
*Paper_Space
  1

  0
ENDBLK
  5
1D
330
1F
100
AcDbEntity
  8
0
100
AcDbBlockEnd
  0
BLOCK
  5
50
330
4F
100
AcDbEntity
  8
0
100
AcDbBlockBegin
  2
*D8
 70
    1
 10
0
 20
0
  3
*D8
  1

  0
LINE
  5
6D
100
AcDbEntity
  8
0
  6
ByBlock
 62
    0
370
   -2
100
AcDbLine
 10
40.625
 20
-70.10703980770654
 11
64.59568100002301
 21
-70.10703980770654
  0
LINE
  5
6E
100
AcDbEntity
  8
0
  6
ByBlock
 62
    0
370
   -2
100
AcDbLine
 10
40.625
 20
-17.10703980770655
 11
64.59568100002301
 21
-17.10703980770655
  0
LINE
  5
6F
100
AcDbEntity
  8
0
  6
ByBlock
 62
    0
370
   -2
100
AcDbLine
 10
63.345681000023
 20
-70.10703980770654
 11
63.345681000023
 21
-17.10703980770655
  0
SOLID
  5
70
100
AcDbEntity
  8
0
  6
ByBlock
 62
    0
370
   -2
100
AcDbTrace
 10
63.345681000023
 20
-70.10703980770654
 30
0
 11
62.92939634225016
 21
-67.60703980770654
 31
0
 12
63.76196565779584
 22
-67.60703980770654
 32
0
 13
63.76196565779584
 23
-67.60703980770654
 33
0
  0
SOLID
  5
71
100
AcDbEntity
  8
0
  6
ByBlock
 62
    0
370
   -2
100
AcDbTrace
 10
63.345681000023
 20
-17.10703980770655
 30
0
 11
63.76196565779584
 21
-19.60703980770655
 31
0
 12
62.92939634225016
 22
-19.60703980770655
 32
0
 13
62.92939634225016
 23
-19.60703980770655
 33
0
  0
MTEXT
  5
72
100
AcDbEntity
  8
0
  6
CONTINUOUS
 62
    0
370
   -2
100
AcDbMText
 10
61.470681000023
 20
-43.60703980770655
 30
0
 40
2.5
 41
3.055555555555866
 71
    5
 72
    1
  1
53
  7
STANDARD
210
0
220
0
230
1
 50
90
 73
    2
 44
1
  0
ENDBLK
  5
51
330
4F
100
AcDbEntity
  8
0
100
AcDbBlockEnd
  0
BLOCK
  5
53
330
52
100
AcDbEntity
  8
0
100
AcDbBlockBegin
  2
*D7
 70
    1
 10
0
 20
0
  3
*D7
  1

  0
LINE
  5
73
100
AcDbEntity
  8
0
  6
ByBlock
 62
    0
370
   -2
100
AcDbLine
 10
-42
 20
-65.84579830772836
 11
-42.00000000000001
 21
-110.7481365577445
  0
LINE
  5
74
100
AcDbEntity
  8
0
  6
ByBlock
 62
    0
370
   -2
100
AcDbLine
 10
40
 20
-65.84579830772836
 11
39.99999999999999
 21
-110.7481365577445
  0
LINE
  5
75
100
AcDbEntity
  8
0
  6
ByBlock
 62
    0
370
   -2
100
AcDbLine
 10
-42.00000000000001
 20
-109.4981365577445
 11
39.99999999999999
 21
-109.4981365577445
  0
SOLID
  5
76
100
AcDbEntity
  8
0
  6
ByBlock
 62
    0
370
   -2
100
AcDbTrace
 10
-42.00000000000001
 20
-109.4981365577445
 30
0
 11
-39.50000000000001
 21
-109.0818518999717
 31
0
 12
-39.50000000000001
 22
-109.9144212155173
 32
0
 13
-39.50000000000001
 23
-109.9144212155173
 33
0
  0
SOLID
  5
77
100
AcDbEntity
  8
0
  6
ByBlock
 62
    0
370
   -2
100
AcDbTrace
 10
39.99999999999999
 20
-109.4981365577445
 30
0
 11
37.49999999999999
 21
-109.9144212155173
 31
0
 12
37.49999999999999
 22
-109.0818518999717
 32
0
 13
37.49999999999999
 23
-109.0818518999717
 33
0
  0
MTEXT
  5
78
100
AcDbEntity
  8
0
  6
CONTINUOUS
 62
    0
370
   -2
100
AcDbMText
 10
-1.000000000000007
 20
-107.6231365577445
 30
0
 40
2.5
 41
3.055555555555556
 71
    5
 72
    1
  1
82
  7
STANDARD
210
0
220
0
230
1
 50
0
 73
    2
 44
1
  0
ENDBLK
  5
54
330
52
100
AcDbEntity
  8
0
100
AcDbBlockEnd
  0
BLOCK
  5
56
330
55
100
AcDbEntity
  8
0
100
AcDbBlockBegin
  2
*D4
 70
    1
 10
0
 20
0
  3
*D4
  1

  0
LINE
  5
79
100
AcDbEntity
  8
0
  6
ByBlock
 62
    0
370
   -2
100
AcDbLine
 10
-29.25
 20
72.92500000000001
 11
-29.25
 21
90.54510994478257
  0
LINE
  5
7A
100
AcDbEntity
  8
0
  6
ByBlock
 62
    0
370
   -2
100
AcDbLine
 10
29.20724943874099
 20
72.92500000000001
 11
29.20724943874099
 21
90.54510994478257
  0
LINE
  5
7B
100
AcDbEntity
  8
0
  6
ByBlock
 62
    0
370
   -2
100
AcDbLine
 10
-29.25
 20
89.29510994478257
 11
29.20724943874099
 21
89.29510994478257
  0
SOLID
  5
7C
100
AcDbEntity
  8
0
  6
ByBlock
 62
    0
370
   -2
100
AcDbTrace
 10
-29.25
 20
89.29510994478257
 30
0
 11
-26.75
 21
89.7113946025554
 31
0
 12
-26.75
 22
88.87882528700973
 32
0
 13
-26.75
 23
88.87882528700973
 33
0
  0
SOLID
  5
7D
100
AcDbEntity
  8
0
  6
ByBlock
 62
    0
370
   -2
100
AcDbTrace
 10
29.20724943874099
 20
89.29510994478257
 30
0
 11
26.70724943874099
 21
88.87882528700973
 31
0
 12
26.70724943874099
 22
89.7113946025554
 32
0
 13
26.70724943874099
 23
89.7113946025554
 33
0
  0
MTEXT
  5
7E
100
AcDbEntity
  8
0
  6
CONTINUOUS
 62
    0
370
   -2
100
AcDbMText
 10
-0.02137528062950255
 20
91.17010994478257
 30
0
 40
2.5
 41
8.194444444444756
 71
    5
 72
    1
  1
58,46
  7
STANDARD
210
0
220
0
230
1
 50
0
 73
    2
 44
1
  0
ENDBLK
  5
57
330
55
100
AcDbEntity
  8
0
100
AcDbBlockEnd
  0
BLOCK
  5
59
330
58
100
AcDbEntity
  8
0
100
AcDbBlockBegin
  2
*D5
 70
    1
 10
0
 20
0
  3
*D5
  1

  0
LINE
  5
7F
100
AcDbEntity
  8
0
  6
ByBlock
 62
    0
370
   -2
100
AcDbLine
 10
27.525
 20
70
 11
84.63360050003041
 21
70
  0
LINE
  5
80
100
AcDbEntity
  8
0
  6
ByBlock
 62
    0
370
   -2
100
AcDbLine
 10
27.525
 20
-6.200012917966433
 11
84.63360050003041
 21
-6.200012917966433
  0
LINE
  5
81
100
AcDbEntity
  8
0
  6
ByBlock
 62
    0
370
   -2
100
AcDbLine
 10
83.38360050003041
 20
70
 11
83.38360050003041
 21
-6.200012917966433
  0
SOLID
  5
82
100
AcDbEntity
  8
0
  6
ByBlock
 62
    0
370
   -2
100
AcDbTrace
 10
83.38360050003041
 20
70
 30
0
 11
83.79988515780325
 21
67.5
 31
0
 12
82.96731584225758
 22
67.5
 32
0
 13
82.96731584225758
 23
67.5
 33
0
  0
SOLID
  5
83
100
AcDbEntity
  8
0
  6
ByBlock
 62
    0
370
   -2
100
AcDbTrace
 10
83.38360050003041
 20
-6.200012917966433
 30
0
 11
82.96731584225758
 21
-3.700012917966433
 31
0
 12
83.79988515780325
 22
-3.700012917966433
 32
0
 13
83.79988515780325
 23
-3.700012917966433
 33
0
  0
MTEXT
  5
84
100
AcDbEntity
  8
0
  6
CONTINUOUS
 62
    0
370
   -2
100
AcDbMText
 10
81.50860050003041
 20
31.89999354101677
 30
0
 40
2.5
 41
5.972222222222378
 71
    5
 72
    1
  1
76,2
  7
STANDARD
210
0
220
0
230
1
 50
90
 73
    2
 44
1
  0
ENDBLK
  5
5A
330
58
100
AcDbEntity
  8
0
100
AcDbBlockEnd
  0
BLOCK
  5
5C
330
5B
100
AcDbEntity
  8
0
100
AcDbBlockBegin
  2
*D1
 70
    1
 10
0
 20
0
  3
*D1
  1

  0
LINE
  5
85
100
AcDbEntity
  8
0
  6
ByBlock
 62
    0
370
   -2
100
AcDbLine
 10
-50
 20
-70.625
 11
-50.00000000000001
 21
-91.25
  0
LINE
  5
86
100
AcDbEntity
  8
0
  6
ByBlock
 62
    0
370
   -2
100
AcDbLine
 10
50
 20
-70.625
 11
49.99999999999999
 21
-91.25
  0
LINE
  5
87
100
AcDbEntity
  8
0
  6
ByBlock
 62
    0
370
   -2
100
AcDbLine
 10
-50.00000000000001
 20
-90
 11
49.99999999999999
 21
-90
  0
SOLID
  5
88
100
AcDbEntity
  8
0
  6
ByBlock
 62
    0
370
   -2
100
AcDbTrace
 10
-50.00000000000001
 20
-90
 30
0
 11
-47.50000000000001
 21
-89.58371534222717
 31
0
 12
-47.50000000000001
 22
-90.41628465777283
 32
0
 13
-47.50000000000001
 23
-90.41628465777283
 33
0
  0
SOLID
  5
89
100
AcDbEntity
  8
0
  6
ByBlock
 62
    0
370
   -2
100
AcDbTrace
 10
49.99999999999999
 20
-90
 30
0
 11
47.49999999999999
 21
-90.41628465777283
 31
0
 12
47.49999999999999
 22
-89.58371534222717
 32
0
 13
47.49999999999999
 23
-89.58371534222717
 33
0
  0
MTEXT
  5
8A
100
AcDbEntity
  8
0
  6
CONTINUOUS
 62
    0
370
   -2
100
AcDbMText
 10
-6.990616720180938e-15
 20
-88.125
 30
0
 40
2.5
 41
4.444444444444445
 71
    5
 72
    1
  1
100
  7
STANDARD
210
0
220
0
230
1
 50
0
 73
    2
 44
1
  0
ENDBLK
  5
5D
330
5B
100
AcDbEntity
  8
0
100
AcDbBlockEnd
  0
BLOCK
  5
5F
330
5E
100
AcDbEntity
  8
0
100
AcDbBlockBegin
  2
*D3
 70
    1
 10
0
 20
0
  3
*D3
  1

  0
LINE
  5
8B
100
AcDbEntity
  8
0
  6
ByBlock
 62
    0
370
   -2
100
AcDbLine
 10
29.875
 20
-9
 11
73.44950000002626
 21
-9
  0
LINE
  5
8C
100
AcDbEntity
  8
0
  6
ByBlock
 62
    0
370
   -2
100
AcDbLine
 10
29.875
 20
72.30000000000001
 11
73.44950000002626
 21
72.30000000000001
  0
LINE
  5
8D
100
AcDbEntity
  8
0
  6
ByBlock
 62
    0
370
   -2
100
AcDbLine
 10
72.19950000002626
 20
-9
 11
72.19950000002626
 21
72.30000000000001
  0
SOLID
  5
8E
100
AcDbEntity
  8
0
  6
ByBlock
 62
    0
370
   -2
100
AcDbTrace
 10
72.19950000002626
 20
-9
 30
0
 11
71.78321534225343
 21
-6.5
 31
0
 12
72.6157846577991
 22
-6.5
 32
0
 13
72.6157846577991
 23
-6.5
 33
0
  0
SOLID
  5
8F
100
AcDbEntity
  8
0
  6
ByBlock
 62
    0
370
   -2
100
AcDbTrace
 10
72.19950000002626
 20
72.30000000000001
 30
0
 11
72.6157846577991
 21
69.80000000000001
 31
0
 12
71.78321534225343
 22
69.80000000000001
 32
0
 13
71.78321534225343
 23
69.80000000000001
 33
0
  0
MTEXT
  5
90
100
AcDbEntity
  8
0
  6
CONTINUOUS
 62
    0
370
   -2
100
AcDbMText
 10
70.32450000002626
 20
31.65000000000001
 30
0
 40
2.5
 41
5.416666666666822
 71
    5
 72
    1
  1
81,3
  7
STANDARD
210
0
220
0
230
1
 50
90
 73
    2
 44
1
  0
ENDBLK
  5
60
330
5E
100
AcDbEntity
  8
0
100
AcDbBlockEnd
  0
BLOCK
  5
62
330
61
100
AcDbEntity
  8
0
100
AcDbBlockBegin
  2
*D6
 70
    1
 10
0
 20
0
  3
*D6
  1

  0
LINE
  5
91
100
AcDbEntity
  8
0
  6
ByBlock
 62
    0
370
   -2
100
AcDbLine
 10
-26.19
 20
70.625
 11
-26.18999999999999
 21
96.85548128472335
  0
LINE
  5
92
100
AcDbEntity
  8
0
  6
ByBlock
 62
    0
370
   -2
100
AcDbLine
 10
26.18999999999999
 20
70.625
 11
26.19
 21
96.85548128472335
  0
LINE
  5
93
100
AcDbEntity
  8
0
  6
ByBlock
 62
    0
370
   -2
100
AcDbLine
 10
-26.18999999999999
 20
95.60548128472335
 11
26.19
 21
95.60548128472335
  0
SOLID
  5
94
100
AcDbEntity
  8
0
  6
ByBlock
 62
    0
370
   -2
100
AcDbTrace
 10
-26.18999999999999
 20
95.60548128472335
 30
0
 11
-23.68999999999999
 21
96.02176594249619
 31
0
 12
-23.68999999999999
 22
95.18919662695052
 32
0
 13
-23.68999999999999
 23
95.18919662695052
 33
0
  0
SOLID
  5
95
100
AcDbEntity
  8
0
  6
ByBlock
 62
    0
370
   -2
100
AcDbTrace
 10
26.19
 20
95.60548128472335
 30
0
 11
23.69
 21
95.18919662695052
 31
0
 12
23.69
 22
96.02176594249619
 32
0
 13
23.69
 23
96.02176594249619
 33
0
  0
MTEXT
  5
96
100
AcDbEntity
  8
0
  6
CONTINUOUS
 62
    0
370
   -2
100
AcDbMText
 10
-3.437903041380437e-15
 20
97.48048128472335
 30
0
 40
2.5
 41
7.916666666666977
 71
    5
 72
    1
  1
52,38
  7
STANDARD
210
0
220
0
230
1
 50
0
 73
    2
 44
1
  0
ENDBLK
  5
63
330
61
100
AcDbEntity
  8
0
100
AcDbBlockEnd
  0
BLOCK
  5
65
330
64
100
AcDbEntity
  8
0
100
AcDbBlockBegin
  2
*D2
 70
    1
 10
0
 20
0
  3
*D2
  1

  0
LINE
  5
97
100
AcDbEntity
  8
0
  6
ByBlock
 62
    0
370
   -2
100
AcDbLine
 10
-41.98847926219975
 20
-75
 11
-63.50412535421982
 21
-75
  0
LINE
  5
98
100
AcDbEntity
  8
0
  6
ByBlock
 62
    0
370
   -2
100
AcDbLine
 10
-41.98847926219975
 20
75
 11
-63.50412535421982
 21
75
  0
LINE
  5
99
100
AcDbEntity
  8
0
  6
ByBlock
 62
    0
370
   -2
100
AcDbLine
 10
-62.25412535421982
 20
-75
 11
-62.25412535421982
 21
75
  0
SOLID
  5
9A
100
AcDbEntity
  8
0
  6
ByBlock
 62
    0
370
   -2
100
AcDbTrace
 10
-62.25412535421982
 20
-75
 30
0
 11
-62.67041001199267
 21
-72.5
 31
0
 12
-61.83784069644698
 22
-72.5
 32
0
 13
-61.83784069644698
 23
-72.5
 33
0
  0
SOLID
  5
9B
100
AcDbEntity
  8
0
  6
ByBlock
 62
    0
370
   -2
100
AcDbTrace
 10
-62.25412535421982
 20
75
 30
0
 11
-61.83784069644698
 21
72.5
 31
0
 12
-62.67041001199267
 22
72.5
 32
0
 13
-62.67041001199267
 23
72.5
 33
0
  0
MTEXT
  5
9C
100
AcDbEntity
  8
0
  6
CONTINUOUS
 62
    0
370
   -2
100
AcDbMText
 10
-64.12912535421982
 20
2.296212748401287e-16
 30
0
 40
2.5
 41
4.444444444444599
 71
    5
 72
    1
  1
150
  7
STANDARD
210
0
220
0
230
1
 50
90
 73
    2
 44
1
  0
ENDBLK
  5
66
330
64
100
AcDbEntity
  8
0
100
AcDbBlockEnd
  0
BLOCK
  5
68
330
67
100
AcDbEntity
  8
0
100
AcDbBlockBegin
  2
logo_python_mcu_mep
 70
    0
 10
0
 20
0
  3
logo_python_mcu_mep
  1

  0
SPLINE
  5
9D
100
AcDbEntity
  8
Calque_1
  6
ByLayer
 62
    7
370
   -1
100
AcDbSpline
210
0
220
0
230
0
 70
    8
 71
    3
 72
    8
 73
    4
 74
    0
 42
1e-07
 43
1e-07
 40
0
 40
0
 40
0
 40
0
 40
1
 40
1
 40
1
 40
1
 10
14.152459
 20
10.004209
 30
0
 10
14.611805
 20
10.004209
 30
0
 10
14.960908
 20
9.889372000000002
 30
0
 10
15.199768
 20
9.659699
 30
0
  0
SPLINE
  5
9E
100
AcDbEntity
  8
Calque_1
  6
ByLayer
 62
    7
370
   -1
100
AcDbSpline
210
0
220
0
230
0
 70
    8
 71
    3
 72
    8
 73
    4
 74
    0
 42
1e-07
 43
1e-07
 40
0
 40
0
 40
0
 40
0
 40
1
 40
1
 40
1
 40
1
 10
15.199768
 20
9.659699
 30
0
 10
15.440925
 20
9.432323999999999
 30
0
 10
15.561503
 20
9.100447000000001
 30
0
 10
15.561503
 20
8.664066999999999
 30
0
  0
SPLINE
  5
9F
100
AcDbEntity
  8
Calque_1
  6
ByLayer
 62
    7
370
   -1
100
AcDbSpline
210
0
220
0
230
0
 70
    8
 71
    3
 72
    8
 73
    4
 74
    0
 42
1e-07
 43
1e-07
 40
0
 40
0
 40
0
 40
0
 40
1
 40
1
 40
1
 40
1
 10
15.561503
 20
8.664066999999999
 30
0
 10
15.561503
 20
8.227687
 30
0
 10
15.440925
 20
7.89466
 30
0
 10
15.199768
 20
7.664987
 30
0
  0
SPLINE
  5
A0
100
AcDbEntity
  8
Calque_1
  6
ByLayer
 62
    7
370
   -1
100
AcDbSpline
210
0
220
0
230
0
 70
    8
 71
    3
 72
    8
 73
    4
 74
    0
 42
1e-07
 43
1e-07
 40
0
 40
0
 40
0
 40
0
 40
1
 40
1
 40
1
 40
1
 10
15.199768
 20
7.664987
 30
0
 10
14.960908
 20
7.435314
 30
0
 10
14.611805
 20
7.320477
 30
0
 10
14.152459
 20
7.320477
 30
0
  0
LWPOLYLINE
  5
A1
100
AcDbEntity
  8
Calque_1
  6
ByLayer
 62
    7
370
   -1
100
AcDbPolyline
 90
    2
 70
    0
 43
0
 10
12.671068
 20
10.004209
 10
14.152459
 20
10.004209
  0
SPLINE
  5
A2
100
AcDbEntity
  8
Calque_1
  6
ByLayer
 62
    7
370
   -1
100
AcDbSpline
210
0
220
0
230
0
 70
    8
 71
    3
 72
    8
 73
    4
 74
    0
 42
1e-07
 43
1e-07
 40
0
 40
0
 40
0
 40
0
 40
1
 40
1
 40
1
 40
1
 10
14.080112
 20
7.830356999999999
 30
0
 10
14.383281
 20
7.830356999999999
 30
0
 10
14.60836
 20
7.899257
 30
0
 10
14.755351
 20
8.037057000000001
 30
0
  0
SPLINE
  5
A3
100
AcDbEntity
  8
Calque_1
  6
ByLayer
 62
    7
370
   -1
100
AcDbSpline
210
0
220
0
230
0
 70
    8
 71
    3
 72
    8
 73
    4
 74
    0
 42
1e-07
 43
1e-07
 40
0
 40
0
 40
0
 40
0
 40
1
 40
1
 40
1
 40
1
 10
14.755351
 20
8.037057000000001
 30
0
 10
14.902342
 20
8.174863999999999
 30
0
 10
14.975837
 20
8.383867
 30
0
 10
14.975837
 20
8.664066999999999
 30
0
  0
SPLINE
  5
A4
100
AcDbEntity
  8
Calque_1
  6
ByLayer
 62
    7
370
   -1
100
AcDbSpline
210
0
220
0
230
0
 70
    8
 71
    3
 72
    8
 73
    4
 74
    0
 42
1e-07
 43
1e-07
 40
0
 40
0
 40
0
 40
0
 40
1
 40
1
 40
1
 40
1
 10
14.975837
 20
8.664066999999999
 30
0
 10
14.975837
 20
8.941974
 30
0
 10
14.902342
 20
9.149827
 30
0
 10
14.755351
 20
9.287627000000001
 30
0
  0
SPLINE
  5
A5
100
AcDbEntity
  8
Calque_1
  6
ByLayer
 62
    7
370
   -1
100
AcDbSpline
210
0
220
0
230
0
 70
    8
 71
    3
 72
    8
 73
    4
 74
    0
 42
1e-07
 43
1e-07
 40
0
 40
0
 40
0
 40
0
 40
1
 40
1
 40
1
 40
1
 10
14.755351
 20
9.287627000000001
 30
0
 10
14.60836
 20
9.425433999999999
 30
0
 10
14.383281
 20
9.494337
 30
0
 10
14.080112
 20
9.494337
 30
0
  0
LWPOLYLINE
  5
A6
100
AcDbEntity
  8
Calque_1
  6
ByLayer
 62
    7
370
   -1
100
AcDbPolyline
 90
    5
 70
    0
 43
0
 10
14.152459
 20
7.320477
 10
13.236064
 20
7.320477
 10
13.236064
 20
5.346437
 10
12.671068
 20
5.346437
 10
12.671068
 20
10.004209
  0
SPLINE
  5
A7
100
AcDbEntity
  8
Calque_1
  6
ByLayer
 62
    7
370
   -1
100
AcDbSpline
210
0
220
0
230
0
 70
    8
 71
    3
 72
    8
 73
    4
 74
    0
 42
1e-07
 43
1e-07
 40
0
 40
0
 40
0
 40
0
 40
1
 40
1
 40
1
 40
1
 10
16.880975
 20
3.710017000000001
 30
0
 10
16.793295
 20
3.709797
 30
0
 10
16.78153500000001
 20
4.085287000000001
 30
0
 10
16.887875
 20
4.216397000000001
 30
0
  0
SPLINE
  5
A8
100
AcDbEntity
  8
Calque_1
  6
ByLayer
 62
    7
370
   -1
100
AcDbSpline
210
0
220
0
230
0
 70
    8
 71
    3
 72
    8
 73
    4
 74
    0
 42
1e-07
 43
1e-07
 40
0
 40
0
 40
0
 40
0
 40
1
 40
1
 40
1
 40
1
 10
16.887875
 20
4.216397000000001
 30
0
 10
16.926005
 20
4.214397
 30
0
 10
17.068168
 20
4.234797
 30
0
 10
17.132476
 20
4.271497
 30
0
  0
SPLINE
  5
A9
100
AcDbEntity
  8
Calque_1
  6
ByLayer
 62
    7
370
   -1
100
AcDbSpline
210
0
220
0
230
0
 70
    8
 71
    3
 72
    8
 73
    4
 74
    0
 42
1e-07
 43
1e-07
 40
0
 40
0
 40
0
 40
0
 40
1
 40
1
 40
1
 40
1
 10
17.132476
 20
4.271497
 30
0
 10
17.199086
 20
4.308197
 30
0
 10
17.258798
 20
4.371397
 30
0
 10
17.311621
 20
4.460977
 30
0
  0
SPLINE
  5
AA
100
AcDbEntity
  8
Calque_1
  6
ByLayer
 62
    7
370
   -1
100
AcDbSpline
210
0
220
0
230
0
 70
    8
 71
    3
 72
    8
 73
    4
 74
    0
 42
1e-07
 43
1e-07
 40
0
 40
0
 40
0
 40
0
 40
1
 40
1
 40
1
 40
1
 10
17.311621
 20
4.460977
 30
0
 10
17.366741
 20
4.548276999999999
 30
0
 10
17.425308
 20
4.674576999999999
 30
0
 10
17.487321
 20
4.839936999999999
 30
0
  0
LWPOLYLINE
  5
AB
100
AcDbEntity
  8
Calque_1
  6
ByLayer
 62
    7
370
   -1
100
AcDbPolyline
 90
    4
 70
    0
 43
0
 10
14.080112
 20
9.494337
 10
13.236064
 20
9.494337
 10
13.236064
 20
7.830356999999999
 10
14.080112
 20
7.830356999999999
  0
SPLINE
  5
AC
100
AcDbEntity
  8
Calque_1
  6
ByLayer
 62
    7
370
   -1
100
AcDbSpline
210
0
220
0
230
0
 70
    8
 71
    3
 72
    8
 73
    4
 74
    0
 42
1e-07
 43
1e-07
 40
0
 40
0
 40
0
 40
0
 40
1
 40
1
 40
1
 40
1
 10
17.966189
 20
4.667687000000001
 30
0
 10
17.881209
 20
4.433417
 30
0
 10
17.788192
 20
4.247387
 30
0
 10
17.687136
 20
4.109577
 30
0
  0
SPLINE
  5
AD
100
AcDbEntity
  8
Calque_1
  6
ByLayer
 62
    7
370
   -1
100
AcDbSpline
210
0
220
0
230
0
 70
    8
 71
    3
 72
    8
 73
    4
 74
    0
 42
1e-07
 43
1e-07
 40
0
 40
0
 40
0
 40
0
 40
1
 40
1
 40
1
 40
1
 10
17.687136
 20
4.109577
 30
0
 10
17.58608
 20
3.969476999999999
 30
0
 10
17.470095
 20
3.868427000000001
 30
0
 10
17.339181
 20
3.806417
 30
0
  0
SPLINE
  5
AE
100
AcDbEntity
  8
Calque_1
  6
ByLayer
 62
    7
370
   -1
100
AcDbSpline
210
0
220
0
230
0
 70
    8
 71
    3
 72
    8
 73
    4
 74
    0
 42
1e-07
 43
1e-07
 40
0
 40
0
 40
0
 40
0
 40
1
 40
1
 40
1
 40
1
 10
17.339181
 20
3.806417
 30
0
 10
17.21056400000001
 20
3.742117
 30
0
 10
16.925998
 20
3.711017
 30
0
 10
16.925998
 20
3.711017
 30
0
  0
LWPOLYLINE
  5
AF
100
AcDbEntity
  8
Calque_1
  6
ByLayer
 62
    7
370
   -1
100
AcDbPolyline
 90
    9
 70
    0
 43
0
 10
17.487321
 20
4.839936999999999
 10
17.663021
 20
5.318807
 10
16.329769
 20
8.788017
 10
16.922326
 20
8.788017
 10
17.917958
 20
6.087067000000001
 10
17.945518
 20
6.087067000000001
 10
18.882584
 20
8.788017
 10
19.46136
 20
8.788017
 10
17.966189
 20
4.667687000000001
  0
SPLINE
  5
B0
100
AcDbEntity
  8
Calque_1
  6
ByLayer
 62
    7
370
   -1
100
AcDbSpline
210
0
220
0
230
0
 70
    8
 71
    3
 72
    8
 73
    4
 74
    0
 42
1e-07
 43
1e-07
 40
0
 40
0
 40
0
 40
0
 40
1
 40
1
 40
1
 40
1
 10
22.217427
 20
5.260317000000001
 30
0
 10
21.840764
 20
5.260317000000001
 30
0
 10
21.550227
 20
5.36252
 30
0
 10
21.345818
 20
5.566927
 30
0
  0
SPLINE
  5
B1
100
AcDbEntity
  8
Calque_1
  6
ByLayer
 62
    7
370
   -1
100
AcDbSpline
210
0
220
0
230
0
 70
    8
 71
    3
 72
    8
 73
    4
 74
    0
 42
1e-07
 43
1e-07
 40
0
 40
0
 40
0
 40
0
 40
1
 40
1
 40
1
 40
1
 10
21.345818
 20
5.566927
 30
0
 10
21.141409
 20
5.771334
 30
0
 10
21.039205
 20
6.061869999999999
 30
0
 10
21.039205
 20
6.438537
 30
0
  0
LWPOLYLINE
  5
B2
100
AcDbEntity
  8
Calque_1
  6
ByLayer
 62
    7
370
   -1
100
AcDbPolyline
 90
    2
 70
    0
 43
0
 10
16.925998
 20
3.711017
 10
16.880975
 20
3.710017000000001
  0
SPLINE
  5
B3
100
AcDbEntity
  8
Calque_1
  6
ByLayer
 62
    7
370
   -1
100
AcDbSpline
210
0
220
0
230
0
 70
    8
 71
    3
 72
    8
 73
    4
 74
    0
 42
1e-07
 43
1e-07
 40
0
 40
0
 40
0
 40
0
 40
1
 40
1
 40
1
 40
1
 10
21.590422
 20
6.510887
 30
0
 10
21.590422
 20
6.017087
 30
0
 10
21.801721
 20
5.770187
 30
0
 10
22.224319
 20
5.770187
 30
0
  0
SPLINE
  5
B4
100
AcDbEntity
  8
Calque_1
  6
ByLayer
 62
    7
370
   -1
100
AcDbSpline
210
0
220
0
230
0
 70
    8
 71
    3
 72
    8
 73
    4
 74
    0
 42
1e-07
 43
1e-07
 40
0
 40
0
 40
0
 40
0
 40
1
 40
1
 40
1
 40
1
 10
22.224319
 20
5.770187
 30
0
 10
22.651511
 20
5.770187
 30
0
 10
22.86510699999999
 20
6.017087
 30
0
 10
22.86510699999999
 20
6.510887
 30
0
  0
LWPOLYLINE
  5
B5
100
AcDbEntity
  8
Calque_1
  6
ByLayer
 62
    7
370
   -1
100
AcDbPolyline
 90
   12
 70
    0
 43
0
 10
21.039205
 20
6.438537
 10
21.039205
 20
8.302327
 10
20.15726
 20
8.302327
 10
20.15726
 20
8.788087000000001
 10
21.066765
 20
8.788087000000001
 10
21.152895
 20
10.004209
 10
21.590422
 20
10.004209
 10
21.590422
 20
8.788087000000001
 10
23.147605
 20
8.788087000000001
 10
23.147605
 20
8.302327
 10
21.590422
 20
8.302327
 10
21.590422
 20
6.510887
  0
SPLINE
  5
B6
100
AcDbEntity
  8
Calque_1
  6
ByLayer
 62
    7
370
   -1
100
AcDbSpline
210
0
220
0
230
0
 70
    8
 71
    3
 72
    8
 73
    4
 74
    0
 42
1e-07
 43
1e-07
 40
0
 40
0
 40
0
 40
0
 40
1
 40
1
 40
1
 40
1
 10
23.402542
 20
6.438537
 30
0
 10
23.402542
 20
6.061869999999999
 30
0
 10
23.300338
 20
5.771334
 30
0
 10
23.095929
 20
5.566927
 30
0
  0
SPLINE
  5
B7
100
AcDbEntity
  8
Calque_1
  6
ByLayer
 62
    7
370
   -1
100
AcDbSpline
210
0
220
0
230
0
 70
    8
 71
    3
 72
    8
 73
    4
 74
    0
 42
1e-07
 43
1e-07
 40
0
 40
0
 40
0
 40
0
 40
1
 40
1
 40
1
 40
1
 10
23.095929
 20
5.566927
 30
0
 10
22.89152
 20
5.36252
 30
0
 10
22.598686
 20
5.260317000000001
 30
0
 10
22.217429
 20
5.260317000000001
 30
0
  0
LWPOLYLINE
  5
B8
100
AcDbEntity
  8
Calque_1
  6
ByLayer
 62
    7
370
   -1
100
AcDbPolyline
 90
    4
 70
    0
 43
0
 10
22.86510699999999
 20
6.510887
 10
22.86510699999999
 20
6.765817
 10
23.402542
 20
6.765817
 10
23.402542
 20
6.438537
  0
LWPOLYLINE
  5
B9
100
AcDbEntity
  8
Calque_1
  6
ByLayer
 62
    7
370
   -1
100
AcDbPolyline
 90
    1
 70
    1
 43
0
 10
22.217429
 20
5.260317000000001
  0
SPLINE
  5
BA
100
AcDbEntity
  8
Calque_1
  6
ByLayer
 62
    7
370
   -1
100
AcDbSpline
210
0
220
0
230
0
 70
    8
 71
    3
 72
    8
 73
    4
 74
    0
 42
1e-07
 43
1e-07
 40
0
 40
0
 40
0
 40
0
 40
1
 40
1
 40
1
 40
1
 10
25.028624
 20
8.240316999999999
 30
0
 10
25.12968
 20
8.44473
 30
0
 10
25.270929
 20
8.600910000000001
 30
0
 10
25.452371
 20
8.708857
 30
0
  0
SPLINE
  5
BB
100
AcDbEntity
  8
Calque_1
  6
ByLayer
 62
    7
370
   -1
100
AcDbSpline
210
0
220
0
230
0
 70
    8
 71
    3
 72
    8
 73
    4
 74
    0
 42
1e-07
 43
1e-07
 40
0
 40
0
 40
0
 40
0
 40
1
 40
1
 40
1
 40
1
 10
25.452371
 20
8.708857
 30
0
 10
25.633813
 20
8.819096999999999
 30
0
 10
25.849705
 20
8.874217
 30
0
 10
26.100049
 20
8.874217
 30
0
  0
SPLINE
  5
BC
100
AcDbEntity
  8
Calque_1
  6
ByLayer
 62
    7
370
   -1
100
AcDbSpline
210
0
220
0
230
0
 70
    8
 71
    3
 72
    8
 73
    4
 74
    0
 42
1e-07
 43
1e-07
 40
0
 40
0
 40
0
 40
0
 40
1
 40
1
 40
1
 40
1
 10
26.100049
 20
8.874217
 30
0
 10
26.462933
 20
8.874217
 30
0
 10
26.739689
 20
8.761677000000001
 30
0
 10
26.930317
 20
8.536597
 30
0
  0
SPLINE
  5
BD
100
AcDbEntity
  8
Calque_1
  6
ByLayer
 62
    7
370
   -1
100
AcDbSpline
210
0
220
0
230
0
 70
    8
 71
    3
 72
    8
 73
    4
 74
    0
 42
1e-07
 43
1e-07
 40
0
 40
0
 40
0
 40
0
 40
1
 40
1
 40
1
 40
1
 10
26.930317
 20
8.536597
 30
0
 10
27.120945
 20
8.313817
 30
0
 10
27.216259
 20
7.98883
 30
0
 10
27.216259
 20
7.561637000000001
 30
0
  0
LWPOLYLINE
  5
BE
100
AcDbEntity
  8
Calque_1
  6
ByLayer
 62
    7
370
   -1
100
AcDbPolyline
 90
    4
 70
    0
 43
0
 10
24.449849
 20
10.355608
 10
25.001064
 20
10.355608
 10
25.001064
 20
8.240316999999999
 10
25.028624
 20
8.240316999999999
  0
SPLINE
  5
BF
100
AcDbEntity
  8
Calque_1
  6
ByLayer
 62
    7
370
   -1
100
AcDbSpline
210
0
220
0
230
0
 70
    8
 71
    3
 72
    8
 73
    4
 74
    0
 42
1e-07
 43
1e-07
 40
0
 40
0
 40
0
 40
0
 40
1
 40
1
 40
1
 40
1
 10
26.665044
 20
7.540967
 30
0
 10
26.665044
 20
7.816573999999999
 30
0
 10
26.606478
 20
8.02328
 30
0
 10
26.489344
 20
8.161087
 30
0
  0
SPLINE
  5
C0
100
AcDbEntity
  8
Calque_1
  6
ByLayer
 62
    7
370
   -1
100
AcDbSpline
210
0
220
0
230
0
 70
    8
 71
    3
 72
    8
 73
    4
 74
    0
 42
1e-07
 43
1e-07
 40
0
 40
0
 40
0
 40
0
 40
1
 40
1
 40
1
 40
1
 10
26.489344
 20
8.161087
 30
0
 10
26.372212
 20
8.298887000000001
 30
0
 10
26.198809
 20
8.367787
 30
0
 10
25.969135
 20
8.367787
 30
0
  0
SPLINE
  5
C1
100
AcDbEntity
  8
Calque_1
  6
ByLayer
 62
    7
370
   -1
100
AcDbSpline
210
0
220
0
230
0
 70
    8
 71
    3
 72
    8
 73
    4
 74
    0
 42
1e-07
 43
1e-07
 40
0
 40
0
 40
0
 40
0
 40
1
 40
1
 40
1
 40
1
 10
25.969135
 20
8.367787
 30
0
 10
25.780803
 20
8.367787
 30
0
 10
25.613142
 20
8.323
 30
0
 10
25.466151
 20
8.233427000000001
 30
0
  0
SPLINE
  5
C2
100
AcDbEntity
  8
Calque_1
  6
ByLayer
 62
    7
370
   -1
100
AcDbSpline
210
0
220
0
230
0
 70
    8
 71
    3
 72
    8
 73
    4
 74
    0
 42
1e-07
 43
1e-07
 40
0
 40
0
 40
0
 40
0
 40
1
 40
1
 40
1
 40
1
 10
25.466151
 20
8.233427000000001
 30
0
 10
25.319161
 20
8.146153999999999
 30
0
 10
25.204324
 20
8.024426999999999
 30
0
 10
25.121642
 20
7.868247
 30
0
  0
SPLINE
  5
C3
100
AcDbEntity
  8
Calque_1
  6
ByLayer
 62
    7
370
   -1
100
AcDbSpline
210
0
220
0
230
0
 70
    8
 71
    3
 72
    8
 73
    4
 74
    0
 42
1e-07
 43
1e-07
 40
0
 40
0
 40
0
 40
0
 40
1
 40
1
 40
1
 40
1
 10
25.121642
 20
7.868247
 30
0
 10
25.041256
 20
7.712074000000001
 30
0
 10
25.001063
 20
7.535226999999999
 30
0
 10
25.001063
 20
7.337707
 30
0
  0
LWPOLYLINE
  5
C4
100
AcDbEntity
  8
Calque_1
  6
ByLayer
 62
    7
370
   -1
100
AcDbPolyline
 90
    4
 70
    0
 43
0
 10
27.216259
 20
7.561637000000001
 10
27.216259
 20
5.346437
 10
26.665044
 20
5.346437
 10
26.665044
 20
7.540967
  0
SPLINE
  5
C5
100
AcDbEntity
  8
Calque_1
  6
ByLayer
 62
    7
370
   -1
100
AcDbSpline
210
0
220
0
230
0
 70
    8
 71
    3
 72
    8
 73
    4
 74
    0
 42
1e-07
 43
1e-07
 40
0
 40
0
 40
0
 40
0
 40
1
 40
1
 40
1
 40
1
 10
29.758741
 20
5.260317000000001
 30
0
 10
29.274131
 20
5.260317000000001
 30
0
 10
28.903209
 20
5.415344000000001
 30
0
 10
28.645975
 20
5.725397000000001
 30
0
  0
SPLINE
  5
C6
100
AcDbEntity
  8
Calque_1
  6
ByLayer
 62
    7
370
   -1
100
AcDbSpline
210
0
220
0
230
0
 70
    8
 71
    3
 72
    8
 73
    4
 74
    0
 42
1e-07
 43
1e-07
 40
0
 40
0
 40
0
 40
0
 40
1
 40
1
 40
1
 40
1
 10
28.645975
 20
5.725397000000001
 30
0
 10
28.391038
 20
6.035457000000001
 30
0
 10
28.263569
 20
6.483319999999999
 30
0
 10
28.263569
 20
7.068987
 30
0
  0
SPLINE
  5
C7
100
AcDbEntity
  8
Calque_1
  6
ByLayer
 62
    7
370
   -1
100
AcDbSpline
210
0
220
0
230
0
 70
    8
 71
    3
 72
    8
 73
    4
 74
    0
 42
1e-07
 43
1e-07
 40
0
 40
0
 40
0
 40
0
 40
1
 40
1
 40
1
 40
1
 10
28.263569
 20
7.068987
 30
0
 10
28.263569
 20
7.654654000000001
 30
0
 10
28.391038
 20
8.101367
 30
0
 10
28.645975
 20
8.409127
 30
0
  0
SPLINE
  5
C8
100
AcDbEntity
  8
Calque_1
  6
ByLayer
 62
    7
370
   -1
100
AcDbSpline
210
0
220
0
230
0
 70
    8
 71
    3
 72
    8
 73
    4
 74
    0
 42
1e-07
 43
1e-07
 40
0
 40
0
 40
0
 40
0
 40
1
 40
1
 40
1
 40
1
 10
28.645975
 20
8.409127
 30
0
 10
28.903209
 20
8.719187
 30
0
 10
29.274131
 20
8.874217
 30
0
 10
29.758741
 20
8.874217
 30
0
  0
SPLINE
  5
C9
100
AcDbEntity
  8
Calque_1
  6
ByLayer
 62
    7
370
   -1
100
AcDbSpline
210
0
220
0
230
0
 70
    8
 71
    3
 72
    8
 73
    4
 74
    0
 42
1e-07
 43
1e-07
 40
0
 40
0
 40
0
 40
0
 40
1
 40
1
 40
1
 40
1
 10
29.758741
 20
8.874217
 30
0
 10
30.245648
 20
8.874217
 30
0
 10
30.61657
 20
8.719187
 30
0
 10
30.871507
 20
8.409127
 30
0
  0
SPLINE
  5
CA
100
AcDbEntity
  8
Calque_1
  6
ByLayer
 62
    7
370
   -1
100
AcDbSpline
210
0
220
0
230
0
 70
    8
 71
    3
 72
    8
 73
    4
 74
    0
 42
1e-07
 43
1e-07
 40
0
 40
0
 40
0
 40
0
 40
1
 40
1
 40
1
 40
1
 10
30.871507
 20
8.409127
 30
0
 10
31.12874100000001
 20
8.101367
 30
0
 10
31.257357
 20
7.654654000000001
 30
0
 10
31.257357
 20
7.068987
 30
0
  0
SPLINE
  5
CB
100
AcDbEntity
  8
Calque_1
  6
ByLayer
 62
    7
370
   -1
100
AcDbSpline
210
0
220
0
230
0
 70
    8
 71
    3
 72
    8
 73
    4
 74
    0
 42
1e-07
 43
1e-07
 40
0
 40
0
 40
0
 40
0
 40
1
 40
1
 40
1
 40
1
 10
31.257357
 20
7.068987
 30
0
 10
31.257357
 20
6.483319999999999
 30
0
 10
31.12874100000001
 20
6.035457000000001
 30
0
 10
30.871507
 20
5.725397000000001
 30
0
  0
SPLINE
  5
CC
100
AcDbEntity
  8
Calque_1
  6
ByLayer
 62
    7
370
   -1
100
AcDbSpline
210
0
220
0
230
0
 70
    8
 71
    3
 72
    8
 73
    4
 74
    0
 42
1e-07
 43
1e-07
 40
0
 40
0
 40
0
 40
0
 40
1
 40
1
 40
1
 40
1
 10
30.871507
 20
5.725397000000001
 30
0
 10
30.61657
 20
5.415344000000001
 30
0
 10
30.245648
 20
5.260317000000001
 30
0
 10
29.758741
 20
5.260317000000001
 30
0
  0
LWPOLYLINE
  5
CD
100
AcDbEntity
  8
Calque_1
  6
ByLayer
 62
    7
370
   -1
100
AcDbPolyline
 90
    4
 70
    0
 43
0
 10
25.001063
 20
7.337707
 10
25.001063
 20
5.346437
 10
24.449848
 20
5.346437
 10
24.449849
 20
10.355608
  0
SPLINE
  5
CE
100
AcDbEntity
  8
Calque_1
  6
ByLayer
 62
    7
370
   -1
100
AcDbSpline
210
0
220
0
230
0
 70
    8
 71
    3
 72
    8
 73
    4
 74
    0
 42
1e-07
 43
1e-07
 40
0
 40
0
 40
0
 40
0
 40
1
 40
1
 40
1
 40
1
 10
29.758741
 20
5.770187
 30
0
 10
30.064206
 20
5.770187
 30
0
 10
30.295027
 20
5.87928
 30
0
 10
30.451205
 20
6.097467
 30
0
  0
SPLINE
  5
CF
100
AcDbEntity
  8
Calque_1
  6
ByLayer
 62
    7
370
   -1
100
AcDbSpline
210
0
220
0
230
0
 70
    8
 71
    3
 72
    8
 73
    4
 74
    0
 42
1e-07
 43
1e-07
 40
0
 40
0
 40
0
 40
0
 40
1
 40
1
 40
1
 40
1
 10
30.451205
 20
6.097467
 30
0
 10
30.607383
 20
6.317954
 30
0
 10
30.685471
 20
6.641794000000001
 30
0
 10
30.685471
 20
7.068987
 30
0
  0
SPLINE
  5
D0
100
AcDbEntity
  8
Calque_1
  6
ByLayer
 62
    7
370
   -1
100
AcDbSpline
210
0
220
0
230
0
 70
    8
 71
    3
 72
    8
 73
    4
 74
    0
 42
1e-07
 43
1e-07
 40
0
 40
0
 40
0
 40
0
 40
1
 40
1
 40
1
 40
1
 10
30.685471
 20
7.068987
 30
0
 10
30.685471
 20
7.496179999999999
 30
0
 10
30.607383
 20
7.81887
 30
0
 10
30.451205
 20
8.037057000000001
 30
0
  0
SPLINE
  5
D1
100
AcDbEntity
  8
Calque_1
  6
ByLayer
 62
    7
370
   -1
100
AcDbSpline
210
0
220
0
230
0
 70
    8
 71
    3
 72
    8
 73
    4
 74
    0
 42
1e-07
 43
1e-07
 40
0
 40
0
 40
0
 40
0
 40
1
 40
1
 40
1
 40
1
 10
30.451205
 20
8.037057000000001
 30
0
 10
30.295027
 20
8.257543999999999
 30
0
 10
30.064206
 20
8.367787
 30
0
 10
29.758741
 20
8.367787
 30
0
  0
SPLINE
  5
D2
100
AcDbEntity
  8
Calque_1
  6
ByLayer
 62
    7
370
   -1
100
AcDbSpline
210
0
220
0
230
0
 70
    8
 71
    3
 72
    8
 73
    4
 74
    0
 42
1e-07
 43
1e-07
 40
0
 40
0
 40
0
 40
0
 40
1
 40
1
 40
1
 40
1
 10
29.758741
 20
8.367787
 30
0
 10
29.455573
 20
8.367787
 30
0
 10
29.2259
 20
8.257543999999999
 30
0
 10
29.069722
 20
8.037057000000001
 30
0
  0
SPLINE
  5
D3
100
AcDbEntity
  8
Calque_1
  6
ByLayer
 62
    7
370
   -1
100
AcDbSpline
210
0
220
0
230
0
 70
    8
 71
    3
 72
    8
 73
    4
 74
    0
 42
1e-07
 43
1e-07
 40
0
 40
0
 40
0
 40
0
 40
1
 40
1
 40
1
 40
1
 10
29.069722
 20
8.037057000000001
 30
0
 10
28.913544
 20
7.81887
 30
0
 10
28.835455
 20
7.496179999999999
 30
0
 10
28.835455
 20
7.068987
 30
0
  0
SPLINE
  5
D4
100
AcDbEntity
  8
Calque_1
  6
ByLayer
 62
    7
370
   -1
100
AcDbSpline
210
0
220
0
230
0
 70
    8
 71
    3
 72
    8
 73
    4
 74
    0
 42
1e-07
 43
1e-07
 40
0
 40
0
 40
0
 40
0
 40
1
 40
1
 40
1
 40
1
 10
28.835455
 20
7.068987
 30
0
 10
28.835455
 20
6.641794000000001
 30
0
 10
28.913544
 20
6.317954
 30
0
 10
29.069722
 20
6.097467
 30
0
  0
SPLINE
  5
D5
100
AcDbEntity
  8
Calque_1
  6
ByLayer
 62
    7
370
   -1
100
AcDbSpline
210
0
220
0
230
0
 70
    8
 71
    3
 72
    8
 73
    4
 74
    0
 42
1e-07
 43
1e-07
 40
0
 40
0
 40
0
 40
0
 40
1
 40
1
 40
1
 40
1
 10
29.069722
 20
6.097467
 30
0
 10
29.2259
 20
5.87928
 30
0
 10
29.455573
 20
5.770187
 30
0
 10
29.758741
 20
5.770187
 30
0
  0
LWPOLYLINE
  5
D6
100
AcDbEntity
  8
Calque_1
  6
ByLayer
 62
    7
370
   -1
100
AcDbPolyline
 90
    1
 70
    1
 43
0
 10
29.758741
 20
5.260317000000001
  0
LWPOLYLINE
  5
D7
100
AcDbEntity
  8
Calque_1
  6
ByLayer
 62
    7
370
   -1
100
AcDbPolyline
 90
    1
 70
    1
 43
0
 10
29.758741
 20
5.770187
  0
SPLINE
  5
D8
100
AcDbEntity
  8
Calque_1
  6
ByLayer
 62
    7
370
   -1
100
AcDbSpline
210
0
220
0
230
0
 70
    8
 71
    3
 72
    8
 73
    4
 74
    0
 42
1e-07
 43
1e-07
 40
0
 40
0
 40
0
 40
0
 40
1
 40
1
 40
1
 40
1
 10
32.911001
 20
8.202427
 30
0
 10
33.009761
 20
8.420614
 30
0
 10
33.152158
 20
8.587127000000001
 30
0
 10
33.338193
 20
8.701967
 30
0
  0
SPLINE
  5
D9
100
AcDbEntity
  8
Calque_1
  6
ByLayer
 62
    7
370
   -1
100
AcDbSpline
210
0
220
0
230
0
 70
    8
 71
    3
 72
    8
 73
    4
 74
    0
 42
1e-07
 43
1e-07
 40
0
 40
0
 40
0
 40
0
 40
1
 40
1
 40
1
 40
1
 10
33.338193
 20
8.701967
 30
0
 10
33.526525
 20
8.816800000000001
 30
0
 10
33.750456
 20
8.874217
 30
0
 10
34.009986
 20
8.874217
 30
0
  0
SPLINE
  5
DA
100
AcDbEntity
  8
Calque_1
  6
ByLayer
 62
    7
370
   -1
100
AcDbSpline
210
0
220
0
230
0
 70
    8
 71
    3
 72
    8
 73
    4
 74
    0
 42
1e-07
 43
1e-07
 40
0
 40
0
 40
0
 40
0
 40
1
 40
1
 40
1
 40
1
 10
34.009986
 20
8.874217
 30
0
 10
34.372871
 20
8.874217
 30
0
 10
34.649627
 20
8.761677000000001
 30
0
 10
34.840253
 20
8.536597
 30
0
  0
SPLINE
  5
DB
100
AcDbEntity
  8
Calque_1
  6
ByLayer
 62
    7
370
   -1
100
AcDbSpline
210
0
220
0
230
0
 70
    8
 71
    3
 72
    8
 73
    4
 74
    0
 42
1e-07
 43
1e-07
 40
0
 40
0
 40
0
 40
0
 40
1
 40
1
 40
1
 40
1
 10
34.840253
 20
8.536597
 30
0
 10
35.030887
 20
8.313817
 30
0
 10
35.126203
 20
7.98883
 30
0
 10
35.126203
 20
7.561637000000001
 30
0
  0
LWPOLYLINE
  5
DC
100
AcDbEntity
  8
Calque_1
  6
ByLayer
 62
    7
370
   -1
100
AcDbPolyline
 90
    4
 70
    0
 43
0
 10
32.359788
 20
8.788087000000001
 10
32.848991
 20
8.788087000000001
 10
32.883441
 20
8.202427
 10
32.911001
 20
8.202427
  0
SPLINE
  5
DD
100
AcDbEntity
  8
Calque_1
  6
ByLayer
 62
    7
370
   -1
100
AcDbSpline
210
0
220
0
230
0
 70
    8
 71
    3
 72
    8
 73
    4
 74
    0
 42
1e-07
 43
1e-07
 40
0
 40
0
 40
0
 40
0
 40
1
 40
1
 40
1
 40
1
 10
34.574983
 20
7.540967
 30
0
 10
34.574983
 20
7.816573999999999
 30
0
 10
34.516417
 20
8.02328
 30
0
 10
34.399283
 20
8.161087
 30
0
  0
SPLINE
  5
DE
100
AcDbEntity
  8
Calque_1
  6
ByLayer
 62
    7
370
   -1
100
AcDbSpline
210
0
220
0
230
0
 70
    8
 71
    3
 72
    8
 73
    4
 74
    0
 42
1e-07
 43
1e-07
 40
0
 40
0
 40
0
 40
0
 40
1
 40
1
 40
1
 40
1
 10
34.399283
 20
8.161087
 30
0
 10
34.28215
 20
8.298887000000001
 30
0
 10
34.108747
 20
8.367787
 30
0
 10
33.879073
 20
8.367787
 30
0
  0
SPLINE
  5
DF
100
AcDbEntity
  8
Calque_1
  6
ByLayer
 62
    7
370
   -1
100
AcDbSpline
210
0
220
0
230
0
 70
    8
 71
    3
 72
    8
 73
    4
 74
    0
 42
1e-07
 43
1e-07
 40
0
 40
0
 40
0
 40
0
 40
1
 40
1
 40
1
 40
1
 10
33.879073
 20
8.367787
 30
0
 10
33.690741
 20
8.367787
 30
0
 10
33.52308
 20
8.323
 30
0
 10
33.376089
 20
8.233427000000001
 30
0
  0
SPLINE
  5
E0
100
AcDbEntity
  8
Calque_1
  6
ByLayer
 62
    7
370
   -1
100
AcDbSpline
210
0
220
0
230
0
 70
    8
 71
    3
 72
    8
 73
    4
 74
    0
 42
1e-07
 43
1e-07
 40
0
 40
0
 40
0
 40
0
 40
1
 40
1
 40
1
 40
1
 10
33.376089
 20
8.233427000000001
 30
0
 10
33.229099
 20
8.146153999999999
 30
0
 10
33.114262
 20
8.024426999999999
 30
0
 10
33.031579
 20
7.868247
 30
0
  0
SPLINE
  5
E1
100
AcDbEntity
  8
Calque_1
  6
ByLayer
 62
    7
370
   -1
100
AcDbSpline
210
0
220
0
230
0
 70
    8
 71
    3
 72
    8
 73
    4
 74
    0
 42
1e-07
 43
1e-07
 40
0
 40
0
 40
0
 40
0
 40
1
 40
1
 40
1
 40
1
 10
33.031579
 20
7.868247
 30
0
 10
32.951194
 20
7.712074000000001
 30
0
 10
32.911001
 20
7.535226999999999
 30
0
 10
32.911001
 20
7.337707
 30
0
  0
LWPOLYLINE
  5
E2
100
AcDbEntity
  8
Calque_1
  6
ByLayer
 62
    7
370
   -1
100
AcDbPolyline
 90
    4
 70
    0
 43
0
 10
35.126203
 20
7.561637000000001
 10
35.126203
 20
5.346437
 10
34.574983
 20
5.346437
 10
34.574983
 20
7.540967
  0
LWPOLYLINE
  5
E3
100
AcDbEntity
  8
Calque_1
  6
ByLayer
 62
    7
370
   -1
100
AcDbPolyline
 90
    4
 70
    0
 43
0
 10
32.911001
 20
7.337707
 10
32.911001
 20
5.346437
 10
32.359786
 20
5.346437
 10
32.359788
 20
8.788087000000001
  0
SPLINE
  5
E4
100
AcDbEntity
  8
Calque_1
  6
ByLayer
 62
    7
370
   -1
100
AcDbSpline
210
0
220
0
230
0
 70
    8
 71
    3
 72
    8
 73
    4
 74
    0
 42
1e-07
 43
1e-07
 40
0
 40
0
 40
0
 40
0
 40
1
 40
1
 40
1
 40
1
 10
40.820943
 20
6.593567
 30
0
 10
40.820943
 20
6.322554
 30
0
 10
40.876063
 20
6.116997
 30
0
 10
40.986303
 20
5.976897000000001
 30
0
  0
SPLINE
  5
E5
100
AcDbEntity
  8
Calque_1
  6
ByLayer
 62
    7
370
   -1
100
AcDbSpline
210
0
220
0
230
0
 70
    8
 71
    3
 72
    8
 73
    4
 74
    0
 42
1e-07
 43
1e-07
 40
0
 40
0
 40
0
 40
0
 40
1
 40
1
 40
1
 40
1
 10
40.986303
 20
5.976897000000001
 30
0
 10
41.098843
 20
5.839089999999999
 30
0
 10
41.261913
 20
5.770187
 30
0
 10
41.475513
 20
5.770187
 30
0
  0
SPLINE
  5
E6
100
AcDbEntity
  8
Calque_1
  6
ByLayer
 62
    7
370
   -1
100
AcDbSpline
210
0
220
0
230
0
 70
    8
 71
    3
 72
    8
 73
    4
 74
    0
 42
1e-07
 43
1e-07
 40
0
 40
0
 40
0
 40
0
 40
1
 40
1
 40
1
 40
1
 10
41.475513
 20
5.770187
 30
0
 10
41.647767
 20
5.770187
 30
0
 10
41.800497
 20
5.813824
 30
0
 10
41.933703
 20
5.901097
 30
0
  0
SPLINE
  5
E7
100
AcDbEntity
  8
Calque_1
  6
ByLayer
 62
    7
370
   -1
100
AcDbSpline
210
0
220
0
230
0
 70
    8
 71
    3
 72
    8
 73
    4
 74
    0
 42
1e-07
 43
1e-07
 40
0
 40
0
 40
0
 40
0
 40
1
 40
1
 40
1
 40
1
 10
41.933703
 20
5.901097
 30
0
 10
42.066917
 20
5.988377
 30
0
 10
42.17027
 20
6.110104
 30
0
 10
42.243763
 20
6.266276999999999
 30
0
  0
SPLINE
  5
E8
100
AcDbEntity
  8
Calque_1
  6
ByLayer
 62
    7
370
   -1
100
AcDbSpline
210
0
220
0
230
0
 70
    8
 71
    3
 72
    8
 73
    4
 74
    0
 42
1e-07
 43
1e-07
 40
0
 40
0
 40
0
 40
0
 40
1
 40
1
 40
1
 40
1
 10
42.243763
 20
6.266276999999999
 30
0
 10
42.319557
 20
6.422457
 30
0
 10
42.357453
 20
6.600453999999999
 30
0
 10
42.357453
 20
6.800267
 30
0
  0
LWPOLYLINE
  5
E9
100
AcDbEntity
  8
Calque_1
  6
ByLayer
 62
    7
370
   -1
100
AcDbPolyline
 90
    3
 70
    0
 43
0
 10
40.269723
 20
8.788087000000001
 10
40.820943
 20
8.788087000000001
 10
40.820943
 20
6.593567
  0
SPLINE
  5
EA
100
AcDbEntity
  8
Calque_1
  6
ByLayer
 62
    7
370
   -1
100
AcDbSpline
210
0
220
0
230
0
 70
    8
 71
    3
 72
    8
 73
    4
 74
    0
 42
1e-07
 43
1e-07
 40
0
 40
0
 40
0
 40
0
 40
1
 40
1
 40
1
 40
1
 10
42.908673
 20
6.038907
 30
0
 10
42.908673
 20
5.942440000000001
 30
0
 10
42.925907
 20
5.873536999999999
 30
0
 10
42.960373
 20
5.832197000000001
 30
0
  0
SPLINE
  5
EB
100
AcDbEntity
  8
Calque_1
  6
ByLayer
 62
    7
370
   -1
100
AcDbSpline
210
0
220
0
230
0
 70
    8
 71
    3
 72
    8
 73
    4
 74
    0
 42
1e-07
 43
1e-07
 40
0
 40
0
 40
0
 40
0
 40
1
 40
1
 40
1
 40
1
 10
42.960373
 20
5.832197000000001
 30
0
 10
42.997107
 20
5.790863999999999
 30
0
 10
43.055673
 20
5.770197
 30
0
 10
43.136073
 20
5.770197
 30
0
  0
SPLINE
  5
EC
100
AcDbEntity
  8
Calque_1
  6
ByLayer
 62
    7
370
   -1
100
AcDbSpline
210
0
220
0
230
0
 70
    8
 71
    3
 72
    8
 73
    4
 74
    0
 42
1e-07
 43
1e-07
 40
0
 40
0
 40
0
 40
0
 40
1
 40
1
 40
1
 40
1
 10
43.136073
 20
5.770197
 30
0
 10
43.209573
 20
5.770197
 30
0
 10
43.277327
 20
5.788564000000001
 30
0
 10
43.339333
 20
5.825296999999999
 30
0
  0
LWPOLYLINE
  5
ED
100
AcDbEntity
  8
Calque_1
  6
ByLayer
 62
    7
370
   -1
100
AcDbPolyline
 90
    4
 70
    0
 43
0
 10
42.357453
 20
6.800267
 10
42.357453
 20
8.788087000000001
 10
42.908673
 20
8.788087000000001
 10
42.908673
 20
6.038907
  0
SPLINE
  5
EE
100
AcDbEntity
  8
Calque_1
  6
ByLayer
 62
    7
370
   -1
100
AcDbSpline
210
0
220
0
230
0
 70
    8
 71
    3
 72
    8
 73
    4
 74
    0
 42
1e-07
 43
1e-07
 40
0
 40
0
 40
0
 40
0
 40
1
 40
1
 40
1
 40
1
 10
43.339333
 20
5.346427
 30
0
 10
43.229093
 20
5.289027000000001
 30
0
 10
43.109663
 20
5.260327
 30
0
 10
42.981043
 20
5.260327
 30
0
  0
SPLINE
  5
EF
100
AcDbEntity
  8
Calque_1
  6
ByLayer
 62
    7
370
   -1
100
AcDbSpline
210
0
220
0
230
0
 70
    8
 71
    3
 72
    8
 73
    4
 74
    0
 42
1e-07
 43
1e-07
 40
0
 40
0
 40
0
 40
0
 40
1
 40
1
 40
1
 40
1
 10
42.981043
 20
5.260327
 30
0
 10
42.785823
 20
5.260327
 30
0
 10
42.637687
 20
5.312000000000001
 30
0
 10
42.536633
 20
5.415347000000001
 30
0
  0
SPLINE
  5
F0
100
AcDbEntity
  8
Calque_1
  6
ByLayer
 62
    7
370
   -1
100
AcDbSpline
210
0
220
0
230
0
 70
    8
 71
    3
 72
    8
 73
    4
 74
    0
 42
1e-07
 43
1e-07
 40
0
 40
0
 40
0
 40
0
 40
1
 40
1
 40
1
 40
1
 10
42.536633
 20
5.415347000000001
 30
0
 10
42.437873
 20
5.518699999999999
 30
0
 10
42.388493
 20
5.672584000000001
 30
0
 10
42.388493
 20
5.876996999999999
 30
0
  0
LWPOLYLINE
  5
F1
100
AcDbEntity
  8
Calque_1
  6
ByLayer
 62
    7
370
   -1
100
AcDbPolyline
 90
    2
 70
    0
 43
0
 10
43.339333
 20
5.825296999999999
 10
43.339333
 20
5.346427
  0
SPLINE
  5
F2
100
AcDbEntity
  8
Calque_1
  6
ByLayer
 62
    7
370
   -1
100
AcDbSpline
210
0
220
0
230
0
 70
    8
 71
    3
 72
    8
 73
    4
 74
    0
 42
1e-07
 43
1e-07
 40
0
 40
0
 40
0
 40
0
 40
1
 40
1
 40
1
 40
1
 10
42.357493
 20
5.932096999999999
 30
0
 10
42.265627
 20
5.718503999999999
 30
0
 10
42.13701
 20
5.553139999999999
 30
0
 10
41.971643
 20
5.436007
 30
0
  0
SPLINE
  5
F3
100
AcDbEntity
  8
Calque_1
  6
ByLayer
 62
    7
370
   -1
100
AcDbSpline
210
0
220
0
230
0
 70
    8
 71
    3
 72
    8
 73
    4
 74
    0
 42
1e-07
 43
1e-07
 40
0
 40
0
 40
0
 40
0
 40
1
 40
1
 40
1
 40
1
 10
41.971643
 20
5.436007
 30
0
 10
41.806277
 20
5.318874000000001
 30
0
 10
41.61335
 20
5.260307000000001
 30
0
 10
41.392863
 20
5.260307000000001
 30
0
  0
SPLINE
  5
F4
100
AcDbEntity
  8
Calque_1
  6
ByLayer
 62
    7
370
   -1
100
AcDbSpline
210
0
220
0
230
0
 70
    8
 71
    3
 72
    8
 73
    4
 74
    0
 42
1e-07
 43
1e-07
 40
0
 40
0
 40
0
 40
0
 40
1
 40
1
 40
1
 40
1
 10
41.392863
 20
5.260307000000001
 30
0
 10
41.114963
 20
5.260307000000001
 30
0
 10
40.910557
 20
5.356767
 30
0
 10
40.779643
 20
5.549686999999999
 30
0
  0
LWPOLYLINE
  5
F5
100
AcDbEntity
  8
Calque_1
  6
ByLayer
 62
    7
370
   -1
100
AcDbPolyline
 90
    3
 70
    0
 43
0
 10
42.388493
 20
5.876996999999999
 10
42.388493
 20
5.932096999999999
 10
42.357493
 20
5.932096999999999
  0
SPLINE
  5
F6
100
AcDbEntity
  8
Calque_1
  6
ByLayer
 62
    7
370
   -1
100
AcDbSpline
210
0
220
0
230
0
 70
    8
 71
    3
 72
    8
 73
    4
 74
    0
 42
1e-07
 43
1e-07
 40
0
 40
0
 40
0
 40
0
 40
1
 40
1
 40
1
 40
1
 10
40.748643
 20
5.549686999999999
 30
0
 10
40.757843
 20
4.918087
 30
0
 10
40.781977
 20
4.469077
 30
0
 10
40.821043
 20
4.202657
 30
0
  0
LWPOLYLINE
  5
F7
100
AcDbEntity
  8
Calque_1
  6
ByLayer
 62
    7
370
   -1
100
AcDbPolyline
 90
    2
 70
    0
 43
0
 10
40.779643
 20
5.549686999999999
 10
40.748643
 20
5.549686999999999
  0
SPLINE
  5
F8
100
AcDbEntity
  8
Calque_1
  6
ByLayer
 62
    7
370
   -1
100
AcDbSpline
210
0
220
0
230
0
 70
    8
 71
    3
 72
    8
 73
    4
 74
    0
 42
1e-07
 43
1e-07
 40
0
 40
0
 40
0
 40
0
 40
1
 40
1
 40
1
 40
1
 10
45.664743
 20
5.260317000000001
 30
0
 10
45.29497
 20
5.260317000000001
 30
0
 10
44.991803
 20
5.346444
 30
0
 10
44.755243
 20
5.518697
 30
0
  0
SPLINE
  5
F9
100
AcDbEntity
  8
Calque_1
  6
ByLayer
 62
    7
370
   -1
100
AcDbSpline
210
0
220
0
230
0
 70
    8
 71
    3
 72
    8
 73
    4
 74
    0
 42
1e-07
 43
1e-07
 40
0
 40
0
 40
0
 40
0
 40
1
 40
1
 40
1
 40
1
 10
44.755243
 20
5.518697
 30
0
 10
44.520977
 20
5.690950000000001
 30
0
 10
44.346423
 20
5.953924000000001
 30
0
 10
44.231583
 20
6.307617
 30
0
  0
SPLINE
  5
FA
100
AcDbEntity
  8
Calque_1
  6
ByLayer
 62
    7
370
   -1
100
AcDbSpline
210
0
220
0
230
0
 70
    8
 71
    3
 72
    8
 73
    4
 74
    0
 42
1e-07
 43
1e-07
 40
0
 40
0
 40
0
 40
0
 40
1
 40
1
 40
1
 40
1
 10
44.231583
 20
6.307617
 30
0
 10
44.119043
 20
6.66361
 30
0
 10
44.062773
 20
7.119513999999999
 30
0
 10
44.062773
 20
7.675326999999999
 30
0
  0
SPLINE
  5
FB
100
AcDbEntity
  8
Calque_1
  6
ByLayer
 62
    7
370
   -1
100
AcDbSpline
210
0
220
0
230
0
 70
    8
 71
    3
 72
    8
 73
    4
 74
    0
 42
1e-07
 43
1e-07
 40
0
 40
0
 40
0
 40
0
 40
1
 40
1
 40
1
 40
1
 10
44.062773
 20
7.675326999999999
 30
0
 10
44.062773
 20
8.231134000000001
 30
0
 10
44.119043
 20
8.685886999999999
 30
0
 10
44.231583
 20
9.039586999999999
 30
0
  0
SPLINE
  5
FC
100
AcDbEntity
  8
Calque_1
  6
ByLayer
 62
    7
370
   -1
100
AcDbSpline
210
0
220
0
230
0
 70
    8
 71
    3
 72
    8
 73
    4
 74
    0
 42
1e-07
 43
1e-07
 40
0
 40
0
 40
0
 40
0
 40
1
 40
1
 40
1
 40
1
 10
44.231583
 20
9.039586999999999
 30
0
 10
44.346423
 20
9.393280000000001
 30
0
 10
44.520977
 20
9.656254000000001
 30
0
 10
44.755243
 20
9.828509
 30
0
  0
SPLINE
  5
FD
100
AcDbEntity
  8
Calque_1
  6
ByLayer
 62
    7
370
   -1
100
AcDbSpline
210
0
220
0
230
0
 70
    8
 71
    3
 72
    8
 73
    4
 74
    0
 42
1e-07
 43
1e-07
 40
0
 40
0
 40
0
 40
0
 40
1
 40
1
 40
1
 40
1
 10
44.755243
 20
9.828509
 30
0
 10
44.991803
 20
10.000764
 30
0
 10
45.29497
 20
10.086891
 30
0
 10
45.664743
 20
10.086891
 30
0
  0
SPLINE
  5
FE
100
AcDbEntity
  8
Calque_1
  6
ByLayer
 62
    7
370
   -1
100
AcDbSpline
210
0
220
0
230
0
 70
    8
 71
    3
 72
    8
 73
    4
 74
    0
 42
1e-07
 43
1e-07
 40
0
 40
0
 40
0
 40
0
 40
1
 40
1
 40
1
 40
1
 10
45.664743
 20
10.086891
 30
0
 10
46.119497
 20
10.086891
 30
0
 10
46.473193
 20
9.955978000000002
 30
0
 10
46.725833
 20
9.69415
 30
0
  0
SPLINE
  5
FF
100
AcDbEntity
  8
Calque_1
  6
ByLayer
 62
    7
370
   -1
100
AcDbSpline
210
0
220
0
230
0
 70
    8
 71
    3
 72
    8
 73
    4
 74
    0
 42
1e-07
 43
1e-07
 40
0
 40
0
 40
0
 40
0
 40
1
 40
1
 40
1
 40
1
 10
46.725833
 20
9.69415
 30
0
 10
46.980773
 20
9.432321
 30
0
 10
47.14499
 20
9.029244
 30
0
 10
47.218483
 20
8.484916999999999
 30
0
  0
LWPOLYLINE
  5
100
100
AcDbEntity
  8
Calque_1
  6
ByLayer
 62
    7
370
   -1
100
AcDbPolyline
 90
    4
 70
    0
 43
0
 10
40.821043
 20
4.202657
 10
40.821043
 20
3.792687000000001
 10
40.269823
 20
3.792687000000001
 10
40.269723
 20
8.788087000000001
  0
SPLINE
  5
101
100
AcDbEntity
  8
Calque_1
  6
ByLayer
 62
    7
370
   -1
100
AcDbSpline
210
0
220
0
230
0
 70
    8
 71
    3
 72
    8
 73
    4
 74
    0
 42
1e-07
 43
1e-07
 40
0
 40
0
 40
0
 40
0
 40
1
 40
1
 40
1
 40
1
 10
46.625923
 20
8.484916999999999
 30
0
 10
46.568523
 20
8.847804
 30
0
 10
46.46058
 20
9.11767
 30
0
 10
46.302093
 20
9.294517000000001
 30
0
  0
SPLINE
  5
102
100
AcDbEntity
  8
Calque_1
  6
ByLayer
 62
    7
370
   -1
100
AcDbSpline
210
0
220
0
230
0
 70
    8
 71
    3
 72
    8
 73
    4
 74
    0
 42
1e-07
 43
1e-07
 40
0
 40
0
 40
0
 40
0
 40
1
 40
1
 40
1
 40
1
 10
46.302093
 20
9.294517000000001
 30
0
 10
46.145913
 20
9.471363999999999
 30
0
 10
45.933463
 20
9.559787
 30
0
 10
45.664743
 20
9.559787
 30
0
  0
SPLINE
  5
103
100
AcDbEntity
  8
Calque_1
  6
ByLayer
 62
    7
370
   -1
100
AcDbSpline
210
0
220
0
230
0
 70
    8
 71
    3
 72
    8
 73
    4
 74
    0
 42
1e-07
 43
1e-07
 40
0
 40
0
 40
0
 40
0
 40
1
 40
1
 40
1
 40
1
 10
45.664743
 20
9.559787
 30
0
 10
45.315643
 20
9.559787
 30
0
 10
45.05841
 20
9.408204
 30
0
 10
44.893043
 20
9.105036999999999
 30
0
  0
SPLINE
  5
104
100
AcDbEntity
  8
Calque_1
  6
ByLayer
 62
    7
370
   -1
100
AcDbSpline
210
0
220
0
230
0
 70
    8
 71
    3
 72
    8
 73
    4
 74
    0
 42
1e-07
 43
1e-07
 40
0
 40
0
 40
0
 40
0
 40
1
 40
1
 40
1
 40
1
 10
44.893043
 20
9.105036999999999
 30
0
 10
44.729977
 20
8.801869999999999
 30
0
 10
44.648443
 20
8.3253
 30
0
 10
44.648443
 20
7.675326999999999
 30
0
  0
SPLINE
  5
105
100
AcDbEntity
  8
Calque_1
  6
ByLayer
 62
    7
370
   -1
100
AcDbSpline
210
0
220
0
230
0
 70
    8
 71
    3
 72
    8
 73
    4
 74
    0
 42
1e-07
 43
1e-07
 40
0
 40
0
 40
0
 40
0
 40
1
 40
1
 40
1
 40
1
 10
44.648443
 20
7.675326999999999
 30
0
 10
44.648443
 20
7.025354
 30
0
 10
44.729977
 20
6.548780000000001
 30
0
 10
44.893043
 20
6.245607
 30
0
  0
SPLINE
  5
106
100
AcDbEntity
  8
Calque_1
  6
ByLayer
 62
    7
370
   -1
100
AcDbSpline
210
0
220
0
230
0
 70
    8
 71
    3
 72
    8
 73
    4
 74
    0
 42
1e-07
 43
1e-07
 40
0
 40
0
 40
0
 40
0
 40
1
 40
1
 40
1
 40
1
 10
44.893043
 20
6.245607
 30
0
 10
45.05841
 20
5.942440000000001
 30
0
 10
45.315643
 20
5.790856999999999
 30
0
 10
45.664743
 20
5.790856999999999
 30
0
  0
SPLINE
  5
107
100
AcDbEntity
  8
Calque_1
  6
ByLayer
 62
    7
370
   -1
100
AcDbSpline
210
0
220
0
230
0
 70
    8
 71
    3
 72
    8
 73
    4
 74
    0
 42
1e-07
 43
1e-07
 40
0
 40
0
 40
0
 40
0
 40
1
 40
1
 40
1
 40
1
 10
45.664743
 20
5.790856999999999
 30
0
 10
45.933463
 20
5.790856999999999
 30
0
 10
46.145913
 20
5.878133999999999
 30
0
 10
46.302093
 20
6.052686999999999
 30
0
  0
SPLINE
  5
108
100
AcDbEntity
  8
Calque_1
  6
ByLayer
 62
    7
370
   -1
100
AcDbSpline
210
0
220
0
230
0
 70
    8
 71
    3
 72
    8
 73
    4
 74
    0
 42
1e-07
 43
1e-07
 40
0
 40
0
 40
0
 40
0
 40
1
 40
1
 40
1
 40
1
 10
46.302093
 20
6.052686999999999
 30
0
 10
46.460567
 20
6.229534000000001
 30
0
 10
46.56851
 20
6.499397
 30
0
 10
46.625923
 20
6.862276999999999
 30
0
  0
LWPOLYLINE
  5
109
100
AcDbEntity
  8
Calque_1
  6
ByLayer
 62
    7
370
   -1
100
AcDbPolyline
 90
    2
 70
    0
 43
0
 10
47.218483
 20
8.484916999999999
 10
46.625923
 20
8.484916999999999
  0
SPLINE
  5
10A
100
AcDbEntity
  8
Calque_1
  6
ByLayer
 62
    7
370
   -1
100
AcDbSpline
210
0
220
0
230
0
 70
    8
 71
    3
 72
    8
 73
    4
 74
    0
 42
1e-07
 43
1e-07
 40
0
 40
0
 40
0
 40
0
 40
1
 40
1
 40
1
 40
1
 10
47.218483
 20
6.862276999999999
 30
0
 10
47.14499
 20
6.317957
 30
0
 10
46.980773
 20
5.914884000000001
 30
0
 10
46.725833
 20
5.653057
 30
0
  0
SPLINE
  5
10B
100
AcDbEntity
  8
Calque_1
  6
ByLayer
 62
    7
370
   -1
100
AcDbSpline
210
0
220
0
230
0
 70
    8
 71
    3
 72
    8
 73
    4
 74
    0
 42
1e-07
 43
1e-07
 40
0
 40
0
 40
0
 40
0
 40
1
 40
1
 40
1
 40
1
 10
46.725833
 20
5.653057
 30
0
 10
46.473193
 20
5.39123
 30
0
 10
46.119497
 20
5.260317000000001
 30
0
 10
45.664743
 20
5.260317000000001
 30
0
  0
LWPOLYLINE
  5
10C
100
AcDbEntity
  8
Calque_1
  6
ByLayer
 62
    7
370
   -1
100
AcDbPolyline
 90
    2
 70
    0
 43
0
 10
46.625923
 20
6.862276999999999
 10
47.218483
 20
6.862276999999999
  0
SPLINE
  5
10D
100
AcDbEntity
  8
Calque_1
  6
ByLayer
 62
    7
370
   -1
100
AcDbSpline
210
0
220
0
230
0
 70
    8
 71
    3
 72
    8
 73
    4
 74
    0
 42
1e-07
 43
1e-07
 40
0
 40
0
 40
0
 40
0
 40
1
 40
1
 40
1
 40
1
 10
10.941716
 20
7.032814999999999
 30
0
 10
10.941716
 20
5.810061000000001
 30
0
 10
10.455979
 20
4.637388
 30
0
 10
9.591362000000004
 20
3.77277
 30
0
  0
SPLINE
  5
10E
100
AcDbEntity
  8
Calque_1
  6
ByLayer
 62
    7
370
   -1
100
AcDbSpline
210
0
220
0
230
0
 70
    8
 71
    3
 72
    8
 73
    4
 74
    0
 42
1e-07
 43
1e-07
 40
0
 40
0
 40
0
 40
0
 40
1
 40
1
 40
1
 40
1
 10
9.591362000000004
 20
3.77277
 30
0
 10
8.726743999999997
 20
2.908151999999999
 30
0
 10
7.554071
 20
2.422415000000001
 30
0
 10
6.331316999999999
 20
2.422415000000001
 30
0
  0
SPLINE
  5
10F
100
AcDbEntity
  8
Calque_1
  6
ByLayer
 62
    7
370
   -1
100
AcDbSpline
210
0
220
0
230
0
 70
    8
 71
    3
 72
    8
 73
    4
 74
    0
 42
1e-07
 43
1e-07
 40
0
 40
0
 40
0
 40
0
 40
1
 40
1
 40
1
 40
1
 10
6.331316999999999
 20
2.422415000000001
 30
0
 10
5.108563000000004
 20
2.422415000000001
 30
0
 10
3.935889000000003
 20
2.908151999999999
 30
0
 10
3.071271999999993
 20
3.77277
 30
0
  0
SPLINE
  5
110
100
AcDbEntity
  8
Calque_1
  6
ByLayer
 62
    7
370
   -1
100
AcDbSpline
210
0
220
0
230
0
 70
    8
 71
    3
 72
    8
 73
    4
 74
    0
 42
1e-07
 43
1e-07
 40
0
 40
0
 40
0
 40
0
 40
1
 40
1
 40
1
 40
1
 10
3.071271999999993
 20
3.77277
 30
0
 10
2.206654
 20
4.637388
 30
0
 10
1.720917
 20
5.810061000000001
 30
0
 10
1.720917
 20
7.032814999999999
 30
0
  0
SPLINE
  5
111
100
AcDbEntity
  8
Calque_1
  6
ByLayer
 62
    7
370
   -1
100
AcDbSpline
210
0
220
0
230
0
 70
    8
 71
    3
 72
    8
 73
    4
 74
    0
 42
1e-07
 43
1e-07
 40
0
 40
0
 40
0
 40
0
 40
1
 40
1
 40
1
 40
1
 10
1.720917
 20
7.032814999999999
 30
0
 10
1.720917999999998
 20
9.579067999999999
 30
0
 10
3.785064000000006
 20
11.643214
 30
0
 10
6.331316999999999
 20
11.643213
 30
0
  0
SPLINE
  5
112
100
AcDbEntity
  8
Calque_1
  6
ByLayer
 62
    7
370
   -1
100
AcDbSpline
210
0
220
0
230
0
 70
    8
 71
    3
 72
    8
 73
    4
 74
    0
 42
1e-07
 43
1e-07
 40
0
 40
0
 40
0
 40
0
 40
1
 40
1
 40
1
 40
1
 10
6.331316999999999
 20
11.643213
 30
0
 10
8.877569999999999
 20
11.643213
 30
0
 10
10.941715
 20
9.579067999999999
 30
0
 10
10.941716
 20
7.032814999999999
 30
0
  0
LWPOLYLINE
  5
113
100
AcDbEntity
  8
Calque_1
  6
ByLayer
 62
    7
370
   -1
100
AcDbPolyline
 90
    1
 70
    1
 43
0
 10
45.664743
 20
5.260317000000001
  0
LWPOLYLINE
  5
114
100
AcDbEntity
  8
Calque_1
  6
ByLayer
 62
    7
370
   -1
100
AcDbPolyline
 90
    1
 70
    1
 43
0
 10
10.941716
 20
7.032814999999999
  0
LWPOLYLINE
  5
115
100
AcDbEntity
  8
Calque_1
  6
ByLayer
 62
    7
370
   -1
100
AcDbPolyline
 90
   13
 70
    1
 43
0
 10
3.632329999999996
 20
10.446858
 10
4.150817000000004
 20
10.446858
 10
4.807107000000002
 20
8.69675
 10
5.466842999999997
 20
10.446858
 10
5.985330000000005
 20
10.446858
 10
5.985330000000005
 20
7.875091000000001
 10
5.645988000000003
 20
7.875091000000001
 10
5.645988000000003
 20
10.133355
 10
4.982806999999994
 20
8.369465999999999
 10
4.633129999999994
 20
8.369465999999999
 10
3.969949
 20
10.133355
 10
3.969949
 20
7.875091000000001
 10
3.632329999999996
 20
7.875091000000001
  0
LWPOLYLINE
  5
116
100
AcDbEntity
  8
Calque_1
  6
ByLayer
 62
    7
370
   -1
100
AcDbPolyline
 90
   12
 70
    1
 43
0
 10
5.644689
 20
7.877101
 10
7.270774000000003
 20
7.877101
 10
7.270774000000003
 20
7.584271000000001
 10
5.992643999999999
 20
7.584271000000001
 10
5.992643999999999
 20
6.822901
 10
7.217374999999997
 20
6.822901
 10
7.217374999999997
 20
6.530071
 10
5.992643999999999
 20
6.530071
 10
5.992643999999999
 20
5.598171000000001
 10
7.301780000000001
 20
5.598171000000001
 10
7.301780000000001
 20
5.305341
 10
5.644689
 20
5.305341
  0
SPLINE
  5
117
100
AcDbEntity
  8
Calque_1
  6
ByLayer
 62
    7
370
   -1
100
AcDbSpline
210
0
220
0
230
0
 70
    8
 71
    3
 72
    8
 73
    4
 74
    0
 42
1e-07
 43
1e-07
 40
0
 40
0
 40
0
 40
0
 40
1
 40
1
 40
1
 40
1
 10
8.085773000000003
 20
4.346071
 30
0
 10
8.247692000000001
 20
4.346071
 30
0
 10
8.372864
 20
4.387986999999999
 30
0
 10
8.461287999999996
 20
4.471821
 30
0
  0
SPLINE
  5
118
100
AcDbEntity
  8
Calque_1
  6
ByLayer
 62
    7
370
   -1
100
AcDbSpline
210
0
220
0
230
0
 70
    8
 71
    3
 72
    8
 73
    4
 74
    0
 42
1e-07
 43
1e-07
 40
0
 40
0
 40
0
 40
0
 40
1
 40
1
 40
1
 40
1
 10
8.461287999999996
 20
4.471821
 30
0
 10
8.549712
 20
4.555647
 30
0
 10
8.593924000000001
 20
4.675077
 30
0
 10
8.593924000000001
 20
4.830110999999999
 30
0
  0
SPLINE
  5
119
100
AcDbEntity
  8
Calque_1
  6
ByLayer
 62
    7
370
   -1
100
AcDbSpline
210
0
220
0
230
0
 70
    8
 71
    3
 72
    8
 73
    4
 74
    0
 42
1e-07
 43
1e-07
 40
0
 40
0
 40
0
 40
0
 40
1
 40
1
 40
1
 40
1
 10
8.593924000000001
 20
4.830110999999999
 30
0
 10
8.593924000000001
 20
4.983991
 30
0
 10
8.549712
 20
5.102844000000001
 30
0
 10
8.461287999999996
 20
5.186671
 30
0
  0
SPLINE
  5
11A
100
AcDbEntity
  8
Calque_1
  6
ByLayer
 62
    7
370
   -1
100
AcDbSpline
210
0
220
0
230
0
 70
    8
 71
    3
 72
    8
 73
    4
 74
    0
 42
1e-07
 43
1e-07
 40
0
 40
0
 40
0
 40
0
 40
1
 40
1
 40
1
 40
1
 10
8.461287999999996
 20
5.186671
 30
0
 10
8.372864
 20
5.270503999999999
 30
0
 10
8.247692000000001
 20
5.312421000000001
 30
0
 10
8.085773000000003
 20
5.312421000000001
 30
0
  0
LWPOLYLINE
  5
11B
100
AcDbEntity
  8
Calque_1
  6
ByLayer
 62
    7
370
   -1
100
AcDbPolyline
 90
    3
 70
    0
 43
0
 10
7.648245000000003
 20
5.312421000000001
 10
7.648245000000003
 20
4.346071
 10
8.085773000000003
 20
4.346071
  0
LWPOLYLINE
  5
11C
100
AcDbEntity
  8
Calque_1
  6
ByLayer
 62
    7
370
   -1
100
AcDbPolyline
 90
    2
 70
    0
 43
0
 10
8.085773000000003
 20
5.312421000000001
 10
7.648245000000003
 20
5.312421000000001
  0
SPLINE
  5
11D
100
AcDbEntity
  8
Calque_1
  6
ByLayer
 62
    7
370
   -1
100
AcDbSpline
210
0
220
0
230
0
 70
    8
 71
    3
 72
    8
 73
    4
 74
    0
 42
1e-07
 43
1e-07
 40
0
 40
0
 40
0
 40
0
 40
1
 40
1
 40
1
 40
1
 10
8.085773000000003
 20
5.598361000000001
 30
0
 10
8.374012
 20
5.598361000000001
 30
0
 10
8.591627000000003
 20
5.532904
 30
0
 10
8.738618000000002
 20
5.401990999999999
 30
0
  0
SPLINE
  5
11E
100
AcDbEntity
  8
Calque_1
  6
ByLayer
 62
    7
370
   -1
100
AcDbSpline
210
0
220
0
230
0
 70
    8
 71
    3
 72
    8
 73
    4
 74
    0
 42
1e-07
 43
1e-07
 40
0
 40
0
 40
0
 40
0
 40
1
 40
1
 40
1
 40
1
 10
8.738618000000002
 20
5.401990999999999
 30
0
 10
8.886757000000003
 20
5.272224
 30
0
 10
8.960827000000002
 20
5.081597
 30
0
 10
8.960827000000002
 20
4.830110999999999
 30
0
  0
SPLINE
  5
11F
100
AcDbEntity
  8
Calque_1
  6
ByLayer
 62
    7
370
   -1
100
AcDbSpline
210
0
220
0
230
0
 70
    8
 71
    3
 72
    8
 73
    4
 74
    0
 42
1e-07
 43
1e-07
 40
0
 40
0
 40
0
 40
0
 40
1
 40
1
 40
1
 40
1
 10
8.960827000000002
 20
4.830110999999999
 30
0
 10
8.960827000000002
 20
4.576317
 30
0
 10
8.886757000000003
 20
4.384537
 30
0
 10
8.738618000000002
 20
4.254771
 30
0
  0
SPLINE
  5
120
100
AcDbEntity
  8
Calque_1
  6
ByLayer
 62
    7
370
   -1
100
AcDbSpline
210
0
220
0
230
0
 70
    8
 71
    3
 72
    8
 73
    4
 74
    0
 42
1e-07
 43
1e-07
 40
0
 40
0
 40
0
 40
0
 40
1
 40
1
 40
1
 40
1
 10
8.738618000000002
 20
4.254771
 30
0
 10
8.591627000000003
 20
4.125011000000001
 30
0
 10
8.374012
 20
4.060131
 30
0
 10
8.085773000000003
 20
4.060131
 30
0
  0
LWPOLYLINE
  5
121
100
AcDbEntity
  8
Calque_1
  6
ByLayer
 62
    7
370
   -1
100
AcDbPolyline
 90
    2
 70
    0
 43
0
 10
7.300291000000001
 20
5.598361000000001
 10
8.085773000000003
 20
5.598361000000001
  0
LWPOLYLINE
  5
122
100
AcDbEntity
  8
Calque_1
  6
ByLayer
 62
    7
370
   -1
100
AcDbPolyline
 90
    5
 70
    0
 43
0
 10
8.085773000000003
 20
4.060131
 10
7.648245000000003
 20
4.060131
 10
7.648245000000003
 20
3.026600999999999
 10
7.300291000000001
 20
3.026600999999999
 10
7.300291000000001
 20
5.598361000000001
  0
LWPOLYLINE
  5
123
100
AcDbEntity
  8
Calque_1
  6
ByLayer
 62
    7
370
   -1
100
AcDbPolyline
 90
    4
 70
    1
 43
0
 10
9.874704999999999
 20
4.214767
 10
16.925995
 20
4.214767
 10
16.925995
 20
3.710967
 10
9.874704999999999
 20
3.710967
  0
LWPOLYLINE
  5
124
100
AcDbEntity
  8
Calque_1
  6
ByLayer
 62
    7
370
   -1
100
AcDbPolyline
 90
    6
 70
    1
 43
0
 10
24.732433
 20
1.821428000000001
 10
24.732433
 20
3.016
 10
24.732433
 20
4.210573
 10
25.766963
 20
3.613286
 10
26.801493
 20
3.016
 10
25.766963
 20
2.418714
  0
LWPOLYLINE
  5
125
100
AcDbEntity
  8
Calque_1
  6
ByLayer
 62
    7
370
   -1
100
AcDbPolyline
 90
    4
 70
    1
 43
0
 10
15.573489
 20
3.264336999999999
 10
25.096979
 20
3.264336999999999
 10
25.096979
 20
2.760546999999999
 10
15.573489
 20
2.760546999999999
  0
LWPOLYLINE
  5
126
100
AcDbEntity
  8
Calque_1
  6
ByLayer
 62
    7
370
   -1
100
AcDbPolyline
 90
    4
 70
    1
 43
0
 10
15.556475
 20
2.777557
 10
15.556475
 20
4.176217000000001
 10
16.060271
 20
4.176217000000001
 10
16.060271
 20
2.777557
  0
LWPOLYLINE
  5
127
100
AcDbEntity
  8
Calque_1
  6
ByLayer
 62
    7
370
   -1
100
AcDbPolyline
 90
    4
 70
    1
 43
0
 10
26.345301
 20
1.821577
 10
26.345301
 20
4.210577000000001
 10
26.849098
 20
4.210577000000001
 10
26.849098
 20
1.821577
  0
LWPOLYLINE
  5
128
100
AcDbEntity
  8
Calque_1
  6
ByLayer
 62
    7
370
   -1
100
AcDbPolyline
 90
    4
 70
    1
 43
0
 10
26.686
 20
3.264336999999999
 10
40.794343
 20
3.264336999999999
 10
40.794343
 20
2.760546999999999
 10
26.686
 20
2.760546999999999
  0
LWPOLYLINE
  5
129
100
AcDbEntity
  8
Calque_1
  6
ByLayer
 62
    7
370
   -1
100
AcDbPolyline
 90
    4
 70
    1
 43
0
 10
40.821043
 20
3.856767
 10
40.821043
 20
1.322917
 10
40.269823
 20
1.322917
 10
40.269823
 20
3.856767
  0
SPLINE
  5
12A
100
AcDbEntity
  8
Calque_1
  6
ByLayer
 62
    7
370
   -1
100
AcDbSpline
210
0
220
0
230
0
 70
    8
 71
    3
 72
    8
 73
    4
 74
    0
 42
1e-07
 43
1e-07
 40
0
 40
0
 40
0
 40
0
 40
1
 40
1
 40
1
 40
1
 10
33.588529
 20
2.452047
 30
0
 10
33.496086
 20
2.452047
 30
0
 10
33.420294
 20
2.473279999999999
 30
0
 10
33.361153
 20
2.515747000000001
 30
0
  0
SPLINE
  5
12B
100
AcDbEntity
  8
Calque_1
  6
ByLayer
 62
    7
370
   -1
100
AcDbSpline
210
0
220
0
230
0
 70
    8
 71
    3
 72
    8
 73
    4
 74
    0
 42
1e-07
 43
1e-07
 40
0
 40
0
 40
0
 40
0
 40
1
 40
1
 40
1
 40
1
 10
33.361153
 20
2.515747000000001
 30
0
 10
33.302013
 20
2.558814
 30
0
 10
33.258088
 20
2.624844
 30
0
 10
33.229378
 20
2.713837
 30
0
  0
SPLINE
  5
12C
100
AcDbEntity
  8
Calque_1
  6
ByLayer
 62
    7
370
   -1
100
AcDbSpline
210
0
220
0
230
0
 70
    8
 71
    3
 72
    8
 73
    4
 74
    0
 42
1e-07
 43
1e-07
 40
0
 40
0
 40
0
 40
0
 40
1
 40
1
 40
1
 40
1
 10
33.229378
 20
2.713837
 30
0
 10
33.200672
 20
2.802837
 30
0
 10
33.186318
 20
2.916814
 30
0
 10
33.186318
 20
3.055766999999999
 30
0
  0
SPLINE
  5
12D
100
AcDbEntity
  8
Calque_1
  6
ByLayer
 62
    7
370
   -1
100
AcDbSpline
210
0
220
0
230
0
 70
    8
 71
    3
 72
    8
 73
    4
 74
    0
 42
1e-07
 43
1e-07
 40
0
 40
0
 40
0
 40
0
 40
1
 40
1
 40
1
 40
1
 10
33.186318
 20
3.055766999999999
 30
0
 10
33.186318
 20
3.19472
 30
0
 10
33.200672
 20
3.308406999999999
 30
0
 10
33.229378
 20
3.396827
 30
0
  0
SPLINE
  5
12E
100
AcDbEntity
  8
Calque_1
  6
ByLayer
 62
    7
370
   -1
100
AcDbSpline
210
0
220
0
230
0
 70
    8
 71
    3
 72
    8
 73
    4
 74
    0
 42
1e-07
 43
1e-07
 40
0
 40
0
 40
0
 40
0
 40
1
 40
1
 40
1
 40
1
 10
33.229378
 20
3.396827
 30
0
 10
33.258085
 20
3.485827
 30
0
 10
33.30201
 20
3.55157
 30
0
 10
33.361153
 20
3.594056999999999
 30
0
  0
SPLINE
  5
12F
100
AcDbEntity
  8
Calque_1
  6
ByLayer
 62
    7
370
   -1
100
AcDbSpline
210
0
220
0
230
0
 70
    8
 71
    3
 72
    8
 73
    4
 74
    0
 42
1e-07
 43
1e-07
 40
0
 40
0
 40
0
 40
0
 40
1
 40
1
 40
1
 40
1
 10
33.361153
 20
3.594056999999999
 30
0
 10
33.420293
 20
3.637124
 30
0
 10
33.496085
 20
3.658657
 30
0
 10
33.588529
 20
3.658657
 30
0
  0
SPLINE
  5
130
100
AcDbEntity
  8
Calque_1
  6
ByLayer
 62
    7
370
   -1
100
AcDbSpline
210
0
220
0
230
0
 70
    8
 71
    3
 72
    8
 73
    4
 74
    0
 42
1e-07
 43
1e-07
 40
0
 40
0
 40
0
 40
0
 40
1
 40
1
 40
1
 40
1
 10
33.588529
 20
3.658657
 30
0
 10
33.681547
 20
3.658657
 30
0
 10
33.757626
 20
3.637124
 30
0
 10
33.816767
 20
3.594056999999999
 30
0
  0
SPLINE
  5
131
100
AcDbEntity
  8
Calque_1
  6
ByLayer
 62
    7
370
   -1
100
AcDbSpline
210
0
220
0
230
0
 70
    8
 71
    3
 72
    8
 73
    4
 74
    0
 42
1e-07
 43
1e-07
 40
0
 40
0
 40
0
 40
0
 40
1
 40
1
 40
1
 40
1
 10
33.816767
 20
3.594056999999999
 30
0
 10
33.875907
 20
3.551590000000001
 30
0
 10
33.919545
 20
3.485847
 30
0
 10
33.94768
 20
3.396827
 30
0
  0
SPLINE
  5
132
100
AcDbEntity
  8
Calque_1
  6
ByLayer
 62
    7
370
   -1
100
AcDbSpline
210
0
220
0
230
0
 70
    8
 71
    3
 72
    8
 73
    4
 74
    0
 42
1e-07
 43
1e-07
 40
0
 40
0
 40
0
 40
0
 40
1
 40
1
 40
1
 40
1
 10
33.94768
 20
3.396827
 30
0
 10
33.976387
 20
3.308406999999999
 30
0
 10
33.99074
 20
3.19472
 30
0
 10
33.99074
 20
3.055766999999999
 30
0
  0
SPLINE
  5
133
100
AcDbEntity
  8
Calque_1
  6
ByLayer
 62
    7
370
   -1
100
AcDbSpline
210
0
220
0
230
0
 70
    8
 71
    3
 72
    8
 73
    4
 74
    0
 42
1e-07
 43
1e-07
 40
0
 40
0
 40
0
 40
0
 40
1
 40
1
 40
1
 40
1
 10
33.99074
 20
3.055766999999999
 30
0
 10
33.99074
 20
2.916814
 30
0
 10
33.976387
 20
2.802837
 30
0
 10
33.94768
 20
2.713837
 30
0
  0
SPLINE
  5
134
100
AcDbEntity
  8
Calque_1
  6
ByLayer
 62
    7
370
   -1
100
AcDbSpline
210
0
220
0
230
0
 70
    8
 71
    3
 72
    8
 73
    4
 74
    0
 42
1e-07
 43
1e-07
 40
0
 40
0
 40
0
 40
0
 40
1
 40
1
 40
1
 40
1
 10
33.94768
 20
2.713837
 30
0
 10
33.919547
 20
2.624836999999999
 30
0
 10
33.875909
 20
2.558807
 30
0
 10
33.816767
 20
2.515747000000001
 30
0
  0
SPLINE
  5
135
100
AcDbEntity
  8
Calque_1
  6
ByLayer
 62
    7
370
   -1
100
AcDbSpline
210
0
220
0
230
0
 70
    8
 71
    3
 72
    8
 73
    4
 74
    0
 42
1e-07
 43
1e-07
 40
0
 40
0
 40
0
 40
0
 40
1
 40
1
 40
1
 40
1
 10
33.816767
 20
2.515747000000001
 30
0
 10
33.757627
 20
2.473279999999999
 30
0
 10
33.681548
 20
2.452047
 30
0
 10
33.588529
 20
2.452047
 30
0
  0
LWPOLYLINE
  5
136
100
AcDbEntity
  8
Calque_1
  6
ByLayer
 62
    7
370
   -1
100
AcDbPolyline
 90
    4
 70
    1
 43
0
 10
32.383006
 20
3.897797000000001
 10
35.730353
 20
3.897797000000001
 10
35.730353
 20
2.127096999999999
 10
32.383006
 20
2.127096999999999
  0
SPLINE
  5
137
100
AcDbEntity
  8
Calque_1
  6
ByLayer
 62
    7
370
   -1
100
AcDbSpline
210
0
220
0
230
0
 70
    8
 71
    3
 72
    8
 73
    4
 74
    0
 42
1e-07
 43
1e-07
 40
0
 40
0
 40
0
 40
0
 40
1
 40
1
 40
1
 40
1
 10
33.588529
 20
2.584687000000001
 30
0
 10
33.676953
 20
2.584687000000001
 30
0
 10
33.741549
 20
2.622584
 30
0
 10
33.782316
 20
2.698377000000001
 30
0
  0
SPLINE
  5
138
100
AcDbEntity
  8
Calque_1
  6
ByLayer
 62
    7
370
   -1
100
AcDbSpline
210
0
220
0
230
0
 70
    8
 71
    3
 72
    8
 73
    4
 74
    0
 42
1e-07
 43
1e-07
 40
0
 40
0
 40
0
 40
0
 40
1
 40
1
 40
1
 40
1
 10
33.782316
 20
2.698377000000001
 30
0
 10
33.823656
 20
2.77417
 30
0
 10
33.844326
 20
2.893314
 30
0
 10
33.844326
 20
3.055807
 30
0
  0
SPLINE
  5
139
100
AcDbEntity
  8
Calque_1
  6
ByLayer
 62
    7
370
   -1
100
AcDbSpline
210
0
220
0
230
0
 70
    8
 71
    3
 72
    8
 73
    4
 74
    0
 42
1e-07
 43
1e-07
 40
0
 40
0
 40
0
 40
0
 40
1
 40
1
 40
1
 40
1
 10
33.844326
 20
3.055807
 30
0
 10
33.844326
 20
3.218299999999999
 30
0
 10
33.823656
 20
3.337444
 30
0
 10
33.782316
 20
3.413237000000001
 30
0
  0
SPLINE
  5
13A
100
AcDbEntity
  8
Calque_1
  6
ByLayer
 62
    7
370
   -1
100
AcDbSpline
210
0
220
0
230
0
 70
    8
 71
    3
 72
    8
 73
    4
 74
    0
 42
1e-07
 43
1e-07
 40
0
 40
0
 40
0
 40
0
 40
1
 40
1
 40
1
 40
1
 10
33.782316
 20
3.413237000000001
 30
0
 10
33.74155
 20
3.489024000000001
 30
0
 10
33.676954
 20
3.526917000000001
 30
0
 10
33.588529
 20
3.526917000000001
 30
0
  0
SPLINE
  5
13B
100
AcDbEntity
  8
Calque_1
  6
ByLayer
 62
    7
370
   -1
100
AcDbSpline
210
0
220
0
230
0
 70
    8
 71
    3
 72
    8
 73
    4
 74
    0
 42
1e-07
 43
1e-07
 40
0
 40
0
 40
0
 40
0
 40
1
 40
1
 40
1
 40
1
 10
33.588529
 20
3.526917000000001
 30
0
 10
33.500679
 20
3.526917000000001
 30
0
 10
33.436084
 20
3.489024000000001
 30
0
 10
33.394742
 20
3.413237000000001
 30
0
  0
SPLINE
  5
13C
100
AcDbEntity
  8
Calque_1
  6
ByLayer
 62
    7
370
   -1
100
AcDbSpline
210
0
220
0
230
0
 70
    8
 71
    3
 72
    8
 73
    4
 74
    0
 42
1e-07
 43
1e-07
 40
0
 40
0
 40
0
 40
0
 40
1
 40
1
 40
1
 40
1
 10
33.394742
 20
3.413237000000001
 30
0
 10
33.353402
 20
3.337444
 30
0
 10
33.332732
 20
3.218299999999999
 30
0
 10
33.332732
 20
3.055807
 30
0
  0
SPLINE
  5
13D
100
AcDbEntity
  8
Calque_1
  6
ByLayer
 62
    7
370
   -1
100
AcDbSpline
210
0
220
0
230
0
 70
    8
 71
    3
 72
    8
 73
    4
 74
    0
 42
1e-07
 43
1e-07
 40
0
 40
0
 40
0
 40
0
 40
1
 40
1
 40
1
 40
1
 10
33.332732
 20
3.055807
 30
0
 10
33.332732
 20
2.893314
 30
0
 10
33.353402
 20
2.77417
 30
0
 10
33.394742
 20
2.698377000000001
 30
0
  0
SPLINE
  5
13E
100
AcDbEntity
  8
Calque_1
  6
ByLayer
 62
    7
370
   -1
100
AcDbSpline
210
0
220
0
230
0
 70
    8
 71
    3
 72
    8
 73
    4
 74
    0
 42
1e-07
 43
1e-07
 40
0
 40
0
 40
0
 40
0
 40
1
 40
1
 40
1
 40
1
 10
33.394742
 20
2.698377000000001
 30
0
 10
33.436082
 20
2.622584
 30
0
 10
33.500678
 20
2.584687000000001
 30
0
 10
33.588529
 20
2.584687000000001
 30
0
  0
LWPOLYLINE
  5
13F
100
AcDbEntity
  8
Calque_1
  6
ByLayer
 62
    7
370
   -1
100
AcDbPolyline
 90
    1
 70
    1
 43
0
 10
33.588529
 20
2.452047
  0
LWPOLYLINE
  5
140
100
AcDbEntity
  8
Calque_1
  6
ByLayer
 62
    7
370
   -1
100
AcDbPolyline
 90
    1
 70
    1
 43
0
 10
33.588529
 20
2.584687000000001
  0
SPLINE
  5
141
100
AcDbEntity
  8
Calque_1
  6
ByLayer
 62
    7
370
   -1
100
AcDbSpline
210
0
220
0
230
0
 70
    8
 71
    3
 72
    8
 73
    4
 74
    0
 42
1e-07
 43
1e-07
 40
0
 40
0
 40
0
 40
0
 40
1
 40
1
 40
1
 40
1
 10
34.581573
 20
3.638027000000001
 30
0
 10
34.698707
 20
3.638027000000001
 30
0
 10
34.78627
 20
3.613327
 30
0
 10
34.844263
 20
3.563927
 30
0
  0
SPLINE
  5
142
100
AcDbEntity
  8
Calque_1
  6
ByLayer
 62
    7
370
   -1
100
AcDbSpline
210
0
220
0
230
0
 70
    8
 71
    3
 72
    8
 73
    4
 74
    0
 42
1e-07
 43
1e-07
 40
0
 40
0
 40
0
 40
0
 40
1
 40
1
 40
1
 40
1
 10
34.844263
 20
3.563927
 30
0
 10
34.902863
 20
3.515127
 30
0
 10
34.932163
 20
3.441057000000001
 30
0
 10
34.932163
 20
3.341716999999999
 30
0
  0
SPLINE
  5
143
100
AcDbEntity
  8
Calque_1
  6
ByLayer
 62
    7
370
   -1
100
AcDbSpline
210
0
220
0
230
0
 70
    8
 71
    3
 72
    8
 73
    4
 74
    0
 42
1e-07
 43
1e-07
 40
0
 40
0
 40
0
 40
0
 40
1
 40
1
 40
1
 40
1
 10
34.932163
 20
3.341716999999999
 30
0
 10
34.932163
 20
3.217696999999999
 30
0
 10
34.880487
 20
3.134727
 30
0
 10
34.777133
 20
3.092807000000001
 30
0
  0
LWPOLYLINE
  5
144
100
AcDbEntity
  8
Calque_1
  6
ByLayer
 62
    7
370
   -1
100
AcDbPolyline
 90
    2
 70
    0
 43
0
 10
34.238793
 20
3.638027000000001
 10
34.581573
 20
3.638027000000001
  0
SPLINE
  5
145
100
AcDbEntity
  8
Calque_1
  6
ByLayer
 62
    7
370
   -1
100
AcDbSpline
210
0
220
0
230
0
 70
    8
 71
    3
 72
    8
 73
    4
 74
    0
 42
1e-07
 43
1e-07
 40
0
 40
0
 40
0
 40
0
 40
1
 40
1
 40
1
 40
1
 10
34.777133
 20
3.087807
 30
0
 10
34.914367
 20
3.051074
 30
0
 10
34.982983
 20
2.955187
 30
0
 10
34.982983
 20
2.800146999999999
 30
0
  0
SPLINE
  5
146
100
AcDbEntity
  8
Calque_1
  6
ByLayer
 62
    7
370
   -1
100
AcDbSpline
210
0
220
0
230
0
 70
    8
 71
    3
 72
    8
 73
    4
 74
    0
 42
1e-07
 43
1e-07
 40
0
 40
0
 40
0
 40
0
 40
1
 40
1
 40
1
 40
1
 10
34.982983
 20
2.800146999999999
 30
0
 10
34.982983
 20
2.691053999999999
 30
0
 10
34.953683
 20
2.609234000000001
 30
0
 10
34.895083
 20
2.554686999999999
 30
0
  0
SPLINE
  5
147
100
AcDbEntity
  8
Calque_1
  6
ByLayer
 62
    7
370
   -1
100
AcDbSpline
210
0
220
0
230
0
 70
    8
 71
    3
 72
    8
 73
    4
 74
    0
 42
1e-07
 43
1e-07
 40
0
 40
0
 40
0
 40
0
 40
1
 40
1
 40
1
 40
1
 10
34.895083
 20
2.554686999999999
 30
0
 10
34.837083
 20
2.500686999999999
 30
0
 10
34.748947
 20
2.473687
 30
0
 10
34.630673
 20
2.473687
 30
0
  0
LWPOLYLINE
  5
148
100
AcDbEntity
  8
Calque_1
  6
ByLayer
 62
    7
370
   -1
100
AcDbPolyline
 90
    2
 70
    0
 43
0
 10
34.777133
 20
3.092807000000001
 10
34.777133
 20
3.087807
  0
SPLINE
  5
149
100
AcDbEntity
  8
Calque_1
  6
ByLayer
 62
    7
370
   -1
100
AcDbSpline
210
0
220
0
230
0
 70
    8
 71
    3
 72
    8
 73
    4
 74
    0
 42
1e-07
 43
1e-07
 40
0
 40
0
 40
0
 40
0
 40
1
 40
1
 40
1
 40
1
 10
34.568663
 20
3.138487
 30
0
 10
34.64445
 20
3.138487
 30
0
 10
34.700143
 20
3.153420000000001
 30
0
 10
34.735743
 20
3.183287
 30
0
  0
SPLINE
  5
14A
100
AcDbEntity
  8
Calque_1
  6
ByLayer
 62
    7
370
   -1
100
AcDbSpline
210
0
220
0
230
0
 70
    8
 71
    3
 72
    8
 73
    4
 74
    0
 42
1e-07
 43
1e-07
 40
0
 40
0
 40
0
 40
0
 40
1
 40
1
 40
1
 40
1
 10
34.735743
 20
3.183287
 30
0
 10
34.771343
 20
3.213687
 30
0
 10
34.789143
 20
3.261057000000001
 30
0
 10
34.789143
 20
3.325397000000001
 30
0
  0
SPLINE
  5
14B
100
AcDbEntity
  8
Calque_1
  6
ByLayer
 62
    7
370
   -1
100
AcDbSpline
210
0
220
0
230
0
 70
    8
 71
    3
 72
    8
 73
    4
 74
    0
 42
1e-07
 43
1e-07
 40
0
 40
0
 40
0
 40
0
 40
1
 40
1
 40
1
 40
1
 10
34.789143
 20
3.325397000000001
 30
0
 10
34.789143
 20
3.38913
 30
0
 10
34.771343
 20
3.435924
 30
0
 10
34.735743
 20
3.465776999999999
 30
0
  0
SPLINE
  5
14C
100
AcDbEntity
  8
Calque_1
  6
ByLayer
 62
    7
370
   -1
100
AcDbSpline
210
0
220
0
230
0
 70
    8
 71
    3
 72
    8
 73
    4
 74
    0
 42
1e-07
 43
1e-07
 40
0
 40
0
 40
0
 40
0
 40
1
 40
1
 40
1
 40
1
 10
34.735743
 20
3.465776999999999
 30
0
 10
34.700143
 20
3.495644
 30
0
 10
34.64445
 20
3.510577
 30
0
 10
34.568663
 20
3.510577
 30
0
  0
LWPOLYLINE
  5
14D
100
AcDbEntity
  8
Calque_1
  6
ByLayer
 62
    7
370
   -1
100
AcDbPolyline
 90
    3
 70
    0
 43
0
 10
34.630673
 20
2.473687
 10
34.238793
 20
2.473687
 10
34.238793
 20
3.638027000000001
  0
SPLINE
  5
14E
100
AcDbEntity
  8
Calque_1
  6
ByLayer
 62
    7
370
   -1
100
AcDbSpline
210
0
220
0
230
0
 70
    8
 71
    3
 72
    8
 73
    4
 74
    0
 42
1e-07
 43
1e-07
 40
0
 40
0
 40
0
 40
0
 40
1
 40
1
 40
1
 40
1
 10
34.618563
 20
2.600187
 30
0
 10
34.694357
 20
2.600187
 30
0
 10
34.749477
 20
2.616554000000001
 30
0
 10
34.783923
 20
2.649287000000001
 30
0
  0
SPLINE
  5
14F
100
AcDbEntity
  8
Calque_1
  6
ByLayer
 62
    7
370
   -1
100
AcDbSpline
210
0
220
0
230
0
 70
    8
 71
    3
 72
    8
 73
    4
 74
    0
 42
1e-07
 43
1e-07
 40
0
 40
0
 40
0
 40
0
 40
1
 40
1
 40
1
 40
1
 10
34.783923
 20
2.649287000000001
 30
0
 10
34.818923
 20
2.682554
 30
0
 10
34.836423
 20
2.734517
 30
0
 10
34.836423
 20
2.805177
 30
0
  0
SPLINE
  5
150
100
AcDbEntity
  8
Calque_1
  6
ByLayer
 62
    7
370
   -1
100
AcDbSpline
210
0
220
0
230
0
 70
    8
 71
    3
 72
    8
 73
    4
 74
    0
 42
1e-07
 43
1e-07
 40
0
 40
0
 40
0
 40
0
 40
1
 40
1
 40
1
 40
1
 10
34.836423
 20
2.805177
 30
0
 10
34.836423
 20
2.876950000000001
 30
0
 10
34.818923
 20
2.9292
 30
0
 10
34.783923
 20
2.961926999999999
 30
0
  0
SPLINE
  5
151
100
AcDbEntity
  8
Calque_1
  6
ByLayer
 62
    7
370
   -1
100
AcDbSpline
210
0
220
0
230
0
 70
    8
 71
    3
 72
    8
 73
    4
 74
    0
 42
1e-07
 43
1e-07
 40
0
 40
0
 40
0
 40
0
 40
1
 40
1
 40
1
 40
1
 10
34.783923
 20
2.961926999999999
 30
0
 10
34.749457
 20
2.995194
 30
0
 10
34.694337
 20
3.011827
 30
0
 10
34.618563
 20
3.011827
 30
0
  0
LWPOLYLINE
  5
152
100
AcDbEntity
  8
Calque_1
  6
ByLayer
 62
    7
370
   -1
100
AcDbPolyline
 90
    4
 70
    0
 43
0
 10
34.568663
 20
3.510577
 10
34.380043
 20
3.510577
 10
34.380043
 20
3.138507000000001
 10
34.568663
 20
3.138487
  0
LWPOLYLINE
  5
153
100
AcDbEntity
  8
Calque_1
  6
ByLayer
 62
    7
370
   -1
100
AcDbPolyline
 90
    4
 70
    0
 43
0
 10
34.618563
 20
3.011827
 10
34.379993
 20
3.011827
 10
34.379993
 20
2.600137
 10
34.618563
 20
2.600187
  0
ENDBLK
  5
69
330
67
100
AcDbEntity
  8
0
100
AcDbBlockEnd
  0
BLOCK
  5
6B
330
6A
100
AcDbEntity
  8
0
100
AcDbBlockBegin
  2
logo_python_mcu_mep-0
 70
    0
 10
0
 20
0
  3
logo_python_mcu_mep-0
  1

  0
SPLINE
  5
154
100
AcDbEntity
  8
Calque_1
  6
ByLayer
 62
    7
370
   -1
100
AcDbSpline
210
0
220
0
230
0
 70
    8
 71
    3
 72
    8
 73
    4
 74
    0
 42
1e-07
 43
1e-07
 40
0
 40
0
 40
0
 40
0
 40
1
 40
1
 40
1
 40
1
 10
14.15245899999999
 20
10.004209
 30
0
 10
14.611805
 20
10.004209
 30
0
 10
14.960908
 20
9.889372000000002
 30
0
 10
15.19976800000001
 20
9.659699
 30
0
  0
SPLINE
  5
155
100
AcDbEntity
  8
Calque_1
  6
ByLayer
 62
    7
370
   -1
100
AcDbSpline
210
0
220
0
230
0
 70
    8
 71
    3
 72
    8
 73
    4
 74
    0
 42
1e-07
 43
1e-07
 40
0
 40
0
 40
0
 40
0
 40
1
 40
1
 40
1
 40
1
 10
15.19976800000001
 20
9.659699
 30
0
 10
15.44092499999999
 20
9.432323999999999
 30
0
 10
15.561503
 20
9.100447000000001
 30
0
 10
15.561503
 20
8.664066999999999
 30
0
  0
SPLINE
  5
156
100
AcDbEntity
  8
Calque_1
  6
ByLayer
 62
    7
370
   -1
100
AcDbSpline
210
0
220
0
230
0
 70
    8
 71
    3
 72
    8
 73
    4
 74
    0
 42
1e-07
 43
1e-07
 40
0
 40
0
 40
0
 40
0
 40
1
 40
1
 40
1
 40
1
 10
15.561503
 20
8.664066999999999
 30
0
 10
15.561503
 20
8.227687
 30
0
 10
15.44092499999999
 20
7.89466
 30
0
 10
15.19976800000001
 20
7.664987
 30
0
  0
SPLINE
  5
157
100
AcDbEntity
  8
Calque_1
  6
ByLayer
 62
    7
370
   -1
100
AcDbSpline
210
0
220
0
230
0
 70
    8
 71
    3
 72
    8
 73
    4
 74
    0
 42
1e-07
 43
1e-07
 40
0
 40
0
 40
0
 40
0
 40
1
 40
1
 40
1
 40
1
 10
15.19976800000001
 20
7.664987
 30
0
 10
14.960908
 20
7.435314
 30
0
 10
14.611805
 20
7.320477
 30
0
 10
14.15245899999999
 20
7.320477
 30
0
  0
LWPOLYLINE
  5
158
100
AcDbEntity
  8
Calque_1
  6
ByLayer
 62
    7
370
   -1
100
AcDbPolyline
 90
    2
 70
    0
 43
0
 10
12.67106800000001
 20
10.004209
 10
14.15245899999999
 20
10.004209
  0
SPLINE
  5
159
100
AcDbEntity
  8
Calque_1
  6
ByLayer
 62
    7
370
   -1
100
AcDbSpline
210
0
220
0
230
0
 70
    8
 71
    3
 72
    8
 73
    4
 74
    0
 42
1e-07
 43
1e-07
 40
0
 40
0
 40
0
 40
0
 40
1
 40
1
 40
1
 40
1
 10
14.080112
 20
7.830356999999999
 30
0
 10
14.383281
 20
7.830356999999999
 30
0
 10
14.60836
 20
7.899257
 30
0
 10
14.755351
 20
8.037057000000001
 30
0
  0
SPLINE
  5
15A
100
AcDbEntity
  8
Calque_1
  6
ByLayer
 62
    7
370
   -1
100
AcDbSpline
210
0
220
0
230
0
 70
    8
 71
    3
 72
    8
 73
    4
 74
    0
 42
1e-07
 43
1e-07
 40
0
 40
0
 40
0
 40
0
 40
1
 40
1
 40
1
 40
1
 10
14.755351
 20
8.037057000000001
 30
0
 10
14.902342
 20
8.174863999999999
 30
0
 10
14.975837
 20
8.383867
 30
0
 10
14.975837
 20
8.664066999999999
 30
0
  0
SPLINE
  5
15B
100
AcDbEntity
  8
Calque_1
  6
ByLayer
 62
    7
370
   -1
100
AcDbSpline
210
0
220
0
230
0
 70
    8
 71
    3
 72
    8
 73
    4
 74
    0
 42
1e-07
 43
1e-07
 40
0
 40
0
 40
0
 40
0
 40
1
 40
1
 40
1
 40
1
 10
14.975837
 20
8.664066999999999
 30
0
 10
14.975837
 20
8.941974
 30
0
 10
14.902342
 20
9.149827
 30
0
 10
14.755351
 20
9.287627000000001
 30
0
  0
SPLINE
  5
15C
100
AcDbEntity
  8
Calque_1
  6
ByLayer
 62
    7
370
   -1
100
AcDbSpline
210
0
220
0
230
0
 70
    8
 71
    3
 72
    8
 73
    4
 74
    0
 42
1e-07
 43
1e-07
 40
0
 40
0
 40
0
 40
0
 40
1
 40
1
 40
1
 40
1
 10
14.755351
 20
9.287627000000001
 30
0
 10
14.60836
 20
9.425433999999999
 30
0
 10
14.383281
 20
9.494337
 30
0
 10
14.080112
 20
9.494337
 30
0
  0
LWPOLYLINE
  5
15D
100
AcDbEntity
  8
Calque_1
  6
ByLayer
 62
    7
370
   -1
100
AcDbPolyline
 90
    5
 70
    0
 43
0
 10
14.15245899999999
 20
7.320477
 10
13.236064
 20
7.320477
 10
13.236064
 20
5.346437
 10
12.67106800000001
 20
5.346437
 10
12.67106800000001
 20
10.004209
  0
SPLINE
  5
15E
100
AcDbEntity
  8
Calque_1
  6
ByLayer
 62
    7
370
   -1
100
AcDbSpline
210
0
220
0
230
0
 70
    8
 71
    3
 72
    8
 73
    4
 74
    0
 42
1e-07
 43
1e-07
 40
0
 40
0
 40
0
 40
0
 40
1
 40
1
 40
1
 40
1
 10
16.880975
 20
3.710017000000001
 30
0
 10
16.793295
 20
3.709797
 30
0
 10
16.78153500000001
 20
4.085287000000001
 30
0
 10
16.887875
 20
4.216397000000001
 30
0
  0
SPLINE
  5
15F
100
AcDbEntity
  8
Calque_1
  6
ByLayer
 62
    7
370
   -1
100
AcDbSpline
210
0
220
0
230
0
 70
    8
 71
    3
 72
    8
 73
    4
 74
    0
 42
1e-07
 43
1e-07
 40
0
 40
0
 40
0
 40
0
 40
1
 40
1
 40
1
 40
1
 10
16.887875
 20
4.216397000000001
 30
0
 10
16.926005
 20
4.214397
 30
0
 10
17.068168
 20
4.234797
 30
0
 10
17.132476
 20
4.271497
 30
0
  0
SPLINE
  5
160
100
AcDbEntity
  8
Calque_1
  6
ByLayer
 62
    7
370
   -1
100
AcDbSpline
210
0
220
0
230
0
 70
    8
 71
    3
 72
    8
 73
    4
 74
    0
 42
1e-07
 43
1e-07
 40
0
 40
0
 40
0
 40
0
 40
1
 40
1
 40
1
 40
1
 10
17.132476
 20
4.271497
 30
0
 10
17.199086
 20
4.308197
 30
0
 10
17.258798
 20
4.371397
 30
0
 10
17.311621
 20
4.460977
 30
0
  0
SPLINE
  5
161
100
AcDbEntity
  8
Calque_1
  6
ByLayer
 62
    7
370
   -1
100
AcDbSpline
210
0
220
0
230
0
 70
    8
 71
    3
 72
    8
 73
    4
 74
    0
 42
1e-07
 43
1e-07
 40
0
 40
0
 40
0
 40
0
 40
1
 40
1
 40
1
 40
1
 10
17.311621
 20
4.460977
 30
0
 10
17.366741
 20
4.548276999999999
 30
0
 10
17.425308
 20
4.674576999999999
 30
0
 10
17.487321
 20
4.839936999999999
 30
0
  0
LWPOLYLINE
  5
162
100
AcDbEntity
  8
Calque_1
  6
ByLayer
 62
    7
370
   -1
100
AcDbPolyline
 90
    4
 70
    0
 43
0
 10
14.080112
 20
9.494337
 10
13.236064
 20
9.494337
 10
13.236064
 20
7.830356999999999
 10
14.080112
 20
7.830356999999999
  0
SPLINE
  5
163
100
AcDbEntity
  8
Calque_1
  6
ByLayer
 62
    7
370
   -1
100
AcDbSpline
210
0
220
0
230
0
 70
    8
 71
    3
 72
    8
 73
    4
 74
    0
 42
1e-07
 43
1e-07
 40
0
 40
0
 40
0
 40
0
 40
1
 40
1
 40
1
 40
1
 10
17.966189
 20
4.667687000000001
 30
0
 10
17.881209
 20
4.433417
 30
0
 10
17.788192
 20
4.247387
 30
0
 10
17.687136
 20
4.109577
 30
0
  0
SPLINE
  5
164
100
AcDbEntity
  8
Calque_1
  6
ByLayer
 62
    7
370
   -1
100
AcDbSpline
210
0
220
0
230
0
 70
    8
 71
    3
 72
    8
 73
    4
 74
    0
 42
1e-07
 43
1e-07
 40
0
 40
0
 40
0
 40
0
 40
1
 40
1
 40
1
 40
1
 10
17.687136
 20
4.109577
 30
0
 10
17.58608
 20
3.969476999999999
 30
0
 10
17.470095
 20
3.868427000000001
 30
0
 10
17.339181
 20
3.806417
 30
0
  0
SPLINE
  5
165
100
AcDbEntity
  8
Calque_1
  6
ByLayer
 62
    7
370
   -1
100
AcDbSpline
210
0
220
0
230
0
 70
    8
 71
    3
 72
    8
 73
    4
 74
    0
 42
1e-07
 43
1e-07
 40
0
 40
0
 40
0
 40
0
 40
1
 40
1
 40
1
 40
1
 10
17.339181
 20
3.806417
 30
0
 10
17.21056400000001
 20
3.742117
 30
0
 10
16.925998
 20
3.711017
 30
0
 10
16.925998
 20
3.711017
 30
0
  0
LWPOLYLINE
  5
166
100
AcDbEntity
  8
Calque_1
  6
ByLayer
 62
    7
370
   -1
100
AcDbPolyline
 90
    9
 70
    0
 43
0
 10
17.487321
 20
4.839936999999999
 10
17.663021
 20
5.318807
 10
16.329769
 20
8.788017
 10
16.922326
 20
8.788017
 10
17.917958
 20
6.087067000000001
 10
17.945518
 20
6.087067000000001
 10
18.882584
 20
8.788017
 10
19.46136
 20
8.788017
 10
17.966189
 20
4.667687000000001
  0
SPLINE
  5
167
100
AcDbEntity
  8
Calque_1
  6
ByLayer
 62
    7
370
   -1
100
AcDbSpline
210
0
220
0
230
0
 70
    8
 71
    3
 72
    8
 73
    4
 74
    0
 42
1e-07
 43
1e-07
 40
0
 40
0
 40
0
 40
0
 40
1
 40
1
 40
1
 40
1
 10
22.217427
 20
5.260317000000001
 30
0
 10
21.840764
 20
5.260317000000001
 30
0
 10
21.550227
 20
5.36252
 30
0
 10
21.345818
 20
5.566927
 30
0
  0
SPLINE
  5
168
100
AcDbEntity
  8
Calque_1
  6
ByLayer
 62
    7
370
   -1
100
AcDbSpline
210
0
220
0
230
0
 70
    8
 71
    3
 72
    8
 73
    4
 74
    0
 42
1e-07
 43
1e-07
 40
0
 40
0
 40
0
 40
0
 40
1
 40
1
 40
1
 40
1
 10
21.345818
 20
5.566927
 30
0
 10
21.141409
 20
5.771334
 30
0
 10
21.039205
 20
6.061869999999999
 30
0
 10
21.039205
 20
6.438537
 30
0
  0
LWPOLYLINE
  5
169
100
AcDbEntity
  8
Calque_1
  6
ByLayer
 62
    7
370
   -1
100
AcDbPolyline
 90
    2
 70
    0
 43
0
 10
16.925998
 20
3.711017
 10
16.880975
 20
3.710017000000001
  0
SPLINE
  5
16A
100
AcDbEntity
  8
Calque_1
  6
ByLayer
 62
    7
370
   -1
100
AcDbSpline
210
0
220
0
230
0
 70
    8
 71
    3
 72
    8
 73
    4
 74
    0
 42
1e-07
 43
1e-07
 40
0
 40
0
 40
0
 40
0
 40
1
 40
1
 40
1
 40
1
 10
21.590422
 20
6.510887
 30
0
 10
21.590422
 20
6.017087
 30
0
 10
21.801721
 20
5.770187
 30
0
 10
22.224319
 20
5.770187
 30
0
  0
SPLINE
  5
16B
100
AcDbEntity
  8
Calque_1
  6
ByLayer
 62
    7
370
   -1
100
AcDbSpline
210
0
220
0
230
0
 70
    8
 71
    3
 72
    8
 73
    4
 74
    0
 42
1e-07
 43
1e-07
 40
0
 40
0
 40
0
 40
0
 40
1
 40
1
 40
1
 40
1
 10
22.224319
 20
5.770187
 30
0
 10
22.651511
 20
5.770187
 30
0
 10
22.86510699999999
 20
6.017087
 30
0
 10
22.86510699999999
 20
6.510887
 30
0
  0
LWPOLYLINE
  5
16C
100
AcDbEntity
  8
Calque_1
  6
ByLayer
 62
    7
370
   -1
100
AcDbPolyline
 90
   12
 70
    0
 43
0
 10
21.039205
 20
6.438537
 10
21.039205
 20
8.302327
 10
20.15726
 20
8.302327
 10
20.15726
 20
8.788087000000001
 10
21.066765
 20
8.788087000000001
 10
21.152895
 20
10.004209
 10
21.590422
 20
10.004209
 10
21.590422
 20
8.788087000000001
 10
23.147605
 20
8.788087000000001
 10
23.147605
 20
8.302327
 10
21.590422
 20
8.302327
 10
21.590422
 20
6.510887
  0
SPLINE
  5
16D
100
AcDbEntity
  8
Calque_1
  6
ByLayer
 62
    7
370
   -1
100
AcDbSpline
210
0
220
0
230
0
 70
    8
 71
    3
 72
    8
 73
    4
 74
    0
 42
1e-07
 43
1e-07
 40
0
 40
0
 40
0
 40
0
 40
1
 40
1
 40
1
 40
1
 10
23.402542
 20
6.438537
 30
0
 10
23.402542
 20
6.061869999999999
 30
0
 10
23.300338
 20
5.771334
 30
0
 10
23.095929
 20
5.566927
 30
0
  0
SPLINE
  5
16E
100
AcDbEntity
  8
Calque_1
  6
ByLayer
 62
    7
370
   -1
100
AcDbSpline
210
0
220
0
230
0
 70
    8
 71
    3
 72
    8
 73
    4
 74
    0
 42
1e-07
 43
1e-07
 40
0
 40
0
 40
0
 40
0
 40
1
 40
1
 40
1
 40
1
 10
23.095929
 20
5.566927
 30
0
 10
22.89152
 20
5.36252
 30
0
 10
22.598686
 20
5.260317000000001
 30
0
 10
22.217429
 20
5.260317000000001
 30
0
  0
LWPOLYLINE
  5
16F
100
AcDbEntity
  8
Calque_1
  6
ByLayer
 62
    7
370
   -1
100
AcDbPolyline
 90
    4
 70
    0
 43
0
 10
22.86510699999999
 20
6.510887
 10
22.86510699999999
 20
6.765817
 10
23.402542
 20
6.765817
 10
23.402542
 20
6.438537
  0
LWPOLYLINE
  5
170
100
AcDbEntity
  8
Calque_1
  6
ByLayer
 62
    7
370
   -1
100
AcDbPolyline
 90
    1
 70
    1
 43
0
 10
22.217429
 20
5.260317000000001
  0
SPLINE
  5
171
100
AcDbEntity
  8
Calque_1
  6
ByLayer
 62
    7
370
   -1
100
AcDbSpline
210
0
220
0
230
0
 70
    8
 71
    3
 72
    8
 73
    4
 74
    0
 42
1e-07
 43
1e-07
 40
0
 40
0
 40
0
 40
0
 40
1
 40
1
 40
1
 40
1
 10
25.028624
 20
8.240316999999999
 30
0
 10
25.12968
 20
8.44473
 30
0
 10
25.270929
 20
8.600910000000001
 30
0
 10
25.452371
 20
8.708857
 30
0
  0
SPLINE
  5
172
100
AcDbEntity
  8
Calque_1
  6
ByLayer
 62
    7
370
   -1
100
AcDbSpline
210
0
220
0
230
0
 70
    8
 71
    3
 72
    8
 73
    4
 74
    0
 42
1e-07
 43
1e-07
 40
0
 40
0
 40
0
 40
0
 40
1
 40
1
 40
1
 40
1
 10
25.452371
 20
8.708857
 30
0
 10
25.633813
 20
8.819096999999999
 30
0
 10
25.849705
 20
8.874217
 30
0
 10
26.100049
 20
8.874217
 30
0
  0
SPLINE
  5
173
100
AcDbEntity
  8
Calque_1
  6
ByLayer
 62
    7
370
   -1
100
AcDbSpline
210
0
220
0
230
0
 70
    8
 71
    3
 72
    8
 73
    4
 74
    0
 42
1e-07
 43
1e-07
 40
0
 40
0
 40
0
 40
0
 40
1
 40
1
 40
1
 40
1
 10
26.100049
 20
8.874217
 30
0
 10
26.462933
 20
8.874217
 30
0
 10
26.739689
 20
8.761677000000001
 30
0
 10
26.930317
 20
8.536597
 30
0
  0
SPLINE
  5
174
100
AcDbEntity
  8
Calque_1
  6
ByLayer
 62
    7
370
   -1
100
AcDbSpline
210
0
220
0
230
0
 70
    8
 71
    3
 72
    8
 73
    4
 74
    0
 42
1e-07
 43
1e-07
 40
0
 40
0
 40
0
 40
0
 40
1
 40
1
 40
1
 40
1
 10
26.930317
 20
8.536597
 30
0
 10
27.120945
 20
8.313817
 30
0
 10
27.216259
 20
7.98883
 30
0
 10
27.216259
 20
7.561637000000001
 30
0
  0
LWPOLYLINE
  5
175
100
AcDbEntity
  8
Calque_1
  6
ByLayer
 62
    7
370
   -1
100
AcDbPolyline
 90
    4
 70
    0
 43
0
 10
24.449849
 20
10.355608
 10
25.001064
 20
10.355608
 10
25.001064
 20
8.240316999999999
 10
25.028624
 20
8.240316999999999
  0
SPLINE
  5
176
100
AcDbEntity
  8
Calque_1
  6
ByLayer
 62
    7
370
   -1
100
AcDbSpline
210
0
220
0
230
0
 70
    8
 71
    3
 72
    8
 73
    4
 74
    0
 42
1e-07
 43
1e-07
 40
0
 40
0
 40
0
 40
0
 40
1
 40
1
 40
1
 40
1
 10
26.665044
 20
7.540967
 30
0
 10
26.665044
 20
7.816573999999999
 30
0
 10
26.606478
 20
8.02328
 30
0
 10
26.489344
 20
8.161087
 30
0
  0
SPLINE
  5
177
100
AcDbEntity
  8
Calque_1
  6
ByLayer
 62
    7
370
   -1
100
AcDbSpline
210
0
220
0
230
0
 70
    8
 71
    3
 72
    8
 73
    4
 74
    0
 42
1e-07
 43
1e-07
 40
0
 40
0
 40
0
 40
0
 40
1
 40
1
 40
1
 40
1
 10
26.489344
 20
8.161087
 30
0
 10
26.372212
 20
8.298887000000001
 30
0
 10
26.198809
 20
8.367787
 30
0
 10
25.969135
 20
8.367787
 30
0
  0
SPLINE
  5
178
100
AcDbEntity
  8
Calque_1
  6
ByLayer
 62
    7
370
   -1
100
AcDbSpline
210
0
220
0
230
0
 70
    8
 71
    3
 72
    8
 73
    4
 74
    0
 42
1e-07
 43
1e-07
 40
0
 40
0
 40
0
 40
0
 40
1
 40
1
 40
1
 40
1
 10
25.969135
 20
8.367787
 30
0
 10
25.780803
 20
8.367787
 30
0
 10
25.613142
 20
8.323
 30
0
 10
25.466151
 20
8.233427000000001
 30
0
  0
SPLINE
  5
179
100
AcDbEntity
  8
Calque_1
  6
ByLayer
 62
    7
370
   -1
100
AcDbSpline
210
0
220
0
230
0
 70
    8
 71
    3
 72
    8
 73
    4
 74
    0
 42
1e-07
 43
1e-07
 40
0
 40
0
 40
0
 40
0
 40
1
 40
1
 40
1
 40
1
 10
25.466151
 20
8.233427000000001
 30
0
 10
25.319161
 20
8.146153999999999
 30
0
 10
25.204324
 20
8.024426999999999
 30
0
 10
25.121642
 20
7.868247
 30
0
  0
SPLINE
  5
17A
100
AcDbEntity
  8
Calque_1
  6
ByLayer
 62
    7
370
   -1
100
AcDbSpline
210
0
220
0
230
0
 70
    8
 71
    3
 72
    8
 73
    4
 74
    0
 42
1e-07
 43
1e-07
 40
0
 40
0
 40
0
 40
0
 40
1
 40
1
 40
1
 40
1
 10
25.121642
 20
7.868247
 30
0
 10
25.041256
 20
7.712074000000001
 30
0
 10
25.001063
 20
7.535226999999999
 30
0
 10
25.001063
 20
7.337707
 30
0
  0
LWPOLYLINE
  5
17B
100
AcDbEntity
  8
Calque_1
  6
ByLayer
 62
    7
370
   -1
100
AcDbPolyline
 90
    4
 70
    0
 43
0
 10
27.216259
 20
7.561637000000001
 10
27.216259
 20
5.346437
 10
26.665044
 20
5.346437
 10
26.665044
 20
7.540967
  0
SPLINE
  5
17C
100
AcDbEntity
  8
Calque_1
  6
ByLayer
 62
    7
370
   -1
100
AcDbSpline
210
0
220
0
230
0
 70
    8
 71
    3
 72
    8
 73
    4
 74
    0
 42
1e-07
 43
1e-07
 40
0
 40
0
 40
0
 40
0
 40
1
 40
1
 40
1
 40
1
 10
29.758741
 20
5.260317000000001
 30
0
 10
29.274131
 20
5.260317000000001
 30
0
 10
28.903209
 20
5.415344000000001
 30
0
 10
28.645975
 20
5.725397000000001
 30
0
  0
SPLINE
  5
17D
100
AcDbEntity
  8
Calque_1
  6
ByLayer
 62
    7
370
   -1
100
AcDbSpline
210
0
220
0
230
0
 70
    8
 71
    3
 72
    8
 73
    4
 74
    0
 42
1e-07
 43
1e-07
 40
0
 40
0
 40
0
 40
0
 40
1
 40
1
 40
1
 40
1
 10
28.645975
 20
5.725397000000001
 30
0
 10
28.391038
 20
6.035457000000001
 30
0
 10
28.263569
 20
6.483319999999999
 30
0
 10
28.263569
 20
7.068987
 30
0
  0
SPLINE
  5
17E
100
AcDbEntity
  8
Calque_1
  6
ByLayer
 62
    7
370
   -1
100
AcDbSpline
210
0
220
0
230
0
 70
    8
 71
    3
 72
    8
 73
    4
 74
    0
 42
1e-07
 43
1e-07
 40
0
 40
0
 40
0
 40
0
 40
1
 40
1
 40
1
 40
1
 10
28.263569
 20
7.068987
 30
0
 10
28.263569
 20
7.654654000000001
 30
0
 10
28.391038
 20
8.101367
 30
0
 10
28.645975
 20
8.409127
 30
0
  0
SPLINE
  5
17F
100
AcDbEntity
  8
Calque_1
  6
ByLayer
 62
    7
370
   -1
100
AcDbSpline
210
0
220
0
230
0
 70
    8
 71
    3
 72
    8
 73
    4
 74
    0
 42
1e-07
 43
1e-07
 40
0
 40
0
 40
0
 40
0
 40
1
 40
1
 40
1
 40
1
 10
28.645975
 20
8.409127
 30
0
 10
28.903209
 20
8.719187
 30
0
 10
29.274131
 20
8.874217
 30
0
 10
29.758741
 20
8.874217
 30
0
  0
SPLINE
  5
180
100
AcDbEntity
  8
Calque_1
  6
ByLayer
 62
    7
370
   -1
100
AcDbSpline
210
0
220
0
230
0
 70
    8
 71
    3
 72
    8
 73
    4
 74
    0
 42
1e-07
 43
1e-07
 40
0
 40
0
 40
0
 40
0
 40
1
 40
1
 40
1
 40
1
 10
29.758741
 20
8.874217
 30
0
 10
30.245648
 20
8.874217
 30
0
 10
30.61657
 20
8.719187
 30
0
 10
30.871507
 20
8.409127
 30
0
  0
SPLINE
  5
181
100
AcDbEntity
  8
Calque_1
  6
ByLayer
 62
    7
370
   -1
100
AcDbSpline
210
0
220
0
230
0
 70
    8
 71
    3
 72
    8
 73
    4
 74
    0
 42
1e-07
 43
1e-07
 40
0
 40
0
 40
0
 40
0
 40
1
 40
1
 40
1
 40
1
 10
30.871507
 20
8.409127
 30
0
 10
31.12874100000001
 20
8.101367
 30
0
 10
31.257357
 20
7.654654000000001
 30
0
 10
31.257357
 20
7.068987
 30
0
  0
SPLINE
  5
182
100
AcDbEntity
  8
Calque_1
  6
ByLayer
 62
    7
370
   -1
100
AcDbSpline
210
0
220
0
230
0
 70
    8
 71
    3
 72
    8
 73
    4
 74
    0
 42
1e-07
 43
1e-07
 40
0
 40
0
 40
0
 40
0
 40
1
 40
1
 40
1
 40
1
 10
31.257357
 20
7.068987
 30
0
 10
31.257357
 20
6.483319999999999
 30
0
 10
31.12874100000001
 20
6.035457000000001
 30
0
 10
30.871507
 20
5.725397000000001
 30
0
  0
SPLINE
  5
183
100
AcDbEntity
  8
Calque_1
  6
ByLayer
 62
    7
370
   -1
100
AcDbSpline
210
0
220
0
230
0
 70
    8
 71
    3
 72
    8
 73
    4
 74
    0
 42
1e-07
 43
1e-07
 40
0
 40
0
 40
0
 40
0
 40
1
 40
1
 40
1
 40
1
 10
30.871507
 20
5.725397000000001
 30
0
 10
30.61657
 20
5.415344000000001
 30
0
 10
30.245648
 20
5.260317000000001
 30
0
 10
29.758741
 20
5.260317000000001
 30
0
  0
LWPOLYLINE
  5
184
100
AcDbEntity
  8
Calque_1
  6
ByLayer
 62
    7
370
   -1
100
AcDbPolyline
 90
    4
 70
    0
 43
0
 10
25.001063
 20
7.337707
 10
25.001063
 20
5.346437
 10
24.449848
 20
5.346437
 10
24.449849
 20
10.355608
  0
SPLINE
  5
185
100
AcDbEntity
  8
Calque_1
  6
ByLayer
 62
    7
370
   -1
100
AcDbSpline
210
0
220
0
230
0
 70
    8
 71
    3
 72
    8
 73
    4
 74
    0
 42
1e-07
 43
1e-07
 40
0
 40
0
 40
0
 40
0
 40
1
 40
1
 40
1
 40
1
 10
29.758741
 20
5.770187
 30
0
 10
30.064206
 20
5.770187
 30
0
 10
30.295027
 20
5.87928
 30
0
 10
30.451205
 20
6.097467
 30
0
  0
SPLINE
  5
186
100
AcDbEntity
  8
Calque_1
  6
ByLayer
 62
    7
370
   -1
100
AcDbSpline
210
0
220
0
230
0
 70
    8
 71
    3
 72
    8
 73
    4
 74
    0
 42
1e-07
 43
1e-07
 40
0
 40
0
 40
0
 40
0
 40
1
 40
1
 40
1
 40
1
 10
30.451205
 20
6.097467
 30
0
 10
30.607383
 20
6.317954
 30
0
 10
30.685471
 20
6.641794000000001
 30
0
 10
30.685471
 20
7.068987
 30
0
  0
SPLINE
  5
187
100
AcDbEntity
  8
Calque_1
  6
ByLayer
 62
    7
370
   -1
100
AcDbSpline
210
0
220
0
230
0
 70
    8
 71
    3
 72
    8
 73
    4
 74
    0
 42
1e-07
 43
1e-07
 40
0
 40
0
 40
0
 40
0
 40
1
 40
1
 40
1
 40
1
 10
30.685471
 20
7.068987
 30
0
 10
30.685471
 20
7.496179999999999
 30
0
 10
30.607383
 20
7.81887
 30
0
 10
30.451205
 20
8.037057000000001
 30
0
  0
SPLINE
  5
188
100
AcDbEntity
  8
Calque_1
  6
ByLayer
 62
    7
370
   -1
100
AcDbSpline
210
0
220
0
230
0
 70
    8
 71
    3
 72
    8
 73
    4
 74
    0
 42
1e-07
 43
1e-07
 40
0
 40
0
 40
0
 40
0
 40
1
 40
1
 40
1
 40
1
 10
30.451205
 20
8.037057000000001
 30
0
 10
30.295027
 20
8.257543999999999
 30
0
 10
30.064206
 20
8.367787
 30
0
 10
29.758741
 20
8.367787
 30
0
  0
SPLINE
  5
189
100
AcDbEntity
  8
Calque_1
  6
ByLayer
 62
    7
370
   -1
100
AcDbSpline
210
0
220
0
230
0
 70
    8
 71
    3
 72
    8
 73
    4
 74
    0
 42
1e-07
 43
1e-07
 40
0
 40
0
 40
0
 40
0
 40
1
 40
1
 40
1
 40
1
 10
29.758741
 20
8.367787
 30
0
 10
29.455573
 20
8.367787
 30
0
 10
29.2259
 20
8.257543999999999
 30
0
 10
29.069722
 20
8.037057000000001
 30
0
  0
SPLINE
  5
18A
100
AcDbEntity
  8
Calque_1
  6
ByLayer
 62
    7
370
   -1
100
AcDbSpline
210
0
220
0
230
0
 70
    8
 71
    3
 72
    8
 73
    4
 74
    0
 42
1e-07
 43
1e-07
 40
0
 40
0
 40
0
 40
0
 40
1
 40
1
 40
1
 40
1
 10
29.069722
 20
8.037057000000001
 30
0
 10
28.913544
 20
7.81887
 30
0
 10
28.835455
 20
7.496179999999999
 30
0
 10
28.835455
 20
7.068987
 30
0
  0
SPLINE
  5
18B
100
AcDbEntity
  8
Calque_1
  6
ByLayer
 62
    7
370
   -1
100
AcDbSpline
210
0
220
0
230
0
 70
    8
 71
    3
 72
    8
 73
    4
 74
    0
 42
1e-07
 43
1e-07
 40
0
 40
0
 40
0
 40
0
 40
1
 40
1
 40
1
 40
1
 10
28.835455
 20
7.068987
 30
0
 10
28.835455
 20
6.641794000000001
 30
0
 10
28.913544
 20
6.317954
 30
0
 10
29.069722
 20
6.097467
 30
0
  0
SPLINE
  5
18C
100
AcDbEntity
  8
Calque_1
  6
ByLayer
 62
    7
370
   -1
100
AcDbSpline
210
0
220
0
230
0
 70
    8
 71
    3
 72
    8
 73
    4
 74
    0
 42
1e-07
 43
1e-07
 40
0
 40
0
 40
0
 40
0
 40
1
 40
1
 40
1
 40
1
 10
29.069722
 20
6.097467
 30
0
 10
29.2259
 20
5.87928
 30
0
 10
29.455573
 20
5.770187
 30
0
 10
29.758741
 20
5.770187
 30
0
  0
LWPOLYLINE
  5
18D
100
AcDbEntity
  8
Calque_1
  6
ByLayer
 62
    7
370
   -1
100
AcDbPolyline
 90
    1
 70
    1
 43
0
 10
29.758741
 20
5.260317000000001
  0
LWPOLYLINE
  5
18E
100
AcDbEntity
  8
Calque_1
  6
ByLayer
 62
    7
370
   -1
100
AcDbPolyline
 90
    1
 70
    1
 43
0
 10
29.758741
 20
5.770187
  0
SPLINE
  5
18F
100
AcDbEntity
  8
Calque_1
  6
ByLayer
 62
    7
370
   -1
100
AcDbSpline
210
0
220
0
230
0
 70
    8
 71
    3
 72
    8
 73
    4
 74
    0
 42
1e-07
 43
1e-07
 40
0
 40
0
 40
0
 40
0
 40
1
 40
1
 40
1
 40
1
 10
32.911001
 20
8.202427
 30
0
 10
33.009761
 20
8.420614
 30
0
 10
33.152158
 20
8.587127000000001
 30
0
 10
33.338193
 20
8.701967
 30
0
  0
SPLINE
  5
190
100
AcDbEntity
  8
Calque_1
  6
ByLayer
 62
    7
370
   -1
100
AcDbSpline
210
0
220
0
230
0
 70
    8
 71
    3
 72
    8
 73
    4
 74
    0
 42
1e-07
 43
1e-07
 40
0
 40
0
 40
0
 40
0
 40
1
 40
1
 40
1
 40
1
 10
33.338193
 20
8.701967
 30
0
 10
33.526525
 20
8.816800000000001
 30
0
 10
33.750456
 20
8.874217
 30
0
 10
34.009986
 20
8.874217
 30
0
  0
SPLINE
  5
191
100
AcDbEntity
  8
Calque_1
  6
ByLayer
 62
    7
370
   -1
100
AcDbSpline
210
0
220
0
230
0
 70
    8
 71
    3
 72
    8
 73
    4
 74
    0
 42
1e-07
 43
1e-07
 40
0
 40
0
 40
0
 40
0
 40
1
 40
1
 40
1
 40
1
 10
34.009986
 20
8.874217
 30
0
 10
34.372871
 20
8.874217
 30
0
 10
34.649627
 20
8.761677000000001
 30
0
 10
34.840253
 20
8.536597
 30
0
  0
SPLINE
  5
192
100
AcDbEntity
  8
Calque_1
  6
ByLayer
 62
    7
370
   -1
100
AcDbSpline
210
0
220
0
230
0
 70
    8
 71
    3
 72
    8
 73
    4
 74
    0
 42
1e-07
 43
1e-07
 40
0
 40
0
 40
0
 40
0
 40
1
 40
1
 40
1
 40
1
 10
34.840253
 20
8.536597
 30
0
 10
35.030887
 20
8.313817
 30
0
 10
35.126203
 20
7.98883
 30
0
 10
35.126203
 20
7.561637000000001
 30
0
  0
LWPOLYLINE
  5
193
100
AcDbEntity
  8
Calque_1
  6
ByLayer
 62
    7
370
   -1
100
AcDbPolyline
 90
    4
 70
    0
 43
0
 10
32.359788
 20
8.788087000000001
 10
32.848991
 20
8.788087000000001
 10
32.883441
 20
8.202427
 10
32.911001
 20
8.202427
  0
SPLINE
  5
194
100
AcDbEntity
  8
Calque_1
  6
ByLayer
 62
    7
370
   -1
100
AcDbSpline
210
0
220
0
230
0
 70
    8
 71
    3
 72
    8
 73
    4
 74
    0
 42
1e-07
 43
1e-07
 40
0
 40
0
 40
0
 40
0
 40
1
 40
1
 40
1
 40
1
 10
34.574983
 20
7.540967
 30
0
 10
34.574983
 20
7.816573999999999
 30
0
 10
34.516417
 20
8.02328
 30
0
 10
34.399283
 20
8.161087
 30
0
  0
SPLINE
  5
195
100
AcDbEntity
  8
Calque_1
  6
ByLayer
 62
    7
370
   -1
100
AcDbSpline
210
0
220
0
230
0
 70
    8
 71
    3
 72
    8
 73
    4
 74
    0
 42
1e-07
 43
1e-07
 40
0
 40
0
 40
0
 40
0
 40
1
 40
1
 40
1
 40
1
 10
34.399283
 20
8.161087
 30
0
 10
34.28215
 20
8.298887000000001
 30
0
 10
34.108747
 20
8.367787
 30
0
 10
33.879073
 20
8.367787
 30
0
  0
SPLINE
  5
196
100
AcDbEntity
  8
Calque_1
  6
ByLayer
 62
    7
370
   -1
100
AcDbSpline
210
0
220
0
230
0
 70
    8
 71
    3
 72
    8
 73
    4
 74
    0
 42
1e-07
 43
1e-07
 40
0
 40
0
 40
0
 40
0
 40
1
 40
1
 40
1
 40
1
 10
33.879073
 20
8.367787
 30
0
 10
33.690741
 20
8.367787
 30
0
 10
33.52308
 20
8.323
 30
0
 10
33.376089
 20
8.233427000000001
 30
0
  0
SPLINE
  5
197
100
AcDbEntity
  8
Calque_1
  6
ByLayer
 62
    7
370
   -1
100
AcDbSpline
210
0
220
0
230
0
 70
    8
 71
    3
 72
    8
 73
    4
 74
    0
 42
1e-07
 43
1e-07
 40
0
 40
0
 40
0
 40
0
 40
1
 40
1
 40
1
 40
1
 10
33.376089
 20
8.233427000000001
 30
0
 10
33.229099
 20
8.146153999999999
 30
0
 10
33.114262
 20
8.024426999999999
 30
0
 10
33.031579
 20
7.868247
 30
0
  0
SPLINE
  5
198
100
AcDbEntity
  8
Calque_1
  6
ByLayer
 62
    7
370
   -1
100
AcDbSpline
210
0
220
0
230
0
 70
    8
 71
    3
 72
    8
 73
    4
 74
    0
 42
1e-07
 43
1e-07
 40
0
 40
0
 40
0
 40
0
 40
1
 40
1
 40
1
 40
1
 10
33.031579
 20
7.868247
 30
0
 10
32.951194
 20
7.712074000000001
 30
0
 10
32.911001
 20
7.535226999999999
 30
0
 10
32.911001
 20
7.337707
 30
0
  0
LWPOLYLINE
  5
199
100
AcDbEntity
  8
Calque_1
  6
ByLayer
 62
    7
370
   -1
100
AcDbPolyline
 90
    4
 70
    0
 43
0
 10
35.126203
 20
7.561637000000001
 10
35.126203
 20
5.346437
 10
34.574983
 20
5.346437
 10
34.574983
 20
7.540967
  0
LWPOLYLINE
  5
19A
100
AcDbEntity
  8
Calque_1
  6
ByLayer
 62
    7
370
   -1
100
AcDbPolyline
 90
    4
 70
    0
 43
0
 10
32.911001
 20
7.337707
 10
32.911001
 20
5.346437
 10
32.359786
 20
5.346437
 10
32.359788
 20
8.788087000000001
  0
SPLINE
  5
19B
100
AcDbEntity
  8
Calque_1
  6
ByLayer
 62
    7
370
   -1
100
AcDbSpline
210
0
220
0
230
0
 70
    8
 71
    3
 72
    8
 73
    4
 74
    0
 42
1e-07
 43
1e-07
 40
0
 40
0
 40
0
 40
0
 40
1
 40
1
 40
1
 40
1
 10
40.820943
 20
6.593567
 30
0
 10
40.820943
 20
6.322554
 30
0
 10
40.876063
 20
6.116997
 30
0
 10
40.986303
 20
5.976897000000001
 30
0
  0
SPLINE
  5
19C
100
AcDbEntity
  8
Calque_1
  6
ByLayer
 62
    7
370
   -1
100
AcDbSpline
210
0
220
0
230
0
 70
    8
 71
    3
 72
    8
 73
    4
 74
    0
 42
1e-07
 43
1e-07
 40
0
 40
0
 40
0
 40
0
 40
1
 40
1
 40
1
 40
1
 10
40.986303
 20
5.976897000000001
 30
0
 10
41.098843
 20
5.839089999999999
 30
0
 10
41.261913
 20
5.770187
 30
0
 10
41.475513
 20
5.770187
 30
0
  0
SPLINE
  5
19D
100
AcDbEntity
  8
Calque_1
  6
ByLayer
 62
    7
370
   -1
100
AcDbSpline
210
0
220
0
230
0
 70
    8
 71
    3
 72
    8
 73
    4
 74
    0
 42
1e-07
 43
1e-07
 40
0
 40
0
 40
0
 40
0
 40
1
 40
1
 40
1
 40
1
 10
41.475513
 20
5.770187
 30
0
 10
41.647767
 20
5.770187
 30
0
 10
41.800497
 20
5.813824
 30
0
 10
41.933703
 20
5.901097
 30
0
  0
SPLINE
  5
19E
100
AcDbEntity
  8
Calque_1
  6
ByLayer
 62
    7
370
   -1
100
AcDbSpline
210
0
220
0
230
0
 70
    8
 71
    3
 72
    8
 73
    4
 74
    0
 42
1e-07
 43
1e-07
 40
0
 40
0
 40
0
 40
0
 40
1
 40
1
 40
1
 40
1
 10
41.933703
 20
5.901097
 30
0
 10
42.066917
 20
5.988377
 30
0
 10
42.17027
 20
6.110104
 30
0
 10
42.243763
 20
6.266276999999999
 30
0
  0
SPLINE
  5
19F
100
AcDbEntity
  8
Calque_1
  6
ByLayer
 62
    7
370
   -1
100
AcDbSpline
210
0
220
0
230
0
 70
    8
 71
    3
 72
    8
 73
    4
 74
    0
 42
1e-07
 43
1e-07
 40
0
 40
0
 40
0
 40
0
 40
1
 40
1
 40
1
 40
1
 10
42.243763
 20
6.266276999999999
 30
0
 10
42.319557
 20
6.422457
 30
0
 10
42.357453
 20
6.600453999999999
 30
0
 10
42.357453
 20
6.800267
 30
0
  0
LWPOLYLINE
  5
1A0
100
AcDbEntity
  8
Calque_1
  6
ByLayer
 62
    7
370
   -1
100
AcDbPolyline
 90
    3
 70
    0
 43
0
 10
40.269723
 20
8.788087000000001
 10
40.820943
 20
8.788087000000001
 10
40.820943
 20
6.593567
  0
SPLINE
  5
1A1
100
AcDbEntity
  8
Calque_1
  6
ByLayer
 62
    7
370
   -1
100
AcDbSpline
210
0
220
0
230
0
 70
    8
 71
    3
 72
    8
 73
    4
 74
    0
 42
1e-07
 43
1e-07
 40
0
 40
0
 40
0
 40
0
 40
1
 40
1
 40
1
 40
1
 10
42.908673
 20
6.038907
 30
0
 10
42.908673
 20
5.942440000000001
 30
0
 10
42.925907
 20
5.873536999999999
 30
0
 10
42.960373
 20
5.832197000000001
 30
0
  0
SPLINE
  5
1A2
100
AcDbEntity
  8
Calque_1
  6
ByLayer
 62
    7
370
   -1
100
AcDbSpline
210
0
220
0
230
0
 70
    8
 71
    3
 72
    8
 73
    4
 74
    0
 42
1e-07
 43
1e-07
 40
0
 40
0
 40
0
 40
0
 40
1
 40
1
 40
1
 40
1
 10
42.960373
 20
5.832197000000001
 30
0
 10
42.997107
 20
5.790863999999999
 30
0
 10
43.055673
 20
5.770197
 30
0
 10
43.136073
 20
5.770197
 30
0
  0
SPLINE
  5
1A3
100
AcDbEntity
  8
Calque_1
  6
ByLayer
 62
    7
370
   -1
100
AcDbSpline
210
0
220
0
230
0
 70
    8
 71
    3
 72
    8
 73
    4
 74
    0
 42
1e-07
 43
1e-07
 40
0
 40
0
 40
0
 40
0
 40
1
 40
1
 40
1
 40
1
 10
43.136073
 20
5.770197
 30
0
 10
43.209573
 20
5.770197
 30
0
 10
43.277327
 20
5.788564000000001
 30
0
 10
43.339333
 20
5.825296999999999
 30
0
  0
LWPOLYLINE
  5
1A4
100
AcDbEntity
  8
Calque_1
  6
ByLayer
 62
    7
370
   -1
100
AcDbPolyline
 90
    4
 70
    0
 43
0
 10
42.357453
 20
6.800267
 10
42.357453
 20
8.788087000000001
 10
42.908673
 20
8.788087000000001
 10
42.908673
 20
6.038907
  0
SPLINE
  5
1A5
100
AcDbEntity
  8
Calque_1
  6
ByLayer
 62
    7
370
   -1
100
AcDbSpline
210
0
220
0
230
0
 70
    8
 71
    3
 72
    8
 73
    4
 74
    0
 42
1e-07
 43
1e-07
 40
0
 40
0
 40
0
 40
0
 40
1
 40
1
 40
1
 40
1
 10
43.339333
 20
5.346427
 30
0
 10
43.229093
 20
5.289027000000001
 30
0
 10
43.109663
 20
5.260327
 30
0
 10
42.981043
 20
5.260327
 30
0
  0
SPLINE
  5
1A6
100
AcDbEntity
  8
Calque_1
  6
ByLayer
 62
    7
370
   -1
100
AcDbSpline
210
0
220
0
230
0
 70
    8
 71
    3
 72
    8
 73
    4
 74
    0
 42
1e-07
 43
1e-07
 40
0
 40
0
 40
0
 40
0
 40
1
 40
1
 40
1
 40
1
 10
42.981043
 20
5.260327
 30
0
 10
42.785823
 20
5.260327
 30
0
 10
42.637687
 20
5.312000000000001
 30
0
 10
42.536633
 20
5.415347000000001
 30
0
  0
SPLINE
  5
1A7
100
AcDbEntity
  8
Calque_1
  6
ByLayer
 62
    7
370
   -1
100
AcDbSpline
210
0
220
0
230
0
 70
    8
 71
    3
 72
    8
 73
    4
 74
    0
 42
1e-07
 43
1e-07
 40
0
 40
0
 40
0
 40
0
 40
1
 40
1
 40
1
 40
1
 10
42.536633
 20
5.415347000000001
 30
0
 10
42.437873
 20
5.518699999999999
 30
0
 10
42.388493
 20
5.672584000000001
 30
0
 10
42.388493
 20
5.876996999999999
 30
0
  0
LWPOLYLINE
  5
1A8
100
AcDbEntity
  8
Calque_1
  6
ByLayer
 62
    7
370
   -1
100
AcDbPolyline
 90
    2
 70
    0
 43
0
 10
43.339333
 20
5.825296999999999
 10
43.339333
 20
5.346427
  0
SPLINE
  5
1A9
100
AcDbEntity
  8
Calque_1
  6
ByLayer
 62
    7
370
   -1
100
AcDbSpline
210
0
220
0
230
0
 70
    8
 71
    3
 72
    8
 73
    4
 74
    0
 42
1e-07
 43
1e-07
 40
0
 40
0
 40
0
 40
0
 40
1
 40
1
 40
1
 40
1
 10
42.357493
 20
5.932096999999999
 30
0
 10
42.265627
 20
5.718503999999999
 30
0
 10
42.13701
 20
5.553139999999999
 30
0
 10
41.971643
 20
5.436007
 30
0
  0
SPLINE
  5
1AA
100
AcDbEntity
  8
Calque_1
  6
ByLayer
 62
    7
370
   -1
100
AcDbSpline
210
0
220
0
230
0
 70
    8
 71
    3
 72
    8
 73
    4
 74
    0
 42
1e-07
 43
1e-07
 40
0
 40
0
 40
0
 40
0
 40
1
 40
1
 40
1
 40
1
 10
41.971643
 20
5.436007
 30
0
 10
41.806277
 20
5.318874000000001
 30
0
 10
41.61335
 20
5.260307000000001
 30
0
 10
41.392863
 20
5.260307000000001
 30
0
  0
SPLINE
  5
1AB
100
AcDbEntity
  8
Calque_1
  6
ByLayer
 62
    7
370
   -1
100
AcDbSpline
210
0
220
0
230
0
 70
    8
 71
    3
 72
    8
 73
    4
 74
    0
 42
1e-07
 43
1e-07
 40
0
 40
0
 40
0
 40
0
 40
1
 40
1
 40
1
 40
1
 10
41.392863
 20
5.260307000000001
 30
0
 10
41.114963
 20
5.260307000000001
 30
0
 10
40.910557
 20
5.356767
 30
0
 10
40.779643
 20
5.549686999999999
 30
0
  0
LWPOLYLINE
  5
1AC
100
AcDbEntity
  8
Calque_1
  6
ByLayer
 62
    7
370
   -1
100
AcDbPolyline
 90
    3
 70
    0
 43
0
 10
42.388493
 20
5.876996999999999
 10
42.388493
 20
5.932096999999999
 10
42.357493
 20
5.932096999999999
  0
SPLINE
  5
1AD
100
AcDbEntity
  8
Calque_1
  6
ByLayer
 62
    7
370
   -1
100
AcDbSpline
210
0
220
0
230
0
 70
    8
 71
    3
 72
    8
 73
    4
 74
    0
 42
1e-07
 43
1e-07
 40
0
 40
0
 40
0
 40
0
 40
1
 40
1
 40
1
 40
1
 10
40.748643
 20
5.549686999999999
 30
0
 10
40.757843
 20
4.918087
 30
0
 10
40.781977
 20
4.469077
 30
0
 10
40.821043
 20
4.202657
 30
0
  0
LWPOLYLINE
  5
1AE
100
AcDbEntity
  8
Calque_1
  6
ByLayer
 62
    7
370
   -1
100
AcDbPolyline
 90
    2
 70
    0
 43
0
 10
40.779643
 20
5.549686999999999
 10
40.748643
 20
5.549686999999999
  0
SPLINE
  5
1AF
100
AcDbEntity
  8
Calque_1
  6
ByLayer
 62
    7
370
   -1
100
AcDbSpline
210
0
220
0
230
0
 70
    8
 71
    3
 72
    8
 73
    4
 74
    0
 42
1e-07
 43
1e-07
 40
0
 40
0
 40
0
 40
0
 40
1
 40
1
 40
1
 40
1
 10
45.664743
 20
5.260317000000001
 30
0
 10
45.29497
 20
5.260317000000001
 30
0
 10
44.991803
 20
5.346444
 30
0
 10
44.755243
 20
5.518697
 30
0
  0
SPLINE
  5
1B0
100
AcDbEntity
  8
Calque_1
  6
ByLayer
 62
    7
370
   -1
100
AcDbSpline
210
0
220
0
230
0
 70
    8
 71
    3
 72
    8
 73
    4
 74
    0
 42
1e-07
 43
1e-07
 40
0
 40
0
 40
0
 40
0
 40
1
 40
1
 40
1
 40
1
 10
44.755243
 20
5.518697
 30
0
 10
44.520977
 20
5.690950000000001
 30
0
 10
44.346423
 20
5.953924000000001
 30
0
 10
44.231583
 20
6.307617
 30
0
  0
SPLINE
  5
1B1
100
AcDbEntity
  8
Calque_1
  6
ByLayer
 62
    7
370
   -1
100
AcDbSpline
210
0
220
0
230
0
 70
    8
 71
    3
 72
    8
 73
    4
 74
    0
 42
1e-07
 43
1e-07
 40
0
 40
0
 40
0
 40
0
 40
1
 40
1
 40
1
 40
1
 10
44.231583
 20
6.307617
 30
0
 10
44.119043
 20
6.66361
 30
0
 10
44.062773
 20
7.119513999999999
 30
0
 10
44.062773
 20
7.675326999999999
 30
0
  0
SPLINE
  5
1B2
100
AcDbEntity
  8
Calque_1
  6
ByLayer
 62
    7
370
   -1
100
AcDbSpline
210
0
220
0
230
0
 70
    8
 71
    3
 72
    8
 73
    4
 74
    0
 42
1e-07
 43
1e-07
 40
0
 40
0
 40
0
 40
0
 40
1
 40
1
 40
1
 40
1
 10
44.062773
 20
7.675326999999999
 30
0
 10
44.062773
 20
8.231134000000001
 30
0
 10
44.119043
 20
8.685886999999999
 30
0
 10
44.231583
 20
9.039586999999999
 30
0
  0
SPLINE
  5
1B3
100
AcDbEntity
  8
Calque_1
  6
ByLayer
 62
    7
370
   -1
100
AcDbSpline
210
0
220
0
230
0
 70
    8
 71
    3
 72
    8
 73
    4
 74
    0
 42
1e-07
 43
1e-07
 40
0
 40
0
 40
0
 40
0
 40
1
 40
1
 40
1
 40
1
 10
44.231583
 20
9.039586999999999
 30
0
 10
44.346423
 20
9.393280000000001
 30
0
 10
44.520977
 20
9.656254000000001
 30
0
 10
44.755243
 20
9.828509
 30
0
  0
SPLINE
  5
1B4
100
AcDbEntity
  8
Calque_1
  6
ByLayer
 62
    7
370
   -1
100
AcDbSpline
210
0
220
0
230
0
 70
    8
 71
    3
 72
    8
 73
    4
 74
    0
 42
1e-07
 43
1e-07
 40
0
 40
0
 40
0
 40
0
 40
1
 40
1
 40
1
 40
1
 10
44.755243
 20
9.828509
 30
0
 10
44.991803
 20
10.000764
 30
0
 10
45.29497
 20
10.086891
 30
0
 10
45.664743
 20
10.086891
 30
0
  0
SPLINE
  5
1B5
100
AcDbEntity
  8
Calque_1
  6
ByLayer
 62
    7
370
   -1
100
AcDbSpline
210
0
220
0
230
0
 70
    8
 71
    3
 72
    8
 73
    4
 74
    0
 42
1e-07
 43
1e-07
 40
0
 40
0
 40
0
 40
0
 40
1
 40
1
 40
1
 40
1
 10
45.664743
 20
10.086891
 30
0
 10
46.119497
 20
10.086891
 30
0
 10
46.473193
 20
9.955978000000002
 30
0
 10
46.725833
 20
9.69415
 30
0
  0
SPLINE
  5
1B6
100
AcDbEntity
  8
Calque_1
  6
ByLayer
 62
    7
370
   -1
100
AcDbSpline
210
0
220
0
230
0
 70
    8
 71
    3
 72
    8
 73
    4
 74
    0
 42
1e-07
 43
1e-07
 40
0
 40
0
 40
0
 40
0
 40
1
 40
1
 40
1
 40
1
 10
46.725833
 20
9.69415
 30
0
 10
46.980773
 20
9.432321
 30
0
 10
47.14499
 20
9.029244
 30
0
 10
47.218483
 20
8.484916999999999
 30
0
  0
LWPOLYLINE
  5
1B7
100
AcDbEntity
  8
Calque_1
  6
ByLayer
 62
    7
370
   -1
100
AcDbPolyline
 90
    4
 70
    0
 43
0
 10
40.821043
 20
4.202657
 10
40.821043
 20
3.792687000000001
 10
40.269823
 20
3.792687000000001
 10
40.269723
 20
8.788087000000001
  0
SPLINE
  5
1B8
100
AcDbEntity
  8
Calque_1
  6
ByLayer
 62
    7
370
   -1
100
AcDbSpline
210
0
220
0
230
0
 70
    8
 71
    3
 72
    8
 73
    4
 74
    0
 42
1e-07
 43
1e-07
 40
0
 40
0
 40
0
 40
0
 40
1
 40
1
 40
1
 40
1
 10
46.625923
 20
8.484916999999999
 30
0
 10
46.568523
 20
8.847804
 30
0
 10
46.46058
 20
9.11767
 30
0
 10
46.302093
 20
9.294517000000001
 30
0
  0
SPLINE
  5
1B9
100
AcDbEntity
  8
Calque_1
  6
ByLayer
 62
    7
370
   -1
100
AcDbSpline
210
0
220
0
230
0
 70
    8
 71
    3
 72
    8
 73
    4
 74
    0
 42
1e-07
 43
1e-07
 40
0
 40
0
 40
0
 40
0
 40
1
 40
1
 40
1
 40
1
 10
46.302093
 20
9.294517000000001
 30
0
 10
46.145913
 20
9.471363999999999
 30
0
 10
45.933463
 20
9.559787
 30
0
 10
45.664743
 20
9.559787
 30
0
  0
SPLINE
  5
1BA
100
AcDbEntity
  8
Calque_1
  6
ByLayer
 62
    7
370
   -1
100
AcDbSpline
210
0
220
0
230
0
 70
    8
 71
    3
 72
    8
 73
    4
 74
    0
 42
1e-07
 43
1e-07
 40
0
 40
0
 40
0
 40
0
 40
1
 40
1
 40
1
 40
1
 10
45.664743
 20
9.559787
 30
0
 10
45.315643
 20
9.559787
 30
0
 10
45.05841
 20
9.408204
 30
0
 10
44.893043
 20
9.105036999999999
 30
0
  0
SPLINE
  5
1BB
100
AcDbEntity
  8
Calque_1
  6
ByLayer
 62
    7
370
   -1
100
AcDbSpline
210
0
220
0
230
0
 70
    8
 71
    3
 72
    8
 73
    4
 74
    0
 42
1e-07
 43
1e-07
 40
0
 40
0
 40
0
 40
0
 40
1
 40
1
 40
1
 40
1
 10
44.893043
 20
9.105036999999999
 30
0
 10
44.729977
 20
8.801869999999999
 30
0
 10
44.648443
 20
8.3253
 30
0
 10
44.648443
 20
7.675326999999999
 30
0
  0
SPLINE
  5
1BC
100
AcDbEntity
  8
Calque_1
  6
ByLayer
 62
    7
370
   -1
100
AcDbSpline
210
0
220
0
230
0
 70
    8
 71
    3
 72
    8
 73
    4
 74
    0
 42
1e-07
 43
1e-07
 40
0
 40
0
 40
0
 40
0
 40
1
 40
1
 40
1
 40
1
 10
44.648443
 20
7.675326999999999
 30
0
 10
44.648443
 20
7.025354
 30
0
 10
44.729977
 20
6.548780000000001
 30
0
 10
44.893043
 20
6.245607
 30
0
  0
SPLINE
  5
1BD
100
AcDbEntity
  8
Calque_1
  6
ByLayer
 62
    7
370
   -1
100
AcDbSpline
210
0
220
0
230
0
 70
    8
 71
    3
 72
    8
 73
    4
 74
    0
 42
1e-07
 43
1e-07
 40
0
 40
0
 40
0
 40
0
 40
1
 40
1
 40
1
 40
1
 10
44.893043
 20
6.245607
 30
0
 10
45.05841
 20
5.942440000000001
 30
0
 10
45.315643
 20
5.790856999999999
 30
0
 10
45.664743
 20
5.790856999999999
 30
0
  0
SPLINE
  5
1BE
100
AcDbEntity
  8
Calque_1
  6
ByLayer
 62
    7
370
   -1
100
AcDbSpline
210
0
220
0
230
0
 70
    8
 71
    3
 72
    8
 73
    4
 74
    0
 42
1e-07
 43
1e-07
 40
0
 40
0
 40
0
 40
0
 40
1
 40
1
 40
1
 40
1
 10
45.664743
 20
5.790856999999999
 30
0
 10
45.933463
 20
5.790856999999999
 30
0
 10
46.145913
 20
5.878133999999999
 30
0
 10
46.302093
 20
6.052686999999999
 30
0
  0
SPLINE
  5
1BF
100
AcDbEntity
  8
Calque_1
  6
ByLayer
 62
    7
370
   -1
100
AcDbSpline
210
0
220
0
230
0
 70
    8
 71
    3
 72
    8
 73
    4
 74
    0
 42
1e-07
 43
1e-07
 40
0
 40
0
 40
0
 40
0
 40
1
 40
1
 40
1
 40
1
 10
46.302093
 20
6.052686999999999
 30
0
 10
46.460567
 20
6.229534000000001
 30
0
 10
46.56851
 20
6.499397
 30
0
 10
46.625923
 20
6.862276999999999
 30
0
  0
LWPOLYLINE
  5
1C0
100
AcDbEntity
  8
Calque_1
  6
ByLayer
 62
    7
370
   -1
100
AcDbPolyline
 90
    2
 70
    0
 43
0
 10
47.218483
 20
8.484916999999999
 10
46.625923
 20
8.484916999999999
  0
SPLINE
  5
1C1
100
AcDbEntity
  8
Calque_1
  6
ByLayer
 62
    7
370
   -1
100
AcDbSpline
210
0
220
0
230
0
 70
    8
 71
    3
 72
    8
 73
    4
 74
    0
 42
1e-07
 43
1e-07
 40
0
 40
0
 40
0
 40
0
 40
1
 40
1
 40
1
 40
1
 10
47.218483
 20
6.862276999999999
 30
0
 10
47.14499
 20
6.317957
 30
0
 10
46.980773
 20
5.914884000000001
 30
0
 10
46.725833
 20
5.653057
 30
0
  0
SPLINE
  5
1C2
100
AcDbEntity
  8
Calque_1
  6
ByLayer
 62
    7
370
   -1
100
AcDbSpline
210
0
220
0
230
0
 70
    8
 71
    3
 72
    8
 73
    4
 74
    0
 42
1e-07
 43
1e-07
 40
0
 40
0
 40
0
 40
0
 40
1
 40
1
 40
1
 40
1
 10
46.725833
 20
5.653057
 30
0
 10
46.473193
 20
5.39123
 30
0
 10
46.119497
 20
5.260317000000001
 30
0
 10
45.664743
 20
5.260317000000001
 30
0
  0
LWPOLYLINE
  5
1C3
100
AcDbEntity
  8
Calque_1
  6
ByLayer
 62
    7
370
   -1
100
AcDbPolyline
 90
    2
 70
    0
 43
0
 10
46.625923
 20
6.862276999999999
 10
47.218483
 20
6.862276999999999
  0
SPLINE
  5
1C4
100
AcDbEntity
  8
Calque_1
  6
ByLayer
 62
    7
370
   -1
100
AcDbSpline
210
0
220
0
230
0
 70
    8
 71
    3
 72
    8
 73
    4
 74
    0
 42
1e-07
 43
1e-07
 40
0
 40
0
 40
0
 40
0
 40
1
 40
1
 40
1
 40
1
 10
10.941716
 20
7.032814999999999
 30
0
 10
10.941716
 20
5.810061000000001
 30
0
 10
10.455979
 20
4.637388
 30
0
 10
9.591362000000004
 20
3.77277
 30
0
  0
SPLINE
  5
1C5
100
AcDbEntity
  8
Calque_1
  6
ByLayer
 62
    7
370
   -1
100
AcDbSpline
210
0
220
0
230
0
 70
    8
 71
    3
 72
    8
 73
    4
 74
    0
 42
1e-07
 43
1e-07
 40
0
 40
0
 40
0
 40
0
 40
1
 40
1
 40
1
 40
1
 10
9.591362000000004
 20
3.77277
 30
0
 10
8.726743999999997
 20
2.908151999999999
 30
0
 10
7.554070999999993
 20
2.422415000000001
 30
0
 10
6.331316999999999
 20
2.422415000000001
 30
0
  0
SPLINE
  5
1C6
100
AcDbEntity
  8
Calque_1
  6
ByLayer
 62
    7
370
   -1
100
AcDbSpline
210
0
220
0
230
0
 70
    8
 71
    3
 72
    8
 73
    4
 74
    0
 42
1e-07
 43
1e-07
 40
0
 40
0
 40
0
 40
0
 40
1
 40
1
 40
1
 40
1
 10
6.331316999999999
 20
2.422415000000001
 30
0
 10
5.108563000000004
 20
2.422415000000001
 30
0
 10
3.935889000000003
 20
2.908151999999999
 30
0
 10
3.071271999999993
 20
3.77277
 30
0
  0
SPLINE
  5
1C7
100
AcDbEntity
  8
Calque_1
  6
ByLayer
 62
    7
370
   -1
100
AcDbSpline
210
0
220
0
230
0
 70
    8
 71
    3
 72
    8
 73
    4
 74
    0
 42
1e-07
 43
1e-07
 40
0
 40
0
 40
0
 40
0
 40
1
 40
1
 40
1
 40
1
 10
3.071271999999993
 20
3.77277
 30
0
 10
2.206654
 20
4.637388
 30
0
 10
1.720917
 20
5.810061000000001
 30
0
 10
1.720917
 20
7.032814999999999
 30
0
  0
SPLINE
  5
1C8
100
AcDbEntity
  8
Calque_1
  6
ByLayer
 62
    7
370
   -1
100
AcDbSpline
210
0
220
0
230
0
 70
    8
 71
    3
 72
    8
 73
    4
 74
    0
 42
1e-07
 43
1e-07
 40
0
 40
0
 40
0
 40
0
 40
1
 40
1
 40
1
 40
1
 10
1.720917
 20
7.032814999999999
 30
0
 10
1.720917999999998
 20
9.579067999999999
 30
0
 10
3.785064000000006
 20
11.643214
 30
0
 10
6.331316999999999
 20
11.643213
 30
0
  0
SPLINE
  5
1C9
100
AcDbEntity
  8
Calque_1
  6
ByLayer
 62
    7
370
   -1
100
AcDbSpline
210
0
220
0
230
0
 70
    8
 71
    3
 72
    8
 73
    4
 74
    0
 42
1e-07
 43
1e-07
 40
0
 40
0
 40
0
 40
0
 40
1
 40
1
 40
1
 40
1
 10
6.331316999999999
 20
11.643213
 30
0
 10
8.877570000000006
 20
11.643213
 30
0
 10
10.941715
 20
9.579067999999999
 30
0
 10
10.941716
 20
7.032814999999999
 30
0
  0
LWPOLYLINE
  5
1CA
100
AcDbEntity
  8
Calque_1
  6
ByLayer
 62
    7
370
   -1
100
AcDbPolyline
 90
    1
 70
    1
 43
0
 10
45.664743
 20
5.260317000000001
  0
LWPOLYLINE
  5
1CB
100
AcDbEntity
  8
Calque_1
  6
ByLayer
 62
    7
370
   -1
100
AcDbPolyline
 90
    1
 70
    1
 43
0
 10
10.941716
 20
7.032814999999999
  0
LWPOLYLINE
  5
1CC
100
AcDbEntity
  8
Calque_1
  6
ByLayer
 62
    7
370
   -1
100
AcDbPolyline
 90
   13
 70
    1
 43
0
 10
3.632329999999996
 20
10.446858
 10
4.150817000000004
 20
10.446858
 10
4.807107000000002
 20
8.69675
 10
5.466842999999997
 20
10.446858
 10
5.985330000000005
 20
10.446858
 10
5.985330000000005
 20
7.875091000000001
 10
5.645988000000003
 20
7.875091000000001
 10
5.645988000000003
 20
10.133355
 10
4.982806999999994
 20
8.369465999999999
 10
4.633129999999994
 20
8.369465999999999
 10
3.969949
 20
10.133355
 10
3.969949
 20
7.875091000000001
 10
3.632329999999996
 20
7.875091000000001
  0
LWPOLYLINE
  5
1CD
100
AcDbEntity
  8
Calque_1
  6
ByLayer
 62
    7
370
   -1
100
AcDbPolyline
 90
   12
 70
    1
 43
0
 10
5.644689
 20
7.877101
 10
7.270774000000003
 20
7.877101
 10
7.270774000000003
 20
7.584271000000001
 10
5.992643999999999
 20
7.584271000000001
 10
5.992643999999999
 20
6.822901
 10
7.217375000000004
 20
6.822901
 10
7.217375000000004
 20
6.530071
 10
5.992643999999999
 20
6.530071
 10
5.992643999999999
 20
5.598171000000001
 10
7.301779999999994
 20
5.598171000000001
 10
7.301779999999994
 20
5.305341
 10
5.644689
 20
5.305341
  0
SPLINE
  5
1CE
100
AcDbEntity
  8
Calque_1
  6
ByLayer
 62
    7
370
   -1
100
AcDbSpline
210
0
220
0
230
0
 70
    8
 71
    3
 72
    8
 73
    4
 74
    0
 42
1e-07
 43
1e-07
 40
0
 40
0
 40
0
 40
0
 40
1
 40
1
 40
1
 40
1
 10
8.085773000000003
 20
4.346071
 30
0
 10
8.247692000000001
 20
4.346071
 30
0
 10
8.372863999999993
 20
4.387986999999999
 30
0
 10
8.461287999999996
 20
4.471821
 30
0
  0
SPLINE
  5
1CF
100
AcDbEntity
  8
Calque_1
  6
ByLayer
 62
    7
370
   -1
100
AcDbSpline
210
0
220
0
230
0
 70
    8
 71
    3
 72
    8
 73
    4
 74
    0
 42
1e-07
 43
1e-07
 40
0
 40
0
 40
0
 40
0
 40
1
 40
1
 40
1
 40
1
 10
8.461287999999996
 20
4.471821
 30
0
 10
8.549712
 20
4.555647
 30
0
 10
8.593924000000001
 20
4.675077
 30
0
 10
8.593924000000001
 20
4.830110999999999
 30
0
  0
SPLINE
  5
1D0
100
AcDbEntity
  8
Calque_1
  6
ByLayer
 62
    7
370
   -1
100
AcDbSpline
210
0
220
0
230
0
 70
    8
 71
    3
 72
    8
 73
    4
 74
    0
 42
1e-07
 43
1e-07
 40
0
 40
0
 40
0
 40
0
 40
1
 40
1
 40
1
 40
1
 10
8.593924000000001
 20
4.830110999999999
 30
0
 10
8.593924000000001
 20
4.983991
 30
0
 10
8.549712
 20
5.102844000000001
 30
0
 10
8.461287999999996
 20
5.186671
 30
0
  0
SPLINE
  5
1D1
100
AcDbEntity
  8
Calque_1
  6
ByLayer
 62
    7
370
   -1
100
AcDbSpline
210
0
220
0
230
0
 70
    8
 71
    3
 72
    8
 73
    4
 74
    0
 42
1e-07
 43
1e-07
 40
0
 40
0
 40
0
 40
0
 40
1
 40
1
 40
1
 40
1
 10
8.461287999999996
 20
5.186671
 30
0
 10
8.372863999999993
 20
5.270503999999999
 30
0
 10
8.247692000000001
 20
5.312421000000001
 30
0
 10
8.085773000000003
 20
5.312421000000001
 30
0
  0
LWPOLYLINE
  5
1D2
100
AcDbEntity
  8
Calque_1
  6
ByLayer
 62
    7
370
   -1
100
AcDbPolyline
 90
    3
 70
    0
 43
0
 10
7.648245000000003
 20
5.312421000000001
 10
7.648245000000003
 20
4.346071
 10
8.085773000000003
 20
4.346071
  0
LWPOLYLINE
  5
1D3
100
AcDbEntity
  8
Calque_1
  6
ByLayer
 62
    7
370
   -1
100
AcDbPolyline
 90
    2
 70
    0
 43
0
 10
8.085773000000003
 20
5.312421000000001
 10
7.648245000000003
 20
5.312421000000001
  0
SPLINE
  5
1D4
100
AcDbEntity
  8
Calque_1
  6
ByLayer
 62
    7
370
   -1
100
AcDbSpline
210
0
220
0
230
0
 70
    8
 71
    3
 72
    8
 73
    4
 74
    0
 42
1e-07
 43
1e-07
 40
0
 40
0
 40
0
 40
0
 40
1
 40
1
 40
1
 40
1
 10
8.085773000000003
 20
5.598361000000001
 30
0
 10
8.374011999999993
 20
5.598361000000001
 30
0
 10
8.591627000000003
 20
5.532904
 30
0
 10
8.738618000000002
 20
5.401990999999999
 30
0
  0
SPLINE
  5
1D5
100
AcDbEntity
  8
Calque_1
  6
ByLayer
 62
    7
370
   -1
100
AcDbSpline
210
0
220
0
230
0
 70
    8
 71
    3
 72
    8
 73
    4
 74
    0
 42
1e-07
 43
1e-07
 40
0
 40
0
 40
0
 40
0
 40
1
 40
1
 40
1
 40
1
 10
8.738618000000002
 20
5.401990999999999
 30
0
 10
8.886757000000003
 20
5.272224
 30
0
 10
8.960826999999995
 20
5.081597
 30
0
 10
8.960826999999995
 20
4.830110999999999
 30
0
  0
SPLINE
  5
1D6
100
AcDbEntity
  8
Calque_1
  6
ByLayer
 62
    7
370
   -1
100
AcDbSpline
210
0
220
0
230
0
 70
    8
 71
    3
 72
    8
 73
    4
 74
    0
 42
1e-07
 43
1e-07
 40
0
 40
0
 40
0
 40
0
 40
1
 40
1
 40
1
 40
1
 10
8.960826999999995
 20
4.830110999999999
 30
0
 10
8.960826999999995
 20
4.576317
 30
0
 10
8.886757000000003
 20
4.384537
 30
0
 10
8.738618000000002
 20
4.254771
 30
0
  0
SPLINE
  5
1D7
100
AcDbEntity
  8
Calque_1
  6
ByLayer
 62
    7
370
   -1
100
AcDbSpline
210
0
220
0
230
0
 70
    8
 71
    3
 72
    8
 73
    4
 74
    0
 42
1e-07
 43
1e-07
 40
0
 40
0
 40
0
 40
0
 40
1
 40
1
 40
1
 40
1
 10
8.738618000000002
 20
4.254771
 30
0
 10
8.591627000000003
 20
4.125011000000001
 30
0
 10
8.374011999999993
 20
4.060131
 30
0
 10
8.085773000000003
 20
4.060131
 30
0
  0
LWPOLYLINE
  5
1D8
100
AcDbEntity
  8
Calque_1
  6
ByLayer
 62
    7
370
   -1
100
AcDbPolyline
 90
    2
 70
    0
 43
0
 10
7.300291000000001
 20
5.598361000000001
 10
8.085773000000003
 20
5.598361000000001
  0
LWPOLYLINE
  5
1D9
100
AcDbEntity
  8
Calque_1
  6
ByLayer
 62
    7
370
   -1
100
AcDbPolyline
 90
    5
 70
    0
 43
0
 10
8.085773000000003
 20
4.060131
 10
7.648245000000003
 20
4.060131
 10
7.648245000000003
 20
3.026600999999999
 10
7.300291000000001
 20
3.026600999999999
 10
7.300291000000001
 20
5.598361000000001
  0
LWPOLYLINE
  5
1DA
100
AcDbEntity
  8
Calque_1
  6
ByLayer
 62
    7
370
   -1
100
AcDbPolyline
 90
    4
 70
    1
 43
0
 10
9.874705000000006
 20
4.214767
 10
16.925995
 20
4.214767
 10
16.925995
 20
3.710967
 10
9.874705000000006
 20
3.710967
  0
LWPOLYLINE
  5
1DB
100
AcDbEntity
  8
Calque_1
  6
ByLayer
 62
    7
370
   -1
100
AcDbPolyline
 90
    6
 70
    1
 43
0
 10
24.732433
 20
1.821428000000001
 10
24.732433
 20
3.016
 10
24.732433
 20
4.210573
 10
25.766963
 20
3.613286
 10
26.801493
 20
3.016
 10
25.766963
 20
2.418714
  0
LWPOLYLINE
  5
1DC
100
AcDbEntity
  8
Calque_1
  6
ByLayer
 62
    7
370
   -1
100
AcDbPolyline
 90
    4
 70
    1
 43
0
 10
15.573489
 20
3.264336999999999
 10
25.096979
 20
3.264336999999999
 10
25.096979
 20
2.760546999999999
 10
15.573489
 20
2.760546999999999
  0
LWPOLYLINE
  5
1DD
100
AcDbEntity
  8
Calque_1
  6
ByLayer
 62
    7
370
   -1
100
AcDbPolyline
 90
    4
 70
    1
 43
0
 10
15.55647500000001
 20
2.777557
 10
15.55647500000001
 20
4.176217000000001
 10
16.060271
 20
4.176217000000001
 10
16.060271
 20
2.777557
  0
LWPOLYLINE
  5
1DE
100
AcDbEntity
  8
Calque_1
  6
ByLayer
 62
    7
370
   -1
100
AcDbPolyline
 90
    4
 70
    1
 43
0
 10
26.345301
 20
1.821577
 10
26.345301
 20
4.210577000000001
 10
26.849098
 20
4.210577000000001
 10
26.849098
 20
1.821577
  0
LWPOLYLINE
  5
1DF
100
AcDbEntity
  8
Calque_1
  6
ByLayer
 62
    7
370
   -1
100
AcDbPolyline
 90
    4
 70
    1
 43
0
 10
26.686
 20
3.264336999999999
 10
40.794343
 20
3.264336999999999
 10
40.794343
 20
2.760546999999999
 10
26.686
 20
2.760546999999999
  0
LWPOLYLINE
  5
1E0
100
AcDbEntity
  8
Calque_1
  6
ByLayer
 62
    7
370
   -1
100
AcDbPolyline
 90
    4
 70
    1
 43
0
 10
40.821043
 20
3.856767
 10
40.821043
 20
1.322917
 10
40.269823
 20
1.322917
 10
40.269823
 20
3.856767
  0
SPLINE
  5
1E1
100
AcDbEntity
  8
Calque_1
  6
ByLayer
 62
    7
370
   -1
100
AcDbSpline
210
0
220
0
230
0
 70
    8
 71
    3
 72
    8
 73
    4
 74
    0
 42
1e-07
 43
1e-07
 40
0
 40
0
 40
0
 40
0
 40
1
 40
1
 40
1
 40
1
 10
33.588529
 20
2.452047
 30
0
 10
33.496086
 20
2.452047
 30
0
 10
33.420294
 20
2.473279999999999
 30
0
 10
33.361153
 20
2.515747000000001
 30
0
  0
SPLINE
  5
1E2
100
AcDbEntity
  8
Calque_1
  6
ByLayer
 62
    7
370
   -1
100
AcDbSpline
210
0
220
0
230
0
 70
    8
 71
    3
 72
    8
 73
    4
 74
    0
 42
1e-07
 43
1e-07
 40
0
 40
0
 40
0
 40
0
 40
1
 40
1
 40
1
 40
1
 10
33.361153
 20
2.515747000000001
 30
0
 10
33.302013
 20
2.558814
 30
0
 10
33.258088
 20
2.624844
 30
0
 10
33.229378
 20
2.713837
 30
0
  0
SPLINE
  5
1E3
100
AcDbEntity
  8
Calque_1
  6
ByLayer
 62
    7
370
   -1
100
AcDbSpline
210
0
220
0
230
0
 70
    8
 71
    3
 72
    8
 73
    4
 74
    0
 42
1e-07
 43
1e-07
 40
0
 40
0
 40
0
 40
0
 40
1
 40
1
 40
1
 40
1
 10
33.229378
 20
2.713837
 30
0
 10
33.200672
 20
2.802837
 30
0
 10
33.186318
 20
2.916814
 30
0
 10
33.186318
 20
3.055766999999999
 30
0
  0
SPLINE
  5
1E4
100
AcDbEntity
  8
Calque_1
  6
ByLayer
 62
    7
370
   -1
100
AcDbSpline
210
0
220
0
230
0
 70
    8
 71
    3
 72
    8
 73
    4
 74
    0
 42
1e-07
 43
1e-07
 40
0
 40
0
 40
0
 40
0
 40
1
 40
1
 40
1
 40
1
 10
33.186318
 20
3.055766999999999
 30
0
 10
33.186318
 20
3.19472
 30
0
 10
33.200672
 20
3.308406999999999
 30
0
 10
33.229378
 20
3.396827
 30
0
  0
SPLINE
  5
1E5
100
AcDbEntity
  8
Calque_1
  6
ByLayer
 62
    7
370
   -1
100
AcDbSpline
210
0
220
0
230
0
 70
    8
 71
    3
 72
    8
 73
    4
 74
    0
 42
1e-07
 43
1e-07
 40
0
 40
0
 40
0
 40
0
 40
1
 40
1
 40
1
 40
1
 10
33.229378
 20
3.396827
 30
0
 10
33.258085
 20
3.485827
 30
0
 10
33.30201
 20
3.55157
 30
0
 10
33.361153
 20
3.594056999999999
 30
0
  0
SPLINE
  5
1E6
100
AcDbEntity
  8
Calque_1
  6
ByLayer
 62
    7
370
   -1
100
AcDbSpline
210
0
220
0
230
0
 70
    8
 71
    3
 72
    8
 73
    4
 74
    0
 42
1e-07
 43
1e-07
 40
0
 40
0
 40
0
 40
0
 40
1
 40
1
 40
1
 40
1
 10
33.361153
 20
3.594056999999999
 30
0
 10
33.420293
 20
3.637124
 30
0
 10
33.496085
 20
3.658657
 30
0
 10
33.588529
 20
3.658657
 30
0
  0
SPLINE
  5
1E7
100
AcDbEntity
  8
Calque_1
  6
ByLayer
 62
    7
370
   -1
100
AcDbSpline
210
0
220
0
230
0
 70
    8
 71
    3
 72
    8
 73
    4
 74
    0
 42
1e-07
 43
1e-07
 40
0
 40
0
 40
0
 40
0
 40
1
 40
1
 40
1
 40
1
 10
33.588529
 20
3.658657
 30
0
 10
33.681547
 20
3.658657
 30
0
 10
33.757626
 20
3.637124
 30
0
 10
33.816767
 20
3.594056999999999
 30
0
  0
SPLINE
  5
1E8
100
AcDbEntity
  8
Calque_1
  6
ByLayer
 62
    7
370
   -1
100
AcDbSpline
210
0
220
0
230
0
 70
    8
 71
    3
 72
    8
 73
    4
 74
    0
 42
1e-07
 43
1e-07
 40
0
 40
0
 40
0
 40
0
 40
1
 40
1
 40
1
 40
1
 10
33.816767
 20
3.594056999999999
 30
0
 10
33.875907
 20
3.551590000000001
 30
0
 10
33.919545
 20
3.485847
 30
0
 10
33.94768
 20
3.396827
 30
0
  0
SPLINE
  5
1E9
100
AcDbEntity
  8
Calque_1
  6
ByLayer
 62
    7
370
   -1
100
AcDbSpline
210
0
220
0
230
0
 70
    8
 71
    3
 72
    8
 73
    4
 74
    0
 42
1e-07
 43
1e-07
 40
0
 40
0
 40
0
 40
0
 40
1
 40
1
 40
1
 40
1
 10
33.94768
 20
3.396827
 30
0
 10
33.976387
 20
3.308406999999999
 30
0
 10
33.99074
 20
3.19472
 30
0
 10
33.99074
 20
3.055766999999999
 30
0
  0
SPLINE
  5
1EA
100
AcDbEntity
  8
Calque_1
  6
ByLayer
 62
    7
370
   -1
100
AcDbSpline
210
0
220
0
230
0
 70
    8
 71
    3
 72
    8
 73
    4
 74
    0
 42
1e-07
 43
1e-07
 40
0
 40
0
 40
0
 40
0
 40
1
 40
1
 40
1
 40
1
 10
33.99074
 20
3.055766999999999
 30
0
 10
33.99074
 20
2.916814
 30
0
 10
33.976387
 20
2.802837
 30
0
 10
33.94768
 20
2.713837
 30
0
  0
SPLINE
  5
1EB
100
AcDbEntity
  8
Calque_1
  6
ByLayer
 62
    7
370
   -1
100
AcDbSpline
210
0
220
0
230
0
 70
    8
 71
    3
 72
    8
 73
    4
 74
    0
 42
1e-07
 43
1e-07
 40
0
 40
0
 40
0
 40
0
 40
1
 40
1
 40
1
 40
1
 10
33.94768
 20
2.713837
 30
0
 10
33.919547
 20
2.624836999999999
 30
0
 10
33.875909
 20
2.558807
 30
0
 10
33.816767
 20
2.515747000000001
 30
0
  0
SPLINE
  5
1EC
100
AcDbEntity
  8
Calque_1
  6
ByLayer
 62
    7
370
   -1
100
AcDbSpline
210
0
220
0
230
0
 70
    8
 71
    3
 72
    8
 73
    4
 74
    0
 42
1e-07
 43
1e-07
 40
0
 40
0
 40
0
 40
0
 40
1
 40
1
 40
1
 40
1
 10
33.816767
 20
2.515747000000001
 30
0
 10
33.757627
 20
2.473279999999999
 30
0
 10
33.681548
 20
2.452047
 30
0
 10
33.588529
 20
2.452047
 30
0
  0
LWPOLYLINE
  5
1ED
100
AcDbEntity
  8
Calque_1
  6
ByLayer
 62
    7
370
   -1
100
AcDbPolyline
 90
    4
 70
    1
 43
0
 10
32.383006
 20
3.897797000000001
 10
35.730353
 20
3.897797000000001
 10
35.730353
 20
2.127096999999999
 10
32.383006
 20
2.127096999999999
  0
SPLINE
  5
1EE
100
AcDbEntity
  8
Calque_1
  6
ByLayer
 62
    7
370
   -1
100
AcDbSpline
210
0
220
0
230
0
 70
    8
 71
    3
 72
    8
 73
    4
 74
    0
 42
1e-07
 43
1e-07
 40
0
 40
0
 40
0
 40
0
 40
1
 40
1
 40
1
 40
1
 10
33.588529
 20
2.584687000000001
 30
0
 10
33.676953
 20
2.584687000000001
 30
0
 10
33.741549
 20
2.622584
 30
0
 10
33.782316
 20
2.698377000000001
 30
0
  0
SPLINE
  5
1EF
100
AcDbEntity
  8
Calque_1
  6
ByLayer
 62
    7
370
   -1
100
AcDbSpline
210
0
220
0
230
0
 70
    8
 71
    3
 72
    8
 73
    4
 74
    0
 42
1e-07
 43
1e-07
 40
0
 40
0
 40
0
 40
0
 40
1
 40
1
 40
1
 40
1
 10
33.782316
 20
2.698377000000001
 30
0
 10
33.823656
 20
2.77417
 30
0
 10
33.844326
 20
2.893314
 30
0
 10
33.844326
 20
3.055807
 30
0
  0
SPLINE
  5
1F0
100
AcDbEntity
  8
Calque_1
  6
ByLayer
 62
    7
370
   -1
100
AcDbSpline
210
0
220
0
230
0
 70
    8
 71
    3
 72
    8
 73
    4
 74
    0
 42
1e-07
 43
1e-07
 40
0
 40
0
 40
0
 40
0
 40
1
 40
1
 40
1
 40
1
 10
33.844326
 20
3.055807
 30
0
 10
33.844326
 20
3.218299999999999
 30
0
 10
33.823656
 20
3.337444
 30
0
 10
33.782316
 20
3.413237000000001
 30
0
  0
SPLINE
  5
1F1
100
AcDbEntity
  8
Calque_1
  6
ByLayer
 62
    7
370
   -1
100
AcDbSpline
210
0
220
0
230
0
 70
    8
 71
    3
 72
    8
 73
    4
 74
    0
 42
1e-07
 43
1e-07
 40
0
 40
0
 40
0
 40
0
 40
1
 40
1
 40
1
 40
1
 10
33.782316
 20
3.413237000000001
 30
0
 10
33.74155
 20
3.489024000000001
 30
0
 10
33.676954
 20
3.526917000000001
 30
0
 10
33.588529
 20
3.526917000000001
 30
0
  0
SPLINE
  5
1F2
100
AcDbEntity
  8
Calque_1
  6
ByLayer
 62
    7
370
   -1
100
AcDbSpline
210
0
220
0
230
0
 70
    8
 71
    3
 72
    8
 73
    4
 74
    0
 42
1e-07
 43
1e-07
 40
0
 40
0
 40
0
 40
0
 40
1
 40
1
 40
1
 40
1
 10
33.588529
 20
3.526917000000001
 30
0
 10
33.500679
 20
3.526917000000001
 30
0
 10
33.436084
 20
3.489024000000001
 30
0
 10
33.394742
 20
3.413237000000001
 30
0
  0
SPLINE
  5
1F3
100
AcDbEntity
  8
Calque_1
  6
ByLayer
 62
    7
370
   -1
100
AcDbSpline
210
0
220
0
230
0
 70
    8
 71
    3
 72
    8
 73
    4
 74
    0
 42
1e-07
 43
1e-07
 40
0
 40
0
 40
0
 40
0
 40
1
 40
1
 40
1
 40
1
 10
33.394742
 20
3.413237000000001
 30
0
 10
33.353402
 20
3.337444
 30
0
 10
33.332732
 20
3.218299999999999
 30
0
 10
33.332732
 20
3.055807
 30
0
  0
SPLINE
  5
1F4
100
AcDbEntity
  8
Calque_1
  6
ByLayer
 62
    7
370
   -1
100
AcDbSpline
210
0
220
0
230
0
 70
    8
 71
    3
 72
    8
 73
    4
 74
    0
 42
1e-07
 43
1e-07
 40
0
 40
0
 40
0
 40
0
 40
1
 40
1
 40
1
 40
1
 10
33.332732
 20
3.055807
 30
0
 10
33.332732
 20
2.893314
 30
0
 10
33.353402
 20
2.77417
 30
0
 10
33.394742
 20
2.698377000000001
 30
0
  0
SPLINE
  5
1F5
100
AcDbEntity
  8
Calque_1
  6
ByLayer
 62
    7
370
   -1
100
AcDbSpline
210
0
220
0
230
0
 70
    8
 71
    3
 72
    8
 73
    4
 74
    0
 42
1e-07
 43
1e-07
 40
0
 40
0
 40
0
 40
0
 40
1
 40
1
 40
1
 40
1
 10
33.394742
 20
2.698377000000001
 30
0
 10
33.436082
 20
2.622584
 30
0
 10
33.500678
 20
2.584687000000001
 30
0
 10
33.588529
 20
2.584687000000001
 30
0
  0
LWPOLYLINE
  5
1F6
100
AcDbEntity
  8
Calque_1
  6
ByLayer
 62
    7
370
   -1
100
AcDbPolyline
 90
    1
 70
    1
 43
0
 10
33.588529
 20
2.452047
  0
LWPOLYLINE
  5
1F7
100
AcDbEntity
  8
Calque_1
  6
ByLayer
 62
    7
370
   -1
100
AcDbPolyline
 90
    1
 70
    1
 43
0
 10
33.588529
 20
2.584687000000001
  0
SPLINE
  5
1F8
100
AcDbEntity
  8
Calque_1
  6
ByLayer
 62
    7
370
   -1
100
AcDbSpline
210
0
220
0
230
0
 70
    8
 71
    3
 72
    8
 73
    4
 74
    0
 42
1e-07
 43
1e-07
 40
0
 40
0
 40
0
 40
0
 40
1
 40
1
 40
1
 40
1
 10
34.581573
 20
3.638027000000001
 30
0
 10
34.698707
 20
3.638027000000001
 30
0
 10
34.78627
 20
3.613327
 30
0
 10
34.844263
 20
3.563927
 30
0
  0
SPLINE
  5
1F9
100
AcDbEntity
  8
Calque_1
  6
ByLayer
 62
    7
370
   -1
100
AcDbSpline
210
0
220
0
230
0
 70
    8
 71
    3
 72
    8
 73
    4
 74
    0
 42
1e-07
 43
1e-07
 40
0
 40
0
 40
0
 40
0
 40
1
 40
1
 40
1
 40
1
 10
34.844263
 20
3.563927
 30
0
 10
34.902863
 20
3.515127
 30
0
 10
34.932163
 20
3.441057000000001
 30
0
 10
34.932163
 20
3.341716999999999
 30
0
  0
SPLINE
  5
1FA
100
AcDbEntity
  8
Calque_1
  6
ByLayer
 62
    7
370
   -1
100
AcDbSpline
210
0
220
0
230
0
 70
    8
 71
    3
 72
    8
 73
    4
 74
    0
 42
1e-07
 43
1e-07
 40
0
 40
0
 40
0
 40
0
 40
1
 40
1
 40
1
 40
1
 10
34.932163
 20
3.341716999999999
 30
0
 10
34.932163
 20
3.217696999999999
 30
0
 10
34.880487
 20
3.134727
 30
0
 10
34.777133
 20
3.092807000000001
 30
0
  0
LWPOLYLINE
  5
1FB
100
AcDbEntity
  8
Calque_1
  6
ByLayer
 62
    7
370
   -1
100
AcDbPolyline
 90
    2
 70
    0
 43
0
 10
34.238793
 20
3.638027000000001
 10
34.581573
 20
3.638027000000001
  0
SPLINE
  5
1FC
100
AcDbEntity
  8
Calque_1
  6
ByLayer
 62
    7
370
   -1
100
AcDbSpline
210
0
220
0
230
0
 70
    8
 71
    3
 72
    8
 73
    4
 74
    0
 42
1e-07
 43
1e-07
 40
0
 40
0
 40
0
 40
0
 40
1
 40
1
 40
1
 40
1
 10
34.777133
 20
3.087807
 30
0
 10
34.914367
 20
3.051074
 30
0
 10
34.982983
 20
2.955187
 30
0
 10
34.982983
 20
2.800146999999999
 30
0
  0
SPLINE
  5
1FD
100
AcDbEntity
  8
Calque_1
  6
ByLayer
 62
    7
370
   -1
100
AcDbSpline
210
0
220
0
230
0
 70
    8
 71
    3
 72
    8
 73
    4
 74
    0
 42
1e-07
 43
1e-07
 40
0
 40
0
 40
0
 40
0
 40
1
 40
1
 40
1
 40
1
 10
34.982983
 20
2.800146999999999
 30
0
 10
34.982983
 20
2.691053999999999
 30
0
 10
34.953683
 20
2.609234000000001
 30
0
 10
34.895083
 20
2.554686999999999
 30
0
  0
SPLINE
  5
1FE
100
AcDbEntity
  8
Calque_1
  6
ByLayer
 62
    7
370
   -1
100
AcDbSpline
210
0
220
0
230
0
 70
    8
 71
    3
 72
    8
 73
    4
 74
    0
 42
1e-07
 43
1e-07
 40
0
 40
0
 40
0
 40
0
 40
1
 40
1
 40
1
 40
1
 10
34.895083
 20
2.554686999999999
 30
0
 10
34.837083
 20
2.500686999999999
 30
0
 10
34.748947
 20
2.473687
 30
0
 10
34.630673
 20
2.473687
 30
0
  0
LWPOLYLINE
  5
1FF
100
AcDbEntity
  8
Calque_1
  6
ByLayer
 62
    7
370
   -1
100
AcDbPolyline
 90
    2
 70
    0
 43
0
 10
34.777133
 20
3.092807000000001
 10
34.777133
 20
3.087807
  0
SPLINE
  5
200
100
AcDbEntity
  8
Calque_1
  6
ByLayer
 62
    7
370
   -1
100
AcDbSpline
210
0
220
0
230
0
 70
    8
 71
    3
 72
    8
 73
    4
 74
    0
 42
1e-07
 43
1e-07
 40
0
 40
0
 40
0
 40
0
 40
1
 40
1
 40
1
 40
1
 10
34.568663
 20
3.138487
 30
0
 10
34.64445
 20
3.138487
 30
0
 10
34.700143
 20
3.153420000000001
 30
0
 10
34.735743
 20
3.183287
 30
0
  0
SPLINE
  5
201
100
AcDbEntity
  8
Calque_1
  6
ByLayer
 62
    7
370
   -1
100
AcDbSpline
210
0
220
0
230
0
 70
    8
 71
    3
 72
    8
 73
    4
 74
    0
 42
1e-07
 43
1e-07
 40
0
 40
0
 40
0
 40
0
 40
1
 40
1
 40
1
 40
1
 10
34.735743
 20
3.183287
 30
0
 10
34.771343
 20
3.213687
 30
0
 10
34.789143
 20
3.261057000000001
 30
0
 10
34.789143
 20
3.325397000000001
 30
0
  0
SPLINE
  5
202
100
AcDbEntity
  8
Calque_1
  6
ByLayer
 62
    7
370
   -1
100
AcDbSpline
210
0
220
0
230
0
 70
    8
 71
    3
 72
    8
 73
    4
 74
    0
 42
1e-07
 43
1e-07
 40
0
 40
0
 40
0
 40
0
 40
1
 40
1
 40
1
 40
1
 10
34.789143
 20
3.325397000000001
 30
0
 10
34.789143
 20
3.38913
 30
0
 10
34.771343
 20
3.435924
 30
0
 10
34.735743
 20
3.465776999999999
 30
0
  0
SPLINE
  5
203
100
AcDbEntity
  8
Calque_1
  6
ByLayer
 62
    7
370
   -1
100
AcDbSpline
210
0
220
0
230
0
 70
    8
 71
    3
 72
    8
 73
    4
 74
    0
 42
1e-07
 43
1e-07
 40
0
 40
0
 40
0
 40
0
 40
1
 40
1
 40
1
 40
1
 10
34.735743
 20
3.465776999999999
 30
0
 10
34.700143
 20
3.495644
 30
0
 10
34.64445
 20
3.510577
 30
0
 10
34.568663
 20
3.510577
 30
0
  0
LWPOLYLINE
  5
204
100
AcDbEntity
  8
Calque_1
  6
ByLayer
 62
    7
370
   -1
100
AcDbPolyline
 90
    3
 70
    0
 43
0
 10
34.630673
 20
2.473687
 10
34.238793
 20
2.473687
 10
34.238793
 20
3.638027000000001
  0
SPLINE
  5
205
100
AcDbEntity
  8
Calque_1
  6
ByLayer
 62
    7
370
   -1
100
AcDbSpline
210
0
220
0
230
0
 70
    8
 71
    3
 72
    8
 73
    4
 74
    0
 42
1e-07
 43
1e-07
 40
0
 40
0
 40
0
 40
0
 40
1
 40
1
 40
1
 40
1
 10
34.618563
 20
2.600187
 30
0
 10
34.694357
 20
2.600187
 30
0
 10
34.749477
 20
2.616554000000001
 30
0
 10
34.783923
 20
2.649287000000001
 30
0
  0
SPLINE
  5
206
100
AcDbEntity
  8
Calque_1
  6
ByLayer
 62
    7
370
   -1
100
AcDbSpline
210
0
220
0
230
0
 70
    8
 71
    3
 72
    8
 73
    4
 74
    0
 42
1e-07
 43
1e-07
 40
0
 40
0
 40
0
 40
0
 40
1
 40
1
 40
1
 40
1
 10
34.783923
 20
2.649287000000001
 30
0
 10
34.818923
 20
2.682554
 30
0
 10
34.836423
 20
2.734517
 30
0
 10
34.836423
 20
2.805177
 30
0
  0
SPLINE
  5
207
100
AcDbEntity
  8
Calque_1
  6
ByLayer
 62
    7
370
   -1
100
AcDbSpline
210
0
220
0
230
0
 70
    8
 71
    3
 72
    8
 73
    4
 74
    0
 42
1e-07
 43
1e-07
 40
0
 40
0
 40
0
 40
0
 40
1
 40
1
 40
1
 40
1
 10
34.836423
 20
2.805177
 30
0
 10
34.836423
 20
2.876950000000001
 30
0
 10
34.818923
 20
2.9292
 30
0
 10
34.783923
 20
2.961926999999999
 30
0
  0
SPLINE
  5
208
100
AcDbEntity
  8
Calque_1
  6
ByLayer
 62
    7
370
   -1
100
AcDbSpline
210
0
220
0
230
0
 70
    8
 71
    3
 72
    8
 73
    4
 74
    0
 42
1e-07
 43
1e-07
 40
0
 40
0
 40
0
 40
0
 40
1
 40
1
 40
1
 40
1
 10
34.783923
 20
2.961926999999999
 30
0
 10
34.749457
 20
2.995194
 30
0
 10
34.694337
 20
3.011827
 30
0
 10
34.618563
 20
3.011827
 30
0
  0
LWPOLYLINE
  5
209
100
AcDbEntity
  8
Calque_1
  6
ByLayer
 62
    7
370
   -1
100
AcDbPolyline
 90
    4
 70
    0
 43
0
 10
34.568663
 20
3.510577
 10
34.380043
 20
3.510577
 10
34.380043
 20
3.138507000000001
 10
34.568663
 20
3.138487
  0
LWPOLYLINE
  5
20A
100
AcDbEntity
  8
Calque_1
  6
ByLayer
 62
    7
370
   -1
100
AcDbPolyline
 90
    4
 70
    0
 43
0
 10
34.618563
 20
3.011827
 10
34.379993
 20
3.011827
 10
34.379993
 20
2.600137
 10
34.618563
 20
2.600187
  0
ENDBLK
  5
6C
330
6A
100
AcDbEntity
  8
0
100
AcDbBlockEnd
  0
ENDSEC
  0
SECTION
  2
ENTITIES
  0
LWPOLYLINE
  5
20B
100
AcDbEntity
  8
0
  6
ByLayer
 62
    3
370
   -1
100
AcDbPolyline
 90
    8
 70
    1
 43
0
 10
-45
 20
-75
 10
45
 20
-75
 42
0.414213562373095
 10
50
 20
-70
 10
50
 20
70
 42
0.414213562373095
 10
45
 20
75
 10
-45
 20
75
 42
0.414213562373095
 10
-50
 20
70
 10
-50
 20
-70
 42
0.414213562373095
  0
LWPOLYLINE
  5
20C
100
AcDbEntity
  8
0
  6
ByLayer
 62
    1
370
   -1
100
AcDbPolyline
 90
    4
 70
    1
 43
0
 10
-29.25
 20
-9
 10
29.25
 20
-9
 10
29.25
 20
72.30000000000001
 10
-29.25
 20
72.30000000000001
  0
MTEXT
  5
20D
100
AcDbEntity
  8
0
  6
ByLayer
 62
    6
370
   -1
100
AcDbMText
 10
38.48328665060633
 20
35.00238635055148
 30
0
 40
5
 41
41.31111111111112
 71
    5
 72
    1
  1
Python C
  7
wqy-unicode
210
0
220
0
230
1
 50
90
 73
    2
 44
1
  0
DIMENSION
  5
20E
100
AcDbEntity
  8
0
  6
ByLayer
 62
    0
370
   -1
100
AcDbDimension
  2
*D1
 10
50
 20
-90
 30
0
 11
-6.990616720180938e-15
 21
-88.125
 31
0
 70
   33
 71
    5
 72
    0
  3
Standard
 53
0
210
0
220
0
230
1
100
AcDbAlignedDimension
 13
-50
 23
-70
 33
0
 14
50
 24
-70
 34
0
  0
DIMENSION
  5
20F
100
AcDbEntity
  8
0
  6
ByLayer
 62
    0
370
   -1
100
AcDbDimension
  2
*D2
 10
-62.25412535421982
 20
75
 30
0
 11
-64.12912535421982
 21
2.296212748401287e-16
 31
0
 70
   33
 71
    5
 72
    0
  3
Standard
 53
0
210
0
220
0
230
1
100
AcDbAlignedDimension
 13
-41.36347926219975
 23
-75
 33
0
 14
-41.36347926219975
 24
75
 34
0
  0
DIMENSION
  5
210
100
AcDbEntity
  8
0
  6
ByLayer
 62
    0
370
   -1
100
AcDbDimension
  2
*D3
 10
72.19950000002626
 20
72.30000000000001
 30
0
 11
70.32450000002626
 21
31.65000000000001
 31
0
 70
   33
 71
    5
 72
    0
  3
Standard
 53
0
210
0
220
0
230
1
100
AcDbAlignedDimension
 13
29.25
 23
-9
 33
0
 14
29.25
 24
72.30000000000001
 34
0
  0
DIMENSION
  5
211
100
AcDbEntity
  8
0
  6
ByLayer
 62
    0
370
   -1
100
AcDbDimension
  2
*D4
 10
29.20724943874099
 20
89.29510994478257
 30
0
 11
-0.02137528062950255
 21
91.17010994478257
 31
0
 70
   33
 71
    5
 72
    0
  3
Standard
 53
0
210
0
220
0
230
1
100
AcDbAlignedDimension
 13
-29.25
 23
72.30000000000001
 33
0
 14
29.20724943874099
 24
72.30000000000001
 34
0
  0
DIMENSION
  5
212
100
AcDbEntity
  8
0
  6
ByLayer
 62
    0
370
   -1
100
AcDbDimension
  2
*D5
 10
83.38360050003041
 20
-6.200012917966433
 30
0
 11
81.50860050003041
 21
31.89999354101677
 31
0
 70
   33
 71
    5
 72
    0
  3
Standard
 53
0
210
0
220
0
230
1
100
AcDbAlignedDimension
 13
26.9
 23
70
 33
0
 14
26.9
 24
-6.200012917966433
 34
0
  0
CIRCLE
  5
213
100
AcDbEntity
  8
0
  6
ByLayer
 62
    5
370
   -1
100
AcDbCircle
 10
-26.19
 20
70
 40
1.75
  0
CIRCLE
  5
214
100
AcDbEntity
  8
0
  6
ByLayer
 62
    5
370
   -1
100
AcDbCircle
 10
26.18999999999999
 20
70
 40
1.75
  0
CIRCLE
  5
215
100
AcDbEntity
  8
0
  6
ByLayer
 62
    5
370
   -1
100
AcDbCircle
 10
-26.19
 20
-6.200012917966433
 40
1.75
  0
CIRCLE
  5
216
100
AcDbEntity
  8
0
  6
ByLayer
 62
    5
370
   -1
100
AcDbCircle
 10
26.19
 20
-6.200012917966433
 40
1.75
  0
DIMENSION
  5
217
100
AcDbEntity
  8
0
  6
ByLayer
 62
  256
370
   -1
100
AcDbDimension
  2
*D6
 10
26.19
 20
95.60548128472335
 30
0
 11
-3.437903041380437e-15
 21
97.48048128472335
 31
0
 70
   33
 71
    5
  3
Standard
 53
0
210
0
220
0
230
1
100
AcDbAlignedDimension
 13
-26.19
 23
70
 33
0
 14
26.18999999999999
 24
70
 34
0
  0
LWPOLYLINE
  5
218
100
AcDbEntity
  8
0
  6
ByLayer
 62
    1
370
   -1
100
AcDbPolyline
 90
    4
 70
    1
 43
0
 10
-42
 20
-70.10703980770654
 10
40
 20
-70.10703980770654
 10
40
 20
-17.10703980770655
 10
-42
 20
-17.10703980770655
  0
DIMENSION
  5
219
100
AcDbEntity
  8
0
  6
ByLayer
 62
    0
370
   -1
100
AcDbDimension
  2
*D7
 10
40
 20
-109.4981365577445
 30
0
 11
-1.000000000000007
 21
-107.6231365577445
 31
0
 70
   33
 71
    5
 72
    0
  3
Standard
 53
0
210
0
220
0
230
1
100
AcDbAlignedDimension
 13
-42
 23
-65.22079830772836
 33
0
 14
40
 24
-65.22079830772836
 34
0
  0
DIMENSION
  5
21A
100
AcDbEntity
  8
0
  6
ByLayer
 62
    0
370
   -1
100
AcDbDimension
  2
*D8
 10
63.345681000023
 20
-17.10703980770655
 30
0
 11
61.470681000023
 21
-43.60703980770655
 31
0
 70
   33
 71
    5
 72
    0
  3
Standard
 53
0
210
0
220
0
230
1
100
AcDbAlignedDimension
 13
40
 23
-70.10703980770654
 33
0
 14
40
 24
-17.10703980770655
 34
0
  0
ENDSEC
  0
SECTION
  2
OBJECTS
  0
DICTIONARY
  5
C
330
0
100
AcDbDictionary
281
    1
  3
ACAD_GROUP
350
D
  0
DICTIONARY
  5
D
330
C
100
AcDbDictionary
281
    1
  0
ENDSEC
  0
EOF
