<?xml version="1.0" encoding="UTF-8" standalone="no"?>
<!-- Created with Inkscape (http://www.inkscape.org/) -->

<svg
   xmlns:dc="http://purl.org/dc/elements/1.1/"
   xmlns:cc="http://creativecommons.org/ns#"
   xmlns:rdf="http://www.w3.org/1999/02/22-rdf-syntax-ns#"
   xmlns:svg="http://www.w3.org/2000/svg"
   xmlns="http://www.w3.org/2000/svg"
   xmlns:sodipodi="http://sodipodi.sourceforge.net/DTD/sodipodi-0.dtd"
   xmlns:inkscape="http://www.inkscape.org/namespaces/inkscape"
   width="60.264584mm"
   height="60.264584mm"
   viewBox="0 0 60.264584 60.264584"
   version="1.1"
   id="svg898"
   inkscape:version="0.92.4 (5da689c313, 2019-01-14)"
   sodipodi:docname="plaque_pot_dessus.svg"
   inkscape:export-filename="/home/olivier/Bureau/Lien vers CircuitPython-au-lycee/Matériel/Platine capteur angle/plaque_pot_dessus.svg.png"
   inkscape:export-xdpi="96"
   inkscape:export-ydpi="96">
  <defs
     id="defs892" />
  <sodipodi:namedview
     id="base"
     pagecolor="#ffffff"
     bordercolor="#666666"
     borderopacity="1.0"
     inkscape:pageopacity="1"
     inkscape:pageshadow="2"
     inkscape:zoom="2.0000001"
     inkscape:cx="45.517886"
     inkscape:cy="99.350376"
     inkscape:document-units="mm"
     inkscape:current-layer="layer1"
     showgrid="false"
     fit-margin-top="0"
     fit-margin-left="0"
     fit-margin-right="0"
     fit-margin-bottom="0"
     inkscape:window-width="1366"
     inkscape:window-height="693"
     inkscape:window-x="0"
     inkscape:window-y="24"
     inkscape:window-maximized="1"
     inkscape:snap-bbox="true"
     inkscape:bbox-paths="true"
     inkscape:bbox-nodes="true"
     inkscape:snap-bbox-edge-midpoints="true"
     inkscape:snap-bbox-midpoints="true"
     inkscape:snap-object-midpoints="true"
     inkscape:snap-center="true"
     inkscape:snap-smooth-nodes="true"
     inkscape:snap-midpoints="true" />
  <metadata
     id="metadata895">
    <rdf:RDF>
      <cc:Work
         rdf:about="">
        <dc:format>image/svg+xml</dc:format>
        <dc:type
           rdf:resource="http://purl.org/dc/dcmitype/StillImage" />
        <dc:title></dc:title>
      </cc:Work>
    </rdf:RDF>
  </metadata>
  <g
     inkscape:label="Calque 1"
     inkscape:groupmode="layer"
     id="layer1"
     transform="translate(-32.373659,-52.695086)">
    <path
       style="fill:none;fill-opacity:1;stroke:#00ff00;stroke-width:0.26458332;stroke-linecap:round;stroke-linejoin:miter;stroke-miterlimit:0;stroke-dasharray:none;stroke-opacity:1;paint-order:fill markers stroke"
       d="m 37.505951,52.827377 h 50 c 2.77,0 5,2.23 5,5 v 50.000003 c 0,2.77 -2.23,5 -5,5 h -50 c -2.77,0 -5,-2.23 -5,-5 V 57.827377 c 0,-2.77 2.23,-5 5,-5 z"
       id="rect1443" />
    <g
       id="g1451"
       style="stroke:#0000ff">
      <path
         style="fill:none;fill-opacity:1;stroke:#0000ff;stroke-width:0.26458332;stroke-linecap:round;stroke-linejoin:miter;stroke-miterlimit:0;stroke-dasharray:none;stroke-opacity:1;paint-order:fill markers stroke"
         d="m 38.705949,57.527378 a 1.6,1.5 0 0 1 -1.6,1.5 1.6,1.5 0 0 1 -1.6,-1.5 1.6,1.5 0 0 1 1.6,-1.5 1.6,1.5 0 0 1 1.6,1.5 z"
         id="path1445" />
      <path
         style="fill:none;fill-opacity:1;stroke:#0000ff;stroke-width:0.26458332;stroke-linecap:round;stroke-linejoin:miter;stroke-miterlimit:0;stroke-dasharray:none;stroke-opacity:1;paint-order:fill markers stroke"
         d="m 89.505952,57.527378 a 1.6,1.5 0 0 1 -1.6,1.5 1.6,1.5 0 0 1 -1.6,-1.5 1.6,1.5 0 0 1 1.6,-1.5 1.6,1.5 0 0 1 1.6,1.5 z"
         id="ellipse1447" />
    </g>
    <g
       id="g1462"
       style="stroke:#0000ff">
      <g
         transform="translate(0,50.8)"
         id="g1457"
         style="stroke:#0000ff">
        <path
           style="fill:none;fill-opacity:1;stroke:#0000ff;stroke-width:0.26458332;stroke-linecap:round;stroke-linejoin:miter;stroke-miterlimit:0;stroke-dasharray:none;stroke-opacity:1;paint-order:fill markers stroke"
           d="m 38.705949,57.527378 a 1.6,1.5 0 0 1 -1.6,1.5 1.6,1.5 0 0 1 -1.6,-1.5 1.6,1.5 0 0 1 1.6,-1.5 1.6,1.5 0 0 1 1.6,1.5 z"
           id="ellipse1453" />
        <path
           style="fill:none;fill-opacity:1;stroke:#0000ff;stroke-width:0.26458332;stroke-linecap:round;stroke-linejoin:miter;stroke-miterlimit:0;stroke-dasharray:none;stroke-opacity:1;paint-order:fill markers stroke"
           d="m 89.505952,57.527378 a 1.6,1.5 0 0 1 -1.6,1.5 1.6,1.5 0 0 1 -1.6,-1.5 1.6,1.5 0 0 1 1.6,-1.5 1.6,1.5 0 0 1 1.6,1.5 z"
           id="ellipse1455" />
      </g>
    </g>
    <g
       aria-label="10k"
       transform="matrix(0.26458333,0,0,0.26458333,139.18051,77.412655)"
       style="font-style:normal;font-weight:normal;font-size:40px;line-height:1.25;font-family:sans-serif;letter-spacing:0px;word-spacing:0px;fill:#ff0000;fill-opacity:1;stroke:none"
       id="flowRoot825">
      <path
         d="m -301.20313,121.05534 h 2.14844 v -7.41537 l -2.33724,0.46875 v -1.19791 l 2.32422,-0.46875 h 1.31511 v 8.61328 h 2.14843 v 1.10677 h -5.59896 z"
         style="font-size:13.33333397px;text-align:center;text-anchor:middle;fill:#ff0000"
         id="path1006" />
      <path
         d="m -290.12891,113.30794 q -1.01562,0 -1.52994,1.00261 -0.50782,0.99609 -0.50782,3.0013 0,1.9987 0.50782,3.0013 0.51432,0.99609 1.52994,0.99609 1.02214,0 1.52995,-0.99609 0.51432,-1.0026 0.51432,-3.0013 0,-2.00521 -0.51432,-3.0013 -0.50781,-1.00261 -1.52995,-1.00261 z m 0,-1.04166 q 1.63412,0 2.49349,1.29557 0.86589,1.28906 0.86589,3.75 0,2.45443 -0.86589,3.75 -0.85937,1.28906 -2.49349,1.28906 -1.63411,0 -2.5,-1.28906 -0.85937,-1.29557 -0.85937,-3.75 0,-2.46094 0.85937,-3.75 0.86589,-1.29557 2.5,-1.29557 z"
         style="font-size:13.33333397px;text-align:center;text-anchor:middle;fill:#ff0000"
         id="path1008" />
      <path
         d="m -284.66667,112.0319 h 1.20443 v 5.98307 l 3.57422,-3.14453 h 1.52995 l -3.86719,3.41146 4.02995,3.88021 h -1.5625 l -3.70443,-3.5612 v 3.5612 h -1.20443 z"
         style="font-size:13.33333397px;text-align:center;text-anchor:middle;fill:#ff0000"
         id="path1010" />
    </g>
    <path
       style="fill:none;fill-opacity:1;stroke:#fd0000;stroke-width:0.26458332;stroke-linecap:round;stroke-linejoin:miter;stroke-miterlimit:0;stroke-dasharray:none;stroke-opacity:1;paint-order:fill markers stroke"
       d="m 70.005951,82.827377 a 7.5,7.5 0 0 1 -7.5,7.5 7.5,7.5 0 0 1 -7.5,-7.5 7.5,7.5 0 0 1 7.5,-7.5 7.5,7.5 0 0 1 7.5,7.5 z"
       id="path859" />
    <path
       transform="rotate(-30)"
       style="fill:none;fill-opacity:1;stroke:#ff00ff;stroke-width:0.26458332;stroke-linecap:round;stroke-linejoin:miter;stroke-miterlimit:4;stroke-dasharray:none;stroke-opacity:1;paint-order:fill markers stroke"
       inkscape:transform-center-x="-7.1099924"
       inkscape:transform-center-y="12.314868"
       d="m 12.547322,110.48359 h 0.341461 v 13.43997 h -0.341461 z"
       id="rect861" />
    <path
       transform="rotate(-60)"
       style="fill:none;fill-opacity:1;stroke:#ff00ff;stroke-width:0.26458332;stroke-linecap:round;stroke-linejoin:miter;stroke-miterlimit:4;stroke-dasharray:none;stroke-opacity:1;paint-order:fill markers stroke"
       inkscape:transform-center-x="-12.314869"
       inkscape:transform-center-y="7.1099944"
       d="m -40.648369,103.04543 h 0.341461 v 13.43997 h -0.341461 z"
       id="rect863" />
    <path
       transform="rotate(-90)"
       style="fill:none;fill-opacity:1;stroke:#ff00ff;stroke-width:0.26458332;stroke-linecap:round;stroke-linejoin:miter;stroke-miterlimit:4;stroke-dasharray:none;stroke-opacity:1;paint-order:fill markers stroke"
       inkscape:transform-center-x="-14.219983"
       d="m -82.998108,70.005951 h 0.341461 v 13.439967 h -0.341461 z"
       id="rect865" />
    <path
       transform="rotate(-120)"
       style="fill:none;fill-opacity:1;stroke:#ff00ff;stroke-width:0.26458332;stroke-linecap:round;stroke-linejoin:miter;stroke-miterlimit:4;stroke-dasharray:none;stroke-opacity:1;paint-order:fill markers stroke"
       inkscape:transform-center-x="-12.314866"
       inkscape:transform-center-y="-7.1099907"
       d="m -103.15432,20.218052 h 0.34146 v 13.439967 h -0.34146 z"
       id="rect867" />
    <path
       transform="rotate(-150)"
       style="fill:none;fill-opacity:1;stroke:#ff00ff;stroke-width:0.26458332;stroke-linecap:round;stroke-linejoin:miter;stroke-miterlimit:4;stroke-dasharray:none;stroke-opacity:1;paint-order:fill markers stroke"
       inkscape:transform-center-x="-7.1099933"
       inkscape:transform-center-y="-12.314865"
       d="m -95.716164,-32.977638 h 0.341461 v 13.439967 h -0.341461 z"
       id="rect869" />
    <path
       transform="scale(-1)"
       style="fill:none;fill-opacity:1;stroke:#ff00ff;stroke-width:0.26458332;stroke-linecap:round;stroke-linejoin:miter;stroke-miterlimit:4;stroke-dasharray:none;stroke-opacity:1;paint-order:fill markers stroke"
       inkscape:transform-center-x="-3.1191245e-06"
       inkscape:transform-center-y="-14.219984"
       d="m -62.676685,-75.327377 h 0.34146 v 13.439967 h -0.34146 z"
       id="rect871" />
    <path
       transform="rotate(150)"
       style="fill:none;fill-opacity:1;stroke:#ff00ff;stroke-width:0.26458332;stroke-linecap:round;stroke-linejoin:miter;stroke-miterlimit:4;stroke-dasharray:none;stroke-opacity:1;paint-order:fill markers stroke"
       inkscape:transform-center-x="7.1099887"
       inkscape:transform-center-y="-12.314869"
       d="m -12.888787,-95.483589 h 0.341461 v 13.439967 h -0.341461 z"
       id="rect873" />
    <path
       transform="rotate(120)"
       style="fill:none;fill-opacity:1;stroke:#ff00ff;stroke-width:0.26458332;stroke-linecap:round;stroke-linejoin:miter;stroke-miterlimit:4;stroke-dasharray:none;stroke-opacity:1;paint-order:fill markers stroke"
       inkscape:transform-center-x="12.314864"
       inkscape:transform-center-y="-7.1099936"
       d="m 40.306904,-88.045433 h 0.341461 v 13.439967 h -0.341461 z"
       id="rect875" />
    <path
       transform="rotate(90)"
       style="fill:none;fill-opacity:1;stroke:#ff00ff;stroke-width:0.26458332;stroke-linecap:round;stroke-linejoin:miter;stroke-miterlimit:4;stroke-dasharray:none;stroke-opacity:1;paint-order:fill markers stroke"
       inkscape:transform-center-x="14.219981"
       d="m 82.656647,-55.005955 h 0.341461 v 13.439967 h -0.341461 z"
       id="rect877" />
    <path
       transform="rotate(60)"
       style="fill:none;fill-opacity:1;stroke:#ff00ff;stroke-width:0.26458332;stroke-linecap:round;stroke-linejoin:miter;stroke-miterlimit:4;stroke-dasharray:none;stroke-opacity:1;paint-order:fill markers stroke"
       inkscape:transform-center-x="12.314865"
       inkscape:transform-center-y="7.1099906"
       d="m 102.81286,-5.2180567 h 0.34146 V 8.2219105 h -0.34146 z"
       id="rect879" />
    <path
       transform="rotate(30)"
       style="fill:none;fill-opacity:1;stroke:#ff00ff;stroke-width:0.26458332;stroke-linecap:round;stroke-linejoin:miter;stroke-miterlimit:4;stroke-dasharray:none;stroke-opacity:1;paint-order:fill markers stroke"
       inkscape:transform-center-x="7.1099895"
       inkscape:transform-center-y="12.314866"
       d="m 95.374702,47.977634 h 0.341461 v 13.439968 h -0.341461 z"
       id="rect881" />
    <path
       style="fill:#ff0000;stroke:#ff0000;stroke-width:0.17938295px;stroke-linecap:butt;stroke-linejoin:miter;stroke-opacity:1"
       d="m 67.411894,88.674052 4.173431,4.973702"
       id="path883"
       inkscape:connector-curvature="0"
       inkscape:transform-center-y="8.3335255"
       inkscape:transform-center-x="-6.9926585" />
    <path
       inkscape:transform-center-x="-8.333526"
       inkscape:transform-center-y="6.992658"
       inkscape:connector-curvature="0"
       id="path885"
       d="m 68.352626,87.73332 4.973702,4.173431"
       style="fill:#ff0000;stroke:#ff0000;stroke-width:0.17938295px;stroke-linecap:butt;stroke-linejoin:miter;stroke-opacity:1" />
    <path
       style="fill:#ff0000;stroke:#ff0000;stroke-width:0.17938295px;stroke-linecap:butt;stroke-linejoin:miter;stroke-opacity:1"
       d="m 70.022291,84.152711 6.394068,1.127446"
       id="path887"
       inkscape:connector-curvature="0"
       inkscape:transform-center-y="1.8890565"
       inkscape:transform-center-x="-10.713375" />
    <path
       inkscape:transform-center-x="-10.222583"
       inkscape:transform-center-y="3.7207155"
       inkscape:connector-curvature="0"
       id="path889"
       d="m 69.677959,85.437775 6.101149,2.220636"
       style="fill:#ff0000;stroke:#ff0000;stroke-width:0.17938295px;stroke-linecap:butt;stroke-linejoin:miter;stroke-opacity:1" />
    <path
       inkscape:transform-center-x="-10.222583"
       inkscape:transform-center-y="-3.7207165"
       inkscape:connector-curvature="0"
       id="path891"
       d="m 69.677959,80.21698 6.101149,-2.220638"
       style="fill:#ff0000;stroke:#ff0000;stroke-width:0.17938295px;stroke-linecap:butt;stroke-linejoin:miter;stroke-opacity:1" />
    <path
       style="fill:#ff0000;stroke:#ff0000;stroke-width:0.17938295px;stroke-linecap:butt;stroke-linejoin:miter;stroke-opacity:1"
       d="m 70.022291,81.502044 6.394068,-1.127448"
       id="path893"
       inkscape:connector-curvature="0"
       inkscape:transform-center-y="-1.8890575"
       inkscape:transform-center-x="-10.713375" />
    <path
       style="fill:#ff0000;stroke:#ff0000;stroke-width:0.17938295px;stroke-linecap:butt;stroke-linejoin:miter;stroke-opacity:1"
       d="m 68.352625,77.921435 4.973702,-4.173433"
       id="path895"
       inkscape:connector-curvature="0"
       inkscape:transform-center-y="-6.992659"
       inkscape:transform-center-x="-8.3335255" />
    <path
       inkscape:transform-center-x="-6.992658"
       inkscape:transform-center-y="-8.3335265"
       inkscape:connector-curvature="0"
       id="path897"
       d="m 67.411893,76.980703 4.173431,-4.973704"
       style="fill:#ff0000;stroke:#ff0000;stroke-width:0.17938295px;stroke-linecap:butt;stroke-linejoin:miter;stroke-opacity:1" />
    <path
       style="fill:#ff0000;stroke:#ff0000;stroke-width:0.17938295px;stroke-linecap:butt;stroke-linejoin:miter;stroke-opacity:1"
       d="M 61.180617,75.311037 60.053168,68.916969"
       id="path899"
       inkscape:connector-curvature="0"
       inkscape:transform-center-y="-10.713375"
       inkscape:transform-center-x="1.889058" />
    <path
       inkscape:transform-center-x="3.7207175"
       inkscape:transform-center-y="-10.222584"
       inkscape:connector-curvature="0"
       id="path901"
       d="M 59.895552,75.655369 57.674914,69.55422"
       style="fill:#ff0000;stroke:#ff0000;stroke-width:0.17938295px;stroke-linecap:butt;stroke-linejoin:miter;stroke-opacity:1" />
    <path
       inkscape:transform-center-x="-3.720715"
       inkscape:transform-center-y="-10.222584"
       inkscape:connector-curvature="0"
       id="path905"
       d="m 65.116348,75.655369 2.220635,-6.10115"
       style="fill:#ff0000;stroke:#ff0000;stroke-width:0.17938295px;stroke-linecap:butt;stroke-linejoin:miter;stroke-opacity:1" />
    <path
       style="fill:#ff0000;stroke:#ff0000;stroke-width:0.17938295px;stroke-linecap:butt;stroke-linejoin:miter;stroke-opacity:1"
       d="m 63.831284,75.311037 1.127445,-6.394069"
       id="path907"
       inkscape:connector-curvature="0"
       inkscape:transform-center-y="-10.713376"
       inkscape:transform-center-x="-1.889056" />
    <path
       style="fill:#ff0000;stroke:#ff0000;stroke-width:0.17938295px;stroke-linecap:butt;stroke-linejoin:miter;stroke-opacity:1"
       d="M 57.600007,76.980703 53.426574,72.007002"
       id="path909"
       inkscape:connector-curvature="0"
       inkscape:transform-center-y="-8.3335255"
       inkscape:transform-center-x="6.9926601" />
    <path
       inkscape:transform-center-x="8.3335276"
       inkscape:transform-center-y="-6.9926585"
       inkscape:connector-curvature="0"
       id="path911"
       d="m 56.659275,77.921435 -4.973704,-4.17343"
       style="fill:#ff0000;stroke:#ff0000;stroke-width:0.17938295px;stroke-linecap:butt;stroke-linejoin:miter;stroke-opacity:1" />
    <path
       inkscape:transform-center-x="10.222584"
       inkscape:transform-center-y="-3.7207145"
       inkscape:connector-curvature="0"
       id="path913"
       d="M 55.333941,80.216981 49.232792,77.996346"
       style="fill:#ff0000;stroke:#ff0000;stroke-width:0.17938295px;stroke-linecap:butt;stroke-linejoin:miter;stroke-opacity:1" />
    <path
       style="fill:#ff0000;stroke:#ff0000;stroke-width:0.17938295px;stroke-linecap:butt;stroke-linejoin:miter;stroke-opacity:1"
       d="M 54.989609,81.502045 48.59554,80.3746"
       id="path915"
       inkscape:connector-curvature="0"
       inkscape:transform-center-y="-1.889056"
       inkscape:transform-center-x="10.713376" />
    <path
       style="fill:#ff0000;stroke:#ff0000;stroke-width:0.17938295px;stroke-linecap:butt;stroke-linejoin:miter;stroke-opacity:1"
       d="m 54.98961,84.152713 -6.394068,1.127448"
       id="path917"
       inkscape:connector-curvature="0"
       inkscape:transform-center-y="1.889059"
       inkscape:transform-center-x="10.713375" />
    <path
       inkscape:transform-center-x="10.222584"
       inkscape:transform-center-y="3.7207175"
       inkscape:connector-curvature="0"
       id="path919"
       d="m 55.333941,85.437777 -6.101149,2.220638"
       style="fill:#ff0000;stroke:#ff0000;stroke-width:0.17938295px;stroke-linecap:butt;stroke-linejoin:miter;stroke-opacity:1" />
    <path
       inkscape:transform-center-x="8.3335255"
       inkscape:transform-center-y="6.9926605"
       inkscape:connector-curvature="0"
       id="path921"
       d="m 56.659276,87.733322 -4.973701,4.173433"
       style="fill:#ff0000;stroke:#ff0000;stroke-width:0.17938295px;stroke-linecap:butt;stroke-linejoin:miter;stroke-opacity:1" />
    <path
       style="fill:#ff0000;stroke:#ff0000;stroke-width:0.17938295px;stroke-linecap:butt;stroke-linejoin:miter;stroke-opacity:1"
       d="m 57.600007,88.674055 -4.173431,4.973703"
       id="path923"
       inkscape:connector-curvature="0"
       inkscape:transform-center-y="8.333528"
       inkscape:transform-center-x="6.992659" />
    <g
       aria-label="0"
       style="font-style:normal;font-weight:normal;font-size:10.58333302px;line-height:1.25;font-family:sans-serif;letter-spacing:0px;word-spacing:0px;fill:none;fill-opacity:1;stroke:#ff00ff;stroke-width:0.26458332"
       id="text927">
      <path
         d="m 50.779291,102.95606 q 0,-0.57877 -0.109554,-0.81442 -0.107487,-0.23771 -0.363802,-0.23771 -0.256316,0 -0.36587,0.23771 -0.109554,0.23565 -0.109554,0.81442 0,0.58498 0.109554,0.82476 0.109554,0.23978 0.36587,0.23978 0.254248,0 0.363802,-0.23978 0.109554,-0.23978 0.109554,-0.82476 z m 0.795817,0.006 q 0,0.76688 -0.330729,1.18443 -0.33073,0.41547 -0.938444,0.41547 -0.609782,0 -0.940511,-0.41547 -0.33073,-0.41755 -0.33073,-1.18443 0,-0.76894 0.33073,-1.18442 0.330729,-0.41755 0.940511,-0.41755 0.607714,0 0.938444,0.41755 0.330729,0.41548 0.330729,1.18442 z"
         style="font-style:normal;font-variant:normal;font-weight:bold;font-stretch:normal;font-size:4.23333311px;font-family:sans-serif;-inkscape-font-specification:'sans-serif Bold';fill:none;stroke:#ff00ff;stroke-width:0.26458332"
         id="path1025" />
    </g>
    <g
       aria-label="30"
       style="font-style:normal;font-weight:normal;font-size:10.58333302px;line-height:1.25;font-family:sans-serif;letter-spacing:0px;word-spacing:0px;fill:none;fill-opacity:1;stroke:#ff00ff;stroke-width:0.26458332"
       id="text941">
      <path
         d="m 40.25854,95.236165 q 0.312126,0.08062 0.473356,0.28112 0.163298,0.198438 0.163298,0.506429 0,0.458887 -0.3514,0.698666 -0.3514,0.237711 -1.02526,0.237711 -0.237712,0 -0.47749,-0.03927 -0.237712,-0.03721 -0.471289,-0.113688 v -0.613916 q 0.223242,0.111621 0.44235,0.169499 0.221175,0.05581 0.434082,0.05581 0.31626,0 0.483691,-0.109554 0.169499,-0.109554 0.169499,-0.314193 0,-0.210839 -0.173633,-0.318326 -0.171566,-0.109554 -0.508496,-0.109554 h -0.318327 v -0.512631 h 0.334863 q 0.299724,0 0.446485,-0.09302 0.146761,-0.09508 0.146761,-0.287321 0,-0.177767 -0.142627,-0.274919 -0.142627,-0.09715 -0.403076,-0.09715 -0.192237,0 -0.388607,0.04341 -0.19637,0.04341 -0.390674,0.128157 v -0.58291 q 0.235645,-0.06615 0.467155,-0.09922 0.231511,-0.03307 0.454753,-0.03307 0.601513,0 0.89917,0.198437 0.299723,0.19637 0.299723,0.593245 0,0.270785 -0.142627,0.444418 -0.142627,0.171566 -0.42168,0.241845 z"
         style="font-style:normal;font-variant:normal;font-weight:bold;font-stretch:normal;font-size:4.23333311px;font-family:sans-serif;-inkscape-font-specification:'sans-serif Bold';fill:none;stroke:#ff00ff;stroke-width:0.26458332"
         id="path1028" />
      <path
         d="m 43.177225,95.353988 q 0,-0.578776 -0.109554,-0.814421 -0.107487,-0.237711 -0.363802,-0.237711 -0.256315,0 -0.365869,0.237711 -0.109554,0.235645 -0.109554,0.814421 0,0.584977 0.109554,0.824756 0.109554,0.239778 0.365869,0.239778 0.254248,0 0.363802,-0.239778 0.109554,-0.239779 0.109554,-0.824756 z m 0.795817,0.0062 q 0,0.766878 -0.330729,1.184424 -0.330729,0.415478 -0.938444,0.415478 -0.609782,0 -0.940511,-0.415478 -0.330729,-0.417546 -0.330729,-1.184424 0,-0.768945 0.330729,-1.184424 0.330729,-0.417545 0.940511,-0.417545 0.607715,0 0.938444,0.417545 0.330729,0.415479 0.330729,1.184424 z"
         style="font-style:normal;font-variant:normal;font-weight:bold;font-stretch:normal;font-size:4.23333311px;font-family:sans-serif;-inkscape-font-specification:'sans-serif Bold';fill:none;stroke:#ff00ff;stroke-width:0.26458332"
         id="path1030" />
    </g>
    <g
       aria-label="60"
       style="font-style:normal;font-weight:normal;font-size:10.58333302px;line-height:1.25;font-family:sans-serif;letter-spacing:0px;word-spacing:0px;fill:none;fill-opacity:1;stroke:#ff00ff;stroke-width:0.26458332"
       id="text945">
      <path
         d="m 37.309916,82.842016 q -0.173977,0 -0.261827,0.113689 -0.08613,0.111965 -0.08613,0.337619 0,0.225654 0.08613,0.339342 0.08785,0.111965 0.261827,0.111965 0.1757,0 0.261827,-0.111965 0.08785,-0.113688 0.08785,-0.339342 0,-0.225654 -0.08785,-0.337619 -0.08613,-0.113689 -0.261827,-0.113689 z m 0.819933,-1.235066 v 0.475423 q -0.163642,-0.07752 -0.308336,-0.113688 -0.144694,-0.0379 -0.282498,-0.0379 -0.296278,0 -0.461643,0.165364 -0.165364,0.163642 -0.192925,0.487481 0.113688,-0.08441 0.246324,-0.125746 0.132636,-0.04306 0.289388,-0.04306 0.394464,0 0.63562,0.230821 0.24288,0.230821 0.24288,0.604614 0,0.413412 -0.27044,0.663181 -0.27044,0.248047 -0.725193,0.248047 -0.501261,0 -0.776869,-0.337619 -0.273885,-0.339342 -0.273885,-0.961182 0,-0.637343 0.320394,-1.0008 0.322116,-0.36518 0.881944,-0.36518 0.177423,0 0.34451,0.02756 0.167087,0.02756 0.330729,0.08268 z"
         style="font-style:normal;font-variant:normal;font-weight:bold;font-stretch:normal;font-size:3.52777767px;font-family:sans-serif;-inkscape-font-specification:'sans-serif Bold';fill:none;stroke:#ff00ff;stroke-width:0.26458332"
         id="path1033" />
      <path
         d="m 40.109056,82.823068 q 0,-0.482313 -0.0913,-0.678683 -0.08957,-0.198093 -0.303168,-0.198093 -0.213596,0 -0.304891,0.198093 -0.0913,0.19637 -0.0913,0.678683 0,0.487481 0.0913,0.687297 0.09129,0.199816 0.304891,0.199816 0.211873,0 0.303168,-0.199816 0.0913,-0.199816 0.0913,-0.687297 z m 0.663181,0.0052 q 0,0.639065 -0.275608,0.98702 -0.275607,0.346232 -0.782036,0.346232 -0.508152,0 -0.78376,-0.346232 -0.275607,-0.347955 -0.275607,-0.98702 0,-0.640788 0.275607,-0.98702 0.275608,-0.347954 0.78376,-0.347954 0.506429,0 0.782036,0.347954 0.275608,0.346232 0.275608,0.98702 z"
         style="font-style:normal;font-variant:normal;font-weight:bold;font-stretch:normal;font-size:3.52777767px;font-family:sans-serif;-inkscape-font-specification:'sans-serif Bold';fill:none;stroke:#ff00ff;stroke-width:0.26458332"
         id="path1035" />
    </g>
    <g
       aria-label="90"
       style="font-style:normal;font-weight:normal;font-size:10.58333302px;line-height:1.25;font-family:sans-serif;letter-spacing:0px;word-spacing:0px;fill:none;fill-opacity:1;stroke:#ff00ff;stroke-width:0.26458332"
       id="text959">
      <path
         d="m 39.587436,71.789729 v -0.475423 q 0.158475,0.07407 0.303169,0.111965 0.144694,0.03617 0.285943,0.03617 0.296278,0 0.461642,-0.163642 0.165365,-0.165365 0.194648,-0.489204 -0.117133,0.08613 -0.249769,0.129191 -0.132636,0.04306 -0.287666,0.04306 -0.394463,0 -0.637342,-0.229099 -0.241157,-0.230821 -0.241157,-0.606337 0,-0.415134 0.268717,-0.664903 0.27044,-0.24977 0.72347,-0.24977 0.502984,0 0.778592,0.339342 0.275608,0.339342 0.275608,0.959459 0,0.637343 -0.322117,1.002523 -0.322116,0.363458 -0.883667,0.363458 -0.180867,0 -0.346232,-0.02756 -0.165364,-0.02584 -0.323839,-0.07924 z m 0.81821,-1.238512 q 0.173978,0 0.261828,-0.111966 0.08785,-0.113688 0.08785,-0.339341 0,-0.223932 -0.08785,-0.33762 -0.08785,-0.113688 -0.261828,-0.113688 -0.173977,0 -0.261827,0.113688 -0.08785,0.113688 -0.08785,0.33762 0,0.225653 0.08785,0.339341 0.08785,0.111966 0.261827,0.111966 z"
         style="font-style:normal;font-variant:normal;font-weight:bold;font-stretch:normal;font-size:3.52777767px;font-family:sans-serif;-inkscape-font-specification:'sans-serif Bold';fill:none;stroke:#ff00ff;stroke-width:0.26458332"
         id="path1038" />
      <path
         d="m 43.309862,70.558107 q 0,-0.482313 -0.0913,-0.678684 -0.08957,-0.198093 -0.303169,-0.198093 -0.213596,0 -0.304891,0.198093 -0.09129,0.196371 -0.09129,0.678684 0,0.487481 0.09129,0.687297 0.0913,0.199815 0.304891,0.199815 0.211874,0 0.303169,-0.199815 0.0913,-0.199816 0.0913,-0.687297 z m 0.663181,0.0052 q 0,0.639065 -0.275608,0.98702 -0.275608,0.346232 -0.782037,0.346232 -0.508151,0 -0.783759,-0.346232 -0.275608,-0.347955 -0.275608,-0.98702 0,-0.640788 0.275608,-0.98702 0.275608,-0.347955 0.783759,-0.347955 0.506429,0 0.782037,0.347955 0.275608,0.346232 0.275608,0.98702 z"
         style="font-style:normal;font-variant:normal;font-weight:bold;font-stretch:normal;font-size:3.52777767px;font-family:sans-serif;-inkscape-font-specification:'sans-serif Bold';fill:none;stroke:#ff00ff;stroke-width:0.26458332"
         id="path1040" />
    </g>
    <g
       aria-label="120"
       style="font-style:normal;font-weight:normal;font-size:10.58333302px;line-height:1.25;font-family:sans-serif;letter-spacing:0px;word-spacing:0px;fill:none;fill-opacity:1;stroke:#ff00ff;stroke-width:0.26458332"
       id="text963">
      <path
         d="m 44.796884,63.786309 h 0.585666 v -1.662258 l -0.601169,0.124023 v -0.451307 l 0.597724,-0.124024 h 0.630452 v 2.113566 h 0.585667 v 0.458198 h -1.79834 z"
         style="font-style:normal;font-variant:normal;font-weight:bold;font-stretch:normal;font-size:3.52777767px;font-family:sans-serif;-inkscape-font-specification:'sans-serif Bold';fill:none;stroke:#ff00ff;stroke-width:0.26458332"
         id="path1043" />
      <path
         d="m 47.852683,63.757026 h 1.131714 v 0.487481 h -1.868964 v -0.487481 l 0.938788,-0.828546 q 0.125746,-0.113688 0.186036,-0.222208 0.06029,-0.108521 0.06029,-0.225654 0,-0.180868 -0.122301,-0.291111 -0.120578,-0.110243 -0.322117,-0.110243 -0.155029,0 -0.339341,0.06718 -0.184313,0.06546 -0.394464,0.19637 v -0.564995 q 0.223931,-0.07407 0.442695,-0.111966 0.218763,-0.03962 0.428914,-0.03962 0.461643,0 0.71658,0.203261 0.25666,0.203261 0.25666,0.566718 0,0.210151 -0.108521,0.392741 -0.10852,0.180868 -0.456475,0.485758 z"
         style="font-style:normal;font-variant:normal;font-weight:bold;font-stretch:normal;font-size:3.52777767px;font-family:sans-serif;-inkscape-font-specification:'sans-serif Bold';fill:none;stroke:#ff00ff;stroke-width:0.26458332"
         id="path1045" />
      <path
         d="m 50.911928,62.956041 q 0,-0.482313 -0.0913,-0.678684 -0.08957,-0.198093 -0.303168,-0.198093 -0.213596,0 -0.304891,0.198093 -0.09129,0.196371 -0.09129,0.678684 0,0.487481 0.09129,0.687297 0.0913,0.199815 0.304891,0.199815 0.211873,0 0.303168,-0.199815 0.0913,-0.199816 0.0913,-0.687297 z m 0.663181,0.0052 q 0,0.639065 -0.275608,0.98702 -0.275607,0.346232 -0.782036,0.346232 -0.508152,0 -0.78376,-0.346232 -0.275607,-0.347955 -0.275607,-0.98702 0,-0.640788 0.275607,-0.98702 0.275608,-0.347955 0.78376,-0.347955 0.506429,0 0.782036,0.347955 0.275608,0.346232 0.275608,0.98702 z"
         style="font-style:normal;font-variant:normal;font-weight:bold;font-stretch:normal;font-size:3.52777767px;font-family:sans-serif;-inkscape-font-specification:'sans-serif Bold';fill:none;stroke:#ff00ff;stroke-width:0.26458332"
         id="path1047" />
    </g>
    <g
       aria-label="150"
       style="font-style:normal;font-weight:normal;font-size:10.58333302px;line-height:1.25;font-family:sans-serif;letter-spacing:0px;word-spacing:0px;fill:none;fill-opacity:1;stroke:#ff00ff;stroke-width:0.26458332"
       id="text967">
      <path
         d="m 59.124593,60.585507 h 0.585666 v -1.662258 l -0.601169,0.124023 v -0.451307 l 0.597724,-0.124024 h 0.630453 v 2.113566 h 0.585666 v 0.458198 h -1.79834 z"
         style="font-style:normal;font-variant:normal;font-weight:bold;font-stretch:normal;font-size:3.52777767px;font-family:sans-serif;-inkscape-font-specification:'sans-serif Bold';fill:none;stroke:#ff00ff;stroke-width:0.26458332"
         id="path1050" />
      <path
         d="m 61.537882,58.471941 h 1.648478 v 0.487481 h -1.119656 v 0.397909 q 0.07579,-0.02067 0.151585,-0.03101 0.07751,-0.01206 0.160197,-0.01206 0.470255,0 0.732082,0.235989 0.261828,0.234267 0.261828,0.654568 0,0.416857 -0.285943,0.652846 -0.284221,0.235989 -0.79065,0.235989 -0.218763,0 -0.434082,-0.04306 -0.213596,-0.04134 -0.425469,-0.127468 v -0.521932 q 0.210151,0.120578 0.397908,0.180867 0.189481,0.06029 0.356568,0.06029 0.241157,0 0.37896,-0.117133 0.139527,-0.118856 0.139527,-0.320394 0,-0.20326 -0.139527,-0.320394 -0.137803,-0.117133 -0.37896,-0.117133 -0.142972,0 -0.304891,0.0379 -0.16192,0.03617 -0.347955,0.113688 z"
         style="font-style:normal;font-variant:normal;font-weight:bold;font-stretch:normal;font-size:3.52777767px;font-family:sans-serif;-inkscape-font-specification:'sans-serif Bold';fill:none;stroke:#ff00ff;stroke-width:0.26458332"
         id="path1052" />
      <path
         d="m 65.239637,59.755239 q 0,-0.482313 -0.0913,-0.678683 -0.08957,-0.198093 -0.303168,-0.198093 -0.213596,0 -0.304891,0.198093 -0.0913,0.19637 -0.0913,0.678683 0,0.487481 0.0913,0.687297 0.0913,0.199815 0.304891,0.199815 0.211873,0 0.303168,-0.199815 0.0913,-0.199816 0.0913,-0.687297 z m 0.663181,0.0052 q 0,0.639065 -0.275608,0.98702 -0.275607,0.346232 -0.782036,0.346232 -0.508152,0 -0.783759,-0.346232 -0.275608,-0.347955 -0.275608,-0.98702 0,-0.640788 0.275608,-0.98702 0.275607,-0.347955 0.783759,-0.347955 0.506429,0 0.782036,0.347955 0.275608,0.346232 0.275608,0.98702 z"
         style="font-style:normal;font-variant:normal;font-weight:bold;font-stretch:normal;font-size:3.52777767px;font-family:sans-serif;-inkscape-font-specification:'sans-serif Bold';fill:none;stroke:#ff00ff;stroke-width:0.26458332"
         id="path1054" />
    </g>
    <g
       aria-label="180"
       style="font-style:normal;font-weight:normal;font-size:10.58333302px;line-height:1.25;font-family:sans-serif;letter-spacing:0px;word-spacing:0px;fill:none;fill-opacity:1;stroke:#ff00ff;stroke-width:0.26458332"
       id="text971">
      <path
         d="m 73.452298,63.786317 h 0.585667 v -1.662259 l -0.601169,0.124024 v -0.451308 l 0.597724,-0.124023 h 0.630452 v 2.113566 h 0.585666 v 0.458197 h -1.79834 z"
         style="font-style:normal;font-variant:normal;font-weight:bold;font-stretch:normal;font-size:3.52777767px;font-family:sans-serif;-inkscape-font-specification:'sans-serif Bold';fill:none;stroke:#ff00ff;stroke-width:0.26458332"
         id="path1057" />
      <path
         d="m 76.719971,63.093853 q -0.186035,0 -0.285943,0.10163 -0.09991,0.10163 -0.09991,0.29111 0,0.189481 0.09991,0.291111 0.09991,0.09991 0.285943,0.09991 0.184313,0 0.282498,-0.09991 0.09819,-0.10163 0.09819,-0.291111 0,-0.191202 -0.09819,-0.29111 -0.09819,-0.10163 -0.282498,-0.10163 z m -0.484036,-0.218764 q -0.234266,-0.07062 -0.353122,-0.217041 -0.118856,-0.146417 -0.118856,-0.36518 0,-0.325562 0.24288,-0.496094 0.242879,-0.170532 0.713134,-0.170532 0.466811,0 0.70969,0.170532 0.242879,0.16881 0.242879,0.496094 0,0.218763 -0.120578,0.36518 -0.118856,0.146417 -0.353122,0.217041 0.261827,0.07235 0.394463,0.235989 0.134359,0.16192 0.134359,0.409966 0,0.382406 -0.254937,0.578776 -0.253215,0.194648 -0.752754,0.194648 -0.501261,0 -0.757921,-0.194648 -0.254937,-0.19637 -0.254937,-0.578776 0,-0.248046 0.132636,-0.409966 0.134359,-0.163642 0.396186,-0.235989 z m 0.15503,-0.515042 q 0,0.153307 0.08441,0.235989 0.08613,0.08268 0.244601,0.08268 0.15503,0 0.239434,-0.08268 0.0844,-0.08268 0.0844,-0.235989 0,-0.153306 -0.0844,-0.234266 -0.0844,-0.08268 -0.239434,-0.08268 -0.158474,0 -0.244601,0.08268 -0.08441,0.08268 -0.08441,0.234266 z"
         style="font-style:normal;font-variant:normal;font-weight:bold;font-stretch:normal;font-size:3.52777767px;font-family:sans-serif;-inkscape-font-specification:'sans-serif Bold';fill:none;stroke:#ff00ff;stroke-width:0.26458332"
         id="path1059" />
      <path
         d="m 79.567343,62.956049 q 0,-0.482314 -0.09129,-0.678684 -0.08957,-0.198093 -0.303169,-0.198093 -0.213596,0 -0.304891,0.198093 -0.0913,0.19637 -0.0913,0.678684 0,0.487481 0.0913,0.687296 0.0913,0.199816 0.304891,0.199816 0.211873,0 0.303169,-0.199816 0.09129,-0.199815 0.09129,-0.687296 z m 0.66318,0.0052 q 0,0.639066 -0.275607,0.98702 -0.275608,0.346232 -0.782037,0.346232 -0.508151,0 -0.783759,-0.346232 -0.275608,-0.347954 -0.275608,-0.98702 0,-0.640787 0.275608,-0.987019 0.275608,-0.347955 0.783759,-0.347955 0.506429,0 0.782037,0.347955 0.275607,0.346232 0.275607,0.987019 z"
         style="font-style:normal;font-variant:normal;font-weight:bold;font-stretch:normal;font-size:3.52777767px;font-family:sans-serif;-inkscape-font-specification:'sans-serif Bold';fill:none;stroke:#ff00ff;stroke-width:0.26458332"
         id="path1061" />
    </g>
    <g
       aria-label="210"
       style="font-style:normal;font-weight:normal;font-size:10.58333302px;line-height:1.25;font-family:sans-serif;letter-spacing:0px;word-spacing:0px;fill:none;fill-opacity:1;stroke:#ff00ff;stroke-width:0.26458332"
       id="text975">
      <path
         d="m 81.776115,71.3591 h 1.131713 v 0.487481 H 81.038864 V 71.3591 l 0.938789,-0.828546 q 0.125746,-0.113688 0.186035,-0.222209 0.06029,-0.10852 0.06029,-0.225653 0,-0.180868 -0.122301,-0.291111 -0.120578,-0.110243 -0.322116,-0.110243 -0.15503,0 -0.339342,0.06718 -0.184313,0.06546 -0.394464,0.196371 v -0.564996 q 0.223932,-0.07407 0.442695,-0.111965 0.218764,-0.03962 0.428914,-0.03962 0.461643,0 0.71658,0.203261 0.25666,0.20326 0.25666,0.566718 0,0.210151 -0.108521,0.392741 -0.10852,0.180867 -0.456475,0.485758 z"
         style="font-style:normal;font-variant:normal;font-weight:bold;font-stretch:normal;font-size:3.52777767px;font-family:sans-serif;-inkscape-font-specification:'sans-serif Bold';fill:none;stroke:#ff00ff;stroke-width:0.26458332"
         id="path1064" />
      <path
         d="m 83.626131,71.388383 h 0.585666 v -1.662259 l -0.601169,0.124024 V 69.39884 l 0.597724,-0.124023 h 0.630452 v 2.113566 h 0.585666 v 0.458198 h -1.798339 z"
         style="font-style:normal;font-variant:normal;font-weight:bold;font-stretch:normal;font-size:3.52777767px;font-family:sans-serif;-inkscape-font-specification:'sans-serif Bold';fill:none;stroke:#ff00ff;stroke-width:0.26458332"
         id="path1066" />
      <path
         d="m 87.288267,70.558115 q 0,-0.482314 -0.0913,-0.678684 -0.08957,-0.198093 -0.303168,-0.198093 -0.213596,0 -0.304891,0.198093 -0.0913,0.19637 -0.0913,0.678684 0,0.487481 0.0913,0.687296 0.09129,0.199816 0.304891,0.199816 0.211873,0 0.303168,-0.199816 0.0913,-0.199815 0.0913,-0.687296 z m 0.663181,0.0052 q 0,0.639066 -0.275608,0.98702 -0.275607,0.346232 -0.782036,0.346232 -0.508152,0 -0.78376,-0.346232 -0.275607,-0.347954 -0.275607,-0.98702 0,-0.640787 0.275607,-0.987019 0.275608,-0.347955 0.78376,-0.347955 0.506429,0 0.782036,0.347955 0.275608,0.346232 0.275608,0.987019 z"
         style="font-style:normal;font-variant:normal;font-weight:bold;font-stretch:normal;font-size:3.52777767px;font-family:sans-serif;-inkscape-font-specification:'sans-serif Bold';fill:none;stroke:#ff00ff;stroke-width:0.26458332"
         id="path1068" />
    </g>
    <g
       aria-label="240"
       style="font-style:normal;font-weight:normal;font-size:10.58333302px;line-height:1.25;font-family:sans-serif;letter-spacing:0px;word-spacing:0px;fill:none;fill-opacity:1;stroke:#ff00ff;stroke-width:0.26458332"
       id="text979">
      <path
         d="m 84.97692,83.624053 h 1.131714 v 0.487481 H 84.23967 v -0.487481 l 0.938788,-0.828545 q 0.125746,-0.113688 0.186035,-0.222209 0.06029,-0.10852 0.06029,-0.225654 0,-0.180867 -0.122301,-0.29111 -0.120579,-0.110243 -0.322117,-0.110243 -0.155029,0 -0.339342,0.06718 -0.184312,0.06546 -0.394463,0.19637 v -0.564995 q 0.223931,-0.07407 0.442695,-0.111966 0.218763,-0.03962 0.428914,-0.03962 0.461643,0 0.71658,0.20326 0.25666,0.203261 0.25666,0.566718 0,0.210151 -0.108521,0.392741 -0.10852,0.180868 -0.456475,0.485759 z"
         style="font-style:normal;font-variant:normal;font-weight:bold;font-stretch:normal;font-size:3.52777767px;font-family:sans-serif;-inkscape-font-specification:'sans-serif Bold';fill:none;stroke:#ff00ff;stroke-width:0.26458332"
         id="path1071" />
      <path
         d="m 87.712326,82.085818 -0.726915,1.076592 h 0.726915 z M 87.602083,81.53977 h 0.73725 v 1.62264 h 0.366903 v 0.480591 h -0.366903 v 0.468533 H 87.712326 V 83.643001 H 86.571999 V 83.07456 Z"
         style="font-style:normal;font-variant:normal;font-weight:bold;font-stretch:normal;font-size:3.52777767px;font-family:sans-serif;-inkscape-font-specification:'sans-serif Bold';fill:none;stroke:#ff00ff;stroke-width:0.26458332"
         id="path1073" />
      <path
         d="m 90.489073,82.823068 q 0,-0.482313 -0.0913,-0.678683 -0.08957,-0.198093 -0.303169,-0.198093 -0.213596,0 -0.304891,0.198093 -0.09129,0.19637 -0.09129,0.678683 0,0.487481 0.09129,0.687297 0.0913,0.199816 0.304891,0.199816 0.211874,0 0.303169,-0.199816 0.0913,-0.199816 0.0913,-0.687297 z m 0.66318,0.0052 q 0,0.639065 -0.275607,0.98702 -0.275608,0.346232 -0.782037,0.346232 -0.508151,0 -0.783759,-0.346232 -0.275608,-0.347955 -0.275608,-0.98702 0,-0.640788 0.275608,-0.98702 0.275608,-0.347954 0.783759,-0.347954 0.506429,0 0.782037,0.347954 0.275607,0.346232 0.275607,0.98702 z"
         style="font-style:normal;font-variant:normal;font-weight:bold;font-stretch:normal;font-size:3.52777767px;font-family:sans-serif;-inkscape-font-specification:'sans-serif Bold';fill:none;stroke:#ff00ff;stroke-width:0.26458332"
         id="path1075" />
    </g>
    <g
       aria-label="270"
       style="font-style:normal;font-weight:normal;font-size:10.58333302px;line-height:1.25;font-family:sans-serif;letter-spacing:0px;word-spacing:0px;fill:none;fill-opacity:1;stroke:#ff00ff;stroke-width:0.26458332"
       id="text983">
      <path
         d="m 81.776115,95.889014 h 1.131713 v 0.487481 h -1.868964 v -0.487481 l 0.938789,-0.828545 q 0.125746,-0.113688 0.186035,-0.222209 0.06029,-0.10852 0.06029,-0.225653 0,-0.180868 -0.122301,-0.291111 -0.120578,-0.110243 -0.322116,-0.110243 -0.15503,0 -0.339342,0.06718 -0.184313,0.06546 -0.394464,0.196371 v -0.564996 q 0.223932,-0.07407 0.442695,-0.111966 0.218764,-0.03962 0.428914,-0.03962 0.461643,0 0.71658,0.20326 0.25666,0.203261 0.25666,0.566719 0,0.210151 -0.108521,0.392741 -0.10852,0.180867 -0.456475,0.485758 z"
         style="font-style:normal;font-variant:normal;font-weight:bold;font-stretch:normal;font-size:3.52777767px;font-family:sans-serif;-inkscape-font-specification:'sans-serif Bold';fill:none;stroke:#ff00ff;stroke-width:0.26458332"
         id="path1078" />
      <path
         d="m 83.448708,93.804732 h 1.937866 v 0.373793 l -1.002522,2.19797 h -0.645956 l 0.949124,-2.084282 h -1.238512 z"
         style="font-style:normal;font-variant:normal;font-weight:bold;font-stretch:normal;font-size:3.52777767px;font-family:sans-serif;-inkscape-font-specification:'sans-serif Bold';fill:none;stroke:#ff00ff;stroke-width:0.26458332"
         id="path1080" />
      <path
         d="m 87.288267,95.08803 q 0,-0.482314 -0.0913,-0.678684 -0.08957,-0.198093 -0.303168,-0.198093 -0.213596,0 -0.304891,0.198093 -0.0913,0.19637 -0.0913,0.678684 0,0.487481 0.0913,0.687296 0.09129,0.199816 0.304891,0.199816 0.211873,0 0.303168,-0.199816 0.0913,-0.199815 0.0913,-0.687296 z m 0.663181,0.0052 q 0,0.639066 -0.275608,0.98702 -0.275607,0.346232 -0.782036,0.346232 -0.508152,0 -0.78376,-0.346232 -0.275607,-0.347954 -0.275607,-0.98702 0,-0.640787 0.275607,-0.987019 0.275608,-0.347955 0.78376,-0.347955 0.506429,0 0.782036,0.347955 0.275608,0.346232 0.275608,0.987019 z"
         style="font-style:normal;font-variant:normal;font-weight:bold;font-stretch:normal;font-size:3.52777767px;font-family:sans-serif;-inkscape-font-specification:'sans-serif Bold';fill:none;stroke:#ff00ff;stroke-width:0.26458332"
         id="path1082" />
    </g>
    <g
       aria-label="300"
       style="font-style:normal;font-weight:normal;font-size:10.58333302px;line-height:1.25;font-family:sans-serif;letter-spacing:0px;word-spacing:0px;fill:none;fill-opacity:1;stroke:#ff00ff;stroke-width:0.26458332"
       id="text987">
      <path
         d="m 74.844116,102.59191 q 0.260105,0.0672 0.394464,0.23427 0.136081,0.16536 0.136081,0.42202 0,0.38241 -0.292833,0.58222 -0.292833,0.1981 -0.854384,0.1981 -0.198093,0 -0.397908,-0.0327 -0.198093,-0.031 -0.392741,-0.0947 v -0.5116 q 0.186035,0.093 0.368625,0.14125 0.184313,0.0465 0.361735,0.0465 0.26355,0 0.403076,-0.0913 0.141249,-0.0913 0.141249,-0.26182 0,-0.1757 -0.144694,-0.26528 -0.142971,-0.0913 -0.423747,-0.0913 h -0.265272 v -0.42719 h 0.279053 q 0.249769,0 0.37207,-0.0775 0.122301,-0.0792 0.122301,-0.23943 0,-0.14814 -0.118856,-0.2291 -0.118856,-0.081 -0.335897,-0.081 -0.160197,0 -0.323839,0.0362 -0.163642,0.0362 -0.325561,0.1068 v -0.48576 q 0.19637,-0.0551 0.389296,-0.0827 0.192925,-0.0276 0.37896,-0.0276 0.501261,0 0.749308,0.16536 0.24977,0.16365 0.24977,0.49437 0,0.22566 -0.118856,0.37035 -0.118856,0.14297 -0.3514,0.20154 z"
         style="font-style:normal;font-variant:normal;font-weight:bold;font-stretch:normal;font-size:3.52777767px;font-family:sans-serif;-inkscape-font-specification:'sans-serif Bold';fill:none;stroke:#ff00ff;stroke-width:0.26458332"
         id="path1085" />
      <path
         d="m 77.276353,102.6901 q 0,-0.48232 -0.0913,-0.67869 -0.08957,-0.19809 -0.303168,-0.19809 -0.213596,0 -0.304891,0.19809 -0.0913,0.19637 -0.0913,0.67869 0,0.48748 0.0913,0.68729 0.0913,0.19982 0.304891,0.19982 0.211873,0 0.303168,-0.19982 0.0913,-0.19981 0.0913,-0.68729 z m 0.663181,0.005 q 0,0.63907 -0.275607,0.98702 -0.275608,0.34624 -0.782037,0.34624 -0.508152,0 -0.783759,-0.34624 -0.275608,-0.34795 -0.275608,-0.98702 0,-0.64078 0.275608,-0.98702 0.275607,-0.34795 0.783759,-0.34795 0.506429,0 0.782037,0.34795 0.275607,0.34624 0.275607,0.98702 z"
         style="font-style:normal;font-variant:normal;font-weight:bold;font-stretch:normal;font-size:3.52777767px;font-family:sans-serif;-inkscape-font-specification:'sans-serif Bold';fill:none;stroke:#ff00ff;stroke-width:0.26458332"
         id="path1087" />
      <path
         d="m 79.729261,102.6901 q 0,-0.48232 -0.09129,-0.67869 -0.08957,-0.19809 -0.303168,-0.19809 -0.213596,0 -0.304891,0.19809 -0.09129,0.19637 -0.09129,0.67869 0,0.48748 0.09129,0.68729 0.0913,0.19982 0.304891,0.19982 0.211873,0 0.303168,-0.19982 0.09129,-0.19981 0.09129,-0.68729 z m 0.663181,0.005 q 0,0.63907 -0.275608,0.98702 -0.275607,0.34624 -0.782036,0.34624 -0.508152,0 -0.783759,-0.34624 -0.275608,-0.34795 -0.275608,-0.98702 0,-0.64078 0.275608,-0.98702 0.275607,-0.34795 0.783759,-0.34795 0.506429,0 0.782036,0.34795 0.275608,0.34624 0.275608,0.98702 z"
         style="font-style:normal;font-variant:normal;font-weight:bold;font-stretch:normal;font-size:3.52777767px;font-family:sans-serif;-inkscape-font-specification:'sans-serif Bold';fill:none;stroke:#ff00ff;stroke-width:0.26458332"
         id="path1089" />
    </g>
    <path
       style="fill:none;fill-opacity:1;stroke:#0000ff;stroke-width:0.26458332;stroke-linecap:round;stroke-linejoin:miter;stroke-miterlimit:4;stroke-dasharray:none;stroke-opacity:1;paint-order:fill markers stroke"
       d="m 56.305952,82.827377 a 1.6,1.6 0 0 1 -1.6,1.6 1.6,1.6 0 0 1 -1.6,-1.6 1.6,1.6 0 0 1 1.6,-1.6 1.6,1.6 0 0 1 1.6,1.6 z"
       id="path878" />
    <path
       style="fill:none;fill-opacity:1;stroke:#0000ff;stroke-width:0.26458332;stroke-linecap:round;stroke-linejoin:miter;stroke-miterlimit:4;stroke-dasharray:none;stroke-opacity:1;paint-order:fill markers stroke"
       d="m 66.255951,82.827377 a 3.75,3.75 0 0 1 -3.75,3.75 3.75,3.75 0 0 1 -3.75,-3.75 3.75,3.75 0 0 1 3.75,-3.75 3.75,3.75 0 0 1 3.75,3.75 z"
       id="circle880" />
  </g>
</svg>
