  0
SECTION
  2
HEADER
  9
$ACADVER
  1
AC1014
  9
$HANDSEED
  5
FFFF
  9
$MEASUREMENT
 70
     1
  0
ENDSEC
  0
SECTION
  2
TABLES
  0
TABLE
  2
VPORT
  5
8
330
0
100
AcDbSymbolTable
 70
     4
  0
VPORT
  5
2E
330
8
100
AcDbSymbolTableRecord
100
AcDbViewportTableRecord
  2
*ACTIVE
 70
     0
 10
0.0
 20
0.0
 11
1.0
 21
1.0
 12
210.0
 22
148.5
 13
0.0
 23
0.0
 14
10.0
 24
10.0
 15
10.0
 25
10.0
 16
0.0
 26
0.0
 36
1.0
 17
0.0
 27
0.0
 37
0.0
 40
341.0
 41
1.24
 42
50.0
 43
0.0
 44
0.0
 50
0.0
 51
0.0
 71
     0
 72
   100
 73
     1
 74
     3
 75
     0
 76
     0
 77
     0
 78
     0
  0
ENDTAB
  0
TABLE
  2
LTYPE
  5
5
330
0
100
AcDbSymbolTable
 70
     1
  0
LTYPE
  5
14
330
5
100
AcDbSymbolTableRecord
100
AcDbLinetypeTableRecord
  2
BYBLOCK
 70
     0
  3

 72
    65
 73
     0
 40
0.0
  0
LTYPE
  5
15
330
5
100
AcDbSymbolTableRecord
100
AcDbLinetypeTableRecord
  2
BYLAYER
 70
     0
  3

 72
    65
 73
     0
 40
0.0
  0
LTYPE
  5
16
330
5
100
AcDbSymbolTableRecord
100
AcDbLinetypeTableRecord
  2
CONTINUOUS
 70
     0
  3
Solid line
 72
    65
 73
     0
 40
0.0
  0
ENDTAB
  0
TABLE
  2
LAYER
  5
2
100
AcDbSymbolTable
 70
2
  0
LAYER
  5
50
100
AcDbSymbolTableRecord
100
AcDbLayerTableRecord
  2
0
 70
0
  6
CONTINUOUS
  0
LAYER
  5
51
100
AcDbSymbolTableRecord
100
AcDbLayerTableRecord
  2
Calque_1
 70
0
  6
CONTINUOUS
  0
ENDTAB
  0
TABLE
  2
STYLE
  5
3
330
0
100
AcDbSymbolTable
 70
     1
  0
STYLE
  5
11
330
3
100
AcDbSymbolTableRecord
100
AcDbTextStyleTableRecord
  2
STANDARD
 70
     0
 40
0.0
 41
1.0
 50
0.0
 71
     0
 42
2.5
  3
txt
  4

  0
ENDTAB
  0
TABLE
  2
VIEW
  5
6
330
0
100
AcDbSymbolTable
 70
     0
  0
ENDTAB
  0
TABLE
  2
UCS
  5
7
330
0
100
AcDbSymbolTable
 70
     0
  0
ENDTAB
  0
TABLE
  2
APPID
  5
9
330
0
100
AcDbSymbolTable
 70
     2
  0
APPID
  5
12
330
9
100
AcDbSymbolTableRecord
100
AcDbRegAppTableRecord
  2
ACAD
 70
     0
  0
ENDTAB
  0
TABLE
  2
DIMSTYLE
  5
A
330
0
100
AcDbSymbolTable
 70
     1
  0
DIMSTYLE
105
27
330
A
100
AcDbSymbolTableRecord
100
AcDbDimStyleTableRecord
  2
ISO-25
 70
     0
  3

  4

  5

  6

  7

 40
1.0
 41
2.5
 42
0.625
 43
3.75
 44
1.25
 45
0.0
 46
0.0
 47
0.0
 48
0.0
140
2.5
141
2.5
142
0.0
143
0.03937007874016
144
1.0
145
0.0
146
1.0
147
0.625
 71
     0
 72
     0
 73
     0
 74
     0
 75
     0
 76
     0
 77
     1
 78
     8
170
     0
171
     3
172
     1
173
     0
174
     0
175
     0
176
     0
177
     0
178
     0
270
     2
271
     2
272
     2
273
     2
274
     3
340
11
275
     0
280
     0
281
     0
282
     0
283
     0
284
     8
285
     0
286
     0
287
     3
288
     0
  0
ENDTAB
  0
TABLE
  2
BLOCK_RECORD
  5
1
330
0
100
AcDbSymbolTable
 70
     1
  0
BLOCK_RECORD
  5
1F
330
1
100
AcDbSymbolTableRecord
100
AcDbBlockTableRecord
  2
*MODEL_SPACE
  0
BLOCK_RECORD
  5
1B
330
1
100
AcDbSymbolTableRecord
100
AcDbBlockTableRecord
  2
*PAPER_SPACE
  0
ENDTAB
  0
ENDSEC
  0
SECTION
  2
BLOCKS
  0
BLOCK
  5
20
330
1F
100
AcDbEntity
  8
0
100
AcDbBlockBegin
  2
*MODEL_SPACE
 70
     0
 10
0.0
 20
0.0
 30
0.0
  3
*MODEL_SPACE
  1

  0
ENDBLK
  5
21
330
1F
100
AcDbEntity
  8
0
100
AcDbBlockEnd
  0
BLOCK
  5
1C
330
1B
100
AcDbEntity
 67
     1
  8
0
100
AcDbBlockBegin
  2
*PAPER_SPACE
  1

  0
ENDBLK
  5
1D
330
1B
100
AcDbEntity
 67
     1
  8
0
100
AcDbBlockEnd
  0
ENDSEC
  0
SECTION
  2
ENTITIES
  0
LINE
  5
100
100
AcDbEntity
  8
Calque_1
 62
3
100
AcDbLine
 10
5.132292
 20
60.132293
 30
0.0
 11
55.132292
 21
60.132293
 31
0.0
  0
SPLINE
  5
101
100
AcDbEntity
  8
Calque_1
 62
3
100
AcDbSpline
 70
8
 71
3
 72
8
 73
4
 74
0
 40
0
 40
0
 40
0
 40
0
 40
1
 40
1
 40
1
 40
1
 10
55.132292
 20
60.132293
 30
0.0
 10
57.902292
 20
60.132293
 30
0.0
 10
60.132292
 20
57.902293
 30
0.0
 10
60.132292
 20
55.132293
 30
0.0
  0
LINE
  5
102
100
AcDbEntity
  8
Calque_1
 62
3
100
AcDbLine
 10
60.132292
 20
55.132293
 30
0.0
 11
60.132292
 21
5.132290
 31
0.0
  0
SPLINE
  5
103
100
AcDbEntity
  8
Calque_1
 62
3
100
AcDbSpline
 70
8
 71
3
 72
8
 73
4
 74
0
 40
0
 40
0
 40
0
 40
0
 40
1
 40
1
 40
1
 40
1
 10
60.132292
 20
5.132290
 30
0.0
 10
60.132292
 20
2.362290
 30
0.0
 10
57.902292
 20
0.132290
 30
0.0
 10
55.132292
 20
0.132290
 30
0.0
  0
LINE
  5
104
100
AcDbEntity
  8
Calque_1
 62
3
100
AcDbLine
 10
55.132292
 20
0.132290
 30
0.0
 11
5.132292
 21
0.132290
 31
0.0
  0
SPLINE
  5
105
100
AcDbEntity
  8
Calque_1
 62
3
100
AcDbSpline
 70
8
 71
3
 72
8
 73
4
 74
0
 40
0
 40
0
 40
0
 40
0
 40
1
 40
1
 40
1
 40
1
 10
5.132292
 20
0.132290
 30
0.0
 10
2.362292
 20
0.132290
 30
0.0
 10
0.132292
 20
2.362290
 30
0.0
 10
0.132292
 20
5.132290
 30
0.0
  0
LINE
  5
106
100
AcDbEntity
  8
Calque_1
 62
3
100
AcDbLine
 10
0.132292
 20
5.132290
 30
0.0
 11
0.132292
 21
55.132293
 31
0.0
  0
SPLINE
  5
107
100
AcDbEntity
  8
Calque_1
 62
3
100
AcDbSpline
 70
8
 71
3
 72
8
 73
4
 74
0
 40
0
 40
0
 40
0
 40
0
 40
1
 40
1
 40
1
 40
1
 10
0.132292
 20
55.132293
 30
0.0
 10
0.132292
 20
57.902293
 30
0.0
 10
2.362292
 20
60.132293
 30
0.0
 10
5.132292
 20
60.132293
 30
0.0
  0
LINE
  5
108
100
AcDbEntity
  8
Calque_1
 62
3
100
AcDbLine
 10
5.132292
 20
60.132293
 30
0.0
 11
5.132292
 21
60.132293
 31
0.0
  0
SPLINE
  5
109
100
AcDbEntity
  8
Calque_1
 62
5
100
AcDbSpline
 70
8
 71
3
 72
8
 73
4
 74
0
 40
0
 40
0
 40
0
 40
0
 40
1
 40
1
 40
1
 40
1
 10
6.332290
 20
55.432292
 30
0.0
 10
6.332290
 20
55.034467
 30
0.0
 10
6.163719
 20
54.652936
 30
0.0
 10
5.863661
 20
54.371632
 30
0.0
  0
SPLINE
  5
10a
100
AcDbEntity
  8
Calque_1
 62
5
100
AcDbSpline
 70
8
 71
3
 72
8
 73
4
 74
0
 40
0
 40
0
 40
0
 40
0
 40
1
 40
1
 40
1
 40
1
 10
5.863661
 20
54.371632
 30
0.0
 10
5.563603
 20
54.090327
 30
0.0
 10
5.156636
 20
53.932292
 30
0.0
 10
4.732290
 20
53.932292
 30
0.0
  0
SPLINE
  5
10b
100
AcDbEntity
  8
Calque_1
 62
5
100
AcDbSpline
 70
8
 71
3
 72
8
 73
4
 74
0
 40
0
 40
0
 40
0
 40
0
 40
1
 40
1
 40
1
 40
1
 10
4.732290
 20
53.932292
 30
0.0
 10
4.307944
 20
53.932292
 30
0.0
 10
3.900977
 20
54.090327
 30
0.0
 10
3.600919
 20
54.371632
 30
0.0
  0
SPLINE
  5
10c
100
AcDbEntity
  8
Calque_1
 62
5
100
AcDbSpline
 70
8
 71
3
 72
8
 73
4
 74
0
 40
0
 40
0
 40
0
 40
0
 40
1
 40
1
 40
1
 40
1
 10
3.600919
 20
54.371632
 30
0.0
 10
3.300861
 20
54.652936
 30
0.0
 10
3.132290
 20
55.034467
 30
0.0
 10
3.132290
 20
55.432292
 30
0.0
  0
SPLINE
  5
10d
100
AcDbEntity
  8
Calque_1
 62
5
100
AcDbSpline
 70
8
 71
3
 72
8
 73
4
 74
0
 40
0
 40
0
 40
0
 40
0
 40
1
 40
1
 40
1
 40
1
 10
3.132290
 20
55.432292
 30
0.0
 10
3.132290
 20
55.830117
 30
0.0
 10
3.300861
 20
56.211648
 30
0.0
 10
3.600919
 20
56.492952
 30
0.0
  0
SPLINE
  5
10e
100
AcDbEntity
  8
Calque_1
 62
5
100
AcDbSpline
 70
8
 71
3
 72
8
 73
4
 74
0
 40
0
 40
0
 40
0
 40
0
 40
1
 40
1
 40
1
 40
1
 10
3.600919
 20
56.492952
 30
0.0
 10
3.900977
 20
56.774257
 30
0.0
 10
4.307944
 20
56.932292
 30
0.0
 10
4.732290
 20
56.932292
 30
0.0
  0
SPLINE
  5
10f
100
AcDbEntity
  8
Calque_1
 62
5
100
AcDbSpline
 70
8
 71
3
 72
8
 73
4
 74
0
 40
0
 40
0
 40
0
 40
0
 40
1
 40
1
 40
1
 40
1
 10
4.732290
 20
56.932292
 30
0.0
 10
5.615946
 20
56.932292
 30
0.0
 10
6.332290
 20
56.260719
 30
0.0
 10
6.332290
 20
55.432292
 30
0.0
  0
LINE
  5
110
100
AcDbEntity
  8
Calque_1
 62
5
100
AcDbLine
 10
6.332290
 20
55.432292
 30
0.0
 11
6.332290
 21
55.432292
 31
0.0
  0
SPLINE
  5
111
100
AcDbEntity
  8
Calque_1
 62
5
100
AcDbSpline
 70
8
 71
3
 72
8
 73
4
 74
0
 40
0
 40
0
 40
0
 40
0
 40
1
 40
1
 40
1
 40
1
 10
57.132293
 20
55.432292
 30
0.0
 10
57.132293
 20
55.034467
 30
0.0
 10
56.963722
 20
54.652936
 30
0.0
 10
56.663664
 20
54.371632
 30
0.0
  0
SPLINE
  5
112
100
AcDbEntity
  8
Calque_1
 62
5
100
AcDbSpline
 70
8
 71
3
 72
8
 73
4
 74
0
 40
0
 40
0
 40
0
 40
0
 40
1
 40
1
 40
1
 40
1
 10
56.663664
 20
54.371632
 30
0.0
 10
56.363606
 20
54.090327
 30
0.0
 10
55.956639
 20
53.932292
 30
0.0
 10
55.532293
 20
53.932292
 30
0.0
  0
SPLINE
  5
113
100
AcDbEntity
  8
Calque_1
 62
5
100
AcDbSpline
 70
8
 71
3
 72
8
 73
4
 74
0
 40
0
 40
0
 40
0
 40
0
 40
1
 40
1
 40
1
 40
1
 10
55.532293
 20
53.932292
 30
0.0
 10
55.107947
 20
53.932292
 30
0.0
 10
54.700980
 20
54.090327
 30
0.0
 10
54.400922
 20
54.371632
 30
0.0
  0
SPLINE
  5
114
100
AcDbEntity
  8
Calque_1
 62
5
100
AcDbSpline
 70
8
 71
3
 72
8
 73
4
 74
0
 40
0
 40
0
 40
0
 40
0
 40
1
 40
1
 40
1
 40
1
 10
54.400922
 20
54.371632
 30
0.0
 10
54.100864
 20
54.652936
 30
0.0
 10
53.932293
 20
55.034467
 30
0.0
 10
53.932293
 20
55.432292
 30
0.0
  0
SPLINE
  5
115
100
AcDbEntity
  8
Calque_1
 62
5
100
AcDbSpline
 70
8
 71
3
 72
8
 73
4
 74
0
 40
0
 40
0
 40
0
 40
0
 40
1
 40
1
 40
1
 40
1
 10
53.932293
 20
55.432292
 30
0.0
 10
53.932293
 20
55.830117
 30
0.0
 10
54.100864
 20
56.211648
 30
0.0
 10
54.400922
 20
56.492952
 30
0.0
  0
SPLINE
  5
116
100
AcDbEntity
  8
Calque_1
 62
5
100
AcDbSpline
 70
8
 71
3
 72
8
 73
4
 74
0
 40
0
 40
0
 40
0
 40
0
 40
1
 40
1
 40
1
 40
1
 10
54.400922
 20
56.492952
 30
0.0
 10
54.700980
 20
56.774257
 30
0.0
 10
55.107947
 20
56.932292
 30
0.0
 10
55.532293
 20
56.932292
 30
0.0
  0
SPLINE
  5
117
100
AcDbEntity
  8
Calque_1
 62
5
100
AcDbSpline
 70
8
 71
3
 72
8
 73
4
 74
0
 40
0
 40
0
 40
0
 40
0
 40
1
 40
1
 40
1
 40
1
 10
55.532293
 20
56.932292
 30
0.0
 10
56.415949
 20
56.932292
 30
0.0
 10
57.132293
 20
56.260719
 30
0.0
 10
57.132293
 20
55.432292
 30
0.0
  0
LINE
  5
118
100
AcDbEntity
  8
Calque_1
 62
5
100
AcDbLine
 10
57.132293
 20
55.432292
 30
0.0
 11
57.132293
 21
55.432292
 31
0.0
  0
SPLINE
  5
119
100
AcDbEntity
  8
Calque_1
 62
5
100
AcDbSpline
 70
8
 71
3
 72
8
 73
4
 74
0
 40
0
 40
0
 40
0
 40
0
 40
1
 40
1
 40
1
 40
1
 10
6.332290
 20
4.632292
 30
0.0
 10
6.332290
 20
4.234467
 30
0.0
 10
6.163719
 20
3.852936
 30
0.0
 10
5.863661
 20
3.571632
 30
0.0
  0
SPLINE
  5
11a
100
AcDbEntity
  8
Calque_1
 62
5
100
AcDbSpline
 70
8
 71
3
 72
8
 73
4
 74
0
 40
0
 40
0
 40
0
 40
0
 40
1
 40
1
 40
1
 40
1
 10
5.863661
 20
3.571632
 30
0.0
 10
5.563603
 20
3.290327
 30
0.0
 10
5.156636
 20
3.132292
 30
0.0
 10
4.732290
 20
3.132292
 30
0.0
  0
SPLINE
  5
11b
100
AcDbEntity
  8
Calque_1
 62
5
100
AcDbSpline
 70
8
 71
3
 72
8
 73
4
 74
0
 40
0
 40
0
 40
0
 40
0
 40
1
 40
1
 40
1
 40
1
 10
4.732290
 20
3.132292
 30
0.0
 10
4.307944
 20
3.132292
 30
0.0
 10
3.900977
 20
3.290327
 30
0.0
 10
3.600919
 20
3.571632
 30
0.0
  0
SPLINE
  5
11c
100
AcDbEntity
  8
Calque_1
 62
5
100
AcDbSpline
 70
8
 71
3
 72
8
 73
4
 74
0
 40
0
 40
0
 40
0
 40
0
 40
1
 40
1
 40
1
 40
1
 10
3.600919
 20
3.571632
 30
0.0
 10
3.300861
 20
3.852936
 30
0.0
 10
3.132290
 20
4.234467
 30
0.0
 10
3.132290
 20
4.632292
 30
0.0
  0
SPLINE
  5
11d
100
AcDbEntity
  8
Calque_1
 62
5
100
AcDbSpline
 70
8
 71
3
 72
8
 73
4
 74
0
 40
0
 40
0
 40
0
 40
0
 40
1
 40
1
 40
1
 40
1
 10
3.132290
 20
4.632292
 30
0.0
 10
3.132290
 20
5.030117
 30
0.0
 10
3.300861
 20
5.411648
 30
0.0
 10
3.600919
 20
5.692952
 30
0.0
  0
SPLINE
  5
11e
100
AcDbEntity
  8
Calque_1
 62
5
100
AcDbSpline
 70
8
 71
3
 72
8
 73
4
 74
0
 40
0
 40
0
 40
0
 40
0
 40
1
 40
1
 40
1
 40
1
 10
3.600919
 20
5.692952
 30
0.0
 10
3.900977
 20
5.974257
 30
0.0
 10
4.307944
 20
6.132292
 30
0.0
 10
4.732290
 20
6.132292
 30
0.0
  0
SPLINE
  5
11f
100
AcDbEntity
  8
Calque_1
 62
5
100
AcDbSpline
 70
8
 71
3
 72
8
 73
4
 74
0
 40
0
 40
0
 40
0
 40
0
 40
1
 40
1
 40
1
 40
1
 10
4.732290
 20
6.132292
 30
0.0
 10
5.615946
 20
6.132292
 30
0.0
 10
6.332290
 20
5.460719
 30
0.0
 10
6.332290
 20
4.632292
 30
0.0
  0
LINE
  5
120
100
AcDbEntity
  8
Calque_1
 62
5
100
AcDbLine
 10
6.332290
 20
4.632292
 30
0.0
 11
6.332290
 21
4.632292
 31
0.0
  0
SPLINE
  5
121
100
AcDbEntity
  8
Calque_1
 62
5
100
AcDbSpline
 70
8
 71
3
 72
8
 73
4
 74
0
 40
0
 40
0
 40
0
 40
0
 40
1
 40
1
 40
1
 40
1
 10
57.132293
 20
4.632292
 30
0.0
 10
57.132293
 20
4.234467
 30
0.0
 10
56.963722
 20
3.852936
 30
0.0
 10
56.663664
 20
3.571632
 30
0.0
  0
SPLINE
  5
122
100
AcDbEntity
  8
Calque_1
 62
5
100
AcDbSpline
 70
8
 71
3
 72
8
 73
4
 74
0
 40
0
 40
0
 40
0
 40
0
 40
1
 40
1
 40
1
 40
1
 10
56.663664
 20
3.571632
 30
0.0
 10
56.363606
 20
3.290327
 30
0.0
 10
55.956639
 20
3.132292
 30
0.0
 10
55.532293
 20
3.132292
 30
0.0
  0
SPLINE
  5
123
100
AcDbEntity
  8
Calque_1
 62
5
100
AcDbSpline
 70
8
 71
3
 72
8
 73
4
 74
0
 40
0
 40
0
 40
0
 40
0
 40
1
 40
1
 40
1
 40
1
 10
55.532293
 20
3.132292
 30
0.0
 10
55.107947
 20
3.132292
 30
0.0
 10
54.700980
 20
3.290327
 30
0.0
 10
54.400922
 20
3.571632
 30
0.0
  0
SPLINE
  5
124
100
AcDbEntity
  8
Calque_1
 62
5
100
AcDbSpline
 70
8
 71
3
 72
8
 73
4
 74
0
 40
0
 40
0
 40
0
 40
0
 40
1
 40
1
 40
1
 40
1
 10
54.400922
 20
3.571632
 30
0.0
 10
54.100864
 20
3.852936
 30
0.0
 10
53.932293
 20
4.234467
 30
0.0
 10
53.932293
 20
4.632292
 30
0.0
  0
SPLINE
  5
125
100
AcDbEntity
  8
Calque_1
 62
5
100
AcDbSpline
 70
8
 71
3
 72
8
 73
4
 74
0
 40
0
 40
0
 40
0
 40
0
 40
1
 40
1
 40
1
 40
1
 10
53.932293
 20
4.632292
 30
0.0
 10
53.932293
 20
5.030117
 30
0.0
 10
54.100864
 20
5.411648
 30
0.0
 10
54.400922
 20
5.692952
 30
0.0
  0
SPLINE
  5
126
100
AcDbEntity
  8
Calque_1
 62
5
100
AcDbSpline
 70
8
 71
3
 72
8
 73
4
 74
0
 40
0
 40
0
 40
0
 40
0
 40
1
 40
1
 40
1
 40
1
 10
54.400922
 20
5.692952
 30
0.0
 10
54.700980
 20
5.974257
 30
0.0
 10
55.107947
 20
6.132292
 30
0.0
 10
55.532293
 20
6.132292
 30
0.0
  0
SPLINE
  5
127
100
AcDbEntity
  8
Calque_1
 62
5
100
AcDbSpline
 70
8
 71
3
 72
8
 73
4
 74
0
 40
0
 40
0
 40
0
 40
0
 40
1
 40
1
 40
1
 40
1
 10
55.532293
 20
6.132292
 30
0.0
 10
56.415949
 20
6.132292
 30
0.0
 10
57.132293
 20
5.460719
 30
0.0
 10
57.132293
 20
4.632292
 30
0.0
  0
LINE
  5
128
100
AcDbEntity
  8
Calque_1
 62
5
100
AcDbLine
 10
57.132293
 20
4.632292
 30
0.0
 11
57.132293
 21
4.632292
 31
0.0
  0
LINE
  5
129
100
AcDbEntity
  8
Calque_1
 62
7
100
AcDbLine
 10
25.990423
 20
3.517790
 30
0.0
 11
26.558865
 21
3.517790
 31
0.0
  0
LINE
  5
12a
100
AcDbEntity
  8
Calque_1
 62
7
100
AcDbLine
 10
26.558865
 20
3.517790
 30
0.0
 11
26.558865
 21
5.479773
 31
0.0
  0
LINE
  5
12b
100
AcDbEntity
  8
Calque_1
 62
7
100
AcDbLine
 10
26.558865
 20
5.479773
 30
0.0
 11
25.940470
 21
5.355750
 31
0.0
  0
LINE
  5
12c
100
AcDbEntity
  8
Calque_1
 62
7
100
AcDbLine
 10
25.940470
 20
5.355750
 30
0.0
 11
25.940470
 21
5.672697
 31
0.0
  0
LINE
  5
12d
100
AcDbEntity
  8
Calque_1
 62
7
100
AcDbLine
 10
25.940470
 20
5.672697
 30
0.0
 11
26.555420
 21
5.796720
 31
0.0
  0
LINE
  5
12e
100
AcDbEntity
  8
Calque_1
 62
7
100
AcDbLine
 10
26.555420
 20
5.796720
 30
0.0
 11
26.903373
 21
5.796720
 31
0.0
  0
LINE
  5
12f
100
AcDbEntity
  8
Calque_1
 62
7
100
AcDbLine
 10
26.903373
 20
5.796720
 30
0.0
 11
26.903373
 21
3.517790
 31
0.0
  0
LINE
  5
130
100
AcDbEntity
  8
Calque_1
 62
7
100
AcDbLine
 10
26.903373
 20
3.517790
 30
0.0
 11
27.471815
 21
3.517790
 31
0.0
  0
LINE
  5
131
100
AcDbEntity
  8
Calque_1
 62
7
100
AcDbLine
 10
27.471815
 20
3.517790
 30
0.0
 11
27.471815
 21
3.224957
 31
0.0
  0
LINE
  5
132
100
AcDbEntity
  8
Calque_1
 62
7
100
AcDbLine
 10
27.471815
 20
3.224957
 30
0.0
 11
25.990423
 21
3.224957
 31
0.0
  0
LINE
  5
133
100
AcDbEntity
  8
Calque_1
 62
7
100
AcDbLine
 10
25.990423
 20
3.224957
 30
0.0
 11
25.990423
 21
3.517790
 31
0.0
  0
SPLINE
  5
134
100
AcDbEntity
  8
Calque_1
 62
7
100
AcDbSpline
 70
8
 71
3
 72
8
 73
4
 74
0
 40
0
 40
0
 40
0
 40
0
 40
1
 40
1
 40
1
 40
1
 10
28.920477
 20
5.567623
 30
0.0
 10
28.741333
 20
5.567623
 30
0.0
 10
28.606400
 20
5.479198
 30
0.0
 10
28.515678
 20
5.302349
 30
0.0
  0
SPLINE
  5
135
100
AcDbEntity
  8
Calque_1
 62
7
100
AcDbSpline
 70
8
 71
3
 72
8
 73
4
 74
0
 40
0
 40
0
 40
0
 40
0
 40
1
 40
1
 40
1
 40
1
 10
28.515678
 20
5.302349
 30
0.0
 10
28.426106
 20
5.126650
 30
0.0
 10
28.381320
 20
4.861952
 30
0.0
 10
28.381320
 20
4.508255
 30
0.0
  0
SPLINE
  5
136
100
AcDbEntity
  8
Calque_1
 62
7
100
AcDbSpline
 70
8
 71
3
 72
8
 73
4
 74
0
 40
0
 40
0
 40
0
 40
0
 40
1
 40
1
 40
1
 40
1
 10
28.381320
 20
4.508255
 30
0.0
 10
28.381320
 20
4.155707
 30
0.0
 10
28.426106
 20
3.891009
 30
0.0
 10
28.515678
 20
3.714161
 30
0.0
  0
SPLINE
  5
137
100
AcDbEntity
  8
Calque_1
 62
7
100
AcDbSpline
 70
8
 71
3
 72
8
 73
4
 74
0
 40
0
 40
0
 40
0
 40
0
 40
1
 40
1
 40
1
 40
1
 10
28.515678
 20
3.714161
 30
0.0
 10
28.606400
 20
3.538462
 30
0.0
 10
28.741333
 20
3.450612
 30
0.0
 10
28.920477
 20
3.450612
 30
0.0
  0
SPLINE
  5
138
100
AcDbEntity
  8
Calque_1
 62
7
100
AcDbSpline
 70
8
 71
3
 72
8
 73
4
 74
0
 40
0
 40
0
 40
0
 40
0
 40
1
 40
1
 40
1
 40
1
 10
28.920477
 20
3.450612
 30
0.0
 10
29.100771
 20
3.450612
 30
0.0
 10
29.235704
 20
3.538462
 30
0.0
 10
29.325276
 20
3.714161
 30
0.0
  0
SPLINE
  5
139
100
AcDbEntity
  8
Calque_1
 62
7
100
AcDbSpline
 70
8
 71
3
 72
8
 73
4
 74
0
 40
0
 40
0
 40
0
 40
0
 40
1
 40
1
 40
1
 40
1
 10
29.325276
 20
3.714161
 30
0.0
 10
29.415997
 20
3.891009
 30
0.0
 10
29.461357
 20
4.155707
 30
0.0
 10
29.461357
 20
4.508255
 30
0.0
  0
SPLINE
  5
13a
100
AcDbEntity
  8
Calque_1
 62
7
100
AcDbSpline
 70
8
 71
3
 72
8
 73
4
 74
0
 40
0
 40
0
 40
0
 40
0
 40
1
 40
1
 40
1
 40
1
 10
29.461357
 20
4.508255
 30
0.0
 10
29.461357
 20
4.861952
 30
0.0
 10
29.415997
 20
5.126650
 30
0.0
 10
29.325276
 20
5.302349
 30
0.0
  0
SPLINE
  5
13b
100
AcDbEntity
  8
Calque_1
 62
7
100
AcDbSpline
 70
8
 71
3
 72
8
 73
4
 74
0
 40
0
 40
0
 40
0
 40
0
 40
1
 40
1
 40
1
 40
1
 10
29.325276
 20
5.302349
 30
0.0
 10
29.235704
 20
5.479198
 30
0.0
 10
29.100771
 20
5.567623
 30
0.0
 10
28.920477
 20
5.567623
 30
0.0
  0
LINE
  5
13c
100
AcDbEntity
  8
Calque_1
 62
7
100
AcDbLine
 10
28.920477
 20
5.567623
 30
0.0
 11
28.920477
 21
5.567623
 31
0.0
  0
SPLINE
  5
13d
100
AcDbEntity
  8
Calque_1
 62
7
100
AcDbSpline
 70
8
 71
3
 72
8
 73
4
 74
0
 40
0
 40
0
 40
0
 40
0
 40
1
 40
1
 40
1
 40
1
 10
28.920477
 20
5.843229
 30
0.0
 10
29.208718
 20
5.843229
 30
0.0
 10
29.428630
 20
5.728967
 30
0.0
 10
29.580213
 20
5.500443
 30
0.0
  0
SPLINE
  5
13e
100
AcDbEntity
  8
Calque_1
 62
7
100
AcDbSpline
 70
8
 71
3
 72
8
 73
4
 74
0
 40
0
 40
0
 40
0
 40
0
 40
1
 40
1
 40
1
 40
1
 10
29.580213
 20
5.500443
 30
0.0
 10
29.732946
 20
5.273067
 30
0.0
 10
29.809313
 20
4.942338
 30
0.0
 10
29.809313
 20
4.508255
 30
0.0
  0
SPLINE
  5
13f
100
AcDbEntity
  8
Calque_1
 62
7
100
AcDbSpline
 70
8
 71
3
 72
8
 73
4
 74
0
 40
0
 40
0
 40
0
 40
0
 40
1
 40
1
 40
1
 40
1
 10
29.809313
 20
4.508255
 30
0.0
 10
29.809313
 20
4.075321
 30
0.0
 10
29.732946
 20
3.744592
 30
0.0
 10
29.580213
 20
3.516068
 30
0.0
  0
SPLINE
  5
140
100
AcDbEntity
  8
Calque_1
 62
7
100
AcDbSpline
 70
8
 71
3
 72
8
 73
4
 74
0
 40
0
 40
0
 40
0
 40
0
 40
1
 40
1
 40
1
 40
1
 10
29.580213
 20
3.516068
 30
0.0
 10
29.428630
 20
3.288692
 30
0.0
 10
29.208718
 20
3.175004
 30
0.0
 10
28.920477
 20
3.175004
 30
0.0
  0
SPLINE
  5
141
100
AcDbEntity
  8
Calque_1
 62
7
100
AcDbSpline
 70
8
 71
3
 72
8
 73
4
 74
0
 40
0
 40
0
 40
0
 40
0
 40
1
 40
1
 40
1
 40
1
 10
28.920477
 20
3.175004
 30
0.0
 10
28.632238
 20
3.175004
 30
0.0
 10
28.411752
 20
3.288692
 30
0.0
 10
28.259019
 20
3.516068
 30
0.0
  0
SPLINE
  5
142
100
AcDbEntity
  8
Calque_1
 62
7
100
AcDbSpline
 70
8
 71
3
 72
8
 73
4
 74
0
 40
0
 40
0
 40
0
 40
0
 40
1
 40
1
 40
1
 40
1
 10
28.259019
 20
3.516068
 30
0.0
 10
28.107436
 20
3.744592
 30
0.0
 10
28.031644
 20
4.075321
 30
0.0
 10
28.031644
 20
4.508255
 30
0.0
  0
SPLINE
  5
143
100
AcDbEntity
  8
Calque_1
 62
7
100
AcDbSpline
 70
8
 71
3
 72
8
 73
4
 74
0
 40
0
 40
0
 40
0
 40
0
 40
1
 40
1
 40
1
 40
1
 10
28.031644
 20
4.508255
 30
0.0
 10
28.031644
 20
4.942338
 30
0.0
 10
28.107436
 20
5.273067
 30
0.0
 10
28.259019
 20
5.500443
 30
0.0
  0
SPLINE
  5
144
100
AcDbEntity
  8
Calque_1
 62
7
100
AcDbSpline
 70
8
 71
3
 72
8
 73
4
 74
0
 40
0
 40
0
 40
0
 40
0
 40
1
 40
1
 40
1
 40
1
 10
28.259019
 20
5.500443
 30
0.0
 10
28.411752
 20
5.728967
 30
0.0
 10
28.632238
 20
5.843229
 30
0.0
 10
28.920477
 20
5.843229
 30
0.0
  0
LINE
  5
145
100
AcDbEntity
  8
Calque_1
 62
7
100
AcDbLine
 10
28.920477
 20
5.843229
 30
0.0
 11
28.920477
 21
5.843229
 31
0.0
  0
SPLINE
  5
146
100
AcDbEntity
  8
Calque_1
 62
7
100
AcDbSpline
 70
8
 71
3
 72
8
 73
4
 74
0
 40
0
 40
0
 40
0
 40
0
 40
1
 40
1
 40
1
 40
1
 10
31.166681
 20
5.567623
 30
0.0
 10
30.987535
 20
5.567623
 30
0.0
 10
30.852602
 20
5.479198
 30
0.0
 10
30.761882
 20
5.302349
 30
0.0
  0
SPLINE
  5
147
100
AcDbEntity
  8
Calque_1
 62
7
100
AcDbSpline
 70
8
 71
3
 72
8
 73
4
 74
0
 40
0
 40
0
 40
0
 40
0
 40
1
 40
1
 40
1
 40
1
 10
30.761882
 20
5.302349
 30
0.0
 10
30.672310
 20
5.126650
 30
0.0
 10
30.627524
 20
4.861952
 30
0.0
 10
30.627524
 20
4.508255
 30
0.0
  0
SPLINE
  5
148
100
AcDbEntity
  8
Calque_1
 62
7
100
AcDbSpline
 70
8
 71
3
 72
8
 73
4
 74
0
 40
0
 40
0
 40
0
 40
0
 40
1
 40
1
 40
1
 40
1
 10
30.627524
 20
4.508255
 30
0.0
 10
30.627524
 20
4.155707
 30
0.0
 10
30.672310
 20
3.891009
 30
0.0
 10
30.761882
 20
3.714161
 30
0.0
  0
SPLINE
  5
149
100
AcDbEntity
  8
Calque_1
 62
7
100
AcDbSpline
 70
8
 71
3
 72
8
 73
4
 74
0
 40
0
 40
0
 40
0
 40
0
 40
1
 40
1
 40
1
 40
1
 10
30.761882
 20
3.714161
 30
0.0
 10
30.852602
 20
3.538462
 30
0.0
 10
30.987535
 20
3.450612
 30
0.0
 10
31.166681
 20
3.450612
 30
0.0
  0
SPLINE
  5
14a
100
AcDbEntity
  8
Calque_1
 62
7
100
AcDbSpline
 70
8
 71
3
 72
8
 73
4
 74
0
 40
0
 40
0
 40
0
 40
0
 40
1
 40
1
 40
1
 40
1
 10
31.166681
 20
3.450612
 30
0.0
 10
31.346974
 20
3.450612
 30
0.0
 10
31.481906
 20
3.538462
 30
0.0
 10
31.571478
 20
3.714161
 30
0.0
  0
SPLINE
  5
14b
100
AcDbEntity
  8
Calque_1
 62
7
100
AcDbSpline
 70
8
 71
3
 72
8
 73
4
 74
0
 40
0
 40
0
 40
0
 40
0
 40
1
 40
1
 40
1
 40
1
 10
31.571478
 20
3.714161
 30
0.0
 10
31.662200
 20
3.891009
 30
0.0
 10
31.707561
 20
4.155707
 30
0.0
 10
31.707561
 20
4.508255
 30
0.0
  0
SPLINE
  5
14c
100
AcDbEntity
  8
Calque_1
 62
7
100
AcDbSpline
 70
8
 71
3
 72
8
 73
4
 74
0
 40
0
 40
0
 40
0
 40
0
 40
1
 40
1
 40
1
 40
1
 10
31.707561
 20
4.508255
 30
0.0
 10
31.707561
 20
4.861952
 30
0.0
 10
31.662200
 20
5.126650
 30
0.0
 10
31.571478
 20
5.302349
 30
0.0
  0
SPLINE
  5
14d
100
AcDbEntity
  8
Calque_1
 62
7
100
AcDbSpline
 70
8
 71
3
 72
8
 73
4
 74
0
 40
0
 40
0
 40
0
 40
0
 40
1
 40
1
 40
1
 40
1
 10
31.571478
 20
5.302349
 30
0.0
 10
31.481906
 20
5.479198
 30
0.0
 10
31.346974
 20
5.567623
 30
0.0
 10
31.166681
 20
5.567623
 30
0.0
  0
LINE
  5
14e
100
AcDbEntity
  8
Calque_1
 62
7
100
AcDbLine
 10
31.166681
 20
5.567623
 30
0.0
 11
31.166681
 21
5.567623
 31
0.0
  0
SPLINE
  5
14f
100
AcDbEntity
  8
Calque_1
 62
7
100
AcDbSpline
 70
8
 71
3
 72
8
 73
4
 74
0
 40
0
 40
0
 40
0
 40
0
 40
1
 40
1
 40
1
 40
1
 10
31.166681
 20
5.843229
 30
0.0
 10
31.454920
 20
5.843229
 30
0.0
 10
31.674832
 20
5.728967
 30
0.0
 10
31.826417
 20
5.500443
 30
0.0
  0
SPLINE
  5
150
100
AcDbEntity
  8
Calque_1
 62
7
100
AcDbSpline
 70
8
 71
3
 72
8
 73
4
 74
0
 40
0
 40
0
 40
0
 40
0
 40
1
 40
1
 40
1
 40
1
 10
31.826417
 20
5.500443
 30
0.0
 10
31.979149
 20
5.273067
 30
0.0
 10
32.055514
 20
4.942338
 30
0.0
 10
32.055514
 20
4.508255
 30
0.0
  0
SPLINE
  5
151
100
AcDbEntity
  8
Calque_1
 62
7
100
AcDbSpline
 70
8
 71
3
 72
8
 73
4
 74
0
 40
0
 40
0
 40
0
 40
0
 40
1
 40
1
 40
1
 40
1
 10
32.055514
 20
4.508255
 30
0.0
 10
32.055514
 20
4.075321
 30
0.0
 10
31.979149
 20
3.744592
 30
0.0
 10
31.826417
 20
3.516068
 30
0.0
  0
SPLINE
  5
152
100
AcDbEntity
  8
Calque_1
 62
7
100
AcDbSpline
 70
8
 71
3
 72
8
 73
4
 74
0
 40
0
 40
0
 40
0
 40
0
 40
1
 40
1
 40
1
 40
1
 10
31.826417
 20
3.516068
 30
0.0
 10
31.674832
 20
3.288692
 30
0.0
 10
31.454920
 20
3.175004
 30
0.0
 10
31.166681
 20
3.175004
 30
0.0
  0
SPLINE
  5
153
100
AcDbEntity
  8
Calque_1
 62
7
100
AcDbSpline
 70
8
 71
3
 72
8
 73
4
 74
0
 40
0
 40
0
 40
0
 40
0
 40
1
 40
1
 40
1
 40
1
 10
31.166681
 20
3.175004
 30
0.0
 10
30.878441
 20
3.175004
 30
0.0
 10
30.657954
 20
3.288692
 30
0.0
 10
30.505223
 20
3.516068
 30
0.0
  0
SPLINE
  5
154
100
AcDbEntity
  8
Calque_1
 62
7
100
AcDbSpline
 70
8
 71
3
 72
8
 73
4
 74
0
 40
0
 40
0
 40
0
 40
0
 40
1
 40
1
 40
1
 40
1
 10
30.505223
 20
3.516068
 30
0.0
 10
30.353638
 20
3.744592
 30
0.0
 10
30.277845
 20
4.075321
 30
0.0
 10
30.277845
 20
4.508255
 30
0.0
  0
SPLINE
  5
155
100
AcDbEntity
  8
Calque_1
 62
7
100
AcDbSpline
 70
8
 71
3
 72
8
 73
4
 74
0
 40
0
 40
0
 40
0
 40
0
 40
1
 40
1
 40
1
 40
1
 10
30.277845
 20
4.508255
 30
0.0
 10
30.277845
 20
4.942338
 30
0.0
 10
30.353638
 20
5.273067
 30
0.0
 10
30.505223
 20
5.500443
 30
0.0
  0
SPLINE
  5
156
100
AcDbEntity
  8
Calque_1
 62
7
100
AcDbSpline
 70
8
 71
3
 72
8
 73
4
 74
0
 40
0
 40
0
 40
0
 40
0
 40
1
 40
1
 40
1
 40
1
 10
30.505223
 20
5.500443
 30
0.0
 10
30.657954
 20
5.728967
 30
0.0
 10
30.878441
 20
5.843229
 30
0.0
 10
31.166681
 20
5.843229
 30
0.0
  0
LINE
  5
157
100
AcDbEntity
  8
Calque_1
 62
7
100
AcDbLine
 10
31.166681
 20
5.843229
 30
0.0
 11
31.166681
 21
5.843229
 31
0.0
  0
LINE
  5
158
100
AcDbEntity
  8
Calque_1
 62
7
100
AcDbLine
 10
32.611899
 20
5.905242
 30
0.0
 11
32.930568
 21
5.905242
 31
0.0
  0
LINE
  5
159
100
AcDbEntity
  8
Calque_1
 62
7
100
AcDbLine
 10
32.930568
 20
5.905242
 30
0.0
 11
32.930568
 21
4.322221
 31
0.0
  0
LINE
  5
15a
100
AcDbEntity
  8
Calque_1
 62
7
100
AcDbLine
 10
32.930568
 20
4.322221
 30
0.0
 11
33.876247
 21
5.154211
 31
0.0
  0
LINE
  5
15b
100
AcDbEntity
  8
Calque_1
 62
7
100
AcDbLine
 10
33.876247
 20
5.154211
 30
0.0
 11
34.281047
 21
5.154211
 31
0.0
  0
LINE
  5
15c
100
AcDbEntity
  8
Calque_1
 62
7
100
AcDbLine
 10
34.281047
 20
5.154211
 30
0.0
 11
33.257853
 21
4.251596
 31
0.0
  0
LINE
  5
15d
100
AcDbEntity
  8
Calque_1
 62
7
100
AcDbLine
 10
33.257853
 20
4.251596
 30
0.0
 11
34.324110
 21
3.224957
 31
0.0
  0
LINE
  5
15e
100
AcDbEntity
  8
Calque_1
 62
7
100
AcDbLine
 10
34.324110
 20
3.224957
 30
0.0
 11
33.910699
 21
3.224957
 31
0.0
  0
LINE
  5
15f
100
AcDbEntity
  8
Calque_1
 62
7
100
AcDbLine
 10
33.910699
 20
3.224957
 30
0.0
 11
32.930568
 21
4.167191
 31
0.0
  0
LINE
  5
160
100
AcDbEntity
  8
Calque_1
 62
7
100
AcDbLine
 10
32.930568
 20
4.167191
 30
0.0
 11
32.930568
 21
3.224957
 31
0.0
  0
LINE
  5
161
100
AcDbEntity
  8
Calque_1
 62
7
100
AcDbLine
 10
32.930568
 20
3.224957
 30
0.0
 11
32.611899
 21
3.224957
 31
0.0
  0
LINE
  5
162
100
AcDbEntity
  8
Calque_1
 62
7
100
AcDbLine
 10
32.611899
 20
3.224957
 30
0.0
 11
32.611899
 21
5.905242
 31
0.0
  0
SPLINE
  5
163
100
AcDbEntity
  8
Calque_1
 62
1
100
AcDbSpline
 70
8
 71
3
 72
8
 73
4
 74
0
 40
0
 40
0
 40
0
 40
0
 40
1
 40
1
 40
1
 40
1
 10
37.632292
 20
30.132293
 30
0.0
 10
37.632292
 20
28.143169
 30
0.0
 10
36.842116
 20
26.235515
 30
0.0
 10
35.435593
 20
24.828992
 30
0.0
  0
SPLINE
  5
164
100
AcDbEntity
  8
Calque_1
 62
1
100
AcDbSpline
 70
8
 71
3
 72
8
 73
4
 74
0
 40
0
 40
0
 40
0
 40
0
 40
1
 40
1
 40
1
 40
1
 10
35.435593
 20
24.828992
 30
0.0
 10
34.029070
 20
23.422469
 30
0.0
 10
32.121416
 20
22.632293
 30
0.0
 10
30.132292
 20
22.632293
 30
0.0
  0
SPLINE
  5
165
100
AcDbEntity
  8
Calque_1
 62
1
100
AcDbSpline
 70
8
 71
3
 72
8
 73
4
 74
0
 40
0
 40
0
 40
0
 40
0
 40
1
 40
1
 40
1
 40
1
 10
30.132292
 20
22.632293
 30
0.0
 10
28.143168
 20
22.632293
 30
0.0
 10
26.235514
 20
23.422469
 30
0.0
 10
24.828991
 20
24.828992
 30
0.0
  0
SPLINE
  5
166
100
AcDbEntity
  8
Calque_1
 62
1
100
AcDbSpline
 70
8
 71
3
 72
8
 73
4
 74
0
 40
0
 40
0
 40
0
 40
0
 40
1
 40
1
 40
1
 40
1
 10
24.828991
 20
24.828992
 30
0.0
 10
23.422468
 20
26.235515
 30
0.0
 10
22.632292
 20
28.143169
 30
0.0
 10
22.632292
 20
30.132293
 30
0.0
  0
SPLINE
  5
167
100
AcDbEntity
  8
Calque_1
 62
1
100
AcDbSpline
 70
8
 71
3
 72
8
 73
4
 74
0
 40
0
 40
0
 40
0
 40
0
 40
1
 40
1
 40
1
 40
1
 10
22.632292
 20
30.132293
 30
0.0
 10
22.632292
 20
32.121417
 30
0.0
 10
23.422468
 20
34.029071
 30
0.0
 10
24.828991
 20
35.435594
 30
0.0
  0
SPLINE
  5
168
100
AcDbEntity
  8
Calque_1
 62
1
100
AcDbSpline
 70
8
 71
3
 72
8
 73
4
 74
0
 40
0
 40
0
 40
0
 40
0
 40
1
 40
1
 40
1
 40
1
 10
24.828991
 20
35.435594
 30
0.0
 10
26.235514
 20
36.842117
 30
0.0
 10
28.143168
 20
37.632293
 30
0.0
 10
30.132292
 20
37.632293
 30
0.0
  0
SPLINE
  5
169
100
AcDbEntity
  8
Calque_1
 62
1
100
AcDbSpline
 70
8
 71
3
 72
8
 73
4
 74
0
 40
0
 40
0
 40
0
 40
0
 40
1
 40
1
 40
1
 40
1
 10
30.132292
 20
37.632293
 30
0.0
 10
32.121416
 20
37.632293
 30
0.0
 10
34.029070
 20
36.842117
 30
0.0
 10
35.435593
 20
35.435594
 30
0.0
  0
SPLINE
  5
16a
100
AcDbEntity
  8
Calque_1
 62
1
100
AcDbSpline
 70
8
 71
3
 72
8
 73
4
 74
0
 40
0
 40
0
 40
0
 40
0
 40
1
 40
1
 40
1
 40
1
 10
35.435593
 20
35.435594
 30
0.0
 10
36.842116
 20
34.029071
 30
0.0
 10
37.632292
 20
32.121417
 30
0.0
 10
37.632292
 20
30.132293
 30
0.0
  0
LINE
  5
16b
100
AcDbEntity
  8
Calque_1
 62
1
100
AcDbLine
 10
37.632292
 20
30.132293
 30
0.0
 11
37.632292
 21
30.132293
 31
0.0
  0
LINE
  5
16c
100
AcDbEntity
  8
Calque_1
 62
6
100
AcDbLine
 10
33.734436
 20
23.551735
 30
0.0
 11
34.030150
 21
23.722466
 31
0.0
  0
LINE
  5
16d
100
AcDbEntity
  8
Calque_1
 62
6
100
AcDbLine
 10
34.030150
 20
23.722466
 30
0.0
 11
40.750135
 21
12.083110
 31
0.0
  0
LINE
  5
16e
100
AcDbEntity
  8
Calque_1
 62
6
100
AcDbLine
 10
40.750135
 20
12.083110
 30
0.0
 11
40.454421
 21
11.912380
 31
0.0
  0
LINE
  5
16f
100
AcDbEntity
  8
Calque_1
 62
6
100
AcDbLine
 10
40.454421
 20
11.912380
 30
0.0
 11
33.734436
 21
23.551735
 31
0.0
  0
LINE
  5
170
100
AcDbEntity
  8
Calque_1
 62
6
100
AcDbLine
 10
36.542117
 20
26.234435
 30
0.0
 11
36.712847
 21
26.530149
 31
0.0
  0
LINE
  5
171
100
AcDbEntity
  8
Calque_1
 62
6
100
AcDbLine
 10
36.712847
 20
26.530149
 30
0.0
 11
48.352203
 21
19.810164
 31
0.0
  0
LINE
  5
172
100
AcDbEntity
  8
Calque_1
 62
6
100
AcDbLine
 10
48.352203
 20
19.810164
 30
0.0
 11
48.181472
 21
19.514450
 31
0.0
  0
LINE
  5
173
100
AcDbEntity
  8
Calque_1
 62
6
100
AcDbLine
 10
48.181472
 20
19.514450
 30
0.0
 11
36.542117
 21
26.234435
 31
0.0
  0
LINE
  5
174
100
AcDbEntity
  8
Calque_1
 62
6
100
AcDbLine
 10
37.632292
 20
29.961562
 30
0.0
 11
37.632292
 21
30.303023
 31
0.0
  0
LINE
  5
175
100
AcDbEntity
  8
Calque_1
 62
6
100
AcDbLine
 10
37.632292
 20
30.303023
 30
0.0
 11
51.072259
 21
30.303023
 31
0.0
  0
LINE
  5
176
100
AcDbEntity
  8
Calque_1
 62
6
100
AcDbLine
 10
51.072259
 20
30.303023
 30
0.0
 11
51.072259
 21
29.961562
 31
0.0
  0
LINE
  5
177
100
AcDbEntity
  8
Calque_1
 62
6
100
AcDbLine
 10
51.072259
 20
29.961562
 30
0.0
 11
37.632292
 21
29.961562
 31
0.0
  0
LINE
  5
178
100
AcDbEntity
  8
Calque_1
 62
6
100
AcDbLine
 10
36.712848
 20
33.734434
 30
0.0
 11
36.542118
 21
34.030147
 31
0.0
  0
LINE
  5
179
100
AcDbEntity
  8
Calque_1
 62
6
100
AcDbLine
 10
36.542118
 20
34.030147
 30
0.0
 11
48.181470
 21
40.750131
 31
0.0
  0
LINE
  5
17a
100
AcDbEntity
  8
Calque_1
 62
6
100
AcDbLine
 10
48.181470
 20
40.750131
 30
0.0
 11
48.352200
 21
40.454418
 31
0.0
  0
LINE
  5
17b
100
AcDbEntity
  8
Calque_1
 62
6
100
AcDbLine
 10
48.352200
 20
40.454418
 30
0.0
 11
36.712848
 21
33.734434
 31
0.0
  0
LINE
  5
17c
100
AcDbEntity
  8
Calque_1
 62
6
100
AcDbLine
 10
34.030152
 20
36.542116
 30
0.0
 11
33.734438
 21
36.712846
 31
0.0
  0
LINE
  5
17d
100
AcDbEntity
  8
Calque_1
 62
6
100
AcDbLine
 10
33.734438
 20
36.712846
 30
0.0
 11
40.454421
 21
48.352199
 31
0.0
  0
LINE
  5
17e
100
AcDbEntity
  8
Calque_1
 62
6
100
AcDbLine
 10
40.454421
 20
48.352199
 30
0.0
 11
40.750135
 21
48.181469
 31
0.0
  0
LINE
  5
17f
100
AcDbEntity
  8
Calque_1
 62
6
100
AcDbLine
 10
40.750135
 20
48.181469
 30
0.0
 11
34.030152
 21
36.542116
 31
0.0
  0
LINE
  5
180
100
AcDbEntity
  8
Calque_1
 62
6
100
AcDbLine
 10
30.303026
 20
37.632293
 30
0.0
 11
29.961566
 21
37.632293
 31
0.0
  0
LINE
  5
181
100
AcDbEntity
  8
Calque_1
 62
6
100
AcDbLine
 10
29.961566
 20
37.632293
 30
0.0
 11
29.961566
 21
51.072260
 31
0.0
  0
LINE
  5
182
100
AcDbEntity
  8
Calque_1
 62
6
100
AcDbLine
 10
29.961566
 20
51.072260
 30
0.0
 11
30.303026
 21
51.072260
 31
0.0
  0
LINE
  5
183
100
AcDbEntity
  8
Calque_1
 62
6
100
AcDbLine
 10
30.303026
 20
51.072260
 30
0.0
 11
30.303026
 21
37.632293
 31
0.0
  0
LINE
  5
184
100
AcDbEntity
  8
Calque_1
 62
6
100
AcDbLine
 10
26.530152
 20
36.712850
 30
0.0
 11
26.234439
 21
36.542119
 31
0.0
  0
LINE
  5
185
100
AcDbEntity
  8
Calque_1
 62
6
100
AcDbLine
 10
26.234439
 20
36.542119
 30
0.0
 11
19.514455
 21
48.181472
 31
0.0
  0
LINE
  5
186
100
AcDbEntity
  8
Calque_1
 62
6
100
AcDbLine
 10
19.514455
 20
48.181472
 30
0.0
 11
19.810169
 21
48.352203
 31
0.0
  0
LINE
  5
187
100
AcDbEntity
  8
Calque_1
 62
6
100
AcDbLine
 10
19.810169
 20
48.352203
 30
0.0
 11
26.530152
 21
36.712850
 31
0.0
  0
LINE
  5
188
100
AcDbEntity
  8
Calque_1
 62
6
100
AcDbLine
 10
23.722471
 20
34.030151
 30
0.0
 11
23.551740
 21
33.734437
 31
0.0
  0
LINE
  5
189
100
AcDbEntity
  8
Calque_1
 62
6
100
AcDbLine
 10
23.551740
 20
33.734437
 30
0.0
 11
11.912387
 21
40.454420
 31
0.0
  0
LINE
  5
18a
100
AcDbEntity
  8
Calque_1
 62
6
100
AcDbLine
 10
11.912387
 20
40.454420
 30
0.0
 11
12.083118
 21
40.750134
 31
0.0
  0
LINE
  5
18b
100
AcDbEntity
  8
Calque_1
 62
6
100
AcDbLine
 10
12.083118
 20
40.750134
 30
0.0
 11
23.722471
 21
34.030151
 31
0.0
  0
LINE
  5
18c
100
AcDbEntity
  8
Calque_1
 62
6
100
AcDbLine
 10
22.632296
 20
30.303023
 30
0.0
 11
22.632296
 21
29.961562
 31
0.0
  0
LINE
  5
18d
100
AcDbEntity
  8
Calque_1
 62
6
100
AcDbLine
 10
22.632296
 20
29.961562
 30
0.0
 11
9.192329
 21
29.961562
 31
0.0
  0
LINE
  5
18e
100
AcDbEntity
  8
Calque_1
 62
6
100
AcDbLine
 10
9.192329
 20
29.961562
 30
0.0
 11
9.192329
 21
30.303023
 31
0.0
  0
LINE
  5
18f
100
AcDbEntity
  8
Calque_1
 62
6
100
AcDbLine
 10
9.192329
 20
30.303023
 30
0.0
 11
22.632296
 21
30.303023
 31
0.0
  0
LINE
  5
190
100
AcDbEntity
  8
Calque_1
 62
6
100
AcDbLine
 10
23.551741
 20
26.530150
 30
0.0
 11
23.722471
 21
26.234437
 31
0.0
  0
LINE
  5
191
100
AcDbEntity
  8
Calque_1
 62
6
100
AcDbLine
 10
23.722471
 20
26.234437
 30
0.0
 11
12.083118
 21
19.514453
 31
0.0
  0
LINE
  5
192
100
AcDbEntity
  8
Calque_1
 62
6
100
AcDbLine
 10
12.083118
 20
19.514453
 30
0.0
 11
11.912388
 21
19.810166
 31
0.0
  0
LINE
  5
193
100
AcDbEntity
  8
Calque_1
 62
6
100
AcDbLine
 10
11.912388
 20
19.810166
 30
0.0
 11
23.551741
 21
26.530150
 31
0.0
  0
LINE
  5
194
100
AcDbEntity
  8
Calque_1
 62
6
100
AcDbLine
 10
26.234439
 20
23.722469
 30
0.0
 11
26.530153
 21
23.551739
 31
0.0
  0
LINE
  5
195
100
AcDbEntity
  8
Calque_1
 62
6
100
AcDbLine
 10
26.530153
 20
23.551739
 30
0.0
 11
19.810169
 21
11.912385
 31
0.0
  0
LINE
  5
196
100
AcDbEntity
  8
Calque_1
 62
6
100
AcDbLine
 10
19.810169
 20
11.912385
 30
0.0
 11
19.514455
 21
12.083115
 31
0.0
  0
LINE
  5
197
100
AcDbEntity
  8
Calque_1
 62
6
100
AcDbLine
 10
19.514455
 20
12.083115
 30
0.0
 11
26.234439
 21
23.722469
 31
0.0
  0
LINE
  5
198
100
AcDbEntity
  8
Calque_1
 62
1
100
AcDbLine
 10
35.038235
 20
24.285618
 30
0.0
 11
39.211666
 21
19.311916
 31
0.0
  0
LINE
  5
199
100
AcDbEntity
  8
Calque_1
 62
1
100
AcDbLine
 10
35.978967
 20
25.226350
 30
0.0
 11
40.952669
 21
21.052919
 31
0.0
  0
LINE
  5
19a
100
AcDbEntity
  8
Calque_1
 62
1
100
AcDbLine
 10
37.648632
 20
28.806959
 30
0.0
 11
44.042700
 21
27.679513
 31
0.0
  0
LINE
  5
19b
100
AcDbEntity
  8
Calque_1
 62
1
100
AcDbLine
 10
37.304300
 20
27.521895
 30
0.0
 11
43.405449
 21
25.301259
 31
0.0
  0
LINE
  5
19c
100
AcDbEntity
  8
Calque_1
 62
1
100
AcDbLine
 10
37.304300
 20
32.742690
 30
0.0
 11
43.405449
 21
34.963328
 31
0.0
  0
LINE
  5
19d
100
AcDbEntity
  8
Calque_1
 62
1
100
AcDbLine
 10
37.648632
 20
31.457626
 30
0.0
 11
44.042700
 21
32.585074
 31
0.0
  0
LINE
  5
19e
100
AcDbEntity
  8
Calque_1
 62
1
100
AcDbLine
 10
35.978966
 20
35.038235
 30
0.0
 11
40.952668
 21
39.211668
 31
0.0
  0
LINE
  5
19f
100
AcDbEntity
  8
Calque_1
 62
1
100
AcDbLine
 10
35.038234
 20
35.978967
 30
0.0
 11
39.211665
 21
40.952671
 31
0.0
  0
LINE
  5
1a0
100
AcDbEntity
  8
Calque_1
 62
1
100
AcDbLine
 10
28.806958
 20
37.648633
 30
0.0
 11
27.679509
 21
44.042701
 31
0.0
  0
LINE
  5
1a1
100
AcDbEntity
  8
Calque_1
 62
1
100
AcDbLine
 10
27.521893
 20
37.304301
 30
0.0
 11
25.301255
 21
43.405450
 31
0.0
  0
LINE
  5
1a2
100
AcDbEntity
  8
Calque_1
 62
1
100
AcDbLine
 10
32.742689
 20
37.304301
 30
0.0
 11
34.963324
 21
43.405451
 31
0.0
  0
LINE
  5
1a3
100
AcDbEntity
  8
Calque_1
 62
1
100
AcDbLine
 10
31.457625
 20
37.648633
 30
0.0
 11
32.585070
 21
44.042702
 31
0.0
  0
LINE
  5
1a4
100
AcDbEntity
  8
Calque_1
 62
1
100
AcDbLine
 10
25.226348
 20
35.978967
 30
0.0
 11
21.052915
 21
40.952668
 31
0.0
  0
LINE
  5
1a5
100
AcDbEntity
  8
Calque_1
 62
1
100
AcDbLine
 10
24.285616
 20
35.038235
 30
0.0
 11
19.311912
 21
39.211665
 31
0.0
  0
LINE
  5
1a6
100
AcDbEntity
  8
Calque_1
 62
1
100
AcDbLine
 10
22.960282
 20
32.742689
 30
0.0
 11
16.859133
 21
34.963324
 31
0.0
  0
LINE
  5
1a7
100
AcDbEntity
  8
Calque_1
 62
1
100
AcDbLine
 10
22.615950
 20
31.457625
 30
0.0
 11
16.221881
 21
32.585070
 31
0.0
  0
LINE
  5
1a8
100
AcDbEntity
  8
Calque_1
 62
1
100
AcDbLine
 10
22.615951
 20
28.806957
 30
0.0
 11
16.221883
 21
27.679509
 31
0.0
  0
LINE
  5
1a9
100
AcDbEntity
  8
Calque_1
 62
1
100
AcDbLine
 10
22.960282
 20
27.521893
 30
0.0
 11
16.859133
 21
25.301255
 31
0.0
  0
LINE
  5
1aa
100
AcDbEntity
  8
Calque_1
 62
1
100
AcDbLine
 10
24.285617
 20
25.226348
 30
0.0
 11
19.311916
 21
21.052915
 31
0.0
  0
LINE
  5
1ab
100
AcDbEntity
  8
Calque_1
 62
1
100
AcDbLine
 10
25.226348
 20
24.285615
 30
0.0
 11
21.052917
 21
19.311912
 31
0.0
  0
SPLINE
  5
1ac
100
AcDbEntity
  8
Calque_1
 62
6
100
AcDbSpline
 70
8
 71
3
 72
8
 73
4
 74
0
 40
0
 40
0
 40
0
 40
0
 40
1
 40
1
 40
1
 40
1
 10
18.405632
 20
10.003610
 30
0.0
 10
18.405632
 20
10.389457
 30
0.0
 10
18.369114
 20
10.660930
 30
0.0
 10
18.296078
 20
10.818030
 30
0.0
  0
SPLINE
  5
1ad
100
AcDbEntity
  8
Calque_1
 62
6
100
AcDbSpline
 70
8
 71
3
 72
8
 73
4
 74
0
 40
0
 40
0
 40
0
 40
0
 40
1
 40
1
 40
1
 40
1
 10
18.296078
 20
10.818030
 30
0.0
 10
18.224420
 20
10.976503
 30
0.0
 10
18.103153
 20
11.055740
 30
0.0
 10
17.932276
 20
11.055740
 30
0.0
  0
SPLINE
  5
1ae
100
AcDbEntity
  8
Calque_1
 62
6
100
AcDbSpline
 70
8
 71
3
 72
8
 73
4
 74
0
 40
0
 40
0
 40
0
 40
0
 40
1
 40
1
 40
1
 40
1
 10
17.932276
 20
11.055740
 30
0.0
 10
17.761399
 20
11.055740
 30
0.0
 10
17.639442
 20
10.976503
 30
0.0
 10
17.566406
 20
10.818030
 30
0.0
  0
SPLINE
  5
1af
100
AcDbEntity
  8
Calque_1
 62
6
100
AcDbSpline
 70
8
 71
3
 72
8
 73
4
 74
0
 40
0
 40
0
 40
0
 40
0
 40
1
 40
1
 40
1
 40
1
 10
17.566406
 20
10.818030
 30
0.0
 10
17.493370
 20
10.660930
 30
0.0
 10
17.456852
 20
10.389457
 30
0.0
 10
17.456852
 20
10.003610
 30
0.0
  0
SPLINE
  5
1b0
100
AcDbEntity
  8
Calque_1
 62
6
100
AcDbSpline
 70
8
 71
3
 72
8
 73
4
 74
0
 40
0
 40
0
 40
0
 40
0
 40
1
 40
1
 40
1
 40
1
 10
17.456852
 20
10.003610
 30
0.0
 10
17.456852
 20
9.613623
 30
0.0
 10
17.493370
 20
9.338703
 30
0.0
 10
17.566406
 20
9.178850
 30
0.0
  0
SPLINE
  5
1b1
100
AcDbEntity
  8
Calque_1
 62
6
100
AcDbSpline
 70
8
 71
3
 72
8
 73
4
 74
0
 40
0
 40
0
 40
0
 40
0
 40
1
 40
1
 40
1
 40
1
 10
17.566406
 20
9.178850
 30
0.0
 10
17.639442
 20
9.018997
 30
0.0
 10
17.761399
 20
8.939070
 30
0.0
 10
17.932276
 20
8.939070
 30
0.0
  0
SPLINE
  5
1b2
100
AcDbEntity
  8
Calque_1
 62
6
100
AcDbSpline
 70
8
 71
3
 72
8
 73
4
 74
0
 40
0
 40
0
 40
0
 40
0
 40
1
 40
1
 40
1
 40
1
 10
17.932276
 20
8.939070
 30
0.0
 10
18.101775
 20
8.939070
 30
0.0
 10
18.223042
 20
9.018997
 30
0.0
 10
18.296078
 20
9.178850
 30
0.0
  0
SPLINE
  5
1b3
100
AcDbEntity
  8
Calque_1
 62
6
100
AcDbSpline
 70
8
 71
3
 72
8
 73
4
 74
0
 40
0
 40
0
 40
0
 40
0
 40
1
 40
1
 40
1
 40
1
 10
18.296078
 20
9.178850
 30
0.0
 10
18.369114
 20
9.338703
 30
0.0
 10
18.405632
 20
9.613623
 30
0.0
 10
18.405632
 20
10.003610
 30
0.0
  0
LINE
  5
1b4
100
AcDbEntity
  8
Calque_1
 62
6
100
AcDbLine
 10
18.405632
 20
10.003610
 30
0.0
 11
18.405632
 21
10.003610
 31
0.0
  0
SPLINE
  5
1b5
100
AcDbEntity
  8
Calque_1
 62
6
100
AcDbSpline
 70
8
 71
3
 72
8
 73
4
 74
0
 40
0
 40
0
 40
0
 40
0
 40
1
 40
1
 40
1
 40
1
 10
19.201449
 20
9.997610
 30
0.0
 10
19.201449
 20
9.486357
 30
0.0
 10
19.091206
 20
9.091547
 30
0.0
 10
18.870720
 20
8.813180
 30
0.0
  0
SPLINE
  5
1b6
100
AcDbEntity
  8
Calque_1
 62
6
100
AcDbSpline
 70
8
 71
3
 72
8
 73
4
 74
0
 40
0
 40
0
 40
0
 40
0
 40
1
 40
1
 40
1
 40
1
 10
18.870720
 20
8.813180
 30
0.0
 10
18.650233
 20
8.536200
 30
0.0
 10
18.337419
 20
8.397710
 30
0.0
 10
17.932276
 20
8.397710
 30
0.0
  0
SPLINE
  5
1b7
100
AcDbEntity
  8
Calque_1
 62
6
100
AcDbSpline
 70
8
 71
3
 72
8
 73
4
 74
0
 40
0
 40
0
 40
0
 40
0
 40
1
 40
1
 40
1
 40
1
 10
17.932276
 20
8.397710
 30
0.0
 10
17.525755
 20
8.397710
 30
0.0
 10
17.212251
 20
8.536200
 30
0.0
 10
16.991765
 20
8.813180
 30
0.0
  0
SPLINE
  5
1b8
100
AcDbEntity
  8
Calque_1
 62
6
100
AcDbSpline
 70
8
 71
3
 72
8
 73
4
 74
0
 40
0
 40
0
 40
0
 40
0
 40
1
 40
1
 40
1
 40
1
 10
16.991765
 20
8.813180
 30
0.0
 10
16.771278
 20
9.091547
 30
0.0
 10
16.661035
 20
9.486357
 30
0.0
 10
16.661035
 20
9.997610
 30
0.0
  0
SPLINE
  5
1b9
100
AcDbEntity
  8
Calque_1
 62
6
100
AcDbSpline
 70
8
 71
3
 72
8
 73
4
 74
0
 40
0
 40
0
 40
0
 40
0
 40
1
 40
1
 40
1
 40
1
 10
16.661035
 20
9.997610
 30
0.0
 10
16.661035
 20
10.510237
 30
0.0
 10
16.771278
 20
10.905043
 30
0.0
 10
16.991765
 20
11.182030
 30
0.0
  0
SPLINE
  5
1ba
100
AcDbEntity
  8
Calque_1
 62
6
100
AcDbSpline
 70
8
 71
3
 72
8
 73
4
 74
0
 40
0
 40
0
 40
0
 40
0
 40
1
 40
1
 40
1
 40
1
 10
16.991765
 20
11.182030
 30
0.0
 10
17.212251
 20
11.460397
 30
0.0
 10
17.525755
 20
11.599580
 30
0.0
 10
17.932276
 20
11.599580
 30
0.0
  0
SPLINE
  5
1bb
100
AcDbEntity
  8
Calque_1
 62
6
100
AcDbSpline
 70
8
 71
3
 72
8
 73
4
 74
0
 40
0
 40
0
 40
0
 40
0
 40
1
 40
1
 40
1
 40
1
 10
17.932276
 20
11.599580
 30
0.0
 10
18.337419
 20
11.599580
 30
0.0
 10
18.650233
 20
11.460397
 30
0.0
 10
18.870720
 20
11.182030
 30
0.0
  0
SPLINE
  5
1bc
100
AcDbEntity
  8
Calque_1
 62
6
100
AcDbSpline
 70
8
 71
3
 72
8
 73
4
 74
0
 40
0
 40
0
 40
0
 40
0
 40
1
 40
1
 40
1
 40
1
 10
18.870720
 20
11.182030
 30
0.0
 10
19.091206
 20
10.905043
 30
0.0
 10
19.201449
 20
10.510237
 30
0.0
 10
19.201449
 20
9.997610
 30
0.0
  0
LINE
  5
1bd
100
AcDbEntity
  8
Calque_1
 62
6
100
AcDbLine
 10
19.201449
 20
9.997610
 30
0.0
 11
19.201449
 21
9.997610
 31
0.0
  0
SPLINE
  5
1be
100
AcDbEntity
  8
Calque_1
 62
6
100
AcDbSpline
 70
8
 71
3
 72
8
 73
4
 74
0
 40
0
 40
0
 40
0
 40
0
 40
1
 40
1
 40
1
 40
1
 10
7.884881
 20
17.723505
 30
0.0
 10
8.092965
 20
17.669758
 30
0.0
 10
8.250750
 20
17.576052
 30
0.0
 10
8.358237
 20
17.442385
 30
0.0
  0
SPLINE
  5
1bf
100
AcDbEntity
  8
Calque_1
 62
6
100
AcDbSpline
 70
8
 71
3
 72
8
 73
4
 74
0
 40
0
 40
0
 40
0
 40
0
 40
1
 40
1
 40
1
 40
1
 10
8.358237
 20
17.442385
 30
0.0
 10
8.467102
 20
17.310093
 30
0.0
 10
8.521535
 20
17.141283
 30
0.0
 10
8.521535
 20
16.935956
 30
0.0
  0
SPLINE
  5
1c0
100
AcDbEntity
  8
Calque_1
 62
6
100
AcDbSpline
 70
8
 71
3
 72
8
 73
4
 74
0
 40
0
 40
0
 40
0
 40
0
 40
1
 40
1
 40
1
 40
1
 10
8.521535
 20
16.935956
 30
0.0
 10
8.521535
 20
16.630031
 30
0.0
 10
8.404402
 20
16.397143
 30
0.0
 10
8.170135
 20
16.237290
 30
0.0
  0
SPLINE
  5
1c1
100
AcDbEntity
  8
Calque_1
 62
6
100
AcDbSpline
 70
8
 71
3
 72
8
 73
4
 74
0
 40
0
 40
0
 40
0
 40
0
 40
1
 40
1
 40
1
 40
1
 10
8.170135
 20
16.237290
 30
0.0
 10
7.935868
 20
16.078816
 30
0.0
 10
7.594115
 20
15.999579
 30
0.0
 10
7.144875
 20
15.999579
 30
0.0
  0
SPLINE
  5
1c2
100
AcDbEntity
  8
Calque_1
 62
6
100
AcDbSpline
 70
8
 71
3
 72
8
 73
4
 74
0
 40
0
 40
0
 40
0
 40
0
 40
1
 40
1
 40
1
 40
1
 10
7.144875
 20
15.999579
 30
0.0
 10
6.986400
 20
15.999579
 30
0.0
 10
6.827237
 20
16.012669
 30
0.0
 10
6.667385
 20
16.038849
 30
0.0
  0
SPLINE
  5
1c3
100
AcDbEntity
  8
Calque_1
 62
6
100
AcDbSpline
 70
8
 71
3
 72
8
 73
4
 74
0
 40
0
 40
0
 40
0
 40
0
 40
1
 40
1
 40
1
 40
1
 10
6.667385
 20
16.038849
 30
0.0
 10
6.508910
 20
16.063656
 30
0.0
 10
6.351814
 20
16.101552
 30
0.0
 10
6.196096
 20
16.152537
 30
0.0
  0
LINE
  5
1c4
100
AcDbEntity
  8
Calque_1
 62
6
100
AcDbLine
 10
6.196096
 20
16.152537
 30
0.0
 11
6.196096
 21
16.766453
 31
0.0
  0
SPLINE
  5
1c5
100
AcDbEntity
  8
Calque_1
 62
6
100
AcDbSpline
 70
8
 71
3
 72
8
 73
4
 74
0
 40
0
 40
0
 40
0
 40
0
 40
1
 40
1
 40
1
 40
1
 10
6.196096
 20
16.766453
 30
0.0
 10
6.344924
 20
16.692039
 30
0.0
 10
6.492374
 20
16.635539
 30
0.0
 10
6.638446
 20
16.596954
 30
0.0
  0
SPLINE
  5
1c6
100
AcDbEntity
  8
Calque_1
 62
6
100
AcDbSpline
 70
8
 71
3
 72
8
 73
4
 74
0
 40
0
 40
0
 40
0
 40
0
 40
1
 40
1
 40
1
 40
1
 10
6.638446
 20
16.596954
 30
0.0
 10
6.785896
 20
16.559747
 30
0.0
 10
6.930590
 20
16.541144
 30
0.0
 10
7.072528
 20
16.541144
 30
0.0
  0
SPLINE
  5
1c7
100
AcDbEntity
  8
Calque_1
 62
6
100
AcDbSpline
 70
8
 71
3
 72
8
 73
4
 74
0
 40
0
 40
0
 40
0
 40
0
 40
1
 40
1
 40
1
 40
1
 10
7.072528
 20
16.541144
 30
0.0
 10
7.283368
 20
16.541144
 30
0.0
 10
7.444598
 20
16.577662
 30
0.0
 10
7.556219
 20
16.650698
 30
0.0
  0
SPLINE
  5
1c8
100
AcDbEntity
  8
Calque_1
 62
6
100
AcDbSpline
 70
8
 71
3
 72
8
 73
4
 74
0
 40
0
 40
0
 40
0
 40
0
 40
1
 40
1
 40
1
 40
1
 10
7.556219
 20
16.650698
 30
0.0
 10
7.669218
 20
16.723734
 30
0.0
 10
7.725718
 20
16.828465
 30
0.0
 10
7.725718
 20
16.964891
 30
0.0
  0
SPLINE
  5
1c9
100
AcDbEntity
  8
Calque_1
 62
6
100
AcDbSpline
 70
8
 71
3
 72
8
 73
4
 74
0
 40
0
 40
0
 40
0
 40
0
 40
1
 40
1
 40
1
 40
1
 10
7.725718
 20
16.964891
 30
0.0
 10
7.725718
 20
17.105450
 30
0.0
 10
7.667840
 20
17.211559
 30
0.0
 10
7.552085
 20
17.283217
 30
0.0
  0
SPLINE
  5
1ca
100
AcDbEntity
  8
Calque_1
 62
6
100
AcDbSpline
 70
8
 71
3
 72
8
 73
4
 74
0
 40
0
 40
0
 40
0
 40
0
 40
1
 40
1
 40
1
 40
1
 10
7.552085
 20
17.283217
 30
0.0
 10
7.437708
 20
17.356253
 30
0.0
 10
7.268209
 20
17.392771
 30
0.0
 10
7.043589
 20
17.392771
 30
0.0
  0
LINE
  5
1cb
100
AcDbEntity
  8
Calque_1
 62
6
100
AcDbLine
 10
7.043589
 20
17.392771
 30
0.0
 11
6.725262
 21
17.392771
 31
0.0
  0
LINE
  5
1cc
100
AcDbEntity
  8
Calque_1
 62
6
100
AcDbLine
 10
6.725262
 20
17.392771
 30
0.0
 11
6.725262
 21
17.905402
 31
0.0
  0
LINE
  5
1cd
100
AcDbEntity
  8
Calque_1
 62
6
100
AcDbLine
 10
6.725262
 20
17.905402
 30
0.0
 11
7.060125
 21
17.905402
 31
0.0
  0
SPLINE
  5
1ce
100
AcDbEntity
  8
Calque_1
 62
6
100
AcDbSpline
 70
8
 71
3
 72
8
 73
4
 74
0
 40
0
 40
0
 40
0
 40
0
 40
1
 40
1
 40
1
 40
1
 10
7.060125
 20
17.905402
 30
0.0
 10
7.259941
 20
17.905402
 30
0.0
 10
7.408769
 20
17.936409
 30
0.0
 10
7.506610
 20
17.998422
 30
0.0
  0
SPLINE
  5
1cf
100
AcDbEntity
  8
Calque_1
 62
6
100
AcDbSpline
 70
8
 71
3
 72
8
 73
4
 74
0
 40
0
 40
0
 40
0
 40
0
 40
1
 40
1
 40
1
 40
1
 10
7.506610
 20
17.998422
 30
0.0
 10
7.604451
 20
18.061809
 30
0.0
 10
7.653371
 20
18.157582
 30
0.0
 10
7.653371
 20
18.285743
 30
0.0
  0
SPLINE
  5
1d0
100
AcDbEntity
  8
Calque_1
 62
6
100
AcDbSpline
 70
8
 71
3
 72
8
 73
4
 74
0
 40
0
 40
0
 40
0
 40
0
 40
1
 40
1
 40
1
 40
1
 10
7.653371
 20
18.285743
 30
0.0
 10
7.653371
 20
18.404254
 30
0.0
 10
7.605829
 20
18.495894
 30
0.0
 10
7.510744
 20
18.560662
 30
0.0
  0
SPLINE
  5
1d1
100
AcDbEntity
  8
Calque_1
 62
6
100
AcDbSpline
 70
8
 71
3
 72
8
 73
4
 74
0
 40
0
 40
0
 40
0
 40
0
 40
1
 40
1
 40
1
 40
1
 10
7.510744
 20
18.560662
 30
0.0
 10
7.415659
 20
18.625429
 30
0.0
 10
7.281301
 20
18.657812
 30
0.0
 10
7.107668
 20
18.657812
 30
0.0
  0
SPLINE
  5
1d2
100
AcDbEntity
  8
Calque_1
 62
6
100
AcDbSpline
 70
8
 71
3
 72
8
 73
4
 74
0
 40
0
 40
0
 40
0
 40
0
 40
1
 40
1
 40
1
 40
1
 10
7.107668
 20
18.657812
 30
0.0
 10
6.979510
 20
18.657812
 30
0.0
 10
6.849974
 20
18.643342
 30
0.0
 10
6.719061
 20
18.614402
 30
0.0
  0
SPLINE
  5
1d3
100
AcDbEntity
  8
Calque_1
 62
6
100
AcDbSpline
 70
8
 71
3
 72
8
 73
4
 74
0
 40
0
 40
0
 40
0
 40
0
 40
1
 40
1
 40
1
 40
1
 10
6.719061
 20
18.614402
 30
0.0
 10
6.588148
 20
18.585462
 30
0.0
 10
6.457923
 20
18.542743
 30
0.0
 10
6.328387
 20
18.486245
 30
0.0
  0
LINE
  5
1d4
100
AcDbEntity
  8
Calque_1
 62
6
100
AcDbLine
 10
6.328387
 20
18.486245
 30
0.0
 11
6.328387
 21
19.069155
 31
0.0
  0
SPLINE
  5
1d5
100
AcDbEntity
  8
Calque_1
 62
6
100
AcDbSpline
 70
8
 71
3
 72
8
 73
4
 74
0
 40
0
 40
0
 40
0
 40
0
 40
1
 40
1
 40
1
 40
1
 10
6.328387
 20
19.069155
 30
0.0
 10
6.485484
 20
19.113255
 30
0.0
 10
6.641202
 20
19.146328
 30
0.0
 10
6.795542
 20
19.168375
 30
0.0
  0
SPLINE
  5
1d6
100
AcDbEntity
  8
Calque_1
 62
6
100
AcDbSpline
 70
8
 71
3
 72
8
 73
4
 74
0
 40
0
 40
0
 40
0
 40
0
 40
1
 40
1
 40
1
 40
1
 10
6.795542
 20
19.168375
 30
0.0
 10
6.949883
 20
19.190422
 30
0.0
 10
7.101467
 20
19.201445
 30
0.0
 10
7.250295
 20
19.201445
 30
0.0
  0
SPLINE
  5
1d7
100
AcDbEntity
  8
Calque_1
 62
6
100
AcDbSpline
 70
8
 71
3
 72
8
 73
4
 74
0
 40
0
 40
0
 40
0
 40
0
 40
1
 40
1
 40
1
 40
1
 10
7.250295
 20
19.201445
 30
0.0
 10
7.651304
 20
19.201445
 30
0.0
 10
7.951027
 20
19.135299
 30
0.0
 10
8.149465
 20
19.003008
 30
0.0
  0
SPLINE
  5
1d8
100
AcDbEntity
  8
Calque_1
 62
6
100
AcDbSpline
 70
8
 71
3
 72
8
 73
4
 74
0
 40
0
 40
0
 40
0
 40
0
 40
1
 40
1
 40
1
 40
1
 10
8.149465
 20
19.003008
 30
0.0
 10
8.349280
 20
18.872095
 30
0.0
 10
8.449188
 20
18.674346
 30
0.0
 10
8.449188
 20
18.409763
 30
0.0
  0
SPLINE
  5
1d9
100
AcDbEntity
  8
Calque_1
 62
6
100
AcDbSpline
 70
8
 71
3
 72
8
 73
4
 74
0
 40
0
 40
0
 40
0
 40
0
 40
1
 40
1
 40
1
 40
1
 10
8.449188
 20
18.409763
 30
0.0
 10
8.449188
 20
18.229240
 30
0.0
 10
8.401646
 20
18.081100
 30
0.0
 10
8.306561
 20
17.965345
 30
0.0
  0
SPLINE
  5
1da
100
AcDbEntity
  8
Calque_1
 62
6
100
AcDbSpline
 70
8
 71
3
 72
8
 73
4
 74
0
 40
0
 40
0
 40
0
 40
0
 40
1
 40
1
 40
1
 40
1
 10
8.306561
 20
17.965345
 30
0.0
 10
8.211476
 20
17.850968
 30
0.0
 10
8.070916
 20
17.770353
 30
0.0
 10
7.884881
 20
17.723500
 30
0.0
  0
LINE
  5
1db
100
AcDbEntity
  8
Calque_1
 62
6
100
AcDbLine
 10
7.884881
 20
17.723500
 30
0.0
 11
7.884881
 21
17.723505
 31
0.0
  0
SPLINE
  5
1dc
100
AcDbEntity
  8
Calque_1
 62
6
100
AcDbSpline
 70
8
 71
3
 72
8
 73
4
 74
0
 40
0
 40
0
 40
0
 40
0
 40
1
 40
1
 40
1
 40
1
 10
10.803566
 20
17.605682
 30
0.0
 10
10.803566
 20
17.991533
 30
0.0
 10
10.767048
 20
18.263006
 30
0.0
 10
10.694012
 20
18.420103
 30
0.0
  0
SPLINE
  5
1dd
100
AcDbEntity
  8
Calque_1
 62
6
100
AcDbSpline
 70
8
 71
3
 72
8
 73
4
 74
0
 40
0
 40
0
 40
0
 40
0
 40
1
 40
1
 40
1
 40
1
 10
10.694012
 20
18.420103
 30
0.0
 10
10.622354
 20
18.578577
 30
0.0
 10
10.501087
 20
18.657814
 30
0.0
 10
10.330210
 20
18.657814
 30
0.0
  0
SPLINE
  5
1de
100
AcDbEntity
  8
Calque_1
 62
6
100
AcDbSpline
 70
8
 71
3
 72
8
 73
4
 74
0
 40
0
 40
0
 40
0
 40
0
 40
1
 40
1
 40
1
 40
1
 10
10.330210
 20
18.657814
 30
0.0
 10
10.159333
 20
18.657814
 30
0.0
 10
10.037377
 20
18.578577
 30
0.0
 10
9.964341
 20
18.420103
 30
0.0
  0
SPLINE
  5
1df
100
AcDbEntity
  8
Calque_1
 62
6
100
AcDbSpline
 70
8
 71
3
 72
8
 73
4
 74
0
 40
0
 40
0
 40
0
 40
0
 40
1
 40
1
 40
1
 40
1
 10
9.964341
 20
18.420103
 30
0.0
 10
9.891305
 20
18.263006
 30
0.0
 10
9.854787
 20
17.991533
 30
0.0
 10
9.854787
 20
17.605682
 30
0.0
  0
SPLINE
  5
1e0
100
AcDbEntity
  8
Calque_1
 62
6
100
AcDbSpline
 70
8
 71
3
 72
8
 73
4
 74
0
 40
0
 40
0
 40
0
 40
0
 40
1
 40
1
 40
1
 40
1
 10
9.854787
 20
17.605682
 30
0.0
 10
9.854787
 20
17.215697
 30
0.0
 10
9.891305
 20
16.940779
 30
0.0
 10
9.964341
 20
16.780926
 30
0.0
  0
SPLINE
  5
1e1
100
AcDbEntity
  8
Calque_1
 62
6
100
AcDbSpline
 70
8
 71
3
 72
8
 73
4
 74
0
 40
0
 40
0
 40
0
 40
0
 40
1
 40
1
 40
1
 40
1
 10
9.964341
 20
16.780926
 30
0.0
 10
10.037377
 20
16.621074
 30
0.0
 10
10.159333
 20
16.541148
 30
0.0
 10
10.330210
 20
16.541148
 30
0.0
  0
SPLINE
  5
1e2
100
AcDbEntity
  8
Calque_1
 62
6
100
AcDbSpline
 70
8
 71
3
 72
8
 73
4
 74
0
 40
0
 40
0
 40
0
 40
0
 40
1
 40
1
 40
1
 40
1
 10
10.330210
 20
16.541148
 30
0.0
 10
10.499709
 20
16.541148
 30
0.0
 10
10.620976
 20
16.621074
 30
0.0
 10
10.694012
 20
16.780926
 30
0.0
  0
SPLINE
  5
1e3
100
AcDbEntity
  8
Calque_1
 62
6
100
AcDbSpline
 70
8
 71
3
 72
8
 73
4
 74
0
 40
0
 40
0
 40
0
 40
0
 40
1
 40
1
 40
1
 40
1
 10
10.694012
 20
16.780926
 30
0.0
 10
10.767048
 20
16.940779
 30
0.0
 10
10.803566
 20
17.215697
 30
0.0
 10
10.803566
 20
17.605682
 30
0.0
  0
LINE
  5
1e4
100
AcDbEntity
  8
Calque_1
 62
6
100
AcDbLine
 10
10.803566
 20
17.605682
 30
0.0
 11
10.803566
 21
17.605682
 31
0.0
  0
SPLINE
  5
1e5
100
AcDbEntity
  8
Calque_1
 62
6
100
AcDbSpline
 70
8
 71
3
 72
8
 73
4
 74
0
 40
0
 40
0
 40
0
 40
0
 40
1
 40
1
 40
1
 40
1
 10
11.599383
 20
17.599482
 30
0.0
 10
11.599383
 20
17.088230
 30
0.0
 10
11.489140
 20
16.693422
 30
0.0
 10
11.268654
 20
16.415058
 30
0.0
  0
SPLINE
  5
1e6
100
AcDbEntity
  8
Calque_1
 62
6
100
AcDbSpline
 70
8
 71
3
 72
8
 73
4
 74
0
 40
0
 40
0
 40
0
 40
0
 40
1
 40
1
 40
1
 40
1
 10
11.268654
 20
16.415058
 30
0.0
 10
11.048168
 20
16.138073
 30
0.0
 10
10.735353
 20
15.999580
 30
0.0
 10
10.330210
 20
15.999580
 30
0.0
  0
SPLINE
  5
1e7
100
AcDbEntity
  8
Calque_1
 62
6
100
AcDbSpline
 70
8
 71
3
 72
8
 73
4
 74
0
 40
0
 40
0
 40
0
 40
0
 40
1
 40
1
 40
1
 40
1
 10
10.330210
 20
15.999580
 30
0.0
 10
9.923689
 20
15.999580
 30
0.0
 10
9.610185
 20
16.138073
 30
0.0
 10
9.389699
 20
16.415058
 30
0.0
  0
SPLINE
  5
1e8
100
AcDbEntity
  8
Calque_1
 62
6
100
AcDbSpline
 70
8
 71
3
 72
8
 73
4
 74
0
 40
0
 40
0
 40
0
 40
0
 40
1
 40
1
 40
1
 40
1
 10
9.389699
 20
16.415058
 30
0.0
 10
9.169213
 20
16.693422
 30
0.0
 10
9.058970
 20
17.088230
 30
0.0
 10
9.058970
 20
17.599482
 30
0.0
  0
SPLINE
  5
1e9
100
AcDbEntity
  8
Calque_1
 62
6
100
AcDbSpline
 70
8
 71
3
 72
8
 73
4
 74
0
 40
0
 40
0
 40
0
 40
0
 40
1
 40
1
 40
1
 40
1
 10
9.058970
 20
17.599482
 30
0.0
 10
9.058970
 20
18.112112
 30
0.0
 10
9.169213
 20
18.506920
 30
0.0
 10
9.389699
 20
18.783906
 30
0.0
  0
SPLINE
  5
1ea
100
AcDbEntity
  8
Calque_1
 62
6
100
AcDbSpline
 70
8
 71
3
 72
8
 73
4
 74
0
 40
0
 40
0
 40
0
 40
0
 40
1
 40
1
 40
1
 40
1
 10
9.389699
 20
18.783906
 30
0.0
 10
9.610185
 20
19.062269
 30
0.0
 10
9.923689
 20
19.201451
 30
0.0
 10
10.330210
 20
19.201451
 30
0.0
  0
SPLINE
  5
1eb
100
AcDbEntity
  8
Calque_1
 62
6
100
AcDbSpline
 70
8
 71
3
 72
8
 73
4
 74
0
 40
0
 40
0
 40
0
 40
0
 40
1
 40
1
 40
1
 40
1
 10
10.330210
 20
19.201451
 30
0.0
 10
10.735353
 20
19.201451
 30
0.0
 10
11.048168
 20
19.062269
 30
0.0
 10
11.268654
 20
18.783906
 30
0.0
  0
SPLINE
  5
1ec
100
AcDbEntity
  8
Calque_1
 62
6
100
AcDbSpline
 70
8
 71
3
 72
8
 73
4
 74
0
 40
0
 40
0
 40
0
 40
0
 40
1
 40
1
 40
1
 40
1
 10
11.268654
 20
18.783906
 30
0.0
 10
11.489140
 20
18.506920
 30
0.0
 10
11.599383
 20
18.112112
 30
0.0
 10
11.599383
 20
17.599482
 30
0.0
  0
LINE
  5
1ed
100
AcDbEntity
  8
Calque_1
 62
6
100
AcDbLine
 10
11.599383
 20
17.599482
 30
0.0
 11
11.599383
 21
17.599482
 31
0.0
  0
SPLINE
  5
1ee
100
AcDbEntity
  8
Calque_1
 62
6
100
AcDbSpline
 70
8
 71
3
 72
8
 73
4
 74
0
 40
0
 40
0
 40
0
 40
0
 40
1
 40
1
 40
1
 40
1
 10
4.936257
 20
30.117654
 30
0.0
 10
4.820272
 20
30.117654
 30
0.0
 10
4.732997
 20
30.079758
 30
0.0
 10
4.674430
 20
30.003965
 30
0.0
  0
SPLINE
  5
1ef
100
AcDbEntity
  8
Calque_1
 62
6
100
AcDbSpline
 70
8
 71
3
 72
8
 73
4
 74
0
 40
0
 40
0
 40
0
 40
0
 40
1
 40
1
 40
1
 40
1
 10
4.674430
 20
30.003965
 30
0.0
 10
4.617010
 20
29.929322
 30
0.0
 10
4.588300
 20
29.816782
 30
0.0
 10
4.588300
 20
29.666346
 30
0.0
  0
SPLINE
  5
1f0
100
AcDbEntity
  8
Calque_1
 62
6
100
AcDbSpline
 70
8
 71
3
 72
8
 73
4
 74
0
 40
0
 40
0
 40
0
 40
0
 40
1
 40
1
 40
1
 40
1
 10
4.588300
 20
29.666346
 30
0.0
 10
4.588300
 20
29.515910
 30
0.0
 10
4.617010
 20
29.402796
 30
0.0
 10
4.674430
 20
29.327004
 30
0.0
  0
SPLINE
  5
1f1
100
AcDbEntity
  8
Calque_1
 62
6
100
AcDbSpline
 70
8
 71
3
 72
8
 73
4
 74
0
 40
0
 40
0
 40
0
 40
0
 40
1
 40
1
 40
1
 40
1
 10
4.674430
 20
29.327004
 30
0.0
 10
4.732997
 20
29.252361
 30
0.0
 10
4.820272
 20
29.215039
 30
0.0
 10
4.936257
 20
29.215039
 30
0.0
  0
SPLINE
  5
1f2
100
AcDbEntity
  8
Calque_1
 62
6
100
AcDbSpline
 70
8
 71
3
 72
8
 73
4
 74
0
 40
0
 40
0
 40
0
 40
0
 40
1
 40
1
 40
1
 40
1
 10
4.936257
 20
29.215039
 30
0.0
 10
5.053390
 20
29.215039
 30
0.0
 10
5.140666
 20
29.252361
 30
0.0
 10
5.198084
 20
29.327004
 30
0.0
  0
SPLINE
  5
1f3
100
AcDbEntity
  8
Calque_1
 62
6
100
AcDbSpline
 70
8
 71
3
 72
8
 73
4
 74
0
 40
0
 40
0
 40
0
 40
0
 40
1
 40
1
 40
1
 40
1
 10
5.198084
 20
29.327004
 30
0.0
 10
5.256651
 20
29.402796
 30
0.0
 10
5.285934
 20
29.515910
 30
0.0
 10
5.285934
 20
29.666346
 30
0.0
  0
SPLINE
  5
1f4
100
AcDbEntity
  8
Calque_1
 62
6
100
AcDbSpline
 70
8
 71
3
 72
8
 73
4
 74
0
 40
0
 40
0
 40
0
 40
0
 40
1
 40
1
 40
1
 40
1
 10
5.285934
 20
29.666346
 30
0.0
 10
5.285934
 20
29.816782
 30
0.0
 10
5.256651
 20
29.929322
 30
0.0
 10
5.198084
 20
30.003965
 30
0.0
  0
SPLINE
  5
1f5
100
AcDbEntity
  8
Calque_1
 62
6
100
AcDbSpline
 70
8
 71
3
 72
8
 73
4
 74
0
 40
0
 40
0
 40
0
 40
0
 40
1
 40
1
 40
1
 40
1
 10
5.198084
 20
30.003965
 30
0.0
 10
5.140664
 20
30.079758
 30
0.0
 10
5.053388
 20
30.117654
 30
0.0
 10
4.936257
 20
30.117654
 30
0.0
  0
LINE
  5
1f6
100
AcDbEntity
  8
Calque_1
 62
6
100
AcDbLine
 10
4.936257
 20
30.117654
 30
0.0
 11
4.936257
 21
30.117654
 31
0.0
  0
LINE
  5
1f7
100
AcDbEntity
  8
Calque_1
 62
6
100
AcDbLine
 10
5.756190
 20
31.352720
 30
0.0
 11
5.756190
 21
30.877297
 31
0.0
  0
SPLINE
  5
1f8
100
AcDbEntity
  8
Calque_1
 62
6
100
AcDbSpline
 70
8
 71
3
 72
8
 73
4
 74
0
 40
0
 40
0
 40
0
 40
0
 40
1
 40
1
 40
1
 40
1
 10
5.756190
 20
30.877297
 30
0.0
 10
5.647095
 20
30.928977
 30
0.0
 10
5.544317
 20
30.966873
 30
0.0
 10
5.447854
 20
30.990985
 30
0.0
  0
SPLINE
  5
1f9
100
AcDbEntity
  8
Calque_1
 62
6
100
AcDbSpline
 70
8
 71
3
 72
8
 73
4
 74
0
 40
0
 40
0
 40
0
 40
0
 40
1
 40
1
 40
1
 40
1
 10
5.447854
 20
30.990985
 30
0.0
 10
5.351391
 20
31.016252
 30
0.0
 10
5.257225
 20
31.028885
 30
0.0
 10
5.165356
 20
31.028885
 30
0.0
  0
SPLINE
  5
1fa
100
AcDbEntity
  8
Calque_1
 62
6
100
AcDbSpline
 70
8
 71
3
 72
8
 73
4
 74
0
 40
0
 40
0
 40
0
 40
0
 40
1
 40
1
 40
1
 40
1
 10
5.165356
 20
31.028885
 30
0.0
 10
4.967837
 20
31.028885
 30
0.0
 10
4.813956
 20
30.973764
 30
0.0
 10
4.703713
 20
30.863521
 30
0.0
  0
SPLINE
  5
1fb
100
AcDbEntity
  8
Calque_1
 62
6
100
AcDbSpline
 70
8
 71
3
 72
8
 73
4
 74
0
 40
0
 40
0
 40
0
 40
0
 40
1
 40
1
 40
1
 40
1
 10
4.703713
 20
30.863521
 30
0.0
 10
4.593470
 20
30.754426
 30
0.0
 10
4.529162
 20
30.591933
 30
0.0
 10
4.510788
 20
30.376040
 30
0.0
  0
SPLINE
  5
1fc
100
AcDbEntity
  8
Calque_1
 62
6
100
AcDbSpline
 70
8
 71
3
 72
8
 73
4
 74
0
 40
0
 40
0
 40
0
 40
0
 40
1
 40
1
 40
1
 40
1
 10
4.510788
 20
30.376040
 30
0.0
 10
4.586580
 20
30.432313
 30
0.0
 10
4.668688
 20
30.474229
 30
0.0
 10
4.757112
 20
30.501786
 30
0.0
  0
SPLINE
  5
1fd
100
AcDbEntity
  8
Calque_1
 62
6
100
AcDbSpline
 70
8
 71
3
 72
8
 73
4
 74
0
 40
0
 40
0
 40
0
 40
0
 40
1
 40
1
 40
1
 40
1
 10
4.757112
 20
30.501786
 30
0.0
 10
4.845536
 20
30.530493
 30
0.0
 10
4.941999
 20
30.544846
 30
0.0
 10
5.046500
 20
30.544846
 30
0.0
  0
SPLINE
  5
1fe
100
AcDbEntity
  8
Calque_1
 62
6
100
AcDbSpline
 70
8
 71
3
 72
8
 73
4
 74
0
 40
0
 40
0
 40
0
 40
0
 40
1
 40
1
 40
1
 40
1
 10
5.046500
 20
30.544846
 30
0.0
 10
5.309476
 20
30.544846
 30
0.0
 10
5.521349
 20
30.467906
 30
0.0
 10
5.682120
 20
30.314025
 30
0.0
  0
SPLINE
  5
1ff
100
AcDbEntity
  8
Calque_1
 62
6
100
AcDbSpline
 70
8
 71
3
 72
8
 73
4
 74
0
 40
0
 40
0
 40
0
 40
0
 40
1
 40
1
 40
1
 40
1
 10
5.682120
 20
30.314025
 30
0.0
 10
5.844040
 20
30.160144
 30
0.0
 10
5.925000
 20
29.958606
 30
0.0
 10
5.925000
 20
29.709411
 30
0.0
  0
SPLINE
  5
200
100
AcDbEntity
  8
Calque_1
 62
6
100
AcDbSpline
 70
8
 71
3
 72
8
 73
4
 74
0
 40
0
 40
0
 40
0
 40
0
 40
1
 40
1
 40
1
 40
1
 10
5.925000
 20
29.709411
 30
0.0
 10
5.925000
 20
29.433803
 30
0.0
 10
5.834853
 20
29.212743
 30
0.0
 10
5.654560
 20
29.046230
 30
0.0
  0
SPLINE
  5
201
100
AcDbEntity
  8
Calque_1
 62
6
100
AcDbSpline
 70
8
 71
3
 72
8
 73
4
 74
0
 40
0
 40
0
 40
0
 40
0
 40
1
 40
1
 40
1
 40
1
 10
5.654560
 20
29.046230
 30
0.0
 10
5.474267
 20
28.880865
 30
0.0
 10
5.232536
 20
28.798183
 30
0.0
 10
4.929367
 20
28.798183
 30
0.0
  0
SPLINE
  5
202
100
AcDbEntity
  8
Calque_1
 62
6
100
AcDbSpline
 70
8
 71
3
 72
8
 73
4
 74
0
 40
0
 40
0
 40
0
 40
0
 40
1
 40
1
 40
1
 40
1
 10
4.929367
 20
28.798183
 30
0.0
 10
4.595193
 20
28.798183
 30
0.0
 10
4.336237
 20
28.910723
 30
0.0
 10
4.152498
 20
29.135802
 30
0.0
  0
SPLINE
  5
203
100
AcDbEntity
  8
Calque_1
 62
6
100
AcDbSpline
 70
8
 71
3
 72
8
 73
4
 74
0
 40
0
 40
0
 40
0
 40
0
 40
1
 40
1
 40
1
 40
1
 10
4.152498
 20
29.135802
 30
0.0
 10
3.969908
 20
29.362030
 30
0.0
 10
3.878613
 20
29.682424
 30
0.0
 10
3.878613
 20
30.096984
 30
0.0
  0
SPLINE
  5
204
100
AcDbEntity
  8
Calque_1
 62
6
100
AcDbSpline
 70
8
 71
3
 72
8
 73
4
 74
0
 40
0
 40
0
 40
0
 40
0
 40
1
 40
1
 40
1
 40
1
 10
3.878613
 20
30.096984
 30
0.0
 10
3.878613
 20
30.521879
 30
0.0
 10
3.985411
 20
30.855479
 30
0.0
 10
4.199007
 20
31.097784
 30
0.0
  0
SPLINE
  5
205
100
AcDbEntity
  8
Calque_1
 62
6
100
AcDbSpline
 70
8
 71
3
 72
8
 73
4
 74
0
 40
0
 40
0
 40
0
 40
0
 40
1
 40
1
 40
1
 40
1
 10
4.199007
 20
31.097784
 30
0.0
 10
4.413751
 20
31.341237
 30
0.0
 10
4.707732
 20
31.462964
 30
0.0
 10
5.080951
 20
31.462964
 30
0.0
  0
SPLINE
  5
206
100
AcDbEntity
  8
Calque_1
 62
6
100
AcDbSpline
 70
8
 71
3
 72
8
 73
4
 74
0
 40
0
 40
0
 40
0
 40
0
 40
1
 40
1
 40
1
 40
1
 10
5.080951
 20
31.462964
 30
0.0
 10
5.199233
 20
31.462964
 30
0.0
 10
5.314070
 20
31.453777
 30
0.0
 10
5.425461
 20
31.435404
 30
0.0
  0
SPLINE
  5
207
100
AcDbEntity
  8
Calque_1
 62
6
100
AcDbSpline
 70
8
 71
3
 72
8
 73
4
 74
0
 40
0
 40
0
 40
0
 40
0
 40
1
 40
1
 40
1
 40
1
 10
5.425461
 20
31.435404
 30
0.0
 10
5.536852
 20
31.417031
 30
0.0
 10
5.647095
 20
31.389471
 30
0.0
 10
5.756190
 20
31.352724
 30
0.0
  0
LINE
  5
208
100
AcDbEntity
  8
Calque_1
 62
6
100
AcDbLine
 10
5.756190
 20
31.352724
 30
0.0
 11
5.756190
 21
31.352720
 31
0.0
  0
SPLINE
  5
209
100
AcDbEntity
  8
Calque_1
 62
6
100
AcDbSpline
 70
8
 71
3
 72
8
 73
4
 74
0
 40
0
 40
0
 40
0
 40
0
 40
1
 40
1
 40
1
 40
1
 10
7.735397
 20
30.136602
 30
0.0
 10
7.735397
 20
30.458144
 30
0.0
 10
7.704964
 20
30.684372
 30
0.0
 10
7.644097
 20
30.815285
 30
0.0
  0
SPLINE
  5
20a
100
AcDbEntity
  8
Calque_1
 62
6
100
AcDbSpline
 70
8
 71
3
 72
8
 73
4
 74
0
 40
0
 40
0
 40
0
 40
0
 40
1
 40
1
 40
1
 40
1
 10
7.644097
 20
30.815285
 30
0.0
 10
7.584384
 20
30.947347
 30
0.0
 10
7.483328
 20
31.013378
 30
0.0
 10
7.340929
 20
31.013378
 30
0.0
  0
SPLINE
  5
20b
100
AcDbEntity
  8
Calque_1
 62
6
100
AcDbSpline
 70
8
 71
3
 72
8
 73
4
 74
0
 40
0
 40
0
 40
0
 40
0
 40
1
 40
1
 40
1
 40
1
 10
7.340929
 20
31.013378
 30
0.0
 10
7.198532
 20
31.013378
 30
0.0
 10
7.096901
 20
30.947347
 30
0.0
 10
7.036038
 20
30.815285
 30
0.0
  0
SPLINE
  5
20c
100
AcDbEntity
  8
Calque_1
 62
6
100
AcDbSpline
 70
8
 71
3
 72
8
 73
4
 74
0
 40
0
 40
0
 40
0
 40
0
 40
1
 40
1
 40
1
 40
1
 10
7.036038
 20
30.815285
 30
0.0
 10
6.975171
 20
30.684372
 30
0.0
 10
6.944738
 20
30.458144
 30
0.0
 10
6.944738
 20
30.136602
 30
0.0
  0
SPLINE
  5
20d
100
AcDbEntity
  8
Calque_1
 62
6
100
AcDbSpline
 70
8
 71
3
 72
8
 73
4
 74
0
 40
0
 40
0
 40
0
 40
0
 40
1
 40
1
 40
1
 40
1
 10
6.944738
 20
30.136602
 30
0.0
 10
6.944738
 20
29.811615
 30
0.0
 10
6.975171
 20
29.582516
 30
0.0
 10
7.036038
 20
29.449305
 30
0.0
  0
SPLINE
  5
20e
100
AcDbEntity
  8
Calque_1
 62
6
100
AcDbSpline
 70
8
 71
3
 72
8
 73
4
 74
0
 40
0
 40
0
 40
0
 40
0
 40
1
 40
1
 40
1
 40
1
 10
7.036038
 20
29.449305
 30
0.0
 10
7.096898
 20
29.316094
 30
0.0
 10
7.198528
 20
29.249489
 30
0.0
 10
7.340929
 20
29.249489
 30
0.0
  0
SPLINE
  5
20f
100
AcDbEntity
  8
Calque_1
 62
6
100
AcDbSpline
 70
8
 71
3
 72
8
 73
4
 74
0
 40
0
 40
0
 40
0
 40
0
 40
1
 40
1
 40
1
 40
1
 10
7.340929
 20
29.249489
 30
0.0
 10
7.482178
 20
29.249489
 30
0.0
 10
7.583234
 20
29.316094
 30
0.0
 10
7.644097
 20
29.449305
 30
0.0
  0
SPLINE
  5
210
100
AcDbEntity
  8
Calque_1
 62
6
100
AcDbSpline
 70
8
 71
3
 72
8
 73
4
 74
0
 40
0
 40
0
 40
0
 40
0
 40
1
 40
1
 40
1
 40
1
 10
7.644097
 20
29.449305
 30
0.0
 10
7.704964
 20
29.582516
 30
0.0
 10
7.735397
 20
29.811615
 30
0.0
 10
7.735397
 20
30.136602
 30
0.0
  0
LINE
  5
211
100
AcDbEntity
  8
Calque_1
 62
6
100
AcDbLine
 10
7.735397
 20
30.136602
 30
0.0
 11
7.735397
 21
30.136602
 31
0.0
  0
SPLINE
  5
212
100
AcDbEntity
  8
Calque_1
 62
6
100
AcDbSpline
 70
8
 71
3
 72
8
 73
4
 74
0
 40
0
 40
0
 40
0
 40
0
 40
1
 40
1
 40
1
 40
1
 10
8.398578
 20
30.131402
 30
0.0
 10
8.398578
 20
29.705359
 30
0.0
 10
8.306709
 20
29.376352
 30
0.0
 10
8.122970
 20
29.144382
 30
0.0
  0
SPLINE
  5
213
100
AcDbEntity
  8
Calque_1
 62
6
100
AcDbSpline
 70
8
 71
3
 72
8
 73
4
 74
0
 40
0
 40
0
 40
0
 40
0
 40
1
 40
1
 40
1
 40
1
 10
8.122970
 20
29.144382
 30
0.0
 10
7.939232
 20
28.913561
 30
0.0
 10
7.678553
 20
28.798150
 30
0.0
 10
7.340934
 20
28.798150
 30
0.0
  0
SPLINE
  5
214
100
AcDbEntity
  8
Calque_1
 62
6
100
AcDbSpline
 70
8
 71
3
 72
8
 73
4
 74
0
 40
0
 40
0
 40
0
 40
0
 40
1
 40
1
 40
1
 40
1
 10
7.340934
 20
28.798150
 30
0.0
 10
7.002166
 20
28.798150
 30
0.0
 10
6.740913
 20
28.913561
 30
0.0
 10
6.557174
 20
29.144382
 30
0.0
  0
SPLINE
  5
215
100
AcDbEntity
  8
Calque_1
 62
6
100
AcDbSpline
 70
8
 71
3
 72
8
 73
4
 74
0
 40
0
 40
0
 40
0
 40
0
 40
1
 40
1
 40
1
 40
1
 10
6.557174
 20
29.144382
 30
0.0
 10
6.373436
 20
29.376352
 30
0.0
 10
6.281567
 20
29.705359
 30
0.0
 10
6.281567
 20
30.131402
 30
0.0
  0
SPLINE
  5
216
100
AcDbEntity
  8
Calque_1
 62
6
100
AcDbSpline
 70
8
 71
3
 72
8
 73
4
 74
0
 40
0
 40
0
 40
0
 40
0
 40
1
 40
1
 40
1
 40
1
 10
6.281567
 20
30.131402
 30
0.0
 10
6.281567
 20
30.558594
 30
0.0
 10
6.373436
 20
30.887601
 30
0.0
 10
6.557174
 20
31.118422
 30
0.0
  0
SPLINE
  5
217
100
AcDbEntity
  8
Calque_1
 62
6
100
AcDbSpline
 70
8
 71
3
 72
8
 73
4
 74
0
 40
0
 40
0
 40
0
 40
0
 40
1
 40
1
 40
1
 40
1
 10
6.557174
 20
31.118422
 30
0.0
 10
6.740913
 20
31.350391
 30
0.0
 10
7.002166
 20
31.466376
 30
0.0
 10
7.340934
 20
31.466376
 30
0.0
  0
SPLINE
  5
218
100
AcDbEntity
  8
Calque_1
 62
6
100
AcDbSpline
 70
8
 71
3
 72
8
 73
4
 74
0
 40
0
 40
0
 40
0
 40
0
 40
1
 40
1
 40
1
 40
1
 10
7.340934
 20
31.466376
 30
0.0
 10
7.678553
 20
31.466376
 30
0.0
 10
7.939232
 20
31.350391
 30
0.0
 10
8.122970
 20
31.118422
 30
0.0
  0
SPLINE
  5
219
100
AcDbEntity
  8
Calque_1
 62
6
100
AcDbSpline
 70
8
 71
3
 72
8
 73
4
 74
0
 40
0
 40
0
 40
0
 40
0
 40
1
 40
1
 40
1
 40
1
 10
8.122970
 20
31.118422
 30
0.0
 10
8.306709
 20
30.887601
 30
0.0
 10
8.398578
 20
30.558594
 30
0.0
 10
8.398578
 20
30.131402
 30
0.0
  0
LINE
  5
21a
100
AcDbEntity
  8
Calque_1
 62
6
100
AcDbLine
 10
8.398578
 20
30.131402
 30
0.0
 11
8.398578
 21
30.131402
 31
0.0
  0
LINE
  5
21b
100
AcDbEntity
  8
Calque_1
 62
6
100
AcDbLine
 10
7.213777
 20
41.169941
 30
0.0
 11
7.213777
 21
41.645364
 31
0.0
  0
SPLINE
  5
21c
100
AcDbEntity
  8
Calque_1
 62
6
100
AcDbSpline
 70
8
 71
3
 72
8
 73
4
 74
0
 40
0
 40
0
 40
0
 40
0
 40
1
 40
1
 40
1
 40
1
 10
7.213777
 20
41.645364
 30
0.0
 10
7.319427
 20
41.595984
 30
0.0
 10
7.420483
 20
41.558662
 30
0.0
 10
7.516946
 20
41.533399
 30
0.0
  0
SPLINE
  5
21d
100
AcDbEntity
  8
Calque_1
 62
6
100
AcDbSpline
 70
8
 71
3
 72
8
 73
4
 74
0
 40
0
 40
0
 40
0
 40
0
 40
1
 40
1
 40
1
 40
1
 10
7.516946
 20
41.533399
 30
0.0
 10
7.613409
 20
41.509286
 30
0.0
 10
7.708723
 20
41.497229
 30
0.0
 10
7.802889
 20
41.497229
 30
0.0
  0
SPLINE
  5
21e
100
AcDbEntity
  8
Calque_1
 62
6
100
AcDbSpline
 70
8
 71
3
 72
8
 73
4
 74
0
 40
0
 40
0
 40
0
 40
0
 40
1
 40
1
 40
1
 40
1
 10
7.802889
 20
41.497229
 30
0.0
 10
8.000408
 20
41.497229
 30
0.0
 10
8.154288
 20
41.551776
 30
0.0
 10
8.264531
 20
41.660871
 30
0.0
  0
SPLINE
  5
21f
100
AcDbEntity
  8
Calque_1
 62
6
100
AcDbSpline
 70
8
 71
3
 72
8
 73
4
 74
0
 40
0
 40
0
 40
0
 40
0
 40
1
 40
1
 40
1
 40
1
 10
8.264531
 20
41.660871
 30
0.0
 10
8.374774
 20
41.771114
 30
0.0
 10
8.439657
 20
41.934182
 30
0.0
 10
8.459179
 20
42.150075
 30
0.0
  0
SPLINE
  5
220
100
AcDbEntity
  8
Calque_1
 62
6
100
AcDbSpline
 70
8
 71
3
 72
8
 73
4
 74
0
 40
0
 40
0
 40
0
 40
0
 40
1
 40
1
 40
1
 40
1
 10
8.459179
 20
42.150075
 30
0.0
 10
8.381090
 20
42.092655
 30
0.0
 10
8.297834
 20
42.049591
 30
0.0
 10
8.209410
 20
42.020884
 30
0.0
  0
SPLINE
  5
221
100
AcDbEntity
  8
Calque_1
 62
6
100
AcDbSpline
 70
8
 71
3
 72
8
 73
4
 74
0
 40
0
 40
0
 40
0
 40
0
 40
1
 40
1
 40
1
 40
1
 10
8.209410
 20
42.020884
 30
0.0
 10
8.120986
 20
41.992177
 30
0.0
 10
8.025097
 20
41.977824
 30
0.0
 10
7.921744
 20
41.977824
 30
0.0
  0
SPLINE
  5
222
100
AcDbEntity
  8
Calque_1
 62
6
100
AcDbSpline
 70
8
 71
3
 72
8
 73
4
 74
0
 40
0
 40
0
 40
0
 40
0
 40
1
 40
1
 40
1
 40
1
 10
7.921744
 20
41.977824
 30
0.0
 10
7.658769
 20
41.977824
 30
0.0
 10
7.446321
 20
42.054190
 30
0.0
 10
7.284402
 20
42.206923
 30
0.0
  0
SPLINE
  5
223
100
AcDbEntity
  8
Calque_1
 62
6
100
AcDbSpline
 70
8
 71
3
 72
8
 73
4
 74
0
 40
0
 40
0
 40
0
 40
0
 40
1
 40
1
 40
1
 40
1
 10
7.284402
 20
42.206923
 30
0.0
 10
7.123631
 20
42.360804
 30
0.0
 10
7.043245
 20
42.562916
 30
0.0
 10
7.043245
 20
42.813260
 30
0.0
  0
SPLINE
  5
224
100
AcDbEntity
  8
Calque_1
 62
6
100
AcDbSpline
 70
8
 71
3
 72
8
 73
4
 74
0
 40
0
 40
0
 40
0
 40
0
 40
1
 40
1
 40
1
 40
1
 10
7.043245
 20
42.813260
 30
0.0
 10
7.043245
 20
43.090016
 30
0.0
 10
7.132817
 20
43.311650
 30
0.0
 10
7.311962
 20
43.478163
 30
0.0
  0
SPLINE
  5
225
100
AcDbEntity
  8
Calque_1
 62
6
100
AcDbSpline
 70
8
 71
3
 72
8
 73
4
 74
0
 40
0
 40
0
 40
0
 40
0
 40
1
 40
1
 40
1
 40
1
 10
7.311962
 20
43.478163
 30
0.0
 10
7.492255
 20
43.644676
 30
0.0
 10
7.733412
 20
43.727933
 30
0.0
 10
8.035432
 20
43.727933
 30
0.0
  0
SPLINE
  5
226
100
AcDbEntity
  8
Calque_1
 62
6
100
AcDbSpline
 70
8
 71
3
 72
8
 73
4
 74
0
 40
0
 40
0
 40
0
 40
0
 40
1
 40
1
 40
1
 40
1
 10
8.035432
 20
43.727933
 30
0.0
 10
8.370755
 20
43.727933
 30
0.0
 10
8.630285
 20
43.614819
 30
0.0
 10
8.814024
 20
43.388591
 30
0.0
  0
SPLINE
  5
227
100
AcDbEntity
  8
Calque_1
 62
6
100
AcDbSpline
 70
8
 71
3
 72
8
 73
4
 74
0
 40
0
 40
0
 40
0
 40
0
 40
1
 40
1
 40
1
 40
1
 10
8.814024
 20
43.388591
 30
0.0
 10
8.997763
 20
43.162363
 30
0.0
 10
9.089632
 20
42.842543
 30
0.0
 10
9.089632
 20
42.429132
 30
0.0
  0
SPLINE
  5
228
100
AcDbEntity
  8
Calque_1
 62
6
100
AcDbSpline
 70
8
 71
3
 72
8
 73
4
 74
0
 40
0
 40
0
 40
0
 40
0
 40
1
 40
1
 40
1
 40
1
 10
9.089632
 20
42.429132
 30
0.0
 10
9.089632
 20
42.004237
 30
0.0
 10
8.982260
 20
41.670062
 30
0.0
 10
8.767515
 20
41.426609
 30
0.0
  0
SPLINE
  5
229
100
AcDbEntity
  8
Calque_1
 62
6
100
AcDbSpline
 70
8
 71
3
 72
8
 73
4
 74
0
 40
0
 40
0
 40
0
 40
0
 40
1
 40
1
 40
1
 40
1
 10
8.767515
 20
41.426609
 30
0.0
 10
8.552771
 20
41.184304
 30
0.0
 10
8.258215
 20
41.063151
 30
0.0
 10
7.883848
 20
41.063151
 30
0.0
  0
SPLINE
  5
22a
100
AcDbEntity
  8
Calque_1
 62
6
100
AcDbSpline
 70
8
 71
3
 72
8
 73
4
 74
0
 40
0
 40
0
 40
0
 40
0
 40
1
 40
1
 40
1
 40
1
 10
7.883848
 20
41.063151
 30
0.0
 10
7.763270
 20
41.063151
 30
0.0
 10
7.647859
 20
41.072338
 30
0.0
 10
7.537616
 20
41.090711
 30
0.0
  0
SPLINE
  5
22b
100
AcDbEntity
  8
Calque_1
 62
6
100
AcDbSpline
 70
8
 71
3
 72
8
 73
4
 74
0
 40
0
 40
0
 40
0
 40
0
 40
1
 40
1
 40
1
 40
1
 10
7.537616
 20
41.090711
 30
0.0
 10
7.427373
 20
41.107938
 30
0.0
 10
7.319427
 20
41.134351
 30
0.0
 10
7.213777
 20
41.169951
 30
0.0
  0
LINE
  5
22c
100
AcDbEntity
  8
Calque_1
 62
6
100
AcDbLine
 10
7.213777
 20
41.169951
 30
0.0
 11
7.213777
 21
41.169941
 31
0.0
  0
SPLINE
  5
22d
100
AcDbEntity
  8
Calque_1
 62
6
100
AcDbSpline
 70
8
 71
3
 72
8
 73
4
 74
0
 40
0
 40
0
 40
0
 40
0
 40
1
 40
1
 40
1
 40
1
 10
8.031987
 20
42.408453
 30
0.0
 10
8.147972
 20
42.408453
 30
0.0
 10
8.235248
 20
42.445775
 30
0.0
 10
8.293815
 20
42.520419
 30
0.0
  0
SPLINE
  5
22e
100
AcDbEntity
  8
Calque_1
 62
6
100
AcDbSpline
 70
8
 71
3
 72
8
 73
4
 74
0
 40
0
 40
0
 40
0
 40
0
 40
1
 40
1
 40
1
 40
1
 10
8.293815
 20
42.520419
 30
0.0
 10
8.352382
 20
42.596211
 30
0.0
 10
8.381665
 20
42.709325
 30
0.0
 10
8.381665
 20
42.859760
 30
0.0
  0
SPLINE
  5
22f
100
AcDbEntity
  8
Calque_1
 62
6
100
AcDbSpline
 70
8
 71
3
 72
8
 73
4
 74
0
 40
0
 40
0
 40
0
 40
0
 40
1
 40
1
 40
1
 40
1
 10
8.381665
 20
42.859760
 30
0.0
 10
8.381665
 20
43.009048
 30
0.0
 10
8.352382
 20
43.121588
 30
0.0
 10
8.293815
 20
43.197380
 30
0.0
  0
SPLINE
  5
230
100
AcDbEntity
  8
Calque_1
 62
6
100
AcDbSpline
 70
8
 71
3
 72
8
 73
4
 74
0
 40
0
 40
0
 40
0
 40
0
 40
1
 40
1
 40
1
 40
1
 10
8.293815
 20
43.197380
 30
0.0
 10
8.235248
 20
43.273172
 30
0.0
 10
8.147972
 20
43.311068
 30
0.0
 10
8.031987
 20
43.311068
 30
0.0
  0
SPLINE
  5
231
100
AcDbEntity
  8
Calque_1
 62
6
100
AcDbSpline
 70
8
 71
3
 72
8
 73
4
 74
0
 40
0
 40
0
 40
0
 40
0
 40
1
 40
1
 40
1
 40
1
 10
8.031987
 20
43.311068
 30
0.0
 10
7.916002
 20
43.311068
 30
0.0
 10
7.828727
 20
43.273172
 30
0.0
 10
7.770160
 20
43.197380
 30
0.0
  0
SPLINE
  5
232
100
AcDbEntity
  8
Calque_1
 62
6
100
AcDbSpline
 70
8
 71
3
 72
8
 73
4
 74
0
 40
0
 40
0
 40
0
 40
0
 40
1
 40
1
 40
1
 40
1
 10
7.770160
 20
43.197380
 30
0.0
 10
7.711593
 20
43.121588
 30
0.0
 10
7.682310
 20
43.009048
 30
0.0
 10
7.682310
 20
42.859760
 30
0.0
  0
SPLINE
  5
233
100
AcDbEntity
  8
Calque_1
 62
6
100
AcDbSpline
 70
8
 71
3
 72
8
 73
4
 74
0
 40
0
 40
0
 40
0
 40
0
 40
1
 40
1
 40
1
 40
1
 10
7.682310
 20
42.859760
 30
0.0
 10
7.682310
 20
42.709325
 30
0.0
 10
7.711593
 20
42.596211
 30
0.0
 10
7.770160
 20
42.520419
 30
0.0
  0
SPLINE
  5
234
100
AcDbEntity
  8
Calque_1
 62
6
100
AcDbSpline
 70
8
 71
3
 72
8
 73
4
 74
0
 40
0
 40
0
 40
0
 40
0
 40
1
 40
1
 40
1
 40
1
 10
7.770160
 20
42.520419
 30
0.0
 10
7.828727
 20
42.445775
 30
0.0
 10
7.916002
 20
42.408453
 30
0.0
 10
8.031987
 20
42.408453
 30
0.0
  0
LINE
  5
235
100
AcDbEntity
  8
Calque_1
 62
6
100
AcDbLine
 10
8.031987
 20
42.408453
 30
0.0
 11
8.031987
 21
42.408453
 31
0.0
  0
SPLINE
  5
236
100
AcDbEntity
  8
Calque_1
 62
6
100
AcDbSpline
 70
8
 71
3
 72
8
 73
4
 74
0
 40
0
 40
0
 40
0
 40
0
 40
1
 40
1
 40
1
 40
1
 10
10.936203
 20
42.401563
 30
0.0
 10
10.936203
 20
42.723105
 30
0.0
 10
10.905770
 20
42.949333
 30
0.0
 10
10.844903
 20
43.080247
 30
0.0
  0
SPLINE
  5
237
100
AcDbEntity
  8
Calque_1
 62
6
100
AcDbSpline
 70
8
 71
3
 72
8
 73
4
 74
0
 40
0
 40
0
 40
0
 40
0
 40
1
 40
1
 40
1
 40
1
 10
10.844903
 20
43.080247
 30
0.0
 10
10.785190
 20
43.212309
 30
0.0
 10
10.684133
 20
43.278340
 30
0.0
 10
10.541734
 20
43.278340
 30
0.0
  0
SPLINE
  5
238
100
AcDbEntity
  8
Calque_1
 62
6
100
AcDbSpline
 70
8
 71
3
 72
8
 73
4
 74
0
 40
0
 40
0
 40
0
 40
0
 40
1
 40
1
 40
1
 40
1
 10
10.541734
 20
43.278340
 30
0.0
 10
10.399337
 20
43.278340
 30
0.0
 10
10.297706
 20
43.212309
 30
0.0
 10
10.236843
 20
43.080247
 30
0.0
  0
SPLINE
  5
239
100
AcDbEntity
  8
Calque_1
 62
6
100
AcDbSpline
 70
8
 71
3
 72
8
 73
4
 74
0
 40
0
 40
0
 40
0
 40
0
 40
1
 40
1
 40
1
 40
1
 10
10.236843
 20
43.080247
 30
0.0
 10
10.175983
 20
42.949333
 30
0.0
 10
10.145553
 20
42.723105
 30
0.0
 10
10.145553
 20
42.401563
 30
0.0
  0
SPLINE
  5
23a
100
AcDbEntity
  8
Calque_1
 62
6
100
AcDbSpline
 70
8
 71
3
 72
8
 73
4
 74
0
 40
0
 40
0
 40
0
 40
0
 40
1
 40
1
 40
1
 40
1
 10
10.145553
 20
42.401563
 30
0.0
 10
10.145553
 20
42.076576
 30
0.0
 10
10.175983
 20
41.847477
 30
0.0
 10
10.236843
 20
41.714266
 30
0.0
  0
SPLINE
  5
23b
100
AcDbEntity
  8
Calque_1
 62
6
100
AcDbSpline
 70
8
 71
3
 72
8
 73
4
 74
0
 40
0
 40
0
 40
0
 40
0
 40
1
 40
1
 40
1
 40
1
 10
10.236843
 20
41.714266
 30
0.0
 10
10.297710
 20
41.581056
 30
0.0
 10
10.399340
 20
41.514451
 30
0.0
 10
10.541734
 20
41.514451
 30
0.0
  0
SPLINE
  5
23c
100
AcDbEntity
  8
Calque_1
 62
6
100
AcDbSpline
 70
8
 71
3
 72
8
 73
4
 74
0
 40
0
 40
0
 40
0
 40
0
 40
1
 40
1
 40
1
 40
1
 10
10.541734
 20
41.514451
 30
0.0
 10
10.682983
 20
41.514451
 30
0.0
 10
10.784040
 20
41.581056
 30
0.0
 10
10.844903
 20
41.714266
 30
0.0
  0
SPLINE
  5
23d
100
AcDbEntity
  8
Calque_1
 62
6
100
AcDbSpline
 70
8
 71
3
 72
8
 73
4
 74
0
 40
0
 40
0
 40
0
 40
0
 40
1
 40
1
 40
1
 40
1
 10
10.844903
 20
41.714266
 30
0.0
 10
10.905770
 20
41.847477
 30
0.0
 10
10.936203
 20
42.076576
 30
0.0
 10
10.936203
 20
42.401563
 30
0.0
  0
LINE
  5
23e
100
AcDbEntity
  8
Calque_1
 62
6
100
AcDbLine
 10
10.936203
 20
42.401563
 30
0.0
 11
10.936203
 21
42.401563
 31
0.0
  0
SPLINE
  5
23f
100
AcDbEntity
  8
Calque_1
 62
6
100
AcDbSpline
 70
8
 71
3
 72
8
 73
4
 74
0
 40
0
 40
0
 40
0
 40
0
 40
1
 40
1
 40
1
 40
1
 10
11.599384
 20
42.396363
 30
0.0
 10
11.599384
 20
41.970320
 30
0.0
 10
11.507515
 20
41.641313
 30
0.0
 10
11.323776
 20
41.409343
 30
0.0
  0
SPLINE
  5
240
100
AcDbEntity
  8
Calque_1
 62
6
100
AcDbSpline
 70
8
 71
3
 72
8
 73
4
 74
0
 40
0
 40
0
 40
0
 40
0
 40
1
 40
1
 40
1
 40
1
 10
11.323776
 20
41.409343
 30
0.0
 10
11.140037
 20
41.178522
 30
0.0
 10
10.879358
 20
41.063111
 30
0.0
 10
10.541739
 20
41.063111
 30
0.0
  0
SPLINE
  5
241
100
AcDbEntity
  8
Calque_1
 62
6
100
AcDbSpline
 70
8
 71
3
 72
8
 73
4
 74
0
 40
0
 40
0
 40
0
 40
0
 40
1
 40
1
 40
1
 40
1
 10
10.541739
 20
41.063111
 30
0.0
 10
10.202972
 20
41.063111
 30
0.0
 10
9.941719
 20
41.178522
 30
0.0
 10
9.757980
 20
41.409343
 30
0.0
  0
SPLINE
  5
242
100
AcDbEntity
  8
Calque_1
 62
6
100
AcDbSpline
 70
8
 71
3
 72
8
 73
4
 74
0
 40
0
 40
0
 40
0
 40
0
 40
1
 40
1
 40
1
 40
1
 10
9.757980
 20
41.409343
 30
0.0
 10
9.574241
 20
41.641313
 30
0.0
 10
9.482372
 20
41.970320
 30
0.0
 10
9.482372
 20
42.396363
 30
0.0
  0
SPLINE
  5
243
100
AcDbEntity
  8
Calque_1
 62
6
100
AcDbSpline
 70
8
 71
3
 72
8
 73
4
 74
0
 40
0
 40
0
 40
0
 40
0
 40
1
 40
1
 40
1
 40
1
 10
9.482372
 20
42.396363
 30
0.0
 10
9.482372
 20
42.823555
 30
0.0
 10
9.574241
 20
43.152562
 30
0.0
 10
9.757980
 20
43.383383
 30
0.0
  0
SPLINE
  5
244
100
AcDbEntity
  8
Calque_1
 62
6
100
AcDbSpline
 70
8
 71
3
 72
8
 73
4
 74
0
 40
0
 40
0
 40
0
 40
0
 40
1
 40
1
 40
1
 40
1
 10
9.757980
 20
43.383383
 30
0.0
 10
9.941719
 20
43.615353
 30
0.0
 10
10.202972
 20
43.731338
 30
0.0
 10
10.541739
 20
43.731338
 30
0.0
  0
SPLINE
  5
245
100
AcDbEntity
  8
Calque_1
 62
6
100
AcDbSpline
 70
8
 71
3
 72
8
 73
4
 74
0
 40
0
 40
0
 40
0
 40
0
 40
1
 40
1
 40
1
 40
1
 10
10.541739
 20
43.731338
 30
0.0
 10
10.879358
 20
43.731338
 30
0.0
 10
11.140037
 20
43.615353
 30
0.0
 10
11.323776
 20
43.383383
 30
0.0
  0
SPLINE
  5
246
100
AcDbEntity
  8
Calque_1
 62
6
100
AcDbSpline
 70
8
 71
3
 72
8
 73
4
 74
0
 40
0
 40
0
 40
0
 40
0
 40
1
 40
1
 40
1
 40
1
 10
11.323776
 20
43.383383
 30
0.0
 10
11.507515
 20
43.152562
 30
0.0
 10
11.599384
 20
42.823555
 30
0.0
 10
11.599384
 20
42.396363
 30
0.0
  0
LINE
  5
247
100
AcDbEntity
  8
Calque_1
 62
6
100
AcDbLine
 10
11.599384
 20
42.396363
 30
0.0
 11
11.599384
 21
42.396363
 31
0.0
  0
LINE
  5
248
100
AcDbEntity
  8
Calque_1
 62
6
100
AcDbLine
 10
12.423225
 20
49.173361
 30
0.0
 11
13.008891
 21
49.173361
 31
0.0
  0
LINE
  5
249
100
AcDbEntity
  8
Calque_1
 62
6
100
AcDbLine
 10
13.008891
 20
49.173361
 30
0.0
 11
13.008891
 21
50.835619
 31
0.0
  0
LINE
  5
24a
100
AcDbEntity
  8
Calque_1
 62
6
100
AcDbLine
 10
13.008891
 20
50.835619
 30
0.0
 11
12.407722
 21
50.711596
 31
0.0
  0
LINE
  5
24b
100
AcDbEntity
  8
Calque_1
 62
6
100
AcDbLine
 10
12.407722
 20
50.711596
 30
0.0
 11
12.407722
 21
51.162903
 31
0.0
  0
LINE
  5
24c
100
AcDbEntity
  8
Calque_1
 62
6
100
AcDbLine
 10
12.407722
 20
51.162903
 30
0.0
 11
13.005446
 21
51.286927
 31
0.0
  0
LINE
  5
24d
100
AcDbEntity
  8
Calque_1
 62
6
100
AcDbLine
 10
13.005446
 20
51.286927
 30
0.0
 11
13.635898
 21
51.286927
 31
0.0
  0
LINE
  5
24e
100
AcDbEntity
  8
Calque_1
 62
6
100
AcDbLine
 10
13.635898
 20
51.286927
 30
0.0
 11
13.635898
 21
49.173361
 31
0.0
  0
LINE
  5
24f
100
AcDbEntity
  8
Calque_1
 62
6
100
AcDbLine
 10
13.635898
 20
49.173361
 30
0.0
 11
14.221565
 21
49.173361
 31
0.0
  0
LINE
  5
250
100
AcDbEntity
  8
Calque_1
 62
6
100
AcDbLine
 10
14.221565
 20
49.173361
 30
0.0
 11
14.221565
 21
48.715163
 31
0.0
  0
LINE
  5
251
100
AcDbEntity
  8
Calque_1
 62
6
100
AcDbLine
 10
14.221565
 20
48.715163
 30
0.0
 11
12.423225
 21
48.715163
 31
0.0
  0
LINE
  5
252
100
AcDbEntity
  8
Calque_1
 62
6
100
AcDbLine
 10
12.423225
 20
48.715163
 30
0.0
 11
12.423225
 21
49.173361
 31
0.0
  0
LINE
  5
253
100
AcDbEntity
  8
Calque_1
 62
6
100
AcDbLine
 10
15.479024
 20
49.202644
 30
0.0
 11
16.610738
 21
49.202644
 31
0.0
  0
LINE
  5
254
100
AcDbEntity
  8
Calque_1
 62
6
100
AcDbLine
 10
16.610738
 20
49.202644
 30
0.0
 11
16.610738
 21
48.715163
 31
0.0
  0
LINE
  5
255
100
AcDbEntity
  8
Calque_1
 62
6
100
AcDbLine
 10
16.610738
 20
48.715163
 30
0.0
 11
14.741774
 21
48.715163
 31
0.0
  0
LINE
  5
256
100
AcDbEntity
  8
Calque_1
 62
6
100
AcDbLine
 10
14.741774
 20
48.715163
 30
0.0
 11
14.741774
 21
49.202644
 31
0.0
  0
LINE
  5
257
100
AcDbEntity
  8
Calque_1
 62
6
100
AcDbLine
 10
14.741774
 20
49.202644
 30
0.0
 11
15.680562
 21
50.031190
 31
0.0
  0
SPLINE
  5
258
100
AcDbEntity
  8
Calque_1
 62
6
100
AcDbSpline
 70
8
 71
3
 72
8
 73
4
 74
0
 40
0
 40
0
 40
0
 40
0
 40
1
 40
1
 40
1
 40
1
 10
15.680562
 20
50.031190
 30
0.0
 10
15.764393
 20
50.106982
 30
0.0
 10
15.826405
 20
50.181051
 30
0.0
 10
15.866598
 20
50.253398
 30
0.0
  0
SPLINE
  5
259
100
AcDbEntity
  8
Calque_1
 62
6
100
AcDbSpline
 70
8
 71
3
 72
8
 73
4
 74
0
 40
0
 40
0
 40
0
 40
0
 40
1
 40
1
 40
1
 40
1
 10
15.866598
 20
50.253398
 30
0.0
 10
15.906791
 20
50.325745
 30
0.0
 10
15.926888
 20
50.400963
 30
0.0
 10
15.926888
 20
50.479052
 30
0.0
  0
SPLINE
  5
25a
100
AcDbEntity
  8
Calque_1
 62
6
100
AcDbSpline
 70
8
 71
3
 72
8
 73
4
 74
0
 40
0
 40
0
 40
0
 40
0
 40
1
 40
1
 40
1
 40
1
 10
15.926888
 20
50.479052
 30
0.0
 10
15.926888
 20
50.599631
 30
0.0
 10
15.886121
 20
50.696668
 30
0.0
 10
15.804587
 20
50.770163
 30
0.0
  0
SPLINE
  5
25b
100
AcDbEntity
  8
Calque_1
 62
6
100
AcDbSpline
 70
8
 71
3
 72
8
 73
4
 74
0
 40
0
 40
0
 40
0
 40
0
 40
1
 40
1
 40
1
 40
1
 10
15.804587
 20
50.770163
 30
0.0
 10
15.724202
 20
50.843658
 30
0.0
 10
15.616829
 20
50.880406
 30
0.0
 10
15.482470
 20
50.880406
 30
0.0
  0
SPLINE
  5
25c
100
AcDbEntity
  8
Calque_1
 62
6
100
AcDbSpline
 70
8
 71
3
 72
8
 73
4
 74
0
 40
0
 40
0
 40
0
 40
0
 40
1
 40
1
 40
1
 40
1
 10
15.482470
 20
50.880406
 30
0.0
 10
15.379117
 20
50.880406
 30
0.0
 10
15.266004
 20
50.858013
 30
0.0
 10
15.143129
 20
50.813226
 30
0.0
  0
SPLINE
  5
25d
100
AcDbEntity
  8
Calque_1
 62
6
100
AcDbSpline
 70
8
 71
3
 72
8
 73
4
 74
0
 40
0
 40
0
 40
0
 40
0
 40
1
 40
1
 40
1
 40
1
 10
15.143129
 20
50.813226
 30
0.0
 10
15.020254
 20
50.769586
 30
0.0
 10
14.888766
 20
50.704129
 30
0.0
 10
14.748665
 20
50.616856
 30
0.0
  0
LINE
  5
25e
100
AcDbEntity
  8
Calque_1
 62
6
100
AcDbLine
 10
14.748665
 20
50.616856
 30
0.0
 11
14.748665
 21
51.181851
 31
0.0
  0
SPLINE
  5
25f
100
AcDbEntity
  8
Calque_1
 62
6
100
AcDbSpline
 70
8
 71
3
 72
8
 73
4
 74
0
 40
0
 40
0
 40
0
 40
0
 40
1
 40
1
 40
1
 40
1
 10
14.748665
 20
51.181851
 30
0.0
 10
14.897952
 20
51.231231
 30
0.0
 10
15.045517
 20
51.268553
 30
0.0
 10
15.191360
 20
51.293817
 30
0.0
  0
SPLINE
  5
260
100
AcDbEntity
  8
Calque_1
 62
6
100
AcDbSpline
 70
8
 71
3
 72
8
 73
4
 74
0
 40
0
 40
0
 40
0
 40
0
 40
1
 40
1
 40
1
 40
1
 10
15.191360
 20
51.293817
 30
0.0
 10
15.337202
 20
51.320230
 30
0.0
 10
15.480173
 20
51.333437
 30
0.0
 10
15.620274
 20
51.333437
 30
0.0
  0
SPLINE
  5
261
100
AcDbEntity
  8
Calque_1
 62
6
100
AcDbSpline
 70
8
 71
3
 72
8
 73
4
 74
0
 40
0
 40
0
 40
0
 40
0
 40
1
 40
1
 40
1
 40
1
 10
15.620274
 20
51.333437
 30
0.0
 10
15.928036
 20
51.333437
 30
0.0
 10
16.166896
 20
51.265683
 30
0.0
 10
16.336854
 20
51.130176
 30
0.0
  0
SPLINE
  5
262
100
AcDbEntity
  8
Calque_1
 62
6
100
AcDbSpline
 70
8
 71
3
 72
8
 73
4
 74
0
 40
0
 40
0
 40
0
 40
0
 40
1
 40
1
 40
1
 40
1
 10
16.336854
 20
51.130176
 30
0.0
 10
16.507961
 20
50.994669
 30
0.0
 10
16.593514
 20
50.805763
 30
0.0
 10
16.593514
 20
50.563458
 30
0.0
  0
SPLINE
  5
263
100
AcDbEntity
  8
Calque_1
 62
6
100
AcDbSpline
 70
8
 71
3
 72
8
 73
4
 74
0
 40
0
 40
0
 40
0
 40
0
 40
1
 40
1
 40
1
 40
1
 10
16.593514
 20
50.563458
 30
0.0
 10
16.593514
 20
50.423357
 30
0.0
 10
16.557340
 20
50.292444
 30
0.0
 10
16.484993
 20
50.170717
 30
0.0
  0
SPLINE
  5
264
100
AcDbEntity
  8
Calque_1
 62
6
100
AcDbSpline
 70
8
 71
3
 72
8
 73
4
 74
0
 40
0
 40
0
 40
0
 40
0
 40
1
 40
1
 40
1
 40
1
 10
16.484993
 20
50.170717
 30
0.0
 10
16.412646
 20
50.050138
 30
0.0
 10
16.260488
 20
49.888219
 30
0.0
 10
16.028518
 20
49.684959
 30
0.0
  0
LINE
  5
265
100
AcDbEntity
  8
Calque_1
 62
6
100
AcDbLine
 10
16.028518
 20
49.684959
 30
0.0
 11
15.479024
 21
49.202644
 31
0.0
  0
SPLINE
  5
266
100
AcDbEntity
  8
Calque_1
 62
6
100
AcDbSpline
 70
8
 71
3
 72
8
 73
4
 74
0
 40
0
 40
0
 40
0
 40
0
 40
1
 40
1
 40
1
 40
1
 10
18.538269
 20
50.003629
 30
0.0
 10
18.538269
 20
50.325171
 30
0.0
 10
18.507836
 20
50.551399
 30
0.0
 10
18.446969
 20
50.682313
 30
0.0
  0
SPLINE
  5
267
100
AcDbEntity
  8
Calque_1
 62
6
100
AcDbSpline
 70
8
 71
3
 72
8
 73
4
 74
0
 40
0
 40
0
 40
0
 40
0
 40
1
 40
1
 40
1
 40
1
 10
18.446969
 20
50.682313
 30
0.0
 10
18.387256
 20
50.814375
 30
0.0
 10
18.286200
 20
50.880406
 30
0.0
 10
18.143801
 20
50.880406
 30
0.0
  0
SPLINE
  5
268
100
AcDbEntity
  8
Calque_1
 62
6
100
AcDbSpline
 70
8
 71
3
 72
8
 73
4
 74
0
 40
0
 40
0
 40
0
 40
0
 40
1
 40
1
 40
1
 40
1
 10
18.143801
 20
50.880406
 30
0.0
 10
18.001404
 20
50.880406
 30
0.0
 10
17.899773
 20
50.814375
 30
0.0
 10
17.838910
 20
50.682313
 30
0.0
  0
SPLINE
  5
269
100
AcDbEntity
  8
Calque_1
 62
6
100
AcDbSpline
 70
8
 71
3
 72
8
 73
4
 74
0
 40
0
 40
0
 40
0
 40
0
 40
1
 40
1
 40
1
 40
1
 10
17.838910
 20
50.682313
 30
0.0
 10
17.778050
 20
50.551399
 30
0.0
 10
17.747620
 20
50.325171
 30
0.0
 10
17.747620
 20
50.003629
 30
0.0
  0
SPLINE
  5
26a
100
AcDbEntity
  8
Calque_1
 62
6
100
AcDbSpline
 70
8
 71
3
 72
8
 73
4
 74
0
 40
0
 40
0
 40
0
 40
0
 40
1
 40
1
 40
1
 40
1
 10
17.747620
 20
50.003629
 30
0.0
 10
17.747620
 20
49.678642
 30
0.0
 10
17.778050
 20
49.449543
 30
0.0
 10
17.838910
 20
49.316332
 30
0.0
  0
SPLINE
  5
26b
100
AcDbEntity
  8
Calque_1
 62
6
100
AcDbSpline
 70
8
 71
3
 72
8
 73
4
 74
0
 40
0
 40
0
 40
0
 40
0
 40
1
 40
1
 40
1
 40
1
 10
17.838910
 20
49.316332
 30
0.0
 10
17.899777
 20
49.183122
 30
0.0
 10
18.001407
 20
49.116517
 30
0.0
 10
18.143801
 20
49.116517
 30
0.0
  0
SPLINE
  5
26c
100
AcDbEntity
  8
Calque_1
 62
6
100
AcDbSpline
 70
8
 71
3
 72
8
 73
4
 74
0
 40
0
 40
0
 40
0
 40
0
 40
1
 40
1
 40
1
 40
1
 10
18.143801
 20
49.116517
 30
0.0
 10
18.285050
 20
49.116517
 30
0.0
 10
18.386106
 20
49.183122
 30
0.0
 10
18.446969
 20
49.316332
 30
0.0
  0
SPLINE
  5
26d
100
AcDbEntity
  8
Calque_1
 62
6
100
AcDbSpline
 70
8
 71
3
 72
8
 73
4
 74
0
 40
0
 40
0
 40
0
 40
0
 40
1
 40
1
 40
1
 40
1
 10
18.446969
 20
49.316332
 30
0.0
 10
18.507836
 20
49.449543
 30
0.0
 10
18.538269
 20
49.678642
 30
0.0
 10
18.538269
 20
50.003629
 30
0.0
  0
LINE
  5
26e
100
AcDbEntity
  8
Calque_1
 62
6
100
AcDbLine
 10
18.538269
 20
50.003629
 30
0.0
 11
18.538269
 21
50.003629
 31
0.0
  0
SPLINE
  5
26f
100
AcDbEntity
  8
Calque_1
 62
6
100
AcDbSpline
 70
8
 71
3
 72
8
 73
4
 74
0
 40
0
 40
0
 40
0
 40
0
 40
1
 40
1
 40
1
 40
1
 10
19.201450
 20
49.998429
 30
0.0
 10
19.201450
 20
49.572386
 30
0.0
 10
19.109581
 20
49.243379
 30
0.0
 10
18.925842
 20
49.011409
 30
0.0
  0
SPLINE
  5
270
100
AcDbEntity
  8
Calque_1
 62
6
100
AcDbSpline
 70
8
 71
3
 72
8
 73
4
 74
0
 40
0
 40
0
 40
0
 40
0
 40
1
 40
1
 40
1
 40
1
 10
18.925842
 20
49.011409
 30
0.0
 10
18.742104
 20
48.780588
 30
0.0
 10
18.481425
 20
48.665177
 30
0.0
 10
18.143806
 20
48.665177
 30
0.0
  0
SPLINE
  5
271
100
AcDbEntity
  8
Calque_1
 62
6
100
AcDbSpline
 70
8
 71
3
 72
8
 73
4
 74
0
 40
0
 40
0
 40
0
 40
0
 40
1
 40
1
 40
1
 40
1
 10
18.143806
 20
48.665177
 30
0.0
 10
17.805038
 20
48.665177
 30
0.0
 10
17.543785
 20
48.780588
 30
0.0
 10
17.360046
 20
49.011409
 30
0.0
  0
SPLINE
  5
272
100
AcDbEntity
  8
Calque_1
 62
6
100
AcDbSpline
 70
8
 71
3
 72
8
 73
4
 74
0
 40
0
 40
0
 40
0
 40
0
 40
1
 40
1
 40
1
 40
1
 10
17.360046
 20
49.011409
 30
0.0
 10
17.176308
 20
49.243379
 30
0.0
 10
17.084439
 20
49.572386
 30
0.0
 10
17.084439
 20
49.998429
 30
0.0
  0
SPLINE
  5
273
100
AcDbEntity
  8
Calque_1
 62
6
100
AcDbSpline
 70
8
 71
3
 72
8
 73
4
 74
0
 40
0
 40
0
 40
0
 40
0
 40
1
 40
1
 40
1
 40
1
 10
17.084439
 20
49.998429
 30
0.0
 10
17.084439
 20
50.425621
 30
0.0
 10
17.176308
 20
50.754628
 30
0.0
 10
17.360046
 20
50.985449
 30
0.0
  0
SPLINE
  5
274
100
AcDbEntity
  8
Calque_1
 62
6
100
AcDbSpline
 70
8
 71
3
 72
8
 73
4
 74
0
 40
0
 40
0
 40
0
 40
0
 40
1
 40
1
 40
1
 40
1
 10
17.360046
 20
50.985449
 30
0.0
 10
17.543785
 20
51.217419
 30
0.0
 10
17.805038
 20
51.333404
 30
0.0
 10
18.143806
 20
51.333404
 30
0.0
  0
SPLINE
  5
275
100
AcDbEntity
  8
Calque_1
 62
6
100
AcDbSpline
 70
8
 71
3
 72
8
 73
4
 74
0
 40
0
 40
0
 40
0
 40
0
 40
1
 40
1
 40
1
 40
1
 10
18.143806
 20
51.333404
 30
0.0
 10
18.481425
 20
51.333404
 30
0.0
 10
18.742104
 20
51.217419
 30
0.0
 10
18.925842
 20
50.985449
 30
0.0
  0
SPLINE
  5
276
100
AcDbEntity
  8
Calque_1
 62
6
100
AcDbSpline
 70
8
 71
3
 72
8
 73
4
 74
0
 40
0
 40
0
 40
0
 40
0
 40
1
 40
1
 40
1
 40
1
 10
18.925842
 20
50.985449
 30
0.0
 10
19.109581
 20
50.754628
 30
0.0
 10
19.201450
 20
50.425621
 30
0.0
 10
19.201450
 20
49.998429
 30
0.0
  0
LINE
  5
277
100
AcDbEntity
  8
Calque_1
 62
6
100
AcDbLine
 10
19.201450
 20
49.998429
 30
0.0
 11
19.201450
 21
49.998429
 31
0.0
  0
LINE
  5
278
100
AcDbEntity
  8
Calque_1
 62
6
100
AcDbLine
 10
26.750934
 20
52.374163
 30
0.0
 11
27.336600
 21
52.374163
 31
0.0
  0
LINE
  5
279
100
AcDbEntity
  8
Calque_1
 62
6
100
AcDbLine
 10
27.336600
 20
52.374163
 30
0.0
 11
27.336600
 21
54.036421
 31
0.0
  0
LINE
  5
27a
100
AcDbEntity
  8
Calque_1
 62
6
100
AcDbLine
 10
27.336600
 20
54.036421
 30
0.0
 11
26.735431
 21
53.912398
 31
0.0
  0
LINE
  5
27b
100
AcDbEntity
  8
Calque_1
 62
6
100
AcDbLine
 10
26.735431
 20
53.912398
 30
0.0
 11
26.735431
 21
54.363705
 31
0.0
  0
LINE
  5
27c
100
AcDbEntity
  8
Calque_1
 62
6
100
AcDbLine
 10
26.735431
 20
54.363705
 30
0.0
 11
27.333155
 21
54.487729
 31
0.0
  0
LINE
  5
27d
100
AcDbEntity
  8
Calque_1
 62
6
100
AcDbLine
 10
27.333155
 20
54.487729
 30
0.0
 11
27.963608
 21
54.487729
 31
0.0
  0
LINE
  5
27e
100
AcDbEntity
  8
Calque_1
 62
6
100
AcDbLine
 10
27.963608
 20
54.487729
 30
0.0
 11
27.963608
 21
52.374163
 31
0.0
  0
LINE
  5
27f
100
AcDbEntity
  8
Calque_1
 62
6
100
AcDbLine
 10
27.963608
 20
52.374163
 30
0.0
 11
28.549274
 21
52.374163
 31
0.0
  0
LINE
  5
280
100
AcDbEntity
  8
Calque_1
 62
6
100
AcDbLine
 10
28.549274
 20
52.374163
 30
0.0
 11
28.549274
 21
51.915965
 31
0.0
  0
LINE
  5
281
100
AcDbEntity
  8
Calque_1
 62
6
100
AcDbLine
 10
28.549274
 20
51.915965
 30
0.0
 11
26.750934
 21
51.915965
 31
0.0
  0
LINE
  5
282
100
AcDbEntity
  8
Calque_1
 62
6
100
AcDbLine
 10
26.750934
 20
51.915965
 30
0.0
 11
26.750934
 21
52.374163
 31
0.0
  0
LINE
  5
283
100
AcDbEntity
  8
Calque_1
 62
6
100
AcDbLine
 10
29.164223
 20
54.487729
 30
0.0
 11
30.812701
 21
54.487729
 31
0.0
  0
LINE
  5
284
100
AcDbEntity
  8
Calque_1
 62
6
100
AcDbLine
 10
30.812701
 20
54.487729
 30
0.0
 11
30.812701
 21
54.000248
 31
0.0
  0
LINE
  5
285
100
AcDbEntity
  8
Calque_1
 62
6
100
AcDbLine
 10
30.812701
 20
54.000248
 30
0.0
 11
29.693045
 21
54.000248
 31
0.0
  0
LINE
  5
286
100
AcDbEntity
  8
Calque_1
 62
6
100
AcDbLine
 10
29.693045
 20
54.000248
 30
0.0
 11
29.693045
 21
53.602339
 31
0.0
  0
SPLINE
  5
287
100
AcDbEntity
  8
Calque_1
 62
6
100
AcDbSpline
 70
8
 71
3
 72
8
 73
4
 74
0
 40
0
 40
0
 40
0
 40
0
 40
1
 40
1
 40
1
 40
1
 10
29.693045
 20
53.602339
 30
0.0
 10
29.743572
 20
53.616119
 30
0.0
 10
29.794100
 20
53.626456
 30
0.0
 10
29.844630
 20
53.633349
 30
0.0
  0
SPLINE
  5
288
100
AcDbEntity
  8
Calque_1
 62
6
100
AcDbSpline
 70
8
 71
3
 72
8
 73
4
 74
0
 40
0
 40
0
 40
0
 40
0
 40
1
 40
1
 40
1
 40
1
 10
29.844630
 20
53.633349
 30
0.0
 10
29.896303
 20
53.641389
 30
0.0
 10
29.949702
 20
53.645409
 30
0.0
 10
30.004827
 20
53.645409
 30
0.0
  0
SPLINE
  5
289
100
AcDbEntity
  8
Calque_1
 62
6
100
AcDbSpline
 70
8
 71
3
 72
8
 73
4
 74
0
 40
0
 40
0
 40
0
 40
0
 40
1
 40
1
 40
1
 40
1
 10
30.004827
 20
53.645409
 30
0.0
 10
30.318330
 20
53.645409
 30
0.0
 10
30.562358
 20
53.566746
 30
0.0
 10
30.736909
 20
53.409420
 30
0.0
  0
SPLINE
  5
28a
100
AcDbEntity
  8
Calque_1
 62
6
100
AcDbSpline
 70
8
 71
3
 72
8
 73
4
 74
0
 40
0
 40
0
 40
0
 40
0
 40
1
 40
1
 40
1
 40
1
 10
30.736909
 20
53.409420
 30
0.0
 10
30.911461
 20
53.253242
 30
0.0
 10
30.998737
 20
53.035053
 30
0.0
 10
30.998737
 20
52.754852
 30
0.0
  0
SPLINE
  5
28b
100
AcDbEntity
  8
Calque_1
 62
6
100
AcDbSpline
 70
8
 71
3
 72
8
 73
4
 74
0
 40
0
 40
0
 40
0
 40
0
 40
1
 40
1
 40
1
 40
1
 10
30.998737
 20
52.754852
 30
0.0
 10
30.998737
 20
52.476947
 30
0.0
 10
30.903423
 20
52.259332
 30
0.0
 10
30.712794
 20
52.102006
 30
0.0
  0
SPLINE
  5
28c
100
AcDbEntity
  8
Calque_1
 62
6
100
AcDbSpline
 70
8
 71
3
 72
8
 73
4
 74
0
 40
0
 40
0
 40
0
 40
0
 40
1
 40
1
 40
1
 40
1
 10
30.712794
 20
52.102006
 30
0.0
 10
30.523313
 20
51.944680
 30
0.0
 10
30.259763
 20
51.866017
 30
0.0
 10
29.922144
 20
51.866017
 30
0.0
  0
SPLINE
  5
28d
100
AcDbEntity
  8
Calque_1
 62
6
100
AcDbSpline
 70
8
 71
3
 72
8
 73
4
 74
0
 40
0
 40
0
 40
0
 40
0
 40
1
 40
1
 40
1
 40
1
 10
29.922144
 20
51.866017
 30
0.0
 10
29.776302
 20
51.866017
 30
0.0
 10
29.631608
 20
51.880370
 30
0.0
 10
29.488062
 20
51.909077
 30
0.0
  0
SPLINE
  5
28e
100
AcDbEntity
  8
Calque_1
 62
6
100
AcDbSpline
 70
8
 71
3
 72
8
 73
4
 74
0
 40
0
 40
0
 40
0
 40
0
 40
1
 40
1
 40
1
 40
1
 10
29.488062
 20
51.909077
 30
0.0
 10
29.345665
 20
51.936637
 30
0.0
 10
29.203842
 20
51.979126
 30
0.0
 10
29.062593
 20
52.036545
 30
0.0
  0
LINE
  5
28f
100
AcDbEntity
  8
Calque_1
 62
6
100
AcDbLine
 10
29.062593
 20
52.036545
 30
0.0
 11
29.062593
 21
52.558477
 31
0.0
  0
SPLINE
  5
290
100
AcDbEntity
  8
Calque_1
 62
6
100
AcDbSpline
 70
8
 71
3
 72
8
 73
4
 74
0
 40
0
 40
0
 40
0
 40
0
 40
1
 40
1
 40
1
 40
1
 10
29.062593
 20
52.558477
 30
0.0
 10
29.202694
 20
52.478092
 30
0.0
 10
29.335330
 20
52.417803
 30
0.0
 10
29.460501
 20
52.377610
 30
0.0
  0
SPLINE
  5
291
100
AcDbEntity
  8
Calque_1
 62
6
100
AcDbSpline
 70
8
 71
3
 72
8
 73
4
 74
0
 40
0
 40
0
 40
0
 40
0
 40
1
 40
1
 40
1
 40
1
 10
29.460501
 20
52.377610
 30
0.0
 10
29.586822
 20
52.337417
 30
0.0
 10
29.705678
 20
52.317320
 30
0.0
 10
29.817069
 20
52.317320
 30
0.0
  0
SPLINE
  5
292
100
AcDbEntity
  8
Calque_1
 62
6
100
AcDbSpline
 70
8
 71
3
 72
8
 73
4
 74
0
 40
0
 40
0
 40
0
 40
0
 40
1
 40
1
 40
1
 40
1
 10
29.817069
 20
52.317320
 30
0.0
 10
29.977840
 20
52.317320
 30
0.0
 10
30.104160
 20
52.356364
 30
0.0
 10
30.196029
 20
52.434453
 30
0.0
  0
SPLINE
  5
293
100
AcDbEntity
  8
Calque_1
 62
6
100
AcDbSpline
 70
8
 71
3
 72
8
 73
4
 74
0
 40
0
 40
0
 40
0
 40
0
 40
1
 40
1
 40
1
 40
1
 10
30.196029
 20
52.434453
 30
0.0
 10
30.289047
 20
52.513690
 30
0.0
 10
30.335556
 20
52.620488
 30
0.0
 10
30.335556
 20
52.754847
 30
0.0
  0
SPLINE
  5
294
100
AcDbEntity
  8
Calque_1
 62
6
100
AcDbSpline
 70
8
 71
3
 72
8
 73
4
 74
0
 40
0
 40
0
 40
0
 40
0
 40
1
 40
1
 40
1
 40
1
 10
30.335556
 20
52.754847
 30
0.0
 10
30.335556
 20
52.890354
 30
0.0
 10
30.289047
 20
52.997152
 30
0.0
 10
30.196029
 20
53.075241
 30
0.0
  0
SPLINE
  5
295
100
AcDbEntity
  8
Calque_1
 62
6
100
AcDbSpline
 70
8
 71
3
 72
8
 73
4
 74
0
 40
0
 40
0
 40
0
 40
0
 40
1
 40
1
 40
1
 40
1
 10
30.196029
 20
53.075241
 30
0.0
 10
30.104160
 20
53.153330
 30
0.0
 10
29.977840
 20
53.192374
 30
0.0
 10
29.817069
 20
53.192374
 30
0.0
  0
SPLINE
  5
296
100
AcDbEntity
  8
Calque_1
 62
6
100
AcDbSpline
 70
8
 71
3
 72
8
 73
4
 74
0
 40
0
 40
0
 40
0
 40
0
 40
1
 40
1
 40
1
 40
1
 10
29.817069
 20
53.192374
 30
0.0
 10
29.721754
 20
53.192374
 30
0.0
 10
29.620124
 20
53.179741
 30
0.0
 10
29.512178
 20
53.154474
 30
0.0
  0
SPLINE
  5
297
100
AcDbEntity
  8
Calque_1
 62
6
100
AcDbSpline
 70
8
 71
3
 72
8
 73
4
 74
0
 40
0
 40
0
 40
0
 40
0
 40
1
 40
1
 40
1
 40
1
 10
29.512178
 20
53.154474
 30
0.0
 10
29.404231
 20
53.130361
 30
0.0
 10
29.288246
 20
53.092465
 30
0.0
 10
29.164223
 20
53.040786
 30
0.0
  0
LINE
  5
298
100
AcDbEntity
  8
Calque_1
 62
6
100
AcDbLine
 10
29.164223
 20
53.040786
 30
0.0
 11
29.164223
 21
54.487729
 31
0.0
  0
SPLINE
  5
299
100
AcDbEntity
  8
Calque_1
 62
6
100
AcDbSpline
 70
8
 71
3
 72
8
 73
4
 74
0
 40
0
 40
0
 40
0
 40
0
 40
1
 40
1
 40
1
 40
1
 10
32.865978
 20
53.204431
 30
0.0
 10
32.865978
 20
53.525973
 30
0.0
 10
32.835545
 20
53.752201
 30
0.0
 10
32.774678
 20
53.883114
 30
0.0
  0
SPLINE
  5
29a
100
AcDbEntity
  8
Calque_1
 62
6
100
AcDbSpline
 70
8
 71
3
 72
8
 73
4
 74
0
 40
0
 40
0
 40
0
 40
0
 40
1
 40
1
 40
1
 40
1
 10
32.774678
 20
53.883114
 30
0.0
 10
32.714965
 20
54.015176
 30
0.0
 10
32.613909
 20
54.081207
 30
0.0
 10
32.471510
 20
54.081207
 30
0.0
  0
SPLINE
  5
29b
100
AcDbEntity
  8
Calque_1
 62
6
100
AcDbSpline
 70
8
 71
3
 72
8
 73
4
 74
0
 40
0
 40
0
 40
0
 40
0
 40
1
 40
1
 40
1
 40
1
 10
32.471510
 20
54.081207
 30
0.0
 10
32.329113
 20
54.081207
 30
0.0
 10
32.227482
 20
54.015176
 30
0.0
 10
32.166619
 20
53.883114
 30
0.0
  0
SPLINE
  5
29c
100
AcDbEntity
  8
Calque_1
 62
6
100
AcDbSpline
 70
8
 71
3
 72
8
 73
4
 74
0
 40
0
 40
0
 40
0
 40
0
 40
1
 40
1
 40
1
 40
1
 10
32.166619
 20
53.883114
 30
0.0
 10
32.105752
 20
53.752201
 30
0.0
 10
32.075319
 20
53.525973
 30
0.0
 10
32.075319
 20
53.204431
 30
0.0
  0
SPLINE
  5
29d
100
AcDbEntity
  8
Calque_1
 62
6
100
AcDbSpline
 70
8
 71
3
 72
8
 73
4
 74
0
 40
0
 40
0
 40
0
 40
0
 40
1
 40
1
 40
1
 40
1
 10
32.075319
 20
53.204431
 30
0.0
 10
32.075319
 20
52.879444
 30
0.0
 10
32.105752
 20
52.650345
 30
0.0
 10
32.166619
 20
52.517134
 30
0.0
  0
SPLINE
  5
29e
100
AcDbEntity
  8
Calque_1
 62
6
100
AcDbSpline
 70
8
 71
3
 72
8
 73
4
 74
0
 40
0
 40
0
 40
0
 40
0
 40
1
 40
1
 40
1
 40
1
 10
32.166619
 20
52.517134
 30
0.0
 10
32.227486
 20
52.383924
 30
0.0
 10
32.329116
 20
52.317319
 30
0.0
 10
32.471510
 20
52.317319
 30
0.0
  0
SPLINE
  5
29f
100
AcDbEntity
  8
Calque_1
 62
6
100
AcDbSpline
 70
8
 71
3
 72
8
 73
4
 74
0
 40
0
 40
0
 40
0
 40
0
 40
1
 40
1
 40
1
 40
1
 10
32.471510
 20
52.317319
 30
0.0
 10
32.612759
 20
52.317319
 30
0.0
 10
32.713815
 20
52.383924
 30
0.0
 10
32.774678
 20
52.517134
 30
0.0
  0
SPLINE
  5
2a0
100
AcDbEntity
  8
Calque_1
 62
6
100
AcDbSpline
 70
8
 71
3
 72
8
 73
4
 74
0
 40
0
 40
0
 40
0
 40
0
 40
1
 40
1
 40
1
 40
1
 10
32.774678
 20
52.517134
 30
0.0
 10
32.835545
 20
52.650345
 30
0.0
 10
32.865978
 20
52.879444
 30
0.0
 10
32.865978
 20
53.204431
 30
0.0
  0
LINE
  5
2a1
100
AcDbEntity
  8
Calque_1
 62
6
100
AcDbLine
 10
32.865978
 20
53.204431
 30
0.0
 11
32.865978
 21
53.204431
 31
0.0
  0
SPLINE
  5
2a2
100
AcDbEntity
  8
Calque_1
 62
6
100
AcDbSpline
 70
8
 71
3
 72
8
 73
4
 74
0
 40
0
 40
0
 40
0
 40
0
 40
1
 40
1
 40
1
 40
1
 10
33.529159
 20
53.199231
 30
0.0
 10
33.529159
 20
52.773188
 30
0.0
 10
33.437290
 20
52.444181
 30
0.0
 10
33.253551
 20
52.212211
 30
0.0
  0
SPLINE
  5
2a3
100
AcDbEntity
  8
Calque_1
 62
6
100
AcDbSpline
 70
8
 71
3
 72
8
 73
4
 74
0
 40
0
 40
0
 40
0
 40
0
 40
1
 40
1
 40
1
 40
1
 10
33.253551
 20
52.212211
 30
0.0
 10
33.069813
 20
51.981390
 30
0.0
 10
32.809134
 20
51.865979
 30
0.0
 10
32.471515
 20
51.865979
 30
0.0
  0
SPLINE
  5
2a4
100
AcDbEntity
  8
Calque_1
 62
6
100
AcDbSpline
 70
8
 71
3
 72
8
 73
4
 74
0
 40
0
 40
0
 40
0
 40
0
 40
1
 40
1
 40
1
 40
1
 10
32.471515
 20
51.865979
 30
0.0
 10
32.132747
 20
51.865979
 30
0.0
 10
31.871494
 20
51.981390
 30
0.0
 10
31.687756
 20
52.212211
 30
0.0
  0
SPLINE
  5
2a5
100
AcDbEntity
  8
Calque_1
 62
6
100
AcDbSpline
 70
8
 71
3
 72
8
 73
4
 74
0
 40
0
 40
0
 40
0
 40
0
 40
1
 40
1
 40
1
 40
1
 10
31.687756
 20
52.212211
 30
0.0
 10
31.504017
 20
52.444181
 30
0.0
 10
31.412148
 20
52.773188
 30
0.0
 10
31.412148
 20
53.199231
 30
0.0
  0
SPLINE
  5
2a6
100
AcDbEntity
  8
Calque_1
 62
6
100
AcDbSpline
 70
8
 71
3
 72
8
 73
4
 74
0
 40
0
 40
0
 40
0
 40
0
 40
1
 40
1
 40
1
 40
1
 10
31.412148
 20
53.199231
 30
0.0
 10
31.412148
 20
53.626423
 30
0.0
 10
31.504017
 20
53.955430
 30
0.0
 10
31.687756
 20
54.186251
 30
0.0
  0
SPLINE
  5
2a7
100
AcDbEntity
  8
Calque_1
 62
6
100
AcDbSpline
 70
8
 71
3
 72
8
 73
4
 74
0
 40
0
 40
0
 40
0
 40
0
 40
1
 40
1
 40
1
 40
1
 10
31.687756
 20
54.186251
 30
0.0
 10
31.871494
 20
54.418221
 30
0.0
 10
32.132747
 20
54.534206
 30
0.0
 10
32.471515
 20
54.534206
 30
0.0
  0
SPLINE
  5
2a8
100
AcDbEntity
  8
Calque_1
 62
6
100
AcDbSpline
 70
8
 71
3
 72
8
 73
4
 74
0
 40
0
 40
0
 40
0
 40
0
 40
1
 40
1
 40
1
 40
1
 10
32.471515
 20
54.534206
 30
0.0
 10
32.809134
 20
54.534206
 30
0.0
 10
33.069813
 20
54.418221
 30
0.0
 10
33.253551
 20
54.186251
 30
0.0
  0
SPLINE
  5
2a9
100
AcDbEntity
  8
Calque_1
 62
6
100
AcDbSpline
 70
8
 71
3
 72
8
 73
4
 74
0
 40
0
 40
0
 40
0
 40
0
 40
1
 40
1
 40
1
 40
1
 10
33.253551
 20
54.186251
 30
0.0
 10
33.437290
 20
53.955430
 30
0.0
 10
33.529159
 20
53.626423
 30
0.0
 10
33.529159
 20
53.199231
 30
0.0
  0
LINE
  5
2aa
100
AcDbEntity
  8
Calque_1
 62
6
100
AcDbLine
 10
33.529159
 20
53.199231
 30
0.0
 11
33.529159
 21
53.199231
 31
0.0
  0
LINE
  5
2ab
100
AcDbEntity
  8
Calque_1
 62
6
100
AcDbLine
 10
41.078639
 20
49.173353
 30
0.0
 11
41.664306
 21
49.173353
 31
0.0
  0
LINE
  5
2ac
100
AcDbEntity
  8
Calque_1
 62
6
100
AcDbLine
 10
41.664306
 20
49.173353
 30
0.0
 11
41.664306
 21
50.835612
 31
0.0
  0
LINE
  5
2ad
100
AcDbEntity
  8
Calque_1
 62
6
100
AcDbLine
 10
41.664306
 20
50.835612
 30
0.0
 11
41.063137
 21
50.711588
 31
0.0
  0
LINE
  5
2ae
100
AcDbEntity
  8
Calque_1
 62
6
100
AcDbLine
 10
41.063137
 20
50.711588
 30
0.0
 11
41.063137
 21
51.162896
 31
0.0
  0
LINE
  5
2af
100
AcDbEntity
  8
Calque_1
 62
6
100
AcDbLine
 10
41.063137
 20
51.162896
 30
0.0
 11
41.660861
 21
51.286919
 31
0.0
  0
LINE
  5
2b0
100
AcDbEntity
  8
Calque_1
 62
6
100
AcDbLine
 10
41.660861
 20
51.286919
 30
0.0
 11
42.291313
 21
51.286919
 31
0.0
  0
LINE
  5
2b1
100
AcDbEntity
  8
Calque_1
 62
6
100
AcDbLine
 10
42.291313
 20
51.286919
 30
0.0
 11
42.291313
 21
49.173353
 31
0.0
  0
LINE
  5
2b2
100
AcDbEntity
  8
Calque_1
 62
6
100
AcDbLine
 10
42.291313
 20
49.173353
 30
0.0
 11
42.876979
 21
49.173353
 31
0.0
  0
LINE
  5
2b3
100
AcDbEntity
  8
Calque_1
 62
6
100
AcDbLine
 10
42.876979
 20
49.173353
 30
0.0
 11
42.876979
 21
48.715156
 31
0.0
  0
LINE
  5
2b4
100
AcDbEntity
  8
Calque_1
 62
6
100
AcDbLine
 10
42.876979
 20
48.715156
 30
0.0
 11
41.078639
 21
48.715156
 31
0.0
  0
LINE
  5
2b5
100
AcDbEntity
  8
Calque_1
 62
6
100
AcDbLine
 10
41.078639
 20
48.715156
 30
0.0
 11
41.078639
 21
49.173353
 31
0.0
  0
SPLINE
  5
2b6
100
AcDbEntity
  8
Calque_1
 62
6
100
AcDbSpline
 70
8
 71
3
 72
8
 73
4
 74
0
 40
0
 40
0
 40
0
 40
0
 40
1
 40
1
 40
1
 40
1
 10
44.346312
 20
49.865817
 30
0.0
 10
44.222289
 20
49.865817
 30
0.0
 10
44.126974
 20
49.831940
 30
0.0
 10
44.060369
 20
49.764187
 30
0.0
  0
SPLINE
  5
2b7
100
AcDbEntity
  8
Calque_1
 62
6
100
AcDbSpline
 70
8
 71
3
 72
8
 73
4
 74
0
 40
0
 40
0
 40
0
 40
0
 40
1
 40
1
 40
1
 40
1
 10
44.060369
 20
49.764187
 30
0.0
 10
43.993762
 20
49.696434
 30
0.0
 10
43.960459
 20
49.599397
 30
0.0
 10
43.960459
 20
49.473077
 30
0.0
  0
SPLINE
  5
2b8
100
AcDbEntity
  8
Calque_1
 62
6
100
AcDbSpline
 70
8
 71
3
 72
8
 73
4
 74
0
 40
0
 40
0
 40
0
 40
0
 40
1
 40
1
 40
1
 40
1
 10
43.960459
 20
49.473077
 30
0.0
 10
43.960459
 20
49.346756
 30
0.0
 10
43.993762
 20
49.249719
 30
0.0
 10
44.060369
 20
49.181966
 30
0.0
  0
SPLINE
  5
2b9
100
AcDbEntity
  8
Calque_1
 62
6
100
AcDbSpline
 70
8
 71
3
 72
8
 73
4
 74
0
 40
0
 40
0
 40
0
 40
0
 40
1
 40
1
 40
1
 40
1
 10
44.060369
 20
49.181966
 30
0.0
 10
44.126976
 20
49.115359
 30
0.0
 10
44.222290
 20
49.082056
 30
0.0
 10
44.346312
 20
49.082056
 30
0.0
  0
SPLINE
  5
2ba
100
AcDbEntity
  8
Calque_1
 62
6
100
AcDbSpline
 70
8
 71
3
 72
8
 73
4
 74
0
 40
0
 40
0
 40
0
 40
0
 40
1
 40
1
 40
1
 40
1
 10
44.346312
 20
49.082056
 30
0.0
 10
44.469187
 20
49.082056
 30
0.0
 10
44.563353
 20
49.115359
 30
0.0
 10
44.628810
 20
49.181966
 30
0.0
  0
SPLINE
  5
2bb
100
AcDbEntity
  8
Calque_1
 62
6
100
AcDbSpline
 70
8
 71
3
 72
8
 73
4
 74
0
 40
0
 40
0
 40
0
 40
0
 40
1
 40
1
 40
1
 40
1
 10
44.628810
 20
49.181966
 30
0.0
 10
44.694270
 20
49.249719
 30
0.0
 10
44.727000
 20
49.346756
 30
0.0
 10
44.727000
 20
49.473077
 30
0.0
  0
SPLINE
  5
2bc
100
AcDbEntity
  8
Calque_1
 62
6
100
AcDbSpline
 70
8
 71
3
 72
8
 73
4
 74
0
 40
0
 40
0
 40
0
 40
0
 40
1
 40
1
 40
1
 40
1
 10
44.727000
 20
49.473077
 30
0.0
 10
44.727000
 20
49.600545
 30
0.0
 10
44.694270
 20
49.697582
 30
0.0
 10
44.628810
 20
49.764187
 30
0.0
  0
SPLINE
  5
2bd
100
AcDbEntity
  8
Calque_1
 62
6
100
AcDbSpline
 70
8
 71
3
 72
8
 73
4
 74
0
 40
0
 40
0
 40
0
 40
0
 40
1
 40
1
 40
1
 40
1
 10
44.628810
 20
49.764187
 30
0.0
 10
44.563350
 20
49.831940
 30
0.0
 10
44.469184
 20
49.865817
 30
0.0
 10
44.346312
 20
49.865817
 30
0.0
  0
LINE
  5
2be
100
AcDbEntity
  8
Calque_1
 62
6
100
AcDbLine
 10
44.346312
 20
49.865817
 30
0.0
 11
44.346312
 21
49.865817
 31
0.0
  0
SPLINE
  5
2bf
100
AcDbEntity
  8
Calque_1
 62
6
100
AcDbSpline
 70
8
 71
3
 72
8
 73
4
 74
0
 40
0
 40
0
 40
0
 40
0
 40
1
 40
1
 40
1
 40
1
 10
43.862276
 20
50.084581
 30
0.0
 10
43.706099
 20
50.131661
 30
0.0
 10
43.588391
 20
50.204008
 30
0.0
 10
43.509154
 20
50.301622
 30
0.0
  0
SPLINE
  5
2c0
100
AcDbEntity
  8
Calque_1
 62
6
100
AcDbSpline
 70
8
 71
3
 72
8
 73
4
 74
0
 40
0
 40
0
 40
0
 40
0
 40
1
 40
1
 40
1
 40
1
 10
43.509154
 20
50.301622
 30
0.0
 10
43.429917
 20
50.399233
 30
0.0
 10
43.390298
 20
50.520960
 30
0.0
 10
43.390298
 20
50.666802
 30
0.0
  0
SPLINE
  5
2c1
100
AcDbEntity
  8
Calque_1
 62
6
100
AcDbSpline
 70
8
 71
3
 72
8
 73
4
 74
0
 40
0
 40
0
 40
0
 40
0
 40
1
 40
1
 40
1
 40
1
 10
43.390298
 20
50.666802
 30
0.0
 10
43.390298
 20
50.883843
 30
0.0
 10
43.471258
 20
51.049208
 30
0.0
 10
43.633178
 20
51.162896
 30
0.0
  0
SPLINE
  5
2c2
100
AcDbEntity
  8
Calque_1
 62
6
100
AcDbSpline
 70
8
 71
3
 72
8
 73
4
 74
0
 40
0
 40
0
 40
0
 40
0
 40
1
 40
1
 40
1
 40
1
 10
43.633178
 20
51.162896
 30
0.0
 10
43.795097
 20
51.276584
 30
0.0
 10
44.032809
 20
51.333428
 30
0.0
 10
44.346312
 20
51.333428
 30
0.0
  0
SPLINE
  5
2c3
100
AcDbEntity
  8
Calque_1
 62
6
100
AcDbSpline
 70
8
 71
3
 72
8
 73
4
 74
0
 40
0
 40
0
 40
0
 40
0
 40
1
 40
1
 40
1
 40
1
 10
44.346312
 20
51.333428
 30
0.0
 10
44.657519
 20
51.333428
 30
0.0
 10
44.894083
 20
51.276584
 30
0.0
 10
45.056002
 20
51.162896
 30
0.0
  0
SPLINE
  5
2c4
100
AcDbEntity
  8
Calque_1
 62
6
100
AcDbSpline
 70
8
 71
3
 72
8
 73
4
 74
0
 40
0
 40
0
 40
0
 40
0
 40
1
 40
1
 40
1
 40
1
 10
45.056002
 20
51.162896
 30
0.0
 10
45.217921
 20
51.050356
 30
0.0
 10
45.298881
 20
50.884991
 30
0.0
 10
45.298881
 20
50.666802
 30
0.0
  0
SPLINE
  5
2c5
100
AcDbEntity
  8
Calque_1
 62
6
100
AcDbSpline
 70
8
 71
3
 72
8
 73
4
 74
0
 40
0
 40
0
 40
0
 40
0
 40
1
 40
1
 40
1
 40
1
 10
45.298881
 20
50.666802
 30
0.0
 10
45.298881
 20
50.520960
 30
0.0
 10
45.258688
 20
50.399233
 30
0.0
 10
45.178303
 20
50.301622
 30
0.0
  0
SPLINE
  5
2c6
100
AcDbEntity
  8
Calque_1
 62
6
100
AcDbSpline
 70
8
 71
3
 72
8
 73
4
 74
0
 40
0
 40
0
 40
0
 40
0
 40
1
 40
1
 40
1
 40
1
 10
45.178303
 20
50.301622
 30
0.0
 10
45.099066
 20
50.204011
 30
0.0
 10
44.981358
 20
50.131664
 30
0.0
 10
44.825181
 20
50.084581
 30
0.0
  0
SPLINE
  5
2c7
100
AcDbEntity
  8
Calque_1
 62
6
100
AcDbSpline
 70
8
 71
3
 72
8
 73
4
 74
0
 40
0
 40
0
 40
0
 40
0
 40
1
 40
1
 40
1
 40
1
 10
44.825181
 20
50.084581
 30
0.0
 10
44.999732
 20
50.036348
 30
0.0
 10
45.131220
 20
49.957685
 30
0.0
 10
45.219644
 20
49.848592
 30
0.0
  0
SPLINE
  5
2c8
100
AcDbEntity
  8
Calque_1
 62
6
100
AcDbSpline
 70
8
 71
3
 72
8
 73
4
 74
0
 40
0
 40
0
 40
0
 40
0
 40
1
 40
1
 40
1
 40
1
 10
45.219644
 20
49.848592
 30
0.0
 10
45.309217
 20
49.740645
 30
0.0
 10
45.354003
 20
49.603990
 30
0.0
 10
45.354003
 20
49.438626
 30
0.0
  0
SPLINE
  5
2c9
100
AcDbEntity
  8
Calque_1
 62
6
100
AcDbSpline
 70
8
 71
3
 72
8
 73
4
 74
0
 40
0
 40
0
 40
0
 40
0
 40
1
 40
1
 40
1
 40
1
 10
45.354003
 20
49.438626
 30
0.0
 10
45.354003
 20
49.183689
 30
0.0
 10
45.269024
 20
48.990763
 30
0.0
 10
45.099066
 20
48.859850
 30
0.0
  0
SPLINE
  5
2ca
100
AcDbEntity
  8
Calque_1
 62
6
100
AcDbSpline
 70
8
 71
3
 72
8
 73
4
 74
0
 40
0
 40
0
 40
0
 40
0
 40
1
 40
1
 40
1
 40
1
 10
45.099066
 20
48.859850
 30
0.0
 10
44.930256
 20
48.730085
 30
0.0
 10
44.679338
 20
48.665202
 30
0.0
 10
44.346312
 20
48.665202
 30
0.0
  0
SPLINE
  5
2cb
100
AcDbEntity
  8
Calque_1
 62
6
100
AcDbSpline
 70
8
 71
3
 72
8
 73
4
 74
0
 40
0
 40
0
 40
0
 40
0
 40
1
 40
1
 40
1
 40
1
 10
44.346312
 20
48.665202
 30
0.0
 10
44.012138
 20
48.665202
 30
0.0
 10
43.759498
 20
48.730085
 30
0.0
 10
43.588391
 20
48.859850
 30
0.0
  0
SPLINE
  5
2cc
100
AcDbEntity
  8
Calque_1
 62
6
100
AcDbSpline
 70
8
 71
3
 72
8
 73
4
 74
0
 40
0
 40
0
 40
0
 40
0
 40
1
 40
1
 40
1
 40
1
 10
43.588391
 20
48.859850
 30
0.0
 10
43.418433
 20
48.990763
 30
0.0
 10
43.333454
 20
49.183689
 30
0.0
 10
43.333454
 20
49.438626
 30
0.0
  0
SPLINE
  5
2cd
100
AcDbEntity
  8
Calque_1
 62
6
100
AcDbSpline
 70
8
 71
3
 72
8
 73
4
 74
0
 40
0
 40
0
 40
0
 40
0
 40
1
 40
1
 40
1
 40
1
 10
43.333454
 20
49.438626
 30
0.0
 10
43.333454
 20
49.603990
 30
0.0
 10
43.377666
 20
49.740645
 30
0.0
 10
43.466090
 20
49.848592
 30
0.0
  0
SPLINE
  5
2ce
100
AcDbEntity
  8
Calque_1
 62
6
100
AcDbSpline
 70
8
 71
3
 72
8
 73
4
 74
0
 40
0
 40
0
 40
0
 40
0
 40
1
 40
1
 40
1
 40
1
 10
43.466090
 20
49.848592
 30
0.0
 10
43.555663
 20
49.957687
 30
0.0
 10
43.687725
 20
50.036350
 30
0.0
 10
43.862276
 20
50.084581
 30
0.0
  0
LINE
  5
2cf
100
AcDbEntity
  8
Calque_1
 62
6
100
AcDbLine
 10
43.862276
 20
50.084581
 30
0.0
 11
43.862276
 21
50.084581
 31
0.0
  0
SPLINE
  5
2d0
100
AcDbEntity
  8
Calque_1
 62
6
100
AcDbSpline
 70
8
 71
3
 72
8
 73
4
 74
0
 40
0
 40
0
 40
0
 40
0
 40
1
 40
1
 40
1
 40
1
 10
44.017306
 20
50.599623
 30
0.0
 10
44.017306
 20
50.497418
 30
0.0
 10
44.045443
 20
50.418755
 30
0.0
 10
44.101716
 20
50.363634
 30
0.0
  0
SPLINE
  5
2d1
100
AcDbEntity
  8
Calque_1
 62
6
100
AcDbSpline
 70
8
 71
3
 72
8
 73
4
 74
0
 40
0
 40
0
 40
0
 40
0
 40
1
 40
1
 40
1
 40
1
 10
44.101716
 20
50.363634
 30
0.0
 10
44.159136
 20
50.308514
 30
0.0
 10
44.240670
 20
50.280954
 30
0.0
 10
44.346317
 20
50.280954
 30
0.0
  0
SPLINE
  5
2d2
100
AcDbEntity
  8
Calque_1
 62
6
100
AcDbSpline
 70
8
 71
3
 72
8
 73
4
 74
0
 40
0
 40
0
 40
0
 40
0
 40
1
 40
1
 40
1
 40
1
 10
44.346317
 20
50.280954
 30
0.0
 10
44.449670
 20
50.280954
 30
0.0
 10
44.529482
 20
50.308514
 30
0.0
 10
44.585751
 20
50.363634
 30
0.0
  0
SPLINE
  5
2d3
100
AcDbEntity
  8
Calque_1
 62
6
100
AcDbSpline
 70
8
 71
3
 72
8
 73
4
 74
0
 40
0
 40
0
 40
0
 40
0
 40
1
 40
1
 40
1
 40
1
 10
44.585751
 20
50.363634
 30
0.0
 10
44.642018
 20
50.418754
 30
0.0
 10
44.670151
 20
50.497417
 30
0.0
 10
44.670151
 20
50.599623
 30
0.0
  0
SPLINE
  5
2d4
100
AcDbEntity
  8
Calque_1
 62
6
100
AcDbSpline
 70
8
 71
3
 72
8
 73
4
 74
0
 40
0
 40
0
 40
0
 40
0
 40
1
 40
1
 40
1
 40
1
 10
44.670151
 20
50.599623
 30
0.0
 10
44.670151
 20
50.701827
 30
0.0
 10
44.642018
 20
50.779916
 30
0.0
 10
44.585751
 20
50.833889
 30
0.0
  0
SPLINE
  5
2d5
100
AcDbEntity
  8
Calque_1
 62
6
100
AcDbSpline
 70
8
 71
3
 72
8
 73
4
 74
0
 40
0
 40
0
 40
0
 40
0
 40
1
 40
1
 40
1
 40
1
 10
44.585751
 20
50.833889
 30
0.0
 10
44.529484
 20
50.889009
 30
0.0
 10
44.449673
 20
50.916569
 30
0.0
 10
44.346317
 20
50.916569
 30
0.0
  0
SPLINE
  5
2d6
100
AcDbEntity
  8
Calque_1
 62
6
100
AcDbSpline
 70
8
 71
3
 72
8
 73
4
 74
0
 40
0
 40
0
 40
0
 40
0
 40
1
 40
1
 40
1
 40
1
 10
44.346317
 20
50.916569
 30
0.0
 10
44.240668
 20
50.916569
 30
0.0
 10
44.159134
 20
50.889009
 30
0.0
 10
44.101716
 20
50.833889
 30
0.0
  0
SPLINE
  5
2d7
100
AcDbEntity
  8
Calque_1
 62
6
100
AcDbSpline
 70
8
 71
3
 72
8
 73
4
 74
0
 40
0
 40
0
 40
0
 40
0
 40
1
 40
1
 40
1
 40
1
 10
44.101716
 20
50.833889
 30
0.0
 10
44.045443
 20
50.778769
 30
0.0
 10
44.017306
 20
50.700680
 30
0.0
 10
44.017306
 20
50.599623
 30
0.0
  0
LINE
  5
2d8
100
AcDbEntity
  8
Calque_1
 62
6
100
AcDbLine
 10
44.017306
 20
50.599623
 30
0.0
 11
44.017306
 21
50.599623
 31
0.0
  0
SPLINE
  5
2d9
100
AcDbEntity
  8
Calque_1
 62
6
100
AcDbSpline
 70
8
 71
3
 72
8
 73
4
 74
0
 40
0
 40
0
 40
0
 40
0
 40
1
 40
1
 40
1
 40
1
 10
47.193684
 20
50.003621
 30
0.0
 10
47.193684
 20
50.325164
 30
0.0
 10
47.163254
 20
50.551392
 30
0.0
 10
47.102394
 20
50.682305
 30
0.0
  0
SPLINE
  5
2da
100
AcDbEntity
  8
Calque_1
 62
6
100
AcDbSpline
 70
8
 71
3
 72
8
 73
4
 74
0
 40
0
 40
0
 40
0
 40
0
 40
1
 40
1
 40
1
 40
1
 10
47.102394
 20
50.682305
 30
0.0
 10
47.042681
 20
50.814367
 30
0.0
 10
46.941624
 20
50.880398
 30
0.0
 10
46.799225
 20
50.880398
 30
0.0
  0
SPLINE
  5
2db
100
AcDbEntity
  8
Calque_1
 62
6
100
AcDbSpline
 70
8
 71
3
 72
8
 73
4
 74
0
 40
0
 40
0
 40
0
 40
0
 40
1
 40
1
 40
1
 40
1
 10
46.799225
 20
50.880398
 30
0.0
 10
46.656828
 20
50.880398
 30
0.0
 10
46.555197
 20
50.814367
 30
0.0
 10
46.494334
 20
50.682305
 30
0.0
  0
SPLINE
  5
2dc
100
AcDbEntity
  8
Calque_1
 62
6
100
AcDbSpline
 70
8
 71
3
 72
8
 73
4
 74
0
 40
0
 40
0
 40
0
 40
0
 40
1
 40
1
 40
1
 40
1
 10
46.494334
 20
50.682305
 30
0.0
 10
46.433467
 20
50.551392
 30
0.0
 10
46.403034
 20
50.325164
 30
0.0
 10
46.403034
 20
50.003621
 30
0.0
  0
SPLINE
  5
2dd
100
AcDbEntity
  8
Calque_1
 62
6
100
AcDbSpline
 70
8
 71
3
 72
8
 73
4
 74
0
 40
0
 40
0
 40
0
 40
0
 40
1
 40
1
 40
1
 40
1
 10
46.403034
 20
50.003621
 30
0.0
 10
46.403034
 20
49.678634
 30
0.0
 10
46.433467
 20
49.449535
 30
0.0
 10
46.494334
 20
49.316325
 30
0.0
  0
SPLINE
  5
2de
100
AcDbEntity
  8
Calque_1
 62
6
100
AcDbSpline
 70
8
 71
3
 72
8
 73
4
 74
0
 40
0
 40
0
 40
0
 40
0
 40
1
 40
1
 40
1
 40
1
 10
46.494334
 20
49.316325
 30
0.0
 10
46.555201
 20
49.183114
 30
0.0
 10
46.656831
 20
49.116509
 30
0.0
 10
46.799225
 20
49.116509
 30
0.0
  0
SPLINE
  5
2df
100
AcDbEntity
  8
Calque_1
 62
6
100
AcDbSpline
 70
8
 71
3
 72
8
 73
4
 74
0
 40
0
 40
0
 40
0
 40
0
 40
1
 40
1
 40
1
 40
1
 10
46.799225
 20
49.116509
 30
0.0
 10
46.940474
 20
49.116509
 30
0.0
 10
47.041530
 20
49.183114
 30
0.0
 10
47.102394
 20
49.316325
 30
0.0
  0
SPLINE
  5
2e0
100
AcDbEntity
  8
Calque_1
 62
6
100
AcDbSpline
 70
8
 71
3
 72
8
 73
4
 74
0
 40
0
 40
0
 40
0
 40
0
 40
1
 40
1
 40
1
 40
1
 10
47.102394
 20
49.316325
 30
0.0
 10
47.163254
 20
49.449535
 30
0.0
 10
47.193684
 20
49.678634
 30
0.0
 10
47.193684
 20
50.003621
 30
0.0
  0
LINE
  5
2e1
100
AcDbEntity
  8
Calque_1
 62
6
100
AcDbLine
 10
47.193684
 20
50.003621
 30
0.0
 11
47.193684
 21
50.003621
 31
0.0
  0
SPLINE
  5
2e2
100
AcDbEntity
  8
Calque_1
 62
6
100
AcDbSpline
 70
8
 71
3
 72
8
 73
4
 74
0
 40
0
 40
0
 40
0
 40
0
 40
1
 40
1
 40
1
 40
1
 10
47.856864
 20
49.998421
 30
0.0
 10
47.856864
 20
49.572377
 30
0.0
 10
47.764995
 20
49.243370
 30
0.0
 10
47.581257
 20
49.011401
 30
0.0
  0
SPLINE
  5
2e3
100
AcDbEntity
  8
Calque_1
 62
6
100
AcDbSpline
 70
8
 71
3
 72
8
 73
4
 74
0
 40
0
 40
0
 40
0
 40
0
 40
1
 40
1
 40
1
 40
1
 10
47.581257
 20
49.011401
 30
0.0
 10
47.397518
 20
48.780580
 30
0.0
 10
47.136839
 20
48.665169
 30
0.0
 10
46.799220
 20
48.665169
 30
0.0
  0
SPLINE
  5
2e4
100
AcDbEntity
  8
Calque_1
 62
6
100
AcDbSpline
 70
8
 71
3
 72
8
 73
4
 74
0
 40
0
 40
0
 40
0
 40
0
 40
1
 40
1
 40
1
 40
1
 10
46.799220
 20
48.665169
 30
0.0
 10
46.460453
 20
48.665169
 30
0.0
 10
46.199200
 20
48.780580
 30
0.0
 10
46.015461
 20
49.011401
 30
0.0
  0
SPLINE
  5
2e5
100
AcDbEntity
  8
Calque_1
 62
6
100
AcDbSpline
 70
8
 71
3
 72
8
 73
4
 74
0
 40
0
 40
0
 40
0
 40
0
 40
1
 40
1
 40
1
 40
1
 10
46.015461
 20
49.011401
 30
0.0
 10
45.831722
 20
49.243370
 30
0.0
 10
45.739853
 20
49.572377
 30
0.0
 10
45.739853
 20
49.998421
 30
0.0
  0
SPLINE
  5
2e6
100
AcDbEntity
  8
Calque_1
 62
6
100
AcDbSpline
 70
8
 71
3
 72
8
 73
4
 74
0
 40
0
 40
0
 40
0
 40
0
 40
1
 40
1
 40
1
 40
1
 10
45.739853
 20
49.998421
 30
0.0
 10
45.739853
 20
50.425612
 30
0.0
 10
45.831722
 20
50.754619
 30
0.0
 10
46.015461
 20
50.985440
 30
0.0
  0
SPLINE
  5
2e7
100
AcDbEntity
  8
Calque_1
 62
6
100
AcDbSpline
 70
8
 71
3
 72
8
 73
4
 74
0
 40
0
 40
0
 40
0
 40
0
 40
1
 40
1
 40
1
 40
1
 10
46.015461
 20
50.985440
 30
0.0
 10
46.199200
 20
51.217410
 30
0.0
 10
46.460453
 20
51.333395
 30
0.0
 10
46.799220
 20
51.333395
 30
0.0
  0
SPLINE
  5
2e8
100
AcDbEntity
  8
Calque_1
 62
6
100
AcDbSpline
 70
8
 71
3
 72
8
 73
4
 74
0
 40
0
 40
0
 40
0
 40
0
 40
1
 40
1
 40
1
 40
1
 10
46.799220
 20
51.333395
 30
0.0
 10
47.136839
 20
51.333395
 30
0.0
 10
47.397518
 20
51.217410
 30
0.0
 10
47.581257
 20
50.985440
 30
0.0
  0
SPLINE
  5
2e9
100
AcDbEntity
  8
Calque_1
 62
6
100
AcDbSpline
 70
8
 71
3
 72
8
 73
4
 74
0
 40
0
 40
0
 40
0
 40
0
 40
1
 40
1
 40
1
 40
1
 10
47.581257
 20
50.985440
 30
0.0
 10
47.764995
 20
50.754619
 30
0.0
 10
47.856864
 20
50.425612
 30
0.0
 10
47.856864
 20
49.998421
 30
0.0
  0
LINE
  5
2ea
100
AcDbEntity
  8
Calque_1
 62
6
100
AcDbLine
 10
47.856864
 20
49.998421
 30
0.0
 11
47.856864
 21
49.998421
 31
0.0
  0
LINE
  5
2eb
100
AcDbEntity
  8
Calque_1
 62
6
100
AcDbLine
 10
49.402456
 20
41.600570
 30
0.0
 11
50.534169
 21
41.600570
 31
0.0
  0
LINE
  5
2ec
100
AcDbEntity
  8
Calque_1
 62
6
100
AcDbLine
 10
50.534169
 20
41.600570
 30
0.0
 11
50.534169
 21
41.113089
 31
0.0
  0
LINE
  5
2ed
100
AcDbEntity
  8
Calque_1
 62
6
100
AcDbLine
 10
50.534169
 20
41.113089
 30
0.0
 11
48.665205
 21
41.113089
 31
0.0
  0
LINE
  5
2ee
100
AcDbEntity
  8
Calque_1
 62
6
100
AcDbLine
 10
48.665205
 20
41.113089
 30
0.0
 11
48.665205
 21
41.600570
 31
0.0
  0
LINE
  5
2ef
100
AcDbEntity
  8
Calque_1
 62
6
100
AcDbLine
 10
48.665205
 20
41.600570
 30
0.0
 11
49.603994
 21
42.429116
 31
0.0
  0
SPLINE
  5
2f0
100
AcDbEntity
  8
Calque_1
 62
6
100
AcDbSpline
 70
8
 71
3
 72
8
 73
4
 74
0
 40
0
 40
0
 40
0
 40
0
 40
1
 40
1
 40
1
 40
1
 10
49.603994
 20
42.429116
 30
0.0
 10
49.687825
 20
42.504908
 30
0.0
 10
49.749836
 20
42.578978
 30
0.0
 10
49.790029
 20
42.651325
 30
0.0
  0
SPLINE
  5
2f1
100
AcDbEntity
  8
Calque_1
 62
6
100
AcDbSpline
 70
8
 71
3
 72
8
 73
4
 74
0
 40
0
 40
0
 40
0
 40
0
 40
1
 40
1
 40
1
 40
1
 10
49.790029
 20
42.651325
 30
0.0
 10
49.830222
 20
42.723672
 30
0.0
 10
49.850319
 20
42.798889
 30
0.0
 10
49.850319
 20
42.876978
 30
0.0
  0
SPLINE
  5
2f2
100
AcDbEntity
  8
Calque_1
 62
6
100
AcDbSpline
 70
8
 71
3
 72
8
 73
4
 74
0
 40
0
 40
0
 40
0
 40
0
 40
1
 40
1
 40
1
 40
1
 10
49.850319
 20
42.876978
 30
0.0
 10
49.850319
 20
42.997557
 30
0.0
 10
49.809552
 20
43.094594
 30
0.0
 10
49.728018
 20
43.168089
 30
0.0
  0
SPLINE
  5
2f3
100
AcDbEntity
  8
Calque_1
 62
6
100
AcDbSpline
 70
8
 71
3
 72
8
 73
4
 74
0
 40
0
 40
0
 40
0
 40
0
 40
1
 40
1
 40
1
 40
1
 10
49.728018
 20
43.168089
 30
0.0
 10
49.647633
 20
43.241584
 30
0.0
 10
49.540261
 20
43.278332
 30
0.0
 10
49.405902
 20
43.278332
 30
0.0
  0
SPLINE
  5
2f4
100
AcDbEntity
  8
Calque_1
 62
6
100
AcDbSpline
 70
8
 71
3
 72
8
 73
4
 74
0
 40
0
 40
0
 40
0
 40
0
 40
1
 40
1
 40
1
 40
1
 10
49.405902
 20
43.278332
 30
0.0
 10
49.302549
 20
43.278332
 30
0.0
 10
49.189435
 20
43.255939
 30
0.0
 10
49.066560
 20
43.211152
 30
0.0
  0
SPLINE
  5
2f5
100
AcDbEntity
  8
Calque_1
 62
6
100
AcDbSpline
 70
8
 71
3
 72
8
 73
4
 74
0
 40
0
 40
0
 40
0
 40
0
 40
1
 40
1
 40
1
 40
1
 10
49.066560
 20
43.211152
 30
0.0
 10
48.943685
 20
43.167512
 30
0.0
 10
48.812197
 20
43.102055
 30
0.0
 10
48.672096
 20
43.014781
 30
0.0
  0
LINE
  5
2f6
100
AcDbEntity
  8
Calque_1
 62
6
100
AcDbLine
 10
48.672096
 20
43.014781
 30
0.0
 11
48.672096
 21
43.579777
 31
0.0
  0
SPLINE
  5
2f7
100
AcDbEntity
  8
Calque_1
 62
6
100
AcDbSpline
 70
8
 71
3
 72
8
 73
4
 74
0
 40
0
 40
0
 40
0
 40
0
 40
1
 40
1
 40
1
 40
1
 10
48.672096
 20
43.579777
 30
0.0
 10
48.821384
 20
43.629157
 30
0.0
 10
48.968949
 20
43.666479
 30
0.0
 10
49.114791
 20
43.691742
 30
0.0
  0
SPLINE
  5
2f8
100
AcDbEntity
  8
Calque_1
 62
6
100
AcDbSpline
 70
8
 71
3
 72
8
 73
4
 74
0
 40
0
 40
0
 40
0
 40
0
 40
1
 40
1
 40
1
 40
1
 10
49.114791
 20
43.691742
 30
0.0
 10
49.260634
 20
43.718155
 30
0.0
 10
49.403605
 20
43.731362
 30
0.0
 10
49.543705
 20
43.731362
 30
0.0
  0
SPLINE
  5
2f9
100
AcDbEntity
  8
Calque_1
 62
6
100
AcDbSpline
 70
8
 71
3
 72
8
 73
4
 74
0
 40
0
 40
0
 40
0
 40
0
 40
1
 40
1
 40
1
 40
1
 10
49.543705
 20
43.731362
 30
0.0
 10
49.851467
 20
43.731362
 30
0.0
 10
50.090327
 20
43.663608
 30
0.0
 10
50.260285
 20
43.528101
 30
0.0
  0
SPLINE
  5
2fa
100
AcDbEntity
  8
Calque_1
 62
6
100
AcDbSpline
 70
8
 71
3
 72
8
 73
4
 74
0
 40
0
 40
0
 40
0
 40
0
 40
1
 40
1
 40
1
 40
1
 10
50.260285
 20
43.528101
 30
0.0
 10
50.431392
 20
43.392594
 30
0.0
 10
50.516945
 20
43.203688
 30
0.0
 10
50.516945
 20
42.961383
 30
0.0
  0
SPLINE
  5
2fb
100
AcDbEntity
  8
Calque_1
 62
6
100
AcDbSpline
 70
8
 71
3
 72
8
 73
4
 74
0
 40
0
 40
0
 40
0
 40
0
 40
1
 40
1
 40
1
 40
1
 10
50.516945
 20
42.961383
 30
0.0
 10
50.516945
 20
42.821282
 30
0.0
 10
50.480771
 20
42.690369
 30
0.0
 10
50.408424
 20
42.568642
 30
0.0
  0
SPLINE
  5
2fc
100
AcDbEntity
  8
Calque_1
 62
6
100
AcDbSpline
 70
8
 71
3
 72
8
 73
4
 74
0
 40
0
 40
0
 40
0
 40
0
 40
1
 40
1
 40
1
 40
1
 10
50.408424
 20
42.568642
 30
0.0
 10
50.336077
 20
42.448064
 30
0.0
 10
50.183919
 20
42.286145
 30
0.0
 10
49.951949
 20
42.082884
 30
0.0
  0
LINE
  5
2fd
100
AcDbEntity
  8
Calque_1
 62
6
100
AcDbLine
 10
49.951949
 20
42.082884
 30
0.0
 11
49.402456
 21
41.600570
 31
0.0
  0
LINE
  5
2fe
100
AcDbEntity
  8
Calque_1
 62
6
100
AcDbLine
 10
51.252472
 20
41.571287
 30
0.0
 11
51.838138
 21
41.571287
 31
0.0
  0
LINE
  5
2ff
100
AcDbEntity
  8
Calque_1
 62
6
100
AcDbLine
 10
51.838138
 20
41.571287
 30
0.0
 11
51.838138
 21
43.233546
 31
0.0
  0
LINE
  5
300
100
AcDbEntity
  8
Calque_1
 62
6
100
AcDbLine
 10
51.838138
 20
43.233546
 30
0.0
 11
51.236969
 21
43.109522
 31
0.0
  0
LINE
  5
301
100
AcDbEntity
  8
Calque_1
 62
6
100
AcDbLine
 10
51.236969
 20
43.109522
 30
0.0
 11
51.236969
 21
43.560830
 31
0.0
  0
LINE
  5
302
100
AcDbEntity
  8
Calque_1
 62
6
100
AcDbLine
 10
51.236969
 20
43.560830
 30
0.0
 11
51.834693
 21
43.684853
 31
0.0
  0
LINE
  5
303
100
AcDbEntity
  8
Calque_1
 62
6
100
AcDbLine
 10
51.834693
 20
43.684853
 30
0.0
 11
52.465145
 21
43.684853
 31
0.0
  0
LINE
  5
304
100
AcDbEntity
  8
Calque_1
 62
6
100
AcDbLine
 10
52.465145
 20
43.684853
 30
0.0
 11
52.465145
 21
41.571287
 31
0.0
  0
LINE
  5
305
100
AcDbEntity
  8
Calque_1
 62
6
100
AcDbLine
 10
52.465145
 20
41.571287
 30
0.0
 11
53.050811
 21
41.571287
 31
0.0
  0
LINE
  5
306
100
AcDbEntity
  8
Calque_1
 62
6
100
AcDbLine
 10
53.050811
 20
41.571287
 30
0.0
 11
53.050811
 21
41.113089
 31
0.0
  0
LINE
  5
307
100
AcDbEntity
  8
Calque_1
 62
6
100
AcDbLine
 10
53.050811
 20
41.113089
 30
0.0
 11
51.252472
 21
41.113089
 31
0.0
  0
LINE
  5
308
100
AcDbEntity
  8
Calque_1
 62
6
100
AcDbLine
 10
51.252472
 20
41.113089
 30
0.0
 11
51.252472
 21
41.571287
 31
0.0
  0
SPLINE
  5
309
100
AcDbEntity
  8
Calque_1
 62
6
100
AcDbSpline
 70
8
 71
3
 72
8
 73
4
 74
0
 40
0
 40
0
 40
0
 40
0
 40
1
 40
1
 40
1
 40
1
 10
54.914608
 20
42.401555
 30
0.0
 10
54.914608
 20
42.723098
 30
0.0
 10
54.884175
 20
42.949326
 30
0.0
 10
54.823308
 20
43.080239
 30
0.0
  0
SPLINE
  5
30a
100
AcDbEntity
  8
Calque_1
 62
6
100
AcDbSpline
 70
8
 71
3
 72
8
 73
4
 74
0
 40
0
 40
0
 40
0
 40
0
 40
1
 40
1
 40
1
 40
1
 10
54.823308
 20
43.080239
 30
0.0
 10
54.763595
 20
43.212301
 30
0.0
 10
54.662539
 20
43.278332
 30
0.0
 10
54.520140
 20
43.278332
 30
0.0
  0
SPLINE
  5
30b
100
AcDbEntity
  8
Calque_1
 62
6
100
AcDbSpline
 70
8
 71
3
 72
8
 73
4
 74
0
 40
0
 40
0
 40
0
 40
0
 40
1
 40
1
 40
1
 40
1
 10
54.520140
 20
43.278332
 30
0.0
 10
54.377743
 20
43.278332
 30
0.0
 10
54.276112
 20
43.212301
 30
0.0
 10
54.215249
 20
43.080239
 30
0.0
  0
SPLINE
  5
30c
100
AcDbEntity
  8
Calque_1
 62
6
100
AcDbSpline
 70
8
 71
3
 72
8
 73
4
 74
0
 40
0
 40
0
 40
0
 40
0
 40
1
 40
1
 40
1
 40
1
 10
54.215249
 20
43.080239
 30
0.0
 10
54.154382
 20
42.949326
 30
0.0
 10
54.123949
 20
42.723098
 30
0.0
 10
54.123949
 20
42.401555
 30
0.0
  0
SPLINE
  5
30d
100
AcDbEntity
  8
Calque_1
 62
6
100
AcDbSpline
 70
8
 71
3
 72
8
 73
4
 74
0
 40
0
 40
0
 40
0
 40
0
 40
1
 40
1
 40
1
 40
1
 10
54.123949
 20
42.401555
 30
0.0
 10
54.123949
 20
42.076568
 30
0.0
 10
54.154382
 20
41.847469
 30
0.0
 10
54.215249
 20
41.714259
 30
0.0
  0
SPLINE
  5
30e
100
AcDbEntity
  8
Calque_1
 62
6
100
AcDbSpline
 70
8
 71
3
 72
8
 73
4
 74
0
 40
0
 40
0
 40
0
 40
0
 40
1
 40
1
 40
1
 40
1
 10
54.215249
 20
41.714259
 30
0.0
 10
54.276109
 20
41.581048
 30
0.0
 10
54.377739
 20
41.514443
 30
0.0
 10
54.520140
 20
41.514443
 30
0.0
  0
SPLINE
  5
30f
100
AcDbEntity
  8
Calque_1
 62
6
100
AcDbSpline
 70
8
 71
3
 72
8
 73
4
 74
0
 40
0
 40
0
 40
0
 40
0
 40
1
 40
1
 40
1
 40
1
 10
54.520140
 20
41.514443
 30
0.0
 10
54.661389
 20
41.514443
 30
0.0
 10
54.762445
 20
41.581048
 30
0.0
 10
54.823308
 20
41.714259
 30
0.0
  0
SPLINE
  5
310
100
AcDbEntity
  8
Calque_1
 62
6
100
AcDbSpline
 70
8
 71
3
 72
8
 73
4
 74
0
 40
0
 40
0
 40
0
 40
0
 40
1
 40
1
 40
1
 40
1
 10
54.823308
 20
41.714259
 30
0.0
 10
54.884175
 20
41.847469
 30
0.0
 10
54.914608
 20
42.076568
 30
0.0
 10
54.914608
 20
42.401555
 30
0.0
  0
LINE
  5
311
100
AcDbEntity
  8
Calque_1
 62
6
100
AcDbLine
 10
54.914608
 20
42.401555
 30
0.0
 11
54.914608
 21
42.401555
 31
0.0
  0
SPLINE
  5
312
100
AcDbEntity
  8
Calque_1
 62
6
100
AcDbSpline
 70
8
 71
3
 72
8
 73
4
 74
0
 40
0
 40
0
 40
0
 40
0
 40
1
 40
1
 40
1
 40
1
 10
55.577789
 20
42.396355
 30
0.0
 10
55.577789
 20
41.970311
 30
0.0
 10
55.485920
 20
41.641304
 30
0.0
 10
55.302181
 20
41.409335
 30
0.0
  0
SPLINE
  5
313
100
AcDbEntity
  8
Calque_1
 62
6
100
AcDbSpline
 70
8
 71
3
 72
8
 73
4
 74
0
 40
0
 40
0
 40
0
 40
0
 40
1
 40
1
 40
1
 40
1
 10
55.302181
 20
41.409335
 30
0.0
 10
55.118443
 20
41.178514
 30
0.0
 10
54.857764
 20
41.063103
 30
0.0
 10
54.520145
 20
41.063103
 30
0.0
  0
SPLINE
  5
314
100
AcDbEntity
  8
Calque_1
 62
6
100
AcDbSpline
 70
8
 71
3
 72
8
 73
4
 74
0
 40
0
 40
0
 40
0
 40
0
 40
1
 40
1
 40
1
 40
1
 10
54.520145
 20
41.063103
 30
0.0
 10
54.181377
 20
41.063103
 30
0.0
 10
53.920124
 20
41.178514
 30
0.0
 10
53.736385
 20
41.409335
 30
0.0
  0
SPLINE
  5
315
100
AcDbEntity
  8
Calque_1
 62
6
100
AcDbSpline
 70
8
 71
3
 72
8
 73
4
 74
0
 40
0
 40
0
 40
0
 40
0
 40
1
 40
1
 40
1
 40
1
 10
53.736385
 20
41.409335
 30
0.0
 10
53.552647
 20
41.641304
 30
0.0
 10
53.460778
 20
41.970311
 30
0.0
 10
53.460778
 20
42.396355
 30
0.0
  0
SPLINE
  5
316
100
AcDbEntity
  8
Calque_1
 62
6
100
AcDbSpline
 70
8
 71
3
 72
8
 73
4
 74
0
 40
0
 40
0
 40
0
 40
0
 40
1
 40
1
 40
1
 40
1
 10
53.460778
 20
42.396355
 30
0.0
 10
53.460778
 20
42.823546
 30
0.0
 10
53.552647
 20
43.152553
 30
0.0
 10
53.736385
 20
43.383374
 30
0.0
  0
SPLINE
  5
317
100
AcDbEntity
  8
Calque_1
 62
6
100
AcDbSpline
 70
8
 71
3
 72
8
 73
4
 74
0
 40
0
 40
0
 40
0
 40
0
 40
1
 40
1
 40
1
 40
1
 10
53.736385
 20
43.383374
 30
0.0
 10
53.920124
 20
43.615344
 30
0.0
 10
54.181377
 20
43.731329
 30
0.0
 10
54.520145
 20
43.731329
 30
0.0
  0
SPLINE
  5
318
100
AcDbEntity
  8
Calque_1
 62
6
100
AcDbSpline
 70
8
 71
3
 72
8
 73
4
 74
0
 40
0
 40
0
 40
0
 40
0
 40
1
 40
1
 40
1
 40
1
 10
54.520145
 20
43.731329
 30
0.0
 10
54.857764
 20
43.731329
 30
0.0
 10
55.118443
 20
43.615344
 30
0.0
 10
55.302181
 20
43.383374
 30
0.0
  0
SPLINE
  5
319
100
AcDbEntity
  8
Calque_1
 62
6
100
AcDbSpline
 70
8
 71
3
 72
8
 73
4
 74
0
 40
0
 40
0
 40
0
 40
0
 40
1
 40
1
 40
1
 40
1
 10
55.302181
 20
43.383374
 30
0.0
 10
55.485920
 20
43.152553
 30
0.0
 10
55.577789
 20
42.823546
 30
0.0
 10
55.577789
 20
42.396355
 30
0.0
  0
LINE
  5
31a
100
AcDbEntity
  8
Calque_1
 62
6
100
AcDbLine
 10
55.577789
 20
42.396355
 30
0.0
 11
55.577789
 21
42.396355
 31
0.0
  0
LINE
  5
31b
100
AcDbEntity
  8
Calque_1
 62
6
100
AcDbLine
 10
52.603261
 20
29.335617
 30
0.0
 11
53.734975
 21
29.335617
 31
0.0
  0
LINE
  5
31c
100
AcDbEntity
  8
Calque_1
 62
6
100
AcDbLine
 10
53.734975
 20
29.335617
 30
0.0
 11
53.734975
 21
28.848136
 31
0.0
  0
LINE
  5
31d
100
AcDbEntity
  8
Calque_1
 62
6
100
AcDbLine
 10
53.734975
 20
28.848136
 30
0.0
 11
51.866011
 21
28.848136
 31
0.0
  0
LINE
  5
31e
100
AcDbEntity
  8
Calque_1
 62
6
100
AcDbLine
 10
51.866011
 20
28.848136
 30
0.0
 11
51.866011
 21
29.335617
 31
0.0
  0
LINE
  5
31f
100
AcDbEntity
  8
Calque_1
 62
6
100
AcDbLine
 10
51.866011
 20
29.335617
 30
0.0
 11
52.804799
 21
30.164162
 31
0.0
  0
SPLINE
  5
320
100
AcDbEntity
  8
Calque_1
 62
6
100
AcDbSpline
 70
8
 71
3
 72
8
 73
4
 74
0
 40
0
 40
0
 40
0
 40
0
 40
1
 40
1
 40
1
 40
1
 10
52.804799
 20
30.164162
 30
0.0
 10
52.888630
 20
30.239954
 30
0.0
 10
52.950641
 20
30.314024
 30
0.0
 10
52.990834
 20
30.386371
 30
0.0
  0
SPLINE
  5
321
100
AcDbEntity
  8
Calque_1
 62
6
100
AcDbSpline
 70
8
 71
3
 72
8
 73
4
 74
0
 40
0
 40
0
 40
0
 40
0
 40
1
 40
1
 40
1
 40
1
 10
52.990834
 20
30.386371
 30
0.0
 10
53.031027
 20
30.458718
 30
0.0
 10
53.051124
 20
30.533936
 30
0.0
 10
53.051124
 20
30.612025
 30
0.0
  0
SPLINE
  5
322
100
AcDbEntity
  8
Calque_1
 62
6
100
AcDbSpline
 70
8
 71
3
 72
8
 73
4
 74
0
 40
0
 40
0
 40
0
 40
0
 40
1
 40
1
 40
1
 40
1
 10
53.051124
 20
30.612025
 30
0.0
 10
53.051124
 20
30.732603
 30
0.0
 10
53.010357
 20
30.829640
 30
0.0
 10
52.928823
 20
30.903135
 30
0.0
  0
SPLINE
  5
323
100
AcDbEntity
  8
Calque_1
 62
6
100
AcDbSpline
 70
8
 71
3
 72
8
 73
4
 74
0
 40
0
 40
0
 40
0
 40
0
 40
1
 40
1
 40
1
 40
1
 10
52.928823
 20
30.903135
 30
0.0
 10
52.848437
 20
30.976630
 30
0.0
 10
52.741065
 20
31.013378
 30
0.0
 10
52.606706
 20
31.013378
 30
0.0
  0
SPLINE
  5
324
100
AcDbEntity
  8
Calque_1
 62
6
100
AcDbSpline
 70
8
 71
3
 72
8
 73
4
 74
0
 40
0
 40
0
 40
0
 40
0
 40
1
 40
1
 40
1
 40
1
 10
52.606706
 20
31.013378
 30
0.0
 10
52.503353
 20
31.013378
 30
0.0
 10
52.390239
 20
30.990985
 30
0.0
 10
52.267364
 20
30.946198
 30
0.0
  0
SPLINE
  5
325
100
AcDbEntity
  8
Calque_1
 62
6
100
AcDbSpline
 70
8
 71
3
 72
8
 73
4
 74
0
 40
0
 40
0
 40
0
 40
0
 40
1
 40
1
 40
1
 40
1
 10
52.267364
 20
30.946198
 30
0.0
 10
52.144489
 20
30.902558
 30
0.0
 10
52.013002
 20
30.837101
 30
0.0
 10
51.872901
 20
30.749828
 30
0.0
  0
LINE
  5
326
100
AcDbEntity
  8
Calque_1
 62
6
100
AcDbLine
 10
51.872901
 20
30.749828
 30
0.0
 11
51.872901
 21
31.314823
 31
0.0
  0
SPLINE
  5
327
100
AcDbEntity
  8
Calque_1
 62
6
100
AcDbSpline
 70
8
 71
3
 72
8
 73
4
 74
0
 40
0
 40
0
 40
0
 40
0
 40
1
 40
1
 40
1
 40
1
 10
51.872901
 20
31.314823
 30
0.0
 10
52.022188
 20
31.364203
 30
0.0
 10
52.169753
 20
31.401525
 30
0.0
 10
52.315596
 20
31.426789
 30
0.0
  0
SPLINE
  5
328
100
AcDbEntity
  8
Calque_1
 62
6
100
AcDbSpline
 70
8
 71
3
 72
8
 73
4
 74
0
 40
0
 40
0
 40
0
 40
0
 40
1
 40
1
 40
1
 40
1
 10
52.315596
 20
31.426789
 30
0.0
 10
52.461438
 20
31.453202
 30
0.0
 10
52.604409
 20
31.466409
 30
0.0
 10
52.744510
 20
31.466409
 30
0.0
  0
SPLINE
  5
329
100
AcDbEntity
  8
Calque_1
 62
6
100
AcDbSpline
 70
8
 71
3
 72
8
 73
4
 74
0
 40
0
 40
0
 40
0
 40
0
 40
1
 40
1
 40
1
 40
1
 10
52.744510
 20
31.466409
 30
0.0
 10
53.052272
 20
31.466409
 30
0.0
 10
53.291132
 20
31.398656
 30
0.0
 10
53.461090
 20
31.263149
 30
0.0
  0
SPLINE
  5
32a
100
AcDbEntity
  8
Calque_1
 62
6
100
AcDbSpline
 70
8
 71
3
 72
8
 73
4
 74
0
 40
0
 40
0
 40
0
 40
0
 40
1
 40
1
 40
1
 40
1
 10
53.461090
 20
31.263149
 30
0.0
 10
53.632197
 20
31.127642
 30
0.0
 10
53.717750
 20
30.938736
 30
0.0
 10
53.717750
 20
30.696431
 30
0.0
  0
SPLINE
  5
32b
100
AcDbEntity
  8
Calque_1
 62
6
100
AcDbSpline
 70
8
 71
3
 72
8
 73
4
 74
0
 40
0
 40
0
 40
0
 40
0
 40
1
 40
1
 40
1
 40
1
 10
53.717750
 20
30.696431
 30
0.0
 10
53.717750
 20
30.556330
 30
0.0
 10
53.681576
 20
30.425417
 30
0.0
 10
53.609229
 20
30.303690
 30
0.0
  0
SPLINE
  5
32c
100
AcDbEntity
  8
Calque_1
 62
6
100
AcDbSpline
 70
8
 71
3
 72
8
 73
4
 74
0
 40
0
 40
0
 40
0
 40
0
 40
1
 40
1
 40
1
 40
1
 10
53.609229
 20
30.303690
 30
0.0
 10
53.536882
 20
30.183111
 30
0.0
 10
53.384724
 20
30.021192
 30
0.0
 10
53.152754
 20
29.817931
 30
0.0
  0
LINE
  5
32d
100
AcDbEntity
  8
Calque_1
 62
6
100
AcDbLine
 10
53.152754
 20
29.817931
 30
0.0
 11
52.603261
 21
29.335617
 31
0.0
  0
LINE
  5
32e
100
AcDbEntity
  8
Calque_1
 62
6
100
AcDbLine
 10
55.338667
 20
30.873852
 30
0.0
 11
54.611752
 21
29.797260
 31
0.0
  0
LINE
  5
32f
100
AcDbEntity
  8
Calque_1
 62
6
100
AcDbLine
 10
54.611752
 20
29.797260
 30
0.0
 11
55.338667
 21
29.797260
 31
0.0
  0
LINE
  5
330
100
AcDbEntity
  8
Calque_1
 62
6
100
AcDbLine
 10
55.338667
 20
29.797260
 30
0.0
 11
55.338667
 21
30.873852
 31
0.0
  0
LINE
  5
331
100
AcDbEntity
  8
Calque_1
 62
6
100
AcDbLine
 10
55.228424
 20
31.419900
 30
0.0
 11
55.965674
 21
31.419900
 31
0.0
  0
LINE
  5
332
100
AcDbEntity
  8
Calque_1
 62
6
100
AcDbLine
 10
55.965674
 20
31.419900
 30
0.0
 11
55.965674
 21
29.797260
 31
0.0
  0
LINE
  5
333
100
AcDbEntity
  8
Calque_1
 62
6
100
AcDbLine
 10
55.965674
 20
29.797260
 30
0.0
 11
56.332577
 21
29.797260
 31
0.0
  0
LINE
  5
334
100
AcDbEntity
  8
Calque_1
 62
6
100
AcDbLine
 10
56.332577
 20
29.797260
 30
0.0
 11
56.332577
 21
29.316669
 31
0.0
  0
LINE
  5
335
100
AcDbEntity
  8
Calque_1
 62
6
100
AcDbLine
 10
56.332577
 20
29.316669
 30
0.0
 11
55.965674
 21
29.316669
 31
0.0
  0
LINE
  5
336
100
AcDbEntity
  8
Calque_1
 62
6
100
AcDbLine
 10
55.965674
 20
29.316669
 30
0.0
 11
55.965674
 21
28.848136
 31
0.0
  0
LINE
  5
337
100
AcDbEntity
  8
Calque_1
 62
6
100
AcDbLine
 10
55.965674
 20
28.848136
 30
0.0
 11
55.338667
 21
28.848136
 31
0.0
  0
LINE
  5
338
100
AcDbEntity
  8
Calque_1
 62
6
100
AcDbLine
 10
55.338667
 20
28.848136
 30
0.0
 11
55.338667
 21
29.316669
 31
0.0
  0
LINE
  5
339
100
AcDbEntity
  8
Calque_1
 62
6
100
AcDbLine
 10
55.338667
 20
29.316669
 30
0.0
 11
54.198340
 21
29.316669
 31
0.0
  0
LINE
  5
33a
100
AcDbEntity
  8
Calque_1
 62
6
100
AcDbLine
 10
54.198340
 20
29.316669
 30
0.0
 11
54.198340
 21
29.885110
 31
0.0
  0
LINE
  5
33b
100
AcDbEntity
  8
Calque_1
 62
6
100
AcDbLine
 10
54.198340
 20
29.885110
 30
0.0
 11
55.228424
 21
31.419900
 31
0.0
  0
SPLINE
  5
33c
100
AcDbEntity
  8
Calque_1
 62
6
100
AcDbSpline
 70
8
 71
3
 72
8
 73
4
 74
0
 40
0
 40
0
 40
0
 40
0
 40
1
 40
1
 40
1
 40
1
 10
58.115414
 20
30.136602
 30
0.0
 10
58.115414
 20
30.458144
 30
0.0
 10
58.084981
 20
30.684372
 30
0.0
 10
58.024114
 20
30.815285
 30
0.0
  0
SPLINE
  5
33d
100
AcDbEntity
  8
Calque_1
 62
6
100
AcDbSpline
 70
8
 71
3
 72
8
 73
4
 74
0
 40
0
 40
0
 40
0
 40
0
 40
1
 40
1
 40
1
 40
1
 10
58.024114
 20
30.815285
 30
0.0
 10
57.964401
 20
30.947347
 30
0.0
 10
57.863344
 20
31.013378
 30
0.0
 10
57.720945
 20
31.013378
 30
0.0
  0
SPLINE
  5
33e
100
AcDbEntity
  8
Calque_1
 62
6
100
AcDbSpline
 70
8
 71
3
 72
8
 73
4
 74
0
 40
0
 40
0
 40
0
 40
0
 40
1
 40
1
 40
1
 40
1
 10
57.720945
 20
31.013378
 30
0.0
 10
57.578548
 20
31.013378
 30
0.0
 10
57.476917
 20
30.947347
 30
0.0
 10
57.416054
 20
30.815285
 30
0.0
  0
SPLINE
  5
33f
100
AcDbEntity
  8
Calque_1
 62
6
100
AcDbSpline
 70
8
 71
3
 72
8
 73
4
 74
0
 40
0
 40
0
 40
0
 40
0
 40
1
 40
1
 40
1
 40
1
 10
57.416054
 20
30.815285
 30
0.0
 10
57.355194
 20
30.684372
 30
0.0
 10
57.324764
 20
30.458144
 30
0.0
 10
57.324764
 20
30.136602
 30
0.0
  0
SPLINE
  5
340
100
AcDbEntity
  8
Calque_1
 62
6
100
AcDbSpline
 70
8
 71
3
 72
8
 73
4
 74
0
 40
0
 40
0
 40
0
 40
0
 40
1
 40
1
 40
1
 40
1
 10
57.324764
 20
30.136602
 30
0.0
 10
57.324764
 20
29.811615
 30
0.0
 10
57.355194
 20
29.582516
 30
0.0
 10
57.416054
 20
29.449305
 30
0.0
  0
SPLINE
  5
341
100
AcDbEntity
  8
Calque_1
 62
6
100
AcDbSpline
 70
8
 71
3
 72
8
 73
4
 74
0
 40
0
 40
0
 40
0
 40
0
 40
1
 40
1
 40
1
 40
1
 10
57.416054
 20
29.449305
 30
0.0
 10
57.476921
 20
29.316094
 30
0.0
 10
57.578551
 20
29.249489
 30
0.0
 10
57.720945
 20
29.249489
 30
0.0
  0
SPLINE
  5
342
100
AcDbEntity
  8
Calque_1
 62
6
100
AcDbSpline
 70
8
 71
3
 72
8
 73
4
 74
0
 40
0
 40
0
 40
0
 40
0
 40
1
 40
1
 40
1
 40
1
 10
57.720945
 20
29.249489
 30
0.0
 10
57.862194
 20
29.249489
 30
0.0
 10
57.963251
 20
29.316094
 30
0.0
 10
58.024114
 20
29.449305
 30
0.0
  0
SPLINE
  5
343
100
AcDbEntity
  8
Calque_1
 62
6
100
AcDbSpline
 70
8
 71
3
 72
8
 73
4
 74
0
 40
0
 40
0
 40
0
 40
0
 40
1
 40
1
 40
1
 40
1
 10
58.024114
 20
29.449305
 30
0.0
 10
58.084981
 20
29.582516
 30
0.0
 10
58.115414
 20
29.811615
 30
0.0
 10
58.115414
 20
30.136602
 30
0.0
  0
LINE
  5
344
100
AcDbEntity
  8
Calque_1
 62
6
100
AcDbLine
 10
58.115414
 20
30.136602
 30
0.0
 11
58.115414
 21
30.136602
 31
0.0
  0
SPLINE
  5
345
100
AcDbEntity
  8
Calque_1
 62
6
100
AcDbSpline
 70
8
 71
3
 72
8
 73
4
 74
0
 40
0
 40
0
 40
0
 40
0
 40
1
 40
1
 40
1
 40
1
 10
58.778594
 20
30.131402
 30
0.0
 10
58.778594
 20
29.705359
 30
0.0
 10
58.686725
 20
29.376352
 30
0.0
 10
58.502987
 20
29.144382
 30
0.0
  0
SPLINE
  5
346
100
AcDbEntity
  8
Calque_1
 62
6
100
AcDbSpline
 70
8
 71
3
 72
8
 73
4
 74
0
 40
0
 40
0
 40
0
 40
0
 40
1
 40
1
 40
1
 40
1
 10
58.502987
 20
29.144382
 30
0.0
 10
58.319248
 20
28.913561
 30
0.0
 10
58.058569
 20
28.798150
 30
0.0
 10
57.720950
 20
28.798150
 30
0.0
  0
SPLINE
  5
347
100
AcDbEntity
  8
Calque_1
 62
6
100
AcDbSpline
 70
8
 71
3
 72
8
 73
4
 74
0
 40
0
 40
0
 40
0
 40
0
 40
1
 40
1
 40
1
 40
1
 10
57.720950
 20
28.798150
 30
0.0
 10
57.382183
 20
28.798150
 30
0.0
 10
57.120930
 20
28.913561
 30
0.0
 10
56.937191
 20
29.144382
 30
0.0
  0
SPLINE
  5
348
100
AcDbEntity
  8
Calque_1
 62
6
100
AcDbSpline
 70
8
 71
3
 72
8
 73
4
 74
0
 40
0
 40
0
 40
0
 40
0
 40
1
 40
1
 40
1
 40
1
 10
56.937191
 20
29.144382
 30
0.0
 10
56.753452
 20
29.376352
 30
0.0
 10
56.661583
 20
29.705359
 30
0.0
 10
56.661583
 20
30.131402
 30
0.0
  0
SPLINE
  5
349
100
AcDbEntity
  8
Calque_1
 62
6
100
AcDbSpline
 70
8
 71
3
 72
8
 73
4
 74
0
 40
0
 40
0
 40
0
 40
0
 40
1
 40
1
 40
1
 40
1
 10
56.661583
 20
30.131402
 30
0.0
 10
56.661583
 20
30.558594
 30
0.0
 10
56.753452
 20
30.887601
 30
0.0
 10
56.937191
 20
31.118422
 30
0.0
  0
SPLINE
  5
34a
100
AcDbEntity
  8
Calque_1
 62
6
100
AcDbSpline
 70
8
 71
3
 72
8
 73
4
 74
0
 40
0
 40
0
 40
0
 40
0
 40
1
 40
1
 40
1
 40
1
 10
56.937191
 20
31.118422
 30
0.0
 10
57.120930
 20
31.350391
 30
0.0
 10
57.382183
 20
31.466376
 30
0.0
 10
57.720950
 20
31.466376
 30
0.0
  0
SPLINE
  5
34b
100
AcDbEntity
  8
Calque_1
 62
6
100
AcDbSpline
 70
8
 71
3
 72
8
 73
4
 74
0
 40
0
 40
0
 40
0
 40
0
 40
1
 40
1
 40
1
 40
1
 10
57.720950
 20
31.466376
 30
0.0
 10
58.058569
 20
31.466376
 30
0.0
 10
58.319248
 20
31.350391
 30
0.0
 10
58.502987
 20
31.118422
 30
0.0
  0
SPLINE
  5
34c
100
AcDbEntity
  8
Calque_1
 62
6
100
AcDbSpline
 70
8
 71
3
 72
8
 73
4
 74
0
 40
0
 40
0
 40
0
 40
0
 40
1
 40
1
 40
1
 40
1
 10
58.502987
 20
31.118422
 30
0.0
 10
58.686725
 20
30.887601
 30
0.0
 10
58.778594
 20
30.558594
 30
0.0
 10
58.778594
 20
30.131402
 30
0.0
  0
LINE
  5
34d
100
AcDbEntity
  8
Calque_1
 62
6
100
AcDbLine
 10
58.778594
 20
30.131402
 30
0.0
 11
58.778594
 21
30.131402
 31
0.0
  0
LINE
  5
34e
100
AcDbEntity
  8
Calque_1
 62
6
100
AcDbLine
 10
49.402456
 20
17.070656
 30
0.0
 11
50.534169
 21
17.070656
 31
0.0
  0
LINE
  5
34f
100
AcDbEntity
  8
Calque_1
 62
6
100
AcDbLine
 10
50.534169
 20
17.070656
 30
0.0
 11
50.534169
 21
16.583175
 31
0.0
  0
LINE
  5
350
100
AcDbEntity
  8
Calque_1
 62
6
100
AcDbLine
 10
50.534169
 20
16.583175
 30
0.0
 11
48.665205
 21
16.583175
 31
0.0
  0
LINE
  5
351
100
AcDbEntity
  8
Calque_1
 62
6
100
AcDbLine
 10
48.665205
 20
16.583175
 30
0.0
 11
48.665205
 21
17.070656
 31
0.0
  0
LINE
  5
352
100
AcDbEntity
  8
Calque_1
 62
6
100
AcDbLine
 10
48.665205
 20
17.070656
 30
0.0
 11
49.603994
 21
17.899201
 31
0.0
  0
SPLINE
  5
353
100
AcDbEntity
  8
Calque_1
 62
6
100
AcDbSpline
 70
8
 71
3
 72
8
 73
4
 74
0
 40
0
 40
0
 40
0
 40
0
 40
1
 40
1
 40
1
 40
1
 10
49.603994
 20
17.899201
 30
0.0
 10
49.687825
 20
17.974993
 30
0.0
 10
49.749836
 20
18.049063
 30
0.0
 10
49.790029
 20
18.121410
 30
0.0
  0
SPLINE
  5
354
100
AcDbEntity
  8
Calque_1
 62
6
100
AcDbSpline
 70
8
 71
3
 72
8
 73
4
 74
0
 40
0
 40
0
 40
0
 40
0
 40
1
 40
1
 40
1
 40
1
 10
49.790029
 20
18.121410
 30
0.0
 10
49.830222
 20
18.193757
 30
0.0
 10
49.850319
 20
18.268974
 30
0.0
 10
49.850319
 20
18.347063
 30
0.0
  0
SPLINE
  5
355
100
AcDbEntity
  8
Calque_1
 62
6
100
AcDbSpline
 70
8
 71
3
 72
8
 73
4
 74
0
 40
0
 40
0
 40
0
 40
0
 40
1
 40
1
 40
1
 40
1
 10
49.850319
 20
18.347063
 30
0.0
 10
49.850319
 20
18.467642
 30
0.0
 10
49.809552
 20
18.564679
 30
0.0
 10
49.728018
 20
18.638174
 30
0.0
  0
SPLINE
  5
356
100
AcDbEntity
  8
Calque_1
 62
6
100
AcDbSpline
 70
8
 71
3
 72
8
 73
4
 74
0
 40
0
 40
0
 40
0
 40
0
 40
1
 40
1
 40
1
 40
1
 10
49.728018
 20
18.638174
 30
0.0
 10
49.647633
 20
18.711669
 30
0.0
 10
49.540261
 20
18.748417
 30
0.0
 10
49.405902
 20
18.748417
 30
0.0
  0
SPLINE
  5
357
100
AcDbEntity
  8
Calque_1
 62
6
100
AcDbSpline
 70
8
 71
3
 72
8
 73
4
 74
0
 40
0
 40
0
 40
0
 40
0
 40
1
 40
1
 40
1
 40
1
 10
49.405902
 20
18.748417
 30
0.0
 10
49.302549
 20
18.748417
 30
0.0
 10
49.189435
 20
18.726024
 30
0.0
 10
49.066560
 20
18.681237
 30
0.0
  0
SPLINE
  5
358
100
AcDbEntity
  8
Calque_1
 62
6
100
AcDbSpline
 70
8
 71
3
 72
8
 73
4
 74
0
 40
0
 40
0
 40
0
 40
0
 40
1
 40
1
 40
1
 40
1
 10
49.066560
 20
18.681237
 30
0.0
 10
48.943685
 20
18.637597
 30
0.0
 10
48.812197
 20
18.572140
 30
0.0
 10
48.672096
 20
18.484866
 30
0.0
  0
LINE
  5
359
100
AcDbEntity
  8
Calque_1
 62
6
100
AcDbLine
 10
48.672096
 20
18.484866
 30
0.0
 11
48.672096
 21
19.049862
 31
0.0
  0
SPLINE
  5
35a
100
AcDbEntity
  8
Calque_1
 62
6
100
AcDbSpline
 70
8
 71
3
 72
8
 73
4
 74
0
 40
0
 40
0
 40
0
 40
0
 40
1
 40
1
 40
1
 40
1
 10
48.672096
 20
19.049862
 30
0.0
 10
48.821384
 20
19.099242
 30
0.0
 10
48.968949
 20
19.136564
 30
0.0
 10
49.114791
 20
19.161828
 30
0.0
  0
SPLINE
  5
35b
100
AcDbEntity
  8
Calque_1
 62
6
100
AcDbSpline
 70
8
 71
3
 72
8
 73
4
 74
0
 40
0
 40
0
 40
0
 40
0
 40
1
 40
1
 40
1
 40
1
 10
49.114791
 20
19.161828
 30
0.0
 10
49.260634
 20
19.188241
 30
0.0
 10
49.403605
 20
19.201448
 30
0.0
 10
49.543705
 20
19.201448
 30
0.0
  0
SPLINE
  5
35c
100
AcDbEntity
  8
Calque_1
 62
6
100
AcDbSpline
 70
8
 71
3
 72
8
 73
4
 74
0
 40
0
 40
0
 40
0
 40
0
 40
1
 40
1
 40
1
 40
1
 10
49.543705
 20
19.201448
 30
0.0
 10
49.851467
 20
19.201448
 30
0.0
 10
50.090327
 20
19.133695
 30
0.0
 10
50.260285
 20
18.998188
 30
0.0
  0
SPLINE
  5
35d
100
AcDbEntity
  8
Calque_1
 62
6
100
AcDbSpline
 70
8
 71
3
 72
8
 73
4
 74
0
 40
0
 40
0
 40
0
 40
0
 40
1
 40
1
 40
1
 40
1
 10
50.260285
 20
18.998188
 30
0.0
 10
50.431392
 20
18.862681
 30
0.0
 10
50.516945
 20
18.673774
 30
0.0
 10
50.516945
 20
18.431469
 30
0.0
  0
SPLINE
  5
35e
100
AcDbEntity
  8
Calque_1
 62
6
100
AcDbSpline
 70
8
 71
3
 72
8
 73
4
 74
0
 40
0
 40
0
 40
0
 40
0
 40
1
 40
1
 40
1
 40
1
 10
50.516945
 20
18.431469
 30
0.0
 10
50.516945
 20
18.291368
 30
0.0
 10
50.480771
 20
18.160455
 30
0.0
 10
50.408424
 20
18.038728
 30
0.0
  0
SPLINE
  5
35f
100
AcDbEntity
  8
Calque_1
 62
6
100
AcDbSpline
 70
8
 71
3
 72
8
 73
4
 74
0
 40
0
 40
0
 40
0
 40
0
 40
1
 40
1
 40
1
 40
1
 10
50.408424
 20
18.038728
 30
0.0
 10
50.336077
 20
17.918150
 30
0.0
 10
50.183919
 20
17.756231
 30
0.0
 10
49.951949
 20
17.552970
 30
0.0
  0
LINE
  5
360
100
AcDbEntity
  8
Calque_1
 62
6
100
AcDbLine
 10
49.951949
 20
17.552970
 30
0.0
 11
49.402456
 21
17.070656
 31
0.0
  0
LINE
  5
361
100
AcDbEntity
  8
Calque_1
 62
6
100
AcDbLine
 10
51.075049
 20
19.154938
 30
0.0
 11
53.012915
 21
19.154938
 31
0.0
  0
LINE
  5
362
100
AcDbEntity
  8
Calque_1
 62
6
100
AcDbLine
 10
53.012915
 20
19.154938
 30
0.0
 11
53.012915
 21
18.781145
 31
0.0
  0
LINE
  5
363
100
AcDbEntity
  8
Calque_1
 62
6
100
AcDbLine
 10
53.012915
 20
18.781145
 30
0.0
 11
52.010393
 21
16.583175
 31
0.0
  0
LINE
  5
364
100
AcDbEntity
  8
Calque_1
 62
6
100
AcDbLine
 10
52.010393
 20
16.583175
 30
0.0
 11
51.364437
 21
16.583175
 31
0.0
  0
LINE
  5
365
100
AcDbEntity
  8
Calque_1
 62
6
100
AcDbLine
 10
51.364437
 20
16.583175
 30
0.0
 11
52.313561
 21
18.667457
 31
0.0
  0
LINE
  5
366
100
AcDbEntity
  8
Calque_1
 62
6
100
AcDbLine
 10
52.313561
 20
18.667457
 30
0.0
 11
51.075049
 21
18.667457
 31
0.0
  0
LINE
  5
367
100
AcDbEntity
  8
Calque_1
 62
6
100
AcDbLine
 10
51.075049
 20
18.667457
 30
0.0
 11
51.075049
 21
19.154938
 31
0.0
  0
SPLINE
  5
368
100
AcDbEntity
  8
Calque_1
 62
6
100
AcDbSpline
 70
8
 71
3
 72
8
 73
4
 74
0
 40
0
 40
0
 40
0
 40
0
 40
1
 40
1
 40
1
 40
1
 10
54.914608
 20
17.871640
 30
0.0
 10
54.914608
 20
18.193183
 30
0.0
 10
54.884175
 20
18.419411
 30
0.0
 10
54.823308
 20
18.550324
 30
0.0
  0
SPLINE
  5
369
100
AcDbEntity
  8
Calque_1
 62
6
100
AcDbSpline
 70
8
 71
3
 72
8
 73
4
 74
0
 40
0
 40
0
 40
0
 40
0
 40
1
 40
1
 40
1
 40
1
 10
54.823308
 20
18.550324
 30
0.0
 10
54.763595
 20
18.682386
 30
0.0
 10
54.662539
 20
18.748417
 30
0.0
 10
54.520140
 20
18.748417
 30
0.0
  0
SPLINE
  5
36a
100
AcDbEntity
  8
Calque_1
 62
6
100
AcDbSpline
 70
8
 71
3
 72
8
 73
4
 74
0
 40
0
 40
0
 40
0
 40
0
 40
1
 40
1
 40
1
 40
1
 10
54.520140
 20
18.748417
 30
0.0
 10
54.377743
 20
18.748417
 30
0.0
 10
54.276112
 20
18.682386
 30
0.0
 10
54.215249
 20
18.550324
 30
0.0
  0
SPLINE
  5
36b
100
AcDbEntity
  8
Calque_1
 62
6
100
AcDbSpline
 70
8
 71
3
 72
8
 73
4
 74
0
 40
0
 40
0
 40
0
 40
0
 40
1
 40
1
 40
1
 40
1
 10
54.215249
 20
18.550324
 30
0.0
 10
54.154382
 20
18.419411
 30
0.0
 10
54.123949
 20
18.193183
 30
0.0
 10
54.123949
 20
17.871640
 30
0.0
  0
SPLINE
  5
36c
100
AcDbEntity
  8
Calque_1
 62
6
100
AcDbSpline
 70
8
 71
3
 72
8
 73
4
 74
0
 40
0
 40
0
 40
0
 40
0
 40
1
 40
1
 40
1
 40
1
 10
54.123949
 20
17.871640
 30
0.0
 10
54.123949
 20
17.546653
 30
0.0
 10
54.154382
 20
17.317554
 30
0.0
 10
54.215249
 20
17.184344
 30
0.0
  0
SPLINE
  5
36d
100
AcDbEntity
  8
Calque_1
 62
6
100
AcDbSpline
 70
8
 71
3
 72
8
 73
4
 74
0
 40
0
 40
0
 40
0
 40
0
 40
1
 40
1
 40
1
 40
1
 10
54.215249
 20
17.184344
 30
0.0
 10
54.276109
 20
17.051133
 30
0.0
 10
54.377739
 20
16.984528
 30
0.0
 10
54.520140
 20
16.984528
 30
0.0
  0
SPLINE
  5
36e
100
AcDbEntity
  8
Calque_1
 62
6
100
AcDbSpline
 70
8
 71
3
 72
8
 73
4
 74
0
 40
0
 40
0
 40
0
 40
0
 40
1
 40
1
 40
1
 40
1
 10
54.520140
 20
16.984528
 30
0.0
 10
54.661389
 20
16.984528
 30
0.0
 10
54.762445
 20
17.051133
 30
0.0
 10
54.823308
 20
17.184344
 30
0.0
  0
SPLINE
  5
36f
100
AcDbEntity
  8
Calque_1
 62
6
100
AcDbSpline
 70
8
 71
3
 72
8
 73
4
 74
0
 40
0
 40
0
 40
0
 40
0
 40
1
 40
1
 40
1
 40
1
 10
54.823308
 20
17.184344
 30
0.0
 10
54.884175
 20
17.317554
 30
0.0
 10
54.914608
 20
17.546653
 30
0.0
 10
54.914608
 20
17.871640
 30
0.0
  0
LINE
  5
370
100
AcDbEntity
  8
Calque_1
 62
6
100
AcDbLine
 10
54.914608
 20
17.871640
 30
0.0
 11
54.914608
 21
17.871640
 31
0.0
  0
SPLINE
  5
371
100
AcDbEntity
  8
Calque_1
 62
6
100
AcDbSpline
 70
8
 71
3
 72
8
 73
4
 74
0
 40
0
 40
0
 40
0
 40
0
 40
1
 40
1
 40
1
 40
1
 10
55.577789
 20
17.866440
 30
0.0
 10
55.577789
 20
17.440396
 30
0.0
 10
55.485920
 20
17.111389
 30
0.0
 10
55.302181
 20
16.879420
 30
0.0
  0
SPLINE
  5
372
100
AcDbEntity
  8
Calque_1
 62
6
100
AcDbSpline
 70
8
 71
3
 72
8
 73
4
 74
0
 40
0
 40
0
 40
0
 40
0
 40
1
 40
1
 40
1
 40
1
 10
55.302181
 20
16.879420
 30
0.0
 10
55.118443
 20
16.648599
 30
0.0
 10
54.857764
 20
16.533188
 30
0.0
 10
54.520145
 20
16.533188
 30
0.0
  0
SPLINE
  5
373
100
AcDbEntity
  8
Calque_1
 62
6
100
AcDbSpline
 70
8
 71
3
 72
8
 73
4
 74
0
 40
0
 40
0
 40
0
 40
0
 40
1
 40
1
 40
1
 40
1
 10
54.520145
 20
16.533188
 30
0.0
 10
54.181377
 20
16.533188
 30
0.0
 10
53.920124
 20
16.648599
 30
0.0
 10
53.736385
 20
16.879420
 30
0.0
  0
SPLINE
  5
374
100
AcDbEntity
  8
Calque_1
 62
6
100
AcDbSpline
 70
8
 71
3
 72
8
 73
4
 74
0
 40
0
 40
0
 40
0
 40
0
 40
1
 40
1
 40
1
 40
1
 10
53.736385
 20
16.879420
 30
0.0
 10
53.552647
 20
17.111389
 30
0.0
 10
53.460778
 20
17.440396
 30
0.0
 10
53.460778
 20
17.866440
 30
0.0
  0
SPLINE
  5
375
100
AcDbEntity
  8
Calque_1
 62
6
100
AcDbSpline
 70
8
 71
3
 72
8
 73
4
 74
0
 40
0
 40
0
 40
0
 40
0
 40
1
 40
1
 40
1
 40
1
 10
53.460778
 20
17.866440
 30
0.0
 10
53.460778
 20
18.293631
 30
0.0
 10
53.552647
 20
18.622638
 30
0.0
 10
53.736385
 20
18.853459
 30
0.0
  0
SPLINE
  5
376
100
AcDbEntity
  8
Calque_1
 62
6
100
AcDbSpline
 70
8
 71
3
 72
8
 73
4
 74
0
 40
0
 40
0
 40
0
 40
0
 40
1
 40
1
 40
1
 40
1
 10
53.736385
 20
18.853459
 30
0.0
 10
53.920124
 20
19.085429
 30
0.0
 10
54.181377
 20
19.201414
 30
0.0
 10
54.520145
 20
19.201414
 30
0.0
  0
SPLINE
  5
377
100
AcDbEntity
  8
Calque_1
 62
6
100
AcDbSpline
 70
8
 71
3
 72
8
 73
4
 74
0
 40
0
 40
0
 40
0
 40
0
 40
1
 40
1
 40
1
 40
1
 10
54.520145
 20
19.201414
 30
0.0
 10
54.857764
 20
19.201414
 30
0.0
 10
55.118443
 20
19.085429
 30
0.0
 10
55.302181
 20
18.853459
 30
0.0
  0
SPLINE
  5
378
100
AcDbEntity
  8
Calque_1
 62
6
100
AcDbSpline
 70
8
 71
3
 72
8
 73
4
 74
0
 40
0
 40
0
 40
0
 40
0
 40
1
 40
1
 40
1
 40
1
 10
55.302181
 20
18.853459
 30
0.0
 10
55.485920
 20
18.622638
 30
0.0
 10
55.577789
 20
18.293631
 30
0.0
 10
55.577789
 20
17.866440
 30
0.0
  0
LINE
  5
379
100
AcDbEntity
  8
Calque_1
 62
6
100
AcDbLine
 10
55.577789
 20
17.866440
 30
0.0
 11
55.577789
 21
17.866440
 31
0.0
  0
SPLINE
  5
37a
100
AcDbEntity
  8
Calque_1
 62
6
100
AcDbSpline
 70
8
 71
3
 72
8
 73
4
 74
0
 40
0
 40
0
 40
0
 40
0
 40
1
 40
1
 40
1
 40
1
 10
42.470457
 20
10.367760
 30
0.0
 10
42.643860
 20
10.322960
 30
0.0
 10
42.775348
 20
10.244870
 30
0.0
 10
42.864921
 20
10.133490
 30
0.0
  0
SPLINE
  5
37b
100
AcDbEntity
  8
Calque_1
 62
6
100
AcDbSpline
 70
8
 71
3
 72
8
 73
4
 74
0
 40
0
 40
0
 40
0
 40
0
 40
1
 40
1
 40
1
 40
1
 10
42.864921
 20
10.133490
 30
0.0
 10
42.955642
 20
10.023250
 30
0.0
 10
43.001002
 20
9.882577
 30
0.0
 10
43.001002
 20
9.711470
 30
0.0
  0
SPLINE
  5
37c
100
AcDbEntity
  8
Calque_1
 62
6
100
AcDbSpline
 70
8
 71
3
 72
8
 73
4
 74
0
 40
0
 40
0
 40
0
 40
0
 40
1
 40
1
 40
1
 40
1
 10
43.001002
 20
9.711470
 30
0.0
 10
43.001002
 20
9.456530
 30
0.0
 10
42.903391
 20
9.262457
 30
0.0
 10
42.708169
 20
9.129250
 30
0.0
  0
SPLINE
  5
37d
100
AcDbEntity
  8
Calque_1
 62
6
100
AcDbSpline
 70
8
 71
3
 72
8
 73
4
 74
0
 40
0
 40
0
 40
0
 40
0
 40
1
 40
1
 40
1
 40
1
 10
42.708169
 20
9.129250
 30
0.0
 10
42.512947
 20
8.997183
 30
0.0
 10
42.228152
 20
8.931150
 30
0.0
 10
41.853785
 20
8.931150
 30
0.0
  0
SPLINE
  5
37e
100
AcDbEntity
  8
Calque_1
 62
6
100
AcDbSpline
 70
8
 71
3
 72
8
 73
4
 74
0
 40
0
 40
0
 40
0
 40
0
 40
1
 40
1
 40
1
 40
1
 10
41.853785
 20
8.931150
 30
0.0
 10
41.721723
 20
8.931150
 30
0.0
 10
41.589087
 20
8.942050
 30
0.0
 10
41.455877
 20
8.963850
 30
0.0
  0
SPLINE
  5
37f
100
AcDbEntity
  8
Calque_1
 62
6
100
AcDbSpline
 70
8
 71
3
 72
8
 73
4
 74
0
 40
0
 40
0
 40
0
 40
0
 40
1
 40
1
 40
1
 40
1
 10
41.455877
 20
8.963850
 30
0.0
 10
41.323815
 20
8.984517
 30
0.0
 10
41.192901
 20
9.016083
 30
0.0
 10
41.063136
 20
9.058550
 30
0.0
  0
LINE
  5
380
100
AcDbEntity
  8
Calque_1
 62
6
100
AcDbLine
 10
41.063136
 20
9.058550
 30
0.0
 11
41.063136
 21
9.570150
 31
0.0
  0
SPLINE
  5
381
100
AcDbEntity
  8
Calque_1
 62
6
100
AcDbSpline
 70
8
 71
3
 72
8
 73
4
 74
0
 40
0
 40
0
 40
0
 40
0
 40
1
 40
1
 40
1
 40
1
 10
41.063136
 20
9.570150
 30
0.0
 10
41.187159
 20
9.508150
 30
0.0
 10
41.310034
 20
9.461067
 30
0.0
 10
41.431761
 20
9.428900
 30
0.0
  0
SPLINE
  5
382
100
AcDbEntity
  8
Calque_1
 62
6
100
AcDbSpline
 70
8
 71
3
 72
8
 73
4
 74
0
 40
0
 40
0
 40
0
 40
0
 40
1
 40
1
 40
1
 40
1
 10
41.431761
 20
9.428900
 30
0.0
 10
41.554636
 20
9.397900
 30
0.0
 10
41.675215
 20
9.382400
 30
0.0
 10
41.793496
 20
9.382400
 30
0.0
  0
SPLINE
  5
383
100
AcDbEntity
  8
Calque_1
 62
6
100
AcDbSpline
 70
8
 71
3
 72
8
 73
4
 74
0
 40
0
 40
0
 40
0
 40
0
 40
1
 40
1
 40
1
 40
1
 10
41.793496
 20
9.382400
 30
0.0
 10
41.969196
 20
9.382400
 30
0.0
 10
42.103555
 20
9.412833
 30
0.0
 10
42.196572
 20
9.473700
 30
0.0
  0
SPLINE
  5
384
100
AcDbEntity
  8
Calque_1
 62
6
100
AcDbSpline
 70
8
 71
3
 72
8
 73
4
 74
0
 40
0
 40
0
 40
0
 40
0
 40
1
 40
1
 40
1
 40
1
 10
42.196572
 20
9.473700
 30
0.0
 10
42.290738
 20
9.534567
 30
0.0
 10
42.337821
 20
9.621840
 30
0.0
 10
42.337821
 20
9.735520
 30
0.0
  0
SPLINE
  5
385
100
AcDbEntity
  8
Calque_1
 62
6
100
AcDbSpline
 70
8
 71
3
 72
8
 73
4
 74
0
 40
0
 40
0
 40
0
 40
0
 40
1
 40
1
 40
1
 40
1
 10
42.337821
 20
9.735520
 30
0.0
 10
42.337821
 20
9.852653
 30
0.0
 10
42.289590
 20
9.941080
 30
0.0
 10
42.193127
 20
10.000800
 30
0.0
  0
SPLINE
  5
386
100
AcDbEntity
  8
Calque_1
 62
6
100
AcDbSpline
 70
8
 71
3
 72
8
 73
4
 74
0
 40
0
 40
0
 40
0
 40
0
 40
1
 40
1
 40
1
 40
1
 10
42.193127
 20
10.000800
 30
0.0
 10
42.097813
 20
10.061667
 30
0.0
 10
41.956564
 20
10.092100
 30
0.0
 10
41.769380
 20
10.092100
 30
0.0
  0
LINE
  5
387
100
AcDbEntity
  8
Calque_1
 62
6
100
AcDbLine
 10
41.769380
 20
10.092100
 30
0.0
 11
41.504108
 21
10.092100
 31
0.0
  0
LINE
  5
388
100
AcDbEntity
  8
Calque_1
 62
6
100
AcDbLine
 10
41.504108
 20
10.092100
 30
0.0
 11
41.504108
 21
10.519290
 31
0.0
  0
LINE
  5
389
100
AcDbEntity
  8
Calque_1
 62
6
100
AcDbLine
 10
41.504108
 20
10.519290
 30
0.0
 11
41.783161
 21
10.519290
 31
0.0
  0
SPLINE
  5
38a
100
AcDbEntity
  8
Calque_1
 62
6
100
AcDbSpline
 70
8
 71
3
 72
8
 73
4
 74
0
 40
0
 40
0
 40
0
 40
0
 40
1
 40
1
 40
1
 40
1
 10
41.783161
 20
10.519290
 30
0.0
 10
41.949674
 20
10.519290
 30
0.0
 10
42.073697
 20
10.545123
 30
0.0
 10
42.155231
 20
10.596790
 30
0.0
  0
SPLINE
  5
38b
100
AcDbEntity
  8
Calque_1
 62
6
100
AcDbSpline
 70
8
 71
3
 72
8
 73
4
 74
0
 40
0
 40
0
 40
0
 40
0
 40
1
 40
1
 40
1
 40
1
 10
42.155231
 20
10.596790
 30
0.0
 10
42.236765
 20
10.649590
 30
0.0
 10
42.277532
 20
10.729400
 30
0.0
 10
42.277532
 20
10.836220
 30
0.0
  0
SPLINE
  5
38c
100
AcDbEntity
  8
Calque_1
 62
6
100
AcDbSpline
 70
8
 71
3
 72
8
 73
4
 74
0
 40
0
 40
0
 40
0
 40
0
 40
1
 40
1
 40
1
 40
1
 10
42.277532
 20
10.836220
 30
0.0
 10
42.277532
 20
10.934980
 30
0.0
 10
42.237913
 20
11.011347
 30
0.0
 10
42.158676
 20
11.065320
 30
0.0
  0
SPLINE
  5
38d
100
AcDbEntity
  8
Calque_1
 62
6
100
AcDbSpline
 70
8
 71
3
 72
8
 73
4
 74
0
 40
0
 40
0
 40
0
 40
0
 40
1
 40
1
 40
1
 40
1
 10
42.158676
 20
11.065320
 30
0.0
 10
42.079439
 20
11.119320
 30
0.0
 10
41.967473
 20
11.146320
 30
0.0
 10
41.822779
 20
11.146320
 30
0.0
  0
SPLINE
  5
38e
100
AcDbEntity
  8
Calque_1
 62
6
100
AcDbSpline
 70
8
 71
3
 72
8
 73
4
 74
0
 40
0
 40
0
 40
0
 40
0
 40
1
 40
1
 40
1
 40
1
 10
41.822779
 20
11.146320
 30
0.0
 10
41.715981
 20
11.146320
 30
0.0
 10
41.608035
 20
11.134253
 30
0.0
 10
41.498940
 20
11.110120
 30
0.0
  0
SPLINE
  5
38f
100
AcDbEntity
  8
Calque_1
 62
6
100
AcDbSpline
 70
8
 71
3
 72
8
 73
4
 74
0
 40
0
 40
0
 40
0
 40
0
 40
1
 40
1
 40
1
 40
1
 10
41.498940
 20
11.110120
 30
0.0
 10
41.389845
 20
11.085987
 30
0.0
 10
41.281325
 20
11.050387
 30
0.0
 10
41.173379
 20
11.003320
 30
0.0
  0
LINE
  5
390
100
AcDbEntity
  8
Calque_1
 62
6
100
AcDbLine
 10
41.173379
 20
11.003320
 30
0.0
 11
41.173379
 21
11.489080
 31
0.0
  0
SPLINE
  5
391
100
AcDbEntity
  8
Calque_1
 62
6
100
AcDbSpline
 70
8
 71
3
 72
8
 73
4
 74
0
 40
0
 40
0
 40
0
 40
0
 40
1
 40
1
 40
1
 40
1
 10
41.173379
 20
11.489080
 30
0.0
 10
41.304292
 20
11.525813
 30
0.0
 10
41.434058
 20
11.553380
 30
0.0
 10
41.562675
 20
11.571780
 30
0.0
  0
SPLINE
  5
392
100
AcDbEntity
  8
Calque_1
 62
6
100
AcDbSpline
 70
8
 71
3
 72
8
 73
4
 74
0
 40
0
 40
0
 40
0
 40
0
 40
1
 40
1
 40
1
 40
1
 10
41.562675
 20
11.571780
 30
0.0
 10
41.691292
 20
11.590180
 30
0.0
 10
41.817612
 20
11.599380
 30
0.0
 10
41.941635
 20
11.599380
 30
0.0
  0
SPLINE
  5
393
100
AcDbEntity
  8
Calque_1
 62
6
100
AcDbSpline
 70
8
 71
3
 72
8
 73
4
 74
0
 40
0
 40
0
 40
0
 40
0
 40
1
 40
1
 40
1
 40
1
 10
41.941635
 20
11.599380
 30
0.0
 10
42.275809
 20
11.599380
 30
0.0
 10
42.525578
 20
11.544260
 30
0.0
 10
42.690943
 20
11.434020
 30
0.0
  0
SPLINE
  5
394
100
AcDbEntity
  8
Calque_1
 62
6
100
AcDbSpline
 70
8
 71
3
 72
8
 73
4
 74
0
 40
0
 40
0
 40
0
 40
0
 40
1
 40
1
 40
1
 40
1
 10
42.690943
 20
11.434020
 30
0.0
 10
42.857456
 20
11.324920
 30
0.0
 10
42.940713
 20
11.160130
 30
0.0
 10
42.940713
 20
10.939650
 30
0.0
  0
SPLINE
  5
395
100
AcDbEntity
  8
Calque_1
 62
6
100
AcDbSpline
 70
8
 71
3
 72
8
 73
4
 74
0
 40
0
 40
0
 40
0
 40
0
 40
1
 40
1
 40
1
 40
1
 10
42.940713
 20
10.939650
 30
0.0
 10
42.940713
 20
10.789210
 30
0.0
 10
42.901094
 20
10.665760
 30
0.0
 10
42.821857
 20
10.569300
 30
0.0
  0
SPLINE
  5
396
100
AcDbEntity
  8
Calque_1
 62
6
100
AcDbSpline
 70
8
 71
3
 72
8
 73
4
 74
0
 40
0
 40
0
 40
0
 40
0
 40
1
 40
1
 40
1
 40
1
 10
42.821857
 20
10.569300
 30
0.0
 10
42.742620
 20
10.473987
 30
0.0
 10
42.625486
 20
10.406807
 30
0.0
 10
42.470457
 20
10.367760
 30
0.0
  0
LINE
  5
397
100
AcDbEntity
  8
Calque_1
 62
6
100
AcDbLine
 10
42.470457
 20
10.367760
 30
0.0
 11
42.470457
 21
10.367760
 31
0.0
  0
SPLINE
  5
398
100
AcDbEntity
  8
Calque_1
 62
6
100
AcDbSpline
 70
8
 71
3
 72
8
 73
4
 74
0
 40
0
 40
0
 40
0
 40
0
 40
1
 40
1
 40
1
 40
1
 10
44.902694
 20
10.269570
 30
0.0
 10
44.902694
 20
10.591117
 30
0.0
 10
44.872261
 20
10.817347
 30
0.0
 10
44.811394
 20
10.948260
 30
0.0
  0
SPLINE
  5
399
100
AcDbEntity
  8
Calque_1
 62
6
100
AcDbSpline
 70
8
 71
3
 72
8
 73
4
 74
0
 40
0
 40
0
 40
0
 40
0
 40
1
 40
1
 40
1
 40
1
 10
44.811394
 20
10.948260
 30
0.0
 10
44.751681
 20
11.080320
 30
0.0
 10
44.650625
 20
11.146350
 30
0.0
 10
44.508226
 20
11.146350
 30
0.0
  0
SPLINE
  5
39a
100
AcDbEntity
  8
Calque_1
 62
6
100
AcDbSpline
 70
8
 71
3
 72
8
 73
4
 74
0
 40
0
 40
0
 40
0
 40
0
 40
1
 40
1
 40
1
 40
1
 10
44.508226
 20
11.146350
 30
0.0
 10
44.365829
 20
11.146350
 30
0.0
 10
44.264198
 20
11.080320
 30
0.0
 10
44.203335
 20
10.948260
 30
0.0
  0
SPLINE
  5
39b
100
AcDbEntity
  8
Calque_1
 62
6
100
AcDbSpline
 70
8
 71
3
 72
8
 73
4
 74
0
 40
0
 40
0
 40
0
 40
0
 40
1
 40
1
 40
1
 40
1
 10
44.203335
 20
10.948260
 30
0.0
 10
44.142468
 20
10.817347
 30
0.0
 10
44.112035
 20
10.591117
 30
0.0
 10
44.112035
 20
10.269570
 30
0.0
  0
SPLINE
  5
39c
100
AcDbEntity
  8
Calque_1
 62
6
100
AcDbSpline
 70
8
 71
3
 72
8
 73
4
 74
0
 40
0
 40
0
 40
0
 40
0
 40
1
 40
1
 40
1
 40
1
 10
44.112035
 20
10.269570
 30
0.0
 10
44.112035
 20
9.944583
 30
0.0
 10
44.142468
 20
9.715487
 30
0.0
 10
44.203335
 20
9.582280
 30
0.0
  0
SPLINE
  5
39d
100
AcDbEntity
  8
Calque_1
 62
6
100
AcDbSpline
 70
8
 71
3
 72
8
 73
4
 74
0
 40
0
 40
0
 40
0
 40
0
 40
1
 40
1
 40
1
 40
1
 10
44.203335
 20
9.582280
 30
0.0
 10
44.264202
 20
9.449067
 30
0.0
 10
44.365832
 20
9.382460
 30
0.0
 10
44.508226
 20
9.382460
 30
0.0
  0
SPLINE
  5
39e
100
AcDbEntity
  8
Calque_1
 62
6
100
AcDbSpline
 70
8
 71
3
 72
8
 73
4
 74
0
 40
0
 40
0
 40
0
 40
0
 40
1
 40
1
 40
1
 40
1
 10
44.508226
 20
9.382460
 30
0.0
 10
44.649475
 20
9.382460
 30
0.0
 10
44.750531
 20
9.449067
 30
0.0
 10
44.811394
 20
9.582280
 30
0.0
  0
SPLINE
  5
39f
100
AcDbEntity
  8
Calque_1
 62
6
100
AcDbSpline
 70
8
 71
3
 72
8
 73
4
 74
0
 40
0
 40
0
 40
0
 40
0
 40
1
 40
1
 40
1
 40
1
 10
44.811394
 20
9.582280
 30
0.0
 10
44.872261
 20
9.715487
 30
0.0
 10
44.902694
 20
9.944583
 30
0.0
 10
44.902694
 20
10.269570
 30
0.0
  0
LINE
  5
3a0
100
AcDbEntity
  8
Calque_1
 62
6
100
AcDbLine
 10
44.902694
 20
10.269570
 30
0.0
 11
44.902694
 21
10.269570
 31
0.0
  0
SPLINE
  5
3a1
100
AcDbEntity
  8
Calque_1
 62
6
100
AcDbSpline
 70
8
 71
3
 72
8
 73
4
 74
0
 40
0
 40
0
 40
0
 40
0
 40
1
 40
1
 40
1
 40
1
 10
45.565875
 20
10.264570
 30
0.0
 10
45.565875
 20
9.838523
 30
0.0
 10
45.474006
 20
9.509517
 30
0.0
 10
45.290268
 20
9.277550
 30
0.0
  0
SPLINE
  5
3a2
100
AcDbEntity
  8
Calque_1
 62
6
100
AcDbSpline
 70
8
 71
3
 72
8
 73
4
 74
0
 40
0
 40
0
 40
0
 40
0
 40
1
 40
1
 40
1
 40
1
 10
45.290268
 20
9.277550
 30
0.0
 10
45.106529
 20
9.046723
 30
0.0
 10
44.845850
 20
8.931310
 30
0.0
 10
44.508231
 20
8.931310
 30
0.0
  0
SPLINE
  5
3a3
100
AcDbEntity
  8
Calque_1
 62
6
100
AcDbSpline
 70
8
 71
3
 72
8
 73
4
 74
0
 40
0
 40
0
 40
0
 40
0
 40
1
 40
1
 40
1
 40
1
 10
44.508231
 20
8.931310
 30
0.0
 10
44.169463
 20
8.931310
 30
0.0
 10
43.908210
 20
9.046723
 30
0.0
 10
43.724472
 20
9.277550
 30
0.0
  0
SPLINE
  5
3a4
100
AcDbEntity
  8
Calque_1
 62
6
100
AcDbSpline
 70
8
 71
3
 72
8
 73
4
 74
0
 40
0
 40
0
 40
0
 40
0
 40
1
 40
1
 40
1
 40
1
 10
43.724472
 20
9.277550
 30
0.0
 10
43.540733
 20
9.509517
 30
0.0
 10
43.448864
 20
9.838523
 30
0.0
 10
43.448864
 20
10.264570
 30
0.0
  0
SPLINE
  5
3a5
100
AcDbEntity
  8
Calque_1
 62
6
100
AcDbSpline
 70
8
 71
3
 72
8
 73
4
 74
0
 40
0
 40
0
 40
0
 40
0
 40
1
 40
1
 40
1
 40
1
 10
43.448864
 20
10.264570
 30
0.0
 10
43.448864
 20
10.691757
 30
0.0
 10
43.540733
 20
11.020763
 30
0.0
 10
43.724472
 20
11.251590
 30
0.0
  0
SPLINE
  5
3a6
100
AcDbEntity
  8
Calque_1
 62
6
100
AcDbSpline
 70
8
 71
3
 72
8
 73
4
 74
0
 40
0
 40
0
 40
0
 40
0
 40
1
 40
1
 40
1
 40
1
 10
43.724472
 20
11.251590
 30
0.0
 10
43.908210
 20
11.483557
 30
0.0
 10
44.169463
 20
11.599540
 30
0.0
 10
44.508231
 20
11.599540
 30
0.0
  0
SPLINE
  5
3a7
100
AcDbEntity
  8
Calque_1
 62
6
100
AcDbSpline
 70
8
 71
3
 72
8
 73
4
 74
0
 40
0
 40
0
 40
0
 40
0
 40
1
 40
1
 40
1
 40
1
 10
44.508231
 20
11.599540
 30
0.0
 10
44.845850
 20
11.599540
 30
0.0
 10
45.106529
 20
11.483557
 30
0.0
 10
45.290268
 20
11.251590
 30
0.0
  0
SPLINE
  5
3a8
100
AcDbEntity
  8
Calque_1
 62
6
100
AcDbSpline
 70
8
 71
3
 72
8
 73
4
 74
0
 40
0
 40
0
 40
0
 40
0
 40
1
 40
1
 40
1
 40
1
 10
45.290268
 20
11.251590
 30
0.0
 10
45.474006
 20
11.020763
 30
0.0
 10
45.565875
 20
10.691757
 30
0.0
 10
45.565875
 20
10.264570
 30
0.0
  0
LINE
  5
3a9
100
AcDbEntity
  8
Calque_1
 62
6
100
AcDbLine
 10
45.565875
 20
10.264570
 30
0.0
 11
45.565875
 21
10.264570
 31
0.0
  0
SPLINE
  5
3aa
100
AcDbEntity
  8
Calque_1
 62
6
100
AcDbSpline
 70
8
 71
3
 72
8
 73
4
 74
0
 40
0
 40
0
 40
0
 40
0
 40
1
 40
1
 40
1
 40
1
 10
47.355602
 20
10.269570
 30
0.0
 10
47.355602
 20
10.591117
 30
0.0
 10
47.325172
 20
10.817347
 30
0.0
 10
47.264312
 20
10.948260
 30
0.0
  0
SPLINE
  5
3ab
100
AcDbEntity
  8
Calque_1
 62
6
100
AcDbSpline
 70
8
 71
3
 72
8
 73
4
 74
0
 40
0
 40
0
 40
0
 40
0
 40
1
 40
1
 40
1
 40
1
 10
47.264312
 20
10.948260
 30
0.0
 10
47.204599
 20
11.080320
 30
0.0
 10
47.103543
 20
11.146350
 30
0.0
 10
46.961144
 20
11.146350
 30
0.0
  0
SPLINE
  5
3ac
100
AcDbEntity
  8
Calque_1
 62
6
100
AcDbSpline
 70
8
 71
3
 72
8
 73
4
 74
0
 40
0
 40
0
 40
0
 40
0
 40
1
 40
1
 40
1
 40
1
 10
46.961144
 20
11.146350
 30
0.0
 10
46.818747
 20
11.146350
 30
0.0
 10
46.717116
 20
11.080320
 30
0.0
 10
46.656253
 20
10.948260
 30
0.0
  0
SPLINE
  5
3ad
100
AcDbEntity
  8
Calque_1
 62
6
100
AcDbSpline
 70
8
 71
3
 72
8
 73
4
 74
0
 40
0
 40
0
 40
0
 40
0
 40
1
 40
1
 40
1
 40
1
 10
46.656253
 20
10.948260
 30
0.0
 10
46.595393
 20
10.817347
 30
0.0
 10
46.564963
 20
10.591117
 30
0.0
 10
46.564963
 20
10.269570
 30
0.0
  0
SPLINE
  5
3ae
100
AcDbEntity
  8
Calque_1
 62
6
100
AcDbSpline
 70
8
 71
3
 72
8
 73
4
 74
0
 40
0
 40
0
 40
0
 40
0
 40
1
 40
1
 40
1
 40
1
 10
46.564963
 20
10.269570
 30
0.0
 10
46.564963
 20
9.944583
 30
0.0
 10
46.595393
 20
9.715487
 30
0.0
 10
46.656253
 20
9.582280
 30
0.0
  0
SPLINE
  5
3af
100
AcDbEntity
  8
Calque_1
 62
6
100
AcDbSpline
 70
8
 71
3
 72
8
 73
4
 74
0
 40
0
 40
0
 40
0
 40
0
 40
1
 40
1
 40
1
 40
1
 10
46.656253
 20
9.582280
 30
0.0
 10
46.717120
 20
9.449067
 30
0.0
 10
46.818750
 20
9.382460
 30
0.0
 10
46.961144
 20
9.382460
 30
0.0
  0
SPLINE
  5
3b0
100
AcDbEntity
  8
Calque_1
 62
6
100
AcDbSpline
 70
8
 71
3
 72
8
 73
4
 74
0
 40
0
 40
0
 40
0
 40
0
 40
1
 40
1
 40
1
 40
1
 10
46.961144
 20
9.382460
 30
0.0
 10
47.102393
 20
9.382460
 30
0.0
 10
47.203449
 20
9.449067
 30
0.0
 10
47.264312
 20
9.582280
 30
0.0
  0
SPLINE
  5
3b1
100
AcDbEntity
  8
Calque_1
 62
6
100
AcDbSpline
 70
8
 71
3
 72
8
 73
4
 74
0
 40
0
 40
0
 40
0
 40
0
 40
1
 40
1
 40
1
 40
1
 10
47.264312
 20
9.582280
 30
0.0
 10
47.325172
 20
9.715487
 30
0.0
 10
47.355602
 20
9.944583
 30
0.0
 10
47.355602
 20
10.269570
 30
0.0
  0
LINE
  5
3b2
100
AcDbEntity
  8
Calque_1
 62
6
100
AcDbLine
 10
47.355602
 20
10.269570
 30
0.0
 11
47.355602
 21
10.269570
 31
0.0
  0
SPLINE
  5
3b3
100
AcDbEntity
  8
Calque_1
 62
6
100
AcDbSpline
 70
8
 71
3
 72
8
 73
4
 74
0
 40
0
 40
0
 40
0
 40
0
 40
1
 40
1
 40
1
 40
1
 10
48.018783
 20
10.264570
 30
0.0
 10
48.018783
 20
9.838523
 30
0.0
 10
47.926914
 20
9.509517
 30
0.0
 10
47.743175
 20
9.277550
 30
0.0
  0
SPLINE
  5
3b4
100
AcDbEntity
  8
Calque_1
 62
6
100
AcDbSpline
 70
8
 71
3
 72
8
 73
4
 74
0
 40
0
 40
0
 40
0
 40
0
 40
1
 40
1
 40
1
 40
1
 10
47.743175
 20
9.277550
 30
0.0
 10
47.559437
 20
9.046723
 30
0.0
 10
47.298758
 20
8.931310
 30
0.0
 10
46.961139
 20
8.931310
 30
0.0
  0
SPLINE
  5
3b5
100
AcDbEntity
  8
Calque_1
 62
6
100
AcDbSpline
 70
8
 71
3
 72
8
 73
4
 74
0
 40
0
 40
0
 40
0
 40
0
 40
1
 40
1
 40
1
 40
1
 10
46.961139
 20
8.931310
 30
0.0
 10
46.622371
 20
8.931310
 30
0.0
 10
46.361118
 20
9.046723
 30
0.0
 10
46.177380
 20
9.277550
 30
0.0
  0
SPLINE
  5
3b6
100
AcDbEntity
  8
Calque_1
 62
6
100
AcDbSpline
 70
8
 71
3
 72
8
 73
4
 74
0
 40
0
 40
0
 40
0
 40
0
 40
1
 40
1
 40
1
 40
1
 10
46.177380
 20
9.277550
 30
0.0
 10
45.993641
 20
9.509517
 30
0.0
 10
45.901772
 20
9.838523
 30
0.0
 10
45.901772
 20
10.264570
 30
0.0
  0
SPLINE
  5
3b7
100
AcDbEntity
  8
Calque_1
 62
6
100
AcDbSpline
 70
8
 71
3
 72
8
 73
4
 74
0
 40
0
 40
0
 40
0
 40
0
 40
1
 40
1
 40
1
 40
1
 10
45.901772
 20
10.264570
 30
0.0
 10
45.901772
 20
10.691757
 30
0.0
 10
45.993641
 20
11.020763
 30
0.0
 10
46.177380
 20
11.251590
 30
0.0
  0
SPLINE
  5
3b8
100
AcDbEntity
  8
Calque_1
 62
6
100
AcDbSpline
 70
8
 71
3
 72
8
 73
4
 74
0
 40
0
 40
0
 40
0
 40
0
 40
1
 40
1
 40
1
 40
1
 10
46.177380
 20
11.251590
 30
0.0
 10
46.361118
 20
11.483557
 30
0.0
 10
46.622371
 20
11.599540
 30
0.0
 10
46.961139
 20
11.599540
 30
0.0
  0
SPLINE
  5
3b9
100
AcDbEntity
  8
Calque_1
 62
6
100
AcDbSpline
 70
8
 71
3
 72
8
 73
4
 74
0
 40
0
 40
0
 40
0
 40
0
 40
1
 40
1
 40
1
 40
1
 10
46.961139
 20
11.599540
 30
0.0
 10
47.298758
 20
11.599540
 30
0.0
 10
47.559437
 20
11.483557
 30
0.0
 10
47.743175
 20
11.251590
 30
0.0
  0
SPLINE
  5
3ba
100
AcDbEntity
  8
Calque_1
 62
6
100
AcDbSpline
 70
8
 71
3
 72
8
 73
4
 74
0
 40
0
 40
0
 40
0
 40
0
 40
1
 40
1
 40
1
 40
1
 10
47.743175
 20
11.251590
 30
0.0
 10
47.926914
 20
11.020763
 30
0.0
 10
48.018783
 20
10.691757
 30
0.0
 10
48.018783
 20
10.264570
 30
0.0
  0
LINE
  5
3bb
100
AcDbEntity
  8
Calque_1
 62
6
100
AcDbLine
 10
48.018783
 20
10.264570
 30
0.0
 11
48.018783
 21
10.264570
 31
0.0
  0
SPLINE
  5
3bc
100
AcDbEntity
  8
Calque_1
 62
5
100
AcDbSpline
 70
8
 71
3
 72
8
 73
4
 74
0
 40
0
 40
0
 40
0
 40
0
 40
1
 40
1
 40
1
 40
1
 10
23.932293
 20
30.132293
 30
0.0
 10
23.932293
 20
29.707947
 30
0.0
 10
23.763722
 20
29.300980
 30
0.0
 10
23.463664
 20
29.000922
 30
0.0
  0
SPLINE
  5
3bd
100
AcDbEntity
  8
Calque_1
 62
5
100
AcDbSpline
 70
8
 71
3
 72
8
 73
4
 74
0
 40
0
 40
0
 40
0
 40
0
 40
1
 40
1
 40
1
 40
1
 10
23.463664
 20
29.000922
 30
0.0
 10
23.163606
 20
28.700864
 30
0.0
 10
22.756639
 20
28.532293
 30
0.0
 10
22.332293
 20
28.532293
 30
0.0
  0
SPLINE
  5
3be
100
AcDbEntity
  8
Calque_1
 62
5
100
AcDbSpline
 70
8
 71
3
 72
8
 73
4
 74
0
 40
0
 40
0
 40
0
 40
0
 40
1
 40
1
 40
1
 40
1
 10
22.332293
 20
28.532293
 30
0.0
 10
21.907947
 20
28.532293
 30
0.0
 10
21.500980
 20
28.700864
 30
0.0
 10
21.200922
 20
29.000922
 30
0.0
  0
SPLINE
  5
3bf
100
AcDbEntity
  8
Calque_1
 62
5
100
AcDbSpline
 70
8
 71
3
 72
8
 73
4
 74
0
 40
0
 40
0
 40
0
 40
0
 40
1
 40
1
 40
1
 40
1
 10
21.200922
 20
29.000922
 30
0.0
 10
20.900864
 20
29.300980
 30
0.0
 10
20.732293
 20
29.707947
 30
0.0
 10
20.732293
 20
30.132293
 30
0.0
  0
SPLINE
  5
3c0
100
AcDbEntity
  8
Calque_1
 62
5
100
AcDbSpline
 70
8
 71
3
 72
8
 73
4
 74
0
 40
0
 40
0
 40
0
 40
0
 40
1
 40
1
 40
1
 40
1
 10
20.732293
 20
30.132293
 30
0.0
 10
20.732293
 20
30.556639
 30
0.0
 10
20.900864
 20
30.963606
 30
0.0
 10
21.200922
 20
31.263664
 30
0.0
  0
SPLINE
  5
3c1
100
AcDbEntity
  8
Calque_1
 62
5
100
AcDbSpline
 70
8
 71
3
 72
8
 73
4
 74
0
 40
0
 40
0
 40
0
 40
0
 40
1
 40
1
 40
1
 40
1
 10
21.200922
 20
31.263664
 30
0.0
 10
21.500980
 20
31.563722
 30
0.0
 10
21.907947
 20
31.732293
 30
0.0
 10
22.332293
 20
31.732293
 30
0.0
  0
SPLINE
  5
3c2
100
AcDbEntity
  8
Calque_1
 62
5
100
AcDbSpline
 70
8
 71
3
 72
8
 73
4
 74
0
 40
0
 40
0
 40
0
 40
0
 40
1
 40
1
 40
1
 40
1
 10
22.332293
 20
31.732293
 30
0.0
 10
22.756639
 20
31.732293
 30
0.0
 10
23.163606
 20
31.563722
 30
0.0
 10
23.463664
 20
31.263664
 30
0.0
  0
SPLINE
  5
3c3
100
AcDbEntity
  8
Calque_1
 62
5
100
AcDbSpline
 70
8
 71
3
 72
8
 73
4
 74
0
 40
0
 40
0
 40
0
 40
0
 40
1
 40
1
 40
1
 40
1
 10
23.463664
 20
31.263664
 30
0.0
 10
23.763722
 20
30.963606
 30
0.0
 10
23.932293
 20
30.556639
 30
0.0
 10
23.932293
 20
30.132293
 30
0.0
  0
LINE
  5
3c4
100
AcDbEntity
  8
Calque_1
 62
5
100
AcDbLine
 10
23.932293
 20
30.132293
 30
0.0
 11
23.932293
 21
30.132293
 31
0.0
  0
SPLINE
  5
3c5
100
AcDbEntity
  8
Calque_1
 62
5
100
AcDbSpline
 70
8
 71
3
 72
8
 73
4
 74
0
 40
0
 40
0
 40
0
 40
0
 40
1
 40
1
 40
1
 40
1
 10
33.882292
 20
30.132293
 30
0.0
 10
33.882292
 20
29.137731
 30
0.0
 10
33.487204
 20
28.183904
 30
0.0
 10
32.783942
 20
27.480643
 30
0.0
  0
SPLINE
  5
3c6
100
AcDbEntity
  8
Calque_1
 62
5
100
AcDbSpline
 70
8
 71
3
 72
8
 73
4
 74
0
 40
0
 40
0
 40
0
 40
0
 40
1
 40
1
 40
1
 40
1
 10
32.783942
 20
27.480643
 30
0.0
 10
32.080681
 20
26.777381
 30
0.0
 10
31.126854
 20
26.382293
 30
0.0
 10
30.132292
 20
26.382293
 30
0.0
  0
SPLINE
  5
3c7
100
AcDbEntity
  8
Calque_1
 62
5
100
AcDbSpline
 70
8
 71
3
 72
8
 73
4
 74
0
 40
0
 40
0
 40
0
 40
0
 40
1
 40
1
 40
1
 40
1
 10
30.132292
 20
26.382293
 30
0.0
 10
29.137730
 20
26.382293
 30
0.0
 10
28.183903
 20
26.777381
 30
0.0
 10
27.480642
 20
27.480643
 30
0.0
  0
SPLINE
  5
3c8
100
AcDbEntity
  8
Calque_1
 62
5
100
AcDbSpline
 70
8
 71
3
 72
8
 73
4
 74
0
 40
0
 40
0
 40
0
 40
0
 40
1
 40
1
 40
1
 40
1
 10
27.480642
 20
27.480643
 30
0.0
 10
26.777380
 20
28.183904
 30
0.0
 10
26.382292
 20
29.137731
 30
0.0
 10
26.382292
 20
30.132293
 30
0.0
  0
SPLINE
  5
3c9
100
AcDbEntity
  8
Calque_1
 62
5
100
AcDbSpline
 70
8
 71
3
 72
8
 73
4
 74
0
 40
0
 40
0
 40
0
 40
0
 40
1
 40
1
 40
1
 40
1
 10
26.382292
 20
30.132293
 30
0.0
 10
26.382292
 20
31.126855
 30
0.0
 10
26.777380
 20
32.080682
 30
0.0
 10
27.480642
 20
32.783943
 30
0.0
  0
SPLINE
  5
3ca
100
AcDbEntity
  8
Calque_1
 62
5
100
AcDbSpline
 70
8
 71
3
 72
8
 73
4
 74
0
 40
0
 40
0
 40
0
 40
0
 40
1
 40
1
 40
1
 40
1
 10
27.480642
 20
32.783943
 30
0.0
 10
28.183903
 20
33.487205
 30
0.0
 10
29.137730
 20
33.882293
 30
0.0
 10
30.132292
 20
33.882293
 30
0.0
  0
SPLINE
  5
3cb
100
AcDbEntity
  8
Calque_1
 62
5
100
AcDbSpline
 70
8
 71
3
 72
8
 73
4
 74
0
 40
0
 40
0
 40
0
 40
0
 40
1
 40
1
 40
1
 40
1
 10
30.132292
 20
33.882293
 30
0.0
 10
31.126854
 20
33.882293
 30
0.0
 10
32.080681
 20
33.487205
 30
0.0
 10
32.783942
 20
32.783943
 30
0.0
  0
SPLINE
  5
3cc
100
AcDbEntity
  8
Calque_1
 62
5
100
AcDbSpline
 70
8
 71
3
 72
8
 73
4
 74
0
 40
0
 40
0
 40
0
 40
0
 40
1
 40
1
 40
1
 40
1
 10
32.783942
 20
32.783943
 30
0.0
 10
33.487204
 20
32.080682
 30
0.0
 10
33.882292
 20
31.126855
 30
0.0
 10
33.882292
 20
30.132293
 30
0.0
  0
LINE
  5
3cd
100
AcDbEntity
  8
Calque_1
 62
5
100
AcDbLine
 10
33.882292
 20
30.132293
 30
0.0
 11
33.882292
 21
30.132293
 31
0.0
  0
ENDSEC
  0
SECTION
  2
OBJECTS
  0
DICTIONARY
  5
C
330
0
100
AcDbDictionary
  3
ACAD_GROUP
350
D
  3
ACAD_MLINESTYLE
350
17
  0
DICTIONARY
  5
D
330
C
100
AcDbDictionary
  0
DICTIONARY
  5
1A
330
C
100
AcDbDictionary
  0
DICTIONARY
  5
17
330
C
100
AcDbDictionary
  3
STANDARD
350
18
  0
DICTIONARY
  5
19
330
C
100
AcDbDictionary
  0
ENDSEC
  0
EOF
