  0
SECTION
  2
HEADER
  9
$ACADVER
  1
AC1014
  9
$HANDSEED
  5
FFFF
  9
$MEASUREMENT
 70
     1
  0
ENDSEC
  0
SECTION
  2
TABLES
  0
TABLE
  2
VPORT
  5
8
330
0
100
AcDbSymbolTable
 70
     4
  0
VPORT
  5
2E
330
8
100
AcDbSymbolTableRecord
100
AcDbViewportTableRecord
  2
*ACTIVE
 70
     0
 10
0.0
 20
0.0
 11
1.0
 21
1.0
 12
210.0
 22
148.5
 13
0.0
 23
0.0
 14
10.0
 24
10.0
 15
10.0
 25
10.0
 16
0.0
 26
0.0
 36
1.0
 17
0.0
 27
0.0
 37
0.0
 40
341.0
 41
1.24
 42
50.0
 43
0.0
 44
0.0
 50
0.0
 51
0.0
 71
     0
 72
   100
 73
     1
 74
     3
 75
     0
 76
     0
 77
     0
 78
     0
  0
ENDTAB
  0
TABLE
  2
LTYPE
  5
5
330
0
100
AcDbSymbolTable
 70
     1
  0
LTYPE
  5
14
330
5
100
AcDbSymbolTableRecord
100
AcDbLinetypeTableRecord
  2
BYBLOCK
 70
     0
  3

 72
    65
 73
     0
 40
0.0
  0
LTYPE
  5
15
330
5
100
AcDbSymbolTableRecord
100
AcDbLinetypeTableRecord
  2
BYLAYER
 70
     0
  3

 72
    65
 73
     0
 40
0.0
  0
LTYPE
  5
16
330
5
100
AcDbSymbolTableRecord
100
AcDbLinetypeTableRecord
  2
CONTINUOUS
 70
     0
  3
Solid line
 72
    65
 73
     0
 40
0.0
  0
ENDTAB
  0
TABLE
  2
LAYER
  5
2
100
AcDbSymbolTable
 70
2
  0
LAYER
  5
50
100
AcDbSymbolTableRecord
100
AcDbLayerTableRecord
  2
0
 70
0
  6
CONTINUOUS
  0
LAYER
  5
51
100
AcDbSymbolTableRecord
100
AcDbLayerTableRecord
  2
Calque_1
 70
0
  6
CONTINUOUS
  0
ENDTAB
  0
TABLE
  2
STYLE
  5
3
330
0
100
AcDbSymbolTable
 70
     1
  0
STYLE
  5
11
330
3
100
AcDbSymbolTableRecord
100
AcDbTextStyleTableRecord
  2
STANDARD
 70
     0
 40
0.0
 41
1.0
 50
0.0
 71
     0
 42
2.5
  3
txt
  4

  0
ENDTAB
  0
TABLE
  2
VIEW
  5
6
330
0
100
AcDbSymbolTable
 70
     0
  0
ENDTAB
  0
TABLE
  2
UCS
  5
7
330
0
100
AcDbSymbolTable
 70
     0
  0
ENDTAB
  0
TABLE
  2
APPID
  5
9
330
0
100
AcDbSymbolTable
 70
     2
  0
APPID
  5
12
330
9
100
AcDbSymbolTableRecord
100
AcDbRegAppTableRecord
  2
ACAD
 70
     0
  0
ENDTAB
  0
TABLE
  2
DIMSTYLE
  5
A
330
0
100
AcDbSymbolTable
 70
     1
  0
DIMSTYLE
105
27
330
A
100
AcDbSymbolTableRecord
100
AcDbDimStyleTableRecord
  2
ISO-25
 70
     0
  3

  4

  5

  6

  7

 40
1.0
 41
2.5
 42
0.625
 43
3.75
 44
1.25
 45
0.0
 46
0.0
 47
0.0
 48
0.0
140
2.5
141
2.5
142
0.0
143
0.03937007874016
144
1.0
145
0.0
146
1.0
147
0.625
 71
     0
 72
     0
 73
     0
 74
     0
 75
     0
 76
     0
 77
     1
 78
     8
170
     0
171
     3
172
     1
173
     0
174
     0
175
     0
176
     0
177
     0
178
     0
270
     2
271
     2
272
     2
273
     2
274
     3
340
11
275
     0
280
     0
281
     0
282
     0
283
     0
284
     8
285
     0
286
     0
287
     3
288
     0
  0
ENDTAB
  0
TABLE
  2
BLOCK_RECORD
  5
1
330
0
100
AcDbSymbolTable
 70
     1
  0
BLOCK_RECORD
  5
1F
330
1
100
AcDbSymbolTableRecord
100
AcDbBlockTableRecord
  2
*MODEL_SPACE
  0
BLOCK_RECORD
  5
1B
330
1
100
AcDbSymbolTableRecord
100
AcDbBlockTableRecord
  2
*PAPER_SPACE
  0
ENDTAB
  0
ENDSEC
  0
SECTION
  2
BLOCKS
  0
BLOCK
  5
20
330
1F
100
AcDbEntity
  8
0
100
AcDbBlockBegin
  2
*MODEL_SPACE
 70
     0
 10
0.0
 20
0.0
 30
0.0
  3
*MODEL_SPACE
  1

  0
ENDBLK
  5
21
330
1F
100
AcDbEntity
  8
0
100
AcDbBlockEnd
  0
BLOCK
  5
1C
330
1B
100
AcDbEntity
 67
     1
  8
0
100
AcDbBlockBegin
  2
*PAPER_SPACE
  1

  0
ENDBLK
  5
1D
330
1B
100
AcDbEntity
 67
     1
  8
0
100
AcDbBlockEnd
  0
ENDSEC
  0
SECTION
  2
ENTITIES
  0
SPLINE
  5
100
100
AcDbEntity
  8
Calque_1
 62
7
100
AcDbSpline
 70
8
 71
3
 72
8
 73
4
 74
0
 40
0
 40
0
 40
0
 40
0
 40
1
 40
1
 40
1
 40
1
 10
0.326892
 20
0.141322
 30
0.0
 10
0.309775
 20
0.124592
 30
0.0
 10
0.289214
 20
0.112441
 30
0.0
 10
0.266312
 20
0.105521
 30
0.0
  0
SPLINE
  5
101
100
AcDbEntity
  8
Calque_1
 62
7
100
AcDbSpline
 70
8
 71
3
 72
8
 73
4
 74
0
 40
0
 40
0
 40
0
 40
0
 40
1
 40
1
 40
1
 40
1
 10
0.266312
 20
0.105521
 30
0.0
 10
0.250994
 20
0.100893
 30
0.0
 10
0.244371
 20
0.100038
 30
0.0
 10
0.223989
 20
0.100061
 30
0.0
  0
SPLINE
  5
102
100
AcDbEntity
  8
Calque_1
 62
7
100
AcDbSpline
 70
8
 71
3
 72
8
 73
4
 74
0
 40
0
 40
0
 40
0
 40
0
 40
1
 40
1
 40
1
 40
1
 10
0.223989
 20
0.100061
 30
0.0
 10
0.207256
 20
0.100080
 30
0.0
 10
0.205045
 20
0.100219
 30
0.0
 10
0.196129
 20
0.102152
 30
0.0
  0
SPLINE
  5
103
100
AcDbEntity
  8
Calque_1
 62
7
100
AcDbSpline
 70
8
 71
3
 72
8
 73
4
 74
0
 40
0
 40
0
 40
0
 40
0
 40
1
 40
1
 40
1
 40
1
 10
0.196129
 20
0.102152
 30
0.0
 10
0.130972
 20
0.116078
 30
0.0
 10
0.084678
 20
0.168442
 30
0.0
 10
0.079221
 20
0.234389
 30
0.0
  0
SPLINE
  5
104
100
AcDbEntity
  8
Calque_1
 62
7
100
AcDbSpline
 70
8
 71
3
 72
8
 73
4
 74
0
 40
0
 40
0
 40
0
 40
0
 40
1
 40
1
 40
1
 40
1
 10
0.079221
 20
0.234389
 30
0.0
 10
0.077056
 20
0.260566
 30
0.0
 10
0.082206
 20
0.286209
 30
0.0
 10
0.094558
 20
0.310740
 30
0.0
  0
SPLINE
  5
105
100
AcDbEntity
  8
Calque_1
 62
7
100
AcDbSpline
 70
8
 71
3
 72
8
 73
4
 74
0
 40
0
 40
0
 40
0
 40
0
 40
1
 40
1
 40
1
 40
1
 10
0.094558
 20
0.310740
 30
0.0
 10
0.108906
 20
0.339234
 30
0.0
 10
0.130574
 20
0.360902
 30
0.0
 10
0.159068
 20
0.375250
 30
0.0
  0
SPLINE
  5
106
100
AcDbEntity
  8
Calque_1
 62
7
100
AcDbSpline
 70
8
 71
3
 72
8
 73
4
 74
0
 40
0
 40
0
 40
0
 40
0
 40
1
 40
1
 40
1
 40
1
 10
0.159068
 20
0.375250
 30
0.0
 10
0.200031
 20
0.395876
 30
0.0
 10
0.247111
 20
0.396354
 30
0.0
 10
0.287795
 20
0.376561
 30
0.0
  0
SPLINE
  5
107
100
AcDbEntity
  8
Calque_1
 62
7
100
AcDbSpline
 70
8
 71
3
 72
8
 73
4
 74
0
 40
0
 40
0
 40
0
 40
0
 40
1
 40
1
 40
1
 40
1
 10
0.287795
 20
0.376561
 30
0.0
 10
0.304398
 20
0.368483
 30
0.0
 10
0.317574
 20
0.358834
 30
0.0
 10
0.330433
 20
0.345337
 30
0.0
  0
SPLINE
  5
108
100
AcDbEntity
  8
Calque_1
 62
7
100
AcDbSpline
 70
8
 71
3
 72
8
 73
4
 74
0
 40
0
 40
0
 40
0
 40
0
 40
1
 40
1
 40
1
 40
1
 10
0.330433
 20
0.345337
 30
0.0
 10
0.351387
 20
0.323343
 30
0.0
 10
0.364568
 20
0.296133
 30
0.0
 10
0.369088
 20
0.265542
 30
0.0
  0
SPLINE
  5
109
100
AcDbEntity
  8
Calque_1
 62
7
100
AcDbSpline
 70
8
 71
3
 72
8
 73
4
 74
0
 40
0
 40
0
 40
0
 40
0
 40
1
 40
1
 40
1
 40
1
 10
0.369088
 20
0.265542
 30
0.0
 10
0.370984
 20
0.252712
 30
0.0
 10
0.370237
 20
0.228627
 30
0.0
 10
0.367552
 20
0.215991
 30
0.0
  0
SPLINE
  5
10a
100
AcDbEntity
  8
Calque_1
 62
7
100
AcDbSpline
 70
8
 71
3
 72
8
 73
4
 74
0
 40
0
 40
0
 40
0
 40
0
 40
1
 40
1
 40
1
 40
1
 10
0.367552
 20
0.215991
 30
0.0
 10
0.364149
 20
0.199974
 30
0.0
 10
0.357012
 20
0.182006
 30
0.0
 10
0.348682
 20
0.168479
 30
0.0
  0
LWPOLYLINE
  5
10b
100
AcDbEntity
  8
Calque_1
 62
7
100
AcDbPolyline
 90
29
 70
0
 10
1.214725
 20
0.099637
 30
0.0
 10
1.214725
 20
0.120519
 30
0.0
 10
1.148622
 20
0.120519
 30
0.0
 10
1.082520
 20
0.120519
 30
0.0
 10
1.082323
 20
0.111431
 30
0.0
 10
1.082126
 20
0.102344
 30
0.0
 10
1.033595
 20
0.102147
 30
0.0
 10
0.985063
 20
0.101950
 30
0.0
 10
0.985063
 20
0.111237
 30
0.0
 10
0.985063
 20
0.120523
 30
0.0
 10
0.904241
 20
0.120523
 30
0.0
 10
0.823419
 20
0.120523
 30
0.0
 10
0.823419
 20
0.106989
 30
0.0
 10
0.823419
 20
0.093454
 30
0.0
 10
0.816063
 20
0.093454
 30
0.0
 10
0.808733
 20
0.093454
 30
0.0
 10
0.808524
 20
0.106960
 30
0.0
 10
0.808316
 20
0.120465
 30
0.0
 10
0.785113
 20
0.107059
 30
0.0
 10
0.761911
 20
0.093654
 30
0.0
 10
0.761702
 20
0.107086
 30
0.0
 10
0.761494
 20
0.120519
 30
0.0
 10
0.627904
 20
0.120716
 30
0.0
 10
0.494315
 20
0.120913
 30
0.0
 10
0.494106
 20
0.134640
 30
0.0
 10
0.493898
 20
0.148368
 30
0.0
 10
0.413988
 20
0.148368
 30
0.0
 10
0.334101
 20
0.148368
 30
0.0
 10
0.326892
 20
0.141322
 30
0.0
  0
SPLINE
  5
10c
100
AcDbEntity
  8
Calque_1
 62
7
100
AcDbSpline
 70
8
 71
3
 72
8
 73
4
 74
0
 40
0
 40
0
 40
0
 40
0
 40
1
 40
1
 40
1
 40
1
 10
0.440437
 20
0.163255
 30
0.0
 10
0.548484
 20
0.163019
 30
0.0
 10
0.539926
 20
0.162499
 30
0.0
 10
0.544590
 20
0.169540
 30
0.0
  0
SPLINE
  5
10d
100
AcDbEntity
  8
Calque_1
 62
7
100
AcDbSpline
 70
8
 71
3
 72
8
 73
4
 74
0
 40
0
 40
0
 40
0
 40
0
 40
1
 40
1
 40
1
 40
1
 10
0.544590
 20
0.169540
 30
0.0
 10
0.547122
 20
0.173359
 30
0.0
 10
0.555010
 20
0.192713
 30
0.0
 10
0.555010
 20
0.195102
 30
0.0
  0
SPLINE
  5
10e
100
AcDbEntity
  8
Calque_1
 62
7
100
AcDbSpline
 70
8
 71
3
 72
8
 73
4
 74
0
 40
0
 40
0
 40
0
 40
0
 40
1
 40
1
 40
1
 40
1
 10
0.555010
 20
0.195102
 30
0.0
 10
0.555010
 20
0.195740
 30
0.0
 10
0.546483
 20
0.218425
 30
0.0
 10
0.536061
 20
0.245517
 30
0.0
  0
SPLINE
  5
10f
100
AcDbEntity
  8
Calque_1
 62
7
100
AcDbSpline
 70
8
 71
3
 72
8
 73
4
 74
0
 40
0
 40
0
 40
0
 40
0
 40
1
 40
1
 40
1
 40
1
 10
0.536061
 20
0.245517
 30
0.0
 10
0.525639
 20
0.272609
 30
0.0
 10
0.517112
 20
0.295086
 30
0.0
 10
0.517112
 20
0.295466
 30
0.0
  0
SPLINE
  5
110
100
AcDbEntity
  8
Calque_1
 62
7
100
AcDbSpline
 70
8
 71
3
 72
8
 73
4
 74
0
 40
0
 40
0
 40
0
 40
0
 40
1
 40
1
 40
1
 40
1
 10
0.517112
 20
0.295466
 30
0.0
 10
0.517112
 20
0.295860
 30
0.0
 10
0.520840
 20
0.296057
 30
0.0
 10
0.525397
 20
0.295939
 30
0.0
  0
LWPOLYLINE
  5
111
100
AcDbEntity
  8
Calque_1
 62
7
100
AcDbPolyline
 90
3
 70
0
 10
0.348682
 20
0.168479
 30
0.0
 10
0.345587
 20
0.163452
 30
0.0
 10
0.440437
 20
0.163255
 30
0.0
  0
SPLINE
  5
112
100
AcDbEntity
  8
Calque_1
 62
7
100
AcDbSpline
 70
8
 71
3
 72
8
 73
4
 74
0
 40
0
 40
0
 40
0
 40
0
 40
1
 40
1
 40
1
 40
1
 10
0.547657
 20
0.257805
 30
0.0
 10
0.555344
 20
0.236962
 30
0.0
 10
0.561910
 20
0.219212
 30
0.0
 10
0.562248
 20
0.218361
 30
0.0
  0
SPLINE
  5
113
100
AcDbEntity
  8
Calque_1
 62
7
100
AcDbSpline
 70
8
 71
3
 72
8
 73
4
 74
0
 40
0
 40
0
 40
0
 40
0
 40
1
 40
1
 40
1
 40
1
 10
0.562248
 20
0.218361
 30
0.0
 10
0.562836
 20
0.216881
 30
0.0
 10
0.562907
 20
0.216901
 30
0.0
 10
0.563839
 20
0.218755
 30
0.0
  0
SPLINE
  5
114
100
AcDbEntity
  8
Calque_1
 62
7
100
AcDbSpline
 70
8
 71
3
 72
8
 73
4
 74
0
 40
0
 40
0
 40
0
 40
0
 40
1
 40
1
 40
1
 40
1
 10
0.563839
 20
0.218755
 30
0.0
 10
0.564375
 20
0.219822
 30
0.0
 10
0.570667
 20
0.237655
 30
0.0
 10
0.577821
 20
0.258393
 30
0.0
  0
LWPOLYLINE
  5
115
100
AcDbEntity
  8
Calque_1
 62
7
100
AcDbPolyline
 90
3
 70
0
 10
0.525397
 20
0.295939
 30
0.0
 10
0.533681
 20
0.295703
 30
0.0
 10
0.547657
 20
0.257805
 30
0.0
  0
SPLINE
  5
116
100
AcDbEntity
  8
Calque_1
 62
7
100
AcDbSpline
 70
8
 71
3
 72
8
 73
4
 74
0
 40
0
 40
0
 40
0
 40
0
 40
1
 40
1
 40
1
 40
1
 10
0.599260
 20
0.296096
 30
0.0
 10
0.603899
 20
0.296096
 30
0.0
 10
0.607519
 20
0.295821
 30
0.0
 10
0.607306
 20
0.295470
 30
0.0
  0
SPLINE
  5
117
100
AcDbEntity
  8
Calque_1
 62
7
100
AcDbSpline
 70
8
 71
3
 72
8
 73
4
 74
0
 40
0
 40
0
 40
0
 40
0
 40
1
 40
1
 40
1
 40
1
 10
0.607306
 20
0.295470
 30
0.0
 10
0.607093
 20
0.295116
 30
0.0
 10
0.596943
 20
0.267370
 30
0.0
 10
0.584751
 20
0.233791
 30
0.0
  0
SPLINE
  5
118
100
AcDbEntity
  8
Calque_1
 62
7
100
AcDbSpline
 70
8
 71
3
 72
8
 73
4
 74
0
 40
0
 40
0
 40
0
 40
0
 40
1
 40
1
 40
1
 40
1
 10
0.584751
 20
0.233791
 30
0.0
 10
0.572559
 20
0.200212
 30
0.0
 10
0.561345
 20
0.170189
 30
0.0
 10
0.559831
 20
0.167074
 30
0.0
  0
SPLINE
  5
119
100
AcDbEntity
  8
Calque_1
 62
7
100
AcDbSpline
 70
8
 71
3
 72
8
 73
4
 74
0
 40
0
 40
0
 40
0
 40
0
 40
1
 40
1
 40
1
 40
1
 10
0.559831
 20
0.167074
 30
0.0
 10
0.558317
 20
0.163960
 30
0.0
 10
0.555521
 20
0.159679
 30
0.0
 10
0.553618
 20
0.157561
 30
0.0
  0
SPLINE
  5
11a
100
AcDbEntity
  8
Calque_1
 62
7
100
AcDbSpline
 70
8
 71
3
 72
8
 73
4
 74
0
 40
0
 40
0
 40
0
 40
0
 40
1
 40
1
 40
1
 40
1
 10
0.553618
 20
0.157561
 30
0.0
 10
0.547060
 20
0.150267
 30
0.0
 10
0.540547
 20
0.148404
 30
0.0
 10
0.521560
 20
0.148387
 30
0.0
  0
LWPOLYLINE
  5
11b
100
AcDbEntity
  8
Calque_1
 62
7
100
AcDbPolyline
 90
3
 70
0
 10
0.577821
 20
0.258393
 30
0.0
 10
0.590828
 20
0.296096
 30
0.0
 10
0.599260
 20
0.296096
 30
0.0
  0
SPLINE
  5
11c
100
AcDbEntity
  8
Calque_1
 62
7
100
AcDbSpline
 70
8
 71
3
 72
8
 73
4
 74
0
 40
0
 40
0
 40
0
 40
0
 40
1
 40
1
 40
1
 40
1
 10
0.761511
 20
0.148762
 30
0.0
 10
0.761511
 20
0.156206
 30
0.0
 10
0.761669
 20
0.162296
 30
0.0
 10
0.761858
 20
0.162296
 30
0.0
  0
SPLINE
  5
11d
100
AcDbEntity
  8
Calque_1
 62
7
100
AcDbSpline
 70
8
 71
3
 72
8
 73
4
 74
0
 40
0
 40
0
 40
0
 40
0
 40
1
 40
1
 40
1
 40
1
 10
0.761858
 20
0.162296
 30
0.0
 10
0.762051
 20
0.162296
 30
0.0
 10
0.772172
 20
0.156531
 30
0.0
 10
0.784354
 20
0.149485
 30
0.0
  0
SPLINE
  5
11e
100
AcDbEntity
  8
Calque_1
 62
7
100
AcDbSpline
 70
8
 71
3
 72
8
 73
4
 74
0
 40
0
 40
0
 40
0
 40
0
 40
1
 40
1
 40
1
 40
1
 10
0.784354
 20
0.149485
 30
0.0
 10
0.796535
 20
0.142439
 30
0.0
 10
0.806994
 20
0.136485
 30
0.0
 10
0.807595
 20
0.136254
 30
0.0
  0
SPLINE
  5
11f
100
AcDbEntity
  8
Calque_1
 62
7
100
AcDbSpline
 70
8
 71
3
 72
8
 73
4
 74
0
 40
0
 40
0
 40
0
 40
0
 40
1
 40
1
 40
1
 40
1
 10
0.807595
 20
0.136254
 30
0.0
 10
0.808511
 20
0.135900
 30
0.0
 10
0.808688
 20
0.138042
 30
0.0
 10
0.808688
 20
0.149481
 30
0.0
  0
LWPOLYLINE
  5
120
100
AcDbEntity
  8
Calque_1
 62
7
100
AcDbPolyline
 90
7
 70
0
 10
0.521560
 20
0.148387
 30
0.0
 10
0.508605
 20
0.148375
 30
0.0
 10
0.508605
 20
0.141801
 30
0.0
 10
0.508605
 20
0.135227
 30
0.0
 10
0.635058
 20
0.135227
 30
0.0
 10
0.761511
 20
0.135227
 30
0.0
 10
0.761511
 20
0.148762
 30
0.0
  0
SPLINE
  5
121
100
AcDbEntity
  8
Calque_1
 62
7
100
AcDbSpline
 70
8
 71
3
 72
8
 73
4
 74
0
 40
0
 40
0
 40
0
 40
0
 40
1
 40
1
 40
1
 40
1
 10
1.230959
 20
0.260633
 30
0.0
 10
1.230959
 20
0.220416
 30
0.0
 10
1.231038
 20
0.219554
 30
0.0
 10
1.236487
 20
0.213667
 30
0.0
  0
SPLINE
  5
122
100
AcDbEntity
  8
Calque_1
 62
7
100
AcDbSpline
 70
8
 71
3
 72
8
 73
4
 74
0
 40
0
 40
0
 40
0
 40
0
 40
1
 40
1
 40
1
 40
1
 10
1.236487
 20
0.213667
 30
0.0
 10
1.240117
 20
0.209730
 30
0.0
 10
1.243499
 20
0.208404
 30
0.0
 10
1.249908
 20
0.208404
 30
0.0
  0
SPLINE
  5
123
100
AcDbEntity
  8
Calque_1
 62
7
100
AcDbSpline
 70
8
 71
3
 72
8
 73
4
 74
0
 40
0
 40
0
 40
0
 40
0
 40
1
 40
1
 40
1
 40
1
 10
1.249908
 20
0.208404
 30
0.0
 10
1.260929
 20
0.208404
 30
0.0
 10
1.269136
 20
0.214339
 30
0.0
 10
1.273655
 20
0.225577
 30
0.0
  0
SPLINE
  5
124
100
AcDbEntity
  8
Calque_1
 62
7
100
AcDbSpline
 70
8
 71
3
 72
8
 73
4
 74
0
 40
0
 40
0
 40
0
 40
0
 40
1
 40
1
 40
1
 40
1
 10
1.273655
 20
0.225577
 30
0.0
 10
1.275372
 20
0.229839
 30
0.0
 10
1.275415
 20
0.230723
 30
0.0
 10
1.275659
 20
0.263006
 30
0.0
  0
LWPOLYLINE
  5
125
100
AcDbEntity
  8
Calque_1
 62
7
100
AcDbPolyline
 90
21
 70
0
 10
0.808688
 20
0.149481
 30
0.0
 10
0.808688
 20
0.163128
 30
0.0
 10
0.815842
 20
0.162892
 30
0.0
 10
0.822996
 20
0.162655
 30
0.0
 10
0.823201
 20
0.148928
 30
0.0
 10
0.823405
 20
0.135199
 30
0.0
 10
0.904210
 20
0.135199
 30
0.0
 10
0.985013
 20
0.135199
 30
0.0
 10
0.985013
 20
0.144480
 30
0.0
 10
0.985013
 20
0.153761
 30
0.0
 10
1.033738
 20
0.153761
 30
0.0
 10
1.082464
 20
0.153761
 30
0.0
 10
1.082464
 20
0.144480
 30
0.0
 10
1.082464
 20
0.135199
 30
0.0
 10
1.148590
 20
0.135199
 30
0.0
 10
1.214717
 20
0.135199
 30
0.0
 10
1.214717
 20
0.215634
 30
0.0
 10
1.214717
 20
0.296069
 30
0.0
 10
1.222838
 20
0.296069
 30
0.0
 10
1.230959
 20
0.296069
 30
0.0
 10
1.230959
 20
0.260633
 30
0.0
  0
SPLINE
  5
126
100
AcDbEntity
  8
Calque_1
 62
7
100
AcDbSpline
 70
8
 71
3
 72
8
 73
4
 74
0
 40
0
 40
0
 40
0
 40
0
 40
1
 40
1
 40
1
 40
1
 10
1.293395
 20
0.210108
 30
0.0
 10
1.295191
 20
0.208313
 30
0.0
 10
1.298584
 20
0.207852
 30
0.0
 10
1.302328
 20
0.208888
 30
0.0
  0
LWPOLYLINE
  5
127
100
AcDbEntity
  8
Calque_1
 62
7
100
AcDbPolyline
 90
7
 70
0
 10
1.275659
 20
0.263006
 30
0.0
 10
1.275935
 20
0.296069
 30
0.0
 10
1.283598
 20
0.296069
 30
0.0
 10
1.291262
 20
0.296069
 30
0.0
 10
1.291458
 20
0.253939
 30
0.0
 10
1.291695
 20
0.211809
 30
0.0
 10
1.293395
 20
0.210108
 30
0.0
  0
SPLINE
  5
128
100
AcDbEntity
  8
Calque_1
 62
7
100
AcDbSpline
 70
8
 71
3
 72
8
 73
4
 74
0
 40
0
 40
0
 40
0
 40
0
 40
1
 40
1
 40
1
 40
1
 10
1.304454
 20
0.202917
 30
0.0
 10
1.304454
 20
0.196909
 30
0.0
 10
1.304296
 20
0.196277
 30
0.0
 10
1.302717
 20
0.195426
 30
0.0
  0
SPLINE
  5
129
100
AcDbEntity
  8
Calque_1
 62
7
100
AcDbSpline
 70
8
 71
3
 72
8
 73
4
 74
0
 40
0
 40
0
 40
0
 40
0
 40
1
 40
1
 40
1
 40
1
 10
1.302717
 20
0.195426
 30
0.0
 10
1.300135
 20
0.194044
 30
0.0
 10
1.290475
 20
0.193631
 30
0.0
 10
1.286964
 20
0.194749
 30
0.0
  0
SPLINE
  5
12a
100
AcDbEntity
  8
Calque_1
 62
7
100
AcDbSpline
 70
8
 71
3
 72
8
 73
4
 74
0
 40
0
 40
0
 40
0
 40
0
 40
1
 40
1
 40
1
 40
1
 10
1.286964
 20
0.194749
 30
0.0
 10
1.280890
 20
0.196690
 30
0.0
 10
1.276610
 20
0.203302
 30
0.0
 10
1.276610
 20
0.210748
 30
0.0
  0
SPLINE
  5
12b
100
AcDbEntity
  8
Calque_1
 62
7
100
AcDbSpline
 70
8
 71
3
 72
8
 73
4
 74
0
 40
0
 40
0
 40
0
 40
0
 40
1
 40
1
 40
1
 40
1
 10
1.276610
 20
0.210748
 30
0.0
 10
1.276610
 20
0.212161
 30
0.0
 10
1.276335
 20
0.213315
 30
0.0
 10
1.276028
 20
0.213311
 30
0.0
  0
SPLINE
  5
12c
100
AcDbEntity
  8
Calque_1
 62
7
100
AcDbSpline
 70
8
 71
3
 72
8
 73
4
 74
0
 40
0
 40
0
 40
0
 40
0
 40
1
 40
1
 40
1
 40
1
 10
1.276028
 20
0.213311
 30
0.0
 10
1.275713
 20
0.213310
 30
0.0
 10
1.274441
 20
0.211386
 30
0.0
 10
1.273213
 20
0.209031
 30
0.0
  0
SPLINE
  5
12d
100
AcDbEntity
  8
Calque_1
 62
7
100
AcDbSpline
 70
8
 71
3
 72
8
 73
4
 74
0
 40
0
 40
0
 40
0
 40
0
 40
1
 40
1
 40
1
 40
1
 10
1.273213
 20
0.209031
 30
0.0
 10
1.268549
 20
0.200104
 30
0.0
 10
1.260060
 20
0.194724
 30
0.0
 10
1.249722
 20
0.194142
 30
0.0
  0
SPLINE
  5
12e
100
AcDbEntity
  8
Calque_1
 62
7
100
AcDbSpline
 70
8
 71
3
 72
8
 73
4
 74
0
 40
0
 40
0
 40
0
 40
0
 40
1
 40
1
 40
1
 40
1
 10
1.249722
 20
0.194142
 30
0.0
 10
1.241247
 20
0.193662
 30
0.0
 10
1.237332
 20
0.194828
 30
0.0
 10
1.232356
 20
0.199302
 30
0.0
  0
LWPOLYLINE
  5
12f
100
AcDbEntity
  8
Calque_1
 62
7
100
AcDbPolyline
 90
3
 70
0
 10
1.302328
 20
0.208888
 30
0.0
 10
1.304454
 20
0.209478
 30
0.0
 10
1.304454
 20
0.202917
 30
0.0
  0
SPLINE
  5
130
100
AcDbEntity
  8
Calque_1
 62
7
100
AcDbSpline
 70
8
 71
3
 72
8
 73
4
 74
0
 40
0
 40
0
 40
0
 40
0
 40
1
 40
1
 40
1
 40
1
 10
1.228951
 20
0.187397
 30
0.0
 10
1.229266
 20
0.178894
 30
0.0
 10
1.229821
 20
0.169500
 30
0.0
 10
1.230211
 20
0.166522
 30
0.0
  0
SPLINE
  5
131
100
AcDbEntity
  8
Calque_1
 62
7
100
AcDbSpline
 70
8
 71
3
 72
8
 73
4
 74
0
 40
0
 40
0
 40
0
 40
0
 40
1
 40
1
 40
1
 40
1
 10
1.230211
 20
0.166522
 30
0.0
 10
1.230604
 20
0.163546
 30
0.0
 10
1.230939
 20
0.142576
 30
0.0
 10
1.230947
 20
0.119924
 30
0.0
  0
LWPOLYLINE
  5
132
100
AcDbEntity
  8
Calque_1
 62
7
100
AcDbPolyline
 90
3
 70
0
 10
1.232356
 20
0.199302
 30
0.0
 10
1.228404
 20
0.202857
 30
0.0
 10
1.228951
 20
0.187397
 30
0.0
  0
SPLINE
  5
133
100
AcDbEntity
  8
Calque_1
 62
7
100
AcDbSpline
 70
8
 71
3
 72
8
 73
4
 74
0
 40
0
 40
0
 40
0
 40
0
 40
1
 40
1
 40
1
 40
1
 10
0.245340
 20
0.123963
 30
0.0
 10
0.251908
 20
0.125050
 30
0.0
 10
0.257322
 20
0.126546
 30
0.0
 10
0.255112
 20
0.126660
 30
0.0
  0
SPLINE
  5
134
100
AcDbEntity
  8
Calque_1
 62
7
100
AcDbSpline
 70
8
 71
3
 72
8
 73
4
 74
0
 40
0
 40
0
 40
0
 40
0
 40
1
 40
1
 40
1
 40
1
 10
0.255112
 20
0.126660
 30
0.0
 10
0.254354
 20
0.126690
 30
0.0
 10
0.254145
 20
0.133902
 30
0.0
 10
0.254145
 20
0.159966
 30
0.0
  0
LWPOLYLINE
  5
135
100
AcDbEntity
  8
Calque_1
 62
7
100
AcDbPolyline
 90
5
 70
0
 10
1.230947
 20
0.119924
 30
0.0
 10
1.230972
 20
0.078740
 30
0.0
 10
1.222851
 20
0.078740
 30
0.0
 10
1.214730
 20
0.078740
 30
0.0
 10
1.214725
 20
0.099637
 30
0.0
  0
SPLINE
  5
136
100
AcDbEntity
  8
Calque_1
 62
7
100
AcDbSpline
 70
8
 71
3
 72
8
 73
4
 74
0
 40
0
 40
0
 40
0
 40
0
 40
1
 40
1
 40
1
 40
1
 10
0.205429
 20
0.262567
 30
0.0
 10
0.205430
 20
0.300706
 30
0.0
 10
0.205315
 20
0.332026
 30
0.0
 10
0.205177
 20
0.332166
 30
0.0
  0
SPLINE
  5
137
100
AcDbEntity
  8
Calque_1
 62
7
100
AcDbSpline
 70
8
 71
3
 72
8
 73
4
 74
0
 40
0
 40
0
 40
0
 40
0
 40
1
 40
1
 40
1
 40
1
 10
0.205177
 20
0.332166
 30
0.0
 10
0.205035
 20
0.332324
 30
0.0
 10
0.201675
 20
0.323811
 30
0.0
 10
0.197708
 20
0.313287
 30
0.0
  0
SPLINE
  5
138
100
AcDbEntity
  8
Calque_1
 62
7
100
AcDbSpline
 70
8
 71
3
 72
8
 73
4
 74
0
 40
0
 40
0
 40
0
 40
0
 40
1
 40
1
 40
1
 40
1
 10
0.197708
 20
0.313287
 30
0.0
 10
0.193740
 20
0.302764
 30
0.0
 10
0.189471
 20
0.291456
 30
0.0
 10
0.188222
 20
0.288159
 30
0.0
  0
LWPOLYLINE
  5
139
100
AcDbEntity
  8
Calque_1
 62
7
100
AcDbPolyline
 90
5
 70
0
 10
0.254145
 20
0.159966
 30
0.0
 10
0.254145
 20
0.193223
 30
0.0
 10
0.229786
 20
0.193223
 30
0.0
 10
0.205427
 20
0.193223
 30
0.0
 10
0.205429
 20
0.262567
 30
0.0
  0
SPLINE
  5
13a
100
AcDbEntity
  8
Calque_1
 62
7
100
AcDbSpline
 70
8
 71
3
 72
8
 73
4
 74
0
 40
0
 40
0
 40
0
 40
0
 40
1
 40
1
 40
1
 40
1
 10
0.147415
 20
0.304208
 30
0.0
 10
0.147415
 20
0.324965
 30
0.0
 10
0.147120
 20
0.340172
 30
0.0
 10
0.146720
 20
0.340172
 30
0.0
  0
SPLINE
  5
13b
100
AcDbEntity
  8
Calque_1
 62
7
100
AcDbSpline
 70
8
 71
3
 72
8
 73
4
 74
0
 40
0
 40
0
 40
0
 40
0
 40
1
 40
1
 40
1
 40
1
 10
0.146720
 20
0.340172
 30
0.0
 10
0.145444
 20
0.340172
 30
0.0
 10
0.134338
 20
0.329275
 30
0.0
 10
0.129501
 20
0.323278
 30
0.0
  0
SPLINE
  5
13c
100
AcDbEntity
  8
Calque_1
 62
7
100
AcDbSpline
 70
8
 71
3
 72
8
 73
4
 74
0
 40
0
 40
0
 40
0
 40
0
 40
1
 40
1
 40
1
 40
1
 10
0.129501
 20
0.323278
 30
0.0
 10
0.116678
 20
0.307377
 30
0.0
 10
0.108388
 20
0.289959
 30
0.0
 10
0.103954
 20
0.269597
 30
0.0
  0
SPLINE
  5
13d
100
AcDbEntity
  8
Calque_1
 62
7
100
AcDbSpline
 70
8
 71
3
 72
8
 73
4
 74
0
 40
0
 40
0
 40
0
 40
0
 40
1
 40
1
 40
1
 40
1
 10
0.103954
 20
0.269597
 30
0.0
 10
0.102466
 20
0.262770
 30
0.0
 10
0.102227
 20
0.259364
 30
0.0
 10
0.102227
 20
0.245042
 30
0.0
  0
SPLINE
  5
13e
100
AcDbEntity
  8
Calque_1
 62
7
100
AcDbSpline
 70
8
 71
3
 72
8
 73
4
 74
0
 40
0
 40
0
 40
0
 40
0
 40
1
 40
1
 40
1
 40
1
 10
0.102227
 20
0.245042
 30
0.0
 10
0.102227
 20
0.226766
 30
0.0
 10
0.103092
 20
0.220904
 30
0.0
 10
0.107966
 20
0.206171
 30
0.0
  0
SPLINE
  5
13f
100
AcDbEntity
  8
Calque_1
 62
7
100
AcDbSpline
 70
8
 71
3
 72
8
 73
4
 74
0
 40
0
 40
0
 40
0
 40
0
 40
1
 40
1
 40
1
 40
1
 10
0.107966
 20
0.206171
 30
0.0
 10
0.122904
 20
0.161015
 30
0.0
 10
0.163588
 20
0.128377
 30
0.0
 10
0.211881
 20
0.122806
 30
0.0
  0
SPLINE
  5
140
100
AcDbEntity
  8
Calque_1
 62
7
100
AcDbSpline
 70
8
 71
3
 72
8
 73
4
 74
0
 40
0
 40
0
 40
0
 40
0
 40
1
 40
1
 40
1
 40
1
 10
0.211881
 20
0.122806
 30
0.0
 10
0.219394
 20
0.121940
 30
0.0
 10
0.236747
 20
0.122531
 30
0.0
 10
0.245341
 20
0.123968
 30
0.0
  0
LWPOLYLINE
  5
141
100
AcDbEntity
  8
Calque_1
 62
7
100
AcDbPolyline
 90
11
 70
0
 10
0.188222
 20
0.288159
 30
0.0
 10
0.185951
 20
0.282166
 30
0.0
 10
0.181084
 20
0.282166
 30
0.0
 10
0.176219
 20
0.282166
 30
0.0
 10
0.166650
 20
0.307704
 30
0.0
 10
0.157081
 20
0.333242
 30
0.0
 10
0.156880
 20
0.300743
 30
0.0
 10
0.156680
 20
0.268244
 30
0.0
 10
0.152048
 20
0.268244
 30
0.0
 10
0.147415
 20
0.268244
 30
0.0
 10
0.147415
 20
0.304208
 30
0.0
  0
SPLINE
  5
142
100
AcDbEntity
  8
Calque_1
 62
7
100
AcDbSpline
 70
8
 71
3
 72
8
 73
4
 74
0
 40
0
 40
0
 40
0
 40
0
 40
1
 40
1
 40
1
 40
1
 10
0.278507
 20
0.134754
 30
0.0
 10
0.291775
 20
0.141277
 30
0.0
 10
0.300569
 20
0.147608
 30
0.0
 10
0.311378
 20
0.158416
 30
0.0
  0
SPLINE
  5
143
100
AcDbEntity
  8
Calque_1
 62
7
100
AcDbSpline
 70
8
 71
3
 72
8
 73
4
 74
0
 40
0
 40
0
 40
0
 40
0
 40
1
 40
1
 40
1
 40
1
 10
0.311378
 20
0.158416
 30
0.0
 10
0.321607
 20
0.168645
 30
0.0
 10
0.328020
 20
0.177351
 30
0.0
 10
0.334140
 20
0.189316
 30
0.0
  0
SPLINE
  5
144
100
AcDbEntity
  8
Calque_1
 62
7
100
AcDbSpline
 70
8
 71
3
 72
8
 73
4
 74
0
 40
0
 40
0
 40
0
 40
0
 40
1
 40
1
 40
1
 40
1
 10
0.334140
 20
0.189316
 30
0.0
 10
0.357039
 20
0.234083
 30
0.0
 10
0.350225
 20
0.288529
 30
0.0
 10
0.316965
 20
0.326549
 30
0.0
  0
SPLINE
  5
145
100
AcDbEntity
  8
Calque_1
 62
7
100
AcDbSpline
 70
8
 71
3
 72
8
 73
4
 74
0
 40
0
 40
0
 40
0
 40
0
 40
1
 40
1
 40
1
 40
1
 10
0.316965
 20
0.326549
 30
0.0
 10
0.299900
 20
0.346057
 30
0.0
 10
0.275624
 20
0.360185
 30
0.0
 10
0.249627
 20
0.365737
 30
0.0
  0
SPLINE
  5
146
100
AcDbEntity
  8
Calque_1
 62
7
100
AcDbSpline
 70
8
 71
3
 72
8
 73
4
 74
0
 40
0
 40
0
 40
0
 40
0
 40
1
 40
1
 40
1
 40
1
 10
0.249627
 20
0.365737
 30
0.0
 10
0.239858
 20
0.367824
 30
0.0
 10
0.220032
 20
0.368579
 30
0.0
 10
0.209562
 20
0.367265
 30
0.0
  0
SPLINE
  5
147
100
AcDbEntity
  8
Calque_1
 62
7
100
AcDbSpline
 70
8
 71
3
 72
8
 73
4
 74
0
 40
0
 40
0
 40
0
 40
0
 40
1
 40
1
 40
1
 40
1
 10
0.209562
 20
0.367265
 30
0.0
 10
0.190504
 20
0.364871
 30
0.0
 10
0.172122
 20
0.358012
 30
0.0
 10
0.155921
 20
0.347243
 30
0.0
  0
LWPOLYLINE
  5
148
100
AcDbEntity
  8
Calque_1
 62
7
100
AcDbPolyline
 90
1
 70
1
 10
0.245341
 20
0.123968
 30
0.0
  0
SPLINE
  5
149
100
AcDbEntity
  8
Calque_1
 62
7
100
AcDbSpline
 70
8
 71
3
 72
8
 73
4
 74
0
 40
0
 40
0
 40
0
 40
0
 40
1
 40
1
 40
1
 40
1
 10
0.169093
 20
0.323289
 30
0.0
 10
0.180524
 20
0.292781
 30
0.0
 10
0.180826
 20
0.292031
 30
0.0
 10
0.181412
 20
0.292706
 30
0.0
  0
SPLINE
  5
14a
100
AcDbEntity
  8
Calque_1
 62
7
100
AcDbSpline
 70
8
 71
3
 72
8
 73
4
 74
0
 40
0
 40
0
 40
0
 40
0
 40
1
 40
1
 40
1
 40
1
 10
0.181412
 20
0.292706
 30
0.0
 10
0.181719
 20
0.293060
 30
0.0
 10
0.186115
 20
0.304398
 30
0.0
 10
0.191181
 20
0.317902
 30
0.0
  0
LWPOLYLINE
  5
14b
100
AcDbEntity
  8
Calque_1
 62
7
100
AcDbPolyline
 90
5
 70
0
 10
0.155921
 20
0.347243
 30
0.0
 10
0.149347
 20
0.342874
 30
0.0
 10
0.155640
 20
0.342637
 30
0.0
 10
0.161933
 20
0.342401
 30
0.0
 10
0.169093
 20
0.323289
 30
0.0
  0
SPLINE
  5
14c
100
AcDbEntity
  8
Calque_1
 62
7
100
AcDbSpline
 70
8
 71
3
 72
8
 73
4
 74
0
 40
0
 40
0
 40
0
 40
0
 40
1
 40
1
 40
1
 40
1
 10
0.251245
 20
0.200764
 30
0.0
 10
0.287003
 20
0.200528
 30
0.0
 10
0.287016
 20
0.200528
 30
0.0
 10
0.290666
 20
0.198721
 30
0.0
  0
SPLINE
  5
14d
100
AcDbEntity
  8
Calque_1
 62
7
100
AcDbSpline
 70
8
 71
3
 72
8
 73
4
 74
0
 40
0
 40
0
 40
0
 40
0
 40
1
 40
1
 40
1
 40
1
 10
0.290666
 20
0.198721
 30
0.0
 10
0.297958
 20
0.195095
 30
0.0
 10
0.302097
 20
0.187913
 30
0.0
 10
0.302097
 20
0.178880
 30
0.0
  0
SPLINE
  5
14e
100
AcDbEntity
  8
Calque_1
 62
7
100
AcDbSpline
 70
8
 71
3
 72
8
 73
4
 74
0
 40
0
 40
0
 40
0
 40
0
 40
1
 40
1
 40
1
 40
1
 10
0.302097
 20
0.178880
 30
0.0
 10
0.302097
 20
0.169576
 30
0.0
 10
0.297822
 20
0.162415
 30
0.0
 10
0.290296
 20
0.159108
 30
0.0
  0
SPLINE
  5
14f
100
AcDbEntity
  8
Calque_1
 62
7
100
AcDbSpline
 70
8
 71
3
 72
8
 73
4
 74
0
 40
0
 40
0
 40
0
 40
0
 40
1
 40
1
 40
1
 40
1
 10
0.290296
 20
0.159108
 30
0.0
 10
0.286899
 20
0.157616
 30
0.0
 10
0.284423
 20
0.157258
 30
0.0
 10
0.275027
 20
0.156888
 30
0.0
  0
LWPOLYLINE
  5
150
100
AcDbEntity
  8
Calque_1
 62
7
100
AcDbPolyline
 90
23
 70
0
 10
0.191181
 20
0.317902
 30
0.0
 10
0.200393
 20
0.342455
 30
0.0
 10
0.207933
 20
0.342458
 30
0.0
 10
0.215474
 20
0.342461
 30
0.0
 10
0.215474
 20
0.304951
 30
0.0
 10
0.215474
 20
0.267440
 30
0.0
 10
0.234036
 20
0.267440
 30
0.0
 10
0.252598
 20
0.267440
 30
0.0
 10
0.252598
 20
0.263574
 30
0.0
 10
0.252598
 20
0.259708
 30
0.0
 10
0.234036
 20
0.259708
 30
0.0
 10
0.215474
 20
0.259708
 30
0.0
 10
0.215474
 20
0.248493
 30
0.0
 10
0.215474
 20
0.237279
 30
0.0
 10
0.233263
 20
0.237279
 30
0.0
 10
0.251051
 20
0.237279
 30
0.0
 10
0.251051
 20
0.233025
 30
0.0
 10
0.251051
 20
0.228771
 30
0.0
 10
0.233263
 20
0.228771
 30
0.0
 10
0.215474
 20
0.228771
 30
0.0
 10
0.215474
 20
0.214886
 30
0.0
 10
0.215474
 20
0.201000
 30
0.0
 10
0.251245
 20
0.200764
 30
0.0
  0
SPLINE
  5
151
100
AcDbEntity
  8
Calque_1
 62
7
100
AcDbSpline
 70
8
 71
3
 72
8
 73
4
 74
0
 40
0
 40
0
 40
0
 40
0
 40
1
 40
1
 40
1
 40
1
 10
0.265919
 20
0.129286
 30
0.0
 10
0.267312
 20
0.129562
 30
0.0
 10
0.272976
 20
0.132003
 30
0.0
 10
0.278505
 20
0.134722
 30
0.0
  0
LWPOLYLINE
  5
152
100
AcDbEntity
  8
Calque_1
 62
7
100
AcDbPolyline
 90
5
 70
0
 10
0.275027
 20
0.156888
 30
0.0
 10
0.263813
 20
0.156451
 30
0.0
 10
0.263600
 20
0.142623
 30
0.0
 10
0.263387
 20
0.128794
 30
0.0
 10
0.265919
 20
0.129286
 30
0.0
  0
SPLINE
  5
153
100
AcDbEntity
  8
Calque_1
 62
7
100
AcDbSpline
 70
8
 71
3
 72
8
 73
4
 74
0
 40
0
 40
0
 40
0
 40
0
 40
1
 40
1
 40
1
 40
1
 10
0.283006
 20
0.165724
 30
0.0
 10
0.288899
 20
0.167823
 30
0.0
 10
0.291537
 20
0.171904
 30
0.0
 10
0.291537
 20
0.178912
 30
0.0
  0
SPLINE
  5
154
100
AcDbEntity
  8
Calque_1
 62
7
100
AcDbSpline
 70
8
 71
3
 72
8
 73
4
 74
0
 40
0
 40
0
 40
0
 40
0
 40
1
 40
1
 40
1
 40
1
 10
0.291537
 20
0.178912
 30
0.0
 10
0.291537
 20
0.186072
 30
0.0
 10
0.288414
 20
0.190675
 30
0.0
 10
0.282375
 20
0.192420
 30
0.0
  0
SPLINE
  5
155
100
AcDbEntity
  8
Calque_1
 62
7
100
AcDbSpline
 70
8
 71
3
 72
8
 73
4
 74
0
 40
0
 40
0
 40
0
 40
0
 40
1
 40
1
 40
1
 40
1
 10
0.282375
 20
0.192420
 30
0.0
 10
0.280642
 20
0.192920
 30
0.0
 10
0.275877
 20
0.193207
 30
0.0
 10
0.271547
 20
0.193073
 30
0.0
  0
LWPOLYLINE
  5
156
100
AcDbEntity
  8
Calque_1
 62
7
100
AcDbPolyline
 90
1
 70
1
 10
0.278505
 20
0.134722
 30
0.0
  0
SPLINE
  5
157
100
AcDbEntity
  8
Calque_1
 62
7
100
AcDbSpline
 70
8
 71
3
 72
8
 73
4
 74
0
 40
0
 40
0
 40
0
 40
0
 40
1
 40
1
 40
1
 40
1
 10
0.263600
 20
0.179717
 30
0.0
 10
0.263482
 20
0.172502
 30
0.0
 10
0.263561
 20
0.166150
 30
0.0
 10
0.263769
 20
0.165602
 30
0.0
  0
SPLINE
  5
158
100
AcDbEntity
  8
Calque_1
 62
7
100
AcDbSpline
 70
8
 71
3
 72
8
 73
4
 74
0
 40
0
 40
0
 40
0
 40
0
 40
1
 40
1
 40
1
 40
1
 10
0.263769
 20
0.165602
 30
0.0
 10
0.264300
 20
0.164216
 30
0.0
 10
0.279042
 20
0.164311
 30
0.0
 10
0.283006
 20
0.165720
 30
0.0
  0
LWPOLYLINE
  5
159
100
AcDbEntity
  8
Calque_1
 62
7
100
AcDbPolyline
 90
3
 70
0
 10
0.271547
 20
0.193073
 30
0.0
 10
0.263813
 20
0.192837
 30
0.0
 10
0.263600
 20
0.179717
 30
0.0
  0
SPLINE
  5
15a
100
AcDbEntity
  8
Calque_1
 62
7
100
AcDbSpline
 70
8
 71
3
 72
8
 73
4
 74
0
 40
0
 40
0
 40
0
 40
0
 40
1
 40
1
 40
1
 40
1
 10
0.676429
 20
0.195056
 30
0.0
 10
0.668223
 20
0.197442
 30
0.0
 10
0.661860
 20
0.202198
 30
0.0
 10
0.658424
 20
0.208511
 30
0.0
  0
SPLINE
  5
15b
100
AcDbEntity
  8
Calque_1
 62
7
100
AcDbSpline
 70
8
 71
3
 72
8
 73
4
 74
0
 40
0
 40
0
 40
0
 40
0
 40
1
 40
1
 40
1
 40
1
 10
0.658424
 20
0.208511
 30
0.0
 10
0.654264
 20
0.216155
 30
0.0
 10
0.654000
 20
0.218743
 30
0.0
 10
0.654000
 20
0.251775
 30
0.0
  0
LWPOLYLINE
  5
15c
100
AcDbEntity
  8
Calque_1
 62
7
100
AcDbPolyline
 90
1
 70
1
 10
0.283006
 20
0.165720
 30
0.0
  0
SPLINE
  5
15d
100
AcDbEntity
  8
Calque_1
 62
7
100
AcDbSpline
 70
8
 71
3
 72
8
 73
4
 74
0
 40
0
 40
0
 40
0
 40
0
 40
1
 40
1
 40
1
 40
1
 10
0.641625
 20
0.296084
 30
0.0
 10
0.654738
 20
0.296084
 30
0.0
 10
0.654773
 20
0.296089
 30
0.0
 10
0.654795
 20
0.297824
 30
0.0
  0
SPLINE
  5
15e
100
AcDbEntity
  8
Calque_1
 62
7
100
AcDbSpline
 70
8
 71
3
 72
8
 73
4
 74
0
 40
0
 40
0
 40
0
 40
0
 40
1
 40
1
 40
1
 40
1
 10
0.654795
 20
0.297824
 30
0.0
 10
0.654807
 20
0.298781
 30
0.0
 10
0.655319
 20
0.306003
 30
0.0
 10
0.655933
 20
0.313872
 30
0.0
  0
SPLINE
  5
15f
100
AcDbEntity
  8
Calque_1
 62
7
100
AcDbSpline
 70
8
 71
3
 72
8
 73
4
 74
0
 40
0
 40
0
 40
0
 40
0
 40
1
 40
1
 40
1
 40
1
 10
0.655933
 20
0.313872
 30
0.0
 10
0.656547
 20
0.321742
 30
0.0
 10
0.657059
 20
0.328964
 30
0.0
 10
0.657071
 20
0.329921
 30
0.0
  0
SPLINE
  5
160
100
AcDbEntity
  8
Calque_1
 62
7
100
AcDbSpline
 70
8
 71
3
 72
8
 73
4
 74
0
 40
0
 40
0
 40
0
 40
0
 40
1
 40
1
 40
1
 40
1
 10
0.657071
 20
0.329921
 30
0.0
 10
0.657092
 20
0.331578
 30
0.0
 10
0.657386
 20
0.331661
 30
0.0
 10
0.663280
 20
0.331661
 30
0.0
  0
LWPOLYLINE
  5
161
100
AcDbEntity
  8
Calque_1
 62
7
100
AcDbPolyline
 90
7
 70
0
 10
0.654000
 20
0.251775
 30
0.0
 10
0.654000
 20
0.282163
 30
0.0
 10
0.641238
 20
0.282163
 30
0.0
 10
0.628477
 20
0.282163
 30
0.0
 10
0.628477
 20
0.289123
 30
0.0
 10
0.628477
 20
0.296084
 30
0.0
 10
0.641625
 20
0.296084
 30
0.0
  0
SPLINE
  5
162
100
AcDbEntity
  8
Calque_1
 62
7
100
AcDbSpline
 70
8
 71
3
 72
8
 73
4
 74
0
 40
0
 40
0
 40
0
 40
0
 40
1
 40
1
 40
1
 40
1
 10
0.672177
 20
0.217583
 30
0.0
 10
0.674881
 20
0.212174
 30
0.0
 10
0.677814
 20
0.209926
 30
0.0
 10
0.683786
 20
0.208687
 30
0.0
  0
SPLINE
  5
163
100
AcDbEntity
  8
Calque_1
 62
7
100
AcDbSpline
 70
8
 71
3
 72
8
 73
4
 74
0
 40
0
 40
0
 40
0
 40
0
 40
1
 40
1
 40
1
 40
1
 10
0.683786
 20
0.208687
 30
0.0
 10
0.688832
 20
0.207639
 30
0.0
 10
0.695426
 20
0.208657
 30
0.0
 10
0.699338
 20
0.211065
 30
0.0
  0
SPLINE
  5
164
100
AcDbEntity
  8
Calque_1
 62
7
100
AcDbSpline
 70
8
 71
3
 72
8
 73
4
 74
0
 40
0
 40
0
 40
0
 40
0
 40
1
 40
1
 40
1
 40
1
 10
0.699338
 20
0.211065
 30
0.0
 10
0.704371
 20
0.214175
 30
0.0
 10
0.707367
 20
0.222288
 30
0.0
 10
0.707367
 20
0.232805
 30
0.0
  0
LWPOLYLINE
  5
165
100
AcDbEntity
  8
Calque_1
 62
7
100
AcDbPolyline
 90
13
 70
0
 10
0.663280
 20
0.331661
 30
0.0
 10
0.669468
 20
0.331661
 30
0.0
 10
0.669468
 20
0.313872
 30
0.0
 10
0.669468
 20
0.296084
 30
0.0
 10
0.692284
 20
0.296084
 30
0.0
 10
0.715099
 20
0.296084
 30
0.0
 10
0.715099
 20
0.289123
 30
0.0
 10
0.715099
 20
0.282163
 30
0.0
 10
0.692242
 20
0.282163
 30
0.0
 10
0.669384
 20
0.282163
 30
0.0
 10
0.669620
 20
0.252193
 30
0.0
 10
0.669857
 20
0.222223
 30
0.0
 10
0.672177
 20
0.217583
 30
0.0
  0
SPLINE
  5
166
100
AcDbEntity
  8
Calque_1
 62
7
100
AcDbSpline
 70
8
 71
3
 72
8
 73
4
 74
0
 40
0
 40
0
 40
0
 40
0
 40
1
 40
1
 40
1
 40
1
 10
0.722814
 20
0.234016
 30
0.0
 10
0.722767
 20
0.226607
 30
0.0
 10
0.721324
 20
0.216528
 30
0.0
 10
0.719686
 20
0.212167
 30
0.0
  0
SPLINE
  5
167
100
AcDbEntity
  8
Calque_1
 62
7
100
AcDbSpline
 70
8
 71
3
 72
8
 73
4
 74
0
 40
0
 40
0
 40
0
 40
0
 40
1
 40
1
 40
1
 40
1
 10
0.719686
 20
0.212167
 30
0.0
 10
0.718403
 20
0.208750
 30
0.0
 10
0.716701
 20
0.206285
 30
0.0
 10
0.713235
 20
0.202819
 30
0.0
  0
SPLINE
  5
168
100
AcDbEntity
  8
Calque_1
 62
7
100
AcDbSpline
 70
8
 71
3
 72
8
 73
4
 74
0
 40
0
 40
0
 40
0
 40
0
 40
1
 40
1
 40
1
 40
1
 10
0.713235
 20
0.202819
 30
0.0
 10
0.706577
 20
0.196161
 30
0.0
 10
0.702255
 20
0.194601
 30
0.0
 10
0.689579
 20
0.194284
 30
0.0
  0
SPLINE
  5
169
100
AcDbEntity
  8
Calque_1
 62
7
100
AcDbSpline
 70
8
 71
3
 72
8
 73
4
 74
0
 40
0
 40
0
 40
0
 40
0
 40
1
 40
1
 40
1
 40
1
 10
0.689579
 20
0.194284
 30
0.0
 10
0.683216
 20
0.194127
 30
0.0
 10
0.678721
 20
0.194402
 30
0.0
 10
0.676430
 20
0.195056
 30
0.0
  0
LWPOLYLINE
  5
16a
100
AcDbEntity
  8
Calque_1
 62
7
100
AcDbPolyline
 90
5
 70
0
 10
0.707367
 20
0.232805
 30
0.0
 10
0.707367
 20
0.237304
 30
0.0
 10
0.715101
 20
0.237304
 30
0.0
 10
0.722835
 20
0.237304
 30
0.0
 10
0.722814
 20
0.234016
 30
0.0
  0
SPLINE
  5
16b
100
AcDbEntity
  8
Calque_1
 62
7
100
AcDbSpline
 70
8
 71
3
 72
8
 73
4
 74
0
 40
0
 40
0
 40
0
 40
0
 40
1
 40
1
 40
1
 40
1
 10
0.895305
 20
0.195213
 30
0.0
 10
0.877232
 20
0.200010
 30
0.0
 10
0.867202
 20
0.214178
 30
0.0
 10
0.865127
 20
0.237842
 30
0.0
  0
SPLINE
  5
16c
100
AcDbEntity
  8
Calque_1
 62
7
100
AcDbSpline
 70
8
 71
3
 72
8
 73
4
 74
0
 40
0
 40
0
 40
0
 40
0
 40
1
 40
1
 40
1
 40
1
 10
0.865127
 20
0.237842
 30
0.0
 10
0.863240
 20
0.259366
 30
0.0
 10
0.867980
 20
0.277379
 30
0.0
 10
0.878223
 20
0.287623
 30
0.0
  0
SPLINE
  5
16d
100
AcDbEntity
  8
Calque_1
 62
7
100
AcDbSpline
 70
8
 71
3
 72
8
 73
4
 74
0
 40
0
 40
0
 40
0
 40
0
 40
1
 40
1
 40
1
 40
1
 10
0.878223
 20
0.287623
 30
0.0
 10
0.885891
 20
0.295291
 30
0.0
 10
0.894442
 20
0.298370
 30
0.0
 10
0.908066
 20
0.298370
 30
0.0
  0
SPLINE
  5
16e
100
AcDbEntity
  8
Calque_1
 62
7
100
AcDbSpline
 70
8
 71
3
 72
8
 73
4
 74
0
 40
0
 40
0
 40
0
 40
0
 40
1
 40
1
 40
1
 40
1
 10
0.908066
 20
0.298370
 30
0.0
 10
0.921897
 20
0.298370
 30
0.0
 10
0.930310
 20
0.295276
 30
0.0
 10
0.938230
 20
0.287272
 30
0.0
  0
SPLINE
  5
16f
100
AcDbEntity
  8
Calque_1
 62
7
100
AcDbSpline
 70
8
 71
3
 72
8
 73
4
 74
0
 40
0
 40
0
 40
0
 40
0
 40
1
 40
1
 40
1
 40
1
 10
0.938230
 20
0.287272
 30
0.0
 10
0.943341
 20
0.282107
 30
0.0
 10
0.947019
 20
0.275449
 30
0.0
 10
0.948963
 20
0.267843
 30
0.0
  0
SPLINE
  5
170
100
AcDbEntity
  8
Calque_1
 62
7
100
AcDbSpline
 70
8
 71
3
 72
8
 73
4
 74
0
 40
0
 40
0
 40
0
 40
0
 40
1
 40
1
 40
1
 40
1
 10
0.948963
 20
0.267843
 30
0.0
 10
0.953436
 20
0.250338
 30
0.0
 10
0.952074
 20
0.229556
 30
0.0
 10
0.945551
 20
0.215781
 30
0.0
  0
SPLINE
  5
171
100
AcDbEntity
  8
Calque_1
 62
7
100
AcDbSpline
 70
8
 71
3
 72
8
 73
4
 74
0
 40
0
 40
0
 40
0
 40
0
 40
1
 40
1
 40
1
 40
1
 10
0.945551
 20
0.215781
 30
0.0
 10
0.940328
 20
0.204750
 30
0.0
 10
0.930965
 20
0.197241
 30
0.0
 10
0.919436
 20
0.194837
 30
0.0
  0
SPLINE
  5
172
100
AcDbEntity
  8
Calque_1
 62
7
100
AcDbSpline
 70
8
 71
3
 72
8
 73
4
 74
0
 40
0
 40
0
 40
0
 40
0
 40
1
 40
1
 40
1
 40
1
 10
0.919436
 20
0.194837
 30
0.0
 10
0.913744
 20
0.193648
 30
0.0
 10
0.900411
 20
0.193857
 30
0.0
 10
0.895305
 20
0.195231
 30
0.0
  0
LWPOLYLINE
  5
173
100
AcDbEntity
  8
Calque_1
 62
7
100
AcDbPolyline
 90
1
 70
1
 10
0.676430
 20
0.195056
 30
0.0
  0
SPLINE
  5
174
100
AcDbEntity
  8
Calque_1
 62
7
100
AcDbSpline
 70
8
 71
3
 72
8
 73
4
 74
0
 40
0
 40
0
 40
0
 40
0
 40
1
 40
1
 40
1
 40
1
 10
0.917866
 20
0.209895
 30
0.0
 10
0.929201
 20
0.213616
 30
0.0
 10
0.935015
 20
0.225920
 30
0.0
 10
0.935015
 20
0.246188
 30
0.0
  0
SPLINE
  5
175
100
AcDbEntity
  8
Calque_1
 62
7
100
AcDbSpline
 70
8
 71
3
 72
8
 73
4
 74
0
 40
0
 40
0
 40
0
 40
0
 40
1
 40
1
 40
1
 40
1
 10
0.935015
 20
0.246188
 30
0.0
 10
0.935015
 20
0.265899
 30
0.0
 10
0.930362
 20
0.276554
 30
0.0
 10
0.919405
 20
0.281935
 30
0.0
  0
SPLINE
  5
176
100
AcDbEntity
  8
Calque_1
 62
7
100
AcDbSpline
 70
8
 71
3
 72
8
 73
4
 74
0
 40
0
 40
0
 40
0
 40
0
 40
1
 40
1
 40
1
 40
1
 10
0.919405
 20
0.281935
 30
0.0
 10
0.915602
 20
0.283801
 30
0.0
 10
0.914112
 20
0.284085
 30
0.0
 10
0.908066
 20
0.284085
 30
0.0
  0
SPLINE
  5
177
100
AcDbEntity
  8
Calque_1
 62
7
100
AcDbSpline
 70
8
 71
3
 72
8
 73
4
 74
0
 40
0
 40
0
 40
0
 40
0
 40
1
 40
1
 40
1
 40
1
 10
0.908066
 20
0.284085
 30
0.0
 10
0.902014
 20
0.284085
 30
0.0
 10
0.900532
 20
0.283809
 30
0.0
 10
0.896711
 20
0.281927
 30
0.0
  0
SPLINE
  5
178
100
AcDbEntity
  8
Calque_1
 62
7
100
AcDbSpline
 70
8
 71
3
 72
8
 73
4
 74
0
 40
0
 40
0
 40
0
 40
0
 40
1
 40
1
 40
1
 40
1
 10
0.896711
 20
0.281927
 30
0.0
 10
0.886071
 20
0.276702
 30
0.0
 10
0.881213
 20
0.265486
 30
0.0
 10
0.881231
 20
0.246188
 30
0.0
  0
SPLINE
  5
179
100
AcDbEntity
  8
Calque_1
 62
7
100
AcDbSpline
 70
8
 71
3
 72
8
 73
4
 74
0
 40
0
 40
0
 40
0
 40
0
 40
1
 40
1
 40
1
 40
1
 10
0.881231
 20
0.246188
 30
0.0
 10
0.881241
 20
0.234465
 30
0.0
 10
0.882576
 20
0.227638
 30
0.0
 10
0.886178
 20
0.220880
 30
0.0
  0
SPLINE
  5
17a
100
AcDbEntity
  8
Calque_1
 62
7
100
AcDbSpline
 70
8
 71
3
 72
8
 73
4
 74
0
 40
0
 40
0
 40
0
 40
0
 40
1
 40
1
 40
1
 40
1
 10
0.886178
 20
0.220880
 30
0.0
 10
0.892088
 20
0.209791
 30
0.0
 10
0.904469
 20
0.205499
 30
0.0
 10
0.917866
 20
0.209895
 30
0.0
  0
LWPOLYLINE
  5
17b
100
AcDbEntity
  8
Calque_1
 62
7
100
AcDbPolyline
 90
1
 70
1
 10
0.895305
 20
0.195231
 30
0.0
  0
SPLINE
  5
17c
100
AcDbEntity
  8
Calque_1
 62
7
100
AcDbSpline
 70
8
 71
3
 72
8
 73
4
 74
0
 40
0
 40
0
 40
0
 40
0
 40
1
 40
1
 40
1
 40
1
 10
1.359070
 20
0.195209
 30
0.0
 10
1.341559
 20
0.199448
 30
0.0
 10
1.331141
 20
0.213837
 30
0.0
 10
1.327204
 20
0.239227
 30
0.0
  0
SPLINE
  5
17d
100
AcDbEntity
  8
Calque_1
 62
7
100
AcDbSpline
 70
8
 71
3
 72
8
 73
4
 74
0
 40
0
 40
0
 40
0
 40
0
 40
1
 40
1
 40
1
 40
1
 10
1.327204
 20
0.239227
 30
0.0
 10
1.325385
 20
0.250938
 30
0.0
 10
1.325385
 20
0.276994
 30
0.0
 10
1.327204
 20
0.288726
 30
0.0
  0
SPLINE
  5
17e
100
AcDbEntity
  8
Calque_1
 62
7
100
AcDbSpline
 70
8
 71
3
 72
8
 73
4
 74
0
 40
0
 40
0
 40
0
 40
0
 40
1
 40
1
 40
1
 40
1
 10
1.327204
 20
0.288726
 30
0.0
 10
1.328782
 20
0.298938
 30
0.0
 10
1.332170
 20
0.309487
 30
0.0
 10
1.335775
 20
0.315420
 30
0.0
  0
SPLINE
  5
17f
100
AcDbEntity
  8
Calque_1
 62
7
100
AcDbSpline
 70
8
 71
3
 72
8
 73
4
 74
0
 40
0
 40
0
 40
0
 40
0
 40
1
 40
1
 40
1
 40
1
 10
1.335775
 20
0.315420
 30
0.0
 10
1.338932
 20
0.320615
 30
0.0
 10
1.345445
 20
0.326968
 30
0.0
 10
1.350001
 20
0.329292
 30
0.0
  0
SPLINE
  5
180
100
AcDbEntity
  8
Calque_1
 62
7
100
AcDbSpline
 70
8
 71
3
 72
8
 73
4
 74
0
 40
0
 40
0
 40
0
 40
0
 40
1
 40
1
 40
1
 40
1
 10
1.350001
 20
0.329292
 30
0.0
 10
1.361743
 20
0.335282
 30
0.0
 10
1.381366
 20
0.335442
 30
0.0
 10
1.393217
 20
0.329646
 30
0.0
  0
SPLINE
  5
181
100
AcDbEntity
  8
Calque_1
 62
7
100
AcDbSpline
 70
8
 71
3
 72
8
 73
4
 74
0
 40
0
 40
0
 40
0
 40
0
 40
1
 40
1
 40
1
 40
1
 10
1.393217
 20
0.329646
 30
0.0
 10
1.395476
 20
0.328540
 30
0.0
 10
1.399405
 20
0.325709
 30
0.0
 10
1.401945
 20
0.323360
 30
0.0
  0
SPLINE
  5
182
100
AcDbEntity
  8
Calque_1
 62
7
100
AcDbSpline
 70
8
 71
3
 72
8
 73
4
 74
0
 40
0
 40
0
 40
0
 40
0
 40
1
 40
1
 40
1
 40
1
 10
1.401945
 20
0.323360
 30
0.0
 10
1.408991
 20
0.316837
 30
0.0
 10
1.414332
 20
0.304945
 30
0.0
 10
1.416891
 20
0.290081
 30
0.0
  0
LWPOLYLINE
  5
183
100
AcDbEntity
  8
Calque_1
 62
7
100
AcDbPolyline
 90
1
 70
1
 10
0.917866
 20
0.209895
 30
0.0
  0
SPLINE
  5
184
100
AcDbEntity
  8
Calque_1
 62
7
100
AcDbSpline
 70
8
 71
3
 72
8
 73
4
 74
0
 40
0
 40
0
 40
0
 40
0
 40
1
 40
1
 40
1
 40
1
 10
1.399214
 20
0.293173
 30
0.0
 10
1.394622
 20
0.312364
 30
0.0
 10
1.382578
 20
0.321738
 30
0.0
 10
1.366656
 20
0.318516
 30
0.0
  0
SPLINE
  5
185
100
AcDbEntity
  8
Calque_1
 62
7
100
AcDbSpline
 70
8
 71
3
 72
8
 73
4
 74
0
 40
0
 40
0
 40
0
 40
0
 40
1
 40
1
 40
1
 40
1
 10
1.366656
 20
0.318516
 30
0.0
 10
1.349825
 20
0.315111
 30
0.0
 10
1.342371
 20
0.298371
 30
0.0
 10
1.342371
 20
0.263976
 30
0.0
  0
SPLINE
  5
186
100
AcDbEntity
  8
Calque_1
 62
7
100
AcDbSpline
 70
8
 71
3
 72
8
 73
4
 74
0
 40
0
 40
0
 40
0
 40
0
 40
1
 40
1
 40
1
 40
1
 10
1.342371
 20
0.263976
 30
0.0
 10
1.342371
 20
0.233744
 30
0.0
 10
1.348051
 20
0.217465
 30
0.0
 10
1.360778
 20
0.211214
 30
0.0
  0
SPLINE
  5
187
100
AcDbEntity
  8
Calque_1
 62
7
100
AcDbSpline
 70
8
 71
3
 72
8
 73
4
 74
0
 40
0
 40
0
 40
0
 40
0
 40
1
 40
1
 40
1
 40
1
 10
1.360778
 20
0.211214
 30
0.0
 10
1.364597
 20
0.209336
 30
0.0
 10
1.366044
 20
0.209068
 30
0.0
 10
1.372117
 20
0.209088
 30
0.0
  0
SPLINE
  5
188
100
AcDbEntity
  8
Calque_1
 62
7
100
AcDbSpline
 70
8
 71
3
 72
8
 73
4
 74
0
 40
0
 40
0
 40
0
 40
0
 40
1
 40
1
 40
1
 40
1
 10
1.372117
 20
0.209088
 30
0.0
 10
1.380162
 20
0.209115
 30
0.0
 10
1.384224
 20
0.210561
 30
0.0
 10
1.389405
 20
0.215241
 30
0.0
  0
SPLINE
  5
189
100
AcDbEntity
  8
Calque_1
 62
7
100
AcDbSpline
 70
8
 71
3
 72
8
 73
4
 74
0
 40
0
 40
0
 40
0
 40
0
 40
1
 40
1
 40
1
 40
1
 10
1.389405
 20
0.215241
 30
0.0
 10
1.393384
 20
0.218836
 30
0.0
 10
1.397524
 20
0.227003
 30
0.0
 10
1.399211
 20
0.234585
 30
0.0
  0
LWPOLYLINE
  5
18a
100
AcDbEntity
  8
Calque_1
 62
7
100
AcDbPolyline
 90
5
 70
0
 10
1.416891
 20
0.290081
 30
0.0
 10
1.417324
 20
0.287565
 30
0.0
 10
1.408940
 20
0.287565
 30
0.0
 10
1.400557
 20
0.287565
 30
0.0
 10
1.399214
 20
0.293173
 30
0.0
  0
SPLINE
  5
18b
100
AcDbEntity
  8
Calque_1
 62
7
100
AcDbSpline
 70
8
 71
3
 72
8
 73
4
 74
0
 40
0
 40
0
 40
0
 40
0
 40
1
 40
1
 40
1
 40
1
 10
1.408947
 20
0.240389
 30
0.0
 10
1.417299
 20
0.240389
 30
0.0
 10
1.417388
 20
0.240369
 30
0.0
 10
1.417020
 20
0.238648
 30
0.0
  0
SPLINE
  5
18c
100
AcDbEntity
  8
Calque_1
 62
7
100
AcDbSpline
 70
8
 71
3
 72
8
 73
4
 74
0
 40
0
 40
0
 40
0
 40
0
 40
1
 40
1
 40
1
 40
1
 10
1.417020
 20
0.238648
 30
0.0
 10
1.416823
 20
0.237692
 30
0.0
 10
1.416249
 20
0.234822
 30
0.0
 10
1.415756
 20
0.232268
 30
0.0
  0
SPLINE
  5
18d
100
AcDbEntity
  8
Calque_1
 62
7
100
AcDbSpline
 70
8
 71
3
 72
8
 73
4
 74
0
 40
0
 40
0
 40
0
 40
0
 40
1
 40
1
 40
1
 40
1
 10
1.415756
 20
0.232268
 30
0.0
 10
1.411922
 20
0.212293
 30
0.0
 10
1.400779
 20
0.198940
 30
0.0
 10
1.384804
 20
0.195175
 30
0.0
  0
SPLINE
  5
18e
100
AcDbEntity
  8
Calque_1
 62
7
100
AcDbSpline
 70
8
 71
3
 72
8
 73
4
 74
0
 40
0
 40
0
 40
0
 40
0
 40
1
 40
1
 40
1
 40
1
 10
1.384804
 20
0.195175
 30
0.0
 10
1.378612
 20
0.193718
 30
0.0
 10
1.365173
 20
0.193734
 30
0.0
 10
1.359071
 20
0.195204
 30
0.0
  0
LWPOLYLINE
  5
18f
100
AcDbEntity
  8
Calque_1
 62
7
100
AcDbPolyline
 90
3
 70
0
 10
1.399211
 20
0.234585
 30
0.0
 10
1.400502
 20
0.240389
 30
0.0
 10
1.408947
 20
0.240389
 30
0.0
  0
LWPOLYLINE
  5
190
100
AcDbEntity
  8
Calque_1
 62
7
100
AcDbPolyline
 90
1
 70
1
 10
1.359071
 20
0.195204
 30
0.0
  0
SPLINE
  5
191
100
AcDbEntity
  8
Calque_1
 62
7
100
AcDbSpline
 70
8
 71
3
 72
8
 73
4
 74
0
 40
0
 40
0
 40
0
 40
0
 40
1
 40
1
 40
1
 40
1
 10
0.436864
 20
0.331474
 30
0.0
 10
0.466209
 20
0.331120
 30
0.0
 10
0.467667
 20
0.330946
 30
0.0
 10
0.476022
 20
0.326702
 30
0.0
  0
SPLINE
  5
192
100
AcDbEntity
  8
Calque_1
 62
7
100
AcDbSpline
 70
8
 71
3
 72
8
 73
4
 74
0
 40
0
 40
0
 40
0
 40
0
 40
1
 40
1
 40
1
 40
1
 10
0.476022
 20
0.326702
 30
0.0
 10
0.488130
 20
0.320551
 30
0.0
 10
0.494807
 20
0.306262
 30
0.0
 10
0.493523
 20
0.289251
 30
0.0
  0
SPLINE
  5
193
100
AcDbEntity
  8
Calque_1
 62
7
100
AcDbSpline
 70
8
 71
3
 72
8
 73
4
 74
0
 40
0
 40
0
 40
0
 40
0
 40
1
 40
1
 40
1
 40
1
 10
0.493523
 20
0.289251
 30
0.0
 10
0.492645
 20
0.277613
 30
0.0
 10
0.489292
 20
0.269844
 30
0.0
 10
0.482342
 20
0.263342
 30
0.0
  0
SPLINE
  5
194
100
AcDbEntity
  8
Calque_1
 62
7
100
AcDbSpline
 70
8
 71
3
 72
8
 73
4
 74
0
 40
0
 40
0
 40
0
 40
0
 40
1
 40
1
 40
1
 40
1
 10
0.482342
 20
0.263342
 30
0.0
 10
0.474359
 20
0.255875
 30
0.0
 10
0.468012
 20
0.254281
 30
0.0
 10
0.444211
 20
0.253767
 30
0.0
  0
LWPOLYLINE
  5
195
100
AcDbEntity
  8
Calque_1
 62
7
100
AcDbPolyline
 90
3
 70
0
 10
0.409601
 20
0.264055
 30
0.0
 10
0.409601
 20
0.331789
 30
0.0
 10
0.436864
 20
0.331474
 30
0.0
  0
SPLINE
  5
196
100
AcDbEntity
  8
Calque_1
 62
7
100
AcDbSpline
 70
8
 71
3
 72
8
 73
4
 74
0
 40
0
 40
0
 40
0
 40
0
 40
1
 40
1
 40
1
 40
1
 10
0.463873
 20
0.270443
 30
0.0
 10
0.468685
 20
0.272352
 30
0.0
 10
0.472919
 20
0.276408
 30
0.0
 10
0.475078
 20
0.281185
 30
0.0
  0
SPLINE
  5
197
100
AcDbEntity
  8
Calque_1
 62
7
100
AcDbSpline
 70
8
 71
3
 72
8
 73
4
 74
0
 40
0
 40
0
 40
0
 40
0
 40
1
 40
1
 40
1
 40
1
 10
0.475078
 20
0.281185
 30
0.0
 10
0.476053
 20
0.283343
 30
0.0
 10
0.476411
 20
0.286340
 30
0.0
 10
0.476449
 20
0.292663
 30
0.0
  0
SPLINE
  5
198
100
AcDbEntity
  8
Calque_1
 62
7
100
AcDbSpline
 70
8
 71
3
 72
8
 73
4
 74
0
 40
0
 40
0
 40
0
 40
0
 40
1
 40
1
 40
1
 40
1
 10
0.476449
 20
0.292663
 30
0.0
 10
0.476500
 20
0.300705
 30
0.0
 10
0.476363
 20
0.301495
 30
0.0
 10
0.474181
 20
0.305741
 30
0.0
  0
SPLINE
  5
199
100
AcDbEntity
  8
Calque_1
 62
7
100
AcDbSpline
 70
8
 71
3
 72
8
 73
4
 74
0
 40
0
 40
0
 40
0
 40
0
 40
1
 40
1
 40
1
 40
1
 10
0.474181
 20
0.305741
 30
0.0
 10
0.471421
 20
0.311116
 30
0.0
 10
0.466527
 20
0.314866
 30
0.0
 10
0.460621
 20
0.316133
 30
0.0
  0
SPLINE
  5
19a
100
AcDbEntity
  8
Calque_1
 62
7
100
AcDbSpline
 70
8
 71
3
 72
8
 73
4
 74
0
 40
0
 40
0
 40
0
 40
0
 40
1
 40
1
 40
1
 40
1
 10
0.460621
 20
0.316133
 30
0.0
 10
0.458466
 20
0.316593
 30
0.0
 10
0.449759
 20
0.316971
 30
0.0
 10
0.441273
 20
0.316971
 30
0.0
  0
LWPOLYLINE
  5
19b
100
AcDbEntity
  8
Calque_1
 62
7
100
AcDbPolyline
 90
7
 70
0
 10
0.444211
 20
0.253767
 30
0.0
 10
0.425843
 20
0.253370
 30
0.0
 10
0.425843
 20
0.224850
 30
0.0
 10
0.425843
 20
0.196329
 30
0.0
 10
0.417722
 20
0.196329
 30
0.0
 10
0.409601
 20
0.196329
 30
0.0
 10
0.409601
 20
0.264055
 30
0.0
  0
SPLINE
  5
19c
100
AcDbEntity
  8
Calque_1
 62
7
100
AcDbSpline
 70
8
 71
3
 72
8
 73
4
 74
0
 40
0
 40
0
 40
0
 40
0
 40
1
 40
1
 40
1
 40
1
 10
0.442664
 20
0.268391
 30
0.0
 10
0.457882
 20
0.268666
 30
0.0
 10
0.459904
 20
0.268848
 30
0.0
 10
0.463873
 20
0.270422
 30
0.0
  0
LWPOLYLINE
  5
19d
100
AcDbEntity
  8
Calque_1
 62
7
100
AcDbPolyline
 90
5
 70
0
 10
0.441273
 20
0.316971
 30
0.0
 10
0.425843
 20
0.316971
 30
0.0
 10
0.425843
 20
0.292543
 30
0.0
 10
0.425843
 20
0.268115
 30
0.0
 10
0.442664
 20
0.268391
 30
0.0
  0
LWPOLYLINE
  5
19e
100
AcDbEntity
  8
Calque_1
 62
7
100
AcDbPolyline
 90
1
 70
1
 10
0.463873
 20
0.270422
 30
0.0
  0
SPLINE
  5
19f
100
AcDbEntity
  8
Calque_1
 62
7
100
AcDbSpline
 70
8
 71
3
 72
8
 73
4
 74
0
 40
0
 40
0
 40
0
 40
0
 40
1
 40
1
 40
1
 40
1
 10
0.771688
 20
0.282943
 30
0.0
 10
0.775911
 20
0.290061
 30
0.0
 10
0.783428
 20
0.295553
 30
0.0
 10
0.791844
 20
0.297668
 30
0.0
  0
SPLINE
  5
1a0
100
AcDbEntity
  8
Calque_1
 62
7
100
AcDbSpline
 70
8
 71
3
 72
8
 73
4
 74
0
 40
0
 40
0
 40
0
 40
0
 40
1
 40
1
 40
1
 40
1
 10
0.791844
 20
0.297668
 30
0.0
 10
0.793994
 20
0.298207
 30
0.0
 10
0.798780
 20
0.298463
 30
0.0
 10
0.803445
 20
0.298278
 30
0.0
  0
SPLINE
  5
1a1
100
AcDbEntity
  8
Calque_1
 62
7
100
AcDbSpline
 70
8
 71
3
 72
8
 73
4
 74
0
 40
0
 40
0
 40
0
 40
0
 40
1
 40
1
 40
1
 40
1
 10
0.803445
 20
0.298278
 30
0.0
 10
0.809940
 20
0.298003
 30
0.0
 10
0.812179
 20
0.297601
 30
0.0
 10
0.815734
 20
0.295959
 30
0.0
  0
SPLINE
  5
1a2
100
AcDbEntity
  8
Calque_1
 62
7
100
AcDbSpline
 70
8
 71
3
 72
8
 73
4
 74
0
 40
0
 40
0
 40
0
 40
0
 40
1
 40
1
 40
1
 40
1
 10
0.815734
 20
0.295959
 30
0.0
 10
0.821533
 20
0.293278
 30
0.0
 10
0.825723
 20
0.289352
 30
0.0
 10
0.828654
 20
0.283854
 30
0.0
  0
SPLINE
  5
1a3
100
AcDbEntity
  8
Calque_1
 62
7
100
AcDbSpline
 70
8
 71
3
 72
8
 73
4
 74
0
 40
0
 40
0
 40
0
 40
0
 40
1
 40
1
 40
1
 40
1
 10
0.828654
 20
0.283854
 30
0.0
 10
0.833204
 20
0.275317
 30
0.0
 10
0.833405
 20
0.273163
 30
0.0
 10
0.833418
 20
0.232866
 30
0.0
  0
LWPOLYLINE
  5
1a4
100
AcDbEntity
  8
Calque_1
 62
7
100
AcDbPolyline
 90
7
 70
0
 10
0.753770
 20
0.269022
 30
0.0
 10
0.753770
 20
0.341722
 30
0.0
 10
0.761495
 20
0.341722
 30
0.0
 10
0.769221
 20
0.341722
 30
0.0
 10
0.769422
 20
0.310592
 30
0.0
 10
0.769622
 20
0.279463
 30
0.0
 10
0.771688
 20
0.282943
 30
0.0
  0
SPLINE
  5
1a5
100
AcDbEntity
  8
Calque_1
 62
7
100
AcDbSpline
 70
8
 71
3
 72
8
 73
4
 74
0
 40
0
 40
0
 40
0
 40
0
 40
1
 40
1
 40
1
 40
1
 10
0.817961
 20
0.230701
 30
0.0
 10
0.817961
 20
0.252522
 30
0.0
 10
0.817654
 20
0.266511
 30
0.0
 10
0.817120
 20
0.268998
 30
0.0
  0
SPLINE
  5
1a6
100
AcDbEntity
  8
Calque_1
 62
7
100
AcDbSpline
 70
8
 71
3
 72
8
 73
4
 74
0
 40
0
 40
0
 40
0
 40
0
 40
1
 40
1
 40
1
 40
1
 10
0.817120
 20
0.268998
 30
0.0
 10
0.815907
 20
0.274655
 30
0.0
 10
0.812181
 20
0.279767
 30
0.0
 10
0.807540
 20
0.282139
 30
0.0
  0
SPLINE
  5
1a7
100
AcDbEntity
  8
Calque_1
 62
7
100
AcDbSpline
 70
8
 71
3
 72
8
 73
4
 74
0
 40
0
 40
0
 40
0
 40
0
 40
1
 40
1
 40
1
 40
1
 10
0.807540
 20
0.282139
 30
0.0
 10
0.804298
 20
0.283796
 30
0.0
 10
0.802658
 20
0.284103
 30
0.0
 10
0.797099
 20
0.284087
 30
0.0
  0
SPLINE
  5
1a8
100
AcDbEntity
  8
Calque_1
 62
7
100
AcDbSpline
 70
8
 71
3
 72
8
 73
4
 74
0
 40
0
 40
0
 40
0
 40
0
 40
1
 40
1
 40
1
 40
1
 10
0.797099
 20
0.284087
 30
0.0
 10
0.791619
 20
0.284073
 30
0.0
 10
0.789763
 20
0.283733
 30
0.0
 10
0.786115
 20
0.282032
 30
0.0
  0
SPLINE
  5
1a9
100
AcDbEntity
  8
Calque_1
 62
7
100
AcDbSpline
 70
8
 71
3
 72
8
 73
4
 74
0
 40
0
 40
0
 40
0
 40
0
 40
1
 40
1
 40
1
 40
1
 10
0.786115
 20
0.282032
 30
0.0
 10
0.779986
 20
0.279182
 30
0.0
 10
0.775121
 20
0.274426
 30
0.0
 10
0.772136
 20
0.268365
 30
0.0
  0
LWPOLYLINE
  5
1aa
100
AcDbEntity
  8
Calque_1
 62
7
100
AcDbPolyline
 90
5
 70
0
 10
0.833418
 20
0.232866
 30
0.0
 10
0.833429
 20
0.196322
 30
0.0
 10
0.825695
 20
0.196322
 30
0.0
 10
0.817961
 20
0.196322
 30
0.0
 10
0.817961
 20
0.230701
 30
0.0
  0
LWPOLYLINE
  5
1ab
100
AcDbEntity
  8
Calque_1
 62
7
100
AcDbPolyline
 90
7
 70
0
 10
0.772136
 20
0.268365
 30
0.0
 10
0.769622
 20
0.263261
 30
0.0
 10
0.769390
 20
0.229793
 30
0.0
 10
0.769157
 20
0.196324
 30
0.0
 10
0.761461
 20
0.196324
 30
0.0
 10
0.753765
 20
0.196324
 30
0.0
 10
0.753770
 20
0.269022
 30
0.0
  0
SPLINE
  5
1ac
100
AcDbEntity
  8
Calque_1
 62
7
100
AcDbSpline
 70
8
 71
3
 72
8
 73
4
 74
0
 40
0
 40
0
 40
0
 40
0
 40
1
 40
1
 40
1
 40
1
 10
0.998554
 20
0.287583
 30
0.0
 10
0.998861
 20
0.282905
 30
0.0
 10
0.999356
 20
0.279076
 30
0.0
 10
0.999657
 20
0.279076
 30
0.0
  0
SPLINE
  5
1ad
100
AcDbEntity
  8
Calque_1
 62
7
100
AcDbSpline
 70
8
 71
3
 72
8
 73
4
 74
0
 40
0
 40
0
 40
0
 40
0
 40
1
 40
1
 40
1
 40
1
 10
0.999657
 20
0.279076
 30
0.0
 10
0.999956
 20
0.279076
 30
0.0
 10
1.000786
 20
0.280296
 30
0.0
 10
1.001497
 20
0.281792
 30
0.0
  0
SPLINE
  5
1ae
100
AcDbEntity
  8
Calque_1
 62
7
100
AcDbSpline
 70
8
 71
3
 72
8
 73
4
 74
0
 40
0
 40
0
 40
0
 40
0
 40
1
 40
1
 40
1
 40
1
 10
1.001497
 20
0.281792
 30
0.0
 10
1.003151
 20
0.285261
 30
0.0
 10
1.008562
 20
0.291150
 30
0.0
 10
1.012223
 20
0.293466
 30
0.0
  0
SPLINE
  5
1af
100
AcDbEntity
  8
Calque_1
 62
7
100
AcDbSpline
 70
8
 71
3
 72
8
 73
4
 74
0
 40
0
 40
0
 40
0
 40
0
 40
1
 40
1
 40
1
 40
1
 10
1.012223
 20
0.293466
 30
0.0
 10
1.020260
 20
0.298550
 30
0.0
 10
1.033873
 20
0.299996
 30
0.0
 10
1.044063
 20
0.296848
 30
0.0
  0
SPLINE
  5
1b0
100
AcDbEntity
  8
Calque_1
 62
7
100
AcDbSpline
 70
8
 71
3
 72
8
 73
4
 74
0
 40
0
 40
0
 40
0
 40
0
 40
1
 40
1
 40
1
 40
1
 10
1.044063
 20
0.296848
 30
0.0
 10
1.050168
 20
0.294962
 30
0.0
 10
1.056802
 20
0.289350
 30
0.0
 10
1.059711
 20
0.283609
 30
0.0
  0
SPLINE
  5
1b1
100
AcDbEntity
  8
Calque_1
 62
7
100
AcDbSpline
 70
8
 71
3
 72
8
 73
4
 74
0
 40
0
 40
0
 40
0
 40
0
 40
1
 40
1
 40
1
 40
1
 10
1.059711
 20
0.283609
 30
0.0
 10
1.064080
 20
0.274987
 30
0.0
 10
1.064176
 20
0.273984
 30
0.0
 10
1.064494
 20
0.233639
 30
0.0
  0
LWPOLYLINE
  5
1b2
100
AcDbEntity
  8
Calque_1
 62
7
100
AcDbPolyline
 90
5
 70
0
 10
0.984247
 20
0.246206
 30
0.0
 10
0.984247
 20
0.296091
 30
0.0
 10
0.991123
 20
0.296091
 30
0.0
 10
0.998000
 20
0.296091
 30
0.0
 10
0.998554
 20
0.287583
 30
0.0
  0
SPLINE
  5
1b3
100
AcDbEntity
  8
Calque_1
 62
7
100
AcDbSpline
 70
8
 71
3
 72
8
 73
4
 74
0
 40
0
 40
0
 40
0
 40
0
 40
1
 40
1
 40
1
 40
1
 10
1.048441
 20
0.231759
 30
0.0
 10
1.048441
 20
0.272198
 30
0.0
 10
1.048354
 20
0.272851
 30
0.0
 10
1.042796
 20
0.278644
 30
0.0
  0
SPLINE
  5
1b4
100
AcDbEntity
  8
Calque_1
 62
7
100
AcDbSpline
 70
8
 71
3
 72
8
 73
4
 74
0
 40
0
 40
0
 40
0
 40
0
 40
1
 40
1
 40
1
 40
1
 10
1.042796
 20
0.278644
 30
0.0
 10
1.033071
 20
0.288765
 30
0.0
 10
1.012648
 20
0.284859
 30
0.0
 10
1.004536
 20
0.271327
 30
0.0
  0
SPLINE
  5
1b5
100
AcDbEntity
  8
Calque_1
 62
7
100
AcDbSpline
 70
8
 71
3
 72
8
 73
4
 74
0
 40
0
 40
0
 40
0
 40
0
 40
1
 40
1
 40
1
 40
1
 10
1.004536
 20
0.271327
 30
0.0
 10
1.003144
 20
0.269008
 30
0.0
 10
1.001597
 20
0.265888
 30
0.0
 10
1.001095
 20
0.264393
 30
0.0
  0
SPLINE
  5
1b6
100
AcDbEntity
  8
Calque_1
 62
7
100
AcDbSpline
 70
8
 71
3
 72
8
 73
4
 74
0
 40
0
 40
0
 40
0
 40
0
 40
1
 40
1
 40
1
 40
1
 10
1.001095
 20
0.264393
 30
0.0
 10
1.000468
 20
0.262531
 30
0.0
 10
1.000097
 20
0.251393
 30
0.0
 10
0.999911
 20
0.228999
 30
0.0
  0
LWPOLYLINE
  5
1b7
100
AcDbEntity
  8
Calque_1
 62
7
100
AcDbPolyline
 90
5
 70
0
 10
1.064494
 20
0.233639
 30
0.0
 10
1.064789
 20
0.196322
 30
0.0
 10
1.056615
 20
0.196322
 30
0.0
 10
1.048441
 20
0.196322
 30
0.0
 10
1.048441
 20
0.231759
 30
0.0
  0
LWPOLYLINE
  5
1b8
100
AcDbEntity
  8
Calque_1
 62
7
100
AcDbPolyline
 90
5
 70
0
 10
0.999911
 20
0.228999
 30
0.0
 10
0.999647
 20
0.196322
 30
0.0
 10
0.991951
 20
0.196322
 30
0.0
 10
0.984256
 20
0.196322
 30
0.0
 10
0.984247
 20
0.246206
 30
0.0
  0
ENDSEC
  0
SECTION
  2
OBJECTS
  0
DICTIONARY
  5
C
330
0
100
AcDbDictionary
  3
ACAD_GROUP
350
D
  3
ACAD_MLINESTYLE
350
17
  0
DICTIONARY
  5
D
330
C
100
AcDbDictionary
  0
DICTIONARY
  5
1A
330
C
100
AcDbDictionary
  0
DICTIONARY
  5
17
330
C
100
AcDbDictionary
  3
STANDARD
350
18
  0
DICTIONARY
  5
19
330
C
100
AcDbDictionary
  0
ENDSEC
  0
EOF
