999
dxfrw 0.6.3
  0
SECTION
  2
HEADER
  9
$ACADVER
  1
AC1021
  9
$DWGCODEPAGE
  3
ANSI_1252
  9
$INSBASE
 10
0
 20
0
 30
0
  9
$EXTMIN
 10
3.744351
 20
1.999999
 30
0
  9
$EXTMAX
 10
36.000033
 20
8.819979
 30
0
  9
$LIMMIN
 10
0
 20
0
  9
$LIMMAX
 10
420
 20
297
  9
$ORTHOMODE
 70
    0
  9
$REGENMODE
 70
    1
  9
$FILLMODE
 70
    1
  9
$QTEXTMODE
 70
    0
  9
$MIRRTEXT
 70
    0
  9
$LTSCALE
 40
1
  9
$ATTMODE
 70
    0
  9
$TEXTSIZE
 40
2.5
  9
$TRACEWID
 40
15.68
  9
$TEXTSTYLE
  7
STANDARD
  9
$CLAYER
  8
0
  9
$CELTYPE
  6
BYLAYER
  9
$CECOLOR
 62
  256
  9
$CELTSCALE
 40
1
  9
$DISPSILH
 70
    0
  9
$DIMSCALE
 40
2.5
  9
$DIMASZ
 40
2.5
  9
$DIMEXO
 40
0.625
  9
$DIMDLI
 40
3.75
  9
$DIMRND
 40
0
  9
$DIMDLE
 40
0
  9
$DIMEXE
 40
1.25
  9
$DIMTP
 40
0
  9
$DIMTM
 40
0
  9
$DIMTXT
 40
2.5
  9
$DIMCEN
 40
2.5
  9
$DIMTSZ
 40
0
  9
$DIMTOL
 70
    0
  9
$DIMLIM
 70
    0
  9
$DIMTIH
 70
    0
  9
$DIMTOH
 70
    0
  9
$DIMSE1
 70
    0
  9
$DIMSE2
 70
    0
  9
$DIMTAD
 70
    1
  9
$DIMZIN
 70
    8
  9
$DIMBLK
  1

  9
$DIMASO
 70
    1
  9
$DIMSHO
 70
    1
  9
$DIMPOST
  1

  9
$DIMAPOST
  1

  9
$DIMALT
 70
    0
  9
$DIMALTD
 70
    3
  9
$DIMALTF
 40
0.03937
  9
$DIMLFAC
 40
1
  9
$DIMTOFL
 70
    1
  9
$DIMTVP
 40
0
  9
$DIMTIX
 70
    0
  9
$DIMSOXD
 70
    0
  9
$DIMSAH
 70
    0
  9
$DIMBLK1
  1

  9
$DIMBLK2
  1

  9
$DIMSTYLE
  2
Standard
  9
$DIMCLRD
 70
    0
  9
$DIMCLRE
 70
    0
  9
$DIMCLRT
 70
    0
  9
$DIMTFAC
 40
1
  9
$DIMGAP
 40
0.625
  9
$DIMJUST
 70
    0
  9
$DIMSD1
 70
    0
  9
$DIMSD2
 70
    0
  9
$DIMTOLJ
 70
    0
  9
$DIMTZIN
 70
    8
  9
$DIMALTZ
 70
    0
  9
$DIMALTTZ
 70
    0
  9
$DIMUPT
 70
    0
  9
$DIMDEC
 70
    2
  9
$DIMTDEC
 70
    2
  9
$DIMALTU
 70
    2
  9
$DIMALTTD
 70
    3
  9
$DIMTXSTY
  7
STANDARD
  9
$DIMAUNIT
 70
    0
  9
$DIMADEC
 70
    0
  9
$DIMALTRND
 40
0
  9
$DIMAZIN
 70
    0
  9
$DIMDSEP
 70
   44
  9
$DIMATFIT
 70
    3
  9
$DIMFRAC
 70
    0
  9
$DIMLDRBLK
  1
STANDARD
  9
$DIMLUNIT
 70
    2
  9
$DIMLWD
 70
   -2
  9
$DIMLWE
 70
   -2
  9
$DIMTMOVE
 70
    0
  9
$DIMFXL
 40
1
  9
$DIMFXLON
 70
    0
  9
$DIMJOGANG
 40
0.7854
  9
$DIMTFILL
 70
    0
  9
$DIMTFILLCLR
 70
    0
  9
$DIMARCSYM
 70
    0
  9
$DIMLTYPE
  6

  9
$DIMLTEX1
  6

  9
$DIMLTEX2
  6

  9
$LUNITS
 70
    2
  9
$LUPREC
 70
    4
  9
$SKETCHINC
 40
1
  9
$FILLETRAD
 40
0
  9
$AUNITS
 70
    0
  9
$AUPREC
 70
    2
  9
$MENU
  1
.
  9
$ELEVATION
 40
0
  9
$PELEVATION
 40
0
  9
$THICKNESS
 40
0
  9
$LIMCHECK
 70
    0
  9
$CHAMFERA
 40
0
  9
$CHAMFERB
 40
0
  9
$CHAMFERC
 40
0
  9
$CHAMFERD
 40
0
  9
$SKPOLY
 70
    0
  9
$USRTIMER
 70
    1
  9
$ANGBASE
 50
0
  9
$ANGDIR
 70
    0
  9
$PDMODE
 70
   34
  9
$PDSIZE
 40
0
  9
$PLINEWID
 40
0
  9
$SPLFRAME
 70
    0
  9
$SPLINETYPE
 70
    2
  9
$SPLINESEGS
 70
    8
  9
$HANDSEED
  5
20000
  9
$SURFTAB1
 70
    6
  9
$SURFTAB2
 70
    6
  9
$SURFTYPE
 70
    6
  9
$SURFU
 70
    6
  9
$SURFV
 70
    6
  9
$UCSBASE
  2

  9
$UCSNAME
  2

  9
$UCSORG
 10
0
 20
0
 30
0
  9
$UCSXDIR
 10
1
 20
0
 30
0
  9
$UCSYDIR
 10
0
 20
1
 30
0
  9
$UCSORTHOREF
  2

  9
$UCSORTHOVIEW
 70
    0
  9
$UCSORGTOP
 10
0
 20
0
 30
0
  9
$UCSORGBOTTOM
 10
0
 20
0
 30
0
  9
$UCSORGLEFT
 10
0
 20
0
 30
0
  9
$UCSORGRIGHT
 10
0
 20
0
 30
0
  9
$UCSORGFRONT
 10
0
 20
0
 30
0
  9
$UCSORGBACK
 10
0
 20
0
 30
0
  9
$PUCSBASE
  2

  9
$PUCSNAME
  2

  9
$PUCSORG
 10
0
 20
0
 30
0
  9
$PUCSXDIR
 10
1
 20
0
 30
0
  9
$PUCSYDIR
 10
0
 20
1
 30
0
  9
$PUCSORTHOREF
  2

  9
$PUCSORTHOVIEW
 70
    0
  9
$PUCSORGTOP
 10
0
 20
0
 30
0
  9
$PUCSORGBOTTOM
 10
0
 20
0
 30
0
  9
$PUCSORGLEFT
 10
0
 20
0
 30
0
  9
$PUCSORGRIGHT
 10
0
 20
0
 30
0
  9
$PUCSORGFRONT
 10
0
 20
0
 30
0
  9
$PUCSORGBACK
 10
0
 20
0
 30
0
  9
$USERI1
 70
    0
  9
$USERI2
 70
    0
  9
$USERI3
 70
    0
  9
$USERI4
 70
    0
  9
$USERI5
 70
    0
  9
$USERR1
 40
0
  9
$USERR2
 40
0
  9
$USERR3
 40
0
  9
$USERR4
 40
0
  9
$USERR5
 40
0
  9
$WORLDVIEW
 70
    1
  9
$SHADEDGE
 70
    3
  9
$SHADEDIF
 70
   70
  9
$TILEMODE
 70
    1
  9
$MAXACTVP
 70
   64
  9
$PINSBASE
 10
0
 20
0
 30
0
  9
$PLIMCHECK
 70
    0
  9
$PEXTMIN
 10
0
 20
0
 30
0
  9
$PEXTMAX
 10
0
 20
0
 30
0
  9
$GRIDMODE
 70
    0
  9
$SNAPSTYLE
 70
    0
  9
$PLIMMIN
 10
0
 20
0
  9
$PLIMMAX
 10
210
 20
297
  9
$UNITMODE
 70
    0
  9
$VISRETAIN
 70
    1
  9
$PLINEGEN
 70
    0
  9
$PSLTSCALE
 70
    1
  9
$TREEDEPTH
 70
 3020
  9
$CMLSTYLE
  2
Standard
  9
$CMLJUST
 70
    0
  9
$CMLSCALE
 40
20
  9
$PROXYGRAPHICS
 70
    1
  9
$MEASUREMENT
 70
    1
  9
$CELWEIGHT
370
   -1
  9
$ENDCAPS
280
    0
  9
$JOINSTYLE
280
    0
  9
$LWDISPLAY
290
    0
  9
$INSUNITS
 70
    0
  9
$HYPERLINKBASE
  1

  9
$STYLESHEET
  1

  9
$XEDIT
290
    1
  9
$CEPSNTYPE
380
    0
  9
$PSTYLEMODE
290
    1
  9
$EXTNAMES
290
    1
  9
$PSVPSCALE
 40
1
  9
$OLESTARTUP
290
    0
  9
$SORTENTS
280
  127
  9
$INDEXCTL
280
    0
  9
$HIDETEXT
280
    1
  9
$XCLIPFRAME
290
    0
  9
$HALOGAP
280
    0
  9
$OBSCOLOR
 70
  257
  9
$OBSLTYPE
280
    0
  9
$INTERSECTIONDISPLAY
280
    0
  9
$INTERSECTIONCOLOR
 70
  257
  9
$DIMASSOC
280
    1
  9
$PROJECTNAME
  1

  9
$CAMERADISPLAY
290
    0
  9
$LENSLENGTH
 40
50
  9
$CAMERAHEIGHT
 40
0
  9
$STEPSPERSEC
 40
2
  9
$STEPSIZE
 40
50
  9
$3DDWFPREC
 40
2
  9
$PSOLWIDTH
 40
5
  9
$PSOLHEIGHT
 40
80
  9
$LOFTANG1
 40
1.570796326794897
  9
$LOFTANG2
 40
1.570796326794897
  9
$LOFTMAG1
 40
0
  9
$LOFTMAG2
 40
0
  9
$LOFTPARAM
 70
    7
  9
$LOFTNORMALS
280
    1
  9
$LATITUDE
 40
1
  9
$LONGITUDE
 40
1
  9
$NORTHDIRECTION
 40
0
  9
$TIMEZONE
 70
-8000
  9
$LIGHTGLYPHDISPLAY
280
    1
  9
$TILEMODELIGHTSYNCH
280
    1
  9
$SOLIDHIST
280
    1
  9
$SHOWHIST
280
    1
  9
$DWFFRAME
280
    2
  9
$DGNFRAME
280
    0
  9
$REALWORLDSCALE
290
    1
  9
$INTERFERECOLOR
 62
    1
  9
$CSHADOW
280
    0
  9
$SHADOWPLANELOCATION
 40
0
  0
ENDSEC
  0
SECTION
  2
CLASSES
  0
ENDSEC
  0
SECTION
  2
TABLES
  0
TABLE
  2
VPORT
  5
8
330
0
100
AcDbSymbolTable
 70
    1
  0
VPORT
  5
31
330
2
100
AcDbSymbolTableRecord
100
AcDbViewportTableRecord
  2
*ACTIVE
 70
    0
 10
0
 20
0
 11
1
 21
1
 12
20.32119046645719
 22
11.22131671362059
 13
0
 23
0
 14
10
 24
10
 15
10
 25
10
 16
0
 26
0
 36
1
 17
0
 27
0
 37
0
 40
42.20554943033415
 41
0.9933862433862434
 42
50
 43
0
 44
0
 50
0
 51
0
 71
    0
 72
  100
 73
    1
 74
    3
 75
    0
 76
    0
 77
    0
 78
    0
281
    0
 65
    1
110
0
120
0
130
0
111
1
121
0
131
0
112
0
122
1
132
0
 79
    0
146
0
348
10020
 60
    7
 61
    5
292
1
282
    1
141
0
142
0
 63
  250
421
3358443
  0
ENDTAB
  0
TABLE
  2
LTYPE
  5
5
330
0
100
AcDbSymbolTable
 70
    4
  0
LTYPE
  5
14
330
5
100
AcDbSymbolTableRecord
100
AcDbLinetypeTableRecord
  2
ByBlock
 70
    0
  3

 72
   65
 73
    0
 40
0
  0
LTYPE
  5
15
330
5
100
AcDbSymbolTableRecord
100
AcDbLinetypeTableRecord
  2
ByLayer
 70
    0
  3

 72
   65
 73
    0
 40
0
  0
LTYPE
  5
16
330
5
100
AcDbSymbolTableRecord
100
AcDbLinetypeTableRecord
  2
Continuous
 70
    0
  3
Solid line
 72
   65
 73
    0
 40
0
  0
LTYPE
  5
32
330
5
100
AcDbSymbolTableRecord
100
AcDbLinetypeTableRecord
  2
DOT
 70
    0
  3
Dot . . . . . . . . . . . . . . . . . . . . . .
 72
   65
 73
    2
 40
6.35
 49
0
 74
    0
 49
-6.35
 74
    0
  0
LTYPE
  5
33
330
5
100
AcDbSymbolTableRecord
100
AcDbLinetypeTableRecord
  2
DOTTINY
 70
    0
  3
Dot (.15x) .....................................
 72
   65
 73
    2
 40
0.9525
 49
0
 74
    0
 49
-0.9525
 74
    0
  0
LTYPE
  5
34
330
5
100
AcDbSymbolTableRecord
100
AcDbLinetypeTableRecord
  2
DOT2
 70
    0
  3
Dot (.5x) .....................................
 72
   65
 73
    2
 40
3.175
 49
0
 74
    0
 49
-3.175
 74
    0
  0
LTYPE
  5
35
330
5
100
AcDbSymbolTableRecord
100
AcDbLinetypeTableRecord
  2
DOTX2
 70
    0
  3
Dot (2x) .  .  .  .  .  .  .  .  .  .  .  .  .
 72
   65
 73
    2
 40
12.7
 49
0
 74
    0
 49
-12.7
 74
    0
  0
LTYPE
  5
36
330
5
100
AcDbSymbolTableRecord
100
AcDbLinetypeTableRecord
  2
DASHED
 70
    0
  3
Dashed _ _ _ _ _ _ _ _ _ _ _ _ _ _ _ _ _
 72
   65
 73
    2
 40
19.05
 49
12.7
 74
    0
 49
-6.35
 74
    0
  0
LTYPE
  5
37
330
5
100
AcDbSymbolTableRecord
100
AcDbLinetypeTableRecord
  2
DASHEDTINY
 70
    0
  3
Dashed (.15x) _ _ _ _ _ _ _ _ _ _ _ _ _ _ _ _ _
 72
   65
 73
    2
 40
2.8575
 49
1.905
 74
    0
 49
-0.9525
 74
    0
  0
LTYPE
  5
38
330
5
100
AcDbSymbolTableRecord
100
AcDbLinetypeTableRecord
  2
DASHED2
 70
    0
  3
Dashed (.5x) _ _ _ _ _ _ _ _ _ _ _ _ _ _ _ _ _
 72
   65
 73
    2
 40
9.524999999999999
 49
6.35
 74
    0
 49
-3.175
 74
    0
  0
LTYPE
  5
39
330
5
100
AcDbSymbolTableRecord
100
AcDbLinetypeTableRecord
  2
DASHEDX2
 70
    0
  3
Dashed (2x) ____  ____  ____  ____  ____  ___
 72
   65
 73
    2
 40
38.09999999999999
 49
25.4
 74
    0
 49
-12.7
 74
    0
  0
LTYPE
  5
3A
330
5
100
AcDbSymbolTableRecord
100
AcDbLinetypeTableRecord
  2
DASHDOT
 70
    0
  3
Dash dot __ . __ . __ . __ . __ . __ . __ . __
 72
   65
 73
    4
 40
25.4
 49
12.7
 74
    0
 49
-6.35
 74
    0
 49
0
 74
    0
 49
-6.35
 74
    0
  0
LTYPE
  5
3B
330
5
100
AcDbSymbolTableRecord
100
AcDbLinetypeTableRecord
  2
DASHDOTTINY
 70
    0
  3
Dash dot (.15x) _._._._._._._._._._._._._._._.
 72
   65
 73
    4
 40
3.81
 49
1.905
 74
    0
 49
-0.9525
 74
    0
 49
0
 74
    0
 49
-0.9525
 74
    0
  0
LTYPE
  5
3C
330
5
100
AcDbSymbolTableRecord
100
AcDbLinetypeTableRecord
  2
DASHDOT2
 70
    0
  3
Dash dot (.5x) _._._._._._._._._._._._._._._.
 72
   65
 73
    4
 40
12.7
 49
6.35
 74
    0
 49
-3.175
 74
    0
 49
0
 74
    0
 49
-3.175
 74
    0
  0
LTYPE
  5
3D
330
5
100
AcDbSymbolTableRecord
100
AcDbLinetypeTableRecord
  2
DASHDOTX2
 70
    0
  3
Dash dot (2x) ____  .  ____  .  ____  .  ___
 72
   65
 73
    4
 40
50.8
 49
25.4
 74
    0
 49
-12.7
 74
    0
 49
0
 74
    0
 49
-12.7
 74
    0
  0
LTYPE
  5
3E
330
5
100
AcDbSymbolTableRecord
100
AcDbLinetypeTableRecord
  2
DIVIDE
 70
    0
  3
Divide ____ . . ____ . . ____ . . ____ . . ____
 72
   65
 73
    6
 40
31.75
 49
12.7
 74
    0
 49
-6.35
 74
    0
 49
0
 74
    0
 49
-6.35
 74
    0
 49
0
 74
    0
 49
-6.35
 74
    0
  0
LTYPE
  5
3F
330
5
100
AcDbSymbolTableRecord
100
AcDbLinetypeTableRecord
  2
DIVIDETINY
 70
    0
  3
Divide (.15x) __..__..__..__..__..__..__..__.._
 72
   65
 73
    6
 40
4.7625
 49
1.905
 74
    0
 49
-0.9525
 74
    0
 49
0
 74
    0
 49
-0.9525
 74
    0
 49
0
 74
    0
 49
-0.9525
 74
    0
  0
LTYPE
  5
40
330
5
100
AcDbSymbolTableRecord
100
AcDbLinetypeTableRecord
  2
DIVIDE2
 70
    0
  3
Divide (.5x) __..__..__..__..__..__..__..__.._
 72
   65
 73
    6
 40
15.875
 49
6.35
 74
    0
 49
-3.175
 74
    0
 49
0
 74
    0
 49
-3.175
 74
    0
 49
0
 74
    0
 49
-3.175
 74
    0
  0
LTYPE
  5
41
330
5
100
AcDbSymbolTableRecord
100
AcDbLinetypeTableRecord
  2
DIVIDEX2
 70
    0
  3
Divide (2x) ________  .  .  ________  .  .  _
 72
   65
 73
    6
 40
63.5
 49
25.4
 74
    0
 49
-12.7
 74
    0
 49
0
 74
    0
 49
-12.7
 74
    0
 49
0
 74
    0
 49
-12.7
 74
    0
  0
LTYPE
  5
42
330
5
100
AcDbSymbolTableRecord
100
AcDbLinetypeTableRecord
  2
BORDER
 70
    0
  3
Border __ __ . __ __ . __ __ . __ __ . __ __ .
 72
   65
 73
    6
 40
44.45
 49
12.7
 74
    0
 49
-6.35
 74
    0
 49
12.7
 74
    0
 49
-6.35
 74
    0
 49
0
 74
    0
 49
-6.35
 74
    0
  0
LTYPE
  5
43
330
5
100
AcDbSymbolTableRecord
100
AcDbLinetypeTableRecord
  2
BORDERTINY
 70
    0
  3
Border (.15x) __.__.__.__.__.__.__.__.__.__.__.
 72
   65
 73
    6
 40
6.6675
 49
1.905
 74
    0
 49
-0.9525
 74
    0
 49
1.905
 74
    0
 49
-0.9525
 74
    0
 49
0
 74
    0
 49
-0.9525
 74
    0
  0
LTYPE
  5
44
330
5
100
AcDbSymbolTableRecord
100
AcDbLinetypeTableRecord
  2
BORDER2
 70
    0
  3
Border (.5x) __.__.__.__.__.__.__.__.__.__.__.
 72
   65
 73
    6
 40
22.225
 49
6.35
 74
    0
 49
-3.175
 74
    0
 49
6.35
 74
    0
 49
-3.175
 74
    0
 49
0
 74
    0
 49
-3.175
 74
    0
  0
LTYPE
  5
45
330
5
100
AcDbSymbolTableRecord
100
AcDbLinetypeTableRecord
  2
BORDERX2
 70
    0
  3
Border (2x) ____  ____  .  ____  ____  .  ___
 72
   65
 73
    6
 40
88.89999999999999
 49
25.4
 74
    0
 49
-12.7
 74
    0
 49
25.4
 74
    0
 49
-12.7
 74
    0
 49
0
 74
    0
 49
-12.7
 74
    0
  0
LTYPE
  5
46
330
5
100
AcDbSymbolTableRecord
100
AcDbLinetypeTableRecord
  2
CENTER
 70
    0
  3
Center ____ _ ____ _ ____ _ ____ _ ____ _ ____
 72
   65
 73
    4
 40
50.8
 49
31.75
 74
    0
 49
-6.35
 74
    0
 49
6.35
 74
    0
 49
-6.35
 74
    0
  0
LTYPE
  5
47
330
5
100
AcDbSymbolTableRecord
100
AcDbLinetypeTableRecord
  2
CENTERTINY
 70
    0
  3
Center (.15x) ___ _ ___ _ ___ _ ___ _ ___ _ ___
 72
   65
 73
    4
 40
7.619999999999999
 49
4.7625
 74
    0
 49
-0.9525
 74
    0
 49
0.9525
 74
    0
 49
-0.9525
 74
    0
  0
LTYPE
  5
48
330
5
100
AcDbSymbolTableRecord
100
AcDbLinetypeTableRecord
  2
CENTER2
 70
    0
  3
Center (.5x) ___ _ ___ _ ___ _ ___ _ ___ _ ___
 72
   65
 73
    4
 40
28.575
 49
19.05
 74
    0
 49
-3.175
 74
    0
 49
3.175
 74
    0
 49
-3.175
 74
    0
  0
LTYPE
  5
49
330
5
100
AcDbSymbolTableRecord
100
AcDbLinetypeTableRecord
  2
CENTERX2
 70
    0
  3
Center (2x) ________  __  ________  __  _____
 72
   65
 73
    4
 40
101.6
 49
63.5
 74
    0
 49
-12.7
 74
    0
 49
12.7
 74
    0
 49
-12.7
 74
    0
  0
ENDTAB
  0
TABLE
  2
LAYER
  5
2
330
0
100
AcDbSymbolTable
 70
    1
  0
LAYER
  5
10
330
2
100
AcDbSymbolTableRecord
100
AcDbLayerTableRecord
  2
0
 70
    0
 62
    7
  6
CONTINUOUS
370
   -3
390
F
  0
LAYER
  5
4A
330
2
100
AcDbSymbolTableRecord
100
AcDbLayerTableRecord
  2
Calque_1
 70
    0
 62
    7
  6
CONTINUOUS
370
   -3
390
F
  0
ENDTAB
  0
TABLE
  2
STYLE
  5
3
330
0
100
AcDbSymbolTable
 70
    3
  0
STYLE
  5
4B
330
2
100
AcDbSymbolTableRecord
100
AcDbTextStyleTableRecord
  2
Standard
 70
    0
 40
0
 41
1
 50
0
 71
    0
 42
1
  3
txt
  4

  0
ENDTAB
  0
TABLE
  2
VIEW
  5
6
330
0
100
AcDbSymbolTable
 70
    0
  0
ENDTAB
  0
TABLE
  2
UCS
  5
7
330
0
100
AcDbSymbolTable
 70
    0
  0
ENDTAB
  0
TABLE
  2
APPID
  5
9
330
0
100
AcDbSymbolTable
 70
    1
  0
APPID
  5
12
330
9
100
AcDbSymbolTableRecord
100
AcDbRegAppTableRecord
  2
ACAD
 70
    0
  0
APPID
  5
4C
330
9
100
AcDbSymbolTableRecord
100
AcDbRegAppTableRecord
  2
LibreCad
 70
    0
  0
ENDTAB
  0
TABLE
  2
DIMSTYLE
  5
A
330
0
100
AcDbSymbolTable
 70
    1
100
AcDbDimStyleTable
 71
    1
  0
DIMSTYLE
105
4D
330
A
100
AcDbSymbolTableRecord
100
AcDbDimStyleTableRecord
  2
Standard
 70
    0
 40
1
 41
2.5
 42
0.625
 43
0.38
 44
1.25
 45
0
 46
0
 47
0
 48
0
 49
1
140
2.5
141
0.09
142
2.5
143
25.4
144
1
145
0
146
1
147
0.625
148
0
 71
    0
 72
    0
 73
    0
 74
    1
 75
    0
 76
    0
 77
    0
 78
    1
 79
    0
170
    0
171
    2
172
    0
173
    0
174
    0
175
    0
176
    0
177
    0
178
    0
179
    0
271
    2
272
    4
273
    2
274
    2
275
    0
276
    0
277
    2
278
    0
279
    0
280
    0
281
    0
282
    0
283
    1
284
    0
285
    0
286
    0
288
    0
289
    3
340
standard
341

371
   -2
372
   -2
  0
ENDTAB
  0
TABLE
  2
BLOCK_RECORD
  5
1
330
0
100
AcDbSymbolTable
 70
    2
  0
BLOCK_RECORD
  5
1F
330
1
100
AcDbSymbolTableRecord
100
AcDbBlockTableRecord
  2
*Model_Space
 70
    0
280
    1
281
    0
  0
BLOCK_RECORD
  5
1E
330
1
100
AcDbSymbolTableRecord
100
AcDbBlockTableRecord
  2
*Paper_Space
 70
    0
280
    1
281
    0
  0
ENDTAB
  0
ENDSEC
  0
SECTION
  2
BLOCKS
  0
BLOCK
  5
20
330
1F
100
AcDbEntity
  8
0
100
AcDbBlockBegin
  2
*Model_Space
 70
    0
 10
0
 20
0
 30
0
  3
*Model_Space
  1

  0
ENDBLK
  5
21
330
1F
100
AcDbEntity
  8
0
100
AcDbBlockEnd
  0
BLOCK
  5
1C
330
1B
100
AcDbEntity
  8
0
100
AcDbBlockBegin
  2
*Paper_Space
 70
    0
 10
0
 20
0
 30
0
  3
*Paper_Space
  1

  0
ENDBLK
  5
1D
330
1F
100
AcDbEntity
  8
0
100
AcDbBlockEnd
  0
ENDSEC
  0
SECTION
  2
ENTITIES
  0
SPLINE
  5
4E
100
AcDbEntity
  8
Calque_1
  6
ByLayer
 62
    7
370
   -1
100
AcDbSpline
210
0
220
0
230
0
 70
    8
 71
    3
 72
    8
 73
    4
 74
    0
 42
1e-07
 43
1e-07
 40
0
 40
0
 40
0
 40
0
 40
1
 40
1
 40
1
 40
1
 10
8.303061
 20
3.589589
 30
0
 10
7.868285
 20
3.164639
 30
0
 10
7.346027
 20
2.855989
 30
0
 10
6.764322
 20
2.680229
 30
0
  0
SPLINE
  5
4F
100
AcDbEntity
  8
Calque_1
  6
ByLayer
 62
    7
370
   -1
100
AcDbSpline
210
0
220
0
230
0
 70
    8
 71
    3
 72
    8
 73
    4
 74
    0
 42
1e-07
 43
1e-07
 40
0
 40
0
 40
0
 40
0
 40
1
 40
1
 40
1
 40
1
 10
6.764322
 20
2.680229
 30
0
 10
6.375256
 20
2.562679
 30
0
 10
6.207013
 20
2.540969
 30
0
 10
5.689316
 20
2.541559
 30
0
  0
SPLINE
  5
50
100
AcDbEntity
  8
Calque_1
  6
ByLayer
 62
    7
370
   -1
100
AcDbSpline
210
0
220
0
230
0
 70
    8
 71
    3
 72
    8
 73
    4
 74
    0
 42
1e-07
 43
1e-07
 40
0
 40
0
 40
0
 40
0
 40
1
 40
1
 40
1
 40
1
 10
5.689316
 20
2.541559
 30
0
 10
5.26429
 20
2.542029
 30
0
 10
5.208151
 20
2.545559
 30
0
 10
4.981687
 20
2.594659
 30
0
  0
SPLINE
  5
51
100
AcDbEntity
  8
Calque_1
  6
ByLayer
 62
    7
370
   -1
100
AcDbSpline
210
0
220
0
230
0
 70
    8
 71
    3
 72
    8
 73
    4
 74
    0
 42
1e-07
 43
1e-07
 40
0
 40
0
 40
0
 40
0
 40
1
 40
1
 40
1
 40
1
 10
4.981687
 20
2.594659
 30
0
 10
3.326689
 20
2.948389
 30
0
 10
2.150823
 20
4.278429
 30
0
 10
2.012222
 20
5.953479
 30
0
  0
SPLINE
  5
52
100
AcDbEntity
  8
Calque_1
  6
ByLayer
 62
    7
370
   -1
100
AcDbSpline
210
0
220
0
230
0
 70
    8
 71
    3
 72
    8
 73
    4
 74
    0
 42
1e-07
 43
1e-07
 40
0
 40
0
 40
0
 40
0
 40
1
 40
1
 40
1
 40
1
 10
2.012222
 20
5.953479
 30
0
 10
1.957212
 20
6.618369
 30
0
 10
2.088042
 20
7.269709
 30
0
 10
2.401777
 20
7.892789
 30
0
  0
SPLINE
  5
53
100
AcDbEntity
  8
Calque_1
  6
ByLayer
 62
    7
370
   -1
100
AcDbSpline
210
0
220
0
230
0
 70
    8
 71
    3
 72
    8
 73
    4
 74
    0
 42
1e-07
 43
1e-07
 40
0
 40
0
 40
0
 40
0
 40
1
 40
1
 40
1
 40
1
 10
2.401777
 20
7.892789
 30
0
 10
2.766204
 20
8.616548999999999
 30
0
 10
3.316578
 20
9.166919
 30
0
 10
4.040337
 20
9.531349000000001
 30
0
  0
SPLINE
  5
54
100
AcDbEntity
  8
Calque_1
  6
ByLayer
 62
    7
370
   -1
100
AcDbSpline
210
0
220
0
230
0
 70
    8
 71
    3
 72
    8
 73
    4
 74
    0
 42
1e-07
 43
1e-07
 40
0
 40
0
 40
0
 40
0
 40
1
 40
1
 40
1
 40
1
 10
4.040337
 20
9.531349000000001
 30
0
 10
5.080789
 20
10.055239
 30
0
 10
6.276615
 20
10.067399
 30
0
 10
7.310004
 20
9.564648999999999
 30
0
  0
SPLINE
  5
55
100
AcDbEntity
  8
Calque_1
  6
ByLayer
 62
    7
370
   -1
100
AcDbSpline
210
0
220
0
230
0
 70
    8
 71
    3
 72
    8
 73
    4
 74
    0
 42
1e-07
 43
1e-07
 40
0
 40
0
 40
0
 40
0
 40
1
 40
1
 40
1
 40
1
 10
7.310004
 20
9.564648999999999
 30
0
 10
7.731714
 20
9.359469000000001
 30
0
 10
8.066380000000001
 20
9.114379
 30
0
 10
8.392996999999999
 20
8.771549
 30
0
  0
SPLINE
  5
56
100
AcDbEntity
  8
Calque_1
  6
ByLayer
 62
    7
370
   -1
100
AcDbSpline
210
0
220
0
230
0
 70
    8
 71
    3
 72
    8
 73
    4
 74
    0
 42
1e-07
 43
1e-07
 40
0
 40
0
 40
0
 40
0
 40
1
 40
1
 40
1
 40
1
 10
8.392996999999999
 20
8.771549
 30
0
 10
8.925221000000001
 20
8.212909
 30
0
 10
9.260031
 20
7.521779
 30
0
 10
9.374841999999999
 20
6.744779
 30
0
  0
SPLINE
  5
57
100
AcDbEntity
  8
Calque_1
  6
ByLayer
 62
    7
370
   -1
100
AcDbSpline
210
0
220
0
230
0
 70
    8
 71
    3
 72
    8
 73
    4
 74
    0
 42
1e-07
 43
1e-07
 40
0
 40
0
 40
0
 40
0
 40
1
 40
1
 40
1
 40
1
 10
9.374841999999999
 20
6.744779
 30
0
 10
9.422992000000001
 20
6.418889
 30
0
 10
9.404032000000001
 20
5.807119
 30
0
 10
9.335822
 20
5.486159
 30
0
  0
SPLINE
  5
58
100
AcDbEntity
  8
Calque_1
  6
ByLayer
 62
    7
370
   -1
100
AcDbSpline
210
0
220
0
230
0
 70
    8
 71
    3
 72
    8
 73
    4
 74
    0
 42
1e-07
 43
1e-07
 40
0
 40
0
 40
0
 40
0
 40
1
 40
1
 40
1
 40
1
 10
9.335822
 20
5.486159
 30
0
 10
9.249371999999999
 20
5.079329
 30
0
 10
9.068111999999999
 20
4.622949
 30
0
 10
8.856533000000001
 20
4.279369
 30
0
  0
LWPOLYLINE
  5
59
100
AcDbEntity
  8
Calque_1
  6
ByLayer
 62
    7
370
   -1
100
AcDbPolyline
 90
   29
 70
    0
 43
0
 10
30.854003
 20
2.530779
 10
30.854003
 20
3.061179
 10
29.175003
 20
3.061179
 10
27.496013
 20
3.061179
 10
27.491013
 20
2.830359
 10
27.486013
 20
2.599529
 10
26.253309
 20
2.594529
 10
25.020601
 20
2.589529
 10
25.020601
 20
2.825409
 10
25.020601
 20
3.061289
 10
22.967728
 20
3.061289
 10
20.914855
 20
3.061289
 10
20.914855
 20
2.717509
 10
20.914855
 20
2.373729
 10
20.727992
 20
2.373729
 10
20.54182
 20
2.373729
 10
20.53652
 20
2.716779
 10
20.53122
 20
3.059819
 10
19.941879
 20
2.719309
 10
19.352538
 20
2.378799
 10
19.347238
 20
2.719989
 10
19.341938
 20
3.061179
 10
15.948768
 20
3.066179
 10
12.555599
 20
3.071179
 10
12.550299
 20
3.419859
 10
12.544999
 20
3.768559
 10
10.515292
 20
3.768559
 10
8.486173000000001
 20
3.768559
 10
8.303061
 20
3.589589
  0
SPLINE
  5
5A
100
AcDbEntity
  8
Calque_1
  6
ByLayer
 62
    7
370
   -1
100
AcDbSpline
210
0
220
0
230
0
 70
    8
 71
    3
 72
    8
 73
    4
 74
    0
 42
1e-07
 43
1e-07
 40
0
 40
0
 40
0
 40
0
 40
1
 40
1
 40
1
 40
1
 10
11.187105
 20
4.146679
 30
0
 10
13.931493
 20
4.140679
 30
0
 10
13.71412
 20
4.127479
 30
0
 10
13.832596
 20
4.306319
 30
0
  0
SPLINE
  5
5B
100
AcDbEntity
  8
Calque_1
  6
ByLayer
 62
    7
370
   -1
100
AcDbSpline
210
0
220
0
230
0
 70
    8
 71
    3
 72
    8
 73
    4
 74
    0
 42
1e-07
 43
1e-07
 40
0
 40
0
 40
0
 40
0
 40
1
 40
1
 40
1
 40
1
 10
13.832596
 20
4.306319
 30
0
 10
13.896896
 20
4.403319
 30
0
 10
14.097247
 20
4.894909
 30
0
 10
14.097247
 20
4.955599
 30
0
  0
SPLINE
  5
5C
100
AcDbEntity
  8
Calque_1
  6
ByLayer
 62
    7
370
   -1
100
AcDbSpline
210
0
220
0
230
0
 70
    8
 71
    3
 72
    8
 73
    4
 74
    0
 42
1e-07
 43
1e-07
 40
0
 40
0
 40
0
 40
0
 40
1
 40
1
 40
1
 40
1
 10
14.097247
 20
4.955599
 30
0
 10
14.097247
 20
4.971799
 30
0
 10
13.880664
 20
5.547999
 30
0
 10
13.615952
 20
6.236139
 30
0
  0
SPLINE
  5
5D
100
AcDbEntity
  8
Calque_1
  6
ByLayer
 62
    7
370
   -1
100
AcDbSpline
210
0
220
0
230
0
 70
    8
 71
    3
 72
    8
 73
    4
 74
    0
 42
1e-07
 43
1e-07
 40
0
 40
0
 40
0
 40
0
 40
1
 40
1
 40
1
 40
1
 10
13.615952
 20
6.236139
 30
0
 10
13.351239
 20
6.924279
 30
0
 10
13.134657
 20
7.495189
 30
0
 10
13.134657
 20
7.504849
 30
0
  0
SPLINE
  5
5E
100
AcDbEntity
  8
Calque_1
  6
ByLayer
 62
    7
370
   -1
100
AcDbSpline
210
0
220
0
230
0
 70
    8
 71
    3
 72
    8
 73
    4
 74
    0
 42
1e-07
 43
1e-07
 40
0
 40
0
 40
0
 40
0
 40
1
 40
1
 40
1
 40
1
 10
13.134657
 20
7.504849
 30
0
 10
13.134657
 20
7.514849
 30
0
 10
13.229347
 20
7.519849
 30
0
 10
13.345081
 20
7.516849
 30
0
  0
LWPOLYLINE
  5
5F
100
AcDbEntity
  8
Calque_1
  6
ByLayer
 62
    7
370
   -1
100
AcDbPolyline
 90
    3
 70
    0
 43
0
 10
8.856533000000001
 20
4.279369
 10
8.777903
 20
4.151679
 10
11.187105
 20
4.146679
  0
SPLINE
  5
60
100
AcDbEntity
  8
Calque_1
  6
ByLayer
 62
    7
370
   -1
100
AcDbSpline
210
0
220
0
230
0
 70
    8
 71
    3
 72
    8
 73
    4
 74
    0
 42
1e-07
 43
1e-07
 40
0
 40
0
 40
0
 40
0
 40
1
 40
1
 40
1
 40
1
 10
13.910496
 20
6.548259
 30
0
 10
14.105742
 20
6.018829
 30
0
 10
14.272516
 20
5.567989
 30
0
 10
14.281106
 20
5.546379
 30
0
  0
SPLINE
  5
61
100
AcDbEntity
  8
Calque_1
  6
ByLayer
 62
    7
370
   -1
100
AcDbSpline
210
0
220
0
230
0
 70
    8
 71
    3
 72
    8
 73
    4
 74
    0
 42
1e-07
 43
1e-07
 40
0
 40
0
 40
0
 40
0
 40
1
 40
1
 40
1
 40
1
 10
14.281106
 20
5.546379
 30
0
 10
14.296026
 20
5.508779
 30
0
 10
14.297826
 20
5.509279
 30
0
 10
14.321506
 20
5.556379
 30
0
  0
SPLINE
  5
62
100
AcDbEntity
  8
Calque_1
  6
ByLayer
 62
    7
370
   -1
100
AcDbSpline
210
0
220
0
230
0
 70
    8
 71
    3
 72
    8
 73
    4
 74
    0
 42
1e-07
 43
1e-07
 40
0
 40
0
 40
0
 40
0
 40
1
 40
1
 40
1
 40
1
 10
14.321506
 20
5.556379
 30
0
 10
14.335136
 20
5.583479
 30
0
 10
14.49495
 20
6.036449
 30
0
 10
14.676653
 20
6.563179
 30
0
  0
LWPOLYLINE
  5
63
100
AcDbEntity
  8
Calque_1
  6
ByLayer
 62
    7
370
   -1
100
AcDbPolyline
 90
    3
 70
    0
 43
0
 10
13.345081
 20
7.516849
 10
13.555504
 20
7.510849
 10
13.910496
 20
6.548259
  0
SPLINE
  5
64
100
AcDbEntity
  8
Calque_1
  6
ByLayer
 62
    7
370
   -1
100
AcDbSpline
210
0
220
0
230
0
 70
    8
 71
    3
 72
    8
 73
    4
 74
    0
 42
1e-07
 43
1e-07
 40
0
 40
0
 40
0
 40
0
 40
1
 40
1
 40
1
 40
1
 10
15.221216
 20
7.520849
 30
0
 10
15.339022
 20
7.520849
 30
0
 10
15.430983
 20
7.513849
 30
0
 10
15.425574
 20
7.504949
 30
0
  0
SPLINE
  5
65
100
AcDbEntity
  8
Calque_1
  6
ByLayer
 62
    7
370
   -1
100
AcDbSpline
210
0
220
0
230
0
 70
    8
 71
    3
 72
    8
 73
    4
 74
    0
 42
1e-07
 43
1e-07
 40
0
 40
0
 40
0
 40
0
 40
1
 40
1
 40
1
 40
1
 10
15.425574
 20
7.504949
 30
0
 10
15.420174
 20
7.495949
 30
0
 10
15.16236
 20
6.791199
 30
0
 10
14.852675
 20
5.938289
 30
0
  0
SPLINE
  5
66
100
AcDbEntity
  8
Calque_1
  6
ByLayer
 62
    7
370
   -1
100
AcDbSpline
210
0
220
0
230
0
 70
    8
 71
    3
 72
    8
 73
    4
 74
    0
 42
1e-07
 43
1e-07
 40
0
 40
0
 40
0
 40
0
 40
1
 40
1
 40
1
 40
1
 10
14.852675
 20
5.938289
 30
0
 10
14.542991
 20
5.085379
 30
0
 10
14.258155
 20
4.322799
 30
0
 10
14.219707
 20
4.243689
 30
0
  0
SPLINE
  5
67
100
AcDbEntity
  8
Calque_1
  6
ByLayer
 62
    7
370
   -1
100
AcDbSpline
210
0
220
0
230
0
 70
    8
 71
    3
 72
    8
 73
    4
 74
    0
 42
1e-07
 43
1e-07
 40
0
 40
0
 40
0
 40
0
 40
1
 40
1
 40
1
 40
1
 10
14.219707
 20
4.243689
 30
0
 10
14.181257
 20
4.164589
 30
0
 10
14.110242
 20
4.055839
 30
0
 10
14.061892
 20
4.002059
 30
0
  0
SPLINE
  5
68
100
AcDbEntity
  8
Calque_1
  6
ByLayer
 62
    7
370
   -1
100
AcDbSpline
210
0
220
0
230
0
 70
    8
 71
    3
 72
    8
 73
    4
 74
    0
 42
1e-07
 43
1e-07
 40
0
 40
0
 40
0
 40
0
 40
1
 40
1
 40
1
 40
1
 10
14.061892
 20
4.002059
 30
0
 10
13.895317
 20
3.816789
 30
0
 10
13.729886
 20
3.769449
 30
0
 10
13.247617
 20
3.769019
 30
0
  0
LWPOLYLINE
  5
69
100
AcDbEntity
  8
Calque_1
  6
ByLayer
 62
    7
370
   -1
100
AcDbPolyline
 90
    3
 70
    0
 43
0
 10
14.676653
 20
6.563179
 10
15.007023
 20
7.520849
 10
15.221216
 20
7.520849
  0
SPLINE
  5
6A
100
AcDbEntity
  8
Calque_1
  6
ByLayer
 62
    7
370
   -1
100
AcDbSpline
210
0
220
0
230
0
 70
    8
 71
    3
 72
    8
 73
    4
 74
    0
 42
1e-07
 43
1e-07
 40
0
 40
0
 40
0
 40
0
 40
1
 40
1
 40
1
 40
1
 10
19.342386
 20
3.778549
 30
0
 10
19.342386
 20
3.967629
 30
0
 10
19.346386
 20
4.122329
 30
0
 10
19.351186
 20
4.122329
 30
0
  0
SPLINE
  5
6B
100
AcDbEntity
  8
Calque_1
  6
ByLayer
 62
    7
370
   -1
100
AcDbSpline
210
0
220
0
230
0
 70
    8
 71
    3
 72
    8
 73
    4
 74
    0
 42
1e-07
 43
1e-07
 40
0
 40
0
 40
0
 40
0
 40
1
 40
1
 40
1
 40
1
 10
19.351186
 20
4.122329
 30
0
 10
19.356086
 20
4.122329
 30
0
 10
19.61318
 20
3.975899
 30
0
 10
19.922589
 20
3.796929
 30
0
  0
SPLINE
  5
6C
100
AcDbEntity
  8
Calque_1
  6
ByLayer
 62
    7
370
   -1
100
AcDbSpline
210
0
220
0
230
0
 70
    8
 71
    3
 72
    8
 73
    4
 74
    0
 42
1e-07
 43
1e-07
 40
0
 40
0
 40
0
 40
0
 40
1
 40
1
 40
1
 40
1
 10
19.922589
 20
3.796929
 30
0
 10
20.231997
 20
3.617949
 30
0
 10
20.497642
 20
3.466729
 30
0
 10
20.512911
 20
3.460859
 30
0
  0
SPLINE
  5
6D
100
AcDbEntity
  8
Calque_1
  6
ByLayer
 62
    7
370
   -1
100
AcDbSpline
210
0
220
0
230
0
 70
    8
 71
    3
 72
    8
 73
    4
 74
    0
 42
1e-07
 43
1e-07
 40
0
 40
0
 40
0
 40
0
 40
1
 40
1
 40
1
 40
1
 10
20.512911
 20
3.460859
 30
0
 10
20.536181
 20
3.451859
 30
0
 10
20.540671
 20
3.506259
 30
0
 10
20.540671
 20
3.796829
 30
0
  0
LWPOLYLINE
  5
6E
100
AcDbEntity
  8
Calque_1
  6
ByLayer
 62
    7
370
   -1
100
AcDbPolyline
 90
    7
 70
    0
 43
0
 10
13.247617
 20
3.769019
 10
12.918568
 20
3.768729
 10
12.918568
 20
3.601749
 10
12.918568
 20
3.434769
 10
16.130477
 20
3.434769
 10
19.342386
 20
3.434769
 10
19.342386
 20
3.778549
  0
SPLINE
  5
6F
100
AcDbEntity
  8
Calque_1
  6
ByLayer
 62
    7
370
   -1
100
AcDbSpline
210
0
220
0
230
0
 70
    8
 71
    3
 72
    8
 73
    4
 74
    0
 42
1e-07
 43
1e-07
 40
0
 40
0
 40
0
 40
0
 40
1
 40
1
 40
1
 40
1
 10
31.266353
 20
6.620069
 30
0
 10
31.266353
 20
5.598579
 30
0
 10
31.268353
 20
5.576659
 30
0
 10
31.406763
 20
5.427139
 30
0
  0
SPLINE
  5
70
100
AcDbEntity
  8
Calque_1
  6
ByLayer
 62
    7
370
   -1
100
AcDbSpline
210
0
220
0
230
0
 70
    8
 71
    3
 72
    8
 73
    4
 74
    0
 42
1e-07
 43
1e-07
 40
0
 40
0
 40
0
 40
0
 40
1
 40
1
 40
1
 40
1
 10
31.406763
 20
5.427139
 30
0
 10
31.498963
 20
5.327139
 30
0
 10
31.584863
 20
5.293459
 30
0
 10
31.747653
 20
5.293459
 30
0
  0
SPLINE
  5
71
100
AcDbEntity
  8
Calque_1
  6
ByLayer
 62
    7
370
   -1
100
AcDbSpline
210
0
220
0
230
0
 70
    8
 71
    3
 72
    8
 73
    4
 74
    0
 42
1e-07
 43
1e-07
 40
0
 40
0
 40
0
 40
0
 40
1
 40
1
 40
1
 40
1
 10
31.747653
 20
5.293459
 30
0
 10
32.027593
 20
5.293459
 30
0
 10
32.236053
 20
5.444199
 30
0
 10
32.350843
 20
5.729649
 30
0
  0
SPLINE
  5
72
100
AcDbEntity
  8
Calque_1
  6
ByLayer
 62
    7
370
   -1
100
AcDbSpline
210
0
220
0
230
0
 70
    8
 71
    3
 72
    8
 73
    4
 74
    0
 42
1e-07
 43
1e-07
 40
0
 40
0
 40
0
 40
0
 40
1
 40
1
 40
1
 40
1
 10
32.350843
 20
5.729649
 30
0
 10
32.394443
 20
5.837919
 30
0
 10
32.395543
 20
5.860359
 30
0
 10
32.401743
 20
6.680349
 30
0
  0
LWPOLYLINE
  5
73
100
AcDbEntity
  8
Calque_1
  6
ByLayer
 62
    7
370
   -1
100
AcDbPolyline
 90
   21
 70
    0
 43
0
 10
20.540671
 20
3.796829
 10
20.540671
 20
4.143449
 10
20.722385
 20
4.137449
 10
20.904095
 20
4.131449
 10
20.909295
 20
3.782759
 10
20.914495
 20
3.434059
 10
22.966923
 20
3.434059
 10
25.019337
 20
3.434059
 10
25.019337
 20
3.669799
 10
25.019337
 20
3.905539
 10
26.256957
 20
3.905539
 10
27.494573
 20
3.905539
 10
27.494573
 20
3.669799
 10
27.494573
 20
3.434059
 10
29.174193
 20
3.434059
 10
30.853813
 20
3.434059
 10
30.853813
 20
5.477109
 10
30.853813
 20
7.520159
 10
31.060083
 20
7.520159
 10
31.266353
 20
7.520159
 10
31.266353
 20
6.620069
  0
SPLINE
  5
74
100
AcDbEntity
  8
Calque_1
  6
ByLayer
 62
    7
370
   -1
100
AcDbSpline
210
0
220
0
230
0
 70
    8
 71
    3
 72
    8
 73
    4
 74
    0
 42
1e-07
 43
1e-07
 40
0
 40
0
 40
0
 40
0
 40
1
 40
1
 40
1
 40
1
 10
32.852243
 20
5.336749
 30
0
 10
32.897843
 20
5.291149
 30
0
 10
32.984033
 20
5.279449
 30
0
 10
33.079123
 20
5.305749
 30
0
  0
LWPOLYLINE
  5
75
100
AcDbEntity
  8
Calque_1
  6
ByLayer
 62
    7
370
   -1
100
AcDbPolyline
 90
    7
 70
    0
 43
0
 10
32.401743
 20
6.680349
 10
32.408743
 20
7.520159
 10
32.603393
 20
7.520159
 10
32.798043
 20
7.520159
 10
32.803043
 20
6.450059
 10
32.809043
 20
5.379949
 10
32.852243
 20
5.336749
  0
SPLINE
  5
76
100
AcDbEntity
  8
Calque_1
  6
ByLayer
 62
    7
370
   -1
100
AcDbSpline
210
0
220
0
230
0
 70
    8
 71
    3
 72
    8
 73
    4
 74
    0
 42
1e-07
 43
1e-07
 40
0
 40
0
 40
0
 40
0
 40
1
 40
1
 40
1
 40
1
 10
33.133123
 20
5.154099
 30
0
 10
33.133123
 20
5.001489
 30
0
 10
33.129123
 20
4.985439
 30
0
 10
33.089023
 20
4.963829
 30
0
  0
SPLINE
  5
77
100
AcDbEntity
  8
Calque_1
  6
ByLayer
 62
    7
370
   -1
100
AcDbSpline
210
0
220
0
230
0
 70
    8
 71
    3
 72
    8
 73
    4
 74
    0
 42
1e-07
 43
1e-07
 40
0
 40
0
 40
0
 40
0
 40
1
 40
1
 40
1
 40
1
 10
33.089023
 20
4.963829
 30
0
 10
33.023423
 20
4.928729
 30
0
 10
32.778053
 20
4.918229
 30
0
 10
32.688883
 20
4.946629
 30
0
  0
SPLINE
  5
78
100
AcDbEntity
  8
Calque_1
  6
ByLayer
 62
    7
370
   -1
100
AcDbSpline
210
0
220
0
230
0
 70
    8
 71
    3
 72
    8
 73
    4
 74
    0
 42
1e-07
 43
1e-07
 40
0
 40
0
 40
0
 40
0
 40
1
 40
1
 40
1
 40
1
 10
32.688883
 20
4.946629
 30
0
 10
32.534603
 20
4.995929
 30
0
 10
32.425903
 20
5.163869
 30
0
 10
32.425903
 20
5.352999
 30
0
  0
SPLINE
  5
79
100
AcDbEntity
  8
Calque_1
  6
ByLayer
 62
    7
370
   -1
100
AcDbSpline
210
0
220
0
230
0
 70
    8
 71
    3
 72
    8
 73
    4
 74
    0
 42
1e-07
 43
1e-07
 40
0
 40
0
 40
0
 40
0
 40
1
 40
1
 40
1
 40
1
 10
32.425903
 20
5.352999
 30
0
 10
32.425903
 20
5.388899
 30
0
 10
32.418903
 20
5.418199
 30
0
 10
32.411103
 20
5.418099
 30
0
  0
SPLINE
  5
7A
100
AcDbEntity
  8
Calque_1
  6
ByLayer
 62
    7
370
   -1
100
AcDbSpline
210
0
220
0
230
0
 70
    8
 71
    3
 72
    8
 73
    4
 74
    0
 42
1e-07
 43
1e-07
 40
0
 40
0
 40
0
 40
0
 40
1
 40
1
 40
1
 40
1
 10
32.411103
 20
5.418099
 30
0
 10
32.403103
 20
5.418079
 30
0
 10
32.370803
 20
5.369199
 30
0
 10
32.339603
 20
5.309399
 30
0
  0
SPLINE
  5
7B
100
AcDbEntity
  8
Calque_1
  6
ByLayer
 62
    7
370
   -1
100
AcDbSpline
210
0
220
0
230
0
 70
    8
 71
    3
 72
    8
 73
    4
 74
    0
 42
1e-07
 43
1e-07
 40
0
 40
0
 40
0
 40
0
 40
1
 40
1
 40
1
 40
1
 10
32.339603
 20
5.309399
 30
0
 10
32.221133
 20
5.082649
 30
0
 10
32.005513
 20
4.945999
 30
0
 10
31.742933
 20
4.931219
 30
0
  0
SPLINE
  5
7C
100
AcDbEntity
  8
Calque_1
  6
ByLayer
 62
    7
370
   -1
100
AcDbSpline
210
0
220
0
230
0
 70
    8
 71
    3
 72
    8
 73
    4
 74
    0
 42
1e-07
 43
1e-07
 40
0
 40
0
 40
0
 40
0
 40
1
 40
1
 40
1
 40
1
 10
31.742933
 20
4.931219
 30
0
 10
31.527663
 20
4.919019
 30
0
 10
31.428243
 20
4.948619
 30
0
 10
31.301843
 20
5.062279
 30
0
  0
LWPOLYLINE
  5
7D
100
AcDbEntity
  8
Calque_1
  6
ByLayer
 62
    7
370
   -1
100
AcDbPolyline
 90
    3
 70
    0
 43
0
 10
33.079123
 20
5.305749
 10
33.133123
 20
5.320749
 10
33.133123
 20
5.154099
  0
SPLINE
  5
7E
100
AcDbEntity
  8
Calque_1
  6
ByLayer
 62
    7
370
   -1
100
AcDbSpline
210
0
220
0
230
0
 70
    8
 71
    3
 72
    8
 73
    4
 74
    0
 42
1e-07
 43
1e-07
 40
0
 40
0
 40
0
 40
0
 40
1
 40
1
 40
1
 40
1
 10
31.215353
 20
4.759879
 30
0
 10
31.223353
 20
4.543899
 30
0
 10
31.237453
 20
4.305309
 30
0
 10
31.247353
 20
4.229669
 30
0
  0
SPLINE
  5
7F
100
AcDbEntity
  8
Calque_1
  6
ByLayer
 62
    7
370
   -1
100
AcDbSpline
210
0
220
0
230
0
 70
    8
 71
    3
 72
    8
 73
    4
 74
    0
 42
1e-07
 43
1e-07
 40
0
 40
0
 40
0
 40
0
 40
1
 40
1
 40
1
 40
1
 10
31.247353
 20
4.229669
 30
0
 10
31.257353
 20
4.154069
 30
0
 10
31.265853
 20
3.621419
 30
0
 10
31.266053
 20
3.046079
 30
0
  0
LWPOLYLINE
  5
80
100
AcDbEntity
  8
Calque_1
  6
ByLayer
 62
    7
370
   -1
100
AcDbPolyline
 90
    3
 70
    0
 43
0
 10
31.301843
 20
5.062279
 10
31.201453
 20
5.152579
 10
31.215353
 20
4.759879
  0
SPLINE
  5
81
100
AcDbEntity
  8
Calque_1
  6
ByLayer
 62
    7
370
   -1
100
AcDbSpline
210
0
220
0
230
0
 70
    8
 71
    3
 72
    8
 73
    4
 74
    0
 42
1e-07
 43
1e-07
 40
0
 40
0
 40
0
 40
0
 40
1
 40
1
 40
1
 40
1
 10
6.231636
 20
3.148669
 30
0
 10
6.398455
 20
3.176269
 30
0
 10
6.535987
 20
3.214269
 30
0
 10
6.479837
 20
3.217169
 30
0
  0
SPLINE
  5
82
100
AcDbEntity
  8
Calque_1
  6
ByLayer
 62
    7
370
   -1
100
AcDbSpline
210
0
220
0
230
0
 70
    8
 71
    3
 72
    8
 73
    4
 74
    0
 42
1e-07
 43
1e-07
 40
0
 40
0
 40
0
 40
0
 40
1
 40
1
 40
1
 40
1
 10
6.479837
 20
3.217169
 30
0
 10
6.460597
 20
3.217919
 30
0
 10
6.455287
 20
3.401119
 30
0
 10
6.455287
 20
4.063139
 30
0
  0
LWPOLYLINE
  5
83
100
AcDbEntity
  8
Calque_1
  6
ByLayer
 62
    7
370
   -1
100
AcDbPolyline
 90
    5
 70
    0
 43
0
 10
31.266053
 20
3.046079
 10
31.266693
 20
1.999999
 10
31.060423
 20
1.999999
 10
30.854153
 20
1.999999
 10
30.854003
 20
2.530779
  0
SPLINE
  5
84
100
AcDbEntity
  8
Calque_1
  6
ByLayer
 62
    7
370
   -1
100
AcDbSpline
210
0
220
0
230
0
 70
    8
 71
    3
 72
    8
 73
    4
 74
    0
 42
1e-07
 43
1e-07
 40
0
 40
0
 40
0
 40
0
 40
1
 40
1
 40
1
 40
1
 10
5.217895
 20
6.669209
 30
0
 10
5.217915
 20
7.637939
 30
0
 10
5.214995
 20
8.433458999999999
 30
0
 10
5.211495
 20
8.437029000000001
 30
0
  0
SPLINE
  5
85
100
AcDbEntity
  8
Calque_1
  6
ByLayer
 62
    7
370
   -1
100
AcDbSpline
210
0
220
0
230
0
 70
    8
 71
    3
 72
    8
 73
    4
 74
    0
 42
1e-07
 43
1e-07
 40
0
 40
0
 40
0
 40
0
 40
1
 40
1
 40
1
 40
1
 10
5.211495
 20
8.437029000000001
 30
0
 10
5.207895
 20
8.441029
 30
0
 10
5.122555
 20
8.224809
 30
0
 10
5.021773
 20
7.957499
 30
0
  0
SPLINE
  5
86
100
AcDbEntity
  8
Calque_1
  6
ByLayer
 62
    7
370
   -1
100
AcDbSpline
210
0
220
0
230
0
 70
    8
 71
    3
 72
    8
 73
    4
 74
    0
 42
1e-07
 43
1e-07
 40
0
 40
0
 40
0
 40
0
 40
1
 40
1
 40
1
 40
1
 10
5.021773
 20
7.957499
 30
0
 10
4.920992
 20
7.690199
 30
0
 10
4.812575
 20
7.402989
 30
0
 10
4.780846
 20
7.319249
 30
0
  0
LWPOLYLINE
  5
87
100
AcDbEntity
  8
Calque_1
  6
ByLayer
 62
    7
370
   -1
100
AcDbPolyline
 90
    5
 70
    0
 43
0
 10
6.455287
 20
4.063139
 10
6.455287
 20
4.907869
 10
5.836561
 20
4.907869
 10
5.217836
 20
4.907869
 10
5.217895
 20
6.669209
  0
SPLINE
  5
88
100
AcDbEntity
  8
Calque_1
  6
ByLayer
 62
    7
370
   -1
100
AcDbSpline
210
0
220
0
230
0
 70
    8
 71
    3
 72
    8
 73
    4
 74
    0
 42
1e-07
 43
1e-07
 40
0
 40
0
 40
0
 40
0
 40
1
 40
1
 40
1
 40
1
 10
3.744351
 20
7.726879
 30
0
 10
3.744351
 20
8.254118999999999
 30
0
 10
3.736851
 20
8.640359
 30
0
 10
3.726691
 20
8.640359
 30
0
  0
SPLINE
  5
89
100
AcDbEntity
  8
Calque_1
  6
ByLayer
 62
    7
370
   -1
100
AcDbSpline
210
0
220
0
230
0
 70
    8
 71
    3
 72
    8
 73
    4
 74
    0
 42
1e-07
 43
1e-07
 40
0
 40
0
 40
0
 40
0
 40
1
 40
1
 40
1
 40
1
 10
3.726691
 20
8.640359
 30
0
 10
3.694271
 20
8.640359
 30
0
 10
3.412183
 20
8.363588999999999
 30
0
 10
3.289337
 20
8.211269
 30
0
  0
SPLINE
  5
8A
100
AcDbEntity
  8
Calque_1
  6
ByLayer
 62
    7
370
   -1
100
AcDbSpline
210
0
220
0
230
0
 70
    8
 71
    3
 72
    8
 73
    4
 74
    0
 42
1e-07
 43
1e-07
 40
0
 40
0
 40
0
 40
0
 40
1
 40
1
 40
1
 40
1
 10
3.289337
 20
8.211269
 30
0
 10
2.963615
 20
7.807379
 30
0
 10
2.753054
 20
7.364949
 30
0
 10
2.640419
 20
6.847759
 30
0
  0
SPLINE
  5
8B
100
AcDbEntity
  8
Calque_1
  6
ByLayer
 62
    7
370
   -1
100
AcDbSpline
210
0
220
0
230
0
 70
    8
 71
    3
 72
    8
 73
    4
 74
    0
 42
1e-07
 43
1e-07
 40
0
 40
0
 40
0
 40
0
 40
1
 40
1
 40
1
 40
1
 10
2.640419
 20
6.847759
 30
0
 10
2.602649
 20
6.674349
 30
0
 10
2.596569
 20
6.587839
 30
0
 10
2.596569
 20
6.224059
 30
0
  0
SPLINE
  5
8C
100
AcDbEntity
  8
Calque_1
  6
ByLayer
 62
    7
370
   -1
100
AcDbSpline
210
0
220
0
230
0
 70
    8
 71
    3
 72
    8
 73
    4
 74
    0
 42
1e-07
 43
1e-07
 40
0
 40
0
 40
0
 40
0
 40
1
 40
1
 40
1
 40
1
 10
2.596569
 20
6.224059
 30
0
 10
2.596572
 20
5.759849
 30
0
 10
2.618549
 20
5.610959
 30
0
 10
2.742346
 20
5.236739
 30
0
  0
SPLINE
  5
8D
100
AcDbEntity
  8
Calque_1
  6
ByLayer
 62
    7
370
   -1
100
AcDbSpline
210
0
220
0
230
0
 70
    8
 71
    3
 72
    8
 73
    4
 74
    0
 42
1e-07
 43
1e-07
 40
0
 40
0
 40
0
 40
0
 40
1
 40
1
 40
1
 40
1
 10
2.742346
 20
5.236739
 30
0
 10
3.121764
 20
4.089789
 30
0
 10
4.155136
 20
3.260769
 30
0
 10
5.381766
 20
3.119279
 30
0
  0
SPLINE
  5
8E
100
AcDbEntity
  8
Calque_1
  6
ByLayer
 62
    7
370
   -1
100
AcDbSpline
210
0
220
0
230
0
 70
    8
 71
    3
 72
    8
 73
    4
 74
    0
 42
1e-07
 43
1e-07
 40
0
 40
0
 40
0
 40
0
 40
1
 40
1
 40
1
 40
1
 10
5.381766
 20
3.119279
 30
0
 10
5.572596
 20
3.097279
 30
0
 10
6.013366
 20
3.112279
 30
0
 10
6.231665
 20
3.148779
 30
0
  0
LWPOLYLINE
  5
8F
100
AcDbEntity
  8
Calque_1
  6
ByLayer
 62
    7
370
   -1
100
AcDbPolyline
 90
   11
 70
    0
 43
0
 10
4.780846
 20
7.319249
 10
4.723156
 20
7.167009
 10
4.599533
 20
7.167009
 10
4.475959
 20
7.167009
 10
4.232905
 20
7.815679
 10
3.989861
 20
8.464359
 10
3.984761
 20
7.638879
 10
3.979661
 20
6.813399
 10
3.862007
 20
6.813399
 10
3.744351
 20
6.813399
 10
3.744351
 20
7.726879
  0
SPLINE
  5
90
100
AcDbEntity
  8
Calque_1
  6
ByLayer
 62
    7
370
   -1
100
AcDbSpline
210
0
220
0
230
0
 70
    8
 71
    3
 72
    8
 73
    4
 74
    0
 42
1e-07
 43
1e-07
 40
0
 40
0
 40
0
 40
0
 40
1
 40
1
 40
1
 40
1
 10
7.074089
 20
3.422759
 30
0
 10
7.411084
 20
3.588439
 30
0
 10
7.634459
 20
3.749249
 30
0
 10
7.908989
 20
4.023779
 30
0
  0
SPLINE
  5
91
100
AcDbEntity
  8
Calque_1
  6
ByLayer
 62
    7
370
   -1
100
AcDbSpline
210
0
220
0
230
0
 70
    8
 71
    3
 72
    8
 73
    4
 74
    0
 42
1e-07
 43
1e-07
 40
0
 40
0
 40
0
 40
0
 40
1
 40
1
 40
1
 40
1
 10
7.908989
 20
4.023779
 30
0
 10
8.168806999999999
 20
4.283589
 30
0
 10
8.331704999999999
 20
4.504719
 30
0
 10
8.487151000000001
 20
4.808619
 30
0
  0
SPLINE
  5
92
100
AcDbEntity
  8
Calque_1
  6
ByLayer
 62
    7
370
   -1
100
AcDbSpline
210
0
220
0
230
0
 70
    8
 71
    3
 72
    8
 73
    4
 74
    0
 42
1e-07
 43
1e-07
 40
0
 40
0
 40
0
 40
0
 40
1
 40
1
 40
1
 40
1
 10
8.487151000000001
 20
4.808619
 30
0
 10
9.068789000000001
 20
5.945709
 30
0
 10
8.895718
 20
7.328649
 30
0
 10
8.050922
 20
8.294349
 30
0
  0
SPLINE
  5
93
100
AcDbEntity
  8
Calque_1
  6
ByLayer
 62
    7
370
   -1
100
AcDbSpline
210
0
220
0
230
0
 70
    8
 71
    3
 72
    8
 73
    4
 74
    0
 42
1e-07
 43
1e-07
 40
0
 40
0
 40
0
 40
0
 40
1
 40
1
 40
1
 40
1
 10
8.050922
 20
8.294349
 30
0
 10
7.617467
 20
8.789849
 30
0
 10
7.000844
 20
9.148688999999999
 30
0
 10
6.340527
 20
9.289719
 30
0
  0
SPLINE
  5
94
100
AcDbEntity
  8
Calque_1
  6
ByLayer
 62
    7
370
   -1
100
AcDbSpline
210
0
220
0
230
0
 70
    8
 71
    3
 72
    8
 73
    4
 74
    0
 42
1e-07
 43
1e-07
 40
0
 40
0
 40
0
 40
0
 40
1
 40
1
 40
1
 40
1
 10
6.340527
 20
9.289719
 30
0
 10
6.092401
 20
9.342719000000001
 30
0
 10
5.588802
 20
9.361919
 30
0
 10
5.322887
 20
9.328519
 30
0
  0
SPLINE
  5
95
100
AcDbEntity
  8
Calque_1
  6
ByLayer
 62
    7
370
   -1
100
AcDbSpline
210
0
220
0
230
0
 70
    8
 71
    3
 72
    8
 73
    4
 74
    0
 42
1e-07
 43
1e-07
 40
0
 40
0
 40
0
 40
0
 40
1
 40
1
 40
1
 40
1
 10
5.322887
 20
9.328519
 30
0
 10
4.838797
 20
9.267719
 30
0
 10
4.371909
 20
9.093508999999999
 30
0
 10
3.960403
 20
8.819979
 30
0
  0
LWPOLYLINE
  5
96
100
AcDbEntity
  8
Calque_1
  6
ByLayer
 62
    7
370
   -1
100
AcDbPolyline
 90
    2
 70
    0
 43
0
 10
6.231665
 20
3.148779
 10
6.231636
 20
3.148669
  0
SPLINE
  5
97
100
AcDbEntity
  8
Calque_1
  6
ByLayer
 62
    7
370
   -1
100
AcDbSpline
210
0
220
0
230
0
 70
    8
 71
    3
 72
    8
 73
    4
 74
    0
 42
1e-07
 43
1e-07
 40
0
 40
0
 40
0
 40
0
 40
1
 40
1
 40
1
 40
1
 10
4.294972
 20
8.211539
 30
0
 10
4.585304
 20
7.436639
 30
0
 10
4.59298
 20
7.417579
 30
0
 10
4.607866
 20
7.434729
 30
0
  0
SPLINE
  5
98
100
AcDbEntity
  8
Calque_1
  6
ByLayer
 62
    7
370
   -1
100
AcDbSpline
210
0
220
0
230
0
 70
    8
 71
    3
 72
    8
 73
    4
 74
    0
 42
1e-07
 43
1e-07
 40
0
 40
0
 40
0
 40
0
 40
1
 40
1
 40
1
 40
1
 10
4.607866
 20
7.434729
 30
0
 10
4.615666
 20
7.443729
 30
0
 10
4.727323
 20
7.731709
 30
0
 10
4.856006
 20
8.074709
 30
0
  0
LWPOLYLINE
  5
99
100
AcDbEntity
  8
Calque_1
  6
ByLayer
 62
    7
370
   -1
100
AcDbPolyline
 90
    5
 70
    0
 43
0
 10
3.960403
 20
8.819979
 10
3.793423
 20
8.708989000000001
 10
3.953257
 20
8.702989000000001
 10
4.11309
 20
8.696989
 10
4.294972
 20
8.211539
  0
SPLINE
  5
9A
100
AcDbEntity
  8
Calque_1
  6
ByLayer
 62
    7
370
   -1
100
AcDbSpline
210
0
220
0
230
0
 70
    8
 71
    3
 72
    8
 73
    4
 74
    0
 42
1e-07
 43
1e-07
 40
0
 40
0
 40
0
 40
0
 40
1
 40
1
 40
1
 40
1
 10
6.381613
 20
5.099409
 30
0
 10
7.289874
 20
5.093409
 30
0
 10
7.290212
 20
5.093409
 30
0
 10
7.382917
 20
5.047509
 30
0
  0
SPLINE
  5
9B
100
AcDbEntity
  8
Calque_1
  6
ByLayer
 62
    7
370
   -1
100
AcDbSpline
210
0
220
0
230
0
 70
    8
 71
    3
 72
    8
 73
    4
 74
    0
 42
1e-07
 43
1e-07
 40
0
 40
0
 40
0
 40
0
 40
1
 40
1
 40
1
 40
1
 10
7.382917
 20
5.047509
 30
0
 10
7.568131
 20
4.955409
 30
0
 10
7.673253
 20
4.772979
 30
0
 10
7.673253
 20
4.543549
 30
0
  0
SPLINE
  5
9C
100
AcDbEntity
  8
Calque_1
  6
ByLayer
 62
    7
370
   -1
100
AcDbSpline
210
0
220
0
230
0
 70
    8
 71
    3
 72
    8
 73
    4
 74
    0
 42
1e-07
 43
1e-07
 40
0
 40
0
 40
0
 40
0
 40
1
 40
1
 40
1
 40
1
 10
7.673253
 20
4.543549
 30
0
 10
7.673253
 20
4.307239
 30
0
 10
7.564684
 20
4.125349
 30
0
 10
7.373506
 20
4.041349
 30
0
  0
SPLINE
  5
9D
100
AcDbEntity
  8
Calque_1
  6
ByLayer
 62
    7
370
   -1
100
AcDbSpline
210
0
220
0
230
0
 70
    8
 71
    3
 72
    8
 73
    4
 74
    0
 42
1e-07
 43
1e-07
 40
0
 40
0
 40
0
 40
0
 40
1
 40
1
 40
1
 40
1
 10
7.373506
 20
4.041349
 30
0
 10
7.287236
 20
4.003449
 30
0
 10
7.22435
 20
3.994349
 30
0
 10
6.985688
 20
3.984949
 30
0
  0
LWPOLYLINE
  5
9E
100
AcDbEntity
  8
Calque_1
  6
ByLayer
 62
    7
370
   -1
100
AcDbPolyline
 90
   23
 70
    0
 43
0
 10
4.856006
 20
8.074709
 10
5.089974
 20
8.698349
 10
5.28151
 20
8.698439
 10
5.473045
 20
8.698518999999999
 10
5.473045
 20
7.745749
 10
5.473045
 20
6.792979
 10
5.944519
 20
6.792979
 10
6.415991
 20
6.792979
 10
6.415991
 20
6.694779
 10
6.415991
 20
6.596579
 10
5.944519
 20
6.596579
 10
5.473045
 20
6.596579
 10
5.473045
 20
6.311729
 10
5.473045
 20
6.026879
 10
5.924874
 20
6.026879
 10
6.376702
 20
6.026879
 10
6.376702
 20
5.918839
 10
6.376702
 20
5.810789
 10
5.924874
 20
5.810789
 10
5.473045
 20
5.810789
 10
5.473045
 20
5.458099
 10
5.473045
 20
5.105409
 10
6.381613
 20
5.099409
  0
SPLINE
  5
9F
100
AcDbEntity
  8
Calque_1
  6
ByLayer
 62
    7
370
   -1
100
AcDbSpline
210
0
220
0
230
0
 70
    8
 71
    3
 72
    8
 73
    4
 74
    0
 42
1e-07
 43
1e-07
 40
0
 40
0
 40
0
 40
0
 40
1
 40
1
 40
1
 40
1
 10
6.754349
 20
3.283869
 30
0
 10
6.789719
 20
3.290869
 30
0
 10
6.933579
 20
3.352869
 30
0
 10
7.074039
 20
3.421949
 30
0
  0
LWPOLYLINE
  5
A0
100
AcDbEntity
  8
Calque_1
  6
ByLayer
 62
    7
370
   -1
100
AcDbPolyline
 90
    5
 70
    0
 43
0
 10
6.985688
 20
3.984949
 10
6.700839
 20
3.973849
 10
6.695439
 20
3.622619
 10
6.690039
 20
3.271369
 10
6.754349
 20
3.283869
  0
SPLINE
  5
A1
100
AcDbEntity
  8
Calque_1
  6
ByLayer
 62
    7
370
   -1
100
AcDbSpline
210
0
220
0
230
0
 70
    8
 71
    3
 72
    8
 73
    4
 74
    0
 42
1e-07
 43
1e-07
 40
0
 40
0
 40
0
 40
0
 40
1
 40
1
 40
1
 40
1
 10
7.188346
 20
4.209399
 30
0
 10
7.338026
 20
4.262699
 30
0
 10
7.40503
 20
4.366349
 30
0
 10
7.40503
 20
4.544359
 30
0
  0
SPLINE
  5
A2
100
AcDbEntity
  8
Calque_1
  6
ByLayer
 62
    7
370
   -1
100
AcDbSpline
210
0
220
0
230
0
 70
    8
 71
    3
 72
    8
 73
    4
 74
    0
 42
1e-07
 43
1e-07
 40
0
 40
0
 40
0
 40
0
 40
1
 40
1
 40
1
 40
1
 10
7.40503
 20
4.544359
 30
0
 10
7.40503
 20
4.726219
 30
0
 10
7.32572
 20
4.843149
 30
0
 10
7.172313
 20
4.887459
 30
0
  0
SPLINE
  5
A3
100
AcDbEntity
  8
Calque_1
  6
ByLayer
 62
    7
370
   -1
100
AcDbSpline
210
0
220
0
230
0
 70
    8
 71
    3
 72
    8
 73
    4
 74
    0
 42
1e-07
 43
1e-07
 40
0
 40
0
 40
0
 40
0
 40
1
 40
1
 40
1
 40
1
 10
7.172313
 20
4.887459
 30
0
 10
7.128313
 20
4.900159
 30
0
 10
7.007276
 20
4.907459
 30
0
 10
6.897287
 20
4.904059
 30
0
  0
LWPOLYLINE
  5
A4
100
AcDbEntity
  8
Calque_1
  6
ByLayer
 62
    7
370
   -1
100
AcDbPolyline
 90
    2
 70
    0
 43
0
 10
7.074039
 20
3.421949
 10
7.074089
 20
3.422759
  0
SPLINE
  5
A5
100
AcDbEntity
  8
Calque_1
  6
ByLayer
 62
    7
370
   -1
100
AcDbSpline
210
0
220
0
230
0
 70
    8
 71
    3
 72
    8
 73
    4
 74
    0
 42
1e-07
 43
1e-07
 40
0
 40
0
 40
0
 40
0
 40
1
 40
1
 40
1
 40
1
 10
6.695439
 20
4.564819
 30
0
 10
6.692439
 20
4.381539
 30
0
 10
6.694439
 20
4.220199
 30
0
 10
6.699739
 20
4.206299
 30
0
  0
SPLINE
  5
A6
100
AcDbEntity
  8
Calque_1
  6
ByLayer
 62
    7
370
   -1
100
AcDbSpline
210
0
220
0
230
0
 70
    8
 71
    3
 72
    8
 73
    4
 74
    0
 42
1e-07
 43
1e-07
 40
0
 40
0
 40
0
 40
0
 40
1
 40
1
 40
1
 40
1
 10
6.699739
 20
4.206299
 30
0
 10
6.713229
 20
4.171099
 30
0
 10
7.087674
 20
4.173499
 30
0
 10
7.188357
 20
4.209299
 30
0
  0
LWPOLYLINE
  5
A7
100
AcDbEntity
  8
Calque_1
  6
ByLayer
 62
    7
370
   -1
100
AcDbPolyline
 90
    3
 70
    0
 43
0
 10
6.897287
 20
4.904059
 10
6.700839
 20
4.898059
 10
6.695439
 20
4.564819
  0
SPLINE
  5
A8
100
AcDbEntity
  8
Calque_1
  6
ByLayer
 62
    7
370
   -1
100
AcDbSpline
210
0
220
0
230
0
 70
    8
 71
    3
 72
    8
 73
    4
 74
    0
 42
1e-07
 43
1e-07
 40
0
 40
0
 40
0
 40
0
 40
1
 40
1
 40
1
 40
1
 10
17.181289
 20
4.954419
 30
0
 10
16.972871
 20
5.015019
 30
0
 10
16.811256
 20
5.135829
 30
0
 10
16.72398
 20
5.296189
 30
0
  0
SPLINE
  5
A9
100
AcDbEntity
  8
Calque_1
  6
ByLayer
 62
    7
370
   -1
100
AcDbSpline
210
0
220
0
230
0
 70
    8
 71
    3
 72
    8
 73
    4
 74
    0
 42
1e-07
 43
1e-07
 40
0
 40
0
 40
0
 40
0
 40
1
 40
1
 40
1
 40
1
 10
16.72398
 20
5.296189
 30
0
 10
16.618316
 20
5.490329
 30
0
 10
16.611593
 20
5.556069
 30
0
 10
16.611593
 20
6.395089
 30
0
  0
LWPOLYLINE
  5
AA
100
AcDbEntity
  8
Calque_1
  6
ByLayer
 62
    7
370
   -1
100
AcDbPolyline
 90
    2
 70
    0
 43
0
 10
7.188357
 20
4.209299
 10
7.188346
 20
4.209399
  0
SPLINE
  5
AB
100
AcDbEntity
  8
Calque_1
  6
ByLayer
 62
    7
370
   -1
100
AcDbSpline
210
0
220
0
230
0
 70
    8
 71
    3
 72
    8
 73
    4
 74
    0
 42
1e-07
 43
1e-07
 40
0
 40
0
 40
0
 40
0
 40
1
 40
1
 40
1
 40
1
 10
16.297278
 20
7.520529
 30
0
 10
16.630344
 20
7.520529
 30
0
 10
16.631239
 20
7.520649
 30
0
 10
16.631797
 20
7.564729
 30
0
  0
SPLINE
  5
AC
100
AcDbEntity
  8
Calque_1
  6
ByLayer
 62
    7
370
   -1
100
AcDbSpline
210
0
220
0
230
0
 70
    8
 71
    3
 72
    8
 73
    4
 74
    0
 42
1e-07
 43
1e-07
 40
0
 40
0
 40
0
 40
0
 40
1
 40
1
 40
1
 40
1
 10
16.631797
 20
7.564729
 30
0
 10
16.632105
 20
7.589029
 30
0
 10
16.645107
 20
7.772479
 30
0
 10
16.660707
 20
7.972359
 30
0
  0
SPLINE
  5
AD
100
AcDbEntity
  8
Calque_1
  6
ByLayer
 62
    7
370
   -1
100
AcDbSpline
210
0
220
0
230
0
 70
    8
 71
    3
 72
    8
 73
    4
 74
    0
 42
1e-07
 43
1e-07
 40
0
 40
0
 40
0
 40
0
 40
1
 40
1
 40
1
 40
1
 10
16.660707
 20
7.972359
 30
0
 10
16.676297
 20
8.172249000000001
 30
0
 10
16.689307
 20
8.355679
 30
0
 10
16.689607
 20
8.379989
 30
0
  0
SPLINE
  5
AE
100
AcDbEntity
  8
Calque_1
  6
ByLayer
 62
    7
370
   -1
100
AcDbSpline
210
0
220
0
230
0
 70
    8
 71
    3
 72
    8
 73
    4
 74
    0
 42
1e-07
 43
1e-07
 40
0
 40
0
 40
0
 40
0
 40
1
 40
1
 40
1
 40
1
 10
16.689607
 20
8.379989
 30
0
 10
16.690139
 20
8.422089
 30
0
 10
16.697607
 20
8.424189
 30
0
 10
16.847324
 20
8.424189
 30
0
  0
LWPOLYLINE
  5
AF
100
AcDbEntity
  8
Calque_1
  6
ByLayer
 62
    7
370
   -1
100
AcDbPolyline
 90
    7
 70
    0
 43
0
 10
16.611593
 20
6.395089
 10
16.611593
 20
7.166929
 10
16.287455
 20
7.166929
 10
15.963317
 20
7.166929
 10
15.963317
 20
7.343729
 10
15.963317
 20
7.520529
 10
16.297278
 20
7.520529
  0
SPLINE
  5
B0
100
AcDbEntity
  8
Calque_1
  6
ByLayer
 62
    7
370
   -1
100
AcDbSpline
210
0
220
0
230
0
 70
    8
 71
    3
 72
    8
 73
    4
 74
    0
 42
1e-07
 43
1e-07
 40
0
 40
0
 40
0
 40
0
 40
1
 40
1
 40
1
 40
1
 10
17.07329
 20
5.526599
 30
0
 10
17.14197
 20
5.389219
 30
0
 10
17.216486
 20
5.332129
 30
0
 10
17.36816
 20
5.300639
 30
0
  0
SPLINE
  5
B1
100
AcDbEntity
  8
Calque_1
  6
ByLayer
 62
    7
370
   -1
100
AcDbSpline
210
0
220
0
230
0
 70
    8
 71
    3
 72
    8
 73
    4
 74
    0
 42
1e-07
 43
1e-07
 40
0
 40
0
 40
0
 40
0
 40
1
 40
1
 40
1
 40
1
 10
17.36816
 20
5.300639
 30
0
 10
17.496334
 20
5.274039
 30
0
 10
17.663825
 20
5.299899
 30
0
 10
17.763187
 20
5.361039
 30
0
  0
SPLINE
  5
B2
100
AcDbEntity
  8
Calque_1
  6
ByLayer
 62
    7
370
   -1
100
AcDbSpline
210
0
220
0
230
0
 70
    8
 71
    3
 72
    8
 73
    4
 74
    0
 42
1e-07
 43
1e-07
 40
0
 40
0
 40
0
 40
0
 40
1
 40
1
 40
1
 40
1
 10
17.763187
 20
5.361039
 30
0
 10
17.891023
 20
5.440039
 30
0
 10
17.967124
 20
5.646109
 30
0
 10
17.967124
 20
5.913259
 30
0
  0
LWPOLYLINE
  5
B3
100
AcDbEntity
  8
Calque_1
  6
ByLayer
 62
    7
370
   -1
100
AcDbPolyline
 90
   13
 70
    0
 43
0
 10
16.847324
 20
8.424189
 10
17.004481
 20
8.424189
 10
17.004481
 20
7.972359
 10
17.004481
 20
7.520529
 10
17.584001
 20
7.520529
 10
18.163519
 20
7.520529
 10
18.163519
 20
7.343729
 10
18.163519
 20
7.166929
 10
17.58294
 20
7.166929
 10
17.00236
 20
7.166929
 10
17.00836
 20
6.405699
 10
17.01436
 20
5.644469
 10
17.07329
 20
5.526599
  0
SPLINE
  5
B4
100
AcDbEntity
  8
Calque_1
  6
ByLayer
 62
    7
370
   -1
100
AcDbSpline
210
0
220
0
230
0
 70
    8
 71
    3
 72
    8
 73
    4
 74
    0
 42
1e-07
 43
1e-07
 40
0
 40
0
 40
0
 40
0
 40
1
 40
1
 40
1
 40
1
 10
18.359485
 20
5.944019
 30
0
 10
18.358285
 20
5.755829
 30
0
 10
18.321635
 20
5.499799
 30
0
 10
18.280035
 20
5.389049
 30
0
  0
SPLINE
  5
B5
100
AcDbEntity
  8
Calque_1
  6
ByLayer
 62
    7
370
   -1
100
AcDbSpline
210
0
220
0
230
0
 70
    8
 71
    3
 72
    8
 73
    4
 74
    0
 42
1e-07
 43
1e-07
 40
0
 40
0
 40
0
 40
0
 40
1
 40
1
 40
1
 40
1
 10
18.280035
 20
5.389049
 30
0
 10
18.247445
 20
5.302249
 30
0
 10
18.204215
 20
5.239639
 30
0
 10
18.116177
 20
5.151599
 30
0
  0
SPLINE
  5
B6
100
AcDbEntity
  8
Calque_1
  6
ByLayer
 62
    7
370
   -1
100
AcDbSpline
210
0
220
0
230
0
 70
    8
 71
    3
 72
    8
 73
    4
 74
    0
 42
1e-07
 43
1e-07
 40
0
 40
0
 40
0
 40
0
 40
1
 40
1
 40
1
 40
1
 10
18.116177
 20
5.151599
 30
0
 10
17.947065
 20
4.982479
 30
0
 10
17.837269
 20
4.942869
 30
0
 10
17.515294
 20
4.934819
 30
0
  0
SPLINE
  5
B7
100
AcDbEntity
  8
Calque_1
  6
ByLayer
 62
    7
370
   -1
100
AcDbSpline
210
0
220
0
230
0
 70
    8
 71
    3
 72
    8
 73
    4
 74
    0
 42
1e-07
 43
1e-07
 40
0
 40
0
 40
0
 40
0
 40
1
 40
1
 40
1
 40
1
 10
17.515294
 20
4.934819
 30
0
 10
17.353676
 20
4.930819
 30
0
 10
17.239517
 20
4.937819
 30
0
 10
17.181334
 20
4.954419
 30
0
  0
LWPOLYLINE
  5
B8
100
AcDbEntity
  8
Calque_1
  6
ByLayer
 62
    7
370
   -1
100
AcDbPolyline
 90
    5
 70
    0
 43
0
 10
17.967124
 20
5.913259
 10
17.967124
 20
6.027519
 10
18.163571
 20
6.027519
 10
18.360018
 20
6.027519
 10
18.359485
 20
5.944019
  0
SPLINE
  5
B9
100
AcDbEntity
  8
Calque_1
  6
ByLayer
 62
    7
370
   -1
100
AcDbSpline
210
0
220
0
230
0
 70
    8
 71
    3
 72
    8
 73
    4
 74
    0
 42
1e-07
 43
1e-07
 40
0
 40
0
 40
0
 40
0
 40
1
 40
1
 40
1
 40
1
 10
22.740742
 20
4.958419
 30
0
 10
22.281684
 20
5.080259
 30
0
 10
22.02693
 20
5.440129
 30
0
 10
21.974235
 20
6.041179
 30
0
  0
SPLINE
  5
BA
100
AcDbEntity
  8
Calque_1
  6
ByLayer
 62
    7
370
   -1
100
AcDbSpline
210
0
220
0
230
0
 70
    8
 71
    3
 72
    8
 73
    4
 74
    0
 42
1e-07
 43
1e-07
 40
0
 40
0
 40
0
 40
0
 40
1
 40
1
 40
1
 40
1
 10
21.974235
 20
6.041179
 30
0
 10
21.926295
 20
6.587889
 30
0
 10
22.046695
 20
7.045419
 30
0
 10
22.306876
 20
7.305619
 30
0
  0
SPLINE
  5
BB
100
AcDbEntity
  8
Calque_1
  6
ByLayer
 62
    7
370
   -1
100
AcDbSpline
210
0
220
0
230
0
 70
    8
 71
    3
 72
    8
 73
    4
 74
    0
 42
1e-07
 43
1e-07
 40
0
 40
0
 40
0
 40
0
 40
1
 40
1
 40
1
 40
1
 10
22.306876
 20
7.305619
 30
0
 10
22.501644
 20
7.500389
 30
0
 10
22.718825
 20
7.578609
 30
0
 10
23.064877
 20
7.578609
 30
0
  0
SPLINE
  5
BC
100
AcDbEntity
  8
Calque_1
  6
ByLayer
 62
    7
370
   -1
100
AcDbSpline
210
0
220
0
230
0
 70
    8
 71
    3
 72
    8
 73
    4
 74
    0
 42
1e-07
 43
1e-07
 40
0
 40
0
 40
0
 40
0
 40
1
 40
1
 40
1
 40
1
 10
23.064877
 20
7.578609
 30
0
 10
23.416181
 20
7.578609
 30
0
 10
23.629881
 20
7.500009
 30
0
 10
23.831043
 20
7.296709
 30
0
  0
SPLINE
  5
BD
100
AcDbEntity
  8
Calque_1
  6
ByLayer
 62
    7
370
   -1
100
AcDbSpline
210
0
220
0
230
0
 70
    8
 71
    3
 72
    8
 73
    4
 74
    0
 42
1e-07
 43
1e-07
 40
0
 40
0
 40
0
 40
0
 40
1
 40
1
 40
1
 40
1
 10
23.831043
 20
7.296709
 30
0
 10
23.960869
 20
7.165519
 30
0
 10
24.054285
 20
6.996409
 30
0
 10
24.103653
 20
6.803219
 30
0
  0
SPLINE
  5
BE
100
AcDbEntity
  8
Calque_1
  6
ByLayer
 62
    7
370
   -1
100
AcDbSpline
210
0
220
0
230
0
 70
    8
 71
    3
 72
    8
 73
    4
 74
    0
 42
1e-07
 43
1e-07
 40
0
 40
0
 40
0
 40
0
 40
1
 40
1
 40
1
 40
1
 10
24.103653
 20
6.803219
 30
0
 10
24.217275
 20
6.358589
 30
0
 10
24.182683
 20
5.830719
 30
0
 10
24.017003
 20
5.480829
 30
0
  0
SPLINE
  5
BF
100
AcDbEntity
  8
Calque_1
  6
ByLayer
 62
    7
370
   -1
100
AcDbSpline
210
0
220
0
230
0
 70
    8
 71
    3
 72
    8
 73
    4
 74
    0
 42
1e-07
 43
1e-07
 40
0
 40
0
 40
0
 40
0
 40
1
 40
1
 40
1
 40
1
 10
24.017003
 20
5.480829
 30
0
 10
23.884324
 20
5.200639
 30
0
 10
23.646515
 20
5.009929
 30
0
 10
23.35367
 20
4.948859
 30
0
  0
SPLINE
  5
C0
100
AcDbEntity
  8
Calque_1
  6
ByLayer
 62
    7
370
   -1
100
AcDbSpline
210
0
220
0
230
0
 70
    8
 71
    3
 72
    8
 73
    4
 74
    0
 42
1e-07
 43
1e-07
 40
0
 40
0
 40
0
 40
0
 40
1
 40
1
 40
1
 40
1
 10
23.35367
 20
4.948859
 30
0
 10
23.209085
 20
4.918659
 30
0
 10
22.870443
 20
4.923959
 30
0
 10
22.740743
 20
4.958859
 30
0
  0
LWPOLYLINE
  5
C1
100
AcDbEntity
  8
Calque_1
  6
ByLayer
 62
    7
370
   -1
100
AcDbPolyline
 90
    1
 70
    1
 43
0
 10
17.181334
 20
4.954419
  0
SPLINE
  5
C2
100
AcDbEntity
  8
Calque_1
  6
ByLayer
 62
    7
370
   -1
100
AcDbSpline
210
0
220
0
230
0
 70
    8
 71
    3
 72
    8
 73
    4
 74
    0
 42
1e-07
 43
1e-07
 40
0
 40
0
 40
0
 40
0
 40
1
 40
1
 40
1
 40
1
 10
23.313785
 20
5.331339
 30
0
 10
23.601696
 20
5.425839
 30
0
 10
23.74937
 20
5.738359
 30
0
 10
23.74937
 20
6.253169
 30
0
  0
SPLINE
  5
C3
100
AcDbEntity
  8
Calque_1
  6
ByLayer
 62
    7
370
   -1
100
AcDbSpline
210
0
220
0
230
0
 70
    8
 71
    3
 72
    8
 73
    4
 74
    0
 42
1e-07
 43
1e-07
 40
0
 40
0
 40
0
 40
0
 40
1
 40
1
 40
1
 40
1
 10
23.74937
 20
6.253169
 30
0
 10
23.74937
 20
6.753839
 30
0
 10
23.631192
 20
7.024479
 30
0
 10
23.352876
 20
7.161149
 30
0
  0
SPLINE
  5
C4
100
AcDbEntity
  8
Calque_1
  6
ByLayer
 62
    7
370
   -1
100
AcDbSpline
210
0
220
0
230
0
 70
    8
 71
    3
 72
    8
 73
    4
 74
    0
 42
1e-07
 43
1e-07
 40
0
 40
0
 40
0
 40
0
 40
1
 40
1
 40
1
 40
1
 10
23.352876
 20
7.161149
 30
0
 10
23.256296
 20
7.208549
 30
0
 10
23.218449
 20
7.215749
 30
0
 10
23.064877
 20
7.215749
 30
0
  0
SPLINE
  5
C5
100
AcDbEntity
  8
Calque_1
  6
ByLayer
 62
    7
370
   -1
100
AcDbSpline
210
0
220
0
230
0
 70
    8
 71
    3
 72
    8
 73
    4
 74
    0
 42
1e-07
 43
1e-07
 40
0
 40
0
 40
0
 40
0
 40
1
 40
1
 40
1
 40
1
 10
23.064877
 20
7.215749
 30
0
 10
22.911156
 20
7.215749
 30
0
 10
22.873509
 20
7.208749
 30
0
 10
22.776462
 20
7.160949
 30
0
  0
SPLINE
  5
C6
100
AcDbEntity
  8
Calque_1
  6
ByLayer
 62
    7
370
   -1
100
AcDbSpline
210
0
220
0
230
0
 70
    8
 71
    3
 72
    8
 73
    4
 74
    0
 42
1e-07
 43
1e-07
 40
0
 40
0
 40
0
 40
0
 40
1
 40
1
 40
1
 40
1
 10
22.776462
 20
7.160949
 30
0
 10
22.506208
 20
7.028229
 30
0
 10
22.382814
 20
6.743349
 30
0
 10
22.383258
 20
6.253169
 30
0
  0
SPLINE
  5
C7
100
AcDbEntity
  8
Calque_1
  6
ByLayer
 62
    7
370
   -1
100
AcDbSpline
210
0
220
0
230
0
 70
    8
 71
    3
 72
    8
 73
    4
 74
    0
 42
1e-07
 43
1e-07
 40
0
 40
0
 40
0
 40
0
 40
1
 40
1
 40
1
 40
1
 10
22.383258
 20
6.253169
 30
0
 10
22.383532
 20
5.955419
 30
0
 10
22.417418
 20
5.781999
 30
0
 10
22.508912
 20
5.610349
 30
0
  0
SPLINE
  5
C8
100
AcDbEntity
  8
Calque_1
  6
ByLayer
 62
    7
370
   -1
100
AcDbSpline
210
0
220
0
230
0
 70
    8
 71
    3
 72
    8
 73
    4
 74
    0
 42
1e-07
 43
1e-07
 40
0
 40
0
 40
0
 40
0
 40
1
 40
1
 40
1
 40
1
 10
22.508912
 20
5.610349
 30
0
 10
22.65904
 20
5.328689
 30
0
 10
22.97352
 20
5.219679
 30
0
 10
23.313785
 20
5.331339
 30
0
  0
LWPOLYLINE
  5
C9
100
AcDbEntity
  8
Calque_1
  6
ByLayer
 62
    7
370
   -1
100
AcDbPolyline
 90
    2
 70
    0
 43
0
 10
22.740743
 20
4.958859
 10
22.740742
 20
4.958419
  0
SPLINE
  5
CA
100
AcDbEntity
  8
Calque_1
  6
ByLayer
 62
    7
370
   -1
100
AcDbSpline
210
0
220
0
230
0
 70
    8
 71
    3
 72
    8
 73
    4
 74
    0
 42
1e-07
 43
1e-07
 40
0
 40
0
 40
0
 40
0
 40
1
 40
1
 40
1
 40
1
 10
34.520373
 20
4.958309
 30
0
 10
34.075593
 20
5.065979
 30
0
 10
33.810993
 20
5.431459
 30
0
 10
33.710973
 20
6.076369
 30
0
  0
SPLINE
  5
CB
100
AcDbEntity
  8
Calque_1
  6
ByLayer
 62
    7
370
   -1
100
AcDbSpline
210
0
220
0
230
0
 70
    8
 71
    3
 72
    8
 73
    4
 74
    0
 42
1e-07
 43
1e-07
 40
0
 40
0
 40
0
 40
0
 40
1
 40
1
 40
1
 40
1
 10
33.710973
 20
6.076369
 30
0
 10
33.664773
 20
6.373819
 30
0
 10
33.664773
 20
7.035649
 30
0
 10
33.710973
 20
7.333629
 30
0
  0
SPLINE
  5
CC
100
AcDbEntity
  8
Calque_1
  6
ByLayer
 62
    7
370
   -1
100
AcDbSpline
210
0
220
0
230
0
 70
    8
 71
    3
 72
    8
 73
    4
 74
    0
 42
1e-07
 43
1e-07
 40
0
 40
0
 40
0
 40
0
 40
1
 40
1
 40
1
 40
1
 10
33.710973
 20
7.333629
 30
0
 10
33.751073
 20
7.593029
 30
0
 10
33.837123
 20
7.860969
 30
0
 10
33.928673
 20
8.011679000000001
 30
0
  0
SPLINE
  5
CD
100
AcDbEntity
  8
Calque_1
  6
ByLayer
 62
    7
370
   -1
100
AcDbSpline
210
0
220
0
230
0
 70
    8
 71
    3
 72
    8
 73
    4
 74
    0
 42
1e-07
 43
1e-07
 40
0
 40
0
 40
0
 40
0
 40
1
 40
1
 40
1
 40
1
 10
33.928673
 20
8.011679000000001
 30
0
 10
34.008873
 20
8.143629000000001
 30
0
 10
34.174313
 20
8.304989000000001
 30
0
 10
34.290033
 20
8.364019000000001
 30
0
  0
SPLINE
  5
CE
100
AcDbEntity
  8
Calque_1
  6
ByLayer
 62
    7
370
   -1
100
AcDbSpline
210
0
220
0
230
0
 70
    8
 71
    3
 72
    8
 73
    4
 74
    0
 42
1e-07
 43
1e-07
 40
0
 40
0
 40
0
 40
0
 40
1
 40
1
 40
1
 40
1
 10
34.290033
 20
8.364019000000001
 30
0
 10
34.588283
 20
8.516169
 30
0
 10
35.086703
 20
8.520229
 30
0
 10
35.387703
 20
8.373018999999999
 30
0
  0
SPLINE
  5
CF
100
AcDbEntity
  8
Calque_1
  6
ByLayer
 62
    7
370
   -1
100
AcDbSpline
210
0
220
0
230
0
 70
    8
 71
    3
 72
    8
 73
    4
 74
    0
 42
1e-07
 43
1e-07
 40
0
 40
0
 40
0
 40
0
 40
1
 40
1
 40
1
 40
1
 10
35.387703
 20
8.373018999999999
 30
0
 10
35.445103
 20
8.344919000000001
 30
0
 10
35.544893
 20
8.273019
 30
0
 10
35.609413
 20
8.213339
 30
0
  0
SPLINE
  5
D0
100
AcDbEntity
  8
Calque_1
  6
ByLayer
 62
    7
370
   -1
100
AcDbSpline
210
0
220
0
230
0
 70
    8
 71
    3
 72
    8
 73
    4
 74
    0
 42
1e-07
 43
1e-07
 40
0
 40
0
 40
0
 40
0
 40
1
 40
1
 40
1
 40
1
 10
35.609413
 20
8.213339
 30
0
 10
35.788373
 20
8.047649
 30
0
 10
35.924033
 20
7.745599
 30
0
 10
35.989033
 20
7.368059
 30
0
  0
LWPOLYLINE
  5
D1
100
AcDbEntity
  8
Calque_1
  6
ByLayer
 62
    7
370
   -1
100
AcDbPolyline
 90
    1
 70
    1
 43
0
 10
23.313785
 20
5.331339
  0
SPLINE
  5
D2
100
AcDbEntity
  8
Calque_1
  6
ByLayer
 62
    7
370
   -1
100
AcDbSpline
210
0
220
0
230
0
 70
    8
 71
    3
 72
    8
 73
    4
 74
    0
 42
1e-07
 43
1e-07
 40
0
 40
0
 40
0
 40
0
 40
1
 40
1
 40
1
 40
1
 10
35.540043
 20
7.446589
 30
0
 10
35.423393
 20
7.934039
 30
0
 10
35.117493
 20
8.172148999999999
 30
0
 10
34.713063
 20
8.090309
 30
0
  0
SPLINE
  5
D3
100
AcDbEntity
  8
Calque_1
  6
ByLayer
 62
    7
370
   -1
100
AcDbSpline
210
0
220
0
230
0
 70
    8
 71
    3
 72
    8
 73
    4
 74
    0
 42
1e-07
 43
1e-07
 40
0
 40
0
 40
0
 40
0
 40
1
 40
1
 40
1
 40
1
 10
34.713063
 20
8.090309
 30
0
 10
34.285543
 20
8.003809
 30
0
 10
34.096223
 20
7.578619
 30
0
 10
34.096223
 20
6.704999
 30
0
  0
SPLINE
  5
D4
100
AcDbEntity
  8
Calque_1
  6
ByLayer
 62
    7
370
   -1
100
AcDbSpline
210
0
220
0
230
0
 70
    8
 71
    3
 72
    8
 73
    4
 74
    0
 42
1e-07
 43
1e-07
 40
0
 40
0
 40
0
 40
0
 40
1
 40
1
 40
1
 40
1
 10
34.096223
 20
6.704999
 30
0
 10
34.096223
 20
5.937109
 30
0
 10
34.240493
 20
5.523599
 30
0
 10
34.563773
 20
5.364839
 30
0
  0
SPLINE
  5
D5
100
AcDbEntity
  8
Calque_1
  6
ByLayer
 62
    7
370
   -1
100
AcDbSpline
210
0
220
0
230
0
 70
    8
 71
    3
 72
    8
 73
    4
 74
    0
 42
1e-07
 43
1e-07
 40
0
 40
0
 40
0
 40
0
 40
1
 40
1
 40
1
 40
1
 10
34.563773
 20
5.364839
 30
0
 10
34.660773
 20
5.317139
 30
0
 10
34.697523
 20
5.310339
 30
0
 10
34.851783
 20
5.310839
 30
0
  0
SPLINE
  5
D6
100
AcDbEntity
  8
Calque_1
  6
ByLayer
 62
    7
370
   -1
100
AcDbSpline
210
0
220
0
230
0
 70
    8
 71
    3
 72
    8
 73
    4
 74
    0
 42
1e-07
 43
1e-07
 40
0
 40
0
 40
0
 40
0
 40
1
 40
1
 40
1
 40
1
 10
34.851783
 20
5.310839
 30
0
 10
35.056113
 20
5.311519
 30
0
 10
35.159293
 20
5.348239
 30
0
 10
35.290883
 20
5.467129
 30
0
  0
SPLINE
  5
D7
100
AcDbEntity
  8
Calque_1
  6
ByLayer
 62
    7
370
   -1
100
AcDbSpline
210
0
220
0
230
0
 70
    8
 71
    3
 72
    8
 73
    4
 74
    0
 42
1e-07
 43
1e-07
 40
0
 40
0
 40
0
 40
0
 40
1
 40
1
 40
1
 40
1
 10
35.290883
 20
5.467129
 30
0
 10
35.391953
 20
5.558429
 30
0
 10
35.497113
 20
5.765879
 30
0
 10
35.539953
 20
5.958459
 30
0
  0
LWPOLYLINE
  5
D8
100
AcDbEntity
  8
Calque_1
  6
ByLayer
 62
    7
370
   -1
100
AcDbPolyline
 90
    5
 70
    0
 43
0
 10
35.989033
 20
7.368059
 10
36.000033
 20
7.304159
 10
35.787083
 20
7.304159
 10
35.574143
 20
7.304159
 10
35.540043
 20
7.446589
  0
SPLINE
  5
D9
100
AcDbEntity
  8
Calque_1
  6
ByLayer
 62
    7
370
   -1
100
AcDbSpline
210
0
220
0
230
0
 70
    8
 71
    3
 72
    8
 73
    4
 74
    0
 42
1e-07
 43
1e-07
 40
0
 40
0
 40
0
 40
0
 40
1
 40
1
 40
1
 40
1
 10
35.787253
 20
6.105869
 30
0
 10
35.999383
 20
6.105869
 30
0
 10
36.001643
 20
6.105379
 30
0
 10
35.992313
 20
6.061669
 30
0
  0
SPLINE
  5
DA
100
AcDbEntity
  8
Calque_1
  6
ByLayer
 62
    7
370
   -1
100
AcDbSpline
210
0
220
0
230
0
 70
    8
 71
    3
 72
    8
 73
    4
 74
    0
 42
1e-07
 43
1e-07
 40
0
 40
0
 40
0
 40
0
 40
1
 40
1
 40
1
 40
1
 10
35.992313
 20
6.061669
 30
0
 10
35.987313
 20
6.037369
 30
0
 10
35.972713
 20
5.964469
 30
0
 10
35.960213
 20
5.899599
 30
0
  0
SPLINE
  5
DB
100
AcDbEntity
  8
Calque_1
  6
ByLayer
 62
    7
370
   -1
100
AcDbSpline
210
0
220
0
230
0
 70
    8
 71
    3
 72
    8
 73
    4
 74
    0
 42
1e-07
 43
1e-07
 40
0
 40
0
 40
0
 40
0
 40
1
 40
1
 40
1
 40
1
 10
35.960213
 20
5.899599
 30
0
 10
35.862813
 20
5.392239
 30
0
 10
35.579793
 20
5.053079
 30
0
 10
35.174033
 20
4.957439
 30
0
  0
SPLINE
  5
DC
100
AcDbEntity
  8
Calque_1
  6
ByLayer
 62
    7
370
   -1
100
AcDbSpline
210
0
220
0
230
0
 70
    8
 71
    3
 72
    8
 73
    4
 74
    0
 42
1e-07
 43
1e-07
 40
0
 40
0
 40
0
 40
0
 40
1
 40
1
 40
1
 40
1
 10
35.174033
 20
4.957439
 30
0
 10
35.016743
 20
4.920439
 30
0
 10
34.675393
 20
4.920839
 30
0
 10
34.520403
 20
4.958179
 30
0
  0
LWPOLYLINE
  5
DD
100
AcDbEntity
  8
Calque_1
  6
ByLayer
 62
    7
370
   -1
100
AcDbPolyline
 90
    3
 70
    0
 43
0
 10
35.539953
 20
5.958459
 10
35.572753
 20
6.105869
 10
35.787253
 20
6.105869
  0
LWPOLYLINE
  5
DE
100
AcDbEntity
  8
Calque_1
  6
ByLayer
 62
    7
370
   -1
100
AcDbPolyline
 90
    2
 70
    0
 43
0
 10
34.520403
 20
4.958179
 10
34.520373
 20
4.958309
  0
SPLINE
  5
DF
100
AcDbEntity
  8
Calque_1
  6
ByLayer
 62
    7
370
   -1
100
AcDbSpline
210
0
220
0
230
0
 70
    8
 71
    3
 72
    8
 73
    4
 74
    0
 42
1e-07
 43
1e-07
 40
0
 40
0
 40
0
 40
0
 40
1
 40
1
 40
1
 40
1
 10
11.096342
 20
8.419439000000001
 30
0
 10
11.841715
 20
8.410439
 30
0
 10
11.878731
 20
8.406039
 30
0
 10
12.090967
 20
8.298239000000001
 30
0
  0
SPLINE
  5
E0
100
AcDbEntity
  8
Calque_1
  6
ByLayer
 62
    7
370
   -1
100
AcDbSpline
210
0
220
0
230
0
 70
    8
 71
    3
 72
    8
 73
    4
 74
    0
 42
1e-07
 43
1e-07
 40
0
 40
0
 40
0
 40
0
 40
1
 40
1
 40
1
 40
1
 10
12.090967
 20
8.298239000000001
 30
0
 10
12.398507
 20
8.141989000000001
 30
0
 10
12.568104
 20
7.779059
 30
0
 10
12.535494
 20
7.346969
 30
0
  0
SPLINE
  5
E1
100
AcDbEntity
  8
Calque_1
  6
ByLayer
 62
    7
370
   -1
100
AcDbSpline
210
0
220
0
230
0
 70
    8
 71
    3
 72
    8
 73
    4
 74
    0
 42
1e-07
 43
1e-07
 40
0
 40
0
 40
0
 40
0
 40
1
 40
1
 40
1
 40
1
 10
12.535494
 20
7.346969
 30
0
 10
12.513184
 20
7.051369
 30
0
 10
12.428016
 20
6.854029
 30
0
 10
12.251479
 20
6.688899
 30
0
  0
SPLINE
  5
E2
100
AcDbEntity
  8
Calque_1
  6
ByLayer
 62
    7
370
   -1
100
AcDbSpline
210
0
220
0
230
0
 70
    8
 71
    3
 72
    8
 73
    4
 74
    0
 42
1e-07
 43
1e-07
 40
0
 40
0
 40
0
 40
0
 40
1
 40
1
 40
1
 40
1
 10
12.251479
 20
6.688899
 30
0
 10
12.048708
 20
6.499229
 30
0
 10
11.887509
 20
6.458749
 30
0
 10
11.282967
 20
6.445689
 30
0
  0
LWPOLYLINE
  5
E3
100
AcDbEntity
  8
Calque_1
  6
ByLayer
 62
    7
370
   -1
100
AcDbPolyline
 90
    3
 70
    0
 43
0
 10
10.403866
 20
6.706989
 10
10.403866
 20
8.427439
 10
11.096342
 20
8.419439000000001
  0
SPLINE
  5
E4
100
AcDbEntity
  8
Calque_1
  6
ByLayer
 62
    7
370
   -1
100
AcDbSpline
210
0
220
0
230
0
 70
    8
 71
    3
 72
    8
 73
    4
 74
    0
 42
1e-07
 43
1e-07
 40
0
 40
0
 40
0
 40
0
 40
1
 40
1
 40
1
 40
1
 10
11.78238
 20
6.869249
 30
0
 10
11.904591
 20
6.917749
 30
0
 10
12.01213
 20
7.020769
 30
0
 10
12.066988
 20
7.142109
 30
0
  0
SPLINE
  5
E5
100
AcDbEntity
  8
Calque_1
  6
ByLayer
 62
    7
370
   -1
100
AcDbSpline
210
0
220
0
230
0
 70
    8
 71
    3
 72
    8
 73
    4
 74
    0
 42
1e-07
 43
1e-07
 40
0
 40
0
 40
0
 40
0
 40
1
 40
1
 40
1
 40
1
 10
12.066988
 20
7.142109
 30
0
 10
12.091738
 20
7.196909
 30
0
 10
12.100828
 20
7.273039
 30
0
 10
12.101808
 20
7.433629
 30
0
  0
SPLINE
  5
E6
100
AcDbEntity
  8
Calque_1
  6
ByLayer
 62
    7
370
   -1
100
AcDbSpline
210
0
220
0
230
0
 70
    8
 71
    3
 72
    8
 73
    4
 74
    0
 42
1e-07
 43
1e-07
 40
0
 40
0
 40
0
 40
0
 40
1
 40
1
 40
1
 40
1
 10
12.101808
 20
7.433629
 30
0
 10
12.103108
 20
7.637899
 30
0
 10
12.099608
 20
7.657969
 30
0
 10
12.044198
 20
7.765809
 30
0
  0
SPLINE
  5
E7
100
AcDbEntity
  8
Calque_1
  6
ByLayer
 62
    7
370
   -1
100
AcDbSpline
210
0
220
0
230
0
 70
    8
 71
    3
 72
    8
 73
    4
 74
    0
 42
1e-07
 43
1e-07
 40
0
 40
0
 40
0
 40
0
 40
1
 40
1
 40
1
 40
1
 10
12.044198
 20
7.765809
 30
0
 10
11.974088
 20
7.902339
 30
0
 10
11.849798
 20
7.997589
 30
0
 10
11.699764
 20
8.029769
 30
0
  0
SPLINE
  5
E8
100
AcDbEntity
  8
Calque_1
  6
ByLayer
 62
    7
370
   -1
100
AcDbSpline
210
0
220
0
230
0
 70
    8
 71
    3
 72
    8
 73
    4
 74
    0
 42
1e-07
 43
1e-07
 40
0
 40
0
 40
0
 40
0
 40
1
 40
1
 40
1
 40
1
 10
11.699764
 20
8.029769
 30
0
 10
11.645034
 20
8.041468999999999
 30
0
 10
11.423891
 20
8.051069
 30
0
 10
11.208331
 20
8.051069
 30
0
  0
LWPOLYLINE
  5
E9
100
AcDbEntity
  8
Calque_1
  6
ByLayer
 62
    7
370
   -1
100
AcDbPolyline
 90
    7
 70
    0
 43
0
 10
11.282967
 20
6.445689
 10
10.816405
 20
6.435589
 10
10.816405
 20
5.711179
 10
10.816405
 20
4.986769
 10
10.610135
 20
4.986769
 10
10.403866
 20
4.986769
 10
10.403866
 20
6.706989
  0
SPLINE
  5
EA
100
AcDbEntity
  8
Calque_1
  6
ByLayer
 62
    7
370
   -1
100
AcDbSpline
210
0
220
0
230
0
 70
    8
 71
    3
 72
    8
 73
    4
 74
    0
 42
1e-07
 43
1e-07
 40
0
 40
0
 40
0
 40
0
 40
1
 40
1
 40
1
 40
1
 10
11.243675
 20
6.817129
 30
0
 10
11.630203
 20
6.824129
 30
0
 10
11.681573
 20
6.828729
 30
0
 10
11.782378
 20
6.868729
 30
0
  0
LWPOLYLINE
  5
EB
100
AcDbEntity
  8
Calque_1
  6
ByLayer
 62
    7
370
   -1
100
AcDbPolyline
 90
    5
 70
    0
 43
0
 10
11.208331
 20
8.051069
 10
10.816403
 20
8.051069
 10
10.816403
 20
7.430599
 10
10.816403
 20
6.810129
 10
11.243675
 20
6.817129
  0
LWPOLYLINE
  5
EC
100
AcDbEntity
  8
Calque_1
  6
ByLayer
 62
    7
370
   -1
100
AcDbPolyline
 90
    2
 70
    0
 43
0
 10
11.782378
 20
6.868729
 10
11.78238
 20
6.869249
  0
SPLINE
  5
ED
100
AcDbEntity
  8
Calque_1
  6
ByLayer
 62
    7
370
   -1
100
AcDbSpline
210
0
220
0
230
0
 70
    8
 71
    3
 72
    8
 73
    4
 74
    0
 42
1e-07
 43
1e-07
 40
0
 40
0
 40
0
 40
0
 40
1
 40
1
 40
1
 40
1
 10
19.600868
 20
7.186749
 30
0
 10
19.708148
 20
7.367549
 30
0
 10
19.89908
 20
7.507039
 30
0
 10
20.112839
 20
7.560769
 30
0
  0
SPLINE
  5
EE
100
AcDbEntity
  8
Calque_1
  6
ByLayer
 62
    7
370
   -1
100
AcDbSpline
210
0
220
0
230
0
 70
    8
 71
    3
 72
    8
 73
    4
 74
    0
 42
1e-07
 43
1e-07
 40
0
 40
0
 40
0
 40
0
 40
1
 40
1
 40
1
 40
1
 10
20.112839
 20
7.560769
 30
0
 10
20.167439
 20
7.574469
 30
0
 10
20.289016
 20
7.580969
 30
0
 10
20.407509
 20
7.576269
 30
0
  0
SPLINE
  5
EF
100
AcDbEntity
  8
Calque_1
  6
ByLayer
 62
    7
370
   -1
100
AcDbSpline
210
0
220
0
230
0
 70
    8
 71
    3
 72
    8
 73
    4
 74
    0
 42
1e-07
 43
1e-07
 40
0
 40
0
 40
0
 40
0
 40
1
 40
1
 40
1
 40
1
 10
20.407509
 20
7.576269
 30
0
 10
20.572478
 20
7.569269
 30
0
 10
20.629342
 20
7.559069
 30
0
 10
20.719631
 20
7.517369
 30
0
  0
SPLINE
  5
F0
100
AcDbEntity
  8
Calque_1
  6
ByLayer
 62
    7
370
   -1
100
AcDbSpline
210
0
220
0
230
0
 70
    8
 71
    3
 72
    8
 73
    4
 74
    0
 42
1e-07
 43
1e-07
 40
0
 40
0
 40
0
 40
0
 40
1
 40
1
 40
1
 40
1
 10
20.719631
 20
7.517369
 30
0
 10
20.866937
 20
7.449269
 30
0
 10
20.973372
 20
7.349539
 30
0
 10
21.047813
 20
7.209879
 30
0
  0
SPLINE
  5
F1
100
AcDbEntity
  8
Calque_1
  6
ByLayer
 62
    7
370
   -1
100
AcDbSpline
210
0
220
0
230
0
 70
    8
 71
    3
 72
    8
 73
    4
 74
    0
 42
1e-07
 43
1e-07
 40
0
 40
0
 40
0
 40
0
 40
1
 40
1
 40
1
 40
1
 10
21.047813
 20
7.209879
 30
0
 10
21.163376
 20
6.993059
 30
0
 10
21.168488
 20
6.938329
 30
0
 10
21.168807
 20
5.914799
 30
0
  0
LWPOLYLINE
  5
F2
100
AcDbEntity
  8
Calque_1
  6
ByLayer
 62
    7
370
   -1
100
AcDbPolyline
 90
    7
 70
    0
 43
0
 10
19.145759
 20
6.833149
 10
19.145759
 20
8.679748999999999
 10
19.341983
 20
8.679748999999999
 10
19.538208
 20
8.679748999999999
 10
19.543308
 20
7.889049
 10
19.548408
 20
7.098349
 10
19.600868
 20
7.186749
  0
SPLINE
  5
F3
100
AcDbEntity
  8
Calque_1
  6
ByLayer
 62
    7
370
   -1
100
AcDbSpline
210
0
220
0
230
0
 70
    8
 71
    3
 72
    8
 73
    4
 74
    0
 42
1e-07
 43
1e-07
 40
0
 40
0
 40
0
 40
0
 40
1
 40
1
 40
1
 40
1
 10
20.776208
 20
5.859809
 30
0
 10
20.776208
 20
6.414069
 30
0
 10
20.768408
 20
6.769379
 30
0
 10
20.754858
 20
6.832539
 30
0
  0
SPLINE
  5
F4
100
AcDbEntity
  8
Calque_1
  6
ByLayer
 62
    7
370
   -1
100
AcDbSpline
210
0
220
0
230
0
 70
    8
 71
    3
 72
    8
 73
    4
 74
    0
 42
1e-07
 43
1e-07
 40
0
 40
0
 40
0
 40
0
 40
1
 40
1
 40
1
 40
1
 10
20.754858
 20
6.832539
 30
0
 10
20.724038
 20
6.976249
 30
0
 10
20.629385
 20
7.106079
 30
0
 10
20.511521
 20
7.166319
 30
0
  0
SPLINE
  5
F5
100
AcDbEntity
  8
Calque_1
  6
ByLayer
 62
    7
370
   -1
100
AcDbSpline
210
0
220
0
230
0
 70
    8
 71
    3
 72
    8
 73
    4
 74
    0
 42
1e-07
 43
1e-07
 40
0
 40
0
 40
0
 40
0
 40
1
 40
1
 40
1
 40
1
 10
20.511521
 20
7.166319
 30
0
 10
20.429161
 20
7.208419
 30
0
 10
20.387525
 20
7.216219
 30
0
 10
20.246318
 20
7.215819
 30
0
  0
SPLINE
  5
F6
100
AcDbEntity
  8
Calque_1
  6
ByLayer
 62
    7
370
   -1
100
AcDbSpline
210
0
220
0
230
0
 70
    8
 71
    3
 72
    8
 73
    4
 74
    0
 42
1e-07
 43
1e-07
 40
0
 40
0
 40
0
 40
0
 40
1
 40
1
 40
1
 40
1
 10
20.246318
 20
7.215819
 30
0
 10
20.107127
 20
7.215459
 30
0
 10
20.059968
 20
7.206819
 30
0
 10
19.967326
 20
7.163619
 30
0
  0
SPLINE
  5
F7
100
AcDbEntity
  8
Calque_1
  6
ByLayer
 62
    7
370
   -1
100
AcDbSpline
210
0
220
0
230
0
 70
    8
 71
    3
 72
    8
 73
    4
 74
    0
 42
1e-07
 43
1e-07
 40
0
 40
0
 40
0
 40
0
 40
1
 40
1
 40
1
 40
1
 10
19.967326
 20
7.163619
 30
0
 10
19.811632
 20
7.091219
 30
0
 10
19.688076
 20
6.970429
 30
0
 10
19.61225
 20
6.816469
 30
0
  0
LWPOLYLINE
  5
F8
100
AcDbEntity
  8
Calque_1
  6
ByLayer
 62
    7
370
   -1
100
AcDbPolyline
 90
    5
 70
    0
 43
0
 10
21.168807
 20
5.914799
 10
21.169103
 20
4.986579
 10
20.972653
 20
4.986579
 10
20.776208
 20
4.986579
 10
20.776208
 20
5.859809
  0
LWPOLYLINE
  5
F9
100
AcDbEntity
  8
Calque_1
  6
ByLayer
 62
    7
370
   -1
100
AcDbPolyline
 90
    7
 70
    0
 43
0
 10
19.61225
 20
6.816469
 10
19.5484
 20
6.686829
 10
19.5425
 20
5.836739
 10
19.5366
 20
4.986639
 10
19.34112
 20
4.986639
 10
19.14564
 20
4.986639
 10
19.145759
 20
6.833149
  0
SPLINE
  5
FA
100
AcDbEntity
  8
Calque_1
  6
ByLayer
 62
    7
370
   -1
100
AcDbSpline
210
0
220
0
230
0
 70
    8
 71
    3
 72
    8
 73
    4
 74
    0
 42
1e-07
 43
1e-07
 40
0
 40
0
 40
0
 40
0
 40
1
 40
1
 40
1
 40
1
 10
25.363274
 20
7.304619
 30
0
 10
25.371074
 20
7.185779
 30
0
 10
25.383654
 20
7.088529
 30
0
 10
25.391284
 20
7.088529
 30
0
  0
SPLINE
  5
FB
100
AcDbEntity
  8
Calque_1
  6
ByLayer
 62
    7
370
   -1
100
AcDbSpline
210
0
220
0
230
0
 70
    8
 71
    3
 72
    8
 73
    4
 74
    0
 42
1e-07
 43
1e-07
 40
0
 40
0
 40
0
 40
0
 40
1
 40
1
 40
1
 40
1
 10
25.391284
 20
7.088529
 30
0
 10
25.398884
 20
7.088529
 30
0
 10
25.419954
 20
7.119529
 30
0
 10
25.438034
 20
7.157529
 30
0
  0
SPLINE
  5
FC
100
AcDbEntity
  8
Calque_1
  6
ByLayer
 62
    7
370
   -1
100
AcDbSpline
210
0
220
0
230
0
 70
    8
 71
    3
 72
    8
 73
    4
 74
    0
 42
1e-07
 43
1e-07
 40
0
 40
0
 40
0
 40
0
 40
1
 40
1
 40
1
 40
1
 10
25.438034
 20
7.157529
 30
0
 10
25.480044
 20
7.245629
 30
0
 10
25.61748
 20
7.395219
 30
0
 10
25.710466
 20
7.454039
 30
0
  0
SPLINE
  5
FD
100
AcDbEntity
  8
Calque_1
  6
ByLayer
 62
    7
370
   -1
100
AcDbSpline
210
0
220
0
230
0
 70
    8
 71
    3
 72
    8
 73
    4
 74
    0
 42
1e-07
 43
1e-07
 40
0
 40
0
 40
0
 40
0
 40
1
 40
1
 40
1
 40
1
 10
25.710466
 20
7.454039
 30
0
 10
25.914593
 20
7.583159
 30
0
 10
26.260377
 20
7.619899
 30
0
 10
26.519199
 20
7.539939
 30
0
  0
SPLINE
  5
FE
100
AcDbEntity
  8
Calque_1
  6
ByLayer
 62
    7
370
   -1
100
AcDbSpline
210
0
220
0
230
0
 70
    8
 71
    3
 72
    8
 73
    4
 74
    0
 42
1e-07
 43
1e-07
 40
0
 40
0
 40
0
 40
0
 40
1
 40
1
 40
1
 40
1
 10
26.519199
 20
7.539939
 30
0
 10
26.674261
 20
7.492039
 30
0
 10
26.842763
 20
7.349489
 30
0
 10
26.916656
 20
7.203659
 30
0
  0
SPLINE
  5
FF
100
AcDbEntity
  8
Calque_1
  6
ByLayer
 62
    7
370
   -1
100
AcDbSpline
210
0
220
0
230
0
 70
    8
 71
    3
 72
    8
 73
    4
 74
    0
 42
1e-07
 43
1e-07
 40
0
 40
0
 40
0
 40
0
 40
1
 40
1
 40
1
 40
1
 10
26.916656
 20
7.203659
 30
0
 10
27.027625
 20
6.984679
 30
0
 10
27.030063
 20
6.959189
 30
0
 10
27.038147
 20
5.934439
 30
0
  0
LWPOLYLINE
  5
100
100
AcDbEntity
  8
Calque_1
  6
ByLayer
 62
    7
370
   -1
100
AcDbPolyline
 90
    5
 70
    0
 43
0
 10
24.999883
 20
6.253629
 10
24.999883
 20
7.520709
 10
25.174535
 20
7.520709
 10
25.349194
 20
7.520709
 10
25.363274
 20
7.304619
  0
SPLINE
  5
101
100
AcDbEntity
  8
Calque_1
  6
ByLayer
 62
    7
370
   -1
100
AcDbSpline
210
0
220
0
230
0
 70
    8
 71
    3
 72
    8
 73
    4
 74
    0
 42
1e-07
 43
1e-07
 40
0
 40
0
 40
0
 40
0
 40
1
 40
1
 40
1
 40
1
 10
26.630403
 20
5.886679
 30
0
 10
26.630403
 20
6.913819
 30
0
 10
26.628203
 20
6.930409
 30
0
 10
26.487018
 20
7.077549
 30
0
  0
SPLINE
  5
102
100
AcDbEntity
  8
Calque_1
  6
ByLayer
 62
    7
370
   -1
100
AcDbSpline
210
0
220
0
230
0
 70
    8
 71
    3
 72
    8
 73
    4
 74
    0
 42
1e-07
 43
1e-07
 40
0
 40
0
 40
0
 40
0
 40
1
 40
1
 40
1
 40
1
 10
26.487018
 20
7.077549
 30
0
 10
26.240007
 20
7.334619
 30
0
 10
25.72126
 20
7.235429
 30
0
 10
25.515207
 20
6.891709
 30
0
  0
SPLINE
  5
103
100
AcDbEntity
  8
Calque_1
  6
ByLayer
 62
    7
370
   -1
100
AcDbSpline
210
0
220
0
230
0
 70
    8
 71
    3
 72
    8
 73
    4
 74
    0
 42
1e-07
 43
1e-07
 40
0
 40
0
 40
0
 40
0
 40
1
 40
1
 40
1
 40
1
 10
25.515207
 20
6.891709
 30
0
 10
25.479867
 20
6.832809
 30
0
 10
25.440557
 20
6.753559
 30
0
 10
25.427807
 20
6.715589
 30
0
  0
SPLINE
  5
104
100
AcDbEntity
  8
Calque_1
  6
ByLayer
 62
    7
370
   -1
100
AcDbSpline
210
0
220
0
230
0
 70
    8
 71
    3
 72
    8
 73
    4
 74
    0
 42
1e-07
 43
1e-07
 40
0
 40
0
 40
0
 40
0
 40
1
 40
1
 40
1
 40
1
 10
25.427807
 20
6.715589
 30
0
 10
25.411877
 20
6.668289
 30
0
 10
25.402467
 20
6.385389
 30
0
 10
25.397727
 20
5.816579
 30
0
  0
LWPOLYLINE
  5
105
100
AcDbEntity
  8
Calque_1
  6
ByLayer
 62
    7
370
   -1
100
AcDbPolyline
 90
    5
 70
    0
 43
0
 10
27.038147
 20
5.934439
 10
27.045647
 20
4.986589
 10
26.838012
 20
4.986589
 10
26.630403
 20
4.986589
 10
26.630403
 20
5.886679
  0
LWPOLYLINE
  5
106
100
AcDbEntity
  8
Calque_1
  6
ByLayer
 62
    7
370
   -1
100
AcDbPolyline
 90
    5
 70
    0
 43
0
 10
25.397727
 20
5.816579
 10
25.391027
 20
4.986589
 10
25.195562
 20
4.986589
 10
25.000105
 20
4.986589
 10
24.999883
 20
6.253629
  0
ENDSEC
  0
SECTION
  2
OBJECTS
  0
DICTIONARY
  5
C
330
0
100
AcDbDictionary
281
    1
  3
ACAD_GROUP
350
D
  0
DICTIONARY
  5
D
330
C
100
AcDbDictionary
281
    1
  0
ENDSEC
  0
EOF
