G04 #@! TF.GenerationSoftware,KiCad,Pcbnew,5.1.5-52549c5~84~ubuntu19.10.1*
G04 #@! TF.CreationDate,2019-11-23T11:14:34+01:00*
G04 #@! TF.ProjectId,mep_v2_modif_grove,6d65705f-7632-45f6-9d6f-6469665f6772,rev?*
G04 #@! TF.SameCoordinates,Original*
G04 #@! TF.FileFunction,Soldermask,Bot*
G04 #@! TF.FilePolarity,Negative*
%FSLAX46Y46*%
G04 Gerber Fmt 4.6, Leading zero omitted, Abs format (unit mm)*
G04 Created by KiCad (PCBNEW 5.1.5-52549c5~84~ubuntu19.10.1) date 2019-11-23 11:14:34*
%MOMM*%
%LPD*%
G04 APERTURE LIST*
%ADD10C,0.100000*%
G04 APERTURE END LIST*
D10*
G36*
X127113512Y-119753927D02*
G01*
X127262812Y-119783624D01*
X127426784Y-119851544D01*
X127574354Y-119950147D01*
X127699853Y-120075646D01*
X127798456Y-120223216D01*
X127866376Y-120387188D01*
X127901000Y-120561259D01*
X127901000Y-120738741D01*
X127866376Y-120912812D01*
X127798456Y-121076784D01*
X127699853Y-121224354D01*
X127574354Y-121349853D01*
X127426784Y-121448456D01*
X127262812Y-121516376D01*
X127113512Y-121546073D01*
X127088742Y-121551000D01*
X126911258Y-121551000D01*
X126886488Y-121546073D01*
X126737188Y-121516376D01*
X126573216Y-121448456D01*
X126425646Y-121349853D01*
X126300147Y-121224354D01*
X126201544Y-121076784D01*
X126133624Y-120912812D01*
X126099000Y-120738741D01*
X126099000Y-120561259D01*
X126133624Y-120387188D01*
X126201544Y-120223216D01*
X126300147Y-120075646D01*
X126425646Y-119950147D01*
X126573216Y-119851544D01*
X126737188Y-119783624D01*
X126886488Y-119753927D01*
X126911258Y-119749000D01*
X127088742Y-119749000D01*
X127113512Y-119753927D01*
G37*
G36*
X147433512Y-119753927D02*
G01*
X147582812Y-119783624D01*
X147746784Y-119851544D01*
X147894354Y-119950147D01*
X148019853Y-120075646D01*
X148118456Y-120223216D01*
X148186376Y-120387188D01*
X148221000Y-120561259D01*
X148221000Y-120738741D01*
X148186376Y-120912812D01*
X148118456Y-121076784D01*
X148019853Y-121224354D01*
X147894354Y-121349853D01*
X147746784Y-121448456D01*
X147582812Y-121516376D01*
X147433512Y-121546073D01*
X147408742Y-121551000D01*
X147231258Y-121551000D01*
X147206488Y-121546073D01*
X147057188Y-121516376D01*
X146893216Y-121448456D01*
X146745646Y-121349853D01*
X146620147Y-121224354D01*
X146521544Y-121076784D01*
X146453624Y-120912812D01*
X146419000Y-120738741D01*
X146419000Y-120561259D01*
X146453624Y-120387188D01*
X146521544Y-120223216D01*
X146620147Y-120075646D01*
X146745646Y-119950147D01*
X146893216Y-119851544D01*
X147057188Y-119783624D01*
X147206488Y-119753927D01*
X147231258Y-119749000D01*
X147408742Y-119749000D01*
X147433512Y-119753927D01*
G37*
G36*
X166001000Y-121551000D02*
G01*
X164199000Y-121551000D01*
X164199000Y-119749000D01*
X166001000Y-119749000D01*
X166001000Y-121551000D01*
G37*
G36*
X160133512Y-119753927D02*
G01*
X160282812Y-119783624D01*
X160446784Y-119851544D01*
X160594354Y-119950147D01*
X160719853Y-120075646D01*
X160818456Y-120223216D01*
X160886376Y-120387188D01*
X160921000Y-120561259D01*
X160921000Y-120738741D01*
X160886376Y-120912812D01*
X160818456Y-121076784D01*
X160719853Y-121224354D01*
X160594354Y-121349853D01*
X160446784Y-121448456D01*
X160282812Y-121516376D01*
X160133512Y-121546073D01*
X160108742Y-121551000D01*
X159931258Y-121551000D01*
X159906488Y-121546073D01*
X159757188Y-121516376D01*
X159593216Y-121448456D01*
X159445646Y-121349853D01*
X159320147Y-121224354D01*
X159221544Y-121076784D01*
X159153624Y-120912812D01*
X159119000Y-120738741D01*
X159119000Y-120561259D01*
X159153624Y-120387188D01*
X159221544Y-120223216D01*
X159320147Y-120075646D01*
X159445646Y-119950147D01*
X159593216Y-119851544D01*
X159757188Y-119783624D01*
X159906488Y-119753927D01*
X159931258Y-119749000D01*
X160108742Y-119749000D01*
X160133512Y-119753927D01*
G37*
G36*
X157593512Y-119753927D02*
G01*
X157742812Y-119783624D01*
X157906784Y-119851544D01*
X158054354Y-119950147D01*
X158179853Y-120075646D01*
X158278456Y-120223216D01*
X158346376Y-120387188D01*
X158381000Y-120561259D01*
X158381000Y-120738741D01*
X158346376Y-120912812D01*
X158278456Y-121076784D01*
X158179853Y-121224354D01*
X158054354Y-121349853D01*
X157906784Y-121448456D01*
X157742812Y-121516376D01*
X157593512Y-121546073D01*
X157568742Y-121551000D01*
X157391258Y-121551000D01*
X157366488Y-121546073D01*
X157217188Y-121516376D01*
X157053216Y-121448456D01*
X156905646Y-121349853D01*
X156780147Y-121224354D01*
X156681544Y-121076784D01*
X156613624Y-120912812D01*
X156579000Y-120738741D01*
X156579000Y-120561259D01*
X156613624Y-120387188D01*
X156681544Y-120223216D01*
X156780147Y-120075646D01*
X156905646Y-119950147D01*
X157053216Y-119851544D01*
X157217188Y-119783624D01*
X157366488Y-119753927D01*
X157391258Y-119749000D01*
X157568742Y-119749000D01*
X157593512Y-119753927D01*
G37*
G36*
X155053512Y-119753927D02*
G01*
X155202812Y-119783624D01*
X155366784Y-119851544D01*
X155514354Y-119950147D01*
X155639853Y-120075646D01*
X155738456Y-120223216D01*
X155806376Y-120387188D01*
X155841000Y-120561259D01*
X155841000Y-120738741D01*
X155806376Y-120912812D01*
X155738456Y-121076784D01*
X155639853Y-121224354D01*
X155514354Y-121349853D01*
X155366784Y-121448456D01*
X155202812Y-121516376D01*
X155053512Y-121546073D01*
X155028742Y-121551000D01*
X154851258Y-121551000D01*
X154826488Y-121546073D01*
X154677188Y-121516376D01*
X154513216Y-121448456D01*
X154365646Y-121349853D01*
X154240147Y-121224354D01*
X154141544Y-121076784D01*
X154073624Y-120912812D01*
X154039000Y-120738741D01*
X154039000Y-120561259D01*
X154073624Y-120387188D01*
X154141544Y-120223216D01*
X154240147Y-120075646D01*
X154365646Y-119950147D01*
X154513216Y-119851544D01*
X154677188Y-119783624D01*
X154826488Y-119753927D01*
X154851258Y-119749000D01*
X155028742Y-119749000D01*
X155053512Y-119753927D01*
G37*
G36*
X152513512Y-119753927D02*
G01*
X152662812Y-119783624D01*
X152826784Y-119851544D01*
X152974354Y-119950147D01*
X153099853Y-120075646D01*
X153198456Y-120223216D01*
X153266376Y-120387188D01*
X153301000Y-120561259D01*
X153301000Y-120738741D01*
X153266376Y-120912812D01*
X153198456Y-121076784D01*
X153099853Y-121224354D01*
X152974354Y-121349853D01*
X152826784Y-121448456D01*
X152662812Y-121516376D01*
X152513512Y-121546073D01*
X152488742Y-121551000D01*
X152311258Y-121551000D01*
X152286488Y-121546073D01*
X152137188Y-121516376D01*
X151973216Y-121448456D01*
X151825646Y-121349853D01*
X151700147Y-121224354D01*
X151601544Y-121076784D01*
X151533624Y-120912812D01*
X151499000Y-120738741D01*
X151499000Y-120561259D01*
X151533624Y-120387188D01*
X151601544Y-120223216D01*
X151700147Y-120075646D01*
X151825646Y-119950147D01*
X151973216Y-119851544D01*
X152137188Y-119783624D01*
X152286488Y-119753927D01*
X152311258Y-119749000D01*
X152488742Y-119749000D01*
X152513512Y-119753927D01*
G37*
G36*
X149973512Y-119753927D02*
G01*
X150122812Y-119783624D01*
X150286784Y-119851544D01*
X150434354Y-119950147D01*
X150559853Y-120075646D01*
X150658456Y-120223216D01*
X150726376Y-120387188D01*
X150761000Y-120561259D01*
X150761000Y-120738741D01*
X150726376Y-120912812D01*
X150658456Y-121076784D01*
X150559853Y-121224354D01*
X150434354Y-121349853D01*
X150286784Y-121448456D01*
X150122812Y-121516376D01*
X149973512Y-121546073D01*
X149948742Y-121551000D01*
X149771258Y-121551000D01*
X149746488Y-121546073D01*
X149597188Y-121516376D01*
X149433216Y-121448456D01*
X149285646Y-121349853D01*
X149160147Y-121224354D01*
X149061544Y-121076784D01*
X148993624Y-120912812D01*
X148959000Y-120738741D01*
X148959000Y-120561259D01*
X148993624Y-120387188D01*
X149061544Y-120223216D01*
X149160147Y-120075646D01*
X149285646Y-119950147D01*
X149433216Y-119851544D01*
X149597188Y-119783624D01*
X149746488Y-119753927D01*
X149771258Y-119749000D01*
X149948742Y-119749000D01*
X149973512Y-119753927D01*
G37*
G36*
X162673512Y-119753927D02*
G01*
X162822812Y-119783624D01*
X162986784Y-119851544D01*
X163134354Y-119950147D01*
X163259853Y-120075646D01*
X163358456Y-120223216D01*
X163426376Y-120387188D01*
X163461000Y-120561259D01*
X163461000Y-120738741D01*
X163426376Y-120912812D01*
X163358456Y-121076784D01*
X163259853Y-121224354D01*
X163134354Y-121349853D01*
X162986784Y-121448456D01*
X162822812Y-121516376D01*
X162673512Y-121546073D01*
X162648742Y-121551000D01*
X162471258Y-121551000D01*
X162446488Y-121546073D01*
X162297188Y-121516376D01*
X162133216Y-121448456D01*
X161985646Y-121349853D01*
X161860147Y-121224354D01*
X161761544Y-121076784D01*
X161693624Y-120912812D01*
X161659000Y-120738741D01*
X161659000Y-120561259D01*
X161693624Y-120387188D01*
X161761544Y-120223216D01*
X161860147Y-120075646D01*
X161985646Y-119950147D01*
X162133216Y-119851544D01*
X162297188Y-119783624D01*
X162446488Y-119753927D01*
X162471258Y-119749000D01*
X162648742Y-119749000D01*
X162673512Y-119753927D01*
G37*
G36*
X144893512Y-119753927D02*
G01*
X145042812Y-119783624D01*
X145206784Y-119851544D01*
X145354354Y-119950147D01*
X145479853Y-120075646D01*
X145578456Y-120223216D01*
X145646376Y-120387188D01*
X145681000Y-120561259D01*
X145681000Y-120738741D01*
X145646376Y-120912812D01*
X145578456Y-121076784D01*
X145479853Y-121224354D01*
X145354354Y-121349853D01*
X145206784Y-121448456D01*
X145042812Y-121516376D01*
X144893512Y-121546073D01*
X144868742Y-121551000D01*
X144691258Y-121551000D01*
X144666488Y-121546073D01*
X144517188Y-121516376D01*
X144353216Y-121448456D01*
X144205646Y-121349853D01*
X144080147Y-121224354D01*
X143981544Y-121076784D01*
X143913624Y-120912812D01*
X143879000Y-120738741D01*
X143879000Y-120561259D01*
X143913624Y-120387188D01*
X143981544Y-120223216D01*
X144080147Y-120075646D01*
X144205646Y-119950147D01*
X144353216Y-119851544D01*
X144517188Y-119783624D01*
X144666488Y-119753927D01*
X144691258Y-119749000D01*
X144868742Y-119749000D01*
X144893512Y-119753927D01*
G37*
G36*
X142353512Y-119753927D02*
G01*
X142502812Y-119783624D01*
X142666784Y-119851544D01*
X142814354Y-119950147D01*
X142939853Y-120075646D01*
X143038456Y-120223216D01*
X143106376Y-120387188D01*
X143141000Y-120561259D01*
X143141000Y-120738741D01*
X143106376Y-120912812D01*
X143038456Y-121076784D01*
X142939853Y-121224354D01*
X142814354Y-121349853D01*
X142666784Y-121448456D01*
X142502812Y-121516376D01*
X142353512Y-121546073D01*
X142328742Y-121551000D01*
X142151258Y-121551000D01*
X142126488Y-121546073D01*
X141977188Y-121516376D01*
X141813216Y-121448456D01*
X141665646Y-121349853D01*
X141540147Y-121224354D01*
X141441544Y-121076784D01*
X141373624Y-120912812D01*
X141339000Y-120738741D01*
X141339000Y-120561259D01*
X141373624Y-120387188D01*
X141441544Y-120223216D01*
X141540147Y-120075646D01*
X141665646Y-119950147D01*
X141813216Y-119851544D01*
X141977188Y-119783624D01*
X142126488Y-119753927D01*
X142151258Y-119749000D01*
X142328742Y-119749000D01*
X142353512Y-119753927D01*
G37*
G36*
X139813512Y-119753927D02*
G01*
X139962812Y-119783624D01*
X140126784Y-119851544D01*
X140274354Y-119950147D01*
X140399853Y-120075646D01*
X140498456Y-120223216D01*
X140566376Y-120387188D01*
X140601000Y-120561259D01*
X140601000Y-120738741D01*
X140566376Y-120912812D01*
X140498456Y-121076784D01*
X140399853Y-121224354D01*
X140274354Y-121349853D01*
X140126784Y-121448456D01*
X139962812Y-121516376D01*
X139813512Y-121546073D01*
X139788742Y-121551000D01*
X139611258Y-121551000D01*
X139586488Y-121546073D01*
X139437188Y-121516376D01*
X139273216Y-121448456D01*
X139125646Y-121349853D01*
X139000147Y-121224354D01*
X138901544Y-121076784D01*
X138833624Y-120912812D01*
X138799000Y-120738741D01*
X138799000Y-120561259D01*
X138833624Y-120387188D01*
X138901544Y-120223216D01*
X139000147Y-120075646D01*
X139125646Y-119950147D01*
X139273216Y-119851544D01*
X139437188Y-119783624D01*
X139586488Y-119753927D01*
X139611258Y-119749000D01*
X139788742Y-119749000D01*
X139813512Y-119753927D01*
G37*
G36*
X137273512Y-119753927D02*
G01*
X137422812Y-119783624D01*
X137586784Y-119851544D01*
X137734354Y-119950147D01*
X137859853Y-120075646D01*
X137958456Y-120223216D01*
X138026376Y-120387188D01*
X138061000Y-120561259D01*
X138061000Y-120738741D01*
X138026376Y-120912812D01*
X137958456Y-121076784D01*
X137859853Y-121224354D01*
X137734354Y-121349853D01*
X137586784Y-121448456D01*
X137422812Y-121516376D01*
X137273512Y-121546073D01*
X137248742Y-121551000D01*
X137071258Y-121551000D01*
X137046488Y-121546073D01*
X136897188Y-121516376D01*
X136733216Y-121448456D01*
X136585646Y-121349853D01*
X136460147Y-121224354D01*
X136361544Y-121076784D01*
X136293624Y-120912812D01*
X136259000Y-120738741D01*
X136259000Y-120561259D01*
X136293624Y-120387188D01*
X136361544Y-120223216D01*
X136460147Y-120075646D01*
X136585646Y-119950147D01*
X136733216Y-119851544D01*
X136897188Y-119783624D01*
X137046488Y-119753927D01*
X137071258Y-119749000D01*
X137248742Y-119749000D01*
X137273512Y-119753927D01*
G37*
G36*
X134733512Y-119753927D02*
G01*
X134882812Y-119783624D01*
X135046784Y-119851544D01*
X135194354Y-119950147D01*
X135319853Y-120075646D01*
X135418456Y-120223216D01*
X135486376Y-120387188D01*
X135521000Y-120561259D01*
X135521000Y-120738741D01*
X135486376Y-120912812D01*
X135418456Y-121076784D01*
X135319853Y-121224354D01*
X135194354Y-121349853D01*
X135046784Y-121448456D01*
X134882812Y-121516376D01*
X134733512Y-121546073D01*
X134708742Y-121551000D01*
X134531258Y-121551000D01*
X134506488Y-121546073D01*
X134357188Y-121516376D01*
X134193216Y-121448456D01*
X134045646Y-121349853D01*
X133920147Y-121224354D01*
X133821544Y-121076784D01*
X133753624Y-120912812D01*
X133719000Y-120738741D01*
X133719000Y-120561259D01*
X133753624Y-120387188D01*
X133821544Y-120223216D01*
X133920147Y-120075646D01*
X134045646Y-119950147D01*
X134193216Y-119851544D01*
X134357188Y-119783624D01*
X134506488Y-119753927D01*
X134531258Y-119749000D01*
X134708742Y-119749000D01*
X134733512Y-119753927D01*
G37*
G36*
X132193512Y-119753927D02*
G01*
X132342812Y-119783624D01*
X132506784Y-119851544D01*
X132654354Y-119950147D01*
X132779853Y-120075646D01*
X132878456Y-120223216D01*
X132946376Y-120387188D01*
X132981000Y-120561259D01*
X132981000Y-120738741D01*
X132946376Y-120912812D01*
X132878456Y-121076784D01*
X132779853Y-121224354D01*
X132654354Y-121349853D01*
X132506784Y-121448456D01*
X132342812Y-121516376D01*
X132193512Y-121546073D01*
X132168742Y-121551000D01*
X131991258Y-121551000D01*
X131966488Y-121546073D01*
X131817188Y-121516376D01*
X131653216Y-121448456D01*
X131505646Y-121349853D01*
X131380147Y-121224354D01*
X131281544Y-121076784D01*
X131213624Y-120912812D01*
X131179000Y-120738741D01*
X131179000Y-120561259D01*
X131213624Y-120387188D01*
X131281544Y-120223216D01*
X131380147Y-120075646D01*
X131505646Y-119950147D01*
X131653216Y-119851544D01*
X131817188Y-119783624D01*
X131966488Y-119753927D01*
X131991258Y-119749000D01*
X132168742Y-119749000D01*
X132193512Y-119753927D01*
G37*
G36*
X129653512Y-119753927D02*
G01*
X129802812Y-119783624D01*
X129966784Y-119851544D01*
X130114354Y-119950147D01*
X130239853Y-120075646D01*
X130338456Y-120223216D01*
X130406376Y-120387188D01*
X130441000Y-120561259D01*
X130441000Y-120738741D01*
X130406376Y-120912812D01*
X130338456Y-121076784D01*
X130239853Y-121224354D01*
X130114354Y-121349853D01*
X129966784Y-121448456D01*
X129802812Y-121516376D01*
X129653512Y-121546073D01*
X129628742Y-121551000D01*
X129451258Y-121551000D01*
X129426488Y-121546073D01*
X129277188Y-121516376D01*
X129113216Y-121448456D01*
X128965646Y-121349853D01*
X128840147Y-121224354D01*
X128741544Y-121076784D01*
X128673624Y-120912812D01*
X128639000Y-120738741D01*
X128639000Y-120561259D01*
X128673624Y-120387188D01*
X128741544Y-120223216D01*
X128840147Y-120075646D01*
X128965646Y-119950147D01*
X129113216Y-119851544D01*
X129277188Y-119783624D01*
X129426488Y-119753927D01*
X129451258Y-119749000D01*
X129628742Y-119749000D01*
X129653512Y-119753927D01*
G37*
G36*
X133587142Y-112248242D02*
G01*
X133735101Y-112309529D01*
X133868255Y-112398499D01*
X133981501Y-112511745D01*
X134070471Y-112644899D01*
X134131758Y-112792858D01*
X134163000Y-112949925D01*
X134163000Y-113110075D01*
X134131758Y-113267142D01*
X134070471Y-113415101D01*
X133981501Y-113548255D01*
X133868255Y-113661501D01*
X133735101Y-113750471D01*
X133587142Y-113811758D01*
X133430075Y-113843000D01*
X133269925Y-113843000D01*
X133112858Y-113811758D01*
X132964899Y-113750471D01*
X132831745Y-113661501D01*
X132718499Y-113548255D01*
X132629529Y-113415101D01*
X132568242Y-113267142D01*
X132537000Y-113110075D01*
X132537000Y-112949925D01*
X132568242Y-112792858D01*
X132629529Y-112644899D01*
X132718499Y-112511745D01*
X132831745Y-112398499D01*
X132964899Y-112309529D01*
X133112858Y-112248242D01*
X133269925Y-112217000D01*
X133430075Y-112217000D01*
X133587142Y-112248242D01*
G37*
G36*
X161527142Y-112248242D02*
G01*
X161675101Y-112309529D01*
X161808255Y-112398499D01*
X161921501Y-112511745D01*
X162010471Y-112644899D01*
X162071758Y-112792858D01*
X162103000Y-112949925D01*
X162103000Y-113110075D01*
X162071758Y-113267142D01*
X162010471Y-113415101D01*
X161921501Y-113548255D01*
X161808255Y-113661501D01*
X161675101Y-113750471D01*
X161527142Y-113811758D01*
X161370075Y-113843000D01*
X161209925Y-113843000D01*
X161052858Y-113811758D01*
X160904899Y-113750471D01*
X160771745Y-113661501D01*
X160658499Y-113548255D01*
X160569529Y-113415101D01*
X160508242Y-113267142D01*
X160477000Y-113110075D01*
X160477000Y-112949925D01*
X160508242Y-112792858D01*
X160569529Y-112644899D01*
X160658499Y-112511745D01*
X160771745Y-112398499D01*
X160904899Y-112309529D01*
X161052858Y-112248242D01*
X161209925Y-112217000D01*
X161370075Y-112217000D01*
X161527142Y-112248242D01*
G37*
G36*
X156447142Y-112248242D02*
G01*
X156595101Y-112309529D01*
X156728255Y-112398499D01*
X156841501Y-112511745D01*
X156930471Y-112644899D01*
X156991758Y-112792858D01*
X157023000Y-112949925D01*
X157023000Y-113110075D01*
X156991758Y-113267142D01*
X156930471Y-113415101D01*
X156841501Y-113548255D01*
X156728255Y-113661501D01*
X156595101Y-113750471D01*
X156447142Y-113811758D01*
X156290075Y-113843000D01*
X156129925Y-113843000D01*
X155972858Y-113811758D01*
X155824899Y-113750471D01*
X155691745Y-113661501D01*
X155578499Y-113548255D01*
X155489529Y-113415101D01*
X155428242Y-113267142D01*
X155397000Y-113110075D01*
X155397000Y-112949925D01*
X155428242Y-112792858D01*
X155489529Y-112644899D01*
X155578499Y-112511745D01*
X155691745Y-112398499D01*
X155824899Y-112309529D01*
X155972858Y-112248242D01*
X156129925Y-112217000D01*
X156290075Y-112217000D01*
X156447142Y-112248242D01*
G37*
G36*
X153907142Y-112248242D02*
G01*
X154055101Y-112309529D01*
X154188255Y-112398499D01*
X154301501Y-112511745D01*
X154390471Y-112644899D01*
X154451758Y-112792858D01*
X154483000Y-112949925D01*
X154483000Y-113110075D01*
X154451758Y-113267142D01*
X154390471Y-113415101D01*
X154301501Y-113548255D01*
X154188255Y-113661501D01*
X154055101Y-113750471D01*
X153907142Y-113811758D01*
X153750075Y-113843000D01*
X153589925Y-113843000D01*
X153432858Y-113811758D01*
X153284899Y-113750471D01*
X153151745Y-113661501D01*
X153038499Y-113548255D01*
X152949529Y-113415101D01*
X152888242Y-113267142D01*
X152857000Y-113110075D01*
X152857000Y-112949925D01*
X152888242Y-112792858D01*
X152949529Y-112644899D01*
X153038499Y-112511745D01*
X153151745Y-112398499D01*
X153284899Y-112309529D01*
X153432858Y-112248242D01*
X153589925Y-112217000D01*
X153750075Y-112217000D01*
X153907142Y-112248242D01*
G37*
G36*
X151367142Y-112248242D02*
G01*
X151515101Y-112309529D01*
X151648255Y-112398499D01*
X151761501Y-112511745D01*
X151850471Y-112644899D01*
X151911758Y-112792858D01*
X151943000Y-112949925D01*
X151943000Y-113110075D01*
X151911758Y-113267142D01*
X151850471Y-113415101D01*
X151761501Y-113548255D01*
X151648255Y-113661501D01*
X151515101Y-113750471D01*
X151367142Y-113811758D01*
X151210075Y-113843000D01*
X151049925Y-113843000D01*
X150892858Y-113811758D01*
X150744899Y-113750471D01*
X150611745Y-113661501D01*
X150498499Y-113548255D01*
X150409529Y-113415101D01*
X150348242Y-113267142D01*
X150317000Y-113110075D01*
X150317000Y-112949925D01*
X150348242Y-112792858D01*
X150409529Y-112644899D01*
X150498499Y-112511745D01*
X150611745Y-112398499D01*
X150744899Y-112309529D01*
X150892858Y-112248242D01*
X151049925Y-112217000D01*
X151210075Y-112217000D01*
X151367142Y-112248242D01*
G37*
G36*
X148827142Y-112248242D02*
G01*
X148975101Y-112309529D01*
X149108255Y-112398499D01*
X149221501Y-112511745D01*
X149310471Y-112644899D01*
X149371758Y-112792858D01*
X149403000Y-112949925D01*
X149403000Y-113110075D01*
X149371758Y-113267142D01*
X149310471Y-113415101D01*
X149221501Y-113548255D01*
X149108255Y-113661501D01*
X148975101Y-113750471D01*
X148827142Y-113811758D01*
X148670075Y-113843000D01*
X148509925Y-113843000D01*
X148352858Y-113811758D01*
X148204899Y-113750471D01*
X148071745Y-113661501D01*
X147958499Y-113548255D01*
X147869529Y-113415101D01*
X147808242Y-113267142D01*
X147777000Y-113110075D01*
X147777000Y-112949925D01*
X147808242Y-112792858D01*
X147869529Y-112644899D01*
X147958499Y-112511745D01*
X148071745Y-112398499D01*
X148204899Y-112309529D01*
X148352858Y-112248242D01*
X148509925Y-112217000D01*
X148670075Y-112217000D01*
X148827142Y-112248242D01*
G37*
G36*
X146287142Y-112248242D02*
G01*
X146435101Y-112309529D01*
X146568255Y-112398499D01*
X146681501Y-112511745D01*
X146770471Y-112644899D01*
X146831758Y-112792858D01*
X146863000Y-112949925D01*
X146863000Y-113110075D01*
X146831758Y-113267142D01*
X146770471Y-113415101D01*
X146681501Y-113548255D01*
X146568255Y-113661501D01*
X146435101Y-113750471D01*
X146287142Y-113811758D01*
X146130075Y-113843000D01*
X145969925Y-113843000D01*
X145812858Y-113811758D01*
X145664899Y-113750471D01*
X145531745Y-113661501D01*
X145418499Y-113548255D01*
X145329529Y-113415101D01*
X145268242Y-113267142D01*
X145237000Y-113110075D01*
X145237000Y-112949925D01*
X145268242Y-112792858D01*
X145329529Y-112644899D01*
X145418499Y-112511745D01*
X145531745Y-112398499D01*
X145664899Y-112309529D01*
X145812858Y-112248242D01*
X145969925Y-112217000D01*
X146130075Y-112217000D01*
X146287142Y-112248242D01*
G37*
G36*
X143747142Y-112248242D02*
G01*
X143895101Y-112309529D01*
X144028255Y-112398499D01*
X144141501Y-112511745D01*
X144230471Y-112644899D01*
X144291758Y-112792858D01*
X144323000Y-112949925D01*
X144323000Y-113110075D01*
X144291758Y-113267142D01*
X144230471Y-113415101D01*
X144141501Y-113548255D01*
X144028255Y-113661501D01*
X143895101Y-113750471D01*
X143747142Y-113811758D01*
X143590075Y-113843000D01*
X143429925Y-113843000D01*
X143272858Y-113811758D01*
X143124899Y-113750471D01*
X142991745Y-113661501D01*
X142878499Y-113548255D01*
X142789529Y-113415101D01*
X142728242Y-113267142D01*
X142697000Y-113110075D01*
X142697000Y-112949925D01*
X142728242Y-112792858D01*
X142789529Y-112644899D01*
X142878499Y-112511745D01*
X142991745Y-112398499D01*
X143124899Y-112309529D01*
X143272858Y-112248242D01*
X143429925Y-112217000D01*
X143590075Y-112217000D01*
X143747142Y-112248242D01*
G37*
G36*
X138667142Y-112248242D02*
G01*
X138815101Y-112309529D01*
X138948255Y-112398499D01*
X139061501Y-112511745D01*
X139150471Y-112644899D01*
X139211758Y-112792858D01*
X139243000Y-112949925D01*
X139243000Y-113110075D01*
X139211758Y-113267142D01*
X139150471Y-113415101D01*
X139061501Y-113548255D01*
X138948255Y-113661501D01*
X138815101Y-113750471D01*
X138667142Y-113811758D01*
X138510075Y-113843000D01*
X138349925Y-113843000D01*
X138192858Y-113811758D01*
X138044899Y-113750471D01*
X137911745Y-113661501D01*
X137798499Y-113548255D01*
X137709529Y-113415101D01*
X137648242Y-113267142D01*
X137617000Y-113110075D01*
X137617000Y-112949925D01*
X137648242Y-112792858D01*
X137709529Y-112644899D01*
X137798499Y-112511745D01*
X137911745Y-112398499D01*
X138044899Y-112309529D01*
X138192858Y-112248242D01*
X138349925Y-112217000D01*
X138510075Y-112217000D01*
X138667142Y-112248242D01*
G37*
G36*
X136127142Y-112248242D02*
G01*
X136275101Y-112309529D01*
X136408255Y-112398499D01*
X136521501Y-112511745D01*
X136610471Y-112644899D01*
X136671758Y-112792858D01*
X136703000Y-112949925D01*
X136703000Y-113110075D01*
X136671758Y-113267142D01*
X136610471Y-113415101D01*
X136521501Y-113548255D01*
X136408255Y-113661501D01*
X136275101Y-113750471D01*
X136127142Y-113811758D01*
X135970075Y-113843000D01*
X135809925Y-113843000D01*
X135652858Y-113811758D01*
X135504899Y-113750471D01*
X135371745Y-113661501D01*
X135258499Y-113548255D01*
X135169529Y-113415101D01*
X135108242Y-113267142D01*
X135077000Y-113110075D01*
X135077000Y-112949925D01*
X135108242Y-112792858D01*
X135169529Y-112644899D01*
X135258499Y-112511745D01*
X135371745Y-112398499D01*
X135504899Y-112309529D01*
X135652858Y-112248242D01*
X135809925Y-112217000D01*
X135970075Y-112217000D01*
X136127142Y-112248242D01*
G37*
G36*
X125967142Y-112248242D02*
G01*
X126115101Y-112309529D01*
X126248255Y-112398499D01*
X126361501Y-112511745D01*
X126450471Y-112644899D01*
X126511758Y-112792858D01*
X126543000Y-112949925D01*
X126543000Y-113110075D01*
X126511758Y-113267142D01*
X126450471Y-113415101D01*
X126361501Y-113548255D01*
X126248255Y-113661501D01*
X126115101Y-113750471D01*
X125967142Y-113811758D01*
X125810075Y-113843000D01*
X125649925Y-113843000D01*
X125492858Y-113811758D01*
X125344899Y-113750471D01*
X125211745Y-113661501D01*
X125098499Y-113548255D01*
X125009529Y-113415101D01*
X124948242Y-113267142D01*
X124917000Y-113110075D01*
X124917000Y-112949925D01*
X124948242Y-112792858D01*
X125009529Y-112644899D01*
X125098499Y-112511745D01*
X125211745Y-112398499D01*
X125344899Y-112309529D01*
X125492858Y-112248242D01*
X125649925Y-112217000D01*
X125810075Y-112217000D01*
X125967142Y-112248242D01*
G37*
G36*
X131047142Y-112248242D02*
G01*
X131195101Y-112309529D01*
X131328255Y-112398499D01*
X131441501Y-112511745D01*
X131530471Y-112644899D01*
X131591758Y-112792858D01*
X131623000Y-112949925D01*
X131623000Y-113110075D01*
X131591758Y-113267142D01*
X131530471Y-113415101D01*
X131441501Y-113548255D01*
X131328255Y-113661501D01*
X131195101Y-113750471D01*
X131047142Y-113811758D01*
X130890075Y-113843000D01*
X130729925Y-113843000D01*
X130572858Y-113811758D01*
X130424899Y-113750471D01*
X130291745Y-113661501D01*
X130178499Y-113548255D01*
X130089529Y-113415101D01*
X130028242Y-113267142D01*
X129997000Y-113110075D01*
X129997000Y-112949925D01*
X130028242Y-112792858D01*
X130089529Y-112644899D01*
X130178499Y-112511745D01*
X130291745Y-112398499D01*
X130424899Y-112309529D01*
X130572858Y-112248242D01*
X130729925Y-112217000D01*
X130890075Y-112217000D01*
X131047142Y-112248242D01*
G37*
G36*
X128507142Y-112248242D02*
G01*
X128655101Y-112309529D01*
X128788255Y-112398499D01*
X128901501Y-112511745D01*
X128990471Y-112644899D01*
X129051758Y-112792858D01*
X129083000Y-112949925D01*
X129083000Y-113110075D01*
X129051758Y-113267142D01*
X128990471Y-113415101D01*
X128901501Y-113548255D01*
X128788255Y-113661501D01*
X128655101Y-113750471D01*
X128507142Y-113811758D01*
X128350075Y-113843000D01*
X128189925Y-113843000D01*
X128032858Y-113811758D01*
X127884899Y-113750471D01*
X127751745Y-113661501D01*
X127638499Y-113548255D01*
X127549529Y-113415101D01*
X127488242Y-113267142D01*
X127457000Y-113110075D01*
X127457000Y-112949925D01*
X127488242Y-112792858D01*
X127549529Y-112644899D01*
X127638499Y-112511745D01*
X127751745Y-112398499D01*
X127884899Y-112309529D01*
X128032858Y-112248242D01*
X128189925Y-112217000D01*
X128350075Y-112217000D01*
X128507142Y-112248242D01*
G37*
G36*
X158987142Y-112248242D02*
G01*
X159135101Y-112309529D01*
X159268255Y-112398499D01*
X159381501Y-112511745D01*
X159470471Y-112644899D01*
X159531758Y-112792858D01*
X159563000Y-112949925D01*
X159563000Y-113110075D01*
X159531758Y-113267142D01*
X159470471Y-113415101D01*
X159381501Y-113548255D01*
X159268255Y-113661501D01*
X159135101Y-113750471D01*
X158987142Y-113811758D01*
X158830075Y-113843000D01*
X158669925Y-113843000D01*
X158512858Y-113811758D01*
X158364899Y-113750471D01*
X158231745Y-113661501D01*
X158118499Y-113548255D01*
X158029529Y-113415101D01*
X157968242Y-113267142D01*
X157937000Y-113110075D01*
X157937000Y-112949925D01*
X157968242Y-112792858D01*
X158029529Y-112644899D01*
X158118499Y-112511745D01*
X158231745Y-112398499D01*
X158364899Y-112309529D01*
X158512858Y-112248242D01*
X158669925Y-112217000D01*
X158830075Y-112217000D01*
X158987142Y-112248242D01*
G37*
G36*
X164067142Y-112248242D02*
G01*
X164215101Y-112309529D01*
X164348255Y-112398499D01*
X164461501Y-112511745D01*
X164550471Y-112644899D01*
X164611758Y-112792858D01*
X164643000Y-112949925D01*
X164643000Y-113110075D01*
X164611758Y-113267142D01*
X164550471Y-113415101D01*
X164461501Y-113548255D01*
X164348255Y-113661501D01*
X164215101Y-113750471D01*
X164067142Y-113811758D01*
X163910075Y-113843000D01*
X163749925Y-113843000D01*
X163592858Y-113811758D01*
X163444899Y-113750471D01*
X163311745Y-113661501D01*
X163198499Y-113548255D01*
X163109529Y-113415101D01*
X163048242Y-113267142D01*
X163017000Y-113110075D01*
X163017000Y-112949925D01*
X163048242Y-112792858D01*
X163109529Y-112644899D01*
X163198499Y-112511745D01*
X163311745Y-112398499D01*
X163444899Y-112309529D01*
X163592858Y-112248242D01*
X163749925Y-112217000D01*
X163910075Y-112217000D01*
X164067142Y-112248242D01*
G37*
G36*
X141207142Y-112248242D02*
G01*
X141355101Y-112309529D01*
X141488255Y-112398499D01*
X141601501Y-112511745D01*
X141690471Y-112644899D01*
X141751758Y-112792858D01*
X141783000Y-112949925D01*
X141783000Y-113110075D01*
X141751758Y-113267142D01*
X141690471Y-113415101D01*
X141601501Y-113548255D01*
X141488255Y-113661501D01*
X141355101Y-113750471D01*
X141207142Y-113811758D01*
X141050075Y-113843000D01*
X140889925Y-113843000D01*
X140732858Y-113811758D01*
X140584899Y-113750471D01*
X140451745Y-113661501D01*
X140338499Y-113548255D01*
X140249529Y-113415101D01*
X140188242Y-113267142D01*
X140157000Y-113110075D01*
X140157000Y-112949925D01*
X140188242Y-112792858D01*
X140249529Y-112644899D01*
X140338499Y-112511745D01*
X140451745Y-112398499D01*
X140584899Y-112309529D01*
X140732858Y-112248242D01*
X140889925Y-112217000D01*
X141050075Y-112217000D01*
X141207142Y-112248242D01*
G37*
G36*
X122276820Y-109966143D02*
G01*
X122453500Y-110001287D01*
X122591373Y-110058396D01*
X122786355Y-110139160D01*
X122786356Y-110139161D01*
X123085920Y-110339323D01*
X123340677Y-110594080D01*
X123340678Y-110594082D01*
X123540840Y-110893645D01*
X123621604Y-111088627D01*
X123678713Y-111226500D01*
X123749000Y-111579859D01*
X123749000Y-111940141D01*
X123678713Y-112293500D01*
X123635221Y-112398499D01*
X123540840Y-112626355D01*
X123441438Y-112775120D01*
X123340677Y-112925920D01*
X123085920Y-113180677D01*
X122956516Y-113267142D01*
X122786355Y-113380840D01*
X122703641Y-113415101D01*
X122453500Y-113518713D01*
X122304981Y-113548255D01*
X122100142Y-113589000D01*
X121739858Y-113589000D01*
X121535019Y-113548255D01*
X121386500Y-113518713D01*
X121136359Y-113415101D01*
X121053645Y-113380840D01*
X120883484Y-113267142D01*
X120754080Y-113180677D01*
X120499323Y-112925920D01*
X120398562Y-112775120D01*
X120299160Y-112626355D01*
X120204779Y-112398499D01*
X120161287Y-112293500D01*
X120091000Y-111940141D01*
X120091000Y-111579859D01*
X120161287Y-111226500D01*
X120218396Y-111088627D01*
X120299160Y-110893645D01*
X120499322Y-110594082D01*
X120499323Y-110594080D01*
X120754080Y-110339323D01*
X121053644Y-110139161D01*
X121053645Y-110139160D01*
X121248627Y-110058396D01*
X121386500Y-110001287D01*
X121563180Y-109966143D01*
X121739858Y-109931000D01*
X122100142Y-109931000D01*
X122276820Y-109966143D01*
G37*
G36*
X167996820Y-109966143D02*
G01*
X168173500Y-110001287D01*
X168311373Y-110058396D01*
X168506355Y-110139160D01*
X168506356Y-110139161D01*
X168805920Y-110339323D01*
X169060677Y-110594080D01*
X169060678Y-110594082D01*
X169260840Y-110893645D01*
X169341604Y-111088627D01*
X169398713Y-111226500D01*
X169469000Y-111579859D01*
X169469000Y-111940141D01*
X169398713Y-112293500D01*
X169355221Y-112398499D01*
X169260840Y-112626355D01*
X169161438Y-112775120D01*
X169060677Y-112925920D01*
X168805920Y-113180677D01*
X168676516Y-113267142D01*
X168506355Y-113380840D01*
X168423641Y-113415101D01*
X168173500Y-113518713D01*
X168024981Y-113548255D01*
X167820142Y-113589000D01*
X167459858Y-113589000D01*
X167255019Y-113548255D01*
X167106500Y-113518713D01*
X166856359Y-113415101D01*
X166773645Y-113380840D01*
X166603484Y-113267142D01*
X166474080Y-113180677D01*
X166219323Y-112925920D01*
X166118562Y-112775120D01*
X166019160Y-112626355D01*
X165924779Y-112398499D01*
X165881287Y-112293500D01*
X165811000Y-111940141D01*
X165811000Y-111579859D01*
X165881287Y-111226500D01*
X165938396Y-111088627D01*
X166019160Y-110893645D01*
X166219322Y-110594082D01*
X166219323Y-110594080D01*
X166474080Y-110339323D01*
X166773644Y-110139161D01*
X166773645Y-110139160D01*
X166968627Y-110058396D01*
X167106500Y-110001287D01*
X167283180Y-109966143D01*
X167459858Y-109931000D01*
X167820142Y-109931000D01*
X167996820Y-109966143D01*
G37*
G36*
X122276820Y-92186143D02*
G01*
X122453500Y-92221287D01*
X122591373Y-92278396D01*
X122786355Y-92359160D01*
X122786356Y-92359161D01*
X123085920Y-92559323D01*
X123340677Y-92814080D01*
X123340678Y-92814082D01*
X123540840Y-93113645D01*
X123621604Y-93308627D01*
X123672074Y-93430471D01*
X123678713Y-93446501D01*
X123749000Y-93799858D01*
X123749000Y-94160142D01*
X123678713Y-94513499D01*
X123540840Y-94846355D01*
X123540839Y-94846356D01*
X123340677Y-95145920D01*
X123085920Y-95400677D01*
X122935120Y-95501438D01*
X122786355Y-95600840D01*
X122591373Y-95681604D01*
X122453500Y-95738713D01*
X122276820Y-95773857D01*
X122100142Y-95809000D01*
X121739858Y-95809000D01*
X121563179Y-95773856D01*
X121386500Y-95738713D01*
X121248627Y-95681604D01*
X121053645Y-95600840D01*
X120904880Y-95501438D01*
X120754080Y-95400677D01*
X120499323Y-95145920D01*
X120299161Y-94846356D01*
X120299160Y-94846355D01*
X120161287Y-94513499D01*
X120091000Y-94160142D01*
X120091000Y-93799858D01*
X120161287Y-93446501D01*
X120167927Y-93430471D01*
X120218396Y-93308627D01*
X120299160Y-93113645D01*
X120499322Y-92814082D01*
X120499323Y-92814080D01*
X120754080Y-92559323D01*
X121053644Y-92359161D01*
X121053645Y-92359160D01*
X121248627Y-92278396D01*
X121386500Y-92221287D01*
X121563180Y-92186143D01*
X121739858Y-92151000D01*
X122100142Y-92151000D01*
X122276820Y-92186143D01*
G37*
G36*
X167996820Y-92186143D02*
G01*
X168173500Y-92221287D01*
X168311373Y-92278396D01*
X168506355Y-92359160D01*
X168506356Y-92359161D01*
X168805920Y-92559323D01*
X169060677Y-92814080D01*
X169060678Y-92814082D01*
X169260840Y-93113645D01*
X169341604Y-93308627D01*
X169392074Y-93430471D01*
X169398713Y-93446501D01*
X169469000Y-93799858D01*
X169469000Y-94160142D01*
X169398713Y-94513499D01*
X169260840Y-94846355D01*
X169260839Y-94846356D01*
X169060677Y-95145920D01*
X168805920Y-95400677D01*
X168655120Y-95501438D01*
X168506355Y-95600840D01*
X168311373Y-95681604D01*
X168173500Y-95738713D01*
X167996820Y-95773857D01*
X167820142Y-95809000D01*
X167459858Y-95809000D01*
X167283179Y-95773856D01*
X167106500Y-95738713D01*
X166968627Y-95681604D01*
X166773645Y-95600840D01*
X166624880Y-95501438D01*
X166474080Y-95400677D01*
X166219323Y-95145920D01*
X166019161Y-94846356D01*
X166019160Y-94846355D01*
X165881287Y-94513499D01*
X165811000Y-94160142D01*
X165811000Y-93799858D01*
X165881287Y-93446501D01*
X165887927Y-93430471D01*
X165938396Y-93308627D01*
X166019160Y-93113645D01*
X166219322Y-92814082D01*
X166219323Y-92814080D01*
X166474080Y-92559323D01*
X166773644Y-92359161D01*
X166773645Y-92359160D01*
X166968627Y-92278396D01*
X167106500Y-92221287D01*
X167283180Y-92186143D01*
X167459858Y-92151000D01*
X167820142Y-92151000D01*
X167996820Y-92186143D01*
G37*
G36*
X136127142Y-91928242D02*
G01*
X136275101Y-91989529D01*
X136408255Y-92078499D01*
X136521501Y-92191745D01*
X136610471Y-92324899D01*
X136671758Y-92472858D01*
X136703000Y-92629925D01*
X136703000Y-92790075D01*
X136671758Y-92947142D01*
X136610471Y-93095101D01*
X136521501Y-93228255D01*
X136408255Y-93341501D01*
X136275101Y-93430471D01*
X136127142Y-93491758D01*
X135970075Y-93523000D01*
X135809925Y-93523000D01*
X135652858Y-93491758D01*
X135504899Y-93430471D01*
X135371745Y-93341501D01*
X135258499Y-93228255D01*
X135169529Y-93095101D01*
X135108242Y-92947142D01*
X135077000Y-92790075D01*
X135077000Y-92629925D01*
X135108242Y-92472858D01*
X135169529Y-92324899D01*
X135258499Y-92191745D01*
X135371745Y-92078499D01*
X135504899Y-91989529D01*
X135652858Y-91928242D01*
X135809925Y-91897000D01*
X135970075Y-91897000D01*
X136127142Y-91928242D01*
G37*
G36*
X138667142Y-91928242D02*
G01*
X138815101Y-91989529D01*
X138948255Y-92078499D01*
X139061501Y-92191745D01*
X139150471Y-92324899D01*
X139211758Y-92472858D01*
X139243000Y-92629925D01*
X139243000Y-92790075D01*
X139211758Y-92947142D01*
X139150471Y-93095101D01*
X139061501Y-93228255D01*
X138948255Y-93341501D01*
X138815101Y-93430471D01*
X138667142Y-93491758D01*
X138510075Y-93523000D01*
X138349925Y-93523000D01*
X138192858Y-93491758D01*
X138044899Y-93430471D01*
X137911745Y-93341501D01*
X137798499Y-93228255D01*
X137709529Y-93095101D01*
X137648242Y-92947142D01*
X137617000Y-92790075D01*
X137617000Y-92629925D01*
X137648242Y-92472858D01*
X137709529Y-92324899D01*
X137798499Y-92191745D01*
X137911745Y-92078499D01*
X138044899Y-91989529D01*
X138192858Y-91928242D01*
X138349925Y-91897000D01*
X138510075Y-91897000D01*
X138667142Y-91928242D01*
G37*
G36*
X141207142Y-91928242D02*
G01*
X141355101Y-91989529D01*
X141488255Y-92078499D01*
X141601501Y-92191745D01*
X141690471Y-92324899D01*
X141751758Y-92472858D01*
X141783000Y-92629925D01*
X141783000Y-92790075D01*
X141751758Y-92947142D01*
X141690471Y-93095101D01*
X141601501Y-93228255D01*
X141488255Y-93341501D01*
X141355101Y-93430471D01*
X141207142Y-93491758D01*
X141050075Y-93523000D01*
X140889925Y-93523000D01*
X140732858Y-93491758D01*
X140584899Y-93430471D01*
X140451745Y-93341501D01*
X140338499Y-93228255D01*
X140249529Y-93095101D01*
X140188242Y-92947142D01*
X140157000Y-92790075D01*
X140157000Y-92629925D01*
X140188242Y-92472858D01*
X140249529Y-92324899D01*
X140338499Y-92191745D01*
X140451745Y-92078499D01*
X140584899Y-91989529D01*
X140732858Y-91928242D01*
X140889925Y-91897000D01*
X141050075Y-91897000D01*
X141207142Y-91928242D01*
G37*
G36*
X143747142Y-91928242D02*
G01*
X143895101Y-91989529D01*
X144028255Y-92078499D01*
X144141501Y-92191745D01*
X144230471Y-92324899D01*
X144291758Y-92472858D01*
X144323000Y-92629925D01*
X144323000Y-92790075D01*
X144291758Y-92947142D01*
X144230471Y-93095101D01*
X144141501Y-93228255D01*
X144028255Y-93341501D01*
X143895101Y-93430471D01*
X143747142Y-93491758D01*
X143590075Y-93523000D01*
X143429925Y-93523000D01*
X143272858Y-93491758D01*
X143124899Y-93430471D01*
X142991745Y-93341501D01*
X142878499Y-93228255D01*
X142789529Y-93095101D01*
X142728242Y-92947142D01*
X142697000Y-92790075D01*
X142697000Y-92629925D01*
X142728242Y-92472858D01*
X142789529Y-92324899D01*
X142878499Y-92191745D01*
X142991745Y-92078499D01*
X143124899Y-91989529D01*
X143272858Y-91928242D01*
X143429925Y-91897000D01*
X143590075Y-91897000D01*
X143747142Y-91928242D01*
G37*
G36*
X146287142Y-91928242D02*
G01*
X146435101Y-91989529D01*
X146568255Y-92078499D01*
X146681501Y-92191745D01*
X146770471Y-92324899D01*
X146831758Y-92472858D01*
X146863000Y-92629925D01*
X146863000Y-92790075D01*
X146831758Y-92947142D01*
X146770471Y-93095101D01*
X146681501Y-93228255D01*
X146568255Y-93341501D01*
X146435101Y-93430471D01*
X146287142Y-93491758D01*
X146130075Y-93523000D01*
X145969925Y-93523000D01*
X145812858Y-93491758D01*
X145664899Y-93430471D01*
X145531745Y-93341501D01*
X145418499Y-93228255D01*
X145329529Y-93095101D01*
X145268242Y-92947142D01*
X145237000Y-92790075D01*
X145237000Y-92629925D01*
X145268242Y-92472858D01*
X145329529Y-92324899D01*
X145418499Y-92191745D01*
X145531745Y-92078499D01*
X145664899Y-91989529D01*
X145812858Y-91928242D01*
X145969925Y-91897000D01*
X146130075Y-91897000D01*
X146287142Y-91928242D01*
G37*
G36*
X148827142Y-91928242D02*
G01*
X148975101Y-91989529D01*
X149108255Y-92078499D01*
X149221501Y-92191745D01*
X149310471Y-92324899D01*
X149371758Y-92472858D01*
X149403000Y-92629925D01*
X149403000Y-92790075D01*
X149371758Y-92947142D01*
X149310471Y-93095101D01*
X149221501Y-93228255D01*
X149108255Y-93341501D01*
X148975101Y-93430471D01*
X148827142Y-93491758D01*
X148670075Y-93523000D01*
X148509925Y-93523000D01*
X148352858Y-93491758D01*
X148204899Y-93430471D01*
X148071745Y-93341501D01*
X147958499Y-93228255D01*
X147869529Y-93095101D01*
X147808242Y-92947142D01*
X147777000Y-92790075D01*
X147777000Y-92629925D01*
X147808242Y-92472858D01*
X147869529Y-92324899D01*
X147958499Y-92191745D01*
X148071745Y-92078499D01*
X148204899Y-91989529D01*
X148352858Y-91928242D01*
X148509925Y-91897000D01*
X148670075Y-91897000D01*
X148827142Y-91928242D01*
G37*
G36*
X153907142Y-91928242D02*
G01*
X154055101Y-91989529D01*
X154188255Y-92078499D01*
X154301501Y-92191745D01*
X154390471Y-92324899D01*
X154451758Y-92472858D01*
X154483000Y-92629925D01*
X154483000Y-92790075D01*
X154451758Y-92947142D01*
X154390471Y-93095101D01*
X154301501Y-93228255D01*
X154188255Y-93341501D01*
X154055101Y-93430471D01*
X153907142Y-93491758D01*
X153750075Y-93523000D01*
X153589925Y-93523000D01*
X153432858Y-93491758D01*
X153284899Y-93430471D01*
X153151745Y-93341501D01*
X153038499Y-93228255D01*
X152949529Y-93095101D01*
X152888242Y-92947142D01*
X152857000Y-92790075D01*
X152857000Y-92629925D01*
X152888242Y-92472858D01*
X152949529Y-92324899D01*
X153038499Y-92191745D01*
X153151745Y-92078499D01*
X153284899Y-91989529D01*
X153432858Y-91928242D01*
X153589925Y-91897000D01*
X153750075Y-91897000D01*
X153907142Y-91928242D01*
G37*
G36*
X156447142Y-91928242D02*
G01*
X156595101Y-91989529D01*
X156728255Y-92078499D01*
X156841501Y-92191745D01*
X156930471Y-92324899D01*
X156991758Y-92472858D01*
X157023000Y-92629925D01*
X157023000Y-92790075D01*
X156991758Y-92947142D01*
X156930471Y-93095101D01*
X156841501Y-93228255D01*
X156728255Y-93341501D01*
X156595101Y-93430471D01*
X156447142Y-93491758D01*
X156290075Y-93523000D01*
X156129925Y-93523000D01*
X155972858Y-93491758D01*
X155824899Y-93430471D01*
X155691745Y-93341501D01*
X155578499Y-93228255D01*
X155489529Y-93095101D01*
X155428242Y-92947142D01*
X155397000Y-92790075D01*
X155397000Y-92629925D01*
X155428242Y-92472858D01*
X155489529Y-92324899D01*
X155578499Y-92191745D01*
X155691745Y-92078499D01*
X155824899Y-91989529D01*
X155972858Y-91928242D01*
X156129925Y-91897000D01*
X156290075Y-91897000D01*
X156447142Y-91928242D01*
G37*
G36*
X158987142Y-91928242D02*
G01*
X159135101Y-91989529D01*
X159268255Y-92078499D01*
X159381501Y-92191745D01*
X159470471Y-92324899D01*
X159531758Y-92472858D01*
X159563000Y-92629925D01*
X159563000Y-92790075D01*
X159531758Y-92947142D01*
X159470471Y-93095101D01*
X159381501Y-93228255D01*
X159268255Y-93341501D01*
X159135101Y-93430471D01*
X158987142Y-93491758D01*
X158830075Y-93523000D01*
X158669925Y-93523000D01*
X158512858Y-93491758D01*
X158364899Y-93430471D01*
X158231745Y-93341501D01*
X158118499Y-93228255D01*
X158029529Y-93095101D01*
X157968242Y-92947142D01*
X157937000Y-92790075D01*
X157937000Y-92629925D01*
X157968242Y-92472858D01*
X158029529Y-92324899D01*
X158118499Y-92191745D01*
X158231745Y-92078499D01*
X158364899Y-91989529D01*
X158512858Y-91928242D01*
X158669925Y-91897000D01*
X158830075Y-91897000D01*
X158987142Y-91928242D01*
G37*
G36*
X161527142Y-91928242D02*
G01*
X161675101Y-91989529D01*
X161808255Y-92078499D01*
X161921501Y-92191745D01*
X162010471Y-92324899D01*
X162071758Y-92472858D01*
X162103000Y-92629925D01*
X162103000Y-92790075D01*
X162071758Y-92947142D01*
X162010471Y-93095101D01*
X161921501Y-93228255D01*
X161808255Y-93341501D01*
X161675101Y-93430471D01*
X161527142Y-93491758D01*
X161370075Y-93523000D01*
X161209925Y-93523000D01*
X161052858Y-93491758D01*
X160904899Y-93430471D01*
X160771745Y-93341501D01*
X160658499Y-93228255D01*
X160569529Y-93095101D01*
X160508242Y-92947142D01*
X160477000Y-92790075D01*
X160477000Y-92629925D01*
X160508242Y-92472858D01*
X160569529Y-92324899D01*
X160658499Y-92191745D01*
X160771745Y-92078499D01*
X160904899Y-91989529D01*
X161052858Y-91928242D01*
X161209925Y-91897000D01*
X161370075Y-91897000D01*
X161527142Y-91928242D01*
G37*
G36*
X164067142Y-91928242D02*
G01*
X164215101Y-91989529D01*
X164348255Y-92078499D01*
X164461501Y-92191745D01*
X164550471Y-92324899D01*
X164611758Y-92472858D01*
X164643000Y-92629925D01*
X164643000Y-92790075D01*
X164611758Y-92947142D01*
X164550471Y-93095101D01*
X164461501Y-93228255D01*
X164348255Y-93341501D01*
X164215101Y-93430471D01*
X164067142Y-93491758D01*
X163910075Y-93523000D01*
X163749925Y-93523000D01*
X163592858Y-93491758D01*
X163444899Y-93430471D01*
X163311745Y-93341501D01*
X163198499Y-93228255D01*
X163109529Y-93095101D01*
X163048242Y-92947142D01*
X163017000Y-92790075D01*
X163017000Y-92629925D01*
X163048242Y-92472858D01*
X163109529Y-92324899D01*
X163198499Y-92191745D01*
X163311745Y-92078499D01*
X163444899Y-91989529D01*
X163592858Y-91928242D01*
X163749925Y-91897000D01*
X163910075Y-91897000D01*
X164067142Y-91928242D01*
G37*
G36*
X151367142Y-91928242D02*
G01*
X151515101Y-91989529D01*
X151648255Y-92078499D01*
X151761501Y-92191745D01*
X151850471Y-92324899D01*
X151911758Y-92472858D01*
X151943000Y-92629925D01*
X151943000Y-92790075D01*
X151911758Y-92947142D01*
X151850471Y-93095101D01*
X151761501Y-93228255D01*
X151648255Y-93341501D01*
X151515101Y-93430471D01*
X151367142Y-93491758D01*
X151210075Y-93523000D01*
X151049925Y-93523000D01*
X150892858Y-93491758D01*
X150744899Y-93430471D01*
X150611745Y-93341501D01*
X150498499Y-93228255D01*
X150409529Y-93095101D01*
X150348242Y-92947142D01*
X150317000Y-92790075D01*
X150317000Y-92629925D01*
X150348242Y-92472858D01*
X150409529Y-92324899D01*
X150498499Y-92191745D01*
X150611745Y-92078499D01*
X150744899Y-91989529D01*
X150892858Y-91928242D01*
X151049925Y-91897000D01*
X151210075Y-91897000D01*
X151367142Y-91928242D01*
G37*
G36*
X125021981Y-84487468D02*
G01*
X125100942Y-84520175D01*
X125201216Y-84561710D01*
X125204151Y-84562926D01*
X125368100Y-84672473D01*
X125507527Y-84811900D01*
X125617074Y-84975849D01*
X125617075Y-84975851D01*
X125639175Y-85029205D01*
X125692532Y-85158019D01*
X125731000Y-85351410D01*
X125731000Y-85548590D01*
X125692532Y-85741981D01*
X125617074Y-85924151D01*
X125507527Y-86088100D01*
X125368100Y-86227527D01*
X125204151Y-86337074D01*
X125021981Y-86412532D01*
X124828591Y-86451000D01*
X124631409Y-86451000D01*
X124438019Y-86412532D01*
X124255849Y-86337074D01*
X124091900Y-86227527D01*
X123952473Y-86088100D01*
X123842926Y-85924151D01*
X123767468Y-85741981D01*
X123729000Y-85548590D01*
X123729000Y-85351410D01*
X123767468Y-85158019D01*
X123820825Y-85029205D01*
X123842925Y-84975851D01*
X123842926Y-84975849D01*
X123952473Y-84811900D01*
X124091900Y-84672473D01*
X124255849Y-84562926D01*
X124258785Y-84561710D01*
X124359058Y-84520175D01*
X124438019Y-84487468D01*
X124534715Y-84468234D01*
X124631409Y-84449000D01*
X124828591Y-84449000D01*
X125021981Y-84487468D01*
G37*
G36*
X132425285Y-83818234D02*
G01*
X132521981Y-83837468D01*
X132704151Y-83912926D01*
X132868100Y-84022473D01*
X133007527Y-84161900D01*
X133117074Y-84325849D01*
X133192532Y-84508019D01*
X133203454Y-84562926D01*
X133230473Y-84698758D01*
X133231000Y-84701410D01*
X133231000Y-84898590D01*
X133192532Y-85091981D01*
X133117074Y-85274151D01*
X133007527Y-85438100D01*
X132868100Y-85577527D01*
X132704151Y-85687074D01*
X132521981Y-85762532D01*
X132425285Y-85781766D01*
X132328591Y-85801000D01*
X132131409Y-85801000D01*
X132034715Y-85781766D01*
X131938019Y-85762532D01*
X131755849Y-85687074D01*
X131591900Y-85577527D01*
X131452473Y-85438100D01*
X131342926Y-85274151D01*
X131267468Y-85091981D01*
X131229000Y-84898590D01*
X131229000Y-84701410D01*
X131229528Y-84698758D01*
X131256546Y-84562926D01*
X131267468Y-84508019D01*
X131342926Y-84325849D01*
X131452473Y-84161900D01*
X131591900Y-84022473D01*
X131755849Y-83912926D01*
X131938019Y-83837468D01*
X132034715Y-83818234D01*
X132131409Y-83799000D01*
X132328591Y-83799000D01*
X132425285Y-83818234D01*
G37*
G36*
X128390721Y-84520174D02*
G01*
X128490995Y-84561709D01*
X128492816Y-84562926D01*
X128581242Y-84622010D01*
X128657990Y-84698758D01*
X128657991Y-84698760D01*
X128718291Y-84789005D01*
X128759826Y-84889279D01*
X128781000Y-84995730D01*
X128781000Y-85104270D01*
X128759826Y-85210721D01*
X128718291Y-85310995D01*
X128718290Y-85310996D01*
X128657990Y-85401242D01*
X128581242Y-85477990D01*
X128535812Y-85508345D01*
X128490995Y-85538291D01*
X128390721Y-85579826D01*
X128284270Y-85601000D01*
X128175730Y-85601000D01*
X128069279Y-85579826D01*
X127969005Y-85538291D01*
X127924188Y-85508345D01*
X127878758Y-85477990D01*
X127802010Y-85401242D01*
X127741710Y-85310996D01*
X127741709Y-85310995D01*
X127700174Y-85210721D01*
X127679000Y-85104270D01*
X127679000Y-84995730D01*
X127700174Y-84889279D01*
X127741709Y-84789005D01*
X127802009Y-84698760D01*
X127802010Y-84698758D01*
X127878758Y-84622010D01*
X127967184Y-84562926D01*
X127969005Y-84561709D01*
X128069279Y-84520174D01*
X128175730Y-84499000D01*
X128284270Y-84499000D01*
X128390721Y-84520174D01*
G37*
G36*
X133231000Y-81301000D02*
G01*
X131229000Y-81301000D01*
X131229000Y-79299000D01*
X133231000Y-79299000D01*
X133231000Y-81301000D01*
G37*
G36*
X124925285Y-78668234D02*
G01*
X125021981Y-78687468D01*
X125204151Y-78762926D01*
X125368100Y-78872473D01*
X125507527Y-79011900D01*
X125617074Y-79175849D01*
X125617075Y-79175851D01*
X125692532Y-79358020D01*
X125731000Y-79551409D01*
X125731000Y-79748591D01*
X125692532Y-79941980D01*
X125625310Y-80104269D01*
X125617074Y-80124151D01*
X125507527Y-80288100D01*
X125368100Y-80427527D01*
X125204151Y-80537074D01*
X125204150Y-80537075D01*
X125204149Y-80537075D01*
X125201213Y-80538291D01*
X125021981Y-80612532D01*
X124828591Y-80651000D01*
X124631409Y-80651000D01*
X124438019Y-80612532D01*
X124258787Y-80538291D01*
X124255851Y-80537075D01*
X124255850Y-80537075D01*
X124255849Y-80537074D01*
X124091900Y-80427527D01*
X123952473Y-80288100D01*
X123842926Y-80124151D01*
X123834691Y-80104269D01*
X123767468Y-79941980D01*
X123729000Y-79748591D01*
X123729000Y-79551409D01*
X123767468Y-79358020D01*
X123842925Y-79175851D01*
X123842926Y-79175849D01*
X123952473Y-79011900D01*
X124091900Y-78872473D01*
X124255849Y-78762926D01*
X124438019Y-78687468D01*
X124534715Y-78668234D01*
X124631409Y-78649000D01*
X124828591Y-78649000D01*
X124925285Y-78668234D01*
G37*
G36*
X128390721Y-79520174D02*
G01*
X128490995Y-79561709D01*
X128490996Y-79561710D01*
X128581242Y-79622010D01*
X128657990Y-79698758D01*
X128657991Y-79698760D01*
X128718291Y-79789005D01*
X128759826Y-79889279D01*
X128781000Y-79995730D01*
X128781000Y-80104270D01*
X128759826Y-80210721D01*
X128718291Y-80310995D01*
X128718290Y-80310996D01*
X128657990Y-80401242D01*
X128581242Y-80477990D01*
X128535812Y-80508345D01*
X128490995Y-80538291D01*
X128390721Y-80579826D01*
X128284270Y-80601000D01*
X128175730Y-80601000D01*
X128069279Y-80579826D01*
X127969005Y-80538291D01*
X127924188Y-80508345D01*
X127878758Y-80477990D01*
X127802010Y-80401242D01*
X127741710Y-80310996D01*
X127741709Y-80310995D01*
X127700174Y-80210721D01*
X127679000Y-80104270D01*
X127679000Y-79995730D01*
X127700174Y-79889279D01*
X127741709Y-79789005D01*
X127802009Y-79698760D01*
X127802010Y-79698758D01*
X127878758Y-79622010D01*
X127969004Y-79561710D01*
X127969005Y-79561709D01*
X128069279Y-79520174D01*
X128175730Y-79499000D01*
X128284270Y-79499000D01*
X128390721Y-79520174D01*
G37*
G36*
X164687617Y-67663420D02*
G01*
X164768399Y-67687925D01*
X164810335Y-67700646D01*
X164923424Y-67761094D01*
X165022554Y-67842447D01*
X165103906Y-67941575D01*
X165164354Y-68054664D01*
X165174040Y-68086596D01*
X165201580Y-68177382D01*
X165211000Y-68273027D01*
X165211000Y-68886973D01*
X165201580Y-68982618D01*
X165174040Y-69073404D01*
X165164354Y-69105336D01*
X165103906Y-69218425D01*
X165022554Y-69317554D01*
X164923425Y-69398906D01*
X164810336Y-69459354D01*
X164778404Y-69469040D01*
X164687618Y-69496580D01*
X164560000Y-69509149D01*
X164432383Y-69496580D01*
X164341597Y-69469040D01*
X164309665Y-69459354D01*
X164196576Y-69398906D01*
X164097447Y-69317554D01*
X164016096Y-69218427D01*
X164016095Y-69218425D01*
X163955647Y-69105336D01*
X163955645Y-69105333D01*
X163943237Y-69064427D01*
X163918420Y-68982618D01*
X163909000Y-68886973D01*
X163909000Y-68273028D01*
X163918420Y-68177383D01*
X163955645Y-68054669D01*
X163955646Y-68054665D01*
X164016094Y-67941576D01*
X164097447Y-67842446D01*
X164196575Y-67761094D01*
X164309664Y-67700646D01*
X164351600Y-67687925D01*
X164432382Y-67663420D01*
X164560000Y-67650851D01*
X164687617Y-67663420D01*
G37*
G36*
X166687617Y-67663420D02*
G01*
X166768399Y-67687925D01*
X166810335Y-67700646D01*
X166923424Y-67761094D01*
X167022554Y-67842447D01*
X167103906Y-67941575D01*
X167164354Y-68054664D01*
X167174040Y-68086596D01*
X167201580Y-68177382D01*
X167211000Y-68273027D01*
X167211000Y-68886973D01*
X167201580Y-68982618D01*
X167174040Y-69073404D01*
X167164354Y-69105336D01*
X167103906Y-69218425D01*
X167022554Y-69317554D01*
X166923425Y-69398906D01*
X166810336Y-69459354D01*
X166778404Y-69469040D01*
X166687618Y-69496580D01*
X166560000Y-69509149D01*
X166432383Y-69496580D01*
X166341597Y-69469040D01*
X166309665Y-69459354D01*
X166196576Y-69398906D01*
X166097447Y-69317554D01*
X166016096Y-69218427D01*
X166016095Y-69218425D01*
X165955647Y-69105336D01*
X165955645Y-69105333D01*
X165943237Y-69064427D01*
X165918420Y-68982618D01*
X165909000Y-68886973D01*
X165909000Y-68273028D01*
X165918420Y-68177383D01*
X165955645Y-68054669D01*
X165955646Y-68054665D01*
X166016094Y-67941576D01*
X166097447Y-67842446D01*
X166196575Y-67761094D01*
X166309664Y-67700646D01*
X166351600Y-67687925D01*
X166432382Y-67663420D01*
X166560000Y-67650851D01*
X166687617Y-67663420D01*
G37*
G36*
X168687617Y-67663420D02*
G01*
X168768399Y-67687925D01*
X168810335Y-67700646D01*
X168923424Y-67761094D01*
X169022554Y-67842447D01*
X169103906Y-67941575D01*
X169164354Y-68054664D01*
X169174040Y-68086596D01*
X169201580Y-68177382D01*
X169211000Y-68273027D01*
X169211000Y-68886973D01*
X169201580Y-68982618D01*
X169174040Y-69073404D01*
X169164354Y-69105336D01*
X169103906Y-69218425D01*
X169022554Y-69317554D01*
X168923425Y-69398906D01*
X168810336Y-69459354D01*
X168778404Y-69469040D01*
X168687618Y-69496580D01*
X168560000Y-69509149D01*
X168432383Y-69496580D01*
X168341597Y-69469040D01*
X168309665Y-69459354D01*
X168196576Y-69398906D01*
X168097447Y-69317554D01*
X168016096Y-69218427D01*
X168016095Y-69218425D01*
X167955647Y-69105336D01*
X167955645Y-69105333D01*
X167943237Y-69064427D01*
X167918420Y-68982618D01*
X167909000Y-68886973D01*
X167909000Y-68273028D01*
X167918420Y-68177383D01*
X167955645Y-68054669D01*
X167955646Y-68054665D01*
X168016094Y-67941576D01*
X168097447Y-67842446D01*
X168196575Y-67761094D01*
X168309664Y-67700646D01*
X168351600Y-67687925D01*
X168432382Y-67663420D01*
X168560000Y-67650851D01*
X168687617Y-67663420D01*
G37*
G36*
X122777617Y-67663420D02*
G01*
X122858399Y-67687925D01*
X122900335Y-67700646D01*
X123013424Y-67761094D01*
X123112554Y-67842447D01*
X123193906Y-67941575D01*
X123254354Y-68054664D01*
X123264040Y-68086596D01*
X123291580Y-68177382D01*
X123301000Y-68273027D01*
X123301000Y-68886973D01*
X123291580Y-68982618D01*
X123264040Y-69073404D01*
X123254354Y-69105336D01*
X123193906Y-69218425D01*
X123112554Y-69317554D01*
X123013425Y-69398906D01*
X122900336Y-69459354D01*
X122868404Y-69469040D01*
X122777618Y-69496580D01*
X122650000Y-69509149D01*
X122522383Y-69496580D01*
X122431597Y-69469040D01*
X122399665Y-69459354D01*
X122286576Y-69398906D01*
X122187447Y-69317554D01*
X122106096Y-69218427D01*
X122106095Y-69218425D01*
X122045647Y-69105336D01*
X122045645Y-69105333D01*
X122033237Y-69064427D01*
X122008420Y-68982618D01*
X121999000Y-68886973D01*
X121999000Y-68273028D01*
X122008420Y-68177383D01*
X122045645Y-68054669D01*
X122045646Y-68054665D01*
X122106094Y-67941576D01*
X122187447Y-67842446D01*
X122286575Y-67761094D01*
X122399664Y-67700646D01*
X122441600Y-67687925D01*
X122522382Y-67663420D01*
X122650000Y-67650851D01*
X122777617Y-67663420D01*
G37*
G36*
X124777617Y-67663420D02*
G01*
X124858399Y-67687925D01*
X124900335Y-67700646D01*
X125013424Y-67761094D01*
X125112554Y-67842447D01*
X125193906Y-67941575D01*
X125254354Y-68054664D01*
X125264040Y-68086596D01*
X125291580Y-68177382D01*
X125301000Y-68273027D01*
X125301000Y-68886973D01*
X125291580Y-68982618D01*
X125264040Y-69073404D01*
X125254354Y-69105336D01*
X125193906Y-69218425D01*
X125112554Y-69317554D01*
X125013425Y-69398906D01*
X124900336Y-69459354D01*
X124868404Y-69469040D01*
X124777618Y-69496580D01*
X124650000Y-69509149D01*
X124522383Y-69496580D01*
X124431597Y-69469040D01*
X124399665Y-69459354D01*
X124286576Y-69398906D01*
X124187447Y-69317554D01*
X124106096Y-69218427D01*
X124106095Y-69218425D01*
X124045647Y-69105336D01*
X124045645Y-69105333D01*
X124033237Y-69064427D01*
X124008420Y-68982618D01*
X123999000Y-68886973D01*
X123999000Y-68273028D01*
X124008420Y-68177383D01*
X124045645Y-68054669D01*
X124045646Y-68054665D01*
X124106094Y-67941576D01*
X124187447Y-67842446D01*
X124286575Y-67761094D01*
X124399664Y-67700646D01*
X124441600Y-67687925D01*
X124522382Y-67663420D01*
X124650000Y-67650851D01*
X124777617Y-67663420D01*
G37*
G36*
X126777617Y-67663420D02*
G01*
X126858399Y-67687925D01*
X126900335Y-67700646D01*
X127013424Y-67761094D01*
X127112554Y-67842447D01*
X127193906Y-67941575D01*
X127254354Y-68054664D01*
X127264040Y-68086596D01*
X127291580Y-68177382D01*
X127301000Y-68273027D01*
X127301000Y-68886973D01*
X127291580Y-68982618D01*
X127264040Y-69073404D01*
X127254354Y-69105336D01*
X127193906Y-69218425D01*
X127112554Y-69317554D01*
X127013425Y-69398906D01*
X126900336Y-69459354D01*
X126868404Y-69469040D01*
X126777618Y-69496580D01*
X126650000Y-69509149D01*
X126522383Y-69496580D01*
X126431597Y-69469040D01*
X126399665Y-69459354D01*
X126286576Y-69398906D01*
X126187447Y-69317554D01*
X126106096Y-69218427D01*
X126106095Y-69218425D01*
X126045647Y-69105336D01*
X126045645Y-69105333D01*
X126033237Y-69064427D01*
X126008420Y-68982618D01*
X125999000Y-68886973D01*
X125999000Y-68273028D01*
X126008420Y-68177383D01*
X126045645Y-68054669D01*
X126045646Y-68054665D01*
X126106094Y-67941576D01*
X126187447Y-67842446D01*
X126286575Y-67761094D01*
X126399664Y-67700646D01*
X126441600Y-67687925D01*
X126522382Y-67663420D01*
X126650000Y-67650851D01*
X126777617Y-67663420D01*
G37*
G36*
X140747617Y-67663420D02*
G01*
X140828399Y-67687925D01*
X140870335Y-67700646D01*
X140983424Y-67761094D01*
X141082554Y-67842447D01*
X141163906Y-67941575D01*
X141224354Y-68054664D01*
X141234040Y-68086596D01*
X141261580Y-68177382D01*
X141271000Y-68273027D01*
X141271000Y-68886973D01*
X141261580Y-68982618D01*
X141234040Y-69073404D01*
X141224354Y-69105336D01*
X141163906Y-69218425D01*
X141082554Y-69317554D01*
X140983425Y-69398906D01*
X140870336Y-69459354D01*
X140838404Y-69469040D01*
X140747618Y-69496580D01*
X140620000Y-69509149D01*
X140492383Y-69496580D01*
X140401597Y-69469040D01*
X140369665Y-69459354D01*
X140256576Y-69398906D01*
X140157447Y-69317554D01*
X140076096Y-69218427D01*
X140076095Y-69218425D01*
X140015647Y-69105336D01*
X140015645Y-69105333D01*
X140003237Y-69064427D01*
X139978420Y-68982618D01*
X139969000Y-68886973D01*
X139969000Y-68273028D01*
X139978420Y-68177383D01*
X140015645Y-68054669D01*
X140015646Y-68054665D01*
X140076094Y-67941576D01*
X140157447Y-67842446D01*
X140256575Y-67761094D01*
X140369664Y-67700646D01*
X140411600Y-67687925D01*
X140492382Y-67663420D01*
X140620000Y-67650851D01*
X140747617Y-67663420D01*
G37*
G36*
X150717617Y-67663420D02*
G01*
X150798399Y-67687925D01*
X150840335Y-67700646D01*
X150953424Y-67761094D01*
X151052554Y-67842447D01*
X151133906Y-67941575D01*
X151194354Y-68054664D01*
X151204040Y-68086596D01*
X151231580Y-68177382D01*
X151241000Y-68273027D01*
X151241000Y-68886973D01*
X151231580Y-68982618D01*
X151204040Y-69073404D01*
X151194354Y-69105336D01*
X151133906Y-69218425D01*
X151052554Y-69317554D01*
X150953425Y-69398906D01*
X150840336Y-69459354D01*
X150808404Y-69469040D01*
X150717618Y-69496580D01*
X150590000Y-69509149D01*
X150462383Y-69496580D01*
X150371597Y-69469040D01*
X150339665Y-69459354D01*
X150226576Y-69398906D01*
X150127447Y-69317554D01*
X150046096Y-69218427D01*
X150046095Y-69218425D01*
X149985647Y-69105336D01*
X149985645Y-69105333D01*
X149973237Y-69064427D01*
X149948420Y-68982618D01*
X149939000Y-68886973D01*
X149939000Y-68273028D01*
X149948420Y-68177383D01*
X149985645Y-68054669D01*
X149985646Y-68054665D01*
X150046094Y-67941576D01*
X150127447Y-67842446D01*
X150226575Y-67761094D01*
X150339664Y-67700646D01*
X150381600Y-67687925D01*
X150462382Y-67663420D01*
X150590000Y-67650851D01*
X150717617Y-67663420D01*
G37*
G36*
X152717617Y-67663420D02*
G01*
X152798399Y-67687925D01*
X152840335Y-67700646D01*
X152953424Y-67761094D01*
X153052554Y-67842447D01*
X153133906Y-67941575D01*
X153194354Y-68054664D01*
X153204040Y-68086596D01*
X153231580Y-68177382D01*
X153241000Y-68273027D01*
X153241000Y-68886973D01*
X153231580Y-68982618D01*
X153204040Y-69073404D01*
X153194354Y-69105336D01*
X153133906Y-69218425D01*
X153052554Y-69317554D01*
X152953425Y-69398906D01*
X152840336Y-69459354D01*
X152808404Y-69469040D01*
X152717618Y-69496580D01*
X152590000Y-69509149D01*
X152462383Y-69496580D01*
X152371597Y-69469040D01*
X152339665Y-69459354D01*
X152226576Y-69398906D01*
X152127447Y-69317554D01*
X152046096Y-69218427D01*
X152046095Y-69218425D01*
X151985647Y-69105336D01*
X151985645Y-69105333D01*
X151973237Y-69064427D01*
X151948420Y-68982618D01*
X151939000Y-68886973D01*
X151939000Y-68273028D01*
X151948420Y-68177383D01*
X151985645Y-68054669D01*
X151985646Y-68054665D01*
X152046094Y-67941576D01*
X152127447Y-67842446D01*
X152226575Y-67761094D01*
X152339664Y-67700646D01*
X152381600Y-67687925D01*
X152462382Y-67663420D01*
X152590000Y-67650851D01*
X152717617Y-67663420D01*
G37*
G36*
X136747617Y-67663420D02*
G01*
X136828399Y-67687925D01*
X136870335Y-67700646D01*
X136983424Y-67761094D01*
X137082554Y-67842447D01*
X137163906Y-67941575D01*
X137224354Y-68054664D01*
X137234040Y-68086596D01*
X137261580Y-68177382D01*
X137271000Y-68273027D01*
X137271000Y-68886973D01*
X137261580Y-68982618D01*
X137234040Y-69073404D01*
X137224354Y-69105336D01*
X137163906Y-69218425D01*
X137082554Y-69317554D01*
X136983425Y-69398906D01*
X136870336Y-69459354D01*
X136838404Y-69469040D01*
X136747618Y-69496580D01*
X136620000Y-69509149D01*
X136492383Y-69496580D01*
X136401597Y-69469040D01*
X136369665Y-69459354D01*
X136256576Y-69398906D01*
X136157447Y-69317554D01*
X136076096Y-69218427D01*
X136076095Y-69218425D01*
X136015647Y-69105336D01*
X136015645Y-69105333D01*
X136003237Y-69064427D01*
X135978420Y-68982618D01*
X135969000Y-68886973D01*
X135969000Y-68273028D01*
X135978420Y-68177383D01*
X136015645Y-68054669D01*
X136015646Y-68054665D01*
X136076094Y-67941576D01*
X136157447Y-67842446D01*
X136256575Y-67761094D01*
X136369664Y-67700646D01*
X136411600Y-67687925D01*
X136492382Y-67663420D01*
X136620000Y-67650851D01*
X136747617Y-67663420D01*
G37*
G36*
X154717617Y-67663420D02*
G01*
X154798399Y-67687925D01*
X154840335Y-67700646D01*
X154953424Y-67761094D01*
X155052554Y-67842447D01*
X155133906Y-67941575D01*
X155194354Y-68054664D01*
X155204040Y-68086596D01*
X155231580Y-68177382D01*
X155241000Y-68273027D01*
X155241000Y-68886973D01*
X155231580Y-68982618D01*
X155204040Y-69073404D01*
X155194354Y-69105336D01*
X155133906Y-69218425D01*
X155052554Y-69317554D01*
X154953425Y-69398906D01*
X154840336Y-69459354D01*
X154808404Y-69469040D01*
X154717618Y-69496580D01*
X154590000Y-69509149D01*
X154462383Y-69496580D01*
X154371597Y-69469040D01*
X154339665Y-69459354D01*
X154226576Y-69398906D01*
X154127447Y-69317554D01*
X154046096Y-69218427D01*
X154046095Y-69218425D01*
X153985647Y-69105336D01*
X153985645Y-69105333D01*
X153973237Y-69064427D01*
X153948420Y-68982618D01*
X153939000Y-68886973D01*
X153939000Y-68273028D01*
X153948420Y-68177383D01*
X153985645Y-68054669D01*
X153985646Y-68054665D01*
X154046094Y-67941576D01*
X154127447Y-67842446D01*
X154226575Y-67761094D01*
X154339664Y-67700646D01*
X154381600Y-67687925D01*
X154462382Y-67663420D01*
X154590000Y-67650851D01*
X154717617Y-67663420D01*
G37*
G36*
X138747617Y-67663420D02*
G01*
X138828399Y-67687925D01*
X138870335Y-67700646D01*
X138983424Y-67761094D01*
X139082554Y-67842447D01*
X139163906Y-67941575D01*
X139224354Y-68054664D01*
X139234040Y-68086596D01*
X139261580Y-68177382D01*
X139271000Y-68273027D01*
X139271000Y-68886973D01*
X139261580Y-68982618D01*
X139234040Y-69073404D01*
X139224354Y-69105336D01*
X139163906Y-69218425D01*
X139082554Y-69317554D01*
X138983425Y-69398906D01*
X138870336Y-69459354D01*
X138838404Y-69469040D01*
X138747618Y-69496580D01*
X138620000Y-69509149D01*
X138492383Y-69496580D01*
X138401597Y-69469040D01*
X138369665Y-69459354D01*
X138256576Y-69398906D01*
X138157447Y-69317554D01*
X138076096Y-69218427D01*
X138076095Y-69218425D01*
X138015647Y-69105336D01*
X138015645Y-69105333D01*
X138003237Y-69064427D01*
X137978420Y-68982618D01*
X137969000Y-68886973D01*
X137969000Y-68273028D01*
X137978420Y-68177383D01*
X138015645Y-68054669D01*
X138015646Y-68054665D01*
X138076094Y-67941576D01*
X138157447Y-67842446D01*
X138256575Y-67761094D01*
X138369664Y-67700646D01*
X138411600Y-67687925D01*
X138492382Y-67663420D01*
X138620000Y-67650851D01*
X138747617Y-67663420D01*
G37*
G36*
X121141242Y-67658404D02*
G01*
X121178337Y-67669657D01*
X121212515Y-67687925D01*
X121242481Y-67712519D01*
X121267075Y-67742485D01*
X121285343Y-67776663D01*
X121296596Y-67813758D01*
X121301000Y-67858474D01*
X121301000Y-69301526D01*
X121296596Y-69346242D01*
X121285343Y-69383337D01*
X121267075Y-69417515D01*
X121242481Y-69447481D01*
X121212515Y-69472075D01*
X121178337Y-69490343D01*
X121141242Y-69501596D01*
X121096526Y-69506000D01*
X120203474Y-69506000D01*
X120158758Y-69501596D01*
X120121663Y-69490343D01*
X120087485Y-69472075D01*
X120057519Y-69447481D01*
X120032925Y-69417515D01*
X120014657Y-69383337D01*
X120003404Y-69346242D01*
X119999000Y-69301526D01*
X119999000Y-67858474D01*
X120003404Y-67813758D01*
X120014657Y-67776663D01*
X120032925Y-67742485D01*
X120057519Y-67712519D01*
X120087485Y-67687925D01*
X120121663Y-67669657D01*
X120158758Y-67658404D01*
X120203474Y-67654000D01*
X121096526Y-67654000D01*
X121141242Y-67658404D01*
G37*
G36*
X135111242Y-67658404D02*
G01*
X135148337Y-67669657D01*
X135182515Y-67687925D01*
X135212481Y-67712519D01*
X135237075Y-67742485D01*
X135255343Y-67776663D01*
X135266596Y-67813758D01*
X135271000Y-67858474D01*
X135271000Y-69301526D01*
X135266596Y-69346242D01*
X135255343Y-69383337D01*
X135237075Y-69417515D01*
X135212481Y-69447481D01*
X135182515Y-69472075D01*
X135148337Y-69490343D01*
X135111242Y-69501596D01*
X135066526Y-69506000D01*
X134173474Y-69506000D01*
X134128758Y-69501596D01*
X134091663Y-69490343D01*
X134057485Y-69472075D01*
X134027519Y-69447481D01*
X134002925Y-69417515D01*
X133984657Y-69383337D01*
X133973404Y-69346242D01*
X133969000Y-69301526D01*
X133969000Y-67858474D01*
X133973404Y-67813758D01*
X133984657Y-67776663D01*
X134002925Y-67742485D01*
X134027519Y-67712519D01*
X134057485Y-67687925D01*
X134091663Y-67669657D01*
X134128758Y-67658404D01*
X134173474Y-67654000D01*
X135066526Y-67654000D01*
X135111242Y-67658404D01*
G37*
G36*
X149081242Y-67658404D02*
G01*
X149118337Y-67669657D01*
X149152515Y-67687925D01*
X149182481Y-67712519D01*
X149207075Y-67742485D01*
X149225343Y-67776663D01*
X149236596Y-67813758D01*
X149241000Y-67858474D01*
X149241000Y-69301526D01*
X149236596Y-69346242D01*
X149225343Y-69383337D01*
X149207075Y-69417515D01*
X149182481Y-69447481D01*
X149152515Y-69472075D01*
X149118337Y-69490343D01*
X149081242Y-69501596D01*
X149036526Y-69506000D01*
X148143474Y-69506000D01*
X148098758Y-69501596D01*
X148061663Y-69490343D01*
X148027485Y-69472075D01*
X147997519Y-69447481D01*
X147972925Y-69417515D01*
X147954657Y-69383337D01*
X147943404Y-69346242D01*
X147939000Y-69301526D01*
X147939000Y-67858474D01*
X147943404Y-67813758D01*
X147954657Y-67776663D01*
X147972925Y-67742485D01*
X147997519Y-67712519D01*
X148027485Y-67687925D01*
X148061663Y-67669657D01*
X148098758Y-67658404D01*
X148143474Y-67654000D01*
X149036526Y-67654000D01*
X149081242Y-67658404D01*
G37*
G36*
X163051242Y-67658404D02*
G01*
X163088337Y-67669657D01*
X163122515Y-67687925D01*
X163152481Y-67712519D01*
X163177075Y-67742485D01*
X163195343Y-67776663D01*
X163206596Y-67813758D01*
X163211000Y-67858474D01*
X163211000Y-69301526D01*
X163206596Y-69346242D01*
X163195343Y-69383337D01*
X163177075Y-69417515D01*
X163152481Y-69447481D01*
X163122515Y-69472075D01*
X163088337Y-69490343D01*
X163051242Y-69501596D01*
X163006526Y-69506000D01*
X162113474Y-69506000D01*
X162068758Y-69501596D01*
X162031663Y-69490343D01*
X161997485Y-69472075D01*
X161967519Y-69447481D01*
X161942925Y-69417515D01*
X161924657Y-69383337D01*
X161913404Y-69346242D01*
X161909000Y-69301526D01*
X161909000Y-67858474D01*
X161913404Y-67813758D01*
X161924657Y-67776663D01*
X161942925Y-67742485D01*
X161967519Y-67712519D01*
X161997485Y-67687925D01*
X162031663Y-67669657D01*
X162068758Y-67658404D01*
X162113474Y-67654000D01*
X163006526Y-67654000D01*
X163051242Y-67658404D01*
G37*
G36*
X154717617Y-57503420D02*
G01*
X154798399Y-57527925D01*
X154840335Y-57540646D01*
X154953424Y-57601094D01*
X155052554Y-57682447D01*
X155133906Y-57781575D01*
X155194354Y-57894664D01*
X155204040Y-57926596D01*
X155231580Y-58017382D01*
X155241000Y-58113027D01*
X155241000Y-58726973D01*
X155231580Y-58822618D01*
X155204040Y-58913404D01*
X155194354Y-58945336D01*
X155133906Y-59058425D01*
X155052554Y-59157554D01*
X154953425Y-59238906D01*
X154840336Y-59299354D01*
X154808404Y-59309040D01*
X154717618Y-59336580D01*
X154590000Y-59349149D01*
X154462383Y-59336580D01*
X154371597Y-59309040D01*
X154339665Y-59299354D01*
X154226576Y-59238906D01*
X154127447Y-59157554D01*
X154046096Y-59058427D01*
X154046095Y-59058425D01*
X153985647Y-58945336D01*
X153985645Y-58945333D01*
X153973237Y-58904427D01*
X153948420Y-58822618D01*
X153939000Y-58726973D01*
X153939000Y-58113028D01*
X153948420Y-58017383D01*
X153985645Y-57894669D01*
X153985646Y-57894665D01*
X154046094Y-57781576D01*
X154127447Y-57682446D01*
X154226575Y-57601094D01*
X154339664Y-57540646D01*
X154381600Y-57527925D01*
X154462382Y-57503420D01*
X154590000Y-57490851D01*
X154717617Y-57503420D01*
G37*
G36*
X122777617Y-57503420D02*
G01*
X122858399Y-57527925D01*
X122900335Y-57540646D01*
X123013424Y-57601094D01*
X123112554Y-57682447D01*
X123193906Y-57781575D01*
X123254354Y-57894664D01*
X123264040Y-57926596D01*
X123291580Y-58017382D01*
X123301000Y-58113027D01*
X123301000Y-58726973D01*
X123291580Y-58822618D01*
X123264040Y-58913404D01*
X123254354Y-58945336D01*
X123193906Y-59058425D01*
X123112554Y-59157554D01*
X123013425Y-59238906D01*
X122900336Y-59299354D01*
X122868404Y-59309040D01*
X122777618Y-59336580D01*
X122650000Y-59349149D01*
X122522383Y-59336580D01*
X122431597Y-59309040D01*
X122399665Y-59299354D01*
X122286576Y-59238906D01*
X122187447Y-59157554D01*
X122106096Y-59058427D01*
X122106095Y-59058425D01*
X122045647Y-58945336D01*
X122045645Y-58945333D01*
X122033237Y-58904427D01*
X122008420Y-58822618D01*
X121999000Y-58726973D01*
X121999000Y-58113028D01*
X122008420Y-58017383D01*
X122045645Y-57894669D01*
X122045646Y-57894665D01*
X122106094Y-57781576D01*
X122187447Y-57682446D01*
X122286575Y-57601094D01*
X122399664Y-57540646D01*
X122441600Y-57527925D01*
X122522382Y-57503420D01*
X122650000Y-57490851D01*
X122777617Y-57503420D01*
G37*
G36*
X124777617Y-57503420D02*
G01*
X124858399Y-57527925D01*
X124900335Y-57540646D01*
X125013424Y-57601094D01*
X125112554Y-57682447D01*
X125193906Y-57781575D01*
X125254354Y-57894664D01*
X125264040Y-57926596D01*
X125291580Y-58017382D01*
X125301000Y-58113027D01*
X125301000Y-58726973D01*
X125291580Y-58822618D01*
X125264040Y-58913404D01*
X125254354Y-58945336D01*
X125193906Y-59058425D01*
X125112554Y-59157554D01*
X125013425Y-59238906D01*
X124900336Y-59299354D01*
X124868404Y-59309040D01*
X124777618Y-59336580D01*
X124650000Y-59349149D01*
X124522383Y-59336580D01*
X124431597Y-59309040D01*
X124399665Y-59299354D01*
X124286576Y-59238906D01*
X124187447Y-59157554D01*
X124106096Y-59058427D01*
X124106095Y-59058425D01*
X124045647Y-58945336D01*
X124045645Y-58945333D01*
X124033237Y-58904427D01*
X124008420Y-58822618D01*
X123999000Y-58726973D01*
X123999000Y-58113028D01*
X124008420Y-58017383D01*
X124045645Y-57894669D01*
X124045646Y-57894665D01*
X124106094Y-57781576D01*
X124187447Y-57682446D01*
X124286575Y-57601094D01*
X124399664Y-57540646D01*
X124441600Y-57527925D01*
X124522382Y-57503420D01*
X124650000Y-57490851D01*
X124777617Y-57503420D01*
G37*
G36*
X126777617Y-57503420D02*
G01*
X126858399Y-57527925D01*
X126900335Y-57540646D01*
X127013424Y-57601094D01*
X127112554Y-57682447D01*
X127193906Y-57781575D01*
X127254354Y-57894664D01*
X127264040Y-57926596D01*
X127291580Y-58017382D01*
X127301000Y-58113027D01*
X127301000Y-58726973D01*
X127291580Y-58822618D01*
X127264040Y-58913404D01*
X127254354Y-58945336D01*
X127193906Y-59058425D01*
X127112554Y-59157554D01*
X127013425Y-59238906D01*
X126900336Y-59299354D01*
X126868404Y-59309040D01*
X126777618Y-59336580D01*
X126650000Y-59349149D01*
X126522383Y-59336580D01*
X126431597Y-59309040D01*
X126399665Y-59299354D01*
X126286576Y-59238906D01*
X126187447Y-59157554D01*
X126106096Y-59058427D01*
X126106095Y-59058425D01*
X126045647Y-58945336D01*
X126045645Y-58945333D01*
X126033237Y-58904427D01*
X126008420Y-58822618D01*
X125999000Y-58726973D01*
X125999000Y-58113028D01*
X126008420Y-58017383D01*
X126045645Y-57894669D01*
X126045646Y-57894665D01*
X126106094Y-57781576D01*
X126187447Y-57682446D01*
X126286575Y-57601094D01*
X126399664Y-57540646D01*
X126441600Y-57527925D01*
X126522382Y-57503420D01*
X126650000Y-57490851D01*
X126777617Y-57503420D01*
G37*
G36*
X136747617Y-57503420D02*
G01*
X136828399Y-57527925D01*
X136870335Y-57540646D01*
X136983424Y-57601094D01*
X137082554Y-57682447D01*
X137163906Y-57781575D01*
X137224354Y-57894664D01*
X137234040Y-57926596D01*
X137261580Y-58017382D01*
X137271000Y-58113027D01*
X137271000Y-58726973D01*
X137261580Y-58822618D01*
X137234040Y-58913404D01*
X137224354Y-58945336D01*
X137163906Y-59058425D01*
X137082554Y-59157554D01*
X136983425Y-59238906D01*
X136870336Y-59299354D01*
X136838404Y-59309040D01*
X136747618Y-59336580D01*
X136620000Y-59349149D01*
X136492383Y-59336580D01*
X136401597Y-59309040D01*
X136369665Y-59299354D01*
X136256576Y-59238906D01*
X136157447Y-59157554D01*
X136076096Y-59058427D01*
X136076095Y-59058425D01*
X136015647Y-58945336D01*
X136015645Y-58945333D01*
X136003237Y-58904427D01*
X135978420Y-58822618D01*
X135969000Y-58726973D01*
X135969000Y-58113028D01*
X135978420Y-58017383D01*
X136015645Y-57894669D01*
X136015646Y-57894665D01*
X136076094Y-57781576D01*
X136157447Y-57682446D01*
X136256575Y-57601094D01*
X136369664Y-57540646D01*
X136411600Y-57527925D01*
X136492382Y-57503420D01*
X136620000Y-57490851D01*
X136747617Y-57503420D01*
G37*
G36*
X138747617Y-57503420D02*
G01*
X138828399Y-57527925D01*
X138870335Y-57540646D01*
X138983424Y-57601094D01*
X139082554Y-57682447D01*
X139163906Y-57781575D01*
X139224354Y-57894664D01*
X139234040Y-57926596D01*
X139261580Y-58017382D01*
X139271000Y-58113027D01*
X139271000Y-58726973D01*
X139261580Y-58822618D01*
X139234040Y-58913404D01*
X139224354Y-58945336D01*
X139163906Y-59058425D01*
X139082554Y-59157554D01*
X138983425Y-59238906D01*
X138870336Y-59299354D01*
X138838404Y-59309040D01*
X138747618Y-59336580D01*
X138620000Y-59349149D01*
X138492383Y-59336580D01*
X138401597Y-59309040D01*
X138369665Y-59299354D01*
X138256576Y-59238906D01*
X138157447Y-59157554D01*
X138076096Y-59058427D01*
X138076095Y-59058425D01*
X138015647Y-58945336D01*
X138015645Y-58945333D01*
X138003237Y-58904427D01*
X137978420Y-58822618D01*
X137969000Y-58726973D01*
X137969000Y-58113028D01*
X137978420Y-58017383D01*
X138015645Y-57894669D01*
X138015646Y-57894665D01*
X138076094Y-57781576D01*
X138157447Y-57682446D01*
X138256575Y-57601094D01*
X138369664Y-57540646D01*
X138411600Y-57527925D01*
X138492382Y-57503420D01*
X138620000Y-57490851D01*
X138747617Y-57503420D01*
G37*
G36*
X140747617Y-57503420D02*
G01*
X140828399Y-57527925D01*
X140870335Y-57540646D01*
X140983424Y-57601094D01*
X141082554Y-57682447D01*
X141163906Y-57781575D01*
X141224354Y-57894664D01*
X141234040Y-57926596D01*
X141261580Y-58017382D01*
X141271000Y-58113027D01*
X141271000Y-58726973D01*
X141261580Y-58822618D01*
X141234040Y-58913404D01*
X141224354Y-58945336D01*
X141163906Y-59058425D01*
X141082554Y-59157554D01*
X140983425Y-59238906D01*
X140870336Y-59299354D01*
X140838404Y-59309040D01*
X140747618Y-59336580D01*
X140620000Y-59349149D01*
X140492383Y-59336580D01*
X140401597Y-59309040D01*
X140369665Y-59299354D01*
X140256576Y-59238906D01*
X140157447Y-59157554D01*
X140076096Y-59058427D01*
X140076095Y-59058425D01*
X140015647Y-58945336D01*
X140015645Y-58945333D01*
X140003237Y-58904427D01*
X139978420Y-58822618D01*
X139969000Y-58726973D01*
X139969000Y-58113028D01*
X139978420Y-58017383D01*
X140015645Y-57894669D01*
X140015646Y-57894665D01*
X140076094Y-57781576D01*
X140157447Y-57682446D01*
X140256575Y-57601094D01*
X140369664Y-57540646D01*
X140411600Y-57527925D01*
X140492382Y-57503420D01*
X140620000Y-57490851D01*
X140747617Y-57503420D01*
G37*
G36*
X150717617Y-57503420D02*
G01*
X150798399Y-57527925D01*
X150840335Y-57540646D01*
X150953424Y-57601094D01*
X151052554Y-57682447D01*
X151133906Y-57781575D01*
X151194354Y-57894664D01*
X151204040Y-57926596D01*
X151231580Y-58017382D01*
X151241000Y-58113027D01*
X151241000Y-58726973D01*
X151231580Y-58822618D01*
X151204040Y-58913404D01*
X151194354Y-58945336D01*
X151133906Y-59058425D01*
X151052554Y-59157554D01*
X150953425Y-59238906D01*
X150840336Y-59299354D01*
X150808404Y-59309040D01*
X150717618Y-59336580D01*
X150590000Y-59349149D01*
X150462383Y-59336580D01*
X150371597Y-59309040D01*
X150339665Y-59299354D01*
X150226576Y-59238906D01*
X150127447Y-59157554D01*
X150046096Y-59058427D01*
X150046095Y-59058425D01*
X149985647Y-58945336D01*
X149985645Y-58945333D01*
X149973237Y-58904427D01*
X149948420Y-58822618D01*
X149939000Y-58726973D01*
X149939000Y-58113028D01*
X149948420Y-58017383D01*
X149985645Y-57894669D01*
X149985646Y-57894665D01*
X150046094Y-57781576D01*
X150127447Y-57682446D01*
X150226575Y-57601094D01*
X150339664Y-57540646D01*
X150381600Y-57527925D01*
X150462382Y-57503420D01*
X150590000Y-57490851D01*
X150717617Y-57503420D01*
G37*
G36*
X152717617Y-57503420D02*
G01*
X152798399Y-57527925D01*
X152840335Y-57540646D01*
X152953424Y-57601094D01*
X153052554Y-57682447D01*
X153133906Y-57781575D01*
X153194354Y-57894664D01*
X153204040Y-57926596D01*
X153231580Y-58017382D01*
X153241000Y-58113027D01*
X153241000Y-58726973D01*
X153231580Y-58822618D01*
X153204040Y-58913404D01*
X153194354Y-58945336D01*
X153133906Y-59058425D01*
X153052554Y-59157554D01*
X152953425Y-59238906D01*
X152840336Y-59299354D01*
X152808404Y-59309040D01*
X152717618Y-59336580D01*
X152590000Y-59349149D01*
X152462383Y-59336580D01*
X152371597Y-59309040D01*
X152339665Y-59299354D01*
X152226576Y-59238906D01*
X152127447Y-59157554D01*
X152046096Y-59058427D01*
X152046095Y-59058425D01*
X151985647Y-58945336D01*
X151985645Y-58945333D01*
X151973237Y-58904427D01*
X151948420Y-58822618D01*
X151939000Y-58726973D01*
X151939000Y-58113028D01*
X151948420Y-58017383D01*
X151985645Y-57894669D01*
X151985646Y-57894665D01*
X152046094Y-57781576D01*
X152127447Y-57682446D01*
X152226575Y-57601094D01*
X152339664Y-57540646D01*
X152381600Y-57527925D01*
X152462382Y-57503420D01*
X152590000Y-57490851D01*
X152717617Y-57503420D01*
G37*
G36*
X168687617Y-57503420D02*
G01*
X168768399Y-57527925D01*
X168810335Y-57540646D01*
X168923424Y-57601094D01*
X169022554Y-57682447D01*
X169103906Y-57781575D01*
X169164354Y-57894664D01*
X169174040Y-57926596D01*
X169201580Y-58017382D01*
X169211000Y-58113027D01*
X169211000Y-58726973D01*
X169201580Y-58822618D01*
X169174040Y-58913404D01*
X169164354Y-58945336D01*
X169103906Y-59058425D01*
X169022554Y-59157554D01*
X168923425Y-59238906D01*
X168810336Y-59299354D01*
X168778404Y-59309040D01*
X168687618Y-59336580D01*
X168560000Y-59349149D01*
X168432383Y-59336580D01*
X168341597Y-59309040D01*
X168309665Y-59299354D01*
X168196576Y-59238906D01*
X168097447Y-59157554D01*
X168016096Y-59058427D01*
X168016095Y-59058425D01*
X167955647Y-58945336D01*
X167955645Y-58945333D01*
X167943237Y-58904427D01*
X167918420Y-58822618D01*
X167909000Y-58726973D01*
X167909000Y-58113028D01*
X167918420Y-58017383D01*
X167955645Y-57894669D01*
X167955646Y-57894665D01*
X168016094Y-57781576D01*
X168097447Y-57682446D01*
X168196575Y-57601094D01*
X168309664Y-57540646D01*
X168351600Y-57527925D01*
X168432382Y-57503420D01*
X168560000Y-57490851D01*
X168687617Y-57503420D01*
G37*
G36*
X166687617Y-57503420D02*
G01*
X166768399Y-57527925D01*
X166810335Y-57540646D01*
X166923424Y-57601094D01*
X167022554Y-57682447D01*
X167103906Y-57781575D01*
X167164354Y-57894664D01*
X167174040Y-57926596D01*
X167201580Y-58017382D01*
X167211000Y-58113027D01*
X167211000Y-58726973D01*
X167201580Y-58822618D01*
X167174040Y-58913404D01*
X167164354Y-58945336D01*
X167103906Y-59058425D01*
X167022554Y-59157554D01*
X166923425Y-59238906D01*
X166810336Y-59299354D01*
X166778404Y-59309040D01*
X166687618Y-59336580D01*
X166560000Y-59349149D01*
X166432383Y-59336580D01*
X166341597Y-59309040D01*
X166309665Y-59299354D01*
X166196576Y-59238906D01*
X166097447Y-59157554D01*
X166016096Y-59058427D01*
X166016095Y-59058425D01*
X165955647Y-58945336D01*
X165955645Y-58945333D01*
X165943237Y-58904427D01*
X165918420Y-58822618D01*
X165909000Y-58726973D01*
X165909000Y-58113028D01*
X165918420Y-58017383D01*
X165955645Y-57894669D01*
X165955646Y-57894665D01*
X166016094Y-57781576D01*
X166097447Y-57682446D01*
X166196575Y-57601094D01*
X166309664Y-57540646D01*
X166351600Y-57527925D01*
X166432382Y-57503420D01*
X166560000Y-57490851D01*
X166687617Y-57503420D01*
G37*
G36*
X164687617Y-57503420D02*
G01*
X164768399Y-57527925D01*
X164810335Y-57540646D01*
X164923424Y-57601094D01*
X165022554Y-57682447D01*
X165103906Y-57781575D01*
X165164354Y-57894664D01*
X165174040Y-57926596D01*
X165201580Y-58017382D01*
X165211000Y-58113027D01*
X165211000Y-58726973D01*
X165201580Y-58822618D01*
X165174040Y-58913404D01*
X165164354Y-58945336D01*
X165103906Y-59058425D01*
X165022554Y-59157554D01*
X164923425Y-59238906D01*
X164810336Y-59299354D01*
X164778404Y-59309040D01*
X164687618Y-59336580D01*
X164560000Y-59349149D01*
X164432383Y-59336580D01*
X164341597Y-59309040D01*
X164309665Y-59299354D01*
X164196576Y-59238906D01*
X164097447Y-59157554D01*
X164016096Y-59058427D01*
X164016095Y-59058425D01*
X163955647Y-58945336D01*
X163955645Y-58945333D01*
X163943237Y-58904427D01*
X163918420Y-58822618D01*
X163909000Y-58726973D01*
X163909000Y-58113028D01*
X163918420Y-58017383D01*
X163955645Y-57894669D01*
X163955646Y-57894665D01*
X164016094Y-57781576D01*
X164097447Y-57682446D01*
X164196575Y-57601094D01*
X164309664Y-57540646D01*
X164351600Y-57527925D01*
X164432382Y-57503420D01*
X164560000Y-57490851D01*
X164687617Y-57503420D01*
G37*
G36*
X163051242Y-57498404D02*
G01*
X163088337Y-57509657D01*
X163122515Y-57527925D01*
X163152481Y-57552519D01*
X163177075Y-57582485D01*
X163195343Y-57616663D01*
X163206596Y-57653758D01*
X163211000Y-57698474D01*
X163211000Y-59141526D01*
X163206596Y-59186242D01*
X163195343Y-59223337D01*
X163177075Y-59257515D01*
X163152481Y-59287481D01*
X163122515Y-59312075D01*
X163088337Y-59330343D01*
X163051242Y-59341596D01*
X163006526Y-59346000D01*
X162113474Y-59346000D01*
X162068758Y-59341596D01*
X162031663Y-59330343D01*
X161997485Y-59312075D01*
X161967519Y-59287481D01*
X161942925Y-59257515D01*
X161924657Y-59223337D01*
X161913404Y-59186242D01*
X161909000Y-59141526D01*
X161909000Y-57698474D01*
X161913404Y-57653758D01*
X161924657Y-57616663D01*
X161942925Y-57582485D01*
X161967519Y-57552519D01*
X161997485Y-57527925D01*
X162031663Y-57509657D01*
X162068758Y-57498404D01*
X162113474Y-57494000D01*
X163006526Y-57494000D01*
X163051242Y-57498404D01*
G37*
G36*
X149081242Y-57498404D02*
G01*
X149118337Y-57509657D01*
X149152515Y-57527925D01*
X149182481Y-57552519D01*
X149207075Y-57582485D01*
X149225343Y-57616663D01*
X149236596Y-57653758D01*
X149241000Y-57698474D01*
X149241000Y-59141526D01*
X149236596Y-59186242D01*
X149225343Y-59223337D01*
X149207075Y-59257515D01*
X149182481Y-59287481D01*
X149152515Y-59312075D01*
X149118337Y-59330343D01*
X149081242Y-59341596D01*
X149036526Y-59346000D01*
X148143474Y-59346000D01*
X148098758Y-59341596D01*
X148061663Y-59330343D01*
X148027485Y-59312075D01*
X147997519Y-59287481D01*
X147972925Y-59257515D01*
X147954657Y-59223337D01*
X147943404Y-59186242D01*
X147939000Y-59141526D01*
X147939000Y-57698474D01*
X147943404Y-57653758D01*
X147954657Y-57616663D01*
X147972925Y-57582485D01*
X147997519Y-57552519D01*
X148027485Y-57527925D01*
X148061663Y-57509657D01*
X148098758Y-57498404D01*
X148143474Y-57494000D01*
X149036526Y-57494000D01*
X149081242Y-57498404D01*
G37*
G36*
X135111242Y-57498404D02*
G01*
X135148337Y-57509657D01*
X135182515Y-57527925D01*
X135212481Y-57552519D01*
X135237075Y-57582485D01*
X135255343Y-57616663D01*
X135266596Y-57653758D01*
X135271000Y-57698474D01*
X135271000Y-59141526D01*
X135266596Y-59186242D01*
X135255343Y-59223337D01*
X135237075Y-59257515D01*
X135212481Y-59287481D01*
X135182515Y-59312075D01*
X135148337Y-59330343D01*
X135111242Y-59341596D01*
X135066526Y-59346000D01*
X134173474Y-59346000D01*
X134128758Y-59341596D01*
X134091663Y-59330343D01*
X134057485Y-59312075D01*
X134027519Y-59287481D01*
X134002925Y-59257515D01*
X133984657Y-59223337D01*
X133973404Y-59186242D01*
X133969000Y-59141526D01*
X133969000Y-57698474D01*
X133973404Y-57653758D01*
X133984657Y-57616663D01*
X134002925Y-57582485D01*
X134027519Y-57552519D01*
X134057485Y-57527925D01*
X134091663Y-57509657D01*
X134128758Y-57498404D01*
X134173474Y-57494000D01*
X135066526Y-57494000D01*
X135111242Y-57498404D01*
G37*
G36*
X121141242Y-57498404D02*
G01*
X121178337Y-57509657D01*
X121212515Y-57527925D01*
X121242481Y-57552519D01*
X121267075Y-57582485D01*
X121285343Y-57616663D01*
X121296596Y-57653758D01*
X121301000Y-57698474D01*
X121301000Y-59141526D01*
X121296596Y-59186242D01*
X121285343Y-59223337D01*
X121267075Y-59257515D01*
X121242481Y-59287481D01*
X121212515Y-59312075D01*
X121178337Y-59330343D01*
X121141242Y-59341596D01*
X121096526Y-59346000D01*
X120203474Y-59346000D01*
X120158758Y-59341596D01*
X120121663Y-59330343D01*
X120087485Y-59312075D01*
X120057519Y-59287481D01*
X120032925Y-59257515D01*
X120014657Y-59223337D01*
X120003404Y-59186242D01*
X119999000Y-59141526D01*
X119999000Y-57698474D01*
X120003404Y-57653758D01*
X120014657Y-57616663D01*
X120032925Y-57582485D01*
X120057519Y-57552519D01*
X120087485Y-57527925D01*
X120121663Y-57509657D01*
X120158758Y-57498404D01*
X120203474Y-57494000D01*
X121096526Y-57494000D01*
X121141242Y-57498404D01*
G37*
M02*
