G04 #@! TF.GenerationSoftware,KiCad,Pcbnew,5.1.5-52549c5~84~ubuntu19.10.1*
G04 #@! TF.CreationDate,2019-11-23T11:14:34+01:00*
G04 #@! TF.ProjectId,mep_v2_modif_grove,6d65705f-7632-45f6-9d6f-6469665f6772,rev?*
G04 #@! TF.SameCoordinates,Original*
G04 #@! TF.FileFunction,Legend,Top*
G04 #@! TF.FilePolarity,Positive*
%FSLAX46Y46*%
G04 Gerber Fmt 4.6, Leading zero omitted, Abs format (unit mm)*
G04 Created by KiCad (PCBNEW 5.1.5-52549c5~84~ubuntu19.10.1) date 2019-11-23 11:14:34*
%MOMM*%
%LPD*%
G04 APERTURE LIST*
%ADD10C,0.100000*%
%ADD11C,0.200000*%
%ADD12C,0.300000*%
%ADD13C,0.120000*%
%ADD14C,0.150000*%
G04 APERTURE END LIST*
D10*
X160177714Y-85495843D02*
X160272953Y-85495843D01*
X160320572Y-85519653D01*
X160368191Y-85567272D01*
X160392000Y-85662510D01*
X160392000Y-85829176D01*
X160368191Y-85924414D01*
X160320572Y-85972033D01*
X160272953Y-85995843D01*
X160177714Y-85995843D01*
X160130095Y-85972033D01*
X160082476Y-85924414D01*
X160058667Y-85829176D01*
X160058667Y-85662510D01*
X160082476Y-85567272D01*
X160130095Y-85519653D01*
X160177714Y-85495843D01*
X160772953Y-85733938D02*
X160844381Y-85757748D01*
X160868191Y-85781557D01*
X160892000Y-85829176D01*
X160892000Y-85900605D01*
X160868191Y-85948224D01*
X160844381Y-85972033D01*
X160796762Y-85995843D01*
X160606286Y-85995843D01*
X160606286Y-85495843D01*
X160772953Y-85495843D01*
X160820572Y-85519653D01*
X160844381Y-85543462D01*
X160868191Y-85591081D01*
X160868191Y-85638700D01*
X160844381Y-85686319D01*
X160820572Y-85710129D01*
X160772953Y-85733938D01*
X160606286Y-85733938D01*
D11*
X148425385Y-84796540D02*
X148352196Y-84923763D01*
X148352196Y-84923763D02*
X148267570Y-85038170D01*
X153558216Y-86661430D02*
X153552916Y-86320240D01*
X154736898Y-85980410D02*
X154147557Y-86320920D01*
X159633485Y-82324640D02*
X159616867Y-82509247D01*
X159616867Y-82509247D02*
X159610740Y-82704353D01*
X159610740Y-82704353D02*
X159607031Y-82902049D01*
X159607031Y-82902049D02*
X159604554Y-83099772D01*
X159604554Y-83099772D02*
X159603405Y-83223650D01*
X159720885Y-82148520D02*
X159651364Y-82280847D01*
X159651364Y-82280847D02*
X159633485Y-82324640D01*
X160692696Y-81962680D02*
X160578088Y-81877167D01*
X160578088Y-81877167D02*
X160428126Y-81826984D01*
X160428126Y-81826984D02*
X160226953Y-81824427D01*
X160226953Y-81824427D02*
X160066954Y-81865716D01*
X160066954Y-81865716D02*
X159933428Y-81932805D01*
X159933428Y-81932805D02*
X159821026Y-82021937D01*
X159821026Y-82021937D02*
X159730926Y-82132339D01*
X159730926Y-82132339D02*
X159720885Y-82148520D01*
X160836081Y-83153550D02*
X160835992Y-82947567D01*
X160835992Y-82947567D02*
X160835419Y-82746074D01*
X160835419Y-82746074D02*
X160833384Y-82546201D01*
X160833384Y-82546201D02*
X160827243Y-82350516D01*
X160827243Y-82350516D02*
X160808071Y-82168059D01*
X160808071Y-82168059D02*
X160748473Y-82025457D01*
X160748473Y-82025457D02*
X160692696Y-81962680D01*
X144609544Y-80612790D02*
X145302020Y-80620790D01*
X144609544Y-82333240D02*
X144609544Y-80612790D01*
X146457157Y-82351330D02*
X146346822Y-82441359D01*
X146346822Y-82441359D02*
X146215534Y-82510323D01*
X146215534Y-82510323D02*
X146057619Y-82553455D01*
X146057619Y-82553455D02*
X145880296Y-82576517D01*
X145880296Y-82576517D02*
X145691832Y-82588275D01*
X145691832Y-82588275D02*
X145492183Y-82594462D01*
X145492183Y-82594462D02*
X145488645Y-82594540D01*
X155114973Y-85257470D02*
X155120173Y-85606170D01*
X154933670Y-86666500D02*
X154747498Y-86666500D01*
X159226279Y-86450700D02*
X159226279Y-86214820D01*
X165472031Y-82420160D02*
X165472108Y-82625083D01*
X165472108Y-82625083D02*
X165472659Y-82824658D01*
X165472659Y-82824658D02*
X165474644Y-83025091D01*
X165474644Y-83025091D02*
X165480635Y-83220749D01*
X165480635Y-83220749D02*
X165499318Y-83403769D01*
X165499318Y-83403769D02*
X165556348Y-83547089D01*
X165556348Y-83547089D02*
X165612441Y-83613090D01*
X160462635Y-85134690D02*
X161700251Y-85134690D01*
X154746349Y-84896780D02*
X154928063Y-84902780D01*
X141588595Y-83992720D02*
X141708076Y-84074327D01*
X141708076Y-84074327D02*
X141798216Y-84184709D01*
X141798216Y-84184709D02*
X141857618Y-84326381D01*
X141857618Y-84326381D02*
X141878931Y-84496680D01*
X140587291Y-83940820D02*
X140793042Y-83942202D01*
X140793042Y-83942202D02*
X140995656Y-83943779D01*
X140995656Y-83943779D02*
X141195548Y-83946140D01*
X141195548Y-83946140D02*
X141390076Y-83951617D01*
X141390076Y-83951617D02*
X141561909Y-83979987D01*
X141561909Y-83979987D02*
X141588595Y-83992720D01*
X150336154Y-85605460D02*
X153548064Y-85605460D01*
X142983581Y-84888551D02*
X145392783Y-84893550D01*
X155120533Y-85978940D02*
X155120533Y-86322720D01*
X138438583Y-81224550D02*
X138195539Y-80575870D01*
X138681637Y-81873220D02*
X138438583Y-81224550D01*
X157173406Y-85978940D02*
X155120533Y-85978940D01*
X148116174Y-82491970D02*
X148174646Y-82650486D01*
X148174646Y-82650486D02*
X148230552Y-82801959D01*
X148230552Y-82801959D02*
X148290768Y-82965015D01*
X148290768Y-82965015D02*
X148348620Y-83121550D01*
X148348620Y-83121550D02*
X148403965Y-83271140D01*
X148403965Y-83271140D02*
X148458101Y-83417160D01*
X148458101Y-83417160D02*
X148486784Y-83493850D01*
X151789679Y-81519700D02*
X152369197Y-81519700D01*
X151210159Y-81519700D02*
X151789679Y-81519700D01*
X151210159Y-81067870D02*
X151210159Y-81519700D01*
X144720970Y-85271670D02*
X142691851Y-85271670D01*
X165953331Y-83746770D02*
X166131612Y-83723938D01*
X166131612Y-83723938D02*
X166273463Y-83664172D01*
X166273463Y-83664172D02*
X166386360Y-83576689D01*
X166386360Y-83576689D02*
X166476158Y-83466194D01*
X166476158Y-83466194D02*
X166546011Y-83335724D01*
X166546011Y-83335724D02*
X166556520Y-83310580D01*
X140546205Y-79750510D02*
X140372356Y-79723118D01*
X140372356Y-79723118D02*
X140188541Y-79706354D01*
X140188541Y-79706354D02*
X139996131Y-79697109D01*
X139996131Y-79697109D02*
X139797303Y-79695606D01*
X139797303Y-79695606D02*
X139604740Y-79704035D01*
X139604740Y-79704035D02*
X139528565Y-79711710D01*
X142256600Y-80745880D02*
X142160481Y-80641321D01*
X142160481Y-80641321D02*
X142057240Y-80539508D01*
X142057240Y-80539508D02*
X141951016Y-80444337D01*
X141951016Y-80444337D02*
X141840479Y-80354202D01*
X141840479Y-80354202D02*
X141722777Y-80266964D01*
X141722777Y-80266964D02*
X141598338Y-80183443D01*
X141598338Y-80183443D02*
X141471963Y-80106872D01*
X141471963Y-80106872D02*
X141341970Y-80036024D01*
X141341970Y-80036024D02*
X141203300Y-79968625D01*
X141203300Y-79968625D02*
X141062825Y-79908392D01*
X141062825Y-79908392D02*
X140916780Y-79853887D01*
X140916780Y-79853887D02*
X140760642Y-79804356D01*
X140760642Y-79804356D02*
X140601231Y-79762786D01*
X140601231Y-79762786D02*
X140546205Y-79750510D01*
X141191366Y-85055280D02*
X140906517Y-85066380D01*
X140960027Y-85756360D02*
X141104210Y-85700237D01*
X141104210Y-85700237D02*
X141242675Y-85636295D01*
X141242675Y-85636295D02*
X141279717Y-85618280D01*
X139678723Y-83229440D02*
X139678723Y-83582130D01*
X140130552Y-83229440D02*
X139678723Y-83229440D01*
X151210159Y-80616040D02*
X151210159Y-81067870D01*
X151053002Y-80616040D02*
X151210159Y-80616040D01*
X151968865Y-83679190D02*
X152068122Y-83577390D01*
X152068122Y-83577390D02*
X152130504Y-83439060D01*
X152130504Y-83439060D02*
X152164687Y-83272486D01*
X152164687Y-83272486D02*
X152172802Y-83126970D01*
X165507521Y-83977950D02*
X165407131Y-83887650D01*
X165453031Y-84810560D02*
X165461806Y-85004571D01*
X165461806Y-85004571D02*
X165465975Y-85209930D01*
X165465975Y-85209930D02*
X165468642Y-85412510D01*
X165468642Y-85412510D02*
X165470376Y-85612139D01*
X165470376Y-85612139D02*
X165471397Y-85814428D01*
X165471397Y-85814428D02*
X165471731Y-85994150D01*
X158309331Y-82237010D02*
X158344229Y-82402406D01*
X158344229Y-82402406D02*
X158366904Y-82580631D01*
X158366904Y-82580631D02*
X158375635Y-82773708D01*
X158375635Y-82773708D02*
X158368326Y-82966845D01*
X158368326Y-82966845D02*
X158346316Y-83146413D01*
X158346316Y-83146413D02*
X158310981Y-83312433D01*
X158310981Y-83312433D02*
X158262684Y-83464859D01*
X158262684Y-83464859D02*
X158222681Y-83559400D01*
X158036721Y-81743520D02*
X158129616Y-81852142D01*
X158129616Y-81852142D02*
X158207984Y-81975777D01*
X158207984Y-81975777D02*
X158270887Y-82114360D01*
X158270887Y-82114360D02*
X158309331Y-82237010D01*
X157270555Y-81461620D02*
X157461798Y-81470979D01*
X157461798Y-81470979D02*
X157631695Y-81501659D01*
X157631695Y-81501659D02*
X157778656Y-81555198D01*
X157778656Y-81555198D02*
X157904707Y-81629738D01*
X157904707Y-81629738D02*
X158013672Y-81720828D01*
X158013672Y-81720828D02*
X158036721Y-81743520D01*
X160458987Y-86445700D02*
X159226279Y-86450700D01*
X154746349Y-85243400D02*
X154746349Y-84896780D01*
X157558554Y-81879080D02*
X157407284Y-81829661D01*
X157407284Y-81829661D02*
X157270555Y-81824480D01*
X157955048Y-82787060D02*
X157948260Y-82593713D01*
X157948260Y-82593713D02*
X157925810Y-82415680D01*
X157925810Y-82415680D02*
X157884159Y-82255368D01*
X157884159Y-82255368D02*
X157821047Y-82118031D01*
X157821047Y-82118031D02*
X157732884Y-82003010D01*
X157732884Y-82003010D02*
X157621239Y-81913839D01*
X157621239Y-81913839D02*
X157558554Y-81879080D01*
X157519463Y-83708890D02*
X157653689Y-83642151D01*
X157653689Y-83642151D02*
X157758595Y-83544439D01*
X157758595Y-83544439D02*
X157837174Y-83422107D01*
X157837174Y-83422107D02*
X157894891Y-83274214D01*
X157894891Y-83274214D02*
X157931653Y-83110262D01*
X157931653Y-83110262D02*
X157951034Y-82928594D01*
X157951034Y-82928594D02*
X157955048Y-82787060D01*
X165266101Y-87040230D02*
X165059831Y-87040230D01*
X165472371Y-87040230D02*
X165266101Y-87040230D01*
X154928063Y-84902780D02*
X155109773Y-84908780D01*
X167003721Y-81520070D02*
X167008721Y-82590170D01*
X166809070Y-81520070D02*
X167003721Y-81520070D01*
X142691851Y-85271670D02*
X142508739Y-85450640D01*
X165059491Y-83563120D02*
X165059491Y-81520070D01*
X165059491Y-85606170D02*
X165059491Y-83563120D01*
X145488645Y-82594540D02*
X145022083Y-82604640D01*
X145905442Y-81010460D02*
X145719774Y-80995410D01*
X145719774Y-80995410D02*
X145523529Y-80989953D01*
X145523529Y-80989953D02*
X145414009Y-80989160D01*
X146249876Y-81274420D02*
X146167167Y-81157074D01*
X146167167Y-81157074D02*
X146055526Y-81068357D01*
X146055526Y-81068357D02*
X145911141Y-81011713D01*
X145911141Y-81011713D02*
X145905442Y-81010460D01*
X147124246Y-85438480D02*
X147124246Y-85605460D01*
X139678723Y-82443650D02*
X139678723Y-82728500D01*
X140150197Y-82443650D02*
X139678723Y-82443650D01*
X140582380Y-83229440D02*
X140130552Y-83229440D01*
X140582380Y-83121390D02*
X140582380Y-83229440D01*
X151214038Y-82634530D02*
X151220038Y-83395760D01*
X151208038Y-81873300D02*
X151214038Y-82634530D01*
X151788618Y-81873300D02*
X151208038Y-81873300D01*
X137932369Y-80399870D02*
X137818724Y-80489343D01*
X137818724Y-80489343D02*
X137716675Y-80587937D01*
X137716675Y-80587937D02*
X137613731Y-80694318D01*
X137613731Y-80694318D02*
X137518575Y-80800496D01*
X137518575Y-80800496D02*
X137495015Y-80828960D01*
X137950029Y-81313350D02*
X137949629Y-81108468D01*
X137949629Y-81108468D02*
X137948366Y-80908660D01*
X137948366Y-80908660D02*
X137945925Y-80710396D01*
X137945925Y-80710396D02*
X137941290Y-80514630D01*
X137941290Y-80514630D02*
X137932369Y-80399870D01*
X141579184Y-84998880D02*
X141419176Y-85040813D01*
X141419176Y-85040813D02*
X141231864Y-85053607D01*
X141231864Y-85053607D02*
X141191366Y-85055280D01*
X141878931Y-84496680D02*
X141856022Y-84674146D01*
X141856022Y-84674146D02*
X141795119Y-84814086D01*
X141795119Y-84814086D02*
X141690250Y-84931974D01*
X141690250Y-84931974D02*
X141579184Y-84998880D01*
X141279767Y-85617470D02*
X141412938Y-85548994D01*
X141412938Y-85548994D02*
X141544574Y-85473917D01*
X141544574Y-85473917D02*
X141667074Y-85395301D01*
X141667074Y-85395301D02*
X141783297Y-85311205D01*
X141783297Y-85311205D02*
X141896809Y-85219211D01*
X141896809Y-85219211D02*
X142003738Y-85123693D01*
X142003738Y-85123693D02*
X142106636Y-85024459D01*
X142106636Y-85024459D02*
X142114667Y-85016450D01*
X137950029Y-82226830D02*
X137950029Y-81313350D01*
X141102965Y-84136170D02*
X140906517Y-84142170D01*
X140905417Y-84833930D02*
X141081203Y-84858943D01*
X141081203Y-84858943D02*
X141274199Y-84851723D01*
X141274199Y-84851723D02*
X141394035Y-84830930D01*
X150817271Y-81873300D02*
X150493133Y-81873300D01*
X150817271Y-82645140D02*
X150817271Y-81873300D01*
X148267570Y-85038170D02*
X148163666Y-85134658D01*
X148163666Y-85134658D02*
X148034130Y-85205587D01*
X148034130Y-85205587D02*
X147874693Y-85246835D01*
X147874693Y-85246835D02*
X147692699Y-85265448D01*
X147692699Y-85265448D02*
X147496231Y-85271037D01*
X147496231Y-85271037D02*
X147453295Y-85271210D01*
X163380681Y-85979050D02*
X161701691Y-85979050D01*
X161700251Y-85370430D02*
X161700251Y-85606170D01*
X161700251Y-85134690D02*
X161700251Y-85370430D01*
X149212701Y-81519380D02*
X149426894Y-81519380D01*
X153548064Y-85261680D02*
X153549717Y-85062166D01*
X153549717Y-85062166D02*
X153556864Y-84917901D01*
X159226279Y-85978940D02*
X157173406Y-85978940D01*
X139227451Y-81082730D02*
X139165795Y-81246212D01*
X139165795Y-81246212D02*
X139106469Y-81403449D01*
X139106469Y-81403449D02*
X139042955Y-81571689D01*
X139042955Y-81571689D02*
X138988048Y-81716955D01*
X138988048Y-81716955D02*
X138986524Y-81720980D01*
X139417173Y-80603200D02*
X139357539Y-80744292D01*
X139357539Y-80744292D02*
X139300145Y-80891760D01*
X139300145Y-80891760D02*
X139242674Y-81042421D01*
X139242674Y-81042421D02*
X139227451Y-81082730D01*
X159225015Y-85134690D02*
X160462635Y-85134690D01*
X140901117Y-85417610D02*
X140895717Y-85768860D01*
X140906517Y-85066380D02*
X140901117Y-85417610D01*
X166545280Y-83730830D02*
X166465455Y-83852720D01*
X166465455Y-83852720D02*
X166365513Y-83952966D01*
X166365513Y-83952966D02*
X166243593Y-84031985D01*
X166243593Y-84031985D02*
X166097779Y-84086366D01*
X166097779Y-84086366D02*
X165948611Y-84109010D01*
X166616780Y-83622130D02*
X166545280Y-83730830D01*
X150895284Y-80660240D02*
X151053002Y-80616040D01*
X150866384Y-81067870D02*
X150880836Y-80877393D01*
X150880836Y-80877393D02*
X150893894Y-80688832D01*
X150893894Y-80688832D02*
X150895284Y-80660240D01*
X142692829Y-84231610D02*
X142758303Y-84095575D01*
X142758303Y-84095575D02*
X142818754Y-83952331D01*
X142818754Y-83952331D02*
X142872532Y-83804537D01*
X142872532Y-83804537D02*
X142919996Y-83649746D01*
X142919996Y-83649746D02*
X142961125Y-83484561D01*
X142961125Y-83484561D02*
X142993472Y-83315372D01*
X142993472Y-83315372D02*
X143017200Y-83137135D01*
X143017200Y-83137135D02*
X143030963Y-82950195D01*
X143030963Y-82950195D02*
X143033257Y-82749634D01*
X143033257Y-82749634D02*
X143023262Y-82555817D01*
X143023262Y-82555817D02*
X143003101Y-82375486D01*
X143003101Y-82375486D02*
X142973780Y-82202709D01*
X142973780Y-82202709D02*
X142936613Y-82038624D01*
X142936613Y-82038624D02*
X142892252Y-81881664D01*
X142892252Y-81881664D02*
X142839993Y-81727730D01*
X142839993Y-81727730D02*
X142782511Y-81582959D01*
X142782511Y-81582959D02*
X142719677Y-81444850D01*
X142719677Y-81444850D02*
X142651273Y-81311839D01*
X142651273Y-81311839D02*
X142577693Y-81184033D01*
X142577693Y-81184033D02*
X142498807Y-81060744D01*
X142498807Y-81060744D02*
X142412662Y-80939116D01*
X142412662Y-80939116D02*
X142321425Y-80822400D01*
X142321425Y-80822400D02*
X142256600Y-80745880D01*
X142114667Y-85016450D02*
X142213955Y-84913953D01*
X142213955Y-84913953D02*
X142309759Y-84807337D01*
X142309759Y-84807337D02*
X142400166Y-84696971D01*
X142400166Y-84696971D02*
X142485913Y-84580406D01*
X142485913Y-84580406D02*
X142567156Y-84456171D01*
X142567156Y-84456171D02*
X142640855Y-84329563D01*
X142640855Y-84329563D02*
X142692829Y-84231610D01*
X140437343Y-85891450D02*
X140437314Y-85891560D01*
X139528565Y-79711710D02*
X139354930Y-79738502D01*
X139354930Y-79738502D02*
X139187172Y-79774002D01*
X139187172Y-79774002D02*
X139027402Y-79816864D01*
X139027402Y-79816864D02*
X138875207Y-79866213D01*
X138875207Y-79866213D02*
X138729976Y-79921406D01*
X138729976Y-79921406D02*
X138588992Y-79982963D01*
X138588992Y-79982963D02*
X138450038Y-80051795D01*
X138450038Y-80051795D02*
X138319182Y-80124543D01*
X138319182Y-80124543D02*
X138193890Y-80201966D01*
X138193890Y-80201966D02*
X138166081Y-80220250D01*
X155120533Y-86666500D02*
X154933670Y-86666500D01*
X163379871Y-85606170D02*
X165059491Y-85606170D01*
X161700251Y-85606170D02*
X163379871Y-85606170D01*
X168918741Y-80949921D02*
X168767869Y-80999208D01*
X168767869Y-80999208D02*
X168645199Y-81077330D01*
X168645199Y-81077330D02*
X168547455Y-81179998D01*
X168547455Y-81179998D02*
X168470466Y-81304238D01*
X168470466Y-81304238D02*
X168410387Y-81449496D01*
X168410387Y-81449496D02*
X168366974Y-81606302D01*
X168366974Y-81606302D02*
X168336046Y-81776865D01*
X168336046Y-81776865D02*
X168316039Y-81957065D01*
X168316039Y-81957065D02*
X168305005Y-82149258D01*
X168305005Y-82149258D02*
X168301901Y-82335230D01*
X169745721Y-81593640D02*
X169699615Y-81439572D01*
X169699615Y-81439572D02*
X169638054Y-81300997D01*
X169638054Y-81300997D02*
X169559593Y-81179065D01*
X169559593Y-81179065D02*
X169461841Y-81075979D01*
X169461841Y-81075979D02*
X169341708Y-80996034D01*
X169341708Y-80996034D02*
X169190348Y-80945055D01*
X169190348Y-80945055D02*
X168997405Y-80937884D01*
X168997405Y-80937884D02*
X168918741Y-80949921D01*
X157519463Y-83708890D02*
X157519463Y-83708890D01*
X151386967Y-84085810D02*
X151241469Y-84030175D01*
X151241469Y-84030175D02*
X151115152Y-83954023D01*
X151115152Y-83954023D02*
X151010422Y-83858606D01*
X151010422Y-83858606D02*
X150929658Y-83744040D01*
X140906517Y-84142170D02*
X140901117Y-84475410D01*
X149426894Y-81519380D02*
X149617476Y-81528905D01*
X149617476Y-81528905D02*
X149631252Y-81535280D01*
X149058353Y-83101940D02*
X149004215Y-83250816D01*
X149004215Y-83250816D02*
X148947334Y-83406759D01*
X148947334Y-83406759D02*
X148891665Y-83558902D01*
X148891665Y-83558902D02*
X148835871Y-83710899D01*
X148835871Y-83710899D02*
X148780466Y-83861300D01*
X148780466Y-83861300D02*
X148724537Y-84012543D01*
X148724537Y-84012543D02*
X148669054Y-84161914D01*
X148669054Y-84161914D02*
X148611341Y-84316413D01*
X148611341Y-84316413D02*
X148554209Y-84468164D01*
X148554209Y-84468164D02*
X148498258Y-84614935D01*
X148498258Y-84614935D02*
X148441788Y-84758514D01*
X148441788Y-84758514D02*
X148425385Y-84796540D01*
X153806546Y-81853480D02*
X153891219Y-81737935D01*
X153891219Y-81737935D02*
X153994753Y-81640043D01*
X153994753Y-81640043D02*
X154114802Y-81560022D01*
X154114802Y-81560022D02*
X154255986Y-81497815D01*
X154255986Y-81497815D02*
X154318517Y-81479460D01*
X145988056Y-82171500D02*
X145988058Y-82170980D01*
X145022081Y-82230100D02*
X145449353Y-82223100D01*
X147453295Y-85271210D02*
X147124246Y-85271500D01*
X154718589Y-85579370D02*
X154745496Y-85405970D01*
X154745496Y-85405970D02*
X154746349Y-85243400D01*
X153556864Y-84917901D02*
X153689179Y-84991200D01*
X153689179Y-84991200D02*
X153821350Y-85066590D01*
X153821350Y-85066590D02*
X153954440Y-85143002D01*
X153954440Y-85143002D02*
X154092254Y-85222479D01*
X154092254Y-85222479D02*
X154128267Y-85243300D01*
X170205711Y-81736070D02*
X169992761Y-81736070D01*
X170194711Y-81672170D02*
X170205711Y-81736070D01*
X169496561Y-83573100D02*
X169586774Y-83463191D01*
X169586774Y-83463191D02*
X169658120Y-83334339D01*
X169658120Y-83334339D02*
X169715302Y-83191083D01*
X169715302Y-83191083D02*
X169745631Y-83081770D01*
X157172601Y-85606170D02*
X159225015Y-85606170D01*
X140621669Y-82247250D02*
X140621669Y-82345450D01*
X140150197Y-82247250D02*
X140621669Y-82247250D01*
X148882331Y-82477050D02*
X149212701Y-81519380D01*
X167057921Y-83703480D02*
X167215126Y-83747187D01*
X167215126Y-83747187D02*
X167284801Y-83734480D01*
X165472031Y-81520070D02*
X165472031Y-82420160D01*
X165265761Y-81520070D02*
X165472031Y-81520070D01*
X165059491Y-81520070D02*
X165265761Y-81520070D01*
X137999101Y-80331240D02*
X138158935Y-80337240D01*
X138166081Y-80220250D02*
X137999101Y-80331240D01*
X136948024Y-83803490D02*
X137002430Y-83954460D01*
X137002430Y-83954460D02*
X137062186Y-84096690D01*
X137062186Y-84096690D02*
X137127549Y-84232718D01*
X137127549Y-84232718D02*
X137197977Y-84362573D01*
X137197977Y-84362573D02*
X137273882Y-84487758D01*
X137273882Y-84487758D02*
X137354718Y-84607839D01*
X137354718Y-84607839D02*
X137440944Y-84723788D01*
X137440944Y-84723788D02*
X137532655Y-84835785D01*
X137532655Y-84835785D02*
X137628228Y-84942069D01*
X137628228Y-84942069D02*
X137729463Y-85044747D01*
X137729463Y-85044747D02*
X137833400Y-85140982D01*
X137833400Y-85140982D02*
X137943308Y-85233861D01*
X137943308Y-85233861D02*
X138057448Y-85321731D01*
X138057448Y-85321731D02*
X138176359Y-85404924D01*
X138176359Y-85404924D02*
X138300290Y-85483421D01*
X138300290Y-85483421D02*
X138429532Y-85557119D01*
X138429532Y-85557119D02*
X138565190Y-85626216D01*
X138565190Y-85626216D02*
X138705259Y-85689318D01*
X138705259Y-85689318D02*
X138848750Y-85745830D01*
X138848750Y-85745830D02*
X138999662Y-85796897D01*
X138999662Y-85796897D02*
X139157164Y-85841502D01*
X139157164Y-85841502D02*
X139320331Y-85878761D01*
X139320331Y-85878761D02*
X139491714Y-85908456D01*
X139491714Y-85908456D02*
X139587444Y-85920950D01*
X136802247Y-82816170D02*
X136804250Y-83016609D01*
X136804250Y-83016609D02*
X136813514Y-83208026D01*
X136813514Y-83208026D02*
X136835729Y-83387391D01*
X136835729Y-83387391D02*
X136871881Y-83552304D01*
X136871881Y-83552304D02*
X136917372Y-83708677D01*
X136917372Y-83708677D02*
X136948024Y-83803490D01*
X139678723Y-82247250D02*
X140150197Y-82247250D01*
X139678723Y-81294480D02*
X139678723Y-82247250D01*
X138813544Y-81605500D02*
X138873286Y-81459562D01*
X138873286Y-81459562D02*
X138929892Y-81313200D01*
X138929892Y-81313200D02*
X138987486Y-81162193D01*
X138987486Y-81162193D02*
X139045194Y-81009411D01*
X139045194Y-81009411D02*
X139061684Y-80965520D01*
X138500650Y-80828690D02*
X138557814Y-80981227D01*
X138557814Y-80981227D02*
X138614687Y-81132769D01*
X138614687Y-81132769D02*
X138670906Y-81281973D01*
X138670906Y-81281973D02*
X138726752Y-81428450D01*
X138726752Y-81428450D02*
X138784845Y-81572215D01*
X138784845Y-81572215D02*
X138813544Y-81605500D01*
X167294700Y-84076400D02*
X167125113Y-84107686D01*
X167125113Y-84107686D02*
X166930737Y-84101829D01*
X166930737Y-84101829D02*
X166894560Y-84093600D01*
X167338800Y-83886130D02*
X167315167Y-84062502D01*
X167315167Y-84062502D02*
X167294700Y-84076400D01*
X139423573Y-82371020D02*
X139423526Y-82158434D01*
X139423526Y-82158434D02*
X139423396Y-81958400D01*
X139423396Y-81958400D02*
X139423170Y-81755895D01*
X139423170Y-81755895D02*
X139422827Y-81546560D01*
X139422827Y-81546560D02*
X139422359Y-81341159D01*
X139422359Y-81341159D02*
X139421731Y-81136485D01*
X139421731Y-81136485D02*
X139420881Y-80936124D01*
X139420881Y-80936124D02*
X139419541Y-80732264D01*
X139419541Y-80732264D02*
X139417173Y-80603200D01*
X165059831Y-87040230D02*
X165059681Y-86509450D01*
X141377991Y-84152770D02*
X141191538Y-84135625D01*
X141191538Y-84135625D02*
X141102965Y-84136170D01*
X141610708Y-84495870D02*
X141580384Y-84325707D01*
X141580384Y-84325707D02*
X141494525Y-84210943D01*
X141494525Y-84210943D02*
X141377991Y-84152770D01*
X150837474Y-81475500D02*
X150850175Y-81282192D01*
X150850175Y-81282192D02*
X150864566Y-81091209D01*
X150864566Y-81091209D02*
X150866384Y-81067870D01*
X150502955Y-81519700D02*
X150703217Y-81518869D01*
X150703217Y-81518869D02*
X150837474Y-81475500D01*
X142508739Y-85450640D02*
X142404919Y-85548394D01*
X142404919Y-85548394D02*
X142297282Y-85642388D01*
X142297282Y-85642388D02*
X142184808Y-85733295D01*
X142184808Y-85733295D02*
X142069937Y-85819063D01*
X142069937Y-85819063D02*
X141950616Y-85901179D01*
X141950616Y-85901179D02*
X141826071Y-85979871D01*
X141826071Y-85979871D02*
X141699305Y-86053123D01*
X141699305Y-86053123D02*
X141567319Y-86122542D01*
X141567319Y-86122542D02*
X141431665Y-86187074D01*
X141431665Y-86187074D02*
X141288704Y-86248048D01*
X141288704Y-86248048D02*
X141142864Y-86303238D01*
X141142864Y-86303238D02*
X140992124Y-86353239D01*
X140992124Y-86353239D02*
X140970000Y-86360000D01*
X149631252Y-81535280D02*
X149575801Y-81683456D01*
X149575801Y-81683456D02*
X149517276Y-81842725D01*
X149517276Y-81842725D02*
X149461337Y-81995500D01*
X149461337Y-81995500D02*
X149402128Y-82157518D01*
X149402128Y-82157518D02*
X149345297Y-82313265D01*
X149345297Y-82313265D02*
X149287249Y-82472527D01*
X149287249Y-82472527D02*
X149229071Y-82632301D01*
X149229071Y-82632301D02*
X149164769Y-82809059D01*
X149164769Y-82809059D02*
X149105103Y-82973217D01*
X149105103Y-82973217D02*
X149058353Y-83101940D01*
X169057461Y-83729390D02*
X169241522Y-83713207D01*
X169241522Y-83713207D02*
X169385880Y-83657043D01*
X169385880Y-83657043D02*
X169496561Y-83573100D01*
X168769451Y-83675390D02*
X168920668Y-83724718D01*
X168920668Y-83724718D02*
X169057461Y-83729390D01*
X168301901Y-82335230D02*
X168305427Y-82533946D01*
X168305427Y-82533946D02*
X168316780Y-82723885D01*
X168316780Y-82723885D02*
X168337275Y-82903785D01*
X168337275Y-82903785D02*
X168369147Y-83075100D01*
X168369147Y-83075100D02*
X168413436Y-83230836D01*
X168413436Y-83230836D02*
X168473532Y-83372770D01*
X168473532Y-83372770D02*
X168551528Y-83496269D01*
X168551528Y-83496269D02*
X168650438Y-83598751D01*
X168650438Y-83598751D02*
X168769451Y-83675390D01*
X152172802Y-83126970D02*
X152172802Y-83012710D01*
X151720972Y-84105410D02*
X151521156Y-84103673D01*
X151521156Y-84103673D02*
X151387012Y-84085810D01*
X152321855Y-83888630D02*
X152215172Y-83983072D01*
X152215172Y-83983072D02*
X152086494Y-84054549D01*
X152086494Y-84054549D02*
X151923487Y-84092357D01*
X151923487Y-84092357D02*
X151734984Y-84105033D01*
X151734984Y-84105033D02*
X151720972Y-84105410D01*
X154147557Y-86320920D02*
X153558216Y-86661430D01*
X169992931Y-82934360D02*
X170185478Y-82941911D01*
X170185478Y-82941911D02*
X170197991Y-82978560D01*
X169779821Y-81736070D02*
X169745721Y-81593640D01*
X169992761Y-81736070D02*
X169779821Y-81736070D01*
X141394024Y-84830830D02*
X141520880Y-84755903D01*
X141520880Y-84755903D02*
X141594485Y-84628849D01*
X141594485Y-84628849D02*
X141610708Y-84495870D01*
X140895717Y-85768860D02*
X140960027Y-85756360D01*
X152369197Y-81873300D02*
X151788618Y-81873300D01*
X152369197Y-81696500D02*
X152369197Y-81873300D01*
X152369197Y-81519700D02*
X152369197Y-81696500D01*
X161122334Y-81836570D02*
X161184424Y-81975427D01*
X161184424Y-81975427D02*
X161218911Y-82142564D01*
X161218911Y-82142564D02*
X161231896Y-82330426D01*
X161231896Y-82330426D02*
X161237441Y-82526418D01*
X161237441Y-82526418D02*
X161240376Y-82724946D01*
X161240376Y-82724946D02*
X161242437Y-82935694D01*
X161242437Y-82935694D02*
X161243825Y-83105790D01*
X160724877Y-81500290D02*
X160861562Y-81564249D01*
X160861562Y-81564249D02*
X160975668Y-81650670D01*
X160975668Y-81650670D02*
X161071808Y-81755901D01*
X161071808Y-81755901D02*
X161122334Y-81836570D01*
X159916144Y-81586190D02*
X160051356Y-81520878D01*
X160051356Y-81520878D02*
X160208825Y-81478184D01*
X160208825Y-81478184D02*
X160389400Y-81458723D01*
X160389400Y-81458723D02*
X160580738Y-81468689D01*
X160580738Y-81468689D02*
X160724877Y-81500290D01*
X159643712Y-81882700D02*
X159725506Y-81763689D01*
X159725506Y-81763689D02*
X159823035Y-81660631D01*
X159823035Y-81660631D02*
X159916144Y-81586190D01*
X145392783Y-84893550D02*
X145611375Y-84894052D01*
X145611375Y-84894052D02*
X145845393Y-84894637D01*
X145845393Y-84894637D02*
X146063189Y-84895195D01*
X146063189Y-84895195D02*
X146277472Y-84895719D01*
X146277472Y-84895719D02*
X146485975Y-84896147D01*
X146485975Y-84896147D02*
X146696462Y-84896409D01*
X146696462Y-84896409D02*
X146899163Y-84896361D01*
X146899163Y-84896361D02*
X147100282Y-84895787D01*
X147100282Y-84895787D02*
X147303733Y-84894231D01*
X147303733Y-84894231D02*
X147503079Y-84890798D01*
X147503079Y-84890798D02*
X147695774Y-84883309D01*
X147695774Y-84883309D02*
X147877076Y-84863755D01*
X147877076Y-84863755D02*
X148004275Y-84790583D01*
X148004275Y-84790583D02*
X148038274Y-84733910D01*
X167014721Y-83660280D02*
X167057921Y-83703480D01*
X167008721Y-82590170D02*
X167014721Y-83660280D01*
X139423514Y-84132360D02*
X139423573Y-82371020D01*
X140042239Y-84132360D02*
X139423514Y-84132360D01*
X147124246Y-85271500D02*
X147124246Y-85438480D01*
X147124246Y-85605460D02*
X150336154Y-85605460D01*
X165471731Y-85994150D02*
X165472371Y-87040230D01*
X140685515Y-85823060D02*
X140665837Y-85641572D01*
X140665837Y-85641572D02*
X140662552Y-85443992D01*
X140662552Y-85443992D02*
X140661351Y-85244293D01*
X140661351Y-85244293D02*
X140660981Y-85041461D01*
X140660981Y-85041461D02*
X140660965Y-84977091D01*
X141394035Y-84830930D02*
X141394024Y-84830830D01*
X150929658Y-83744040D02*
X150865989Y-83603759D01*
X150865989Y-83603759D02*
X150833708Y-83435136D01*
X150833708Y-83435136D02*
X150822462Y-83246025D01*
X150822462Y-83246025D02*
X150818646Y-83047406D01*
X150818646Y-83047406D02*
X150817484Y-82848014D01*
X150817484Y-82848014D02*
X150817271Y-82645140D01*
X155120173Y-85606170D02*
X157172601Y-85606170D01*
X146761277Y-85969050D02*
X146755977Y-85620370D01*
X140582380Y-83013350D02*
X140582380Y-83121390D01*
X140130552Y-83013350D02*
X140582380Y-83013350D01*
X145449353Y-82223100D02*
X145648187Y-82218767D01*
X145648187Y-82218767D02*
X145838146Y-82208425D01*
X145838146Y-82208425D02*
X145988056Y-82171500D01*
X144609544Y-84053460D02*
X144609544Y-82333240D01*
X144815813Y-84053460D02*
X144609544Y-84053460D01*
X152565696Y-83012710D02*
X152565163Y-83096210D01*
X152369249Y-83012710D02*
X152565696Y-83012710D01*
X152172802Y-83012710D02*
X152369249Y-83012710D01*
X160836081Y-84053640D02*
X160836081Y-83153550D01*
X161043690Y-84053640D02*
X160836081Y-84053640D01*
X161251325Y-84053640D02*
X161043690Y-84053640D01*
X161243825Y-83105790D02*
X161251325Y-84053640D01*
X155120533Y-86322720D02*
X155120533Y-86666500D01*
X159225015Y-85370430D02*
X159225015Y-85134690D01*
X169379711Y-84082790D02*
X169201332Y-84105820D01*
X169201332Y-84105820D02*
X169004771Y-84109792D01*
X169004771Y-84109792D02*
X168816831Y-84097568D01*
X168816831Y-84097568D02*
X168726081Y-84082050D01*
X170165891Y-83140630D02*
X170126845Y-83302687D01*
X170126845Y-83302687D02*
X170074691Y-83451794D01*
X170074691Y-83451794D02*
X170009621Y-83587901D01*
X170009621Y-83587901D02*
X169931260Y-83711210D01*
X169931260Y-83711210D02*
X169839452Y-83820708D01*
X169839452Y-83820708D02*
X169732116Y-83916611D01*
X169732116Y-83916611D02*
X169608656Y-83996393D01*
X169608656Y-83996393D02*
X169468565Y-84057305D01*
X169468565Y-84057305D02*
X169379711Y-84082790D01*
X170197991Y-82978560D02*
X170165891Y-83140630D01*
X151387012Y-84085810D02*
X151387012Y-84085810D01*
X157559348Y-84091370D02*
X157377250Y-84109533D01*
X157377250Y-84109533D02*
X157177511Y-84108703D01*
X157177511Y-84108703D02*
X156994138Y-84091445D01*
X156994138Y-84091445D02*
X156946421Y-84081370D01*
X158222681Y-83559400D02*
X158150560Y-83687701D01*
X158150560Y-83687701D02*
X158060745Y-83803932D01*
X158060745Y-83803932D02*
X157956996Y-83902764D01*
X157956996Y-83902764D02*
X157838699Y-83984701D01*
X157838699Y-83984701D02*
X157703214Y-84049355D01*
X157703214Y-84049355D02*
X157559348Y-84091370D01*
X153817928Y-82223760D02*
X153754078Y-82353400D01*
X154981886Y-84053650D02*
X154981886Y-83180420D01*
X155178331Y-84053650D02*
X154981886Y-84053650D01*
X155374781Y-84053650D02*
X155178331Y-84053650D01*
X159596962Y-81951700D02*
X159643712Y-81882700D01*
X159568952Y-81735610D02*
X159587323Y-81917880D01*
X159587323Y-81917880D02*
X159596962Y-81951700D01*
X153351318Y-84053590D02*
X153351437Y-82207080D01*
X154128267Y-85243300D02*
X154259057Y-85318808D01*
X154259057Y-85318808D02*
X154389957Y-85394066D01*
X154389957Y-85394066D02*
X154521024Y-85469014D01*
X154521024Y-85469014D02*
X154649241Y-85541617D01*
X154649241Y-85541617D02*
X154718589Y-85579370D01*
X140660965Y-84132360D02*
X140042239Y-84132360D01*
X140660965Y-84977091D02*
X140660965Y-84132360D01*
X140901117Y-84475410D02*
X140899795Y-84674385D01*
X140899795Y-84674385D02*
X140905417Y-84833930D01*
X141279717Y-85618280D02*
X141279767Y-85617470D01*
X136217900Y-83086750D02*
X136207149Y-82894295D01*
X136207149Y-82894295D02*
X136207068Y-82693030D01*
X136207068Y-82693030D02*
X136217803Y-82500467D01*
X136217803Y-82500467D02*
X136238197Y-82315612D01*
X136238197Y-82315612D02*
X136266354Y-82142709D01*
X136266354Y-82142709D02*
X136302524Y-81973612D01*
X136302524Y-81973612D02*
X136344641Y-81813960D01*
X136344641Y-81813960D02*
X136392743Y-81659926D01*
X136392743Y-81659926D02*
X136448136Y-81506369D01*
X136448136Y-81506369D02*
X136508674Y-81358410D01*
X136508674Y-81358410D02*
X136572401Y-81218751D01*
X136572401Y-81218751D02*
X136607455Y-81147440D01*
X169815091Y-80826891D02*
X169909820Y-80932498D01*
X169909820Y-80932498D02*
X169989347Y-81054404D01*
X169989347Y-81054404D02*
X170055763Y-81188502D01*
X170055763Y-81188502D02*
X170111119Y-81333782D01*
X170111119Y-81333782D02*
X170156228Y-81489113D01*
X170156228Y-81489113D02*
X170191854Y-81655898D01*
X170191854Y-81655898D02*
X170194711Y-81672170D01*
X169593381Y-80667211D02*
X169715357Y-80745271D01*
X169715357Y-80745271D02*
X169815091Y-80826891D01*
X168495711Y-80676210D02*
X168638919Y-80618727D01*
X168638919Y-80618727D02*
X168803298Y-80580030D01*
X168803298Y-80580030D02*
X168985844Y-80560961D01*
X168985844Y-80560961D02*
X169182633Y-80564423D01*
X169182633Y-80564423D02*
X169358129Y-80589376D01*
X169358129Y-80589376D02*
X169515779Y-80634120D01*
X169515779Y-80634120D02*
X169593381Y-80667211D01*
X138190439Y-81401350D02*
X138185339Y-82226830D01*
X138195539Y-80575870D02*
X138190439Y-81401350D01*
X139678723Y-83934820D02*
X140587291Y-83940820D01*
X139678723Y-83582130D02*
X139678723Y-83934820D01*
X153552916Y-86320240D02*
X153547616Y-85979050D01*
X156512554Y-81734610D02*
X156621842Y-81639553D01*
X156621842Y-81639553D02*
X156746070Y-81562970D01*
X156746070Y-81562970D02*
X156890769Y-81507009D01*
X156890769Y-81507009D02*
X157058467Y-81473538D01*
X157058467Y-81473538D02*
X157247427Y-81461736D01*
X157247427Y-81461736D02*
X157270555Y-81461620D01*
X156179913Y-82999050D02*
X156169872Y-82806086D01*
X156169872Y-82806086D02*
X156174922Y-82609605D01*
X156174922Y-82609605D02*
X156195381Y-82428005D01*
X156195381Y-82428005D02*
X156230190Y-82261278D01*
X156230190Y-82261278D02*
X156278776Y-82108912D01*
X156278776Y-82108912D02*
X156343243Y-81966616D01*
X156343243Y-81966616D02*
X156421263Y-81841673D01*
X156421263Y-81841673D02*
X156512554Y-81734610D01*
X156946420Y-84081810D02*
X156796456Y-84030458D01*
X156796456Y-84030458D02*
X156664225Y-83961290D01*
X156664225Y-83961290D02*
X156549561Y-83875405D01*
X156549561Y-83875405D02*
X156450840Y-83772727D01*
X156450840Y-83772727D02*
X156366973Y-83652556D01*
X156366973Y-83652556D02*
X156299034Y-83517451D01*
X156299034Y-83517451D02*
X156246232Y-83368306D01*
X156246232Y-83368306D02*
X156207871Y-83206396D01*
X156207871Y-83206396D02*
X156182615Y-83027914D01*
X156182615Y-83027914D02*
X156179913Y-82999050D01*
X153351437Y-80360480D02*
X153547661Y-80360480D01*
X153351437Y-82207080D02*
X153351437Y-80360480D01*
X155253491Y-81830350D02*
X155316771Y-81967384D01*
X155316771Y-81967384D02*
X155352701Y-82133122D01*
X155352701Y-82133122D02*
X155366431Y-82320698D01*
X155366431Y-82320698D02*
X155371617Y-82516860D01*
X155371617Y-82516860D02*
X155373609Y-82717784D01*
X155373609Y-82717784D02*
X155374305Y-82922195D01*
X155374305Y-82922195D02*
X155374485Y-83125430D01*
X146741172Y-81693260D02*
X146717652Y-81871579D01*
X146717652Y-81871579D02*
X146674131Y-82028384D01*
X146674131Y-82028384D02*
X146609684Y-82164074D01*
X146609684Y-82164074D02*
X146525177Y-82280850D01*
X146525177Y-82280850D02*
X146457157Y-82351330D01*
X146296645Y-80741990D02*
X146418511Y-80820170D01*
X146418511Y-80820170D02*
X146521470Y-80919234D01*
X146521470Y-80919234D02*
X146605013Y-81035740D01*
X146605013Y-81035740D02*
X146671097Y-81171815D01*
X146671097Y-81171815D02*
X146717584Y-81326428D01*
X146717584Y-81326428D02*
X146742417Y-81504066D01*
X146742417Y-81504066D02*
X146741172Y-81693260D01*
X145302020Y-80620790D02*
X145504546Y-80623447D01*
X145504546Y-80623447D02*
X145700824Y-80627217D01*
X145700824Y-80627217D02*
X145893248Y-80634973D01*
X145893248Y-80634973D02*
X146072380Y-80655920D01*
X146072380Y-80655920D02*
X146223009Y-80705954D01*
X146223009Y-80705954D02*
X146296645Y-80741990D01*
X147761182Y-81529380D02*
X148116174Y-82491970D01*
X159205783Y-84053640D02*
X159205561Y-82786600D01*
X159401240Y-84053640D02*
X159205783Y-84053640D01*
X159596705Y-84053640D02*
X159401240Y-84053640D01*
X159603405Y-83223650D02*
X159596705Y-84053640D01*
X146750677Y-85271670D02*
X144720970Y-85271670D01*
X146755977Y-85620370D02*
X146750677Y-85271670D01*
X140621669Y-82443650D02*
X140150197Y-82443650D01*
X140621669Y-82345450D02*
X140621669Y-82443650D01*
X167284801Y-83734480D02*
X167338800Y-83719480D01*
X165948611Y-84109010D02*
X165752576Y-84103656D01*
X165752576Y-84103656D02*
X165604850Y-84051308D01*
X165604850Y-84051308D02*
X165507521Y-83977950D01*
X151573838Y-83739590D02*
X151769759Y-83744072D01*
X151769759Y-83744072D02*
X151927691Y-83700845D01*
X151927691Y-83700845D02*
X151968865Y-83679190D01*
X151278968Y-83513630D02*
X151359302Y-83633929D01*
X151359302Y-83633929D02*
X151480738Y-83713200D01*
X151480738Y-83713200D02*
X151573838Y-83739590D01*
X138067685Y-82226830D02*
X137950029Y-82226830D01*
X138185339Y-82226830D02*
X138067685Y-82226830D01*
X155374485Y-83125430D02*
X155374781Y-84053650D01*
X154173004Y-81876610D02*
X154046815Y-81950862D01*
X154046815Y-81950862D02*
X153940785Y-82044961D01*
X153940785Y-82044961D02*
X153854006Y-82158703D01*
X153854006Y-82158703D02*
X153817928Y-82223760D01*
X154451996Y-81824410D02*
X154267797Y-81840534D01*
X154267797Y-81840534D02*
X154173004Y-81876610D01*
X154717199Y-81873910D02*
X154563387Y-81827548D01*
X154563387Y-81827548D02*
X154451996Y-81824410D01*
X143580520Y-82295450D02*
X143598932Y-82477271D01*
X143598932Y-82477271D02*
X143606609Y-82671065D01*
X143606609Y-82671065D02*
X143606014Y-82874569D01*
X143606014Y-82874569D02*
X143598367Y-83069746D01*
X143598367Y-83069746D02*
X143584277Y-83256134D01*
X143584277Y-83256134D02*
X143562505Y-83436299D01*
X143562505Y-83436299D02*
X143541500Y-83554070D01*
X161691691Y-86440700D02*
X160458987Y-86445700D01*
X146307486Y-81606600D02*
X146301255Y-81412485D01*
X146301255Y-81412485D02*
X146249876Y-81274420D01*
X146272666Y-81898120D02*
X146304230Y-81729622D01*
X146304230Y-81729622D02*
X146307486Y-81606600D01*
X145988058Y-82170980D02*
X146115639Y-82096677D01*
X146115639Y-82096677D02*
X146214959Y-81995028D01*
X146214959Y-81995028D02*
X146272666Y-81898120D01*
X166631581Y-83687230D02*
X166616780Y-83622130D01*
X166894560Y-84093600D02*
X166768368Y-84018577D01*
X166768368Y-84018577D02*
X166682773Y-83903890D01*
X166682773Y-83903890D02*
X166635601Y-83750007D01*
X166635601Y-83750007D02*
X166631581Y-83687230D01*
X150168995Y-81873300D02*
X150168995Y-81696500D01*
X150493133Y-81873300D02*
X150168995Y-81873300D01*
X150154446Y-85974050D02*
X146761277Y-85969050D01*
X136846097Y-82192470D02*
X136816409Y-82363120D01*
X136816409Y-82363120D02*
X136804596Y-82553002D01*
X136804596Y-82553002D02*
X136802321Y-82752089D01*
X136802321Y-82752089D02*
X136802247Y-82816170D01*
X137495015Y-80828960D02*
X137407317Y-80942392D01*
X137407317Y-80942392D02*
X137322997Y-81061678D01*
X137322997Y-81061678D02*
X137244440Y-81184085D01*
X137244440Y-81184085D02*
X137169899Y-81313060D01*
X137169899Y-81313060D02*
X137101436Y-81445786D01*
X137101436Y-81445786D02*
X137038605Y-81583533D01*
X137038605Y-81583533D02*
X136981418Y-81727010D01*
X136981418Y-81727010D02*
X136930262Y-81875892D01*
X136930262Y-81875892D02*
X136884629Y-82032748D01*
X136884629Y-82032748D02*
X136846097Y-82192470D01*
X141515682Y-79475580D02*
X141649848Y-79543781D01*
X141649848Y-79543781D02*
X141779053Y-79615571D01*
X141779053Y-79615571D02*
X141904382Y-79691789D01*
X141904382Y-79691789D02*
X142026336Y-79773004D01*
X142026336Y-79773004D02*
X142143394Y-79858246D01*
X142143394Y-79858246D02*
X142256286Y-79947847D01*
X142256286Y-79947847D02*
X142365694Y-80042108D01*
X142365694Y-80042108D02*
X142472998Y-80142013D01*
X142472998Y-80142013D02*
X142574735Y-80243742D01*
X142574735Y-80243742D02*
X142598675Y-80268680D01*
X138986524Y-81720980D02*
X138928834Y-81873220D01*
X139587444Y-85920950D02*
X139777624Y-85930860D01*
X139777624Y-85930860D02*
X139977545Y-85928925D01*
X139977545Y-85928925D02*
X140169232Y-85919754D01*
X140169232Y-85919754D02*
X140354504Y-85903092D01*
X140354504Y-85903092D02*
X140437343Y-85891450D01*
X140437314Y-85891560D02*
X140604672Y-85858350D01*
X140604672Y-85858350D02*
X140685515Y-85823060D01*
X165407131Y-83887650D02*
X165421031Y-84280350D01*
X159225015Y-85606170D02*
X159225015Y-85370430D01*
X148302925Y-84084630D02*
X148249395Y-83932040D01*
X148249395Y-83932040D02*
X148194501Y-83784239D01*
X148194501Y-83784239D02*
X148138333Y-83634678D01*
X148138333Y-83634678D02*
X148082992Y-83488255D01*
X148082992Y-83488255D02*
X148027177Y-83341255D01*
X148027177Y-83341255D02*
X147967159Y-83183788D01*
X147967159Y-83183788D02*
X147909491Y-83032989D01*
X147909491Y-83032989D02*
X147849361Y-82876233D01*
X147849361Y-82876233D02*
X147821630Y-82804090D01*
X139295652Y-80341880D02*
X139487188Y-80341790D01*
X139061684Y-80965520D02*
X139295652Y-80341880D01*
X143541500Y-83554070D02*
X143502509Y-83717182D01*
X143502509Y-83717182D02*
X143457217Y-83874587D01*
X143457217Y-83874587D02*
X143406335Y-84027794D01*
X143406335Y-84027794D02*
X143350227Y-84177526D01*
X143350227Y-84177526D02*
X143290862Y-84319840D01*
X143290862Y-84319840D02*
X143227092Y-84458182D01*
X143227092Y-84458182D02*
X143158846Y-84592298D01*
X143158846Y-84592298D02*
X143086245Y-84721118D01*
X143086245Y-84721118D02*
X143062211Y-84760860D01*
X139187365Y-86445570D02*
X139024708Y-86407278D01*
X139024708Y-86407278D02*
X138867649Y-86363420D01*
X138867649Y-86363420D02*
X138715588Y-86314196D01*
X138715588Y-86314196D02*
X138566850Y-86259273D01*
X138566850Y-86259273D02*
X138423728Y-86199734D01*
X138423728Y-86199734D02*
X138286169Y-86135949D01*
X138286169Y-86135949D02*
X138149983Y-86066045D01*
X138149983Y-86066045D02*
X138021474Y-85993480D01*
X138021474Y-85993480D02*
X137894537Y-85915023D01*
X137894537Y-85915023D02*
X137773244Y-85833243D01*
X137773244Y-85833243D02*
X137657055Y-85748107D01*
X137657055Y-85748107D02*
X137545486Y-85659514D01*
X137545486Y-85659514D02*
X137433825Y-85563446D01*
X137433825Y-85563446D02*
X137327961Y-85464772D01*
X137327961Y-85464772D02*
X137228189Y-85364204D01*
X137228189Y-85364204D02*
X137132084Y-85259505D01*
X137132084Y-85259505D02*
X137040148Y-85151172D01*
X137040148Y-85151172D02*
X136951787Y-85038397D01*
X136951787Y-85038397D02*
X136867529Y-84921677D01*
X136867529Y-84921677D02*
X136786290Y-84799136D01*
X136786290Y-84799136D02*
X136709895Y-84673179D01*
X136709895Y-84673179D02*
X136638450Y-84543923D01*
X136638450Y-84543923D02*
X136570311Y-84407820D01*
X136570311Y-84407820D02*
X136506476Y-84265802D01*
X136506476Y-84265802D02*
X136449022Y-84122198D01*
X136449022Y-84122198D02*
X136396770Y-83973891D01*
X136396770Y-83973891D02*
X136349873Y-83820343D01*
X136349873Y-83820343D02*
X136308596Y-83660982D01*
X136308596Y-83660982D02*
X136273306Y-83495198D01*
X136273306Y-83495198D02*
X136244513Y-83322366D01*
X136244513Y-83322366D02*
X136223017Y-83143659D01*
X136223017Y-83143659D02*
X136217900Y-83086750D01*
X147340335Y-81535380D02*
X147528001Y-81522886D01*
X147528001Y-81522886D02*
X147550759Y-81523380D01*
X153748986Y-81151180D02*
X153754086Y-81941880D01*
X153743886Y-80360480D02*
X153748986Y-81151180D01*
X153547661Y-80360480D02*
X153743886Y-80360480D01*
X154742198Y-86323450D02*
X154736898Y-85980410D01*
X165059681Y-85979050D02*
X163380681Y-85979050D01*
X168726081Y-84082050D02*
X168726051Y-84081920D01*
X169778431Y-82934360D02*
X169992931Y-82934360D01*
X169745631Y-83081770D02*
X169778431Y-82934360D01*
X165421031Y-84280350D02*
X165429622Y-84476322D01*
X165429622Y-84476322D02*
X165440798Y-84668513D01*
X165440798Y-84668513D02*
X165453031Y-84810560D01*
X167338800Y-83719480D02*
X167338800Y-83886130D01*
X145022083Y-84053460D02*
X144815813Y-84053460D01*
X145022083Y-83329050D02*
X145022083Y-84053460D01*
X145022083Y-82604640D02*
X145022083Y-83329050D01*
X159226279Y-86214820D02*
X159226279Y-85978940D01*
X166556520Y-83310580D02*
X166593093Y-83146723D01*
X166593093Y-83146723D02*
X166601043Y-82951987D01*
X166601043Y-82951987D02*
X166604084Y-82749277D01*
X166604084Y-82749277D02*
X166605968Y-82546070D01*
X166605968Y-82546070D02*
X166607421Y-82359880D01*
X168134351Y-81028550D02*
X168220276Y-80911951D01*
X168220276Y-80911951D02*
X168317994Y-80809422D01*
X168317994Y-80809422D02*
X168427399Y-80718522D01*
X168427399Y-80718522D02*
X168495711Y-80676210D01*
X167916651Y-81706600D02*
X167949992Y-81532691D01*
X167949992Y-81532691D02*
X167992916Y-81369630D01*
X167992916Y-81369630D02*
X168044260Y-81218514D01*
X168044260Y-81218514D02*
X168105743Y-81079742D01*
X168105743Y-81079742D02*
X168134351Y-81028550D01*
X167916651Y-82963860D02*
X167897008Y-82783063D01*
X167897008Y-82783063D02*
X167886557Y-82592138D01*
X167886557Y-82592138D02*
X167882232Y-82394407D01*
X167882232Y-82394407D02*
X167883331Y-82194844D01*
X167883331Y-82194844D02*
X167889932Y-82000985D01*
X167889932Y-82000985D02*
X167903465Y-81813241D01*
X167903465Y-81813241D02*
X167916651Y-81706600D01*
X154925309Y-81522860D02*
X155052779Y-81596999D01*
X155052779Y-81596999D02*
X155158394Y-81692569D01*
X155158394Y-81692569D02*
X155242126Y-81809776D01*
X155242126Y-81809776D02*
X155253491Y-81830350D01*
X154613187Y-81463960D02*
X154797319Y-81480409D01*
X154797319Y-81480409D02*
X154925309Y-81522860D01*
X154318517Y-81479460D02*
X154502666Y-81462721D01*
X154502666Y-81462721D02*
X154613187Y-81463960D01*
X153547616Y-85979050D02*
X150154446Y-85974050D01*
X150168995Y-81519700D02*
X150502955Y-81519700D01*
X150168995Y-81696500D02*
X150168995Y-81519700D01*
X154960536Y-82207690D02*
X154905395Y-82062382D01*
X154905395Y-82062382D02*
X154818923Y-81948351D01*
X154818923Y-81948351D02*
X154717199Y-81873910D01*
X154981886Y-83180420D02*
X154981512Y-82979132D01*
X154981512Y-82979132D02*
X154980224Y-82777427D01*
X154980224Y-82777427D02*
X154977646Y-82578985D01*
X154977646Y-82578985D02*
X154972777Y-82383502D01*
X154972777Y-82383502D02*
X154960536Y-82207690D01*
X153754086Y-81941880D02*
X153806546Y-81853480D01*
X165059681Y-86509450D02*
X165059681Y-85979050D01*
X139678723Y-80341710D02*
X139678723Y-81294480D01*
X139487188Y-80341790D02*
X139678723Y-80341710D01*
X153546798Y-84053590D02*
X153351318Y-84053590D01*
X153742278Y-84053590D02*
X153546798Y-84053590D01*
X153748178Y-83203490D02*
X153742278Y-84053590D01*
X153754078Y-82353400D02*
X153748178Y-83203490D01*
X138318767Y-80343240D02*
X138500650Y-80828690D01*
X138158935Y-80337240D02*
X138318767Y-80343240D01*
X136607455Y-81147440D02*
X136677391Y-81014796D01*
X136677391Y-81014796D02*
X136750699Y-80887667D01*
X136750699Y-80887667D02*
X136828796Y-80763516D01*
X136828796Y-80763516D02*
X136910431Y-80644320D01*
X136910431Y-80644320D02*
X137023668Y-80494108D01*
X137023668Y-80494108D02*
X137115169Y-80383697D01*
X137115169Y-80383697D02*
X137210779Y-80277335D01*
X137210779Y-80277335D02*
X137310487Y-80175039D01*
X137310487Y-80175039D02*
X137414269Y-80076824D01*
X137414269Y-80076824D02*
X137522112Y-79982714D01*
X137522112Y-79982714D02*
X137637614Y-79889930D01*
X137637614Y-79889930D02*
X137753183Y-79804537D01*
X137753183Y-79804537D02*
X137873695Y-79722635D01*
X137873695Y-79722635D02*
X137999729Y-79644040D01*
X137999729Y-79644040D02*
X138131925Y-79568642D01*
X138131925Y-79568642D02*
X138246015Y-79508880D01*
X156588936Y-82787060D02*
X156595230Y-82981101D01*
X156595230Y-82981101D02*
X156618140Y-83158740D01*
X156618140Y-83158740D02*
X156663454Y-83318042D01*
X156663454Y-83318042D02*
X156714590Y-83429880D01*
X156982140Y-81879280D02*
X156860387Y-81957527D01*
X156860387Y-81957527D02*
X156762598Y-82061123D01*
X156762598Y-82061123D02*
X156688426Y-82189141D01*
X156688426Y-82189141D02*
X156636634Y-82338991D01*
X156636634Y-82338991D02*
X156604860Y-82507939D01*
X156604860Y-82507939D02*
X156590374Y-82695499D01*
X156590374Y-82695499D02*
X156588936Y-82787060D01*
X157270555Y-81824480D02*
X157084135Y-81838603D01*
X157084135Y-81838603D02*
X156982140Y-81879280D01*
X143062211Y-84760860D02*
X142983581Y-84888551D01*
X142598675Y-80268680D02*
X142695403Y-80374122D01*
X142695403Y-80374122D02*
X142788252Y-80483422D01*
X142788252Y-80483422D02*
X142879086Y-80599244D01*
X142879086Y-80599244D02*
X142963633Y-80716328D01*
X142963633Y-80716328D02*
X143045639Y-80840065D01*
X143045639Y-80840065D02*
X143121287Y-80964914D01*
X143121287Y-80964914D02*
X143192825Y-81094576D01*
X143192825Y-81094576D02*
X143259745Y-81228606D01*
X143259745Y-81228606D02*
X143322470Y-81368546D01*
X143322470Y-81368546D02*
X143380005Y-81512943D01*
X143380005Y-81512943D02*
X143432288Y-81662331D01*
X143432288Y-81662331D02*
X143480218Y-81821063D01*
X143480218Y-81821063D02*
X143521912Y-81984997D01*
X143521912Y-81984997D02*
X143557092Y-82154425D01*
X143557092Y-82154425D02*
X143580520Y-82295450D01*
X165612441Y-83613090D02*
X165723878Y-83702558D01*
X165723878Y-83702558D02*
X165882747Y-83744210D01*
X165882747Y-83744210D02*
X165953331Y-83746770D01*
X155109773Y-84908780D02*
X155114973Y-85257470D01*
X147550759Y-81523380D02*
X147761182Y-81529380D01*
X161701691Y-85979050D02*
X161696691Y-86209870D01*
X147821630Y-82804090D02*
X147754551Y-82629546D01*
X147754551Y-82629546D02*
X147698836Y-82484299D01*
X147698836Y-82484299D02*
X147642875Y-82338146D01*
X147642875Y-82338146D02*
X147585070Y-82186860D01*
X147585070Y-82186860D02*
X147527225Y-82035080D01*
X147527225Y-82035080D02*
X147470651Y-81886133D01*
X147470651Y-81886133D02*
X147414863Y-81738483D01*
X147414863Y-81738483D02*
X147359911Y-81591221D01*
X147359911Y-81591221D02*
X147340335Y-81535380D01*
X154747498Y-86666500D02*
X154742198Y-86323450D01*
X153548064Y-85605460D02*
X153548064Y-85261680D01*
X148038274Y-84733910D02*
X148106424Y-84600782D01*
X148106424Y-84600782D02*
X148167731Y-84460778D01*
X148167731Y-84460778D02*
X148225651Y-84318202D01*
X148225651Y-84318202D02*
X148279944Y-84171000D01*
X148279944Y-84171000D02*
X148302925Y-84084630D01*
X138805211Y-81873220D02*
X138681637Y-81873220D01*
X138928834Y-81873220D02*
X138805211Y-81873220D01*
X159554872Y-81519520D02*
X159568952Y-81735610D01*
X159380213Y-81519520D02*
X159554872Y-81519520D01*
X159205561Y-81519520D02*
X159380213Y-81519520D01*
X159205561Y-82786600D02*
X159205561Y-81519520D01*
X148527184Y-83483850D02*
X148581743Y-83336746D01*
X148581743Y-83336746D02*
X148634281Y-83188908D01*
X148634281Y-83188908D02*
X148687678Y-83037121D01*
X148687678Y-83037121D02*
X148741666Y-82882690D01*
X148741666Y-82882690D02*
X148797220Y-82723004D01*
X148797220Y-82723004D02*
X148850639Y-82568808D01*
X148850639Y-82568808D02*
X148882331Y-82477050D01*
X139678723Y-83013350D02*
X140130552Y-83013350D01*
X139678723Y-82728500D02*
X139678723Y-83013350D01*
X138246015Y-79508880D02*
X138381740Y-79443826D01*
X138381740Y-79443826D02*
X138522173Y-79383237D01*
X138522173Y-79383237D02*
X138668832Y-79326942D01*
X138668832Y-79326942D02*
X138824858Y-79274562D01*
X138824858Y-79274562D02*
X138981441Y-79229504D01*
X138981441Y-79229504D02*
X139145617Y-79190086D01*
X139145617Y-79190086D02*
X139317281Y-79157205D01*
X139317281Y-79157205D02*
X139493829Y-79132087D01*
X139493829Y-79132087D02*
X139677886Y-79115134D01*
X139677886Y-79115134D02*
X139872047Y-79107371D01*
X139872047Y-79107371D02*
X140071463Y-79110177D01*
X140071463Y-79110177D02*
X140260659Y-79122986D01*
X140260659Y-79122986D02*
X140442615Y-79144734D01*
X140442615Y-79144734D02*
X140613890Y-79173814D01*
X140613890Y-79173814D02*
X140780790Y-79210371D01*
X140780790Y-79210371D02*
X140939972Y-79253025D01*
X140939972Y-79253025D02*
X141093731Y-79301699D01*
X141093731Y-79301699D02*
X141240428Y-79355245D01*
X141240428Y-79355245D02*
X141381976Y-79413788D01*
X141381976Y-79413788D02*
X141515682Y-79475580D01*
X161696691Y-86209870D02*
X161691691Y-86440700D01*
X166614421Y-81520070D02*
X166809070Y-81520070D01*
X166607421Y-82359880D02*
X166614421Y-81520070D01*
X168726051Y-84081920D02*
X168574130Y-84032169D01*
X168574130Y-84032169D02*
X168441217Y-83962435D01*
X168441217Y-83962435D02*
X168327303Y-83875654D01*
X168327303Y-83875654D02*
X168229500Y-83772961D01*
X168229500Y-83772961D02*
X168146091Y-83655500D01*
X168146091Y-83655500D02*
X168075943Y-83524722D01*
X168075943Y-83524722D02*
X168018104Y-83382439D01*
X168018104Y-83382439D02*
X167971027Y-83228518D01*
X167971027Y-83228518D02*
X167933759Y-83063103D01*
X167933759Y-83063103D02*
X167916651Y-82963860D01*
X156946421Y-84081370D02*
X156946420Y-84081810D01*
X156714590Y-83429880D02*
X156796179Y-83548745D01*
X156796179Y-83548745D02*
X156901709Y-83643612D01*
X156901709Y-83643612D02*
X157033992Y-83712674D01*
X157033992Y-83712674D02*
X157198186Y-83749262D01*
X157198186Y-83749262D02*
X157390425Y-83741007D01*
X157390425Y-83741007D02*
X157519463Y-83708890D01*
X152485713Y-83651180D02*
X152414858Y-83783081D01*
X152414858Y-83783081D02*
X152321855Y-83888630D01*
X152565163Y-83096210D02*
X152554460Y-83287235D01*
X152554460Y-83287235D02*
X152530666Y-83465903D01*
X152530666Y-83465903D02*
X152493326Y-83629137D01*
X152493326Y-83629137D02*
X152485713Y-83651180D01*
X151220038Y-83395760D02*
X151278968Y-83513630D01*
X139894994Y-86498670D02*
X139693959Y-86497826D01*
X139693959Y-86497826D02*
X139497828Y-86492396D01*
X139497828Y-86492396D02*
X139318213Y-86471874D01*
X139318213Y-86471874D02*
X139187365Y-86445570D01*
X148486784Y-83493850D02*
X148527184Y-83483850D01*
X145022081Y-81609630D02*
X145022081Y-82230100D01*
X145022081Y-80989160D02*
X145022081Y-81609630D01*
X145414009Y-80989160D02*
X145022081Y-80989160D01*
X140970000Y-86360000D02*
X140814404Y-86404913D01*
X140814404Y-86404913D02*
X140653437Y-86444176D01*
X140653437Y-86444176D02*
X140481643Y-86473518D01*
X140481643Y-86473518D02*
X140297823Y-86490298D01*
X140297823Y-86490298D02*
X140102729Y-86497241D01*
X140102729Y-86497241D02*
X139904058Y-86498676D01*
X139904058Y-86498676D02*
X139894994Y-86498670D01*
D12*
X142654285Y-105037142D02*
X143654285Y-108037142D01*
X144654285Y-105037142D01*
X145511428Y-105322857D02*
X145654285Y-105180000D01*
X145940000Y-105037142D01*
X146654285Y-105037142D01*
X146940000Y-105180000D01*
X147082857Y-105322857D01*
X147225714Y-105608571D01*
X147225714Y-105894285D01*
X147082857Y-106322857D01*
X145368571Y-108037142D01*
X147225714Y-108037142D01*
X150797142Y-106894285D02*
X153082857Y-106894285D01*
X156654285Y-105322857D02*
X156797142Y-105180000D01*
X157082857Y-105037142D01*
X157797142Y-105037142D01*
X158082857Y-105180000D01*
X158225714Y-105322857D01*
X158368571Y-105608571D01*
X158368571Y-105894285D01*
X158225714Y-106322857D01*
X156511428Y-108037142D01*
X158368571Y-108037142D01*
X160225714Y-105037142D02*
X160511428Y-105037142D01*
X160797142Y-105180000D01*
X160940000Y-105322857D01*
X161082857Y-105608571D01*
X161225714Y-106180000D01*
X161225714Y-106894285D01*
X161082857Y-107465714D01*
X160940000Y-107751428D01*
X160797142Y-107894285D01*
X160511428Y-108037142D01*
X160225714Y-108037142D01*
X159940000Y-107894285D01*
X159797142Y-107751428D01*
X159654285Y-107465714D01*
X159511428Y-106894285D01*
X159511428Y-106180000D01*
X159654285Y-105608571D01*
X159797142Y-105322857D01*
X159940000Y-105180000D01*
X160225714Y-105037142D01*
X164082857Y-108037142D02*
X162368571Y-108037142D01*
X163225714Y-108037142D02*
X163225714Y-105037142D01*
X162940000Y-105465714D01*
X162654285Y-105751428D01*
X162368571Y-105894285D01*
X165511428Y-108037142D02*
X166082857Y-108037142D01*
X166368571Y-107894285D01*
X166511428Y-107751428D01*
X166797142Y-107322857D01*
X166940000Y-106751428D01*
X166940000Y-105608571D01*
X166797142Y-105322857D01*
X166654285Y-105180000D01*
X166368571Y-105037142D01*
X165797142Y-105037142D01*
X165511428Y-105180000D01*
X165368571Y-105322857D01*
X165225714Y-105608571D01*
X165225714Y-106322857D01*
X165368571Y-106608571D01*
X165511428Y-106751428D01*
X165797142Y-106894285D01*
X166368571Y-106894285D01*
X166654285Y-106751428D01*
X166797142Y-106608571D01*
X166940000Y-106322857D01*
D13*
X118110000Y-74930000D02*
X129540000Y-74930000D01*
X118110000Y-66040000D02*
X118110000Y-74930000D01*
X129540000Y-66040000D02*
X118110000Y-66040000D01*
X129540000Y-74930000D02*
X129540000Y-66040000D01*
X132080000Y-74930000D02*
X143510000Y-74930000D01*
X132080000Y-66040000D02*
X132080000Y-74930000D01*
X143510000Y-66040000D02*
X132080000Y-66040000D01*
X143510000Y-74930000D02*
X143510000Y-66040000D01*
X146050000Y-74930000D02*
X157480000Y-74930000D01*
X146050000Y-66040000D02*
X146050000Y-74930000D01*
X157480000Y-66040000D02*
X146050000Y-66040000D01*
X157480000Y-74930000D02*
X157480000Y-66040000D01*
X171450000Y-74930000D02*
X160020000Y-74930000D01*
X171450000Y-66040000D02*
X171450000Y-74930000D01*
X160020000Y-66040000D02*
X171450000Y-66040000D01*
X160020000Y-74930000D02*
X160020000Y-66040000D01*
X171450000Y-64770000D02*
X160020000Y-64770000D01*
X171450000Y-55880000D02*
X171450000Y-64770000D01*
X160020000Y-55880000D02*
X171450000Y-55880000D01*
X160020000Y-64770000D02*
X160020000Y-55880000D01*
X157480000Y-64770000D02*
X146050000Y-64770000D01*
X157480000Y-55880000D02*
X157480000Y-64770000D01*
X146050000Y-55880000D02*
X157480000Y-55880000D01*
X146050000Y-64770000D02*
X146050000Y-55880000D01*
X143510000Y-64770000D02*
X132080000Y-64770000D01*
X143510000Y-55880000D02*
X143510000Y-64770000D01*
X132080000Y-55880000D02*
X143510000Y-55880000D01*
X132080000Y-64770000D02*
X132080000Y-55880000D01*
X118110000Y-55880000D02*
X118110000Y-64770000D01*
X129540000Y-55880000D02*
X118110000Y-55880000D01*
X129540000Y-64770000D02*
X129540000Y-55880000D01*
X118110000Y-64770000D02*
X129540000Y-64770000D01*
X116840000Y-77470000D02*
X116840000Y-90170000D01*
X134620000Y-77470000D02*
X116840000Y-77470000D01*
X134620000Y-90170000D02*
X134620000Y-77470000D01*
X116840000Y-90170000D02*
X134620000Y-90170000D01*
X127000000Y-124460000D02*
X127000000Y-121920000D01*
X129540000Y-124460000D02*
X129540000Y-121920000D01*
X132080000Y-124460000D02*
X132080000Y-121920000D01*
X134620000Y-124460000D02*
X134620000Y-121920000D01*
X137160000Y-124460000D02*
X137160000Y-121920000D01*
X139700000Y-124460000D02*
X139700000Y-121920000D01*
X142240000Y-124460000D02*
X142240000Y-121920000D01*
X144780000Y-124460000D02*
X144780000Y-121920000D01*
X147320000Y-124460000D02*
X147320000Y-121920000D01*
X149860000Y-124460000D02*
X149860000Y-121920000D01*
X152400000Y-124460000D02*
X152400000Y-121920000D01*
X154940000Y-124460000D02*
X154940000Y-121920000D01*
X157480000Y-124460000D02*
X157480000Y-121920000D01*
X160020000Y-124460000D02*
X160020000Y-121920000D01*
X162560000Y-124460000D02*
X162560000Y-121920000D01*
X165100000Y-124460000D02*
X165100000Y-121920000D01*
D14*
X165552380Y-128214285D02*
X164552380Y-128214285D01*
X164552380Y-127976190D01*
X164600000Y-127833333D01*
X164695238Y-127738095D01*
X164790476Y-127690476D01*
X164980952Y-127642857D01*
X165123809Y-127642857D01*
X165314285Y-127690476D01*
X165409523Y-127738095D01*
X165504761Y-127833333D01*
X165552380Y-127976190D01*
X165552380Y-128214285D01*
X165552380Y-126690476D02*
X165552380Y-127261904D01*
X165552380Y-126976190D02*
X164552380Y-126976190D01*
X164695238Y-127071428D01*
X164790476Y-127166666D01*
X164838095Y-127261904D01*
X164552380Y-126357142D02*
X164552380Y-125738095D01*
X164933333Y-126071428D01*
X164933333Y-125928571D01*
X164980952Y-125833333D01*
X165028571Y-125785714D01*
X165123809Y-125738095D01*
X165361904Y-125738095D01*
X165457142Y-125785714D01*
X165504761Y-125833333D01*
X165552380Y-125928571D01*
X165552380Y-126214285D01*
X165504761Y-126309523D01*
X165457142Y-126357142D01*
X127207142Y-102798571D02*
X126873809Y-102798571D01*
X126873809Y-103322380D02*
X126873809Y-102322380D01*
X127350000Y-102322380D01*
X128159523Y-103322380D02*
X128159523Y-102798571D01*
X128111904Y-102703333D01*
X128016666Y-102655714D01*
X127826190Y-102655714D01*
X127730952Y-102703333D01*
X128159523Y-103274761D02*
X128064285Y-103322380D01*
X127826190Y-103322380D01*
X127730952Y-103274761D01*
X127683333Y-103179523D01*
X127683333Y-103084285D01*
X127730952Y-102989047D01*
X127826190Y-102941428D01*
X128064285Y-102941428D01*
X128159523Y-102893809D01*
X128635714Y-103322380D02*
X128635714Y-102322380D01*
X128635714Y-102703333D02*
X128730952Y-102655714D01*
X128921428Y-102655714D01*
X129016666Y-102703333D01*
X129064285Y-102750952D01*
X129111904Y-102846190D01*
X129111904Y-103131904D01*
X129064285Y-103227142D01*
X129016666Y-103274761D01*
X128921428Y-103322380D01*
X128730952Y-103322380D01*
X128635714Y-103274761D01*
X129540476Y-103322380D02*
X129540476Y-102655714D01*
X129540476Y-102846190D02*
X129588095Y-102750952D01*
X129635714Y-102703333D01*
X129730952Y-102655714D01*
X129826190Y-102655714D01*
X130159523Y-103322380D02*
X130159523Y-102655714D01*
X130159523Y-102322380D02*
X130111904Y-102370000D01*
X130159523Y-102417619D01*
X130207142Y-102370000D01*
X130159523Y-102322380D01*
X130159523Y-102417619D01*
X131064285Y-103274761D02*
X130969047Y-103322380D01*
X130778571Y-103322380D01*
X130683333Y-103274761D01*
X130635714Y-103227142D01*
X130588095Y-103131904D01*
X130588095Y-102846190D01*
X130635714Y-102750952D01*
X130683333Y-102703333D01*
X130778571Y-102655714D01*
X130969047Y-102655714D01*
X131064285Y-102703333D01*
X131921428Y-103322380D02*
X131921428Y-102798571D01*
X131873809Y-102703333D01*
X131778571Y-102655714D01*
X131588095Y-102655714D01*
X131492857Y-102703333D01*
X131921428Y-103274761D02*
X131826190Y-103322380D01*
X131588095Y-103322380D01*
X131492857Y-103274761D01*
X131445238Y-103179523D01*
X131445238Y-103084285D01*
X131492857Y-102989047D01*
X131588095Y-102941428D01*
X131826190Y-102941428D01*
X131921428Y-102893809D01*
X132254761Y-102655714D02*
X132635714Y-102655714D01*
X132397619Y-102322380D02*
X132397619Y-103179523D01*
X132445238Y-103274761D01*
X132540476Y-103322380D01*
X132635714Y-103322380D01*
X132969047Y-103322380D02*
X132969047Y-102655714D01*
X132969047Y-102322380D02*
X132921428Y-102370000D01*
X132969047Y-102417619D01*
X133016666Y-102370000D01*
X132969047Y-102322380D01*
X132969047Y-102417619D01*
X133588095Y-103322380D02*
X133492857Y-103274761D01*
X133445238Y-103227142D01*
X133397619Y-103131904D01*
X133397619Y-102846190D01*
X133445238Y-102750952D01*
X133492857Y-102703333D01*
X133588095Y-102655714D01*
X133730952Y-102655714D01*
X133826190Y-102703333D01*
X133873809Y-102750952D01*
X133921428Y-102846190D01*
X133921428Y-103131904D01*
X133873809Y-103227142D01*
X133826190Y-103274761D01*
X133730952Y-103322380D01*
X133588095Y-103322380D01*
X134350000Y-102655714D02*
X134350000Y-103322380D01*
X134350000Y-102750952D02*
X134397619Y-102703333D01*
X134492857Y-102655714D01*
X134635714Y-102655714D01*
X134730952Y-102703333D01*
X134778571Y-102798571D01*
X134778571Y-103322380D01*
X136016666Y-103227142D02*
X136064285Y-103274761D01*
X136016666Y-103322380D01*
X135969047Y-103274761D01*
X136016666Y-103227142D01*
X136016666Y-103322380D01*
X136016666Y-102703333D02*
X136064285Y-102750952D01*
X136016666Y-102798571D01*
X135969047Y-102750952D01*
X136016666Y-102703333D01*
X136016666Y-102798571D01*
X137254761Y-103322380D02*
X137254761Y-102322380D01*
X137588095Y-103036666D01*
X137921428Y-102322380D01*
X137921428Y-103322380D01*
X138397619Y-102798571D02*
X138730952Y-102798571D01*
X138873809Y-103322380D02*
X138397619Y-103322380D01*
X138397619Y-102322380D01*
X138873809Y-102322380D01*
X139302380Y-103322380D02*
X139302380Y-102322380D01*
X139683333Y-102322380D01*
X139778571Y-102370000D01*
X139826190Y-102417619D01*
X139873809Y-102512857D01*
X139873809Y-102655714D01*
X139826190Y-102750952D01*
X139778571Y-102798571D01*
X139683333Y-102846190D01*
X139302380Y-102846190D01*
X126755714Y-98687380D02*
X126755714Y-97687380D01*
X126993809Y-97687380D01*
X127136666Y-97735000D01*
X127231904Y-97830238D01*
X127279523Y-97925476D01*
X127327142Y-98115952D01*
X127327142Y-98258809D01*
X127279523Y-98449285D01*
X127231904Y-98544523D01*
X127136666Y-98639761D01*
X126993809Y-98687380D01*
X126755714Y-98687380D01*
X128136666Y-98639761D02*
X128041428Y-98687380D01*
X127850952Y-98687380D01*
X127755714Y-98639761D01*
X127708095Y-98544523D01*
X127708095Y-98163571D01*
X127755714Y-98068333D01*
X127850952Y-98020714D01*
X128041428Y-98020714D01*
X128136666Y-98068333D01*
X128184285Y-98163571D01*
X128184285Y-98258809D01*
X127708095Y-98354047D01*
X128565238Y-98639761D02*
X128660476Y-98687380D01*
X128850952Y-98687380D01*
X128946190Y-98639761D01*
X128993809Y-98544523D01*
X128993809Y-98496904D01*
X128946190Y-98401666D01*
X128850952Y-98354047D01*
X128708095Y-98354047D01*
X128612857Y-98306428D01*
X128565238Y-98211190D01*
X128565238Y-98163571D01*
X128612857Y-98068333D01*
X128708095Y-98020714D01*
X128850952Y-98020714D01*
X128946190Y-98068333D01*
X129422380Y-98687380D02*
X129422380Y-98020714D01*
X129422380Y-97687380D02*
X129374761Y-97735000D01*
X129422380Y-97782619D01*
X129470000Y-97735000D01*
X129422380Y-97687380D01*
X129422380Y-97782619D01*
X130327142Y-98020714D02*
X130327142Y-98830238D01*
X130279523Y-98925476D01*
X130231904Y-98973095D01*
X130136666Y-99020714D01*
X129993809Y-99020714D01*
X129898571Y-98973095D01*
X130327142Y-98639761D02*
X130231904Y-98687380D01*
X130041428Y-98687380D01*
X129946190Y-98639761D01*
X129898571Y-98592142D01*
X129850952Y-98496904D01*
X129850952Y-98211190D01*
X129898571Y-98115952D01*
X129946190Y-98068333D01*
X130041428Y-98020714D01*
X130231904Y-98020714D01*
X130327142Y-98068333D01*
X130803333Y-98020714D02*
X130803333Y-98687380D01*
X130803333Y-98115952D02*
X130850952Y-98068333D01*
X130946190Y-98020714D01*
X131089047Y-98020714D01*
X131184285Y-98068333D01*
X131231904Y-98163571D01*
X131231904Y-98687380D01*
X132850952Y-98639761D02*
X132755714Y-98687380D01*
X132565238Y-98687380D01*
X132470000Y-98639761D01*
X132422380Y-98544523D01*
X132422380Y-98163571D01*
X132470000Y-98068333D01*
X132565238Y-98020714D01*
X132755714Y-98020714D01*
X132850952Y-98068333D01*
X132898571Y-98163571D01*
X132898571Y-98258809D01*
X132422380Y-98354047D01*
X133184285Y-98020714D02*
X133565238Y-98020714D01*
X133327142Y-97687380D02*
X133327142Y-98544523D01*
X133374761Y-98639761D01*
X133470000Y-98687380D01*
X133565238Y-98687380D01*
X135089047Y-98639761D02*
X134993809Y-98687380D01*
X134803333Y-98687380D01*
X134708095Y-98639761D01*
X134660476Y-98592142D01*
X134612857Y-98496904D01*
X134612857Y-98211190D01*
X134660476Y-98115952D01*
X134708095Y-98068333D01*
X134803333Y-98020714D01*
X134993809Y-98020714D01*
X135089047Y-98068333D01*
X135660476Y-98687380D02*
X135565238Y-98639761D01*
X135517619Y-98592142D01*
X135470000Y-98496904D01*
X135470000Y-98211190D01*
X135517619Y-98115952D01*
X135565238Y-98068333D01*
X135660476Y-98020714D01*
X135803333Y-98020714D01*
X135898571Y-98068333D01*
X135946190Y-98115952D01*
X135993809Y-98211190D01*
X135993809Y-98496904D01*
X135946190Y-98592142D01*
X135898571Y-98639761D01*
X135803333Y-98687380D01*
X135660476Y-98687380D01*
X136422380Y-98020714D02*
X136422380Y-98687380D01*
X136422380Y-98115952D02*
X136470000Y-98068333D01*
X136565238Y-98020714D01*
X136708095Y-98020714D01*
X136803333Y-98068333D01*
X136850952Y-98163571D01*
X136850952Y-98687380D01*
X137755714Y-98639761D02*
X137660476Y-98687380D01*
X137470000Y-98687380D01*
X137374761Y-98639761D01*
X137327142Y-98592142D01*
X137279523Y-98496904D01*
X137279523Y-98211190D01*
X137327142Y-98115952D01*
X137374761Y-98068333D01*
X137470000Y-98020714D01*
X137660476Y-98020714D01*
X137755714Y-98068333D01*
X138565238Y-98639761D02*
X138470000Y-98687380D01*
X138279523Y-98687380D01*
X138184285Y-98639761D01*
X138136666Y-98544523D01*
X138136666Y-98163571D01*
X138184285Y-98068333D01*
X138279523Y-98020714D01*
X138470000Y-98020714D01*
X138565238Y-98068333D01*
X138612857Y-98163571D01*
X138612857Y-98258809D01*
X138136666Y-98354047D01*
X139041428Y-98020714D02*
X139041428Y-99020714D01*
X139041428Y-98068333D02*
X139136666Y-98020714D01*
X139327142Y-98020714D01*
X139422380Y-98068333D01*
X139470000Y-98115952D01*
X139517619Y-98211190D01*
X139517619Y-98496904D01*
X139470000Y-98592142D01*
X139422380Y-98639761D01*
X139327142Y-98687380D01*
X139136666Y-98687380D01*
X139041428Y-98639761D01*
X139803333Y-98020714D02*
X140184285Y-98020714D01*
X139946190Y-97687380D02*
X139946190Y-98544523D01*
X139993809Y-98639761D01*
X140089047Y-98687380D01*
X140184285Y-98687380D01*
X140517619Y-98687380D02*
X140517619Y-98020714D01*
X140517619Y-97687380D02*
X140470000Y-97735000D01*
X140517619Y-97782619D01*
X140565238Y-97735000D01*
X140517619Y-97687380D01*
X140517619Y-97782619D01*
X141136666Y-98687380D02*
X141041428Y-98639761D01*
X140993809Y-98592142D01*
X140946190Y-98496904D01*
X140946190Y-98211190D01*
X140993809Y-98115952D01*
X141041428Y-98068333D01*
X141136666Y-98020714D01*
X141279523Y-98020714D01*
X141374761Y-98068333D01*
X141422380Y-98115952D01*
X141470000Y-98211190D01*
X141470000Y-98496904D01*
X141422380Y-98592142D01*
X141374761Y-98639761D01*
X141279523Y-98687380D01*
X141136666Y-98687380D01*
X141898571Y-98020714D02*
X141898571Y-98687380D01*
X141898571Y-98115952D02*
X141946190Y-98068333D01*
X142041428Y-98020714D01*
X142184285Y-98020714D01*
X142279523Y-98068333D01*
X142327142Y-98163571D01*
X142327142Y-98687380D01*
X143565238Y-98592142D02*
X143612857Y-98639761D01*
X143565238Y-98687380D01*
X143517619Y-98639761D01*
X143565238Y-98592142D01*
X143565238Y-98687380D01*
X143565238Y-98068333D02*
X143612857Y-98115952D01*
X143565238Y-98163571D01*
X143517619Y-98115952D01*
X143565238Y-98068333D01*
X143565238Y-98163571D01*
X144993809Y-97687380D02*
X145184285Y-97687380D01*
X145279523Y-97735000D01*
X145374761Y-97830238D01*
X145422380Y-98020714D01*
X145422380Y-98354047D01*
X145374761Y-98544523D01*
X145279523Y-98639761D01*
X145184285Y-98687380D01*
X144993809Y-98687380D01*
X144898571Y-98639761D01*
X144803333Y-98544523D01*
X144755714Y-98354047D01*
X144755714Y-98020714D01*
X144803333Y-97830238D01*
X144898571Y-97735000D01*
X144993809Y-97687380D01*
X145993809Y-98687380D02*
X145898571Y-98639761D01*
X145850952Y-98544523D01*
X145850952Y-97687380D01*
X146374761Y-98687380D02*
X146374761Y-98020714D01*
X146374761Y-97687380D02*
X146327142Y-97735000D01*
X146374761Y-97782619D01*
X146422380Y-97735000D01*
X146374761Y-97687380D01*
X146374761Y-97782619D01*
X146755714Y-98020714D02*
X146993809Y-98687380D01*
X147231904Y-98020714D01*
X147612857Y-98687380D02*
X147612857Y-98020714D01*
X147612857Y-97687380D02*
X147565238Y-97735000D01*
X147612857Y-97782619D01*
X147660476Y-97735000D01*
X147612857Y-97687380D01*
X147612857Y-97782619D01*
X148470000Y-98639761D02*
X148374761Y-98687380D01*
X148184285Y-98687380D01*
X148089047Y-98639761D01*
X148041428Y-98544523D01*
X148041428Y-98163571D01*
X148089047Y-98068333D01*
X148184285Y-98020714D01*
X148374761Y-98020714D01*
X148470000Y-98068333D01*
X148517619Y-98163571D01*
X148517619Y-98258809D01*
X148041428Y-98354047D01*
X148946190Y-98687380D02*
X148946190Y-98020714D01*
X148946190Y-98211190D02*
X148993809Y-98115952D01*
X149041428Y-98068333D01*
X149136666Y-98020714D01*
X149231904Y-98020714D01*
X150660476Y-98163571D02*
X150803333Y-98211190D01*
X150850952Y-98258809D01*
X150898571Y-98354047D01*
X150898571Y-98496904D01*
X150850952Y-98592142D01*
X150803333Y-98639761D01*
X150708095Y-98687380D01*
X150327142Y-98687380D01*
X150327142Y-97687380D01*
X150660476Y-97687380D01*
X150755714Y-97735000D01*
X150803333Y-97782619D01*
X150850952Y-97877857D01*
X150850952Y-97973095D01*
X150803333Y-98068333D01*
X150755714Y-98115952D01*
X150660476Y-98163571D01*
X150327142Y-98163571D01*
X151470000Y-98687380D02*
X151374761Y-98639761D01*
X151327142Y-98592142D01*
X151279523Y-98496904D01*
X151279523Y-98211190D01*
X151327142Y-98115952D01*
X151374761Y-98068333D01*
X151470000Y-98020714D01*
X151612857Y-98020714D01*
X151708095Y-98068333D01*
X151755714Y-98115952D01*
X151803333Y-98211190D01*
X151803333Y-98496904D01*
X151755714Y-98592142D01*
X151708095Y-98639761D01*
X151612857Y-98687380D01*
X151470000Y-98687380D01*
X152612857Y-98639761D02*
X152517619Y-98687380D01*
X152327142Y-98687380D01*
X152231904Y-98639761D01*
X152184285Y-98544523D01*
X152184285Y-98163571D01*
X152231904Y-98068333D01*
X152327142Y-98020714D01*
X152517619Y-98020714D01*
X152612857Y-98068333D01*
X152660476Y-98163571D01*
X152660476Y-98258809D01*
X152184285Y-98354047D01*
X153041428Y-98639761D02*
X153136666Y-98687380D01*
X153327142Y-98687380D01*
X153422380Y-98639761D01*
X153470000Y-98544523D01*
X153470000Y-98496904D01*
X153422380Y-98401666D01*
X153327142Y-98354047D01*
X153184285Y-98354047D01*
X153089047Y-98306428D01*
X153041428Y-98211190D01*
X153041428Y-98163571D01*
X153089047Y-98068333D01*
X153184285Y-98020714D01*
X153327142Y-98020714D01*
X153422380Y-98068333D01*
X154327142Y-98639761D02*
X154231904Y-98687380D01*
X154041428Y-98687380D01*
X153946190Y-98639761D01*
X153898571Y-98592142D01*
X153850952Y-98496904D01*
X153850952Y-98211190D01*
X153898571Y-98115952D01*
X153946190Y-98068333D01*
X154041428Y-98020714D01*
X154231904Y-98020714D01*
X154327142Y-98068333D01*
X154755714Y-98687380D02*
X154755714Y-97687380D01*
X155184285Y-98687380D02*
X155184285Y-98163571D01*
X155136666Y-98068333D01*
X155041428Y-98020714D01*
X154898571Y-98020714D01*
X154803333Y-98068333D01*
X154755714Y-98115952D01*
X145017619Y-100242142D02*
X144969999Y-100289761D01*
X144827142Y-100337380D01*
X144731904Y-100337380D01*
X144589047Y-100289761D01*
X144493809Y-100194523D01*
X144446190Y-100099285D01*
X144398571Y-99908809D01*
X144398571Y-99765952D01*
X144446190Y-99575476D01*
X144493809Y-99480238D01*
X144589047Y-99385000D01*
X144731904Y-99337380D01*
X144827142Y-99337380D01*
X144969999Y-99385000D01*
X145017619Y-99432619D01*
X145446190Y-100337380D02*
X145446190Y-99670714D01*
X145446190Y-99337380D02*
X145398571Y-99385000D01*
X145446190Y-99432619D01*
X145493809Y-99385000D01*
X145446190Y-99337380D01*
X145446190Y-99432619D01*
X145922380Y-100337380D02*
X145922380Y-99670714D01*
X145922380Y-99861190D02*
X145970000Y-99765952D01*
X146017619Y-99718333D01*
X146112857Y-99670714D01*
X146208095Y-99670714D01*
X146970000Y-100289761D02*
X146874761Y-100337380D01*
X146684285Y-100337380D01*
X146589047Y-100289761D01*
X146541428Y-100242142D01*
X146493809Y-100146904D01*
X146493809Y-99861190D01*
X146541428Y-99765952D01*
X146589047Y-99718333D01*
X146684285Y-99670714D01*
X146874761Y-99670714D01*
X146970000Y-99718333D01*
X147827142Y-99670714D02*
X147827142Y-100337380D01*
X147398571Y-99670714D02*
X147398571Y-100194523D01*
X147446190Y-100289761D01*
X147541428Y-100337380D01*
X147684285Y-100337380D01*
X147779523Y-100289761D01*
X147827142Y-100242142D01*
X148303333Y-100337380D02*
X148303333Y-99670714D01*
X148303333Y-99337380D02*
X148255714Y-99385000D01*
X148303333Y-99432619D01*
X148350952Y-99385000D01*
X148303333Y-99337380D01*
X148303333Y-99432619D01*
X148636666Y-99670714D02*
X149017619Y-99670714D01*
X148779523Y-99337380D02*
X148779523Y-100194523D01*
X148827142Y-100289761D01*
X148922380Y-100337380D01*
X149017619Y-100337380D01*
X149350952Y-100337380D02*
X149350952Y-99337380D01*
X149731904Y-99337380D01*
X149827142Y-99385000D01*
X149874761Y-99432619D01*
X149922380Y-99527857D01*
X149922380Y-99670714D01*
X149874761Y-99765952D01*
X149827142Y-99813571D01*
X149731904Y-99861190D01*
X149350952Y-99861190D01*
X150255714Y-99670714D02*
X150493809Y-100337380D01*
X150731904Y-99670714D02*
X150493809Y-100337380D01*
X150398571Y-100575476D01*
X150350952Y-100623095D01*
X150255714Y-100670714D01*
X150970000Y-99670714D02*
X151350952Y-99670714D01*
X151112857Y-99337380D02*
X151112857Y-100194523D01*
X151160476Y-100289761D01*
X151255714Y-100337380D01*
X151350952Y-100337380D01*
X151684285Y-100337380D02*
X151684285Y-99337380D01*
X152112857Y-100337380D02*
X152112857Y-99813571D01*
X152065238Y-99718333D01*
X151969999Y-99670714D01*
X151827142Y-99670714D01*
X151731904Y-99718333D01*
X151684285Y-99765952D01*
X152731904Y-100337380D02*
X152636666Y-100289761D01*
X152589047Y-100242142D01*
X152541428Y-100146904D01*
X152541428Y-99861190D01*
X152589047Y-99765952D01*
X152636666Y-99718333D01*
X152731904Y-99670714D01*
X152874761Y-99670714D01*
X152969999Y-99718333D01*
X153017619Y-99765952D01*
X153065238Y-99861190D01*
X153065238Y-100146904D01*
X153017619Y-100242142D01*
X152969999Y-100289761D01*
X152874761Y-100337380D01*
X152731904Y-100337380D01*
X153493809Y-99670714D02*
X153493809Y-100337380D01*
X153493809Y-99765952D02*
X153541428Y-99718333D01*
X153636666Y-99670714D01*
X153779523Y-99670714D01*
X153874761Y-99718333D01*
X153922380Y-99813571D01*
X153922380Y-100337380D01*
X155589047Y-100337380D02*
X155589047Y-99813571D01*
X155541428Y-99718333D01*
X155446190Y-99670714D01*
X155255714Y-99670714D01*
X155160476Y-99718333D01*
X155589047Y-100289761D02*
X155493809Y-100337380D01*
X155255714Y-100337380D01*
X155160476Y-100289761D01*
X155112857Y-100194523D01*
X155112857Y-100099285D01*
X155160476Y-100004047D01*
X155255714Y-99956428D01*
X155493809Y-99956428D01*
X155589047Y-99908809D01*
X156493809Y-99670714D02*
X156493809Y-100337380D01*
X156065238Y-99670714D02*
X156065238Y-100194523D01*
X156112857Y-100289761D01*
X156208095Y-100337380D01*
X156350952Y-100337380D01*
X156446190Y-100289761D01*
X156493809Y-100242142D01*
X157874761Y-100337380D02*
X157779523Y-100289761D01*
X157731904Y-100194523D01*
X157731904Y-99337380D01*
X158160476Y-99670714D02*
X158398571Y-100337380D01*
X158636666Y-99670714D02*
X158398571Y-100337380D01*
X158303333Y-100575476D01*
X158255714Y-100623095D01*
X158160476Y-100670714D01*
X159446190Y-100289761D02*
X159350952Y-100337380D01*
X159160476Y-100337380D01*
X159065238Y-100289761D01*
X159017619Y-100242142D01*
X158969999Y-100146904D01*
X158969999Y-99861190D01*
X159017619Y-99765952D01*
X159065238Y-99718333D01*
X159160476Y-99670714D01*
X159350952Y-99670714D01*
X159446190Y-99718333D01*
X160255714Y-100289761D02*
X160160476Y-100337380D01*
X159969999Y-100337380D01*
X159874761Y-100289761D01*
X159827142Y-100194523D01*
X159827142Y-99813571D01*
X159874761Y-99718333D01*
X159969999Y-99670714D01*
X160160476Y-99670714D01*
X160255714Y-99718333D01*
X160303333Y-99813571D01*
X160303333Y-99908809D01*
X159827142Y-100004047D01*
X160160476Y-99289761D02*
X160017619Y-99432619D01*
X161112857Y-100289761D02*
X161017619Y-100337380D01*
X160827142Y-100337380D01*
X160731904Y-100289761D01*
X160684285Y-100194523D01*
X160684285Y-99813571D01*
X160731904Y-99718333D01*
X160827142Y-99670714D01*
X161017619Y-99670714D01*
X161112857Y-99718333D01*
X161160476Y-99813571D01*
X161160476Y-99908809D01*
X160684285Y-100004047D01*
X157932380Y-128214285D02*
X156932380Y-128214285D01*
X156932380Y-127976190D01*
X156980000Y-127833333D01*
X157075238Y-127738095D01*
X157170476Y-127690476D01*
X157360952Y-127642857D01*
X157503809Y-127642857D01*
X157694285Y-127690476D01*
X157789523Y-127738095D01*
X157884761Y-127833333D01*
X157932380Y-127976190D01*
X157932380Y-128214285D01*
X157932380Y-126690476D02*
X157932380Y-127261904D01*
X157932380Y-126976190D02*
X156932380Y-126976190D01*
X157075238Y-127071428D01*
X157170476Y-127166666D01*
X157218095Y-127261904D01*
X156932380Y-126071428D02*
X156932380Y-125976190D01*
X156980000Y-125880952D01*
X157027619Y-125833333D01*
X157122857Y-125785714D01*
X157313333Y-125738095D01*
X157551428Y-125738095D01*
X157741904Y-125785714D01*
X157837142Y-125833333D01*
X157884761Y-125880952D01*
X157932380Y-125976190D01*
X157932380Y-126071428D01*
X157884761Y-126166666D01*
X157837142Y-126214285D01*
X157741904Y-126261904D01*
X157551428Y-126309523D01*
X157313333Y-126309523D01*
X157122857Y-126261904D01*
X157027619Y-126214285D01*
X156980000Y-126166666D01*
X156932380Y-126071428D01*
X163012380Y-128214285D02*
X162012380Y-128214285D01*
X162012380Y-127976190D01*
X162060000Y-127833333D01*
X162155238Y-127738095D01*
X162250476Y-127690476D01*
X162440952Y-127642857D01*
X162583809Y-127642857D01*
X162774285Y-127690476D01*
X162869523Y-127738095D01*
X162964761Y-127833333D01*
X163012380Y-127976190D01*
X163012380Y-128214285D01*
X163012380Y-126690476D02*
X163012380Y-127261904D01*
X163012380Y-126976190D02*
X162012380Y-126976190D01*
X162155238Y-127071428D01*
X162250476Y-127166666D01*
X162298095Y-127261904D01*
X162107619Y-126309523D02*
X162060000Y-126261904D01*
X162012380Y-126166666D01*
X162012380Y-125928571D01*
X162060000Y-125833333D01*
X162107619Y-125785714D01*
X162202857Y-125738095D01*
X162298095Y-125738095D01*
X162440952Y-125785714D01*
X163012380Y-126357142D01*
X163012380Y-125738095D01*
X160472380Y-128214285D02*
X159472380Y-128214285D01*
X159472380Y-127976190D01*
X159520000Y-127833333D01*
X159615238Y-127738095D01*
X159710476Y-127690476D01*
X159900952Y-127642857D01*
X160043809Y-127642857D01*
X160234285Y-127690476D01*
X160329523Y-127738095D01*
X160424761Y-127833333D01*
X160472380Y-127976190D01*
X160472380Y-128214285D01*
X160472380Y-126690476D02*
X160472380Y-127261904D01*
X160472380Y-126976190D02*
X159472380Y-126976190D01*
X159615238Y-127071428D01*
X159710476Y-127166666D01*
X159758095Y-127261904D01*
X160472380Y-125738095D02*
X160472380Y-126309523D01*
X160472380Y-126023809D02*
X159472380Y-126023809D01*
X159615238Y-126119047D01*
X159710476Y-126214285D01*
X159758095Y-126309523D01*
X155392380Y-127738095D02*
X154392380Y-127738095D01*
X154392380Y-127500000D01*
X154440000Y-127357142D01*
X154535238Y-127261904D01*
X154630476Y-127214285D01*
X154820952Y-127166666D01*
X154963809Y-127166666D01*
X155154285Y-127214285D01*
X155249523Y-127261904D01*
X155344761Y-127357142D01*
X155392380Y-127500000D01*
X155392380Y-127738095D01*
X155392380Y-126690476D02*
X155392380Y-126500000D01*
X155344761Y-126404761D01*
X155297142Y-126357142D01*
X155154285Y-126261904D01*
X154963809Y-126214285D01*
X154582857Y-126214285D01*
X154487619Y-126261904D01*
X154440000Y-126309523D01*
X154392380Y-126404761D01*
X154392380Y-126595238D01*
X154440000Y-126690476D01*
X154487619Y-126738095D01*
X154582857Y-126785714D01*
X154820952Y-126785714D01*
X154916190Y-126738095D01*
X154963809Y-126690476D01*
X155011428Y-126595238D01*
X155011428Y-126404761D01*
X154963809Y-126309523D01*
X154916190Y-126261904D01*
X154820952Y-126214285D01*
X152852380Y-127738095D02*
X151852380Y-127738095D01*
X151852380Y-127500000D01*
X151900000Y-127357142D01*
X151995238Y-127261904D01*
X152090476Y-127214285D01*
X152280952Y-127166666D01*
X152423809Y-127166666D01*
X152614285Y-127214285D01*
X152709523Y-127261904D01*
X152804761Y-127357142D01*
X152852380Y-127500000D01*
X152852380Y-127738095D01*
X151852380Y-126309523D02*
X151852380Y-126500000D01*
X151900000Y-126595238D01*
X151947619Y-126642857D01*
X152090476Y-126738095D01*
X152280952Y-126785714D01*
X152661904Y-126785714D01*
X152757142Y-126738095D01*
X152804761Y-126690476D01*
X152852380Y-126595238D01*
X152852380Y-126404761D01*
X152804761Y-126309523D01*
X152757142Y-126261904D01*
X152661904Y-126214285D01*
X152423809Y-126214285D01*
X152328571Y-126261904D01*
X152280952Y-126309523D01*
X152233333Y-126404761D01*
X152233333Y-126595238D01*
X152280952Y-126690476D01*
X152328571Y-126738095D01*
X152423809Y-126785714D01*
X150312380Y-127738095D02*
X149312380Y-127738095D01*
X149312380Y-127500000D01*
X149360000Y-127357142D01*
X149455238Y-127261904D01*
X149550476Y-127214285D01*
X149740952Y-127166666D01*
X149883809Y-127166666D01*
X150074285Y-127214285D01*
X150169523Y-127261904D01*
X150264761Y-127357142D01*
X150312380Y-127500000D01*
X150312380Y-127738095D01*
X149312380Y-126261904D02*
X149312380Y-126738095D01*
X149788571Y-126785714D01*
X149740952Y-126738095D01*
X149693333Y-126642857D01*
X149693333Y-126404761D01*
X149740952Y-126309523D01*
X149788571Y-126261904D01*
X149883809Y-126214285D01*
X150121904Y-126214285D01*
X150217142Y-126261904D01*
X150264761Y-126309523D01*
X150312380Y-126404761D01*
X150312380Y-126642857D01*
X150264761Y-126738095D01*
X150217142Y-126785714D01*
X147772380Y-127738095D02*
X146772380Y-127738095D01*
X146772380Y-127500000D01*
X146820000Y-127357142D01*
X146915238Y-127261904D01*
X147010476Y-127214285D01*
X147200952Y-127166666D01*
X147343809Y-127166666D01*
X147534285Y-127214285D01*
X147629523Y-127261904D01*
X147724761Y-127357142D01*
X147772380Y-127500000D01*
X147772380Y-127738095D01*
X147105714Y-126309523D02*
X147772380Y-126309523D01*
X146724761Y-126547619D02*
X147439047Y-126785714D01*
X147439047Y-126166666D01*
X144946666Y-127714285D02*
X144946666Y-127238095D01*
X145232380Y-127809523D02*
X144232380Y-127476190D01*
X145232380Y-127142857D01*
X144232380Y-126333333D02*
X144232380Y-126809523D01*
X144708571Y-126857142D01*
X144660952Y-126809523D01*
X144613333Y-126714285D01*
X144613333Y-126476190D01*
X144660952Y-126380952D01*
X144708571Y-126333333D01*
X144803809Y-126285714D01*
X145041904Y-126285714D01*
X145137142Y-126333333D01*
X145184761Y-126380952D01*
X145232380Y-126476190D01*
X145232380Y-126714285D01*
X145184761Y-126809523D01*
X145137142Y-126857142D01*
X142406666Y-127714285D02*
X142406666Y-127238095D01*
X142692380Y-127809523D02*
X141692380Y-127476190D01*
X142692380Y-127142857D01*
X142025714Y-126380952D02*
X142692380Y-126380952D01*
X141644761Y-126619047D02*
X142359047Y-126857142D01*
X142359047Y-126238095D01*
X139866666Y-127714285D02*
X139866666Y-127238095D01*
X140152380Y-127809523D02*
X139152380Y-127476190D01*
X140152380Y-127142857D01*
X139152380Y-126904761D02*
X139152380Y-126285714D01*
X139533333Y-126619047D01*
X139533333Y-126476190D01*
X139580952Y-126380952D01*
X139628571Y-126333333D01*
X139723809Y-126285714D01*
X139961904Y-126285714D01*
X140057142Y-126333333D01*
X140104761Y-126380952D01*
X140152380Y-126476190D01*
X140152380Y-126761904D01*
X140104761Y-126857142D01*
X140057142Y-126904761D01*
X137326666Y-127714285D02*
X137326666Y-127238095D01*
X137612380Y-127809523D02*
X136612380Y-127476190D01*
X137612380Y-127142857D01*
X136707619Y-126857142D02*
X136660000Y-126809523D01*
X136612380Y-126714285D01*
X136612380Y-126476190D01*
X136660000Y-126380952D01*
X136707619Y-126333333D01*
X136802857Y-126285714D01*
X136898095Y-126285714D01*
X137040952Y-126333333D01*
X137612380Y-126904761D01*
X137612380Y-126285714D01*
X134786666Y-127714285D02*
X134786666Y-127238095D01*
X135072380Y-127809523D02*
X134072380Y-127476190D01*
X135072380Y-127142857D01*
X135072380Y-126285714D02*
X135072380Y-126857142D01*
X135072380Y-126571428D02*
X134072380Y-126571428D01*
X134215238Y-126666666D01*
X134310476Y-126761904D01*
X134358095Y-126857142D01*
X132246666Y-127714285D02*
X132246666Y-127238095D01*
X132532380Y-127809523D02*
X131532380Y-127476190D01*
X132532380Y-127142857D01*
X131532380Y-126619047D02*
X131532380Y-126523809D01*
X131580000Y-126428571D01*
X131627619Y-126380952D01*
X131722857Y-126333333D01*
X131913333Y-126285714D01*
X132151428Y-126285714D01*
X132341904Y-126333333D01*
X132437142Y-126380952D01*
X132484761Y-126428571D01*
X132532380Y-126523809D01*
X132532380Y-126619047D01*
X132484761Y-126714285D01*
X132437142Y-126761904D01*
X132341904Y-126809523D01*
X132151428Y-126857142D01*
X131913333Y-126857142D01*
X131722857Y-126809523D01*
X131627619Y-126761904D01*
X131580000Y-126714285D01*
X131532380Y-126619047D01*
X129040000Y-127761904D02*
X128992380Y-127857142D01*
X128992380Y-128000000D01*
X129040000Y-128142857D01*
X129135238Y-128238095D01*
X129230476Y-128285714D01*
X129420952Y-128333333D01*
X129563809Y-128333333D01*
X129754285Y-128285714D01*
X129849523Y-128238095D01*
X129944761Y-128142857D01*
X129992380Y-128000000D01*
X129992380Y-127904761D01*
X129944761Y-127761904D01*
X129897142Y-127714285D01*
X129563809Y-127714285D01*
X129563809Y-127904761D01*
X129992380Y-127285714D02*
X128992380Y-127285714D01*
X129992380Y-126714285D01*
X128992380Y-126714285D01*
X129992380Y-126238095D02*
X128992380Y-126238095D01*
X128992380Y-126000000D01*
X129040000Y-125857142D01*
X129135238Y-125761904D01*
X129230476Y-125714285D01*
X129420952Y-125666666D01*
X129563809Y-125666666D01*
X129754285Y-125714285D01*
X129849523Y-125761904D01*
X129944761Y-125857142D01*
X129992380Y-126000000D01*
X129992380Y-126238095D01*
X126452380Y-128476190D02*
X126452380Y-127857142D01*
X126833333Y-128190476D01*
X126833333Y-128047619D01*
X126880952Y-127952380D01*
X126928571Y-127904761D01*
X127023809Y-127857142D01*
X127261904Y-127857142D01*
X127357142Y-127904761D01*
X127404761Y-127952380D01*
X127452380Y-128047619D01*
X127452380Y-128333333D01*
X127404761Y-128428571D01*
X127357142Y-128476190D01*
X127404761Y-127380952D02*
X127452380Y-127380952D01*
X127547619Y-127428571D01*
X127595238Y-127476190D01*
X126452380Y-127047619D02*
X126452380Y-126428571D01*
X126833333Y-126761904D01*
X126833333Y-126619047D01*
X126880952Y-126523809D01*
X126928571Y-126476190D01*
X127023809Y-126428571D01*
X127261904Y-126428571D01*
X127357142Y-126476190D01*
X127404761Y-126523809D01*
X127452380Y-126619047D01*
X127452380Y-126904761D01*
X127404761Y-127000000D01*
X127357142Y-127047619D01*
X126452380Y-126142857D02*
X127452380Y-125809523D01*
X126452380Y-125476190D01*
X120944285Y-89066666D02*
X121420476Y-89066666D01*
X120849047Y-89352380D02*
X121182380Y-88352380D01*
X121515714Y-89352380D01*
X122277619Y-88685714D02*
X122277619Y-89352380D01*
X121849047Y-88685714D02*
X121849047Y-89209523D01*
X121896666Y-89304761D01*
X121991904Y-89352380D01*
X122134761Y-89352380D01*
X122230000Y-89304761D01*
X122277619Y-89257142D01*
X123182380Y-89352380D02*
X123182380Y-88352380D01*
X123182380Y-89304761D02*
X123087142Y-89352380D01*
X122896666Y-89352380D01*
X122801428Y-89304761D01*
X122753809Y-89257142D01*
X122706190Y-89161904D01*
X122706190Y-88876190D01*
X122753809Y-88780952D01*
X122801428Y-88733333D01*
X122896666Y-88685714D01*
X123087142Y-88685714D01*
X123182380Y-88733333D01*
X123658571Y-89352380D02*
X123658571Y-88685714D01*
X123658571Y-88352380D02*
X123610952Y-88400000D01*
X123658571Y-88447619D01*
X123706190Y-88400000D01*
X123658571Y-88352380D01*
X123658571Y-88447619D01*
X124277619Y-89352380D02*
X124182380Y-89304761D01*
X124134761Y-89257142D01*
X124087142Y-89161904D01*
X124087142Y-88876190D01*
X124134761Y-88780952D01*
X124182380Y-88733333D01*
X124277619Y-88685714D01*
X124420476Y-88685714D01*
X124515714Y-88733333D01*
X124563333Y-88780952D01*
X124610952Y-88876190D01*
X124610952Y-89161904D01*
X124563333Y-89257142D01*
X124515714Y-89304761D01*
X124420476Y-89352380D01*
X124277619Y-89352380D01*
X125039523Y-89257142D02*
X125087142Y-89304761D01*
X125039523Y-89352380D01*
X124991904Y-89304761D01*
X125039523Y-89257142D01*
X125039523Y-89352380D01*
X125039523Y-88733333D02*
X125087142Y-88780952D01*
X125039523Y-88828571D01*
X124991904Y-88780952D01*
X125039523Y-88733333D01*
X125039523Y-88828571D01*
X126230000Y-89066666D02*
X126706190Y-89066666D01*
X126134761Y-89352380D02*
X126468095Y-88352380D01*
X126801428Y-89352380D01*
X127325238Y-88352380D02*
X127420476Y-88352380D01*
X127515714Y-88400000D01*
X127563333Y-88447619D01*
X127610952Y-88542857D01*
X127658571Y-88733333D01*
X127658571Y-88971428D01*
X127610952Y-89161904D01*
X127563333Y-89257142D01*
X127515714Y-89304761D01*
X127420476Y-89352380D01*
X127325238Y-89352380D01*
X127230000Y-89304761D01*
X127182380Y-89257142D01*
X127134761Y-89161904D01*
X127087142Y-88971428D01*
X127087142Y-88733333D01*
X127134761Y-88542857D01*
X127182380Y-88447619D01*
X127230000Y-88400000D01*
X127325238Y-88352380D01*
X128801428Y-88304761D02*
X127944285Y-89590476D01*
X129087142Y-89066666D02*
X129563333Y-89066666D01*
X128991904Y-89352380D02*
X129325238Y-88352380D01*
X129658571Y-89352380D01*
X130515714Y-89352380D02*
X129944285Y-89352380D01*
X130230000Y-89352380D02*
X130230000Y-88352380D01*
X130134761Y-88495238D01*
X130039523Y-88590476D01*
X129944285Y-88638095D01*
X163179523Y-74112380D02*
X163179523Y-73112380D01*
X163417619Y-73112380D01*
X163560476Y-73160000D01*
X163655714Y-73255238D01*
X163703333Y-73350476D01*
X163750952Y-73540952D01*
X163750952Y-73683809D01*
X163703333Y-73874285D01*
X163655714Y-73969523D01*
X163560476Y-74064761D01*
X163417619Y-74112380D01*
X163179523Y-74112380D01*
X164703333Y-74112380D02*
X164131904Y-74112380D01*
X164417619Y-74112380D02*
X164417619Y-73112380D01*
X164322380Y-73255238D01*
X164227142Y-73350476D01*
X164131904Y-73398095D01*
X165084285Y-73207619D02*
X165131904Y-73160000D01*
X165227142Y-73112380D01*
X165465238Y-73112380D01*
X165560476Y-73160000D01*
X165608095Y-73207619D01*
X165655714Y-73302857D01*
X165655714Y-73398095D01*
X165608095Y-73540952D01*
X165036666Y-74112380D01*
X165655714Y-74112380D01*
X166798571Y-73064761D02*
X165941428Y-74350476D01*
X167131904Y-74112380D02*
X167131904Y-73112380D01*
X167370000Y-73112380D01*
X167512857Y-73160000D01*
X167608095Y-73255238D01*
X167655714Y-73350476D01*
X167703333Y-73540952D01*
X167703333Y-73683809D01*
X167655714Y-73874285D01*
X167608095Y-73969523D01*
X167512857Y-74064761D01*
X167370000Y-74112380D01*
X167131904Y-74112380D01*
X168655714Y-74112380D02*
X168084285Y-74112380D01*
X168370000Y-74112380D02*
X168370000Y-73112380D01*
X168274761Y-73255238D01*
X168179523Y-73350476D01*
X168084285Y-73398095D01*
X168989047Y-73112380D02*
X169608095Y-73112380D01*
X169274761Y-73493333D01*
X169417619Y-73493333D01*
X169512857Y-73540952D01*
X169560476Y-73588571D01*
X169608095Y-73683809D01*
X169608095Y-73921904D01*
X169560476Y-74017142D01*
X169512857Y-74064761D01*
X169417619Y-74112380D01*
X169131904Y-74112380D01*
X169036666Y-74064761D01*
X168989047Y-74017142D01*
X149209523Y-74112380D02*
X149209523Y-73112380D01*
X149447619Y-73112380D01*
X149590476Y-73160000D01*
X149685714Y-73255238D01*
X149733333Y-73350476D01*
X149780952Y-73540952D01*
X149780952Y-73683809D01*
X149733333Y-73874285D01*
X149685714Y-73969523D01*
X149590476Y-74064761D01*
X149447619Y-74112380D01*
X149209523Y-74112380D01*
X150733333Y-74112380D02*
X150161904Y-74112380D01*
X150447619Y-74112380D02*
X150447619Y-73112380D01*
X150352380Y-73255238D01*
X150257142Y-73350476D01*
X150161904Y-73398095D01*
X151352380Y-73112380D02*
X151447619Y-73112380D01*
X151542857Y-73160000D01*
X151590476Y-73207619D01*
X151638095Y-73302857D01*
X151685714Y-73493333D01*
X151685714Y-73731428D01*
X151638095Y-73921904D01*
X151590476Y-74017142D01*
X151542857Y-74064761D01*
X151447619Y-74112380D01*
X151352380Y-74112380D01*
X151257142Y-74064761D01*
X151209523Y-74017142D01*
X151161904Y-73921904D01*
X151114285Y-73731428D01*
X151114285Y-73493333D01*
X151161904Y-73302857D01*
X151209523Y-73207619D01*
X151257142Y-73160000D01*
X151352380Y-73112380D01*
X152828571Y-73064761D02*
X151971428Y-74350476D01*
X153161904Y-74112380D02*
X153161904Y-73112380D01*
X153400000Y-73112380D01*
X153542857Y-73160000D01*
X153638095Y-73255238D01*
X153685714Y-73350476D01*
X153733333Y-73540952D01*
X153733333Y-73683809D01*
X153685714Y-73874285D01*
X153638095Y-73969523D01*
X153542857Y-74064761D01*
X153400000Y-74112380D01*
X153161904Y-74112380D01*
X154685714Y-74112380D02*
X154114285Y-74112380D01*
X154400000Y-74112380D02*
X154400000Y-73112380D01*
X154304761Y-73255238D01*
X154209523Y-73350476D01*
X154114285Y-73398095D01*
X155638095Y-74112380D02*
X155066666Y-74112380D01*
X155352380Y-74112380D02*
X155352380Y-73112380D01*
X155257142Y-73255238D01*
X155161904Y-73350476D01*
X155066666Y-73398095D01*
X134921904Y-74112380D02*
X134921904Y-73112380D01*
X135160000Y-73112380D01*
X135302857Y-73160000D01*
X135398095Y-73255238D01*
X135445714Y-73350476D01*
X135493333Y-73540952D01*
X135493333Y-73683809D01*
X135445714Y-73874285D01*
X135398095Y-73969523D01*
X135302857Y-74064761D01*
X135160000Y-74112380D01*
X134921904Y-74112380D01*
X136350476Y-73112380D02*
X136160000Y-73112380D01*
X136064761Y-73160000D01*
X136017142Y-73207619D01*
X135921904Y-73350476D01*
X135874285Y-73540952D01*
X135874285Y-73921904D01*
X135921904Y-74017142D01*
X135969523Y-74064761D01*
X136064761Y-74112380D01*
X136255238Y-74112380D01*
X136350476Y-74064761D01*
X136398095Y-74017142D01*
X136445714Y-73921904D01*
X136445714Y-73683809D01*
X136398095Y-73588571D01*
X136350476Y-73540952D01*
X136255238Y-73493333D01*
X136064761Y-73493333D01*
X135969523Y-73540952D01*
X135921904Y-73588571D01*
X135874285Y-73683809D01*
X137588571Y-73064761D02*
X136731428Y-74350476D01*
X137921904Y-74112380D02*
X137921904Y-73112380D01*
X138160000Y-73112380D01*
X138302857Y-73160000D01*
X138398095Y-73255238D01*
X138445714Y-73350476D01*
X138493333Y-73540952D01*
X138493333Y-73683809D01*
X138445714Y-73874285D01*
X138398095Y-73969523D01*
X138302857Y-74064761D01*
X138160000Y-74112380D01*
X137921904Y-74112380D01*
X138969523Y-74112380D02*
X139160000Y-74112380D01*
X139255238Y-74064761D01*
X139302857Y-74017142D01*
X139398095Y-73874285D01*
X139445714Y-73683809D01*
X139445714Y-73302857D01*
X139398095Y-73207619D01*
X139350476Y-73160000D01*
X139255238Y-73112380D01*
X139064761Y-73112380D01*
X138969523Y-73160000D01*
X138921904Y-73207619D01*
X138874285Y-73302857D01*
X138874285Y-73540952D01*
X138921904Y-73636190D01*
X138969523Y-73683809D01*
X139064761Y-73731428D01*
X139255238Y-73731428D01*
X139350476Y-73683809D01*
X139398095Y-73636190D01*
X139445714Y-73540952D01*
X120951904Y-74112380D02*
X120951904Y-73112380D01*
X121190000Y-73112380D01*
X121332857Y-73160000D01*
X121428095Y-73255238D01*
X121475714Y-73350476D01*
X121523333Y-73540952D01*
X121523333Y-73683809D01*
X121475714Y-73874285D01*
X121428095Y-73969523D01*
X121332857Y-74064761D01*
X121190000Y-74112380D01*
X120951904Y-74112380D01*
X122380476Y-73445714D02*
X122380476Y-74112380D01*
X122142380Y-73064761D02*
X121904285Y-73779047D01*
X122523333Y-73779047D01*
X123618571Y-73064761D02*
X122761428Y-74350476D01*
X123951904Y-74112380D02*
X123951904Y-73112380D01*
X124190000Y-73112380D01*
X124332857Y-73160000D01*
X124428095Y-73255238D01*
X124475714Y-73350476D01*
X124523333Y-73540952D01*
X124523333Y-73683809D01*
X124475714Y-73874285D01*
X124428095Y-73969523D01*
X124332857Y-74064761D01*
X124190000Y-74112380D01*
X123951904Y-74112380D01*
X125428095Y-73112380D02*
X124951904Y-73112380D01*
X124904285Y-73588571D01*
X124951904Y-73540952D01*
X125047142Y-73493333D01*
X125285238Y-73493333D01*
X125380476Y-73540952D01*
X125428095Y-73588571D01*
X125475714Y-73683809D01*
X125475714Y-73921904D01*
X125428095Y-74017142D01*
X125380476Y-74064761D01*
X125285238Y-74112380D01*
X125047142Y-74112380D01*
X124951904Y-74064761D01*
X124904285Y-74017142D01*
X163123809Y-63904761D02*
X163266666Y-63952380D01*
X163504761Y-63952380D01*
X163600000Y-63904761D01*
X163647619Y-63857142D01*
X163695238Y-63761904D01*
X163695238Y-63666666D01*
X163647619Y-63571428D01*
X163600000Y-63523809D01*
X163504761Y-63476190D01*
X163314285Y-63428571D01*
X163219047Y-63380952D01*
X163171428Y-63333333D01*
X163123809Y-63238095D01*
X163123809Y-63142857D01*
X163171428Y-63047619D01*
X163219047Y-63000000D01*
X163314285Y-62952380D01*
X163552380Y-62952380D01*
X163695238Y-63000000D01*
X164504761Y-63904761D02*
X164409523Y-63952380D01*
X164219047Y-63952380D01*
X164123809Y-63904761D01*
X164076190Y-63809523D01*
X164076190Y-63428571D01*
X164123809Y-63333333D01*
X164219047Y-63285714D01*
X164409523Y-63285714D01*
X164504761Y-63333333D01*
X164552380Y-63428571D01*
X164552380Y-63523809D01*
X164076190Y-63619047D01*
X164980952Y-63952380D02*
X164980952Y-63285714D01*
X164980952Y-63476190D02*
X165028571Y-63380952D01*
X165076190Y-63333333D01*
X165171428Y-63285714D01*
X165266666Y-63285714D01*
X165600000Y-63952380D02*
X165600000Y-63285714D01*
X165600000Y-62952380D02*
X165552380Y-63000000D01*
X165600000Y-63047619D01*
X165647619Y-63000000D01*
X165600000Y-62952380D01*
X165600000Y-63047619D01*
X166504761Y-63952380D02*
X166504761Y-63428571D01*
X166457142Y-63333333D01*
X166361904Y-63285714D01*
X166171428Y-63285714D01*
X166076190Y-63333333D01*
X166504761Y-63904761D02*
X166409523Y-63952380D01*
X166171428Y-63952380D01*
X166076190Y-63904761D01*
X166028571Y-63809523D01*
X166028571Y-63714285D01*
X166076190Y-63619047D01*
X166171428Y-63571428D01*
X166409523Y-63571428D01*
X166504761Y-63523809D01*
X167123809Y-63952380D02*
X167028571Y-63904761D01*
X166980952Y-63809523D01*
X166980952Y-62952380D01*
X150153809Y-63952380D02*
X150153809Y-62952380D01*
X150582380Y-63047619D02*
X150630000Y-63000000D01*
X150725238Y-62952380D01*
X150963333Y-62952380D01*
X151058571Y-63000000D01*
X151106190Y-63047619D01*
X151153809Y-63142857D01*
X151153809Y-63238095D01*
X151106190Y-63380952D01*
X150534761Y-63952380D01*
X151153809Y-63952380D01*
X152153809Y-63857142D02*
X152106190Y-63904761D01*
X151963333Y-63952380D01*
X151868095Y-63952380D01*
X151725238Y-63904761D01*
X151630000Y-63809523D01*
X151582380Y-63714285D01*
X151534761Y-63523809D01*
X151534761Y-63380952D01*
X151582380Y-63190476D01*
X151630000Y-63095238D01*
X151725238Y-63000000D01*
X151868095Y-62952380D01*
X151963333Y-62952380D01*
X152106190Y-63000000D01*
X152153809Y-63047619D01*
X135017142Y-63666666D02*
X135493333Y-63666666D01*
X134921904Y-63952380D02*
X135255238Y-62952380D01*
X135588571Y-63952380D01*
X135874285Y-63047619D02*
X135921904Y-63000000D01*
X136017142Y-62952380D01*
X136255238Y-62952380D01*
X136350476Y-63000000D01*
X136398095Y-63047619D01*
X136445714Y-63142857D01*
X136445714Y-63238095D01*
X136398095Y-63380952D01*
X135826666Y-63952380D01*
X136445714Y-63952380D01*
X137588571Y-62904761D02*
X136731428Y-64190476D01*
X137874285Y-63666666D02*
X138350476Y-63666666D01*
X137779047Y-63952380D02*
X138112380Y-62952380D01*
X138445714Y-63952380D01*
X138683809Y-62952380D02*
X139302857Y-62952380D01*
X138969523Y-63333333D01*
X139112380Y-63333333D01*
X139207619Y-63380952D01*
X139255238Y-63428571D01*
X139302857Y-63523809D01*
X139302857Y-63761904D01*
X139255238Y-63857142D01*
X139207619Y-63904761D01*
X139112380Y-63952380D01*
X138826666Y-63952380D01*
X138731428Y-63904761D01*
X138683809Y-63857142D01*
X121047142Y-63666666D02*
X121523333Y-63666666D01*
X120951904Y-63952380D02*
X121285238Y-62952380D01*
X121618571Y-63952380D01*
X122142380Y-62952380D02*
X122237619Y-62952380D01*
X122332857Y-63000000D01*
X122380476Y-63047619D01*
X122428095Y-63142857D01*
X122475714Y-63333333D01*
X122475714Y-63571428D01*
X122428095Y-63761904D01*
X122380476Y-63857142D01*
X122332857Y-63904761D01*
X122237619Y-63952380D01*
X122142380Y-63952380D01*
X122047142Y-63904761D01*
X121999523Y-63857142D01*
X121951904Y-63761904D01*
X121904285Y-63571428D01*
X121904285Y-63333333D01*
X121951904Y-63142857D01*
X121999523Y-63047619D01*
X122047142Y-63000000D01*
X122142380Y-62952380D01*
X123618571Y-62904761D02*
X122761428Y-64190476D01*
X123904285Y-63666666D02*
X124380476Y-63666666D01*
X123809047Y-63952380D02*
X124142380Y-62952380D01*
X124475714Y-63952380D01*
X125332857Y-63952380D02*
X124761428Y-63952380D01*
X125047142Y-63952380D02*
X125047142Y-62952380D01*
X124951904Y-63095238D01*
X124856666Y-63190476D01*
X124761428Y-63238095D01*
D13*
X166430000Y-120650000D02*
X166430000Y-121980000D01*
X166430000Y-121980000D02*
X165100000Y-121980000D01*
X163830000Y-121980000D02*
X125670000Y-121980000D01*
X125670000Y-119320000D02*
X125670000Y-121980000D01*
X163830000Y-119320000D02*
X125670000Y-119320000D01*
X163830000Y-119320000D02*
X163830000Y-121980000D01*
X132930000Y-81500000D02*
X132930000Y-83600000D01*
X125930000Y-86000000D02*
X132930000Y-86000000D01*
X125930000Y-79100000D02*
X131030000Y-79100000D01*
X121030000Y-79100000D02*
X123530000Y-79100000D01*
X121030000Y-79850000D02*
X121030000Y-79100000D01*
X121030000Y-86000000D02*
X121030000Y-85250000D01*
X123530000Y-86000000D02*
X121030000Y-86000000D01*
X118590000Y-56610000D02*
X118590000Y-61330000D01*
X118590000Y-61330000D02*
X128710000Y-61330000D01*
X128710000Y-61330000D02*
X128710000Y-56610000D01*
X128710000Y-56610000D02*
X118590000Y-56610000D01*
X120350000Y-56610000D02*
X120350000Y-56410000D01*
X120350000Y-56410000D02*
X120050000Y-56410000D01*
X120050000Y-56410000D02*
X120050000Y-56610000D01*
X120350000Y-56510000D02*
X120050000Y-56510000D01*
X121150000Y-56610000D02*
X121150000Y-57220000D01*
X121150000Y-57220000D02*
X119200000Y-57220000D01*
X119200000Y-57220000D02*
X119200000Y-60720000D01*
X119200000Y-60720000D02*
X128100000Y-60720000D01*
X128100000Y-60720000D02*
X128100000Y-57220000D01*
X128100000Y-57220000D02*
X126150000Y-57220000D01*
X126150000Y-57220000D02*
X126150000Y-56610000D01*
X118590000Y-57920000D02*
X119200000Y-57920000D01*
X118590000Y-59220000D02*
X119200000Y-59220000D01*
X128710000Y-57920000D02*
X128100000Y-57920000D01*
X128710000Y-59220000D02*
X128100000Y-59220000D01*
X121550000Y-60720000D02*
X121550000Y-60220000D01*
X121550000Y-60220000D02*
X121750000Y-60220000D01*
X121750000Y-60220000D02*
X121750000Y-60720000D01*
X121650000Y-60720000D02*
X121650000Y-60220000D01*
X123550000Y-60720000D02*
X123550000Y-60220000D01*
X123550000Y-60220000D02*
X123750000Y-60220000D01*
X123750000Y-60220000D02*
X123750000Y-60720000D01*
X123650000Y-60720000D02*
X123650000Y-60220000D01*
X125550000Y-60720000D02*
X125550000Y-60220000D01*
X125550000Y-60220000D02*
X125750000Y-60220000D01*
X125750000Y-60220000D02*
X125750000Y-60720000D01*
X125650000Y-60720000D02*
X125650000Y-60220000D01*
X119540000Y-56310000D02*
X118290000Y-56310000D01*
X118290000Y-56310000D02*
X118290000Y-57560000D01*
X132260000Y-56310000D02*
X132260000Y-57560000D01*
X133510000Y-56310000D02*
X132260000Y-56310000D01*
X139620000Y-60720000D02*
X139620000Y-60220000D01*
X139720000Y-60220000D02*
X139720000Y-60720000D01*
X139520000Y-60220000D02*
X139720000Y-60220000D01*
X139520000Y-60720000D02*
X139520000Y-60220000D01*
X137620000Y-60720000D02*
X137620000Y-60220000D01*
X137720000Y-60220000D02*
X137720000Y-60720000D01*
X137520000Y-60220000D02*
X137720000Y-60220000D01*
X137520000Y-60720000D02*
X137520000Y-60220000D01*
X135620000Y-60720000D02*
X135620000Y-60220000D01*
X135720000Y-60220000D02*
X135720000Y-60720000D01*
X135520000Y-60220000D02*
X135720000Y-60220000D01*
X135520000Y-60720000D02*
X135520000Y-60220000D01*
X142680000Y-59220000D02*
X142070000Y-59220000D01*
X142680000Y-57920000D02*
X142070000Y-57920000D01*
X132560000Y-59220000D02*
X133170000Y-59220000D01*
X132560000Y-57920000D02*
X133170000Y-57920000D01*
X140120000Y-57220000D02*
X140120000Y-56610000D01*
X142070000Y-57220000D02*
X140120000Y-57220000D01*
X142070000Y-60720000D02*
X142070000Y-57220000D01*
X133170000Y-60720000D02*
X142070000Y-60720000D01*
X133170000Y-57220000D02*
X133170000Y-60720000D01*
X135120000Y-57220000D02*
X133170000Y-57220000D01*
X135120000Y-56610000D02*
X135120000Y-57220000D01*
X134320000Y-56510000D02*
X134020000Y-56510000D01*
X134020000Y-56410000D02*
X134020000Y-56610000D01*
X134320000Y-56410000D02*
X134020000Y-56410000D01*
X134320000Y-56610000D02*
X134320000Y-56410000D01*
X142680000Y-56610000D02*
X132560000Y-56610000D01*
X142680000Y-61330000D02*
X142680000Y-56610000D01*
X132560000Y-61330000D02*
X142680000Y-61330000D01*
X132560000Y-56610000D02*
X132560000Y-61330000D01*
X118290000Y-66470000D02*
X118290000Y-67720000D01*
X119540000Y-66470000D02*
X118290000Y-66470000D01*
X125650000Y-70880000D02*
X125650000Y-70380000D01*
X125750000Y-70380000D02*
X125750000Y-70880000D01*
X125550000Y-70380000D02*
X125750000Y-70380000D01*
X125550000Y-70880000D02*
X125550000Y-70380000D01*
X123650000Y-70880000D02*
X123650000Y-70380000D01*
X123750000Y-70380000D02*
X123750000Y-70880000D01*
X123550000Y-70380000D02*
X123750000Y-70380000D01*
X123550000Y-70880000D02*
X123550000Y-70380000D01*
X121650000Y-70880000D02*
X121650000Y-70380000D01*
X121750000Y-70380000D02*
X121750000Y-70880000D01*
X121550000Y-70380000D02*
X121750000Y-70380000D01*
X121550000Y-70880000D02*
X121550000Y-70380000D01*
X128710000Y-69380000D02*
X128100000Y-69380000D01*
X128710000Y-68080000D02*
X128100000Y-68080000D01*
X118590000Y-69380000D02*
X119200000Y-69380000D01*
X118590000Y-68080000D02*
X119200000Y-68080000D01*
X126150000Y-67380000D02*
X126150000Y-66770000D01*
X128100000Y-67380000D02*
X126150000Y-67380000D01*
X128100000Y-70880000D02*
X128100000Y-67380000D01*
X119200000Y-70880000D02*
X128100000Y-70880000D01*
X119200000Y-67380000D02*
X119200000Y-70880000D01*
X121150000Y-67380000D02*
X119200000Y-67380000D01*
X121150000Y-66770000D02*
X121150000Y-67380000D01*
X120350000Y-66670000D02*
X120050000Y-66670000D01*
X120050000Y-66570000D02*
X120050000Y-66770000D01*
X120350000Y-66570000D02*
X120050000Y-66570000D01*
X120350000Y-66770000D02*
X120350000Y-66570000D01*
X128710000Y-66770000D02*
X118590000Y-66770000D01*
X128710000Y-71490000D02*
X128710000Y-66770000D01*
X118590000Y-71490000D02*
X128710000Y-71490000D01*
X118590000Y-66770000D02*
X118590000Y-71490000D01*
X132560000Y-66770000D02*
X132560000Y-71490000D01*
X132560000Y-71490000D02*
X142680000Y-71490000D01*
X142680000Y-71490000D02*
X142680000Y-66770000D01*
X142680000Y-66770000D02*
X132560000Y-66770000D01*
X134320000Y-66770000D02*
X134320000Y-66570000D01*
X134320000Y-66570000D02*
X134020000Y-66570000D01*
X134020000Y-66570000D02*
X134020000Y-66770000D01*
X134320000Y-66670000D02*
X134020000Y-66670000D01*
X135120000Y-66770000D02*
X135120000Y-67380000D01*
X135120000Y-67380000D02*
X133170000Y-67380000D01*
X133170000Y-67380000D02*
X133170000Y-70880000D01*
X133170000Y-70880000D02*
X142070000Y-70880000D01*
X142070000Y-70880000D02*
X142070000Y-67380000D01*
X142070000Y-67380000D02*
X140120000Y-67380000D01*
X140120000Y-67380000D02*
X140120000Y-66770000D01*
X132560000Y-68080000D02*
X133170000Y-68080000D01*
X132560000Y-69380000D02*
X133170000Y-69380000D01*
X142680000Y-68080000D02*
X142070000Y-68080000D01*
X142680000Y-69380000D02*
X142070000Y-69380000D01*
X135520000Y-70880000D02*
X135520000Y-70380000D01*
X135520000Y-70380000D02*
X135720000Y-70380000D01*
X135720000Y-70380000D02*
X135720000Y-70880000D01*
X135620000Y-70880000D02*
X135620000Y-70380000D01*
X137520000Y-70880000D02*
X137520000Y-70380000D01*
X137520000Y-70380000D02*
X137720000Y-70380000D01*
X137720000Y-70380000D02*
X137720000Y-70880000D01*
X137620000Y-70880000D02*
X137620000Y-70380000D01*
X139520000Y-70880000D02*
X139520000Y-70380000D01*
X139520000Y-70380000D02*
X139720000Y-70380000D01*
X139720000Y-70380000D02*
X139720000Y-70880000D01*
X139620000Y-70880000D02*
X139620000Y-70380000D01*
X133510000Y-66470000D02*
X132260000Y-66470000D01*
X132260000Y-66470000D02*
X132260000Y-67720000D01*
X146530000Y-66770000D02*
X146530000Y-71490000D01*
X146530000Y-71490000D02*
X156650000Y-71490000D01*
X156650000Y-71490000D02*
X156650000Y-66770000D01*
X156650000Y-66770000D02*
X146530000Y-66770000D01*
X148290000Y-66770000D02*
X148290000Y-66570000D01*
X148290000Y-66570000D02*
X147990000Y-66570000D01*
X147990000Y-66570000D02*
X147990000Y-66770000D01*
X148290000Y-66670000D02*
X147990000Y-66670000D01*
X149090000Y-66770000D02*
X149090000Y-67380000D01*
X149090000Y-67380000D02*
X147140000Y-67380000D01*
X147140000Y-67380000D02*
X147140000Y-70880000D01*
X147140000Y-70880000D02*
X156040000Y-70880000D01*
X156040000Y-70880000D02*
X156040000Y-67380000D01*
X156040000Y-67380000D02*
X154090000Y-67380000D01*
X154090000Y-67380000D02*
X154090000Y-66770000D01*
X146530000Y-68080000D02*
X147140000Y-68080000D01*
X146530000Y-69380000D02*
X147140000Y-69380000D01*
X156650000Y-68080000D02*
X156040000Y-68080000D01*
X156650000Y-69380000D02*
X156040000Y-69380000D01*
X149490000Y-70880000D02*
X149490000Y-70380000D01*
X149490000Y-70380000D02*
X149690000Y-70380000D01*
X149690000Y-70380000D02*
X149690000Y-70880000D01*
X149590000Y-70880000D02*
X149590000Y-70380000D01*
X151490000Y-70880000D02*
X151490000Y-70380000D01*
X151490000Y-70380000D02*
X151690000Y-70380000D01*
X151690000Y-70380000D02*
X151690000Y-70880000D01*
X151590000Y-70880000D02*
X151590000Y-70380000D01*
X153490000Y-70880000D02*
X153490000Y-70380000D01*
X153490000Y-70380000D02*
X153690000Y-70380000D01*
X153690000Y-70380000D02*
X153690000Y-70880000D01*
X153590000Y-70880000D02*
X153590000Y-70380000D01*
X147480000Y-66470000D02*
X146230000Y-66470000D01*
X146230000Y-66470000D02*
X146230000Y-67720000D01*
X160200000Y-66470000D02*
X160200000Y-67720000D01*
X161450000Y-66470000D02*
X160200000Y-66470000D01*
X167560000Y-70880000D02*
X167560000Y-70380000D01*
X167660000Y-70380000D02*
X167660000Y-70880000D01*
X167460000Y-70380000D02*
X167660000Y-70380000D01*
X167460000Y-70880000D02*
X167460000Y-70380000D01*
X165560000Y-70880000D02*
X165560000Y-70380000D01*
X165660000Y-70380000D02*
X165660000Y-70880000D01*
X165460000Y-70380000D02*
X165660000Y-70380000D01*
X165460000Y-70880000D02*
X165460000Y-70380000D01*
X163560000Y-70880000D02*
X163560000Y-70380000D01*
X163660000Y-70380000D02*
X163660000Y-70880000D01*
X163460000Y-70380000D02*
X163660000Y-70380000D01*
X163460000Y-70880000D02*
X163460000Y-70380000D01*
X170620000Y-69380000D02*
X170010000Y-69380000D01*
X170620000Y-68080000D02*
X170010000Y-68080000D01*
X160500000Y-69380000D02*
X161110000Y-69380000D01*
X160500000Y-68080000D02*
X161110000Y-68080000D01*
X168060000Y-67380000D02*
X168060000Y-66770000D01*
X170010000Y-67380000D02*
X168060000Y-67380000D01*
X170010000Y-70880000D02*
X170010000Y-67380000D01*
X161110000Y-70880000D02*
X170010000Y-70880000D01*
X161110000Y-67380000D02*
X161110000Y-70880000D01*
X163060000Y-67380000D02*
X161110000Y-67380000D01*
X163060000Y-66770000D02*
X163060000Y-67380000D01*
X162260000Y-66670000D02*
X161960000Y-66670000D01*
X161960000Y-66570000D02*
X161960000Y-66770000D01*
X162260000Y-66570000D02*
X161960000Y-66570000D01*
X162260000Y-66770000D02*
X162260000Y-66570000D01*
X170620000Y-66770000D02*
X160500000Y-66770000D01*
X170620000Y-71490000D02*
X170620000Y-66770000D01*
X160500000Y-71490000D02*
X170620000Y-71490000D01*
X160500000Y-66770000D02*
X160500000Y-71490000D01*
X146530000Y-56610000D02*
X146530000Y-61330000D01*
X146530000Y-61330000D02*
X156650000Y-61330000D01*
X156650000Y-61330000D02*
X156650000Y-56610000D01*
X156650000Y-56610000D02*
X146530000Y-56610000D01*
X148290000Y-56610000D02*
X148290000Y-56410000D01*
X148290000Y-56410000D02*
X147990000Y-56410000D01*
X147990000Y-56410000D02*
X147990000Y-56610000D01*
X148290000Y-56510000D02*
X147990000Y-56510000D01*
X149090000Y-56610000D02*
X149090000Y-57220000D01*
X149090000Y-57220000D02*
X147140000Y-57220000D01*
X147140000Y-57220000D02*
X147140000Y-60720000D01*
X147140000Y-60720000D02*
X156040000Y-60720000D01*
X156040000Y-60720000D02*
X156040000Y-57220000D01*
X156040000Y-57220000D02*
X154090000Y-57220000D01*
X154090000Y-57220000D02*
X154090000Y-56610000D01*
X146530000Y-57920000D02*
X147140000Y-57920000D01*
X146530000Y-59220000D02*
X147140000Y-59220000D01*
X156650000Y-57920000D02*
X156040000Y-57920000D01*
X156650000Y-59220000D02*
X156040000Y-59220000D01*
X149490000Y-60720000D02*
X149490000Y-60220000D01*
X149490000Y-60220000D02*
X149690000Y-60220000D01*
X149690000Y-60220000D02*
X149690000Y-60720000D01*
X149590000Y-60720000D02*
X149590000Y-60220000D01*
X151490000Y-60720000D02*
X151490000Y-60220000D01*
X151490000Y-60220000D02*
X151690000Y-60220000D01*
X151690000Y-60220000D02*
X151690000Y-60720000D01*
X151590000Y-60720000D02*
X151590000Y-60220000D01*
X153490000Y-60720000D02*
X153490000Y-60220000D01*
X153490000Y-60220000D02*
X153690000Y-60220000D01*
X153690000Y-60220000D02*
X153690000Y-60720000D01*
X153590000Y-60720000D02*
X153590000Y-60220000D01*
X147480000Y-56310000D02*
X146230000Y-56310000D01*
X146230000Y-56310000D02*
X146230000Y-57560000D01*
X160200000Y-56310000D02*
X160200000Y-57560000D01*
X161450000Y-56310000D02*
X160200000Y-56310000D01*
X167560000Y-60720000D02*
X167560000Y-60220000D01*
X167660000Y-60220000D02*
X167660000Y-60720000D01*
X167460000Y-60220000D02*
X167660000Y-60220000D01*
X167460000Y-60720000D02*
X167460000Y-60220000D01*
X165560000Y-60720000D02*
X165560000Y-60220000D01*
X165660000Y-60220000D02*
X165660000Y-60720000D01*
X165460000Y-60220000D02*
X165660000Y-60220000D01*
X165460000Y-60720000D02*
X165460000Y-60220000D01*
X163560000Y-60720000D02*
X163560000Y-60220000D01*
X163660000Y-60220000D02*
X163660000Y-60720000D01*
X163460000Y-60220000D02*
X163660000Y-60220000D01*
X163460000Y-60720000D02*
X163460000Y-60220000D01*
X170620000Y-59220000D02*
X170010000Y-59220000D01*
X170620000Y-57920000D02*
X170010000Y-57920000D01*
X160500000Y-59220000D02*
X161110000Y-59220000D01*
X160500000Y-57920000D02*
X161110000Y-57920000D01*
X168060000Y-57220000D02*
X168060000Y-56610000D01*
X170010000Y-57220000D02*
X168060000Y-57220000D01*
X170010000Y-60720000D02*
X170010000Y-57220000D01*
X161110000Y-60720000D02*
X170010000Y-60720000D01*
X161110000Y-57220000D02*
X161110000Y-60720000D01*
X163060000Y-57220000D02*
X161110000Y-57220000D01*
X163060000Y-56610000D02*
X163060000Y-57220000D01*
X162260000Y-56510000D02*
X161960000Y-56510000D01*
X161960000Y-56410000D02*
X161960000Y-56610000D01*
X162260000Y-56410000D02*
X161960000Y-56410000D01*
X162260000Y-56610000D02*
X162260000Y-56410000D01*
X170620000Y-56610000D02*
X160500000Y-56610000D01*
X170620000Y-61330000D02*
X170620000Y-56610000D01*
X160500000Y-61330000D02*
X170620000Y-61330000D01*
X160500000Y-56610000D02*
X160500000Y-61330000D01*
M02*
