G04 #@! TF.GenerationSoftware,KiCad,Pcbnew,5.1.5-52549c5~84~ubuntu19.10.1*
G04 #@! TF.CreationDate,2019-11-23T11:14:34+01:00*
G04 #@! TF.ProjectId,mep_v2_modif_grove,6d65705f-7632-45f6-9d6f-6469665f6772,rev?*
G04 #@! TF.SameCoordinates,Original*
G04 #@! TF.FileFunction,Copper,L1,Top*
G04 #@! TF.FilePolarity,Positive*
%FSLAX46Y46*%
G04 Gerber Fmt 4.6, Leading zero omitted, Abs format (unit mm)*
G04 Created by KiCad (PCBNEW 5.1.5-52549c5~84~ubuntu19.10.1) date 2019-11-23 11:14:34*
%MOMM*%
%LPD*%
G04 APERTURE LIST*
%ADD10O,1.700000X1.700000*%
%ADD11R,1.700000X1.700000*%
%ADD12C,1.900000*%
%ADD13R,1.900000X1.900000*%
%ADD14C,3.556000*%
%ADD15C,1.524000*%
%ADD16C,0.100000*%
%ADD17O,1.200000X1.750000*%
%ADD18C,0.800000*%
%ADD19C,0.250000*%
G04 APERTURE END LIST*
D10*
X127000000Y-120650000D03*
X129540000Y-120650000D03*
X132080000Y-120650000D03*
X134620000Y-120650000D03*
X137160000Y-120650000D03*
X139700000Y-120650000D03*
X142240000Y-120650000D03*
X144780000Y-120650000D03*
X147320000Y-120650000D03*
X149860000Y-120650000D03*
X152400000Y-120650000D03*
X154940000Y-120650000D03*
X157480000Y-120650000D03*
X160020000Y-120650000D03*
X162560000Y-120650000D03*
D11*
X165100000Y-120650000D03*
D12*
X132230000Y-84800000D03*
D13*
X132230000Y-80300000D03*
D12*
X124730000Y-85450000D03*
X124730000Y-79650000D03*
D14*
X121920000Y-93980000D03*
X167640000Y-93980000D03*
X121920000Y-111760000D03*
X167640000Y-111760000D03*
D15*
X125730000Y-113030000D03*
X128270000Y-113030000D03*
X130810000Y-113030000D03*
X133350000Y-113030000D03*
X135890000Y-113030000D03*
X138430000Y-113030000D03*
X140970000Y-113030000D03*
X143510000Y-113030000D03*
X146050000Y-113030000D03*
X148590000Y-113030000D03*
X151130000Y-113030000D03*
X153670000Y-113030000D03*
X156210000Y-113030000D03*
X158750000Y-113030000D03*
X161290000Y-113030000D03*
X163830000Y-113030000D03*
X163830000Y-92710000D03*
X161290000Y-92710000D03*
X158750000Y-92710000D03*
X156210000Y-92710000D03*
X153670000Y-92710000D03*
X151130000Y-92710000D03*
X148590000Y-92710000D03*
X146050000Y-92710000D03*
X143510000Y-92710000D03*
X140970000Y-92710000D03*
X138430000Y-92710000D03*
X135890000Y-92710000D03*
G04 #@! TA.AperFunction,ComponentPad*
D16*
G36*
X121024505Y-57546204D02*
G01*
X121048773Y-57549804D01*
X121072572Y-57555765D01*
X121095671Y-57564030D01*
X121117850Y-57574520D01*
X121138893Y-57587132D01*
X121158599Y-57601747D01*
X121176777Y-57618223D01*
X121193253Y-57636401D01*
X121207868Y-57656107D01*
X121220480Y-57677150D01*
X121230970Y-57699329D01*
X121239235Y-57722428D01*
X121245196Y-57746227D01*
X121248796Y-57770495D01*
X121250000Y-57794999D01*
X121250000Y-59045001D01*
X121248796Y-59069505D01*
X121245196Y-59093773D01*
X121239235Y-59117572D01*
X121230970Y-59140671D01*
X121220480Y-59162850D01*
X121207868Y-59183893D01*
X121193253Y-59203599D01*
X121176777Y-59221777D01*
X121158599Y-59238253D01*
X121138893Y-59252868D01*
X121117850Y-59265480D01*
X121095671Y-59275970D01*
X121072572Y-59284235D01*
X121048773Y-59290196D01*
X121024505Y-59293796D01*
X121000001Y-59295000D01*
X120299999Y-59295000D01*
X120275495Y-59293796D01*
X120251227Y-59290196D01*
X120227428Y-59284235D01*
X120204329Y-59275970D01*
X120182150Y-59265480D01*
X120161107Y-59252868D01*
X120141401Y-59238253D01*
X120123223Y-59221777D01*
X120106747Y-59203599D01*
X120092132Y-59183893D01*
X120079520Y-59162850D01*
X120069030Y-59140671D01*
X120060765Y-59117572D01*
X120054804Y-59093773D01*
X120051204Y-59069505D01*
X120050000Y-59045001D01*
X120050000Y-57794999D01*
X120051204Y-57770495D01*
X120054804Y-57746227D01*
X120060765Y-57722428D01*
X120069030Y-57699329D01*
X120079520Y-57677150D01*
X120092132Y-57656107D01*
X120106747Y-57636401D01*
X120123223Y-57618223D01*
X120141401Y-57601747D01*
X120161107Y-57587132D01*
X120182150Y-57574520D01*
X120204329Y-57564030D01*
X120227428Y-57555765D01*
X120251227Y-57549804D01*
X120275495Y-57546204D01*
X120299999Y-57545000D01*
X121000001Y-57545000D01*
X121024505Y-57546204D01*
G37*
G04 #@! TD.AperFunction*
D17*
X122650000Y-58420000D03*
X124650000Y-58420000D03*
X126650000Y-58420000D03*
X140620000Y-58420000D03*
X138620000Y-58420000D03*
X136620000Y-58420000D03*
G04 #@! TA.AperFunction,ComponentPad*
D16*
G36*
X134994505Y-57546204D02*
G01*
X135018773Y-57549804D01*
X135042572Y-57555765D01*
X135065671Y-57564030D01*
X135087850Y-57574520D01*
X135108893Y-57587132D01*
X135128599Y-57601747D01*
X135146777Y-57618223D01*
X135163253Y-57636401D01*
X135177868Y-57656107D01*
X135190480Y-57677150D01*
X135200970Y-57699329D01*
X135209235Y-57722428D01*
X135215196Y-57746227D01*
X135218796Y-57770495D01*
X135220000Y-57794999D01*
X135220000Y-59045001D01*
X135218796Y-59069505D01*
X135215196Y-59093773D01*
X135209235Y-59117572D01*
X135200970Y-59140671D01*
X135190480Y-59162850D01*
X135177868Y-59183893D01*
X135163253Y-59203599D01*
X135146777Y-59221777D01*
X135128599Y-59238253D01*
X135108893Y-59252868D01*
X135087850Y-59265480D01*
X135065671Y-59275970D01*
X135042572Y-59284235D01*
X135018773Y-59290196D01*
X134994505Y-59293796D01*
X134970001Y-59295000D01*
X134269999Y-59295000D01*
X134245495Y-59293796D01*
X134221227Y-59290196D01*
X134197428Y-59284235D01*
X134174329Y-59275970D01*
X134152150Y-59265480D01*
X134131107Y-59252868D01*
X134111401Y-59238253D01*
X134093223Y-59221777D01*
X134076747Y-59203599D01*
X134062132Y-59183893D01*
X134049520Y-59162850D01*
X134039030Y-59140671D01*
X134030765Y-59117572D01*
X134024804Y-59093773D01*
X134021204Y-59069505D01*
X134020000Y-59045001D01*
X134020000Y-57794999D01*
X134021204Y-57770495D01*
X134024804Y-57746227D01*
X134030765Y-57722428D01*
X134039030Y-57699329D01*
X134049520Y-57677150D01*
X134062132Y-57656107D01*
X134076747Y-57636401D01*
X134093223Y-57618223D01*
X134111401Y-57601747D01*
X134131107Y-57587132D01*
X134152150Y-57574520D01*
X134174329Y-57564030D01*
X134197428Y-57555765D01*
X134221227Y-57549804D01*
X134245495Y-57546204D01*
X134269999Y-57545000D01*
X134970001Y-57545000D01*
X134994505Y-57546204D01*
G37*
G04 #@! TD.AperFunction*
D17*
X126650000Y-68580000D03*
X124650000Y-68580000D03*
X122650000Y-68580000D03*
G04 #@! TA.AperFunction,ComponentPad*
D16*
G36*
X121024505Y-67706204D02*
G01*
X121048773Y-67709804D01*
X121072572Y-67715765D01*
X121095671Y-67724030D01*
X121117850Y-67734520D01*
X121138893Y-67747132D01*
X121158599Y-67761747D01*
X121176777Y-67778223D01*
X121193253Y-67796401D01*
X121207868Y-67816107D01*
X121220480Y-67837150D01*
X121230970Y-67859329D01*
X121239235Y-67882428D01*
X121245196Y-67906227D01*
X121248796Y-67930495D01*
X121250000Y-67954999D01*
X121250000Y-69205001D01*
X121248796Y-69229505D01*
X121245196Y-69253773D01*
X121239235Y-69277572D01*
X121230970Y-69300671D01*
X121220480Y-69322850D01*
X121207868Y-69343893D01*
X121193253Y-69363599D01*
X121176777Y-69381777D01*
X121158599Y-69398253D01*
X121138893Y-69412868D01*
X121117850Y-69425480D01*
X121095671Y-69435970D01*
X121072572Y-69444235D01*
X121048773Y-69450196D01*
X121024505Y-69453796D01*
X121000001Y-69455000D01*
X120299999Y-69455000D01*
X120275495Y-69453796D01*
X120251227Y-69450196D01*
X120227428Y-69444235D01*
X120204329Y-69435970D01*
X120182150Y-69425480D01*
X120161107Y-69412868D01*
X120141401Y-69398253D01*
X120123223Y-69381777D01*
X120106747Y-69363599D01*
X120092132Y-69343893D01*
X120079520Y-69322850D01*
X120069030Y-69300671D01*
X120060765Y-69277572D01*
X120054804Y-69253773D01*
X120051204Y-69229505D01*
X120050000Y-69205001D01*
X120050000Y-67954999D01*
X120051204Y-67930495D01*
X120054804Y-67906227D01*
X120060765Y-67882428D01*
X120069030Y-67859329D01*
X120079520Y-67837150D01*
X120092132Y-67816107D01*
X120106747Y-67796401D01*
X120123223Y-67778223D01*
X120141401Y-67761747D01*
X120161107Y-67747132D01*
X120182150Y-67734520D01*
X120204329Y-67724030D01*
X120227428Y-67715765D01*
X120251227Y-67709804D01*
X120275495Y-67706204D01*
X120299999Y-67705000D01*
X121000001Y-67705000D01*
X121024505Y-67706204D01*
G37*
G04 #@! TD.AperFunction*
G04 #@! TA.AperFunction,ComponentPad*
G36*
X134994505Y-67706204D02*
G01*
X135018773Y-67709804D01*
X135042572Y-67715765D01*
X135065671Y-67724030D01*
X135087850Y-67734520D01*
X135108893Y-67747132D01*
X135128599Y-67761747D01*
X135146777Y-67778223D01*
X135163253Y-67796401D01*
X135177868Y-67816107D01*
X135190480Y-67837150D01*
X135200970Y-67859329D01*
X135209235Y-67882428D01*
X135215196Y-67906227D01*
X135218796Y-67930495D01*
X135220000Y-67954999D01*
X135220000Y-69205001D01*
X135218796Y-69229505D01*
X135215196Y-69253773D01*
X135209235Y-69277572D01*
X135200970Y-69300671D01*
X135190480Y-69322850D01*
X135177868Y-69343893D01*
X135163253Y-69363599D01*
X135146777Y-69381777D01*
X135128599Y-69398253D01*
X135108893Y-69412868D01*
X135087850Y-69425480D01*
X135065671Y-69435970D01*
X135042572Y-69444235D01*
X135018773Y-69450196D01*
X134994505Y-69453796D01*
X134970001Y-69455000D01*
X134269999Y-69455000D01*
X134245495Y-69453796D01*
X134221227Y-69450196D01*
X134197428Y-69444235D01*
X134174329Y-69435970D01*
X134152150Y-69425480D01*
X134131107Y-69412868D01*
X134111401Y-69398253D01*
X134093223Y-69381777D01*
X134076747Y-69363599D01*
X134062132Y-69343893D01*
X134049520Y-69322850D01*
X134039030Y-69300671D01*
X134030765Y-69277572D01*
X134024804Y-69253773D01*
X134021204Y-69229505D01*
X134020000Y-69205001D01*
X134020000Y-67954999D01*
X134021204Y-67930495D01*
X134024804Y-67906227D01*
X134030765Y-67882428D01*
X134039030Y-67859329D01*
X134049520Y-67837150D01*
X134062132Y-67816107D01*
X134076747Y-67796401D01*
X134093223Y-67778223D01*
X134111401Y-67761747D01*
X134131107Y-67747132D01*
X134152150Y-67734520D01*
X134174329Y-67724030D01*
X134197428Y-67715765D01*
X134221227Y-67709804D01*
X134245495Y-67706204D01*
X134269999Y-67705000D01*
X134970001Y-67705000D01*
X134994505Y-67706204D01*
G37*
G04 #@! TD.AperFunction*
D17*
X136620000Y-68580000D03*
X138620000Y-68580000D03*
X140620000Y-68580000D03*
G04 #@! TA.AperFunction,ComponentPad*
D16*
G36*
X148964505Y-67706204D02*
G01*
X148988773Y-67709804D01*
X149012572Y-67715765D01*
X149035671Y-67724030D01*
X149057850Y-67734520D01*
X149078893Y-67747132D01*
X149098599Y-67761747D01*
X149116777Y-67778223D01*
X149133253Y-67796401D01*
X149147868Y-67816107D01*
X149160480Y-67837150D01*
X149170970Y-67859329D01*
X149179235Y-67882428D01*
X149185196Y-67906227D01*
X149188796Y-67930495D01*
X149190000Y-67954999D01*
X149190000Y-69205001D01*
X149188796Y-69229505D01*
X149185196Y-69253773D01*
X149179235Y-69277572D01*
X149170970Y-69300671D01*
X149160480Y-69322850D01*
X149147868Y-69343893D01*
X149133253Y-69363599D01*
X149116777Y-69381777D01*
X149098599Y-69398253D01*
X149078893Y-69412868D01*
X149057850Y-69425480D01*
X149035671Y-69435970D01*
X149012572Y-69444235D01*
X148988773Y-69450196D01*
X148964505Y-69453796D01*
X148940001Y-69455000D01*
X148239999Y-69455000D01*
X148215495Y-69453796D01*
X148191227Y-69450196D01*
X148167428Y-69444235D01*
X148144329Y-69435970D01*
X148122150Y-69425480D01*
X148101107Y-69412868D01*
X148081401Y-69398253D01*
X148063223Y-69381777D01*
X148046747Y-69363599D01*
X148032132Y-69343893D01*
X148019520Y-69322850D01*
X148009030Y-69300671D01*
X148000765Y-69277572D01*
X147994804Y-69253773D01*
X147991204Y-69229505D01*
X147990000Y-69205001D01*
X147990000Y-67954999D01*
X147991204Y-67930495D01*
X147994804Y-67906227D01*
X148000765Y-67882428D01*
X148009030Y-67859329D01*
X148019520Y-67837150D01*
X148032132Y-67816107D01*
X148046747Y-67796401D01*
X148063223Y-67778223D01*
X148081401Y-67761747D01*
X148101107Y-67747132D01*
X148122150Y-67734520D01*
X148144329Y-67724030D01*
X148167428Y-67715765D01*
X148191227Y-67709804D01*
X148215495Y-67706204D01*
X148239999Y-67705000D01*
X148940001Y-67705000D01*
X148964505Y-67706204D01*
G37*
G04 #@! TD.AperFunction*
D17*
X150590000Y-68580000D03*
X152590000Y-68580000D03*
X154590000Y-68580000D03*
X168560000Y-68580000D03*
X166560000Y-68580000D03*
X164560000Y-68580000D03*
G04 #@! TA.AperFunction,ComponentPad*
D16*
G36*
X162934505Y-67706204D02*
G01*
X162958773Y-67709804D01*
X162982572Y-67715765D01*
X163005671Y-67724030D01*
X163027850Y-67734520D01*
X163048893Y-67747132D01*
X163068599Y-67761747D01*
X163086777Y-67778223D01*
X163103253Y-67796401D01*
X163117868Y-67816107D01*
X163130480Y-67837150D01*
X163140970Y-67859329D01*
X163149235Y-67882428D01*
X163155196Y-67906227D01*
X163158796Y-67930495D01*
X163160000Y-67954999D01*
X163160000Y-69205001D01*
X163158796Y-69229505D01*
X163155196Y-69253773D01*
X163149235Y-69277572D01*
X163140970Y-69300671D01*
X163130480Y-69322850D01*
X163117868Y-69343893D01*
X163103253Y-69363599D01*
X163086777Y-69381777D01*
X163068599Y-69398253D01*
X163048893Y-69412868D01*
X163027850Y-69425480D01*
X163005671Y-69435970D01*
X162982572Y-69444235D01*
X162958773Y-69450196D01*
X162934505Y-69453796D01*
X162910001Y-69455000D01*
X162209999Y-69455000D01*
X162185495Y-69453796D01*
X162161227Y-69450196D01*
X162137428Y-69444235D01*
X162114329Y-69435970D01*
X162092150Y-69425480D01*
X162071107Y-69412868D01*
X162051401Y-69398253D01*
X162033223Y-69381777D01*
X162016747Y-69363599D01*
X162002132Y-69343893D01*
X161989520Y-69322850D01*
X161979030Y-69300671D01*
X161970765Y-69277572D01*
X161964804Y-69253773D01*
X161961204Y-69229505D01*
X161960000Y-69205001D01*
X161960000Y-67954999D01*
X161961204Y-67930495D01*
X161964804Y-67906227D01*
X161970765Y-67882428D01*
X161979030Y-67859329D01*
X161989520Y-67837150D01*
X162002132Y-67816107D01*
X162016747Y-67796401D01*
X162033223Y-67778223D01*
X162051401Y-67761747D01*
X162071107Y-67747132D01*
X162092150Y-67734520D01*
X162114329Y-67724030D01*
X162137428Y-67715765D01*
X162161227Y-67709804D01*
X162185495Y-67706204D01*
X162209999Y-67705000D01*
X162910001Y-67705000D01*
X162934505Y-67706204D01*
G37*
G04 #@! TD.AperFunction*
G04 #@! TA.AperFunction,ComponentPad*
G36*
X148964505Y-57546204D02*
G01*
X148988773Y-57549804D01*
X149012572Y-57555765D01*
X149035671Y-57564030D01*
X149057850Y-57574520D01*
X149078893Y-57587132D01*
X149098599Y-57601747D01*
X149116777Y-57618223D01*
X149133253Y-57636401D01*
X149147868Y-57656107D01*
X149160480Y-57677150D01*
X149170970Y-57699329D01*
X149179235Y-57722428D01*
X149185196Y-57746227D01*
X149188796Y-57770495D01*
X149190000Y-57794999D01*
X149190000Y-59045001D01*
X149188796Y-59069505D01*
X149185196Y-59093773D01*
X149179235Y-59117572D01*
X149170970Y-59140671D01*
X149160480Y-59162850D01*
X149147868Y-59183893D01*
X149133253Y-59203599D01*
X149116777Y-59221777D01*
X149098599Y-59238253D01*
X149078893Y-59252868D01*
X149057850Y-59265480D01*
X149035671Y-59275970D01*
X149012572Y-59284235D01*
X148988773Y-59290196D01*
X148964505Y-59293796D01*
X148940001Y-59295000D01*
X148239999Y-59295000D01*
X148215495Y-59293796D01*
X148191227Y-59290196D01*
X148167428Y-59284235D01*
X148144329Y-59275970D01*
X148122150Y-59265480D01*
X148101107Y-59252868D01*
X148081401Y-59238253D01*
X148063223Y-59221777D01*
X148046747Y-59203599D01*
X148032132Y-59183893D01*
X148019520Y-59162850D01*
X148009030Y-59140671D01*
X148000765Y-59117572D01*
X147994804Y-59093773D01*
X147991204Y-59069505D01*
X147990000Y-59045001D01*
X147990000Y-57794999D01*
X147991204Y-57770495D01*
X147994804Y-57746227D01*
X148000765Y-57722428D01*
X148009030Y-57699329D01*
X148019520Y-57677150D01*
X148032132Y-57656107D01*
X148046747Y-57636401D01*
X148063223Y-57618223D01*
X148081401Y-57601747D01*
X148101107Y-57587132D01*
X148122150Y-57574520D01*
X148144329Y-57564030D01*
X148167428Y-57555765D01*
X148191227Y-57549804D01*
X148215495Y-57546204D01*
X148239999Y-57545000D01*
X148940001Y-57545000D01*
X148964505Y-57546204D01*
G37*
G04 #@! TD.AperFunction*
D17*
X150590000Y-58420000D03*
X152590000Y-58420000D03*
X154590000Y-58420000D03*
X168560000Y-58420000D03*
X166560000Y-58420000D03*
X164560000Y-58420000D03*
G04 #@! TA.AperFunction,ComponentPad*
D16*
G36*
X162934505Y-57546204D02*
G01*
X162958773Y-57549804D01*
X162982572Y-57555765D01*
X163005671Y-57564030D01*
X163027850Y-57574520D01*
X163048893Y-57587132D01*
X163068599Y-57601747D01*
X163086777Y-57618223D01*
X163103253Y-57636401D01*
X163117868Y-57656107D01*
X163130480Y-57677150D01*
X163140970Y-57699329D01*
X163149235Y-57722428D01*
X163155196Y-57746227D01*
X163158796Y-57770495D01*
X163160000Y-57794999D01*
X163160000Y-59045001D01*
X163158796Y-59069505D01*
X163155196Y-59093773D01*
X163149235Y-59117572D01*
X163140970Y-59140671D01*
X163130480Y-59162850D01*
X163117868Y-59183893D01*
X163103253Y-59203599D01*
X163086777Y-59221777D01*
X163068599Y-59238253D01*
X163048893Y-59252868D01*
X163027850Y-59265480D01*
X163005671Y-59275970D01*
X162982572Y-59284235D01*
X162958773Y-59290196D01*
X162934505Y-59293796D01*
X162910001Y-59295000D01*
X162209999Y-59295000D01*
X162185495Y-59293796D01*
X162161227Y-59290196D01*
X162137428Y-59284235D01*
X162114329Y-59275970D01*
X162092150Y-59265480D01*
X162071107Y-59252868D01*
X162051401Y-59238253D01*
X162033223Y-59221777D01*
X162016747Y-59203599D01*
X162002132Y-59183893D01*
X161989520Y-59162850D01*
X161979030Y-59140671D01*
X161970765Y-59117572D01*
X161964804Y-59093773D01*
X161961204Y-59069505D01*
X161960000Y-59045001D01*
X161960000Y-57794999D01*
X161961204Y-57770495D01*
X161964804Y-57746227D01*
X161970765Y-57722428D01*
X161979030Y-57699329D01*
X161989520Y-57677150D01*
X162002132Y-57656107D01*
X162016747Y-57636401D01*
X162033223Y-57618223D01*
X162051401Y-57601747D01*
X162071107Y-57587132D01*
X162092150Y-57574520D01*
X162114329Y-57564030D01*
X162137428Y-57555765D01*
X162161227Y-57549804D01*
X162185495Y-57546204D01*
X162209999Y-57545000D01*
X162910001Y-57545000D01*
X162934505Y-57546204D01*
G37*
G04 #@! TD.AperFunction*
D18*
X156475800Y-115218800D03*
X121332000Y-97660000D03*
X153670000Y-82203700D03*
X156210000Y-105663400D03*
X156210000Y-75629800D03*
X151130000Y-97930000D03*
X146050000Y-107188600D03*
X143510000Y-101174000D03*
D19*
X132230000Y-84800000D02*
X130205700Y-84800000D01*
X130205700Y-84800000D02*
X130205700Y-99899800D01*
X130205700Y-99899800D02*
X133350000Y-99899800D01*
X133350000Y-99899800D02*
X133350000Y-113030000D01*
X134620000Y-58420000D02*
X134620000Y-68580000D01*
X148590000Y-58420000D02*
X148590000Y-68580000D01*
X120650000Y-68580000D02*
X120650000Y-58420000D01*
X162560000Y-58420000D02*
X162560000Y-68580000D01*
X133350000Y-116840000D02*
X129540000Y-120650000D01*
X133350000Y-113030000D02*
X133350000Y-116840000D01*
X122650000Y-68580000D02*
X122650000Y-88775500D01*
X122650000Y-88775500D02*
X128270000Y-88775500D01*
X128270000Y-88775500D02*
X128270000Y-113030000D01*
X122650000Y-58420000D02*
X122650000Y-68580000D01*
X128270000Y-119380000D02*
X127000000Y-120650000D01*
X128270000Y-113030000D02*
X128270000Y-119380000D01*
X166560000Y-58420000D02*
X166560000Y-65039900D01*
X166560000Y-65039900D02*
X170343200Y-65039900D01*
X170343200Y-65039900D02*
X170343200Y-105627600D01*
X170343200Y-105627600D02*
X161290000Y-105627600D01*
X161290000Y-105627600D02*
X161290000Y-113030000D01*
X168560000Y-58420000D02*
X171593400Y-58420000D01*
X171593400Y-58420000D02*
X171593400Y-114917200D01*
X171593400Y-114917200D02*
X158750000Y-114917200D01*
X158750000Y-114917200D02*
X158750000Y-113030000D01*
X146050000Y-116840000D02*
X142240000Y-120650000D01*
X146050000Y-113030000D02*
X146050000Y-116840000D01*
X148590000Y-116840000D02*
X144780000Y-120650000D01*
X148590000Y-113030000D02*
X148590000Y-116840000D01*
X138430000Y-113030000D02*
X138430000Y-95899600D01*
X138430000Y-95899600D02*
X132728700Y-95899600D01*
X132728700Y-95899600D02*
X132728700Y-88125300D01*
X132728700Y-88125300D02*
X135555300Y-88125300D01*
X135555300Y-88125300D02*
X135555300Y-80300000D01*
X135555300Y-80300000D02*
X132230000Y-80300000D01*
X124650000Y-58420000D02*
X124650000Y-56419800D01*
X124650000Y-56419800D02*
X132230000Y-56419800D01*
X132230000Y-56419800D02*
X132230000Y-80300000D01*
X138430000Y-116840000D02*
X134620000Y-120650000D01*
X138430000Y-113030000D02*
X138430000Y-116840000D01*
X134305200Y-82550000D02*
X134305200Y-86875200D01*
X134305200Y-86875200D02*
X131455800Y-86875200D01*
X131455800Y-86875200D02*
X131455800Y-97149800D01*
X131455800Y-97149800D02*
X135890000Y-97149800D01*
X135890000Y-97149800D02*
X135890000Y-113030000D01*
X124730000Y-82550000D02*
X124730000Y-85450000D01*
X124730000Y-79650000D02*
X124730000Y-82550000D01*
X126650000Y-58420000D02*
X128375200Y-58420000D01*
X128375200Y-58420000D02*
X128375200Y-70581200D01*
X128375200Y-70581200D02*
X124730000Y-70581200D01*
X124730000Y-70581200D02*
X124730000Y-79650000D01*
X134305200Y-82550000D02*
X125730000Y-82550000D01*
X125679999Y-84500001D02*
X124730000Y-85450000D01*
X125730000Y-84450000D02*
X125679999Y-84500001D01*
X125730000Y-82550000D02*
X125730000Y-84450000D01*
X135890000Y-116840000D02*
X132080000Y-120650000D01*
X135890000Y-113030000D02*
X135890000Y-116840000D01*
X140970000Y-113030000D02*
X140970000Y-94649500D01*
X140970000Y-94649500D02*
X134002800Y-94649500D01*
X134002800Y-94649500D02*
X134002800Y-89837200D01*
X134002800Y-89837200D02*
X142345200Y-89837200D01*
X142345200Y-89837200D02*
X142345200Y-58420000D01*
X142345200Y-58420000D02*
X140620000Y-58420000D01*
X140970000Y-116840000D02*
X137160000Y-120650000D01*
X140970000Y-113030000D02*
X140970000Y-116840000D01*
X139700000Y-120650000D02*
X139700000Y-122625200D01*
X139700000Y-122625200D02*
X119190800Y-122625200D01*
X119190800Y-122625200D02*
X119190800Y-99455100D01*
X119190800Y-99455100D02*
X124632800Y-99455100D01*
X124632800Y-99455100D02*
X124632800Y-90025700D01*
X124632800Y-90025700D02*
X118923800Y-90025700D01*
X118923800Y-90025700D02*
X118923800Y-55169600D01*
X118923800Y-55169600D02*
X138620000Y-55169600D01*
X138620000Y-55169600D02*
X138620000Y-58420000D01*
X143510000Y-116840000D02*
X139700000Y-120650000D01*
X143510000Y-113030000D02*
X143510000Y-116840000D01*
X152751200Y-115218800D02*
X147320000Y-120650000D01*
X156475800Y-115218800D02*
X152751200Y-115218800D01*
X121332000Y-97660000D02*
X117940600Y-97660000D01*
X117940600Y-97660000D02*
X117940600Y-123875400D01*
X117940600Y-123875400D02*
X149860000Y-123875400D01*
X149860000Y-123875400D02*
X149860000Y-120650000D01*
X153670000Y-82203700D02*
X153670000Y-92710000D01*
X156210000Y-92710000D02*
X156210000Y-105663400D01*
X156210000Y-75629800D02*
X156210000Y-92710000D01*
X146835600Y-55169600D02*
X172851100Y-55169600D01*
X172851100Y-55169600D02*
X172851100Y-116167400D01*
X172851100Y-116167400D02*
X160020000Y-116167400D01*
X160020000Y-116167400D02*
X160020000Y-120650000D01*
X149664990Y-91635010D02*
X149664990Y-73660000D01*
X148590000Y-92710000D02*
X149664990Y-91635010D01*
X149664990Y-73660000D02*
X152400000Y-73660000D01*
X152590000Y-73470000D02*
X152590000Y-68580000D01*
X152400000Y-73660000D02*
X152590000Y-73470000D01*
X146835600Y-55169600D02*
X146835600Y-71120000D01*
X152590000Y-69705000D02*
X152590000Y-68580000D01*
X151175000Y-71120000D02*
X152590000Y-69705000D01*
X146835600Y-71120000D02*
X151175000Y-71120000D01*
X151130000Y-92710000D02*
X151130000Y-97930000D01*
X154590000Y-68580000D02*
X154590000Y-79456400D01*
X154590000Y-79456400D02*
X151130000Y-79456400D01*
X151130000Y-79456400D02*
X151130000Y-92710000D01*
X146050000Y-92710000D02*
X146050000Y-107188600D01*
X143510000Y-92710000D02*
X143510000Y-101174000D01*
X152590000Y-58420000D02*
X152590000Y-56419800D01*
X152590000Y-56419800D02*
X160637200Y-56419800D01*
X160637200Y-56419800D02*
X160637200Y-70581200D01*
X160637200Y-70581200D02*
X163830000Y-70581200D01*
X163830000Y-70581200D02*
X163830000Y-92710000D01*
X154590000Y-58420000D02*
X159387100Y-58420000D01*
X159387100Y-58420000D02*
X159387100Y-71831300D01*
X159387100Y-71831300D02*
X161290000Y-71831300D01*
X161290000Y-71831300D02*
X161290000Y-92710000D01*
M02*
